<?xml version="1.0" encoding="UTF-8"?><svg id="uuid-6c4c1846-89fc-47fc-b92a-215489c32c23" xmlns="http://www.w3.org/2000/svg" width="583.04004" height="647.03485" viewBox="0 0 583.04004 647.03485"><g><path d="M150.784,542.20214c-.8443-1.42365-4.49683,.10068-5.16833-1.19135-.66913-1.28735,2.72449-3.24887,4.66333-7.7298,.34967-.80807,2.55298-5.90033,.92188-7.47162-3.09174-2.97836-17.23962,9.31259-22.19073,5.29041-1.08661-.88269-1.8457-2.64484-5.13428-5.50583-1.30829-1.13815-2.09937-1.65204-2.86499-1.46085-1.08636,.27127-1.17242,1.72522-2.33734,4.58398-1.74701,4.28729-2.78027,4.02841-3.79816,7.44897-.75562,2.53925-.58301,4.01553-1.47217,4.30313-1.25824,.40701-2.41638-2.28632-4.01099-2.04517-1.6272,.24612-2.61096,3.38205-2.92169,5.72998-.58313,4.40607,1.03497,7.31348,1.93182,10.37064,.97461,3.32236,1.55304,8.37494-.69769,15.52759l-22.27719,62.76614c4.91812-12.87943,19.15842-48.18536,25.14218-61.3053,1.72742-3.78745,3.6347-7.62909,7.55096-9.14526,3.77045-1.45978,8.94867-.58823,15.55029-2.17862,.771-.1857,2.91052-.73007,3.17981-1.98849,.22266-1.04037-1.03583-1.62109-.84247-2.59549,.25934-1.30701,2.73413-1.32306,5.77533-2.83096,2.14447-1.06332,3.48047-2.32785,4.62933-3.41531,.34637-.32785,5.49512-5.26166,4.37115-7.1568h-.00006Z" fill="#f2f2f2"/><path d="M63.13889,575.24486c-.94235,.0036-1.24805,2.23611-2.07593,2.1929-.82492-.04303-.80847-2.2746-2.4483-4.5191-.29572-.40475-2.1593-2.95547-3.40115-2.60825-2.35385,.65808-.4035,11.14828-3.80618,12.41782-.74673,.27863-1.83066,.14276-4.18369,.93134-.9361,.31372-1.41656,.55371-1.54364,.98465-.1803,.61145,.50845,1.07324,1.57544,2.46979,1.60016,2.09445,1.17496,2.52692,2.56009,4.01343,1.02826,1.10352,1.80264,1.44476,1.68723,1.96414-.16327,.73499-1.81934,.52631-2.16107,1.37851-.34869,.86966,.90659,2.25729,1.9693,3.08725,1.99429,1.5575,3.88812,1.6022,5.64737,2.04413,1.91183,.48026,4.55859,1.65421,7.41974,4.82266l24.37836,29.04382c-4.90228-6.12997-18.12189-23.30609-22.83472-30.0285-1.3605-1.94061-2.69568-3.98517-2.30984-6.34479,.37143-2.27176,2.29327-4.56177,3.41748-8.26077,.13132-.43201,.48145-1.63916-.05847-2.13443-.44638-.40945-1.09451,.04068-1.51697-.33539-.56665-.50443,.13953-1.72369,.27689-3.6514,.09686-1.35931-.13831-2.37988-.34055-3.25754-.06097-.26459-.99695-4.21518-2.25137-4.21036v.00009Z" fill="#f2f2f2"/><path d="M81.93851,579.46496l-.56775-5.06818,.2594-.38422c1.20035-1.77667,1.81216-3.51175,1.81949-5.15872,.00122-.26184-.01102-.52371-.02325-.79044-.04895-1.05719-.11011-2.37134,.5751-3.90329,.38422-.85406,1.46344-2.83142,3.08594-2.5867,.43683,.06119,.76721,.26184,1.01804,.49677,.03671-.05872,.07465-.11746,.11502-.18109,.50534-.77087,.90546-1.10123,1.29089-1.41937,.29611-.24472,.60202-.49677,1.08167-1.0939,.21045-.26184,.37442-.49188,.5127-.68521,.41971-.58487,.96786-1.28235,1.93451-1.27011,1.03271,.04895,1.57355,.90302,1.93207,1.46832,.63995,1.00824,.92993,1.73508,1.12204,2.21716,.06976,.17621,.14929,.37442,.18967,.43561,.33282,.48944,3.03824,.0318,4.05746-.13461,2.28937-.38177,4.27039-.71213,5.08655,.73172,.5849,1.03271,.15051,2.39825-1.33008,4.1676-.4613,.55063-.95197,.96909-1.38757,1.29703,.36096,.21536,.68396,.54572,.81494,1.06454h0c.30835,1.22849-.74762,2.45944-3.13733,3.66348-.59344,.30099-1.39246,.70236-2.51205,.89569-.52737,.09055-1.00214,.11258-1.40836,.12482-.00858,.23492-.06363,.48944-.20679,.75128-.41971,.77087-1.29333,1.13794-2.60995,1.04984-1.44876-.07587-2.64175-.35239-3.69406-.59467-.91891-.21045-1.7106-.3891-2.33218-.3475-1.15262,.09299-2.04099,1.01559-3.08347,2.21228l-2.6026,3.04187h-.00003Z" fill="#f2f2f2"/><path d="M84.5722,549.28902l-4.75842,1.83472-.43744-.15347c-2.02304-.71045-3.85654-.86215-5.45151-.45148-.2536,.06525-.50378,.14349-.7587,.22299-1.01019,.31549-2.26587,.70801-3.92151,.43378-.92361-.155-3.11002-.69739-3.28485-2.32889-.05161-.43805,.05869-.80853,.22232-1.11075-.06613-.0206-.13257-.04239-.20435-.06531-.87384-.2933-1.29489-.59653-1.70041-.88867-.31183-.22437-.63324-.45633-1.33249-.76883-.30667-.13715-.57077-.2374-.79285-.32211-.67221-.2576-1.4859-.61096-1.71924-1.5491-.2146-1.01135,.47437-1.75113,.93024-2.24133,.81296-.87476,1.44244-1.33963,1.86005-1.64774,.15274-.11215,.32431-.23938,.37326-.29395,.38901-.44608-.73987-2.94693-1.15936-3.89062-.94998-2.11765-1.77203-3.95007-.5824-5.10577,.85059-.8277,2.28165-.75391,4.36868,.22946,.64963,.30655,1.17886,.67502,1.60657,1.01321,.11676-.40378,.35437-.80005,.82303-1.05829h0c1.11011-.60986,2.56863,.09933,4.33945,2.10547,.44168,.49768,1.03259,1.16876,1.50357,2.2027,.22134,.48715,.36307,.9408,.47797,1.33066,.22943-.0513,.48956-.06259,.77917,.00946,.85211,.21045,1.4288,.9624,1.67752,2.2583,.2941,1.42062,.32922,2.64474,.36179,3.72409,.02951,.94226,.0575,1.75336,.25543,2.34406,.38232,1.09134,1.50006,1.71661,2.92206,2.42148l3.60254,1.74591-.00012,.00003Z" fill="#f2f2f2"/><path d="M81.93851,534.35802l-.56775-5.06818,.2594-.38422c1.20035-1.77667,1.81216-3.51175,1.81949-5.15872,.00122-.26184-.01102-.52371-.02325-.79044-.04895-1.05719-.11011-2.37134,.5751-3.90329,.38422-.85406,1.46344-2.83142,3.08594-2.5867,.43683,.06119,.76721,.26184,1.01804,.49677,.03671-.05872,.07465-.11746,.11502-.18109,.50534-.77087,.90546-1.10123,1.29089-1.41937,.29611-.24472,.60202-.49677,1.08167-1.0939,.21045-.26184,.37442-.49188,.5127-.68521,.41971-.58487,.96786-1.28235,1.93451-1.27011,1.03271,.04895,1.57355,.90302,1.93207,1.46832,.63995,1.00824,.92993,1.73508,1.12204,2.21716,.06976,.17621,.14929,.37442,.18967,.43561,.33282,.48944,3.03824,.0318,4.05746-.13461,2.28937-.38177,4.27039-.71213,5.08655,.73172,.5849,1.03271,.15051,2.39825-1.33008,4.1676-.4613,.55063-.95197,.96909-1.38757,1.29703,.36096,.21536,.68396,.54572,.81494,1.06454h0c.30835,1.22849-.74762,2.45944-3.13733,3.66348-.59344,.30099-1.39246,.70236-2.51205,.89569-.52737,.09055-1.00214,.11258-1.40836,.12482-.00858,.23492-.06363,.48944-.20679,.75128-.41971,.77087-1.29333,1.13794-2.60995,1.04984-1.44876-.07587-2.64175-.35239-3.69406-.59467-.91891-.21045-1.7106-.3891-2.33218-.3475-1.15262,.09299-2.04099,1.01559-3.08347,2.21228l-2.6026,3.04187h-.00003Z" fill="#f2f2f2"/><path d="M87.12415,632.73577l-1.0621-.66565-.25696-1.22604,.25696,1.22604-1.23828,.14194c-.01959-.11502-.08688-.37933-.18842-.79291-.55429-2.26611-2.24408-9.16235-3.65369-20.02304-.9838-7.58145-1.54053-15.37579-1.65555-23.17017-.11502-7.80658,.25452-13.71661,.55063-18.46661,.22391-3.5827,.49557-6.99411,.7623-10.31744,.70969-8.87848,1.379-17.26505,.88098-26.54974-.11011-2.07278-.3414-6.38721-2.862-10.97818-1.46222-2.66257-3.47626-5.02655-5.98709-7.02347l1.56131-1.96265c2.77145,2.20737,4.99963,4.8259,6.62338,7.78214,2.79471,5.09018,3.04678,9.79129,3.16791,12.05005,.50656,9.44867-.17007,17.91602-.88712,26.88013-.26431,3.31107-.53595,6.70779-.75864,10.27582-.29367,4.70599-.65952,10.56458-.54572,18.27084,.11258,7.70135,.66318,15.40027,1.63351,22.88629,1.39246,10.72366,3.0578,17.51712,3.60474,19.74896,.29123,1.1918,.35239,1.44141,.05383,1.91373v-.00003Z" fill="#f2f2f2"/><path d="M68.07507,518.87212c-.10278,0-.20679-.00244-.31201-.0098-2.13397-.11502-4.11008-1.39246-5.87451-3.79562-.82715-1.13062-1.25052-2.42029-2.09482-4.99231-.13092-.39645-.76721-2.40805-1.15387-5.17584-.2533-1.8085-.22147-2.56467,.13705-3.23276,.39767-.74396,1.04129-1.26276,1.76566-1.6127-.0318-.23984-.00613-.487,.0979-.73907,.42703-1.04495,1.56253-.9079,2.17679-.84183,.31079,.03915,.69867,.09055,1.11716,.06851,.65829-.0318,1.01193-.2276,1.54785-.52127,.5127-.28143,1.15018-.63138,2.09604-.82471,1.86478-.3891,3.42731,.1395,3.94244,.31323,2.71027,.90302,4.04645,3.01007,5.59308,5.44992,.30835,.48944,1.36676,2.271,2.06543,4.71332,.50412,1.76199,.43317,2.5451,.28143,3.12753-.30835,1.19669-1.03638,1.8819-2.88525,3.39429-1.93085,1.58334-2.89993,2.37625-3.73199,2.85834-1.93695,1.11838-3.15323,1.82071-4.76837,1.82071v.00006Z" fill="#f2f2f2"/></g><path d="M583.04004,632.5963h0c0,.46393-.3761,.84003-.84003,.84003H0v-1.68005H582.20001c.46393,0,.84003,.3761,.84003,.84003Z" fill="#e6e6e6"/><g><g><path id="uuid-506e980e-f0d6-40ec-b8bf-dc46994aec97" d="M262.5662,182.27696c-5.91843-6.91496-14.28373-9.46636-18.68384-5.69912-4.40011,3.76725-3.16845,12.42532,2.75301,19.34196,2.32748,2.79536,5.29055,4.99269,8.64133,6.40812l25.44662,28.9823,13.34601-12.23125-26.50278-27.27284c-.88184-3.53016-2.59646-6.79774-5.00035-9.52918Z" fill="#ffb6b6"/><path d="M453.56561,217.6194s5.56567,25.47593-16.52528,33.59933-79.33723,39.31417-83.57478,37.88477c-4.23755-1.4294-18.10076,5.54865-34.46302-9.33755s-55.89195-59.76595-55.89195-59.76595l16.25995-22.08294,61.21867,42.29051s1.30933-.38853,7.11252-.9901c5.80319-.60157,1.26457,3.05916,10.34181-4.2623s67.01289-33.55998,67.01289-33.55998c0,0,17.00083-8.42446,28.50921,16.22421Z" fill="#2f2e41"/></g><path d="M309.11057,573l9,29-25,17-18-16s7-25,4-31l30,1Z" fill="#ffb6b6"/><polygon points="436.11057 162 450.44915 193.62992 408.4964 219.70866 406.11057 182 436.11057 162" fill="#ffb6b6"/><polygon points="436.11057 162 450.44915 193.62992 408.4964 219.70866 406.11057 182 436.11057 162" opacity=".1"/><path d="M569.33494,270.18872c-13.98242-8.0498-27.28198,4.80737-39.67456,45.43542,0,0-52.34509,74.1366-52.36145,105.0741h-149.74585l-33.12555,46.98633-2.54462,.40723s16.61011,3.9707,42.68268,8.34424v156.19189h8.94214v-154.73779c7.80585,1.22876,16.28265,2.45801,25.27795,3.61182v151.12598h8.9422v-150.02771c25.03625,2.94592,53.44781,5.16443,82.26807,5.16443,1.83777,0,3.61511-.03564,5.36536-.08691v144.9502h8.94214v-145.45264c14.43115-1.23657,25.50256-4.35034,33.98022-8.52295v153.97559h8.94214v-159.40454c22.7063-16.95532,17.88452-42.68872,17.88452-42.68872-6.82471-40.94751,25.93506-102.729,41.8335-129.69348,6.23706-10.57861,3.03381-24.52527-7.60889-30.65247Z" fill="#ccc"/><circle cx="419.62257" cy="159.73379" r="30.46438" fill="#ffb6b6"/><path d="M408.11057,213l43-29-7,245s-35.5-61.5-62.5-64.5c0,0,3-7,5-11s5-24,5-24l14-108,2.5-8.5Z" fill="#6c63ff"/><path d="M442.61057,466.5l-38-134s6-108,46.5-148.5l9.5,14.5s9.3937,1.3937,7.69685,7.69685,37.30315,238.30315,37.30315,238.30315h-40.42126s-3.57874,22-22.57874,22Z" fill="#2f2e41"/><path d="M408.11057,213v-4s-18.5,1.5-19.5,12.5-9,54-1,80l-10,16-7,38,22,6,12-92.27953s8-48.72047,3.5-56.22047Z" fill="#2f2e41"/><path d="M443.61057,403.5s17,49-19,50c-36,1-92.08268,1-92.08268,1l-27.91732,15,8,109-56,1s-18-134-2-150c16-16,62-33,62-33l53-27,14.90551-18.09449,59.09449,52.09449Z" fill="#2f2e41"/><path d="M445.65085,177.5c2.12445-.75476,22.00967-24.06042,5.45972-39.5,0,0-6.4489-18.86123-32.16741-16.88288-25.71851,1.97835-32.64272,16.04486-32.64272,23.35462s6.81013,15.52827,6.81013,15.52827c0,0-4.83179-20.08859,6.04912-19.09941,10.88091,.98917,7.91339,4.94587,15.82677,2.96752s15.82677,.98917,15.82677,.98917l7.91339,2.96752v12.06869s3.45042-2.76891,3.70356,0,3.22067,17.60651,3.22067,17.60651Z" fill="#2f2e41"/><path d="M273.61057,424.5l-1,31-39-7s16.74556-27.55906,14.37278-35.27953l25.62722,11.27953Z" fill="#ffb6b6"/><path d="M269.61057,448.5s7,0,7,4c0,4,11,35-10,36s-20-3-20-3c0,0-59,27-80-13,0,0-5-10,7-12,12-2,60-18.74409,60-18.74409,0,0,28,10.74409,36,6.74409Z" fill="#2f2e41"/><path d="M310.11057,602s7-8.48031,8-7.74016,23,25.74016,8,32.74016c-15,7-23,10-23,10l-4-6s-30,29-76,9c0,0-4-9,5-11s47-32.47244,47-32.47244c0,0,16,11.47244,24,9.47244s11-4,11-4Z" fill="#2f2e41"/><path d="M381.61057,361.5s-93.5-47.5-101.5-47.5c-8,0-23.29134,3.29134-26.64567,18.64567-3.35433,15.35433-23.35433,89.35433-23.35433,89.35433l49,12,19-53,31,28,52.5-31.30709v-16.19291Z" fill="#2f2e41"/><g><path id="uuid-724716db-9301-4721-8891-c606ecc0c822" d="M337.58374,343.15024c-9.00541,1.32175-15.62306,7.03969-14.78095,12.77065,.84211,5.73096,8.82422,9.30381,17.83266,7.98039,3.60576-.4793,7.0443-1.81513,10.02794-3.89575l38.08558-6.08216-3.23513-17.81161-37.20217,7.88696c-3.45691-1.13554-7.13554-1.42649-10.72795-.84848Z" fill="#ffb6b6"/><path d="M469.29411,200.38386s24.52184,8.87014,19.62006,31.89127-9.02484,88.08264-12.49296,90.90614-4.95341,18.27262-26.2701,24.18205c-21.31669,5.90943-82.48719,32.06607-82.48719,32.06607l-7.88998-42.16076,68.413-29.25533s.36917-1.31492,2.95341-6.54565,3.2624,.56065,1.90609-11.02212c-1.35631-11.58276,7.3243-74.5879,7.3243-74.5879,0,0,1.93389-18.87485,28.92339-15.47378Z" fill="#2f2e41"/></g><path d="M247.86203,13.93602h0c-.1235,.12004-.2374,.24633-.35956,.36737-19.07095-18.92456-49.78457-19.09105-69.05964-.37452h0c-19.34363,18.79034-19.99731,49.63684-1.46703,69.22981l-.01206,.01172,.46139,.47513h0l68.23757,70.25912,70.73436-68.69908-.19675-.20245c.11881-.11323,.24253-.21819,.36045-.33298h0c19.53279-18.97068,19.98837-50.18376,1.0177-69.71655h0c-18.97068-19.53268-50.18388-19.98826-69.71644-1.01759Z" fill="#6c63ff"/></g></svg>