<?xml version="1.0" encoding="UTF-8"?><svg id="uuid-893b3709-61c8-4433-8435-29c53edce9d1" xmlns="http://www.w3.org/2000/svg" width="524.67004" height="341.19113" viewBox="0 0 524.67004 341.19113"><polygon points="146.06358 297.49711 116.44513 300.7165 102.27977 291.05829 94.07919 300.7165 98.01545 321.09568 102.52261 337.19269 129.85255 323.31263 151.85851 321.32065 146.06358 297.49711" fill="#a0616a"/><polygon points="296.08755 263.37146 224.61691 262.08371 137.69316 298.78486 149.28299 323.89615 227.8363 302.00425 349.52957 336.77378 332.7887 254.35717 296.08755 263.37146" fill="#2f2e41"/><path d="M100.05315,299.8444l14.20534-1.10577-18.06862-38.1709s-8.37044-2.95575-9.6582,6.24866c-1.28776,9.20444,9.69613,71.52731,12.91553,71.52731s14.02135-6.30206,14.02135-6.30206l-15.99093-30.26562,2.57552-1.93164,.00002,.00003Z" fill="#2f2e41"/><path d="M456.34937,289.39264c-1.42984,.15384-2.98969,.38474-4.64886,.7226-7.03516,1.43253-7.18118,6.20959-7.11951,7.30475l-.04779-.02979c-.7074,1.13477-1.15045,2.28314-1.41821,3.367l-.32217-14.64099c.20831-.43436,.39786-.92685,.55588-1.43167,.52661,1.6217,1.38986,3.15378,2.134,3.05222,.96762-.13205,1.38947-2.97916,1.20898-5.00247,1.23047,1.58466,3.3013,3.27942,4.08252,2.75684,.62424-.41757,.25409-2.13672-.42743-3.69965,1.42007,.85553,2.9928,1.41785,3.48083,.87457,.66599-.74133-.92984-3.27087-2.40155-4.68289,1.96997,.18372,4.47543-.13016,4.63968-1.02673,.13535-.73874-1.3558-1.6709-2.95181-2.27087,1.60309-.42267,3.10217-1.15918,3.05246-1.88776-.05905-.86551-2.28467-1.44547-4.20471-1.53369,1.44821-1.133,2.77887-2.69922,2.37195-3.40756-.37411-.65121-2.11447-.39896-3.72015,.17459,.95023-1.35852,1.61829-2.88934,1.1095-3.41324-.63376-.65259-2.88309,.47379-4.41815,1.71884,.29883-1.93967,.14777-4.38803-.72223-4.60956-.72781-.18533-1.75931,1.23892-2.46652,2.79041-.31256-1.62814-.94531-3.17389-1.6756-3.17389-1.04031,0-1.88367,3.1366-1.88367,5.18008,0,.11551,.00305,.22424,.00833,.32812-.10443-.12106-.22409-.24753-.36057-.38007-1.46597-1.42368-4.30362-3.00388-5.02841-2.2576-.50876,.5239,.15927,2.05472,1.1095,3.41324-1.60568-.57355-3.34604-.82581-3.72015-.17459-.50269,.87503,1.64603,3.05936,3.39258,4.11865-.10498-.01266-.2153-.02328-.3327-.03131-2.03876-.1391-5.22546,.48877-5.2963,1.52667-.04971,.72858,1.44937,1.46509,3.05246,1.88776-1.59601,.59995-3.08716,1.53214-2.95181,2.27087,.16425,.89658,2.66971,1.21045,4.63968,1.02673-1.47171,1.41202-3.06754,3.94156-2.40155,4.68289,.48804,.54327,2.06079-.01904,3.48083-.87457-.68152,1.56293-1.05167,3.28207-.42743,3.69965,.82498,.55185,3.08749-1.3688,4.28036-3.02148-.12155,2.02185,.36224,4.79944,1.32214,4.90906,.40143,.04584,.82678-.38226,1.21069-1.04144l-1.08725,15.73734c-.25415,1.83273,1.37152,3.02869,1.51682,3.7836l.2345,10.65707c-.26465-.75903-.62115-1.53583-1.10168-2.30667l-.04779,.02982c.06165-1.09531-.08447-5.87219-7.11951-7.30472-1.65921-.33786-3.21902-.56876-4.6489-.7226-1.68781-.18161-2.34616,2.12881-.82144,2.87506,2.20813,1.08075,4.28525,2.44241,5.36789,4.05487,2.76794,4.12253,6.59241,1.73947,7.13617,1.36948,.60736,1.01105,1.00562,2.02963,1.25714,2.99884l.12454,5.65955c-.03052,.13385-.05164,.2088-.05328,.21442l.05835,.01712,.30139,13.69662,2.79578-.02246-1-14c.16803-.75522,.68503-3.32803,0-6l-1-11h0c-.0025-.00848,.05676,.28879,0,0l-1.30444-4.3222c.18967-1.33716,.62991-2.84119,1.52393-4.32944,.54376,.37,4.36823,2.75305,7.13617-1.36948,1.08264-1.61249,3.15979-2.97415,5.36789-4.05487,1.52472-.74625,.86636-3.05664-.82144-2.87506h.00009Zm-12.77139,32.4057l-.0527-2.39529c.10629,.90567,.10092,1.72314,.0527,2.39529Z" fill="#f2f2f2"/><path d="M0,337.10724c0,.66003,.53003,1.19,1.19006,1.19H523.48004c.65997,0,1.19-.52997,1.19-1.19,0-.65997-.53003-1.19-1.19-1.19H1.19006c-.66003,0-1.19006,.53003-1.19006,1.19Z" fill="#3f3d56"/><path d="M393.31339,117.85466c-5.34259-2.02077-5.02261-5.08144-12.2337-9.01432-3.09229-1.68651-5.56055-3.03267-9.01431-3.2194-6.09366-.32945-10.73822,3.1946-14.16534,5.79492-4.9899,3.78605-7.63254,8.03392-9.01431,10.30207-2.31772,3.80441-3.38736,6.9789-4.50717,10.30207-1.64709,4.88818-2.27756,8.54784-3.21939,14.16534-1.40567,8.38394-2.1084,12.57588-1.28775,16.09698,1.52167,6.52872,4.87036,6.98181,4.50717,10.94595-.61346,6.69633-10.34427,7.31792-11.58984,14.16534-1.03311,5.67953,4.34015,12.51582,10.30206,14.80923,3.61829,1.39186,6.94992,.91676,16.09698-1.93164,24.2644-7.55598,28.15811-12.72585,36.05725-10.30206,4.49271,1.37852,6.94946,4.19119,13.52148,4.50716,4.20258,.20206,9.27362-.65598,9.6582-2.57552,.4892-2.44157-7.14996-3.87361-7.72656-8.37044-.60504-4.71878,7.35959-6.62997,7.72656-12.2337,.3595-5.48972-7.11444-6.25002-10.94595-14.80923-1.92715-4.30508-1.71399-10.16736-1.28775-21.89191,.32895-9.0478,1.20563-12.54797-1.28775-14.80923-2.80557-2.54435-5.64816,.31573-11.58984-1.93164h-.00003Z" fill="#2f2e41"/><polygon points="346.55301 177.51052 353.63568 153.68697 374.23984 153.04311 382.61026 182.66155 346.55301 177.51052" fill="#a0616a"/><polygon points="346.55301 177.51052 353.63568 153.68697 374.23984 153.04311 382.61026 182.66155 346.55301 177.51052" isolation="isolate" opacity=".1"/><path d="M378.18222,174.19414l-33.48175-1.28777-10.3812,21.34502-16.01788,94.55333,84.02631,18.99445s5.15103-105.59627-6.43881-120.4055-17.7067-13.19952-17.7067-13.19952h.00003Z" fill="#e6e6e6"/><circle cx="361.57373" cy="139.97707" r="24.89981" fill="#a0616a"/><path d="M372.95209,160.76964c1.25259-1.29485,6.62445-2.68739,4.99396-5.94315-.5354-1.06911-1.91852-1.79892-3.04541-1.65784-2.13605,.26749-2.70499,3.58353-3.65186,3.45738-1.25003-.16655-1.6048-6.12549-1.75668-12.52766-.24689-10.40492,.29074-11.49411-1.04147-13.09126-1.2261-1.47-2.11624-1.0685-15.83344-3.17396-4.63126-.71085-6.14017-1.0038-8.38803-.34608-4.27383,1.25053-5.87787,4.37495-7.56406,3.64194-1.62378-.70589-2.0134-4.41948-1.08435-7.26084,1.32715-4.05885,5.26782-6.10103,8.01889-7.47835,7.02338-3.51629,12.11316-2.37288,12.90668-4.9537,.59454-1.93386-2.17999-2.84679-2.43896-6.77305-.27771-4.21,2.64206-7.25727,2.82788-7.4454,1.83484-1.8574,3.93936-2.42969,4.85483-2.66636,1.28192-.3314,2.78497-.71999,4.55161-.10876,.35339,.12225,2.53192,.91236,3.53317,3.01244,.95557,2.0042,.09641,3.64447,.82397,3.98802,.82584,.38997,1.88184-1.7477,4.85483-2.66636,.62744-.19387,1.50833-.4565,2.63342-.33618,2.36115,.25253,3.84827,1.98315,4.24838,2.44885,1.03827,1.20831,1.3678,2.39854,2.02695,4.77904,.33929,1.22525,.73007,2.67511,.74817,4.62742,.01215,1.31073,.02322,2.50315-.45483,3.83641,0,.00006-.7775,2.16861-5.23386,5.86337h0c.00009-.00009,1.86588-1.85142,2.78503-1.61498,1.57263,.40454,7.67688,2.46433,10.67535,8.39793,1.35602,2.68335,2.2388,2.26868,3.30576,4.93065,.25116,.62668,2.09009,5.41888,.06589,10.38203-1.54825,3.79613-3.5881,3.35638-4.74609,7.21799-.55356,1.84579-.0824,1.92937-.83386,7.03342-.43198,2.93405-4.24417,.5993-4.90439,1.85152-.44611,.84618,6.26056,25.70647,2.61755,29.14958-3.56912,3.37323-19.19629-22.74811-15.49512-26.57407l.00009-.00002Z" fill="#2f2e41"/><g><path id="uuid-dd8963a3-c636-4597-8fbb-8b6f7b4e4c7a" d="M280.12268,100.1487c-1.39569-7.45355-6.37283-12.77514-11.11618-11.88614s-7.45593,7.65118-6.05875,15.1072c.51727,2.98603,1.7421,5.80477,3.57205,8.22038l6.31238,31.50632,12.45273-2.52798-5.51675-31.46108c.83194-2.91508,.95352-5.98704,.35452-8.9587Z" fill="#a0616a"/><polygon points="373.16721 182.77419 304.78848 169.29909 285.57205 111.50288 264.03894 116.59649 285.64078 201.97655 363.04163 212.16091 373.16721 182.77419" fill="#e6e6e6"/></g><path d="M269.02789,7.56667h0c-.06705,.06518-.12891,.13375-.19522,.19947-10.35471-10.27524-27.03091-10.36564-37.49648-.20335h0c-10.50278,10.20236-10.8577,26.95071-.79654,37.58887l-.00655,.00637,.25052,.25797h0l37.05014,38.14774,38.40579-37.3007-.10684-.10992c.06451-.06148,.13168-.11847,.19571-.18079h0c10.60547-10.30028,10.85284-27.24767,.55258-37.85315h0c-10.30029-10.60542-27.24774-10.85278-37.85309-.55251h-.00003Z" fill="#6c63ff"/><path d="M278.19125,196.76557h0c-.1235,.12004-.2374,.24632-.35956,.36737-19.07095-18.92456-49.78458-19.09105-69.05963-.37453h0c-19.34363,18.79034-19.99731,49.63684-1.46703,69.22981l-.01205,.01172,.4614,.47513h0l68.23756,70.25912,70.73438-68.6991-.19675-.20245c.1188-.11322,.24252-.2182,.36044-.33298h0c19.53278-18.97067,19.98837-50.18376,1.0177-69.71655h0c-18.97067-19.53268-50.18387-19.98827-69.71643-1.01759l-.00003,.00005Z" fill="#6c63ff"/><path d="M398.46442,296.20936s12.87759,30.26236-1.28775,37.34503-52.96542,12.87759-62.53998,0-12.79395-72.1145-12.79395-72.1145l-30.90622,43.13995-17.38477-10.94595s20.60416-72.75839,37.98889-76.62167c17.38477-3.86328,63.74408,42.49606,63.74408,42.49606l23.17966,36.70114,.00003-.00006Z" fill="#2f2e41"/><polygon points="281.27832 289.77054 267.75684 303.29203 249.08434 312.9502 251.01598 329.69108 286.42935 325.82779 290.93652 316.81348 289.64877 309.08695 292.22427 296.85321 281.27832 289.77054" fill="#a0616a"/><path d="M253.59151,323.25229l-1.10577-14.20535-38.17088,18.06863s-2.95576,8.37045,6.24867,9.6582,70.373,1.28775,70.373-1.93164,1.67307-19.70169,1.67307-19.70169l-37.08646,10.68738-1.93164-2.57553h.00002Z" fill="#2f2e41"/><g><path id="uuid-4cf8c6af-0301-47cb-8b53-a91403b58703" d="M281.73056,274.90503c-7.54608,.74829-13.2767,5.24844-12.79968,10.05075s6.98035,8.0874,14.52902,7.33783c3.0195-.25806,5.93329-1.2355,8.49756-2.85052l31.93304-3.57437-1.44568-12.62424-31.8194,2.78561c-2.83255-1.08002-5.88263-1.46582-8.89487-1.12506Z" fill="#a0616a"/><polygon points="372.06537 189.32532 352.74896 256.28879 293.51205 270.45417 296.73145 292.34607 383.65518 278.18073 400.4704 201.94515 372.06537 189.32532" fill="#e6e6e6"/></g></svg>