<?xml version="1.0" encoding="UTF-8"?><svg id="uuid-ca037710-5e80-4588-a531-0d03b9159852" xmlns="http://www.w3.org/2000/svg" width="524.67004" height="341.19113" viewBox="0 0 524.67004 341.19113"><g><polygon points="146.06358 297.49711 116.44513 300.7165 102.27977 291.05829 94.07919 300.7165 98.01545 321.09568 102.52261 337.19269 129.85255 323.31263 151.85851 321.32065 146.06358 297.49711" fill="#a0616a"/><polygon points="296.08755 263.37146 224.61691 262.08371 137.69316 298.78486 149.28299 323.89615 227.8363 302.00425 349.52957 336.77378 332.7887 254.35717 296.08755 263.37146" fill="#2f2e41"/><path d="M100.05315,299.8444l14.20534-1.10577-18.06862-38.1709s-8.37044-2.95575-9.6582,6.24866c-1.28776,9.20444,9.69613,71.52731,12.91553,71.52731s14.02135-6.30206,14.02135-6.30206l-15.99093-30.26562,2.57552-1.93164,.00002,.00003Z" fill="#2f2e41"/><path d="M456.34937,289.39264c-1.42984,.15384-2.98969,.38474-4.64886,.7226-7.03516,1.43253-7.18118,6.20959-7.11951,7.30475l-.04779-.02979c-.7074,1.13477-1.15045,2.28314-1.41821,3.367l-.32217-14.64099c.20831-.43436,.39786-.92685,.55588-1.43167,.52661,1.6217,1.38986,3.15378,2.134,3.05222,.96762-.13205,1.38947-2.97916,1.20898-5.00247,1.23047,1.58466,3.3013,3.27942,4.08252,2.75684,.62424-.41757,.25409-2.13672-.42743-3.69965,1.42007,.85553,2.9928,1.41785,3.48083,.87457,.66599-.74133-.92984-3.27087-2.40155-4.68289,1.96997,.18372,4.47543-.13016,4.63968-1.02673,.13535-.73874-1.3558-1.6709-2.95181-2.27087,1.60309-.42267,3.10217-1.15918,3.05246-1.88776-.05905-.86551-2.28467-1.44547-4.20471-1.53369,1.44821-1.133,2.77887-2.69922,2.37195-3.40756-.37411-.65121-2.11447-.39896-3.72015,.17459,.95023-1.35852,1.61829-2.88934,1.1095-3.41324-.63376-.65259-2.88309,.47379-4.41815,1.71884,.29883-1.93967,.14777-4.38803-.72223-4.60956-.72781-.18533-1.75931,1.23892-2.46652,2.79041-.31256-1.62814-.94531-3.17389-1.6756-3.17389-1.04031,0-1.88367,3.1366-1.88367,5.18008,0,.11551,.00305,.22424,.00833,.32812-.10443-.12106-.22409-.24753-.36057-.38007-1.46597-1.42368-4.30362-3.00388-5.02841-2.2576-.50876,.5239,.15927,2.05472,1.1095,3.41324-1.60568-.57355-3.34604-.82581-3.72015-.17459-.50269,.87503,1.64603,3.05936,3.39258,4.11865-.10498-.01266-.2153-.02328-.3327-.03131-2.03876-.1391-5.22546,.48877-5.2963,1.52667-.04971,.72858,1.44937,1.46509,3.05246,1.88776-1.59601,.59995-3.08716,1.53214-2.95181,2.27087,.16425,.89658,2.66971,1.21045,4.63968,1.02673-1.47171,1.41202-3.06754,3.94156-2.40155,4.68289,.48804,.54327,2.06079-.01904,3.48083-.87457-.68152,1.56293-1.05167,3.28207-.42743,3.69965,.82498,.55185,3.08749-1.3688,4.28036-3.02148-.12155,2.02185,.36224,4.79944,1.32214,4.90906,.40143,.04584,.82678-.38226,1.21069-1.04144l-1.08725,15.73734c-.25415,1.83273,1.37152,3.02869,1.51682,3.7836l.2345,10.65707c-.26465-.75903-.62115-1.53583-1.10168-2.30667l-.04779,.02982c.06165-1.09531-.08447-5.87219-7.11951-7.30472-1.65921-.33786-3.21902-.56876-4.6489-.7226-1.68781-.18161-2.34616,2.12881-.82144,2.87506,2.20813,1.08075,4.28525,2.44241,5.36789,4.05487,2.76794,4.12253,6.59241,1.73947,7.13617,1.36948,.60736,1.01105,1.00562,2.02963,1.25714,2.99884l.12454,5.65955c-.03052,.13385-.05164,.2088-.05328,.21442l.05835,.01712,.30139,13.69662,2.79578-.02246-1-14c.16803-.75522,.68503-3.32803,0-6l-1-11h0c-.0025-.00848,.05676,.28879,0,0l-1.30444-4.3222c.18967-1.33716,.62991-2.84119,1.52393-4.32944,.54376,.37,4.36823,2.75305,7.13617-1.36948,1.08264-1.61249,3.15979-2.97415,5.36789-4.05487,1.52472-.74625,.86636-3.05664-.82144-2.87506h.00009Zm-12.77139,32.4057l-.0527-2.39529c.10629,.90567,.10092,1.72314,.0527,2.39529Z" fill="#f2f2f2"/><path d="M0,337.10724c0,.66003,.53003,1.19,1.19006,1.19H523.48004c.65997,0,1.19-.52997,1.19-1.19,0-.65997-.53003-1.19-1.19-1.19H1.19006c-.66003,0-1.19006,.53003-1.19006,1.19Z" fill="#3f3d56"/><polygon points="346.55301 177.51052 353.63568 153.68697 374.23984 153.0431 382.61026 182.66155 346.55301 177.51052" fill="#a0616a"/><polygon points="346.55301 177.51052 353.63568 153.68697 374.23984 153.0431 382.61026 182.66155 346.55301 177.51052" isolation="isolate" opacity=".1"/><path d="M378.18222,174.19414l-33.48175-1.28777-10.3812,21.34502-16.01788,94.55333,84.02631,18.99445s5.15103-105.59627-6.43881-120.4055-17.7067-13.19952-17.7067-13.19952h.00003Z" fill="#e6e6e6"/><g><path id="uuid-d56b3625-4c94-42bd-b945-161326df6b90" d="M280.12268,100.1487c-1.39569-7.45355-6.37283-12.77514-11.11618-11.88614s-7.45593,7.65118-6.05875,15.1072c.51727,2.98603,1.7421,5.80477,3.57205,8.22038l6.31238,31.50632,12.45273-2.52798-5.51675-31.46108c.83194-2.91508,.95352-5.98704,.35452-8.9587Z" fill="#a0616a"/><polygon points="373.16721 182.77419 304.78848 169.29908 285.57205 111.50288 264.03894 116.59648 285.64078 201.97655 363.04163 212.16091 373.16721 182.77419" fill="#e6e6e6"/></g><path d="M269.02789,7.56667h0c-.06705,.06518-.12891,.13375-.19522,.19947-10.35471-10.27524-27.03091-10.36564-37.49648-.20335h0c-10.50278,10.20236-10.8577,26.95071-.79654,37.58887l-.00655,.00637,.25052,.25797h0l37.05014,38.14774,38.40579-37.3007-.10684-.10992c.06451-.06148,.13168-.11847,.19571-.18079h0c10.60547-10.30028,10.85284-27.24767,.55258-37.85315h0c-10.30029-10.60542-27.24774-10.85278-37.85309-.55251h-.00003Z" fill="#6c63ff"/><path d="M278.19125,196.76557h0c-.1235,.12004-.2374,.24632-.35956,.36737-19.07095-18.92456-49.78458-19.09105-69.05963-.37453h0c-19.34363,18.79034-19.99731,49.63684-1.46703,69.22981l-.01205,.01172,.4614,.47513h0l68.23756,70.25912,70.73438-68.6991-.19675-.20245c.1188-.11322,.24252-.2182,.36044-.33298h0c19.53278-18.97067,19.98837-50.18376,1.0177-69.71655h0c-18.97067-19.53268-50.18387-19.98827-69.71643-1.01759l-.00003,.00005Z" fill="#6c63ff"/><path d="M398.46442,296.20936s12.87759,30.26236-1.28775,37.34503-52.96542,12.87759-62.53998,0-12.79395-72.1145-12.79395-72.1145l-30.90622,43.13995-17.38477-10.94595s20.60416-72.75839,37.98889-76.62167c17.38477-3.86328,63.74408,42.49606,63.74408,42.49606l23.17966,36.70114,.00003-.00006Z" fill="#2f2e41"/><polygon points="281.27832 289.77054 267.75684 303.29203 249.08434 312.9502 251.01598 329.69108 286.42935 325.82779 290.93652 316.81348 289.64877 309.08695 292.22427 296.85321 281.27832 289.77054" fill="#a0616a"/><path d="M253.59151,323.25229l-1.10577-14.20535-38.17088,18.06863s-2.95576,8.37045,6.24867,9.6582,70.373,1.28775,70.373-1.93164,1.67307-19.70169,1.67307-19.70169l-37.08646,10.68738-1.93164-2.57553h.00002Z" fill="#2f2e41"/><g><path id="uuid-6c5d2e57-124e-4bcc-a41f-b37c29514f4d" d="M281.73056,274.90503c-7.54608,.74829-13.2767,5.24844-12.79968,10.05075s6.98035,8.0874,14.52902,7.33783c3.0195-.25806,5.93329-1.2355,8.49756-2.85052l31.93304-3.57437-1.44568-12.62424-31.8194,2.78561c-2.83255-1.08002-5.88263-1.46582-8.89487-1.12506Z" fill="#a0616a"/><polygon points="372.06537 189.32532 352.74896 256.28879 293.51205 270.45417 296.73145 292.34607 383.65518 278.18073 400.4704 201.94515 372.06537 189.32532" fill="#e6e6e6"/></g></g><g><circle cx="361.32007" cy="133.45527" r="27.36301" fill="#a0616a"/><path d="M363.50388,96.66762c-.79178,.46219-1.85233-.23709-2.10623-1.11804-.25388-.88095,.04187-1.81629,.33514-2.68492,.49213-1.45761,.98425-2.91521,1.47638-4.37282,1.04709-3.1013,2.15839-6.31098,4.42609-8.67147,3.42276-3.56279,8.8623-4.46914,13.75897-3.81252,6.2883,.84323,12.49271,4.24828,15.41656,9.87898,2.92389,5.6307,1.67908,13.48753-3.60419,17.00052,7.52979,8.6304,10.15457,18.24868,9.74011,29.69463-.41443,11.44595-12.88773,21.97997-21.02197,30.04318-1.81653-1.10115-3.46796-6.26163-2.46902-8.13631,.99893-1.87469-.43231-4.04657,.80481-5.77336s2.27216,1.02277,1.02145-.69421c-.78922-1.08345,2.29108-3.57597,1.11795-4.22446-5.67422-3.13651-7.5614-10.20917-11.12518-15.62524-4.29858-6.53279-11.65555-10.95686-19.44122-11.69082-4.28885-.40431-8.81882,.32798-12.3342,2.81788-3.51541,2.4899-5.79126,6.93931-4.97607,11.16934-2.11121-2.14365-3.16211-5.28515-2.76572-8.26763,.39639-2.98249,2.23135-5.74045,4.82916-7.25826-1.57959-5.22359-.22641-11.23224,3.43988-15.27443s18.53873-3.35373,23.89124-2.2899l-.41397-.71014h.00003Z" fill="#2f2e41"/><path d="M364.33511,116.63935c7.08923,.76528,12.20782,6.90612,16.53006,12.57718,2.49124,3.26868,5.1008,6.87836,5.03824,10.98769-.06323,4.15465-2.84103,7.71815-4.16858,11.65549-2.16992,6.4357-.05508,14.0927,5.11032,18.5024-5.104,.96855-10.62155-2.85843-11.50269-7.97826-1.02573-5.96008,3.49231-11.71249,2.95724-17.7365-.47141-5.30721-4.65372-9.39174-8.20932-13.35992-3.55557-3.96819-6.8949-9.23388-5.25916-14.30468l-.49615-.3434h.00003Z" fill="#2f2e41"/></g></svg>