<?xml version="1.0" encoding="UTF-8"?><svg id="uuid-e65c2349-5891-4607-9f74-c37dee2c6cb4" xmlns="http://www.w3.org/2000/svg" width="692.68042" height="450.44768" viewBox="0 0 692.68042 450.44768"><polygon points="192.83623 392.76191 153.73331 397.01224 135.03191 384.2613 124.20532 397.01224 129.40205 423.91727 135.35251 445.16886 171.43407 426.84409 200.48679 424.21427 192.83623 392.76191" fill="#a0616a"/><polygon points="390.901 347.70856 296.54398 346.00843 181.7854 394.46204 197.08653 427.61454 300.79428 398.71238 461.45627 444.61579 439.35464 335.80765 390.901 347.70856" fill="#2f2e41"/><path d="M132.09227,395.86084l18.7542-1.45987-23.85457-50.39401s-11.05083-3.90225-12.75095,8.24963c-1.70013,12.15189,12.80104,94.43188,17.05136,94.43188s18.51129-8.32013,18.51129-8.32013l-21.11156-39.95731,3.40025-2.5502h-.00003Z" fill="#2f2e41"/><path d="M602.48199,382.06223c-1.8877,.20312-3.94702,.50797-6.13757,.95401-9.28796,1.89127-9.48071,8.198-9.39935,9.64389l-.06311-.03934c-.9339,1.49814-1.51886,3.01425-1.87231,4.44519l-.42535-19.32935c.27502-.57343,.52527-1.22363,.73389-1.89011,.69525,2.14099,1.83496,4.16367,2.81738,4.0296,1.27747-.17432,1.83441-3.93314,1.59613-6.60434,1.62451,2.09207,4.35846,4.32956,5.38983,3.63962,.82416-.5513,.33545-2.82095-.56433-4.88434,1.87482,1.12949,3.95117,1.87186,4.59552,1.15463,.87921-.97873-1.2276-4.31827-3.17059-6.18246,2.60077,.24255,5.90857-.17181,6.12543-1.3555,.17865-.97528-1.78992-2.20596-3.89703-2.99805,2.11639-.55804,4.09552-1.53036,4.02991-2.49228-.07794-1.14267-3.0163-1.90833-5.55115-2.02481,1.91199-1.49582,3.66876-3.56357,3.13147-4.49875-.4939-.85974-2.79156-.52673-4.91144,.2305,1.25452-1.79355,2.13647-3.81458,1.46478-4.50623-.83673-.86157-3.80634,.62549-5.83295,2.26923,.39453-2.56079,.19507-5.79318-.95349-6.08563-.96088-.24466-2.32269,1.63565-3.25635,3.68393-.41266-2.14951-1.24805-4.19025-2.21216-4.19025-1.37347,0-2.48688,4.14099-2.48688,6.83887,0,.1525,.00403,.29605,.01099,.43323-.13788-.15982-.29584-.32678-.47601-.50177-1.93536-1.87955-5.6817-3.96579-6.63861-2.98053-.67169,.69165,.21027,2.71268,1.46478,4.50623-2.11987-.75723-4.41754-1.09024-4.91144-.2305-.66364,1.15521,2.1731,4.03903,4.47894,5.43753-.13861-.01669-.28424-.03076-.43921-.04132-2.69159-.18365-6.8988,.64526-6.99231,2.01553-.06561,.96191,1.91351,1.93423,4.02991,2.49228-2.10712,.79208-4.07574,2.02274-3.89703,2.99805,.21686,1.18369,3.5246,1.59805,6.12543,1.3555-1.94299,1.8642-4.0498,5.20374-3.17059,6.18246,.64435,.71722,2.7207-.02515,4.59552-1.15463-.89978,2.06342-1.38843,4.33304-.56433,4.88434,1.08911,.72855,4.07617-1.80713,5.651-3.98901-.16046,2.66928,.47821,6.33633,1.74548,6.48105,.52997,.06052,1.09155-.50467,1.59839-1.37494l-1.43542,20.77673c-.33551,2.41962,1.81073,3.9985,2.0025,4.99521l.30957,14.06967c-.34943-1.00208-.82007-2.02762-1.45447-3.04532l-.06311,.03937c.08136-1.44604-.11151-7.75262-9.39935-9.64383-2.19049-.44604-4.24982-.75089-6.13757-.95401-2.22827-.23975-3.09747,2.81049-1.08447,3.79572,2.91522,1.42682,5.65747,3.22449,7.08679,5.35333,3.6543,5.44266,8.70343,2.29651,9.42133,1.80804,.80182,1.33481,1.32764,2.67957,1.65973,3.95911l.16443,7.47186c-.04028,.1767-.06818,.27567-.07031,.28308l.07703,.02258,.39789,18.08258,3.69104-.02966-1.32019-18.48309c.22186-.99707,.90436-4.39374,0-7.92133l-1.32019-14.52243h0c-.0033-.0112,.07495,.38126,0,0l-1.72217-5.7063c.25043-1.76535,.8316-3.75101,2.01196-5.71582,.7179,.48846,5.76703,3.63464,9.42133-1.80804,1.42932-2.12885,4.17157-3.92651,7.08679-5.35333,2.01294-.9852,1.1438-4.03546-1.08447-3.79572l.00018,.00006Zm-16.86108,42.78268l-.06958-3.16229c.14032,1.19568,.13324,2.27493,.06958,3.16229Z" fill="#f2f2f2"/><path d="M0,445.05607c0,.8714,.69976,1.57108,1.57114,1.57108H691.10938c.87134,0,1.57104-.69968,1.57104-1.57108,0-.87131-.69977-1.57108-1.57104-1.57108H1.57114c-.87139,0-1.57114,.69977-1.57114,1.57108Z" fill="#3f3d56"/><path d="M519.26062,155.5942c-7.05341-2.66786-6.63092-6.70862-16.15121-11.90089-4.08252-2.22656-7.34113-4.00378-11.90088-4.25032-8.04498-.43494-14.17682,4.21758-18.70139,7.65057-6.58777,4.99843-10.07666,10.60654-11.90088,13.60101-3.05991,5.02266-4.47208,9.2137-5.95044,13.60101-2.17456,6.45348-3.00687,11.28503-4.25031,18.7014-1.85577,11.06865-2.78357,16.60297-1.70013,21.25159,2.00894,8.61934,6.42996,9.21754,5.95044,14.45108-.80991,8.84067-13.65674,9.66127-15.30115,18.7014-1.36392,7.49825,5.72995,16.52364,13.60101,19.55147,4.77695,1.83755,9.17545,1.21033,21.25159-2.5502,32.03439-9.97556,37.17493-16.80092,47.60358-13.60101,5.93134,1.81995,9.1748,5.53329,17.85132,5.95044,5.54834,.26675,12.24323-.86604,12.75098-3.40025,.64587-3.2234-9.43951-5.11403-10.20074-11.05083-.79883-6.22984,9.71625-8.75302,10.20074-16.15121,.47461-7.24763-9.39264-8.2514-14.45111-19.55145-2.54425-5.68365-2.26288-13.42316-1.70013-28.90216,.43427-11.94508,1.59167-16.56609-1.70013-19.55145-3.70398-3.35912-7.45685,.41682-15.30115-2.55019Z" fill="#2f2e41"/><polygon points="457.52658 234.35311 466.87726 202.90076 494.07932 202.05071 505.13013 241.15363 457.52658 234.35311" fill="#a0616a"/><polygon points="457.52658 234.35311 466.87726 202.90076 494.07932 202.05071 505.13013 241.15363 457.52658 234.35311" isolation="isolate" opacity=".1"/><path d="M499.28412,229.97477l-44.20331-1.70013-13.70544,28.18015-21.14716,124.8313,110.93329,25.07687s6.80054-139.41043-8.50061-158.96187c-15.30115-19.55147-23.37674-17.4263-23.37674-17.4263l-.00003-.00002Z" fill="#e6e6e6"/><circle cx="477.35724" cy="184.80066" r="32.87325" fill="#a0616a"/><path d="M492.37918,212.25147c1.65369-1.70947,8.74573-3.54794,6.59314-7.84627-.70685-1.41145-2.53287-2.37497-4.0206-2.18871-2.82004,.35313-3.57117,4.73105-4.82123,4.5645-1.65033-.21988-2.11868-8.08701-2.31921-16.53928-.32596-13.7368,.38382-15.17476-1.375-17.28336-1.61874-1.94073-2.79391-1.41064-20.90363-4.19032-6.11429-.93849-8.10638-1.32524-11.07404-.45689-5.6424,1.65099-7.7601,5.77592-9.98624,4.80817-2.14377-.93195-2.65814-5.83469-1.43155-9.58591,1.75214-5.35857,6.95471-8.0547,10.58673-9.87308,9.2724-4.64227,15.99207-3.13272,17.0397-6.53996,.78494-2.55313-2.87805-3.75839-3.21994-8.94193-.36664-5.55814,3.4881-9.58121,3.73343-9.82957,2.42242-2.45217,5.20084-3.20773,6.40948-3.52019,1.69244-.43752,3.67679-.95054,6.00912-.14358,.46655,.1614,3.34271,1.20452,4.66458,3.97709,1.26154,2.646,.12726,4.81151,1.08783,5.26508,1.09027,.51485,2.48444-2.30736,6.40948-3.52019,.82837-.25595,1.99133-.60269,3.47668-.44383,3.11725,.33339,5.08054,2.61819,5.60883,3.23302,1.37076,1.59525,1.80579,3.1666,2.67603,6.30939,.44794,1.61758,.96384,3.53172,.98773,6.10922,.01605,1.73045,.03067,3.3047-.60049,5.06491,0,.00008-1.02649,2.86305-6.90988,7.74095h0c.00012-.00012,2.46338-2.44429,3.67685-2.13213,2.0762,.53407,10.13519,3.25346,14.09381,11.08713,1.79028,3.5426,2.95569,2.99515,4.36432,6.50955,.3316,.82736,2.7594,7.15411,.08704,13.70659-2.04407,5.0117-4.73712,4.43117-6.26587,9.52933-.73083,2.43687-.10876,2.5472-1.10089,9.28568-.57031,3.8736-5.60324,.79121-6.47488,2.4444-.58899,1.11716,8.26535,33.93822,3.45572,38.4839-4.71204,4.45341-25.34335-30.03253-20.457-35.08365l-.00006-.00006Z" fill="#2f2e41"/><g><path id="uuid-93b99ccd-2269-4d6a-a951-757c4912a19e" d="M369.82382,132.21842c-1.84259-9.84034-8.41354-16.86601-14.67581-15.69233-6.26227,1.17367-9.84344,10.10125-7.99887,19.94485,.68289,3.94221,2.29996,7.66357,4.71588,10.85272l8.33371,41.59532,16.44037-3.33749-7.28333-41.53558c1.09836-3.84856,1.25885-7.90421,.46805-11.82748Z" fill="#a0616a"/><polygon points="492.66321 241.30233 402.38815 223.5122 377.01822 147.20844 348.58975 153.93311 377.10898 266.65366 479.2952 280.09928 492.66321 241.30233" fill="#e6e6e6"/></g><path d="M355.17624,9.98968h0c-.08853,.08605-.17017,.17657-.25775,.26334-13.67053-13.56559-35.6868-13.68493-49.50363-.26846h0c-13.866,13.46937-14.33456,35.5809-1.05161,49.62562l-.00864,.0084,.33075,.34058h0l48.91437,50.36345,50.70413-49.24517-.14105-.14512c.08517-.08116,.17386-.1564,.25839-.23869h0c14.00159-13.59864,14.32816-35.97295,.72952-49.97452h0c-13.59863-14.0015-35.97302-14.32807-49.97446-.72943h-.00003Z" fill="#6c63ff"/><path d="M367.27393,259.77402h0c-.16306,.15848-.31342,.3252-.4747,.48502-25.17786-24.9846-65.72662-25.20441-91.17398-.49445h0c-25.53787,24.8074-26.40086,65.53162-1.9368,91.39865l-.01593,.01547,.60913,.62726h0l90.08868,92.75757,93.38498-90.69797-.25974-.26727c.15686-.14948,.32019-.28806,.47586-.43961h0c25.7876-25.04547,26.38907-66.25366,1.3436-92.04126h0c-25.04547-25.78745-66.25381-26.38892-92.04111-1.34344v.00003Z" fill="#6c63ff"/><path d="M526.0611,391.0618s17.00128,39.95297-1.70013,49.30368-69.92609,17.00128-82.56659,0-16.89084-95.20709-16.89084-95.20709l-40.80304,56.95425-22.95172-14.45108s27.20203-96.05716,50.15375-101.15753,84.15628,56.10419,84.15628,56.10419l30.60229,48.45361v-.00003Z" fill="#2f2e41"/><polygon points="371.34955 382.56116 353.49823 400.41248 328.84637 413.16346 331.39658 435.26508 378.15005 430.16471 384.10049 418.26383 382.40039 408.06305 385.80063 391.91187 371.34955 382.56116" fill="#a0616a"/><path d="M334.79681,426.76444l-1.45987-18.75418-50.39401,23.85458s-3.90225,11.05084,8.24963,12.75095c12.15189,1.70013,92.90793,1.70013,92.90793-2.5502s2.20883-26.01059,2.20883-26.01059l-48.96231,14.10971-2.5502-3.40024v-.00003Z" fill="#2f2e41"/><g><path id="uuid-202dadb6-ca0b-4fe5-ba83-45a071d82c1a" d="M371.94662,362.9354c-9.96249,.98792-17.52817,6.92911-16.89841,13.2692s9.21558,10.67715,19.18152,9.68756c3.98639-.3407,7.83325-1.63113,11.21869-3.76331l42.15866-4.71896-1.9086-16.66678-42.00864,3.67761c-3.73962-1.42587-7.76636-1.93518-11.74319-1.48532h-.00003Z" fill="#a0616a"/><polygon points="491.2085 249.95125 465.7066 338.35785 387.50076 357.05927 391.75107 385.9614 506.50964 367.26001 528.70941 266.61222 491.2085 249.95125" fill="#e6e6e6"/></g></svg>