<?xml version="1.0" encoding="UTF-8"?><svg id="uuid-97aeff9a-5cf4-4bc8-9b79-35fcb6eda4d0" xmlns="http://www.w3.org/2000/svg" width="692.68041" height="450.44765" viewBox="0 0 692.68041 450.44765"><polygon points="192.83622 392.76191 153.7333 397.01223 135.0319 384.26128 124.20532 397.01223 129.40206 423.91727 135.35251 445.16885 171.43407 426.8441 200.48679 424.21426 192.83622 392.76191" fill="#a0616a"/><polygon points="390.90101 347.70855 296.54397 346.00842 181.7854 394.46204 197.08654 427.61452 300.79428 398.71236 461.45628 444.61579 439.35463 335.80766 390.90101 347.70855" fill="#2f2e41"/><path d="M132.09227,395.86085l18.75419-1.45986-23.85457-50.39401s-11.05083-3.90226-12.75095,8.24963c-1.70013,12.15189,12.80104,94.43187,17.05136,94.43187s18.51129-8.32013,18.51129-8.32013l-21.11156-39.9573,3.40025-2.55019Z" fill="#2f2e41"/><path d="M602.482,382.06223c-1.88772,.20311-3.94704,.50795-6.13755,.954-9.28796,1.89126-9.48074,8.19801-9.39934,9.6439l-.0631-.03933c-.93392,1.49814-1.51883,3.01426-1.87234,4.4452l-.42534-19.32936c.27502-.57344,.52527-1.22364,.73389-1.89011,.69525,2.14099,1.83494,4.16367,2.81736,4.02961,1.27747-.17433,1.83441-3.93315,1.59611-6.60435,1.62449,2.09208,4.35844,4.32955,5.38981,3.63963,.82414-.5513,.33547-2.82094-.56431-4.88435,1.87479,1.1295,3.95117,1.87187,4.59549,1.15464,.87924-.97873-1.22759-4.31826-3.17058-6.18245,2.60079,.24254,5.90855-.17182,6.12541-1.35551,.17868-.97529-1.78994-2.20597-3.89704-2.99804,2.11642-.55803,4.09555-1.53037,4.02991-2.49227-.07797-1.14268-3.01628-1.90832-5.55115-2.02482,1.91197-1.49582,3.66874-3.56357,3.1315-4.49874-.49391-.85975-2.79156-.52672-4.91143,.2305,1.25451-1.79355,2.13649-3.81458,1.4648-4.50623-.83672-.86156-3.80632,.6255-5.83294,2.26924,.39452-2.56079,.19508-5.79317-.95349-6.08562-.96087-.24466-2.32269,1.63565-3.25637,3.68394-.41265-2.14951-1.24803-4.19024-2.21216-4.19024-1.37345,0-2.48686,4.141-2.48686,6.83886,0,.1525,.00404,.29606,.011,.43322-.13785-.15982-.29584-.32678-.47601-.50176-1.93539-1.87956-5.68173-3.9658-6.6386-2.98053-.6717,.69164,.21029,2.71267,1.4648,4.50623-2.11987-.75722-4.41752-1.09024-4.91143-.2305-.66365,1.15522,2.17312,4.03902,4.47896,5.43752-.13861-.0167-.28424-.03076-.43922-.04133-2.69159-.18365-6.89878,.64527-6.99228,2.01554-.06564,.9619,1.91349,1.93424,4.02991,2.49227-2.1071,.79207-4.07573,2.02275-3.89704,2.99804,.21686,1.18369,3.52462,1.59805,6.12541,1.35551-1.94299,1.86419-4.04982,5.20372-3.17058,6.18245,.64432,.71722,2.72069-.02514,4.59549-1.15464-.89977,2.06341-1.38845,4.33305-.56431,4.88435,1.08914,.72856,4.07615-1.80714,5.65103-3.989-.16047,2.66928,.47822,6.33634,1.7455,6.48106,.52997,.06052,1.09155-.50468,1.59837-1.37494l-1.43541,20.77674c-.33553,2.41962,1.81071,3.99852,2.00253,4.9952l.3096,14.06967c-.34941-1.00207-.82005-2.02762-1.45448-3.04533l-.0631,.03936c.08139-1.44604-.11153-7.75261-9.39934-9.64384-2.19052-.44604-4.24984-.75088-6.13755-.954-2.22826-.23975-3.09745,2.8105-1.08449,3.79571,2.91521,1.42682,5.65748,3.2245,7.08681,5.35334,3.65428,5.44266,8.70345,2.2965,9.42133,1.80803,.80184,1.3348,1.32762,2.67957,1.6597,3.95912l.16442,7.47186c-.04028,.17671-.06816,.27566-.07033,.28309l.07705,.02258,.39791,18.08259,3.69105-.02965-1.32022-18.48309c.22186-.99707,.90437-4.39375,0-7.92133l-1.32022-14.52243h0c-.00329-.01121,.07494,.38126,0,0l-1.72215-5.70629c.25042-1.76535,.8316-3.75102,2.01194-5.71581,.71787,.48846,5.76704,3.63464,9.42134-1.80803,1.42933-2.12884,4.1716-3.92652,7.08681-5.35334,2.01296-.98521,1.14377-4.03545-1.08449-3.79571Zm-16.86106,42.78267l-.06958-3.1623c.14034,1.19568,.13324,2.27494,.06958,3.1623Z" fill="#f2f2f2"/><path d="M0,445.05607c0,.87139,.69976,1.57107,1.57114,1.57107H691.10935c.87131,0,1.57107-.69968,1.57107-1.57107,0-.87131-.69976-1.57107-1.57107-1.57107H1.57114c-.87139,0-1.57114,.69976-1.57114,1.57107Z" fill="#3f3d56"/><path d="M519.2606,155.5942c-7.05339-2.66786-6.63095-6.70862-16.15121-11.90089-4.08253-2.22657-7.34114-4.00379-11.90089-4.25032-8.04499-.43494-14.17682,4.21758-18.7014,7.65057-6.58778,4.99843-10.07666,10.60654-11.90089,13.60102-3.0599,5.02266-4.47207,9.2137-5.95044,13.60102-2.17455,6.45348-3.00687,11.28503-4.25032,18.7014-1.85578,11.06865-2.78356,16.60296-1.70013,21.25159,2.00894,8.61934,6.42995,9.21754,5.95044,14.45108-.80991,8.84066-13.65674,9.66127-15.30114,18.7014-1.36392,7.49824,5.72994,16.52365,13.60102,19.55146,4.77694,1.83757,9.17544,1.21034,21.25159-2.55019,32.03438-9.97556,37.17492-16.80092,47.60356-13.60102,5.93135,1.81995,9.17481,5.5333,17.85133,5.95044,5.54835,.26676,12.24322-.86604,12.75095-3.40025,.64585-3.22341-9.43952-5.11403-10.20076-11.05083-.7988-6.22984,9.71627-8.75302,10.20076-16.15121,.47463-7.24764-9.39262-8.25141-14.45108-19.55146-2.54428-5.68366-2.26286-13.42316-1.70013-28.90216,.43427-11.94509,1.59169-16.56609-1.70013-19.55146-3.70398-3.35911-7.45684,.41683-15.30114-2.55019Z" fill="#2f2e41"/><polygon points="457.52657 234.35311 466.87726 202.90076 494.0793 202.0507 505.13012 241.15362 457.52657 234.35311" fill="#a0616a"/><polygon points="457.52657 234.35311 466.87726 202.90076 494.0793 202.0507 505.13012 241.15362 457.52657 234.35311" opacity=".1"/><path d="M499.28411,229.97476l-44.2033-1.70013-13.70545,28.18013-21.14716,124.8313,110.93328,25.07687s6.80051-139.41041-8.50063-158.96187c-15.30114-19.55146-23.37675-17.4263-23.37675-17.4263Z" fill="#e6e6e6"/><circle cx="477.35725" cy="184.80066" r="32.87325" fill="#a0616a"/><path d="M492.37917,212.25146c1.65368-1.70947,8.74573-3.54795,6.59313-7.84627-.70686-1.41146-2.53288-2.37497-4.0206-2.18871-2.82005,.35313-3.57117,4.73105-4.82124,4.5645-1.65033-.21988-2.11868-8.087-2.31922-16.53928-.32596-13.7368,.38382-15.17476-1.37499-17.28335-1.61873-1.94073-2.79392-1.41064-20.90362-4.19033-6.11429-.93849-8.10639-1.32524-11.07405-.4569-5.6424,1.65098-7.76009,5.77592-9.98623,4.80817-2.14377-.93194-2.65813-5.83469-1.43156-9.58591,1.75214-5.35857,6.9547-8.05471,10.58672-9.87308,9.27241-4.64227,15.99205-3.13272,17.03969-6.53997,.78493-2.55313-2.87806-3.75839-3.21995-8.94192-.36665-5.55813,3.4881-9.5812,3.73343-9.82957,2.42241-2.45217,5.20083-3.20773,6.40947-3.52019,1.69243-.43752,3.67678-.95054,6.00914-.14358,.46655,.1614,3.34271,1.20452,4.66458,3.97709,1.26155,2.64599,.12726,4.81151,1.08782,5.26507,1.09028,.51485,2.48445-2.30736,6.40947-3.52019,.82837-.25595,1.99133-.60269,3.47669-.44383,3.11724,.33339,5.08055,2.61819,5.60882,3.23302,1.37076,1.59524,1.80579,3.1666,2.67604,6.30938,.44793,1.61759,.96385,3.53173,.98774,6.10922,.01606,1.73045,.03067,3.30471-.60049,5.06491,0,.00008-1.02649,2.86305-6.90987,7.74095h0c.00012-.00012,2.46337-2.44429,3.67685-2.13213,2.0762,.53408,10.13518,3.25346,14.09384,11.08712,1.79026,3.54261,2.9557,2.99515,4.36434,6.50955,.33159,.82736,2.75938,7.15412,.08701,13.70659-2.04404,5.01171-4.7371,4.43117-6.26588,9.52933-.73082,2.43687-.10878,2.54719-1.10089,9.28567-.57032,3.87359-5.60323,.79122-6.47489,2.4444-.58898,1.11715,8.26534,33.93821,3.45573,38.4839-4.71204,4.45342-25.34335-30.03253-20.457-35.08365Z" fill="#2f2e41"/><g><path id="uuid-311f029e-60e2-47af-866f-e00966d4f6ef" d="M369.82383,132.21842c-1.8426-9.84034-8.41354-16.86601-14.6758-15.69233-6.26226,1.17367-9.84346,10.10125-7.99888,19.94485,.6829,3.94222,2.29995,7.66358,4.71588,10.85272l8.33372,41.59532,16.44036-3.33749-7.28333-41.53558c1.09836-3.84855,1.25886-7.90421,.46804-11.82748Z" fill="#a0616a"/><polygon points="492.6632 241.30233 402.38815 223.51219 377.01823 147.20844 348.58974 153.93311 377.10897 266.65367 479.2952 280.09928 492.6632 241.30233" fill="#e6e6e6"/></g><path d="M355.17625,9.98968h0c-.08853,.08605-.17017,.17657-.25774,.26334-13.67052-13.56559-35.68679-13.68493-49.50363-.26846h0c-13.86599,13.46937-14.33456,35.5809-1.0516,49.62562l-.00864,.0084,.33074,.34058h0l48.91436,50.36345,50.70412-49.24517-.14104-.14512c.08517-.08116,.17385-.1564,.25838-.23869h0c14.00158-13.59864,14.32815-35.97295,.72951-49.97452h0c-13.59864-14.0015-35.97303-14.32807-49.97444-.72943Z" fill="#6c63ff"/><path d="M367.27392,259.77403h0c-.16305,.15848-.31341,.32521-.47469,.48501-25.17787-24.9846-65.72663-25.2044-91.17398-.49445h0c-25.53787,24.8074-26.40086,65.5316-1.9368,91.39865l-.01592,.01548,.60914,.62727h0l90.08868,92.75757,93.38499-90.69796-.25975-.26727c.15685-.14948,.3202-.28806,.47587-.43961h0c25.7876-25.04548,26.38907-66.25366,1.34359-92.04126h0c-25.04548-25.78745-66.25381-26.38892-92.04111-1.34344Z" fill="#6c63ff"/><path d="M526.06111,391.06179s17.00127,39.95298-1.70013,49.30368c-18.7014,9.3507-69.92609,17.00127-82.5666,0-12.64051-17.00127-16.89083-95.20711-16.89083-95.20711l-40.80305,56.95425-22.95171-14.45108s27.20203-96.05717,50.15375-101.15755c22.95171-5.10038,84.15629,56.10419,84.15629,56.10419l30.60229,48.45362Z" fill="#2f2e41"/><polygon points="371.34955 382.56115 353.49822 400.41249 328.84638 413.16344 331.39657 435.26509 378.15006 430.16471 384.1005 418.26382 382.40038 408.06306 385.80063 391.91185 371.34955 382.56115" fill="#a0616a"/><path d="M334.79682,426.76445l-1.45986-18.75419-50.39401,23.85457s-3.90226,11.05083,8.24963,12.75095c12.15189,1.70013,92.90792,1.70013,92.90792-2.55019s2.20883-26.0106,2.20883-26.0106l-48.96232,14.10972-2.55019-3.40025Z" fill="#2f2e41"/><g><path id="uuid-59fadd62-d34e-4723-a6c1-7b6170929047" d="M371.94662,362.93538c-9.9625,.98793-17.52818,6.92911-16.89842,13.2692,.62976,6.3401,9.21559,10.67716,19.18151,9.68755,3.9864-.34071,7.83324-1.63112,11.21868-3.7633l42.15866-4.71896-1.90861-16.66678-42.00864,3.67762c-3.73961-1.42586-7.76636-1.93519-11.74318-1.48533Z" fill="#a0616a"/><polygon points="491.2085 249.95125 465.7066 338.35785 387.50076 357.05925 391.75108 385.96141 506.50965 367.26001 528.70943 266.61222 491.2085 249.95125" fill="#e6e6e6"/></g></svg>