<?xml version="1.0" encoding="UTF-8"?><svg id="uuid-fc3feae9-1673-4c74-a7e1-5ee55b3fcbe4" xmlns="http://www.w3.org/2000/svg" width="401.99904" height="607.31955" viewBox="0 0 401.99904 607.31955"><polygon points="263.59649 237.85227 256.28537 161.08553 167.33345 170.83368 167.33345 236.63375 263.59649 237.85227" fill="#ffb6b6"/><polygon points="297.10141 550.39957 297.10141 607.31955 295.18142 606.44956 63.15146 606.44956 69.85141 565.05961 70.98142 558.07956 71.87143 552.60959 114.13144 552.19956 114.17141 552.18955 131.04142 552.02958 135.33146 551.9896 138.68142 551.94956 189.3414 551.45957 258.40146 550.77958 297.10141 550.39957" fill="#2f2e41"/><polygon points="166.11493 218.35595 262.37799 226.88558 328.02782 293.20639 303.19839 452.92096 297.1058 568.68033 68.02409 565.02475 94.83152 429.76911 82.64633 245.77265 166.11493 218.35595" fill="#e6e6e6"/><path d="M283.63144,601.2996l-3.85004,5.14996h-99.06c-9.03998-8.96997-23.77997-21.19-39.71997-33.67999-2.16003-1.70996-4.34998-3.40997-6.54999-5.10999-.69-.53998-1.38-1.07001-2.07001-1.59998l-.01001-.01001c-3.60999-2.79004-7.23999-5.57001-10.84003-8.29999-2.46997-1.88-4.92999-3.74005-7.35999-5.56006-.01001-.00995-.01996-.01996-.03998-.02997-.78003-.59003-1.57001-1.17999-2.35004-1.76001-14.31995-10.73999-27.35999-20.21002-35.65997-26.21997h-.01001c-2.42999-1.75-4.45996-3.20001-5.97998-4.30005-2.14001-1.53998-3.33002-2.37994-3.33002-2.37994l2.45001-1.91003c.02002,.01001,.02002,0,.02002,0l10-7.72998,.09998-.08002,6.47998-5.01001,39.67004-30.69-1.65002-1.46997,32.89001,11.57996,36.25,20.93005,31.88,18.39996,10,5.78003c4.82001,2.77997,9.22998,6.15997,13.13995,10.03998,2.82001,2.79999,5.39001,5.85999,7.64001,9.14001,.89001,1.27002,1.72003,2.58002,2.51001,3.91998l.22003,.38,10.25995,17.45001,14.21002,32.38,.76001,.69Z" fill="#6c63ff"/><path d="M232.31712,606.45444h62.86339l-11.55154-5.15442-7.31113-3.26562c-15.45081-6.89679-32.91223-2.961-44.00073,8.41998l.00002,.00006Z" fill="#ffb6b6"/><circle cx="185.00198" cy="128.79476" r="81.64083" fill="#ffb6b6"/><path d="M100.31487,246.3819s-37.77411-7.31113-53.61486,28.02594c-15.84076,35.33707-25.58891,86.51489-25.58891,86.51489l85.29637,3.65555-6.0926-118.19641v.00003Z" fill="#e6e6e6"/><path d="M200.29142,606.44956H125.21145l-15.05005-14.26996-.03998,.02997,.25-.25,24.08002-24.29999,1.52997-1.54999,7-7.04999,.17999-.19,2.89001,3.02997,4.22998,4.44,.22003,.22998,23.12,24.24005c9.65002,2.79999,18.47998,7.87994,25.76001,14.78998,.31,.27997,.60999,.57001,.90997,.84998h.00002Z" fill="#ffb6b6"/><path d="M118.09708,548.4345l14.80314,13.6286c13.86811,7.87751,31.8871,12.10952,34.41912,12.67971l3.45308,1.27208c3.61142,4.36194,8.21519,7.79541,13.4259,10.01285,12.95672,5.72625,26.41383,3.68256,30.05672-4.56384v.00002c3.64289-8.24633-3.90763-19.5706-16.86974-25.29718-5.14643-2.35858-10.78291-3.45035-16.43777-3.18399l-.65368-.2791-40.12621-19.36003" fill="#ffb6b6"/><path d="M140.52601,483.99323c2.43704,0-38.99263,45.08524-38.99263,45.08524l35.90796,27.93481,12.83282-52.30518-9.74815-20.71484v-.00003Z" fill="#6c63ff"/><path d="M150.84684,566.34073l-12.78226-11.83179-4.44756-4.10638-17.81475-16.48663-9.57762-9.96747-13.62304-14.15918-6.75057-7.01868-4.55725-4.72787-4.1308-4.30133,1.66937-17.32739,3.44843-35.70261,4.42323-45.85291,3.44836-35.7392,.41433-4.28915-14.69527-21.22055-55,27-14.65062,109.22443-2.48583,11.77087v.00003c-2.05896,9.7388,1.35264,19.82571,8.90039,26.31528l50.51464,43.43274,6.48253,5.56866,9.62626,8.28595,31.6328,27.19739,39.95524-26.06415-.00002-.00006Z" fill="#e6e6e6"/><circle cx="66.19631" cy="453.53025" r="62.14451" fill="#ffb6b6"/><path d="M92.86054,463.66794l1.05061-19.01178-8.52964-14.62225s-2.43704-49.95932-21.93335-47.52228C43.95184,384.9487,1.30366,420.28577,.08514,433.68949c-1.21852,13.40372,10.7863,70.9201,26.80743,70.67413,11.55853-.17749,8.97886,27.24597,65.97886,6.24597,6.46799-2.38293-18.4566-17.21265-14.80104-25.74228,3.65556-8.52963,14.79014-21.19937,14.79014-21.19937h.00002Z" fill="#2f2e41"/><g><path d="M156.58283,281.54573s69.47862-68.63578,96.95683-56.36104c27.47821,12.27474,74.26616,70.35153,74.26616,70.35153l-67.47414,54.63991-103.74884-68.6304Z" fill="#e6e6e6"/><g><g><path d="M141.34538,422.7784s9.64396-1.87233,8.84291,3.51785c-.80105,5.39019-16.72309,27.26461-21.71274,23.76847-4.98965-3.49614-2.22942-14.65533-.29195-16.57109,1.93748-1.91576,13.16181-10.71523,13.16181-10.71523h-.00003Z" fill="#6c63ff"/><path d="M150.20814,424.18352c-8.50724,3.2583-18.76578,20.48767-20.37726,24.55132l49.19709,45.736c3.53713,2.42997,8.12007,2.47834,11.67444,.12339,13.53551-8.96662,19.38683-26.48935,21.6698-36.13656,1.09032-4.6078-1.09566-9.37797-5.31459-11.6024,0,0-56.84949-22.67175-56.84948-22.67174Z" fill="#6c63ff"/></g><ellipse cx="131.20804" cy="428.81994" rx="6.5" ry="5.5" transform="translate(-126.80874 62.0374) rotate(-18.11206)" fill="#6c63ff"/></g><path d="M248.78977,424.32847l-44.53469,10.17093c-9.78448-2.25026-19.96565-2.12445-29.69168,.36669-24.42886,5.90127-41.18102,23.27995-37.42724,38.82123,3.75382,15.54133,26.59323,23.3567,51.0126,17.45427,9.79364-2.22462,18.91188-6.76301,26.59162-13.23512l43.47751-7.64158-9.43252-45.97702,.0044,.04061Z" fill="#ffb6b6"/><path d="M321.59779,291.1442l-59.24502,46.26043,55.1724,62.3119-68.7398,24.57133,9.43252,45.97702c6.03202-.90138,17.90864-2.7932,32.46761-5.7065l27.18318-6.04876c27.67392-6.83638,57.75409-16.56684,75.60792-29.34979,39.64259-28.38334-71.87882-138.01562-71.87882-138.01562Z" fill="#e6e6e6"/></g><path d="M152.58623,24.38528C168.73249,18.71054,178.96405-.27711,192.8904,.00307c30.24932,.6095,58.7785,22.21598,62.31261,25.39464,14.715,13.23395,20.33685,27.82989,26.81267,44.64417,6.85799,17.80521,5.08862,45.58469,2.56673,65.00826-3.68807,28.4011-22.08604,36.08384-17.65547,54.08386,3.10139,12.59949,13.99725,16.48203,26.98871,27.27118,24.57237,20.40773,33.73954,46.50581,43.09677,73.14342,22.29607,63.47364,8.51045,131.62998-.00415,132.31554-1.79925,.14498-3.83168-3.93993-7.89644-12.1087-12.45175-25.02435-8.72248-33.545-15.61684-41.59039-12.3329-14.39161-33.24243,2.39547-59.76979-10.49587-20.89887-10.15631-30.04667-31.32635-35.37636-43.66173-3.06415-7.09098-15.98501-36.99389-5.71865-68.75512,9.50885-29.41838,27.86377-32.79024,37.59928-67.24007,2.0524-7.26279,9.37881-26.33363-2.04273-38.78672-5.78881-6.31133-.31481,32.60737-8.52982,27.07852-19.97594-13.44382-19.16773-77.75567-38.11196-93.30795-9.06463-7.4416-21.70584-9.29692-31.20097-7.26605-22.54013,4.82168-60.50052,31.64352-61.26427,56.48619-1.22947,39.9813,13.76695,55.64267,48.9058,81.58486,3.79688,2.80314-9.37576,2.57746-14.98646,1.71928-28.5694-4.37043-43.49514-38.95346-46.5722-46.71552-9.01659-22.74519-6.46448-42.65308-4.49059-58.05051,2.52294-19.68212,5.23859-40.86489,21.6917-56.716,9.74087-9.38401,20.37472-13.1215,38.95824-19.65307Z" fill="#2f2e41"/></svg>