<?xml version="1.0" encoding="UTF-8"?><svg id="uuid-2de9c91a-c59d-416f-bf26-3f1f79334d7a" xmlns="http://www.w3.org/2000/svg" width="398.40949" height="619.70996" viewBox="0 0 398.40949 619.70996"><polygon points="263.59649 250.24267 256.28537 173.47594 167.33345 183.22409 167.33345 249.02415 263.59649 250.24267" fill="#ffb6b6"/><polygon points="297.10141 562.78998 297.10141 619.70996 295.18142 618.83996 63.15146 618.83996 69.85141 577.45001 70.98142 570.46997 71.87143 565 114.13144 564.58996 114.17141 564.57996 131.04142 564.41998 135.33146 564.38 138.68142 564.33996 189.3414 563.84997 258.40146 563.16998 297.10141 562.78998" fill="#2f2e41"/><polygon points="166.11493 230.74635 262.37799 239.27598 340.9725 276.44083 303.19839 465.31137 297.1058 581.07074 68.02409 577.41516 94.83152 442.15951 82.64633 258.16305 166.11493 230.74635" fill="#e6e6e6"/><path d="M114.9371,430.58359s1.21852-9.74817,6.0926-7.31113,20.71484,24.37039,15.84077,28.02594-14.62224-2.43704-15.84076-4.87408-6.0926-15.84076-6.0926-15.84076v.00003Z" fill="#6c63ff"/><path d="M283.63144,613.69l-3.85004,5.14996h-99.06c-9.03998-8.96997-23.77997-21.19-39.71997-33.67999-2.16003-1.70996-4.34998-3.40997-6.54999-5.10999-.69-.53998-1.38-1.07001-2.07001-1.59998l-.01001-.01001c-3.60999-2.79004-7.23999-5.57001-10.84003-8.29999-2.46997-1.88-4.92999-3.74005-7.35999-5.56006-.01001-.00995-.01996-.01996-.03998-.02997-.78003-.59003-1.57001-1.17999-2.35004-1.76001-14.31995-10.73999-27.35999-20.21002-35.65997-26.21997h-.01001c-2.42999-1.75-4.45996-3.20001-5.97998-4.30005-2.14001-1.53998-3.33002-2.37994-3.33002-2.37994l2.45001-1.91003c.02002,.01001,.02002,0,.02002,0l10-7.72998,.09998-.08002,6.47998-5.01001,39.67004-30.69-1.65002-1.46997,32.89001,11.57996,36.25,20.93005,31.88,18.39996,10,5.78003c4.82001,2.77997,9.22998,6.15997,13.13995,10.03998,2.82001,2.79999,5.39001,5.85999,7.64001,9.14001,.89001,1.27002,1.72003,2.58002,2.51001,3.91998l.22003,.38,10.25995,17.45001,14.21002,32.38,.76001,.69Z" fill="#6c63ff"/><path d="M232.31712,618.84485h62.86339l-11.55154-5.15442-7.31113-3.26562c-15.45081-6.89679-32.91223-2.961-44.00073,8.41998l.00002,.00006Z" fill="#ffb6b6"/><circle cx="185.00198" cy="141.18516" r="81.64083" fill="#ffb6b6"/><path d="M125.19077,407.63867c.45215,9.09863,30.26415,34.13379,33.62548,36.92871l35.97559-27.51172c3.40918-2.60645,4.87988-6.94727,3.74658-11.05762-4.31445-15.65234-19.1499-26.66113-27.60938-31.83008-4.04053-2.46875-9.25391-1.87402-12.67969,1.44434,0,0-33.05859,32.02637-33.05859,32.02637Z" fill="#6c63ff"/><path d="M135.4472,411.96683c-4.05663-4.04117-10.22867-5.21942-15.39484-2.75003-4.45673,2.13028-8.18198,5.49338-5.11527,10.40012,3.90534,6.24854,14.81992,19.00568,22.15336,27.36005,5.41051,6.16376,15.20444,6.40802,20.48175,.12982,1.89799-2.25797,2.75476-4.94727,1.23161-7.99356-3.33807-6.67615-15.82066-19.63916-23.3566-27.14639h-.00002Z" fill="#3f3d56"/><path d="M253.82919,462.30115l-42.55945-16.5976c-6.8316-7.35724-15.32593-12.97137-24.77216-16.37286-23.52631-8.83783-47.14734-3.86792-52.77026,11.09888-5.62292,14.96686,8.8844,34.2608,32.4035,43.09235,9.35248,3.65997,19.44568,5.02625,29.43475,3.98468l40.26416,18.09656,18.01862-43.33807-.01917,.03607Z" fill="#ffb6b6"/><path d="M388.87143,393l-75,5,10.65106,82.54285-70.67413-18.27777-18.01862,43.33807c5.49701,2.64209,16.38599,7.74731,30.06799,13.51392l25.888,10.26276c26.73639,9.88672,57.08911,18.73041,79.04047,18.18164,48.74078-1.21857,18.04523-154.56146,18.04523-154.56146Z" fill="#e6e6e6"/><path d="M328.17804,274.61307s25.5889,0,41.42966,25.5889,21.93335,99.91861,21.93335,99.91861l-86.51489,7.31113,23.15189-132.81863Z" fill="#e6e6e6"/><path d="M100.31487,258.77231s-37.77411-7.31113-53.61486,28.02594c-15.84076,35.33707-25.58891,86.51489-25.58891,86.51489l85.29637,3.65555-6.0926-118.19641v.00003Z" fill="#e6e6e6"/><path d="M195.05899,1.10923s70.57916-3.35613,90.00522,54.30897c19.42606,57.66509,64.34192,122.84976,64.34192,122.84976,0,0,16.51447,8.35371,4.52493,33.70189-11.98956,25.34816,21.71234,20.82324,21.71234,20.82324,0,0,7.02737,60.62796-42.69315,41.15427-49.72049-19.47369-64.54715,24.80099-64.54715,24.80099,0,0-66.07376,2.38031-55.7171-42.03607s-8.96312-105.43396-89.83176-130.36934,13.03256-93.55066,13.03256-93.55066c0,0,12.44998-39.87557,59.1722-31.68305h-.00002Z" fill="#2f2e41"/><path d="M200.29142,618.83996H125.21145l-15.05005-14.26996-.03998,.02997,.25-.25,24.08002-24.29999,1.52997-1.54999,7-7.04999,.17999-.19,2.89001,3.02997,4.22998,4.44,.22003,.22998,23.12,24.24005c9.65002,2.79999,18.47998,7.87994,25.76001,14.78998,.31,.27997,.60999,.57001,.90997,.84998h.00002Z" fill="#ffb6b6"/><path d="M192.82673,489.73987c-8.06116-4.03613-19.73621,2.95978-26.0809,15.6308-2.6039,5.02676-3.96608,10.60406-3.9726,16.2652l-.31029,.63947-16.11314,27.8761-6.922-12.74249-23.68694,17.81201s-1.97404,10.84283,24.68681,27.45911c5.33688,3.32617,10.27922,3.44403,14.77316,1.51398l14.32628-14.12903c8.5368-13.47229,13.63242-31.26636,14.32399-33.76794l1.43704-3.38776c4.53094-3.39697,8.18233-7.8299,10.64835-12.92767,6.34412-12.66565,4.95143-26.20563-3.10979-30.24176h.00002Z" fill="#ffb6b6"/><path d="M140.52601,496.38364c2.43704,0-38.99263,45.08524-38.99263,45.08524l35.90796,27.93481,12.83282-52.30518-9.74815-20.71484v-.00003Z" fill="#6c63ff"/><path d="M150.84684,578.73114l-12.78226-11.83179-4.44756-4.10638-17.81475-16.48663-9.57762-9.96747-13.62304-14.15918-6.75057-7.01868-4.55725-4.72787-4.1308-4.30133,1.66937-17.32739,3.44843-35.70261,4.42323-45.85291,3.44836-35.7392,.41433-4.28915-14.69527-21.22055-55,27-14.65062,109.22443-2.48583,11.77087v.00003c-2.05896,9.7388,1.35264,19.82571,8.90039,26.31528l50.51464,43.43274,6.48253,5.56866,9.62626,8.28595,31.6328,27.19739,39.95524-26.06415-.00002-.00006Z" fill="#e6e6e6"/><circle cx="66.19632" cy="465.92066" r="62.14451" fill="#ffb6b6"/><path d="M92.86054,476.05835l1.05061-19.01178-8.52964-14.62225s-2.43704-49.95932-21.93335-47.52228C43.95184,397.33911,1.30366,432.67618,.08514,446.07989c-1.21852,13.40372,10.7863,70.9201,26.80743,70.67413,11.55853-.17749,8.97886,27.24597,65.97886,6.24597,6.46799-2.38293-18.4566-17.21265-14.80104-25.74228s14.79014-21.19937,14.79014-21.19937h.00002Z" fill="#2f2e41"/></svg>