<?xml version="1.0" encoding="UTF-8"?><svg id="uuid-d260a448-df4f-48f1-bc77-80973f60d9f4" xmlns="http://www.w3.org/2000/svg" width="433.52581" height="608.89239" viewBox="0 0 433.52581 608.89239"><circle cx="313.88889" cy="143.73873" r="31.93723" fill="#ff6884"/><path d="M181.748,577.74545c-.11997,1.53252-.11469,2.95635,.04449,4.34812l76.75159-3.06992c.64219-1.42382,1.17881-2.89525,1.63589-4.41533,8.30547-27.3379-8.92266-71.59788,7.98506-138.92103,12.55331-49.95658,38.12619-89.66262,50.04771-108.16043,14.65137-22.74987,31.43903-43.87636,50.5306-77.31612,4.13814-7.23408,8.38188-15.06801,12.7528-23.60602,1.4652-2.85502,18.34293-35.97313,16.6481-36.91518-.79411-.43428-5.34076,6.29826-6.88149,8.56083-13.59559,20.01473-21.60537,28.85379-33.01501,43.31785-6.92497,8.76975-15.08875,19.58266-26.489,36.22136-29.23654,42.62308-43.84231,63.92116-48.6,79.62095-1.25634,4.19296-7.93522,26.88297-21.09451,55.21767-6.72337,14.45788-10.08498,21.68681-12.0983,21.19779-5.70064-1.40322-.44657-60.36311,21.09463-119.94854,3.68538-10.14182,6.48038-16.6491,11.7881-28.95308,8.6219-20.07481,56.64278-131.64974,92.53965-198.72258,4.50428-8.43983,8.83065-16.14764,12.83246-22.91022,.77762-1.27389,1.53039-2.52102,2.25937-3.7152,5.05651-8.22897,9.55967-14.75275,13.35158-18.99529,2.00707-2.25531,7.08627-8.62086,17.2685-21.40458,4.04314-5.08133,6.9995-8.85033,8.98692-11.59681,.29469-.40008,.5635-.79928,.78263-1.14466,2.40116-3.41018,3.06079-5.04203,2.43215-5.87122-.90173-1.18095-4.15678-.35162-7.69944,1.05878-.38266,.14474-.79,.31638-1.17163,.48699-3.84562,1.60378-7.72525,3.64921-9.01783,4.34822-11.8656,6.30038-23.26282,17.19078-33.70245,30.01088-3.87561,4.73786-7.58578,9.72811-11.16155,14.84258-11.50877,16.51346-21.40982,34.38681-28.8497,49.05477-9.1161,18.0749-14.4901,31.31378-14.4901,31.31378-25.00522,61.66591-52.66078,132.16354-54.28731,131.63312-1.7837-.57596,28.50241-88.16418,36.45216-135.39923,2.6555-15.82273,2.7992-27.11766-1.60473-29.11638-.1582-.07143-.3164-.14269-.49945-.18721-.68146-.20584-1.30082-.15515-1.63586-.11583,0,0-4.02755-.35678-8.20508,.71664-5.20233,1.34735-10.5897,16.19192-15.58622,36.92438-13.00929,53.44431-23.70762,145.89372-23.70762,145.89372-10.6973,92.47513-29.54075,167.72116-34.74403,167.10071-2.88803-.35053,.29883-23.59984-5.06668-61.93897-3.76793-26.8809-6.78524-25.93164-18.50917-74.34747-18.6074-76.80334-27.91058-115.19216-27.91885-115.39885,.01249-1.63173,.08786-4.92312-.5398-8.31583-.66491-3.67599-2.13828-7.50091-5.35419-9.57307-4.89107-3.17034-12.48496-1.41663-15.51059,.6204-2.41971,1.65026-3.57264,4.54463-3.6936,8.64034-.67831,25.76413,39.21679,98.79016,56.01561,198.99487,8.36638,49.92233,12.9512,77.15901,4.54956,113.74435-8.31069,36.271-24.38076,59.80252-25.61539,76.18997Z" fill="#f2f2f2"/><path d="M120.80125,358.73233s-.59663,119.07831-45.01382,99.05862c-23.09817-10.4108-57.19065-54.30525-57.19065-54.30525l14.0855-13.48606,38.4533,32.1434,7.24238-63.92558,42.42328,.51488Z" fill="#ffb6b6"/><path d="M139.48501,292.51861s-29.4272-8.33062-45.31629,14.5503c-15.88909,22.88092-24,108-24,108l42,21,27.31629-143.5503Z" fill="#e6e6e6"/><path d="M168.84834,158.11045c-9.09921,2.97701-19.8209-16.44113-24.26547-8.52817-4.44456,7.91295-2.57001,43.08226-.0691,51.85265,1.24309,4.35937,3.33073,8.50199,4.53565,12.8697,1.20492,4.36772,1.44334,9.20199-.88673,13.07278-4.05497,6.73624-14.02569,8.11499-19.76795,13.67926-6.68793,6.48063-6.10007,16.77941-4.94928,25.82509,.99191,7.79679,2.11773,15.68458,5.28299,23.01713,3.16526,7.33256,8.62893,14.1602,16.27834,17.66646,9.73935,4.46423,21.18109,2.9247,31.62488,.78185,10.04088-2.06018,20.05943-4.61888,29.05225-9.13849,8.99282-4.51961,16.96694-11.16696,21.26147-19.78144,5.38696-10.80577,4.48048-23.74417,.08163-35.15545-4.39886-11.41127-12.00686-21.56315-19.92962-31.26876-13.34357-16.34625-27.8464-31.89173-43.37902-46.49766" fill="#2f2e41"/><polygon points="299.12394 355.83509 317.79424 426.42941 363.06594 560.62705 339.49155 574.01379 280.22052 440.47274 265.2425 369.22359 299.12394 355.83509" fill="#ffb6b6"/><polygon points="209.13712 255.21745 156.13712 253.21745 151.13712 272.21745 108.16872 297.06891 112.63712 451.71745 245.63712 463.71745 264.79853 358.46745 269.63712 298.71745 213.63712 274.71745 209.13712 255.21745" fill="#e6e6e6"/><path d="M236.49155,309.01379s24.14046-23.74025,42.48432-7.20233c18.34386,16.53792,40.32566,126.10798,40.32566,126.10798l-38.80998,19.09435-44-138Z" fill="#e6e6e6"/><path d="M238.63712,323.71745s-22-1-40,4c-18,5-68.99999-6.00001-68.99999-6.00001,12.29031,41.84659,4.11722,85.59506-16.5,130.50003-27.2196,33.40552,3.35443,96.79633-43.5,130.5l195.16141-.00002-7.16142-86-11-32s6-6,4-8-27-99-12-133Z" fill="#6c63ff"/><polygon points="143.63712 270.71745 131.63712 331.71745 148.63712 336.71745 144.63712 314.71745 150.63712 267.71745 143.63712 270.71745" fill="#3f3d56"/><polygon points="214.63712 269.71745 221.42845 351.21745 230.63712 350.71745 224.63712 273.71745 214.63712 269.71745" fill="#3f3d56"/><path d="M251.75916,464.71745s-53.62205,14.5-98.62205,9.5l-41.65157-27.23622-1.84843,4.73622s36.12205,45.28346,63.06102,42.64173,81.93898-18.64173,81.93898-22.64173-2.87795-7-2.87795-7Z" fill="#3f3d56"/><ellipse cx="16.74329" cy="385.78628" rx="13.5883" ry="21.06187" transform="translate(-231.05477 89.63174) rotate(-37.43475)" fill="#ffb6b6"/><ellipse cx="356.74329" cy="575.78628" rx="15.86309" ry="24.5878" transform="translate(-217.06661 215.87267) rotate(-26.12127)" fill="#ffb6b6"/><circle cx="186.74305" cy="194.74857" r="44.29124" fill="#ffb6b6"/><path d="M198.6639,237.13792l-.52557-14.91846s-26.74933-61.33335-45.786-53.7687l-9.28696,16.87276s-7.52236-4.79058,.1468-15.40175c7.66916-10.61117,.65123-7.60633,.65123-7.60633,0,0-9.6446-6.32441,1.89086-11.5566,11.53546-5.23219,18.99439-21.81074,41.96079-2.62727,12.75693,10.65567,27.01803,27.78129,37.17631,40.90159,11.40189,14.72654,7.21799,36.56906-9.27349,45.22385-4.92856,2.58653-10.59782,3.92089-16.95395,2.88092Z" fill="#2f2e41"/><path d="M219.20948,305.53527c-13.19634,16.63127-22.11323,38.38889-24.93784,60.84951-10.41422-8.93868-15.78532-25.10291-15.8551-41.35092-.06978-16.24802,4.67399-32.52022,11.43802-47.06612,.06764-.14546,.13548-.29077,.20351-.43593,10.22685-21.82103,8.38728-48.38044-4.9438-65.16643-8.99216-11.32258-16.18299-24.8582-20.95614-39.80602-2.69465-8.4387-4.46952-18.76186-.11914-26.74324,4.0087-7.35452,11.66362-9.846,18.55823-11.22304,15.74342-3.14437,32.02113-3.73596,46.6678,2.28011,14.64667,6.01607,27.50046,19.42286,31.87534,37.83507,4.37488,18.41221-1.35842,41.62529-15.12702,52.49135,3.43823,2.10016,5.24098,7.43587,4.1343,12.23653s-5.01397,8.59419-8.96069,8.6998c2.51506,.29722,3.31232,4.67364,1.94163,7.46343-1.37069,2.78979-3.96529,4.23751-6.40302,5.39006-3.47236,1.64172-7.29936,3.32635-8.23486,8.96027-.3751,2.259-.09319,4.55709,.65332,6.56512,1.80906,4.86613,5.57767,7.5409,9.21321,10.06801-8.84608,1.72441-17.03086,10.01066-20.28631,20.53781" fill="#2f2e41"/><path d="M247.93345,474.85668c5.9207,7.45056,5.96563,18.48087,13.83237,24.60211,3.26241,2.53853,7.94982,3.88748,11.9555,2.41232,3.9724-1.46291,6.21986-5.14414,6.67035-9.23383,.4796-4.35394-1.3271-8.49203-3.92728-11.88772-2.80829-3.66747-6.41918-7.14108-10.32717-9.61947-3.62079-2.29626-8.02576-3.49918-12.21367-2.11456-4.21962,1.3951-6.71596,4.81469-6.82451,9.25143-.07575,3.09597,.36153,6.24745,.58864,9.33339l.69163,9.39755,1.41966,19.28972c.14085,1.91387,3.14199,1.92925,3,0l-2.22049-30.17109c-.17555-2.38537-.44948-4.78728-.48291-7.17975-.02704-1.93513,.29725-3.83938,1.70419-5.26076,2.4639-2.48918,6.35634-2.70669,9.50361-1.61586,3.90249,1.35259,7.12068,4.42033,9.96705,7.30411,2.76958,2.80597,5.48774,6.18635,6.08898,10.20782,.47886,3.20291-.43577,7.05365-3.34587,8.8555-3.19108,1.97583-7.43842,.91961-10.27451-1.21138-3.71242-2.78946-5.65705-7.40576-7.27032-11.60661-1.73425-4.51587-3.37118-9.04526-6.41393-12.87424-1.2007-1.51095-3.31089,.62437-2.12132,2.12132h0Z" fill="#3f3d56"/><path d="M247.21946,471.73536c-2.6834,3.37677-4.29129,7.29712-5.81285,11.29608-1.47354,3.87276-2.95612,7.96259-5.72183,11.13157-2.4044,2.75499-6.02333,4.79205-9.79208,4.22467-3.63483-.54722-5.8076-3.76856-6.05667-7.26832-.27645-3.88451,1.53809-7.42365,3.96653-10.34389,2.62709-3.15913,5.8318-6.27453,9.37641-8.38066,3.09106-1.83664,6.84403-2.74302,10.23721-1.14502,1.47436,.69434,2.73408,1.82859,3.31609,3.3762,.79794,2.12179,.39847,4.58005,.23649,6.78098-.83117,11.29355-1.66233,22.5871-2.4935,33.88065-.14175,1.92605,2.85891,1.91703,3,0,.83723-11.37599,1.67447-22.75197,2.5117-34.12796,.18371-2.49624,.4743-5.14176-.43535-7.54007-.69899-1.8429-1.97921-3.33812-3.62975-4.40315-3.49845-2.25742-7.94767-2.2305-11.7042-.68246-4.28508,1.76585-7.90242,5.11082-11.04531,8.44318-3.08109,3.26684-5.749,7.14958-6.27565,11.71214-.45069,3.90443,.7848,8.20905,3.96358,10.69659,3.45909,2.7069,8.13378,2.50229,11.96452,.73129,10.33705-4.77895,10.14324-18.24108,16.51598-26.2605,1.18907-1.49631-.9201-3.63292-2.12132-2.12132h0Z" fill="#3f3d56"/><g><path d="M68.13712,340.14829s-22.66919,21.47607-60.84894,0l5.96558,71.58698s.53613,.172,1.49646,.44257c.69366,2.51349,2.59021,4.57855,5.16516,5.39246,8.31006,2.62665,24.29126,6.20685,35.09442-.59369,2.2536-1.41864,3.5824-3.93451,3.5824-6.59741v-.2074c.83826-.61298,1.64337-1.27301,2.38623-2.01587l7.15869-68.00763Z" fill="#3f3d56"/><ellipse cx="37.71264" cy="340.14828" rx="30.42448" ry="10.73805" fill="#6c63ff"/><ellipse cx="21.009" cy="338.95516" rx="2.98279" ry="2.38623" fill="#3f3d56"/><ellipse cx="50.83692" cy="338.95516" rx="2.98279" ry="2.38623" fill="#3f3d56"/><path d="M40.69543,327.26262c0,1.84503-1.86962,3.34073-4.17591,3.34073s-4.17591-1.49569-4.17591-3.34073,4.61145-5.60552,4.17591-3.34073c-.59656,3.1021,4.17591,1.49569,4.17591,3.34073Z" fill="#3f3d56"/><path d="M55.01283,335.61444c0,1.84503-1.86962,3.34073-4.17591,3.34073s-4.17591-1.49569-4.17591-3.34073,4.61145-5.60552,4.17591-3.34073c-.59656,3.1021,4.17591,1.49569,4.17591,3.34073Z" fill="#3f3d56"/><path d="M46.66101,339.19379c0,1.84503-1.86962,3.34073-4.17591,3.34073s-4.17591-1.49569-4.17591-3.34073,4.61145-5.60552,4.17591-3.34073c-.59656,3.1021,4.17591,1.49569,4.17591,3.34073Z" fill="#3f3d56"/><path d="M35.92296,340.3869c0,1.84503-1.86962,3.34073-4.17591,3.34073s-4.17591-1.49569-4.17591-3.34073,4.61145-5.60552,4.17591-3.34073c-.59656,3.1021,4.17591,1.49569,4.17591,3.34073Z" fill="#3f3d56"/><path d="M25.18491,336.80755c0,1.84503-1.86962,3.34073-4.17591,3.34073s-4.17591-1.49569-4.17591-3.34073,4.61145-5.60552,4.17591-3.34073c-.59656,3.1021,4.17591,1.49569,4.17591,3.34073Z" fill="#3f3d56"/><ellipse cx="29.36082" cy="343.72763" rx="2.98279" ry="2.38623" fill="#3f3d56"/><ellipse cx="43.67822" cy="343.72763" rx="2.98279" ry="2.38623" fill="#3f3d56"/><path d="M45.08166,334.42132c0,3.16291-7.17456,1.77336-7.15869,5.72697,.05707,14.20944-6.19955,.83417-7.15872-5.72696-.45752-3.12967,3.20507-5.72697,7.15871-5.72697s7.1587,2.56405,7.1587,5.72696Z" fill="#3f3d56"/></g><g><path d="M360.13712,528.14829s-22.66919,21.47607-60.84894,0l5.96558,71.58698s.53613,.172,1.49646,.44257c.69366,2.51349,2.59021,4.57855,5.16516,5.39246,8.31006,2.62665,24.29126,6.20685,35.09442-.59369,2.2536-1.41864,3.5824-3.93451,3.5824-6.59741v-.2074c.83826-.61298,1.64337-1.27301,2.38623-2.01587l7.15869-68.00763Z" fill="#3f3d56"/><ellipse cx="329.71264" cy="528.14828" rx="30.42448" ry="10.73805" fill="#6c63ff"/><ellipse cx="313.009" cy="526.95516" rx="2.98279" ry="2.38623" fill="#3f3d56"/><ellipse cx="342.83692" cy="526.95516" rx="2.98279" ry="2.38623" fill="#3f3d56"/><path d="M332.69543,515.26262c0,1.84503-1.86962,3.34073-4.17591,3.34073s-4.17591-1.49569-4.17591-3.34073,4.61145-5.60552,4.17591-3.34073c-.59656,3.1021,4.17591,1.49569,4.17591,3.34073Z" fill="#3f3d56"/><path d="M347.01283,523.61444c0,1.84503-1.86962,3.34073-4.17591,3.34073s-4.17591-1.49569-4.17591-3.34073,4.61145-5.60552,4.17591-3.34073c-.59656,3.1021,4.17591,1.49569,4.17591,3.34073Z" fill="#3f3d56"/><path d="M338.66101,527.19379c0,1.84503-1.86962,3.34073-4.17591,3.34073s-4.17591-1.49569-4.17591-3.34073,4.61145-5.60552,4.17591-3.34073c-.59656,3.1021,4.17591,1.49569,4.17591,3.34073Z" fill="#3f3d56"/><path d="M327.92296,528.3869c0,1.84503-1.86962,3.34073-4.17591,3.34073s-4.17591-1.49569-4.17591-3.34073,4.61145-5.60552,4.17591-3.34073c-.59656,3.1021,4.17591,1.49569,4.17591,3.34073Z" fill="#3f3d56"/><path d="M317.18491,524.80755c0,1.84503-1.86962,3.34073-4.17591,3.34073s-4.17591-1.49569-4.17591-3.34073,4.61145-5.60552,4.17591-3.34073c-.59656,3.1021,4.17591,1.49569,4.17591,3.34073Z" fill="#3f3d56"/><ellipse cx="321.36082" cy="531.72763" rx="2.98279" ry="2.38623" fill="#3f3d56"/><ellipse cx="335.67822" cy="531.72763" rx="2.98279" ry="2.38623" fill="#3f3d56"/><path d="M337.08166,522.42132c0,3.16291-7.17456,1.77336-7.15869,5.72697,.05707,14.20944-6.19955,.83417-7.15872-5.72696-.45752-3.12967,3.20507-5.72697,7.15871-5.72697s7.1587,2.56405,7.1587,5.72696Z" fill="#3f3d56"/></g></svg>