<?xml version="1.0" encoding="UTF-8"?><svg id="uuid-f98cac2d-970a-4b18-af71-b746658330f7" xmlns="http://www.w3.org/2000/svg" width="375.00077" height="728.17086" viewBox="0 0 375.00077 728.17086"><path d="M2.79045,484.29492c-.55273,0-1-.44727-1-1V201.5C1.79045,130.58789,59.48088,72.89746,130.39299,72.89746h217.1377c.55273,0,1,.44727,1,1s-.44727,28-1,28l-217.1377-27C60.58439,74.89746,3.79045,131.69141,3.79045,201.5V483.29492c0,.55273-.44727,1-1,1Z" fill="#3f3d56"/><path d="M348.29045,0c.55273,0,1,.44727,1,1V282.79492c0,70.91211-57.69043,128.60254-128.60254,128.60254H3.55021c-.55273,0-1-.44727-1-1s.44727-1,1-1H220.68791c69.80859,0,126.60254-56.79395,126.60254-126.60254V1c0-.55273,.44727-1,1-1Z" fill="#3f3d56"/><path d="M247.57733,267.30232c0-4.32129,1.71973-8.5498,4.9502-11.69727l45.55079-44.37206c1.18848-4.52246,3.45996-8.75195,6.57324-12.23926,3.7627-4.32812,8.37988-7.46777,13.00195-8.83887,4.70215-1.39648,8.85742-.80371,11.70117,1.66797,5.80176,5.04199,4.15722,16.46777-3.66407,25.46582-3.01367,3.56543-6.88379,6.40332-11.19434,8.20898l-41.34961,42.62402,22.76367,34.4961c4.4082,5.13965,5.38476,12.25488,2.51269,18.5166-2.77441,6.0498-8.5752,9.81836-15.13965,9.83496-7.02148,.01758-13.23828-4.18555-15.83984-10.70703l-18.69531-46.88379c-.78809-1.97656-1.1709-4.03711-1.1709-6.07617Z" fill="#ffb6b6"/><circle cx="285.79045" cy="190.89746" r="36" fill="#3f3d56"/><g><polygon points="304.54078 287.24216 277.7448 307.66791 311.73987 331.01719 328.79846 294.45125 304.54078 287.24216" fill="#ffb6b6"/><circle cx="319.1565" cy="276.44881" r="28.36702" fill="#ffb6b6"/><path d="M321.36271,308.23681s6.39191-20.46286,2.26129-24.33045c-4.13063-3.86759-3.99911,.13152-3.99911,.13152l5.23891-19.71846s-2.49626-11.45721-19.03279-13.03283c0,0,5.87416-11.14375,14.41248-9.30508,8.53832,1.83866,9.07843,3.94036,12.70534,3.23234,3.6269-.70802,11.14375,5.87416,11.14375,5.87416,0,0,3.85004-3.14171,3.41384,.73514-.43621,3.87685,3.6551,10.2138,3.6551,10.2138,0,0,2.32944-1.4525,1.6881,2.61467-.64134,4.06717,2.37268,6.20526,2.37268,6.20526,0,0-3.9901,2.57612-2.71009,4.60852,1.28001,2.0324,6.39573,3.63038,4.46194,5.69569s-.48137,6.84521-7.02716,11.88815c-6.54579,5.04294-28.58428,15.18756-28.58428,15.18756Z" fill="#2f2e41"/></g><path d="M338.16838,677.99121l-.23828-.24707-66.96289-69.57227c-6.48145-6.7334-9.61914-15.9248-8.60938-25.2168l3.49316-32.14551,33.91309,6.16602,1.29688,20.26562,56.96094,92.39062-19.85352,8.35938Z" fill="#ffb6b6"/><path d="M346.3052,728.17086c-1.08008,0-2.14746-.27539-3.12109-.81543-2.35742-1.31055-3.65918-3.98145-3.23926-6.64551l2.32812-14.74023-12.01953-26.04297,3.16992-9.50977,18.14844-1.00781,6.04883-6.04883,6.77441,1.17871c4.05273,.7041,7.42676,3.22168,9.25684,6.90527,1.8291,3.68457,1.79688,7.89258-.08984,11.54785l-21.51367,41.68262c-.80762,1.56445-2.18066,2.70703-3.86621,3.21582-.61914,.1875-1.25,.28027-1.87695,.28027Z" fill="#2f2e41"/><polygon points="312.29045 483.39746 299.29045 565.39746 236.29045 595.39746 226.29045 515.39746 312.29045 483.39746" fill="#2f2e41"/><path d="M276.16838,653.99121l-.23828-.24707-66.96289-69.57227c-6.48145-6.7334-9.61914-15.9248-8.60938-25.2168l3.49316-32.14551,33.91309,6.16602,1.29688,20.26562,56.96094,92.39062-19.85352,8.35938Z" fill="#ffb6b6"/><path d="M284.3052,704.17086c-1.08008,0-2.14746-.27539-3.12109-.81543-2.35742-1.31055-3.65918-3.98145-3.23926-6.64551l2.32812-14.74023-12.01953-26.04297,3.16992-9.50977,18.14844-1.00781,6.04883-6.04883,6.77441,1.17871c4.05273,.7041,7.42676,3.22168,9.25684,6.90527,1.8291,3.68457,1.79688,7.89258-.08984,11.54785l-21.51367,41.68262c-.80762,1.56445-2.18066,2.70703-3.86621,3.21582-.61914,.1875-1.25,.28027-1.87695,.28027Z" fill="#2f2e41"/><path d="M240.62845,455.92868l-7.03711,19.1416-31.60156,51.6123c-.92871,1.51562-1.07812,3.3291-.41016,4.97656,.66797,1.64648,2.03809,2.84375,3.75879,3.28516l69.74414,17.88379,32.28711-45.33984c9.20996-12.93457,13.97461-28.7666,13.4375-44.63086l-80.17871-6.92871Z" fill="#2f2e41"/><path d="M312.61087,475.39743h-80.03223l.04492-.54102,10.10449-122.4751c1.32422-16.05176,9.625-30.5918,22.77344-39.89209l.13867-.09766,54.70508,2.02588-11.87695,110.38818,15.79395,31.7959c2.0166,4.06152,1.79492,8.78711-.59473,12.64062-2.38867,3.85449-6.52246,6.15527-11.05664,6.15527Z" fill="#6c63ff"/><path d="M290.72404,337.03027c-4.56738,.00098-9.02148-1.85254-12.31348-5.3291l-34.69922-36.65527c-4.56348-4.82031-5.7627-11.85059-3.05566-17.91113l25.92578-58.06641c-.56836-4.64062-.02051-9.41016,1.58594-13.80176,1.89551-5.41113,5.02539-10.03516,8.8125-13.01758,3.85449-3.03613,7.93359-4.02246,11.48926-2.77441,7.25488,2.54102,9.9502,13.76367,6.00781,25.0166-1.48242,4.4248-4.03027,8.49316-7.36816,11.76562l-22.66895,54.8877,33.90137,23.6416c5.99414,3.14551,9.53223,9.39453,9.17773,16.27637-.3418,6.64746-4.33984,12.29297-10.43359,14.7334-2.07324,.83105-4.22949,1.23438-6.36133,1.23438Z" fill="#ffb6b6"/><path d="M40.06063,228.68271c8.76273,10.49179,12.16383,24.37145,14.5015,37.83987,.85453,4.92335,1.60231,9.86523,2.24264,14.821,2.39021,18.49872,3.194,37.80691-3.26621,55.30496-1.63613,4.43161-3.29448,10.40094,.61016,13.05986,3.10168,2.11214,7.63928-.08074,9.32809-3.43178,1.68881-3.35104,1.35291-7.32076,.97658-11.05439-4.11034,4.41486-2.82769,12.58966,2.43725,15.53352,5.26494,2.94386,12.901-.2441,14.50983-6.05767,.83815,6.20306,6.9252,11.22686,13.17464,10.87337,6.24944-.35349,11.73115-6.03166,11.86445-12.28967-3.24024,3.44241-1.63783,9.67742,2.38419,12.16189,4.02203,2.48448,9.38337,1.78612,13.50878-.52265,4.1254-2.30876,7.2837-5.98199,10.3511-9.57927-4.04405,2.49823-4.99094,8.82154-1.85609,12.39479s9.52762,3.45739,12.53094-.22712c2.47502-3.03639,2.462-7.46866,1.25415-11.19512-1.20784-3.72646-3.43106-7.02782-5.1053-10.56933-7.66729-16.21856-3.15117-35.45365,3.18322-52.2377,6.3344-16.78405,14.50583-33.66311,13.82159-51.58965" fill="#fff"/><path d="M39.5303,229.21304c6.42585,7.76667,9.9259,17.38288,12.21696,27.08462,2.48241,10.51203,4.03079,21.33462,5.12408,32.07268,1.10639,10.86681,1.47319,21.92922-.17486,32.76211-.79489,5.22494-2.07928,10.34805-3.88112,15.3167-1.24243,3.42605-2.74093,7.7352-1.20606,11.30658,1.80961,4.21066,6.87721,4.27496,10.12564,1.74466,4.33084-3.37343,3.95738-9.38338,3.46846-14.27817-.05918-.59246-.80692-1.05777-1.28033-.53033-3.3798,3.76551-3.47492,9.74855-.56514,13.83075,3.08428,4.32699,8.80731,5.10907,13.38048,2.74257,2.56585-1.32776,4.55996-3.58704,5.38527-6.36776h-1.44642c1.00178,6.61052,7.50041,12.00111,14.24422,11.39891,6.60197-.58954,12.02357-6.42596,12.26808-13.01458,.02346-.63214-.84868-1.013-1.28033-.53033-2.18133,2.43919-2.41708,5.86252-1.20039,8.82285,1.34478,3.272,4.24866,5.40665,7.71306,5.99165,8.91203,1.50489,15.56749-5.56949,20.79206-11.69387,.52018-.60977-.14907-1.67096-.90887-1.17793-3.3394,2.1669-4.81159,6.48382-3.76291,10.29649,1.10248,4.00831,5.01428,6.36531,9.07279,6.08334,4.56374-.31707,7.8048-3.66535,8.41675-8.13949,.74156-5.42175-2.03328-10.25178-4.49115-14.85037-11.6878-21.86737-1.37757-46.00083,6.84286-67.10465,4.86277-12.48391,9.34119-25.47928,8.87872-39.06183-.03278-.96265-1.53293-.96708-1.5,0,.7681,22.55898-11.87965,42.31001-17.78051,63.39947-2.79983,10.0065-4.36317,20.68444-2.33985,30.99047,1.00649,5.12671,1.19357,10.51646,3.64866,15.08988,2.31689,4.31597,6.67421,8.74225,4.65575,13.66636-1.87514,4.57447-8.15115,6.0471-11.91989,2.8079-3.59456-3.08949-2.82545-9.3768,1.03585-11.88236l-.90887-1.17793c-4.55753,5.34245-8.21187,4.64539-15.86285,4.58603-3.29179-.02554-8.18201,5.41839-9.79744,2.45682-1.37143-2.51426-1.51489-5.81495,.47688-8.04217l-1.28033-.53033c-.21729,5.85491-5.20329,11.18699-11.11445,11.53967-6.02824,.35967-11.56116-4.44806-12.45143-10.32275-.11709-.77265-1.2529-.65202-1.44642,0-1.59292,5.36704-8.61676,8.40366-13.54021,5.53237-4.80159-2.80022-5.8263-10.18637-2.15332-14.27851l-1.28033-.53033c.45063,4.51141,1.02236,10.45565-3.26949,13.38379-1.62808,1.11077-3.82692,1.66312-5.62934,.63005-1.75685-1.00695,.46349-3.93212,.48589-5.83861,.05043-4.29262-.57464-7.45119,.59715-11.50294,1.40008-4.84109,2.30055-9.81551,2.82889-14.82455,1.07822-10.22243,.56631-20.55115-.56256-30.74577-1.12063-10.12029-2.58791-20.30174-4.9122-30.22184-2.35293-10.0423-6.00709-19.92003-12.65076-27.94998-.61588-.74439-1.67187,.32191-1.06066,1.06066h0Z" fill="#3f3d56"/><path d="M98.29045,241.4782c-30.54102,0-63-5.08203-63-14.5s32.45898-14.5,63-14.5,63,5.08203,63,14.5-32.45898,14.5-63,14.5Zm0-27c-35.94824,0-61,6.58789-61,12.5s25.05176,12.5,61,12.5,61-6.58789,61-12.5-25.05176-12.5-61-12.5Z" fill="#3f3d56"/><path d="M28.36857,255.52605c-.31348,0-.62793-.01758-.94141-.05371l-19.42676-2.24023c-4.10449-.47363-7.27441-3.94531-7.37402-8.07715L.00236,219.29167c-.05664-2.37598,.90723-4.66797,2.64355-6.29004,1.7373-1.62207,4.09277-2.4248,6.45703-2.20605l29.14551,2.71094c3.28809,.30664,6.08789,2.52832,7.13281,5.66113l4.68262,14.04883c1.08203,3.24805,.0332,6.8916-2.60938,9.06641l-13.77734,11.34375c-1.49316,1.22949-3.38672,1.89941-5.30859,1.89941Z" fill="#3f3d56"/></svg>