<svg id="f9578d50-1e62-4fc2-bcba-f92fd80745a2" data-name="Layer 1" xmlns="http://www.w3.org/2000/svg" width="1137" height="518.05664" viewBox="0 0 1137 518.05664"><path d="M175.76416,701.583l-1.95117-.43946c21.75586-96.751,76.43017-184.60937,153.95117-247.3916C518.48993,299.52911,798.126,329.12061,952.34888,519.84637A444.11345,444.11345,0,0,1,1039.919,699.96289l-1.94922.44336C991.916,498.19727,814.69531,356.97168,607,356.97168,402.02637,356.97168,220.66553,501.90137,175.76416,701.583Z" transform="translate(-31.5 -190.97168)" fill="#3f3d56"/><circle cx="899.63336" cy="219.90276" r="54.31518" fill="#ff6584"/><rect x="877" y="437.05664" width="2" height="79" fill="#3f3d56"/><path d="M928.9577,638.096c.12732,27.62433-19.30786,50.10834-19.30786,50.10834s-19.6416-22.3039-19.76892-49.92823,19.30786-50.10833,19.30786-50.10833S928.83038,610.47162,928.9577,638.096Z" transform="translate(-31.5 -190.97168)" fill="#6c63ff"/><path d="M928.9577,638.096c.12732,27.62433-19.30786,50.10834-19.30786,50.10834s-19.6416-22.3039-19.76892-49.92823,19.30786-50.10833,19.30786-50.10833S928.83038,610.47162,928.9577,638.096Z" transform="translate(-31.5 -190.97168)" opacity="0.1" style="isolation:isolate"/><circle cx="532.52168" cy="439.71368" r="31.24789" transform="translate(-18.31469 703.95317) rotate(-80.78253)" fill="#6c63ff" opacity="0.4" style="isolation:isolate"/><circle cx="443.18973" cy="263.66638" r="21.92017" fill="#6c63ff" opacity="0.4" style="isolation:isolate"/><circle cx="208.18971" cy="326.66638" r="21.92017" fill="#6c63ff" opacity="0.4" style="isolation:isolate"/><circle cx="856.31219" cy="246.17134" r="31.24792" fill="#6c63ff" opacity="0.4" style="isolation:isolate"/><path d="M88.13058,698.24414c1.694,6.26184,7.4961,10.14,7.4961,10.14s3.05572-6.27436,1.36177-12.5362-7.49609-10.14-7.49609-10.14S86.43664,691.9823,88.13058,698.24414Z" transform="translate(-31.5 -190.97168)" fill="#3f3d56"/><path d="M90.61972,696.89838c4.64821,4.52484,5.216,11.48059,5.216,11.48059s-6.96849-.3805-11.61672-4.90534S79.003,691.993,79.003,691.993,85.9715,692.37354,90.61972,696.89838Z" transform="translate(-31.5 -190.97168)" fill="#6c63ff"/><path d="M700.13055,698.24414c1.694,6.26184,7.4961,10.14,7.4961,10.14s3.05572-6.27436,1.36175-12.5362-7.49609-10.14-7.49609-10.14S698.43665,691.9823,700.13055,698.24414Z" transform="translate(-31.5 -190.97168)" fill="#3f3d56"/><path d="M702.61969,696.89838c4.64819,4.52484,5.216,11.48059,5.216,11.48059s-6.9685-.3805-11.6167-4.90534-5.216-11.48059-5.216-11.48059S697.9715,692.37354,702.61969,696.89838Z" transform="translate(-31.5 -190.97168)" fill="#6c63ff"/><path d="M99.637,651.17468l-4.137-6.895,38.614-33.098c30.53014-8.99927,64.04139-7.551,99.294,0v9.653l-35.856,38.615-41.373,8.274Z" transform="translate(-31.5 -190.97168)" fill="#3f3d56"/><path d="M250.5,630.60468v-21.577h-13v6.804l-4.092-4.65-33.098,33.098-5.517,5.516-6.895,27.582,12.412,30.339,63.437,0c11.04462-16.39563,7.31989-38.52856,0-62.058Z" transform="translate(-31.5 -190.97168)" fill="#ccc"/><path d="M95.5,644.27939H200.30978v63.43753l-104.80978,0C87.11241,692.23069,79.5535,676.18528,95.5,644.27939Z" transform="translate(-31.5 -190.97168)" fill="#f2f2f2"/><rect x="132.26427" y="473.30432" width="22.06522" height="19.30707" fill="#3f3d56"/><rect x="103.99321" y="472.61478" width="19.30707" height="44.1304" fill="#ccc"/><polygon points="81.928 479.51 81.928 472.615 73.654 472.615 73.654 479.51 81.238 479.51 81.928 479.51" fill="#3f3d56"/><polygon points="81.238 485.026 73.654 485.026 73.654 491.922 81.928 491.922 81.928 485.026 81.238 485.026" fill="#3f3d56"/><rect x="87.44429" y="472.61478" width="8.27446" height="6.89539" fill="#3f3d56"/><rect x="87.44429" y="485.02646" width="8.27446" height="6.89539" fill="#3f3d56"/><polygon points="198.46 480.2 198.46 473.304 190.185 473.304 190.185 480.2 197.77 480.2 198.46 480.2" fill="#3f3d56"/><polygon points="197.77 485.716 190.185 485.716 190.185 492.611 198.46 492.611 198.46 485.716 197.77 485.716" fill="#3f3d56"/><rect x="203.97623" y="473.30432" width="8.27446" height="6.89539" fill="#3f3d56"/><rect x="203.97623" y="485.716" width="8.27446" height="6.89539" fill="#3f3d56"/><path d="M498.637,651.17468l-4.137-6.895,38.614-33.098c28.54712-13.74066,62.95819-9.77594,99.294,0v9.653l-35.856,38.615-41.373,8.274Z" transform="translate(-31.5 -190.97168)" fill="#3f3d56"/><path d="M649.5,630.60465c6.85711-7.62726,7.80981-14.88007,0-21.577l-13,0v6.804l-4.092-4.65-33.098,33.098-5.517,5.516-6.895,27.582,12.412,30.339h63.437v-62.058Z" transform="translate(-31.5 -190.97168)" fill="#ccc"/><path d="M494.5,644.27939H599.30975v63.43753l-104.80975,0C481.82,693.99827,488.40725,668.994,494.5,644.27939Z" transform="translate(-31.5 -190.97168)" fill="#f2f2f2"/><rect x="531.26428" y="473.30432" width="22.06525" height="19.30707" fill="#3f3d56"/><rect x="502.99323" y="472.61478" width="19.30707" height="44.1304" fill="#ccc"/><polygon points="480.928 479.51 480.928 472.615 472.654 472.615 472.654 479.51 480.238 479.51 480.928 479.51" fill="#3f3d56"/><polygon points="480.238 485.026 472.654 485.026 472.654 491.922 480.928 491.922 480.928 485.026 480.238 485.026" fill="#3f3d56"/><rect x="486.44427" y="472.61478" width="8.27448" height="6.89539" fill="#3f3d56"/><rect x="486.44427" y="485.02646" width="8.27448" height="6.89539" fill="#3f3d56"/><polygon points="597.46 480.2 597.46 473.304 589.185 473.304 589.185 480.2 596.77 480.2 597.46 480.2" fill="#3f3d56"/><polygon points="596.77 485.716 589.185 485.716 589.185 492.611 597.46 492.611 597.46 485.716 596.77 485.716" fill="#3f3d56"/><rect x="602.9762" y="473.30432" width="8.27448" height="6.89539" fill="#3f3d56"/><rect x="602.9762" y="485.716" width="8.27448" height="6.89539" fill="#3f3d56"/><polygon points="280.515 344.361 273.62 338.844 312.234 304.367 410.148 304.367 410.148 334.707 346.711 377.459 280.515 344.361" fill="#3f3d56"/><path d="M459.5,514.67868v-18.651h-13v4.568l-4.852-5.257-31.719,34.477-12.411,8.275-19.245,140.603,29.023,29.023,67.45,0c10.33481-51.98779,18.53-105.39435,0-176.522Z" transform="translate(-31.5 -190.97168)" fill="#ccc"/><path d="M305.11956,529.81608l104.80979,0V707.71692l-104.80979,0C293.65042,638.60392,288.049,574.51133,305.11956,529.81608Z" transform="translate(-31.5 -190.97168)" fill="#f2f2f2"/><rect x="314.30231" y="473.30432" width="19.30707" height="43.44092" fill="#ccc"/><polygon points="293.616 485.716 293.616 478.821 285.342 478.821 285.342 485.716 292.927 485.716 293.616 485.716" fill="#3f3d56"/><polygon points="292.927 491.232 285.342 491.232 285.342 498.128 293.616 498.128 293.616 491.232 292.927 491.232" fill="#3f3d56"/><rect x="299.13248" y="478.82062" width="8.27444" height="6.89539" fill="#3f3d56"/><rect x="299.13248" y="491.2323" width="8.27444" height="6.89539" fill="#3f3d56"/><polygon points="350.158 485.716 350.158 478.821 341.884 478.821 341.884 485.716 349.469 485.716 350.158 485.716" fill="#3f3d56"/><polygon points="349.469 491.232 341.884 491.232 341.884 498.128 350.158 498.128 350.158 491.232 349.469 491.232" fill="#3f3d56"/><rect x="355.67459" y="478.82062" width="8.27444" height="6.89539" fill="#3f3d56"/><rect x="355.67459" y="491.2323" width="8.27444" height="6.89539" fill="#3f3d56"/><polygon points="408.079 347.808 408.079 340.913 399.805 340.913 399.805 347.808 407.39 347.808 408.079 347.808" fill="#3f3d56"/><polygon points="407.39 353.325 399.805 353.325 399.805 360.22 408.079 360.22 408.079 353.325 407.39 353.325" fill="#3f3d56"/><rect x="413.59579" y="340.91302" width="8.27444" height="6.89539" fill="#3f3d56"/><rect x="413.59579" y="353.32468" width="8.27444" height="6.89539" fill="#3f3d56"/><polygon points="408.079 386.423 408.079 379.527 399.805 379.527 399.805 386.423 407.39 386.423 408.079 386.423" fill="#3f3d56"/><polygon points="407.39 391.939 399.805 391.939 399.805 398.834 408.079 398.834 408.079 391.939 407.39 391.939" fill="#3f3d56"/><rect x="413.59579" y="379.52713" width="8.27444" height="6.89539" fill="#3f3d56"/><rect x="413.59579" y="391.93881" width="8.27444" height="6.89539" fill="#3f3d56"/><polygon points="408.079 425.037 408.079 418.141 399.805 418.141 399.805 425.037 407.39 425.037 408.079 425.037" fill="#3f3d56"/><polygon points="407.39 430.553 399.805 430.553 399.805 437.448 408.079 437.448 408.079 430.553 407.39 430.553" fill="#3f3d56"/><rect x="413.59579" y="418.14127" width="8.27444" height="6.89539" fill="#3f3d56"/><rect x="413.59579" y="430.55295" width="8.27444" height="6.89539" fill="#3f3d56"/><polygon points="408.079 463.651 408.079 456.755 399.805 456.755 399.805 463.651 407.39 463.651 408.079 463.651" fill="#3f3d56"/><polygon points="407.39 469.167 399.805 469.167 399.805 476.062 408.079 476.062 408.079 469.167 407.39 469.167" fill="#3f3d56"/><rect x="413.59579" y="456.7554" width="8.27444" height="6.89539" fill="#3f3d56"/><rect x="413.59579" y="469.16708" width="8.27444" height="6.89539" fill="#3f3d56"/><path d="M316.84171,538.78006h79.98641V555.329c-25.63812-7.07563-52.37369-6.56812-79.98642,0Z" transform="translate(-31.5 -190.97168)" fill="#3f3d56"/><path d="M316.8417,571.87791q37.44694,11.03274,79.98642,0v16.54891H316.84171Z" transform="translate(-31.5 -190.97168)" fill="#3f3d56"/><path d="M316.84171,604.97571h79.98641v16.54892c-27.25915-8.7044-53.94943-9.11462-79.98642,0Z" transform="translate(-31.5 -190.97168)" fill="#3f3d56"/><path d="M316.8417,638.07352c26.08606,10.05365,52.77219,9.6352,79.98642,0v16.54895H316.84171Z" transform="translate(-31.5 -190.97168)" fill="#3f3d56"/><path d="M715.015,535.33267l-6.895-5.517c5.7381-16.999,16.17877-30.36768,38.614-34.477l97.914,0v30.34l-63.437,42.752Z" transform="translate(-31.5 -190.97168)" fill="#3f3d56"/><polygon points="831 323.707 831 305.056 818 305.056 818 309.624 813.148 304.367 781.429 338.844 769.018 347.119 749.773 487.722 778.796 516.745 846.246 516.745 846.246 340.223 831 323.707" fill="#ccc"/><path d="M708.11956,529.81608l104.80976,0V707.71692l-104.80976,0C693.954,646.57847,693.51477,587.22123,708.11956,529.81608Z" transform="translate(-31.5 -190.97168)" fill="#f2f2f2"/><rect x="717.30231" y="473.30432" width="19.30707" height="43.44092" fill="#ccc"/><polygon points="696.616 485.716 696.616 478.821 688.342 478.821 688.342 485.716 695.927 485.716 696.616 485.716" fill="#3f3d56"/><polygon points="695.927 491.232 688.342 491.232 688.342 498.128 696.616 498.128 696.616 491.232 695.927 491.232" fill="#3f3d56"/><rect x="702.13245" y="478.82062" width="8.27448" height="6.89539" fill="#3f3d56"/><rect x="702.13245" y="491.2323" width="8.27448" height="6.89539" fill="#3f3d56"/><polygon points="753.158 485.716 753.158 478.821 744.884 478.821 744.884 485.716 752.469 485.716 753.158 485.716" fill="#3f3d56"/><polygon points="752.469 491.232 744.884 491.232 744.884 498.128 753.158 498.128 753.158 491.232 752.469 491.232" fill="#3f3d56"/><rect x="758.67456" y="478.82062" width="8.27448" height="6.89539" fill="#3f3d56"/><rect x="758.67456" y="491.2323" width="8.27448" height="6.89539" fill="#3f3d56"/><polygon points="811.079 347.808 811.079 340.913 802.805 340.913 802.805 347.808 810.39 347.808 811.079 347.808" fill="#3f3d56"/><polygon points="810.39 353.325 802.805 353.325 802.805 360.22 811.079 360.22 811.079 353.325 810.39 353.325" fill="#3f3d56"/><rect x="816.59576" y="340.91302" width="8.27448" height="6.89539" fill="#3f3d56"/><rect x="816.59576" y="353.32468" width="8.27448" height="6.89539" fill="#3f3d56"/><polygon points="811.079 386.423 811.079 379.527 802.805 379.527 802.805 386.423 810.39 386.423 811.079 386.423" fill="#3f3d56"/><polygon points="810.39 391.939 802.805 391.939 802.805 398.834 811.079 398.834 811.079 391.939 810.39 391.939" fill="#3f3d56"/><rect x="816.59576" y="379.52713" width="8.27448" height="6.89539" fill="#3f3d56"/><rect x="816.59576" y="391.93881" width="8.27448" height="6.89539" fill="#3f3d56"/><polygon points="811.079 425.037 811.079 418.141 802.805 418.141 802.805 425.037 810.39 425.037 811.079 425.037" fill="#3f3d56"/><polygon points="810.39 430.553 802.805 430.553 802.805 437.448 811.079 437.448 811.079 430.553 810.39 430.553" fill="#3f3d56"/><rect x="816.59576" y="418.14127" width="8.27448" height="6.89539" fill="#3f3d56"/><rect x="816.59576" y="430.55295" width="8.27448" height="6.89539" fill="#3f3d56"/><polygon points="811.079 463.651 811.079 456.755 802.805 456.755 802.805 463.651 810.39 463.651 811.079 463.651" fill="#3f3d56"/><polygon points="810.39 469.167 802.805 469.167 802.805 476.062 811.079 476.062 811.079 469.167 810.39 469.167" fill="#3f3d56"/><rect x="816.59576" y="456.7554" width="8.27448" height="6.89539" fill="#3f3d56"/><rect x="816.59576" y="469.16708" width="8.27448" height="6.89539" fill="#3f3d56"/><rect x="697.34174" y="347.80838" width="56.0874" height="16.54892" fill="#3f3d56"/><rect x="697.34174" y="380.90622" width="56.0874" height="16.54892" fill="#3f3d56"/><rect x="697.34174" y="414.00403" width="56.0874" height="16.54892" fill="#3f3d56"/><rect x="697.34174" y="447.10187" width="56.0874" height="16.54892" fill="#3f3d56"/><polygon points="904.515 344.361 897.62 338.844 936.234 304.367 1034.148 304.367 1034.148 334.707 970.711 377.459 904.515 344.361" fill="#3f3d56"/><polygon points="1052 323.707 1052 305.056 1039 305.056 1039 309.624 1034.148 304.367 1002.429 338.844 990.018 347.119 970.773 487.722 999.796 516.745 1067.246 516.745 1067.246 340.223 1052 323.707" fill="#ccc"/><path d="M929.11956,529.81608h104.80982c-12.099,55.34112-10.66309,115.1112,0,177.90081H929.11956C915.69122,652.28916,906.152,595.7399,929.11956,529.81608Z" transform="translate(-31.5 -190.97168)" fill="#f2f2f2"/><rect x="938.30231" y="473.30432" width="19.30707" height="43.44092" fill="#ccc"/><polygon points="917.616 485.716 917.616 478.821 909.342 478.821 909.342 485.716 916.927 485.716 917.616 485.716" fill="#3f3d56"/><polygon points="916.927 491.232 909.342 491.232 909.342 498.128 917.616 498.128 917.616 491.232 916.927 491.232" fill="#3f3d56"/><rect x="923.13245" y="478.82062" width="8.27448" height="6.89539" fill="#3f3d56"/><rect x="923.13245" y="491.2323" width="8.27448" height="6.89539" fill="#3f3d56"/><polygon points="974.158 485.716 974.158 478.821 965.884 478.821 965.884 485.716 973.469 485.716 974.158 485.716" fill="#3f3d56"/><polygon points="973.469 491.232 965.884 491.232 965.884 498.128 974.158 498.128 974.158 491.232 973.469 491.232" fill="#3f3d56"/><rect x="979.67456" y="478.82062" width="8.27448" height="6.89539" fill="#3f3d56"/><rect x="979.67456" y="491.2323" width="8.27448" height="6.89539" fill="#3f3d56"/><polygon points="1032.079 347.808 1032.079 340.913 1023.805 340.913 1023.805 347.808 1031.39 347.808 1032.079 347.808" fill="#3f3d56"/><polygon points="1031.39 353.325 1023.805 353.325 1023.805 360.22 1032.079 360.22 1032.079 353.325 1031.39 353.325" fill="#3f3d56"/><rect x="1037.59583" y="340.91302" width="8.27441" height="6.89539" fill="#3f3d56"/><rect x="1037.59583" y="353.32468" width="8.27441" height="6.89539" fill="#3f3d56"/><polygon points="1032.079 386.423 1032.079 379.527 1023.805 379.527 1023.805 386.423 1031.39 386.423 1032.079 386.423" fill="#3f3d56"/><polygon points="1031.39 391.939 1023.805 391.939 1023.805 398.834 1032.079 398.834 1032.079 391.939 1031.39 391.939" fill="#3f3d56"/><rect x="1037.59583" y="379.52713" width="8.27441" height="6.89539" fill="#3f3d56"/><rect x="1037.59583" y="391.93881" width="8.27441" height="6.89539" fill="#3f3d56"/><polygon points="1032.079 425.037 1032.079 418.141 1023.805 418.141 1023.805 425.037 1031.39 425.037 1032.079 425.037" fill="#3f3d56"/><polygon points="1031.39 430.553 1023.805 430.553 1023.805 437.448 1032.079 437.448 1032.079 430.553 1031.39 430.553" fill="#3f3d56"/><rect x="1037.59583" y="418.14127" width="8.27441" height="6.89539" fill="#3f3d56"/><rect x="1037.59583" y="430.55295" width="8.27441" height="6.89539" fill="#3f3d56"/><polygon points="1032.079 463.651 1032.079 456.755 1023.805 456.755 1023.805 463.651 1031.39 463.651 1032.079 463.651" fill="#3f3d56"/><polygon points="1031.39 469.167 1023.805 469.167 1023.805 476.062 1032.079 476.062 1032.079 469.167 1031.39 469.167" fill="#3f3d56"/><rect x="1037.59583" y="456.7554" width="8.27441" height="6.89539" fill="#3f3d56"/><rect x="1037.59583" y="469.16708" width="8.27441" height="6.89539" fill="#3f3d56"/><rect x="909.34174" y="347.80838" width="79.98639" height="16.54892" fill="#3f3d56"/><rect x="909.34174" y="380.90622" width="79.98639" height="16.54892" fill="#3f3d56"/><rect x="909.34174" y="414.00403" width="79.98639" height="16.54892" fill="#3f3d56"/><rect x="909.34174" y="447.10187" width="79.98639" height="16.54892" fill="#3f3d56"/><rect y="516.05664" width="1137" height="2" fill="#3f3d56"/><rect x="252" y="437.05664" width="2" height="79" fill="#3f3d56"/><path d="M303.95773,638.096c.12732,27.62433-19.30786,50.10834-19.30786,50.10834S259.76059,665.422,264.881,638.2761c5.14959-27.3009,21.199-49.99243,19.30786-50.10834C284.18881,588.16776,303.83041,610.47162,303.95773,638.096Z" transform="translate(-31.5 -190.97168)" fill="#6c63ff"/><rect x="452" y="437.05664" width="2" height="79" fill="#3f3d56"/><path d="M503.95773,638.096c1.80276,27.56574-19.30786,50.10837-19.30786,50.10837s-19.6416-22.3039-19.76892-49.92823,19.30786-50.10836,19.30786-50.10836C482.294,595.74009,502.49908,615.79209,503.95773,638.096Z" transform="translate(-31.5 -190.97168)" fill="#6c63ff"/><rect x="851" y="437.05664" width="2" height="79" fill="#3f3d56"/><path d="M902.9577,638.096c.12732,27.62433-19.30786,50.10834-19.30786,50.10834s-19.6416-22.3039-19.76892-49.92823,19.30786-50.10833,19.30786-50.10833S902.83038,610.47162,902.9577,638.096Z" transform="translate(-31.5 -190.97168)" fill="#6c63ff"/><ellipse cx="587.5" cy="163.5" rx="38" ry="8.55" fill="#6c63ff"/><path d="M662,234.97168c0,24.30054-44,93-44,93s-44-68.69946-44-93a44,44,0,0,1,88,0Z" transform="translate(-31.5 -190.97168)" fill="#6c63ff"/><circle cx="586.5" cy="44" r="25" fill="#f2f2f2"/><polygon points="324.062 308.64 410.936 304.391 447.379 334.81 440.936 340.627 383.228 339.328 324.062 308.64" fill="#3f3d56"/><polygon points="114.062 423.64 200.936 419.391 237.379 449.81 230.936 455.627 173.228 454.328 114.062 423.64" fill="#3f3d56"/><polygon points="514.062 423.64 600.936 419.391 637.379 449.81 630.936 455.627 573.228 454.328 514.062 423.64" fill="#3f3d56"/><polygon points="727.062 308.64 813.936 304.391 850.379 334.81 843.936 340.627 786.228 339.328 727.062 308.64" fill="#3f3d56"/><polygon points="949.062 308.64 1035.936 304.391 1072.379 334.81 1065.936 340.627 1008.228 339.328 949.062 308.64" fill="#3f3d56"/></svg>