<svg id="bb0a85c3-2a90-4fa3-9a82-29d5c391561c" data-name="Layer 1" xmlns="http://www.w3.org/2000/svg" width="1036" height="569.97133" viewBox="0 0 1036 569.97133"><title>books</title><circle cx="549.41125" cy="255.85888" r="158.76957" fill="#6c63ff" opacity="0.3"/><path d="M275.03638,460.85116c0,105.97579-85.91829,191.89415-191.89415,191.89415V268.957C189.11809,268.957,275.03638,354.87529,275.03638,460.85116Z" transform="translate(-82 -165.01433)" fill="#3f3d56"/><path d="M924.96362,460.85116c0,105.97579,85.91829,191.89415,191.89415,191.89415V268.957C1010.88191,268.957,924.96362,354.87529,924.96362,460.85116Z" transform="translate(-82 -165.01433)" fill="#3f3d56"/><path d="M269.23657,245.89659a13.70673,13.70673,0,1,1,13.70672-13.70673A13.72244,13.72244,0,0,1,269.23657,245.89659Zm0-25.129a11.42227,11.42227,0,1,0,11.42227,11.42227A11.435,11.435,0,0,0,269.23657,220.76759Z" transform="translate(-82 -165.01433)" fill="#3f3d56"/><path d="M878.989,601.46031H856.4401V578.91144H878.989Zm-20.81434-1.73453h19.07982V580.646H858.17463Z" transform="translate(-82 -165.01433)" fill="#3f3d56"/><path d="M341.73544,580.99169l-15.38019-16.48943,16.48943-15.3802,15.38019,16.48944Zm-12.92868-16.40411,13.014,13.9526,13.95259-13.014-13.014-13.9526Z" transform="translate(-82 -165.01433)" fill="#3f3d56"/><path d="M82,165.01433V734.98567H1118V165.01433ZM1115.71555,732.70121H84.28445V167.29879h1031.4311Z" transform="translate(-82 -165.01433)" fill="#3f3d56"/><path d="M856.89787,734.41455q-37.04832-5.79987-71.24294-9.86652l8.77843-17.55692c-3.047-1.01568-16.25092,9.14115-16.25092,9.14115L789.355,665.34811c-15.23525,2.03136-22.345,53.8312-22.345,53.8312L749.74331,701.9127l8.49959,19.549c-69.7584-7.32985-129.95337-9.61731-180.55371-9.09267l7.51347-15.02689c-3.047-1.01568-16.25092,9.14115-16.25092,9.14115l11.17251-50.78415c-15.23525,2.03137-22.345,53.8312-22.345,53.8312l-17.26661-17.26661,9.00241,20.70557a1013.49859,1013.49859,0,0,0-103.6226,8.34474c7.49729-23.35644,33.67921-45.80908,33.67921-45.80908-20.1314,6.26309-30.6047,16.46666-36.02556,25.9249a407.85873,407.85873,0,0,1,21.806-141.20492s-40.62732,91.41147-34.53322,152.35245l.77323,10.82523c-35.34514,5.51391-53.08091,11.01195-53.08091,11.01195Z" transform="translate(-82 -165.01433)" fill="#3f3d56"/><path d="M514.61983,719.18217c-.31495.10837.32419,0,0,0Z" transform="translate(-82 -165.01433)" fill="#3f3d56"/><path d="M804.164,671.24439v-4.79378H513.66107c-4.76557,0-8.6288,12.019-8.6288,26.84516s4.822,25.8864,9.58756,25.8864H804.164v-4.79378H514.61983v-3.835H796.494v-1.91751H514.61983v-.95876H793.61769v-2.87626H514.61983v-1.91752h276.1216v-2.87626H514.61983v-1.91751H788.82391v-2.87627H514.61983v-1.91751H785.94765V690.4195H514.61983V688.502H787.86516v-2.87627H514.61983v-1.91751H789.78267V680.832H514.61983v-1.91751H796.494v-2.87627H514.61983v-4.79378Z" transform="translate(-82 -165.01433)" fill="#3f3d56"/><path d="M746.68913,669.32688c.31494.10837-.32419,0,0,0Z" transform="translate(-82 -165.01433)" fill="#3f3d56"/><path d="M457.145,621.3891v-4.79378H747.64789c4.76557,0,8.6288,12.019,8.6288,26.84516s-4.822,25.8864-9.58756,25.8864H457.145V664.5331H746.68913v-3.835H464.815v-1.91751H746.68913v-.95876H467.69127v-2.87626H746.68913V653.028H470.56753v-2.87627h276.1216v-1.91751H472.485V645.358H746.68913v-1.91751H475.36131v-2.87627H746.68913V638.6467H473.4438v-2.87626H746.68913v-1.91752H471.52629v-2.87626H746.68913v-1.91751H464.815v-2.87627H746.68913V621.3891Z" transform="translate(-82 -165.01433)" fill="#3f3d56"/><polygon points="484.209 53.873 378.496 182.137 534.951 366.782 639.254 244.156 484.209 53.873" fill="#6c63ff"/><polygon points="484.209 53.873 378.496 182.137 534.951 366.782 639.254 244.156 484.209 53.873" opacity="0.1"/><path d="M464.72488,348.56133h0a53.131,53.131,0,0,1,8.61915-11.50844l97.09358-98.43281s33.82808-5.638,40.8756,11.276L487.27693,351.38033Z" transform="translate(-82 -165.01433)" fill="#f2f2f2"/><path d="M459.79162,346.44707,603.561,566.32957s14.095,9.86653,28.19006,4.22851l147.29309-99.37L622.58924,234.39156,481.63892,344.33282Z" transform="translate(-82 -165.01433)" fill="#6c63ff"/><rect x="505.02514" y="300.90544" width="111.09199" height="2.28426" transform="translate(-152.91622 218.86506) rotate(-35.7003)" fill="#3f3d56"/><rect x="570.70507" y="340.62133" width="2.28442" height="214.62012" transform="translate(-234.21904 224.78099) rotate(-33.48132)" fill="#3f3d56"/><rect x="633.58092" y="506.69279" width="118.96652" height="2.285" transform="translate(-248.13998 344.50595) rotate(-36.34406)" fill="#3f3d56"/><rect x="681.35174" y="253.21166" width="2.28364" height="214.66085" transform="translate(-165.6397 289.48461) rotate(-34.83794)" fill="#3f3d56"/><rect x="453.25559" y="288.21875" width="151.38646" height="1.4087" transform="translate(-138.11364 268.70285) rotate(-42.54484)" fill="#3f3d56"/><rect x="457.96751" y="289.37736" width="155.49191" height="1.41013" transform="translate(-139.87419 262.14628) rotate(-41.43847)" fill="#3f3d56"/><rect x="462.00356" y="290.42031" width="157.53272" height="1.41026" transform="translate(-143.01969 248.73002) rotate(-39.81273)" fill="#3f3d56"/><path d="M1080.3065,460.85116c-6.48742-2.40493-14.53662-6.512-19.52606-10.86231l3.51655,9.72008h-62.80416v2.28445h62.80423l-3.51662,9.72232C1065.76988,467.36542,1073.81908,463.25831,1080.3065,460.85116Z" transform="translate(-82 -165.01433)" fill="#fff"/><path d="M199.64939,459.70893H136.84517l3.51661-9.72232c-4.98943,4.35028-13.03863,8.45739-19.52606,10.86455,6.48743,2.40492,14.53663,6.512,19.52606,10.86231l-3.51654-9.72009h62.80415Z" transform="translate(-82 -165.01433)" fill="#fff"/></svg>