<svg id="ef25a8e4-bfc0-4b6f-8ed1-d3751e0db2dc" data-name="Layer 1" xmlns="http://www.w3.org/2000/svg" width="751.13137" height="669.03005" viewBox="0 0 751.13137 669.03005"><path d="M310.59228,784.515l-.65358-.24265a80.52865,80.52865,0,0,1-47.43556-48.31349,78.132,78.132,0,0,1-4.05945-19.17339l-.05334-.6239.616.11026c7.35355,1.31976,15.07319,2.049,18.51269,2.33433l-19.29642-12.76856.03484-.6634a15.27247,15.27247,0,0,1,10.26117-13.69776,15.53412,15.53412,0,0,1,16.90366,4.1538c1.91842,2.0821,3.94658,4.17807,5.90768,6.20541,6.73965,6.96548,13.70881,14.168,18.1155,22.67089a48.67528,48.67528,0,0,1,.979,41.8905Z" transform="translate(-224.43432 -115.48498)" fill="#f2f2f2"/><path d="M701.02931,772.14215l-.00784-.06907a205.07664,205.07664,0,0,0-10.32566-55.65175l-.00553-.02977a11.66557,11.66557,0,0,1,.29613-5.55048,10.95969,10.95969,0,0,1,12.21852-7.42586,23.516,23.516,0,0,0,16.10792-2.7503,11.45969,11.45969,0,0,1,10.14394-.67137,10.6219,10.6219,0,0,1,6.27806,7.19121c.06538.256.12279.51455.1716.77764a163.53215,163.53215,0,0,0,10.32808,55.70494l.00427.023a11.68257,11.68257,0,0,1-2.988,10.19568,10.84959,10.84959,0,0,1-8.68892,3.19238c-5.79427-.39491-11.75361.78032-18.21829,3.59477a10.52588,10.52588,0,0,1-7.17352.50362A11.58963,11.58963,0,0,1,701.02931,772.14215Z" transform="translate(-224.43432 -115.48498)" fill="#6c63ff"/><path d="M515.80666,511.98457V760.68492H690.0375V511.98457a8.36122,8.36122,0,0,0-5.89256-8.00223,7.69865,7.69865,0,0,0-2.49759-.38792H524.22108A8.39818,8.39818,0,0,0,515.80666,511.98457Zm67.99486,85.45435a18.6,18.6,0,0,1,37.19842,0v28.85667a18.59942,18.59942,0,0,1-37.19842,0Z" transform="translate(-224.43432 -115.48498)" fill="#f2f2f2"/><path d="M515.27325,752.73124v23.98255a4.71944,4.71944,0,0,0,4.68008,4.70436H685.891a4.70365,4.70365,0,0,0,4.68009-4.70436V752.73124Z" transform="translate(-224.43432 -115.48498)" fill="#e6e6e6"/><path d="M241.71726,137.28518V591.3766a21.84163,21.84163,0,0,0,21.82433,21.82433H936.45841a21.84153,21.84153,0,0,0,21.82433-21.82433V137.28518a21.85213,21.85213,0,0,0-21.82433-21.8002H263.54159A21.85223,21.85223,0,0,0,241.71726,137.28518Z" transform="translate(-224.43432 -115.48498)" fill="#e6e6e6"/><path d="M930.84473,131.247H269.15527a11.68926,11.68926,0,0,0-11.66381,11.68817v442.8399a11.684,11.684,0,0,0,11.66381,11.66388H930.84473a11.684,11.684,0,0,0,11.66381-11.66388V142.93515A11.68926,11.68926,0,0,0,930.84473,131.247ZM763.93115,445.865a11.58961,11.58961,0,0,1-10.36816,6.356l-.06934-.00489q-9.51489-1.3256-19.10022-1.74823a11.53051,11.53051,0,0,1,2.58655,2.55829,10.84959,10.84959,0,0,1,1.55371,9.12549c-1.44531,5.625-1.37695,11.69873.21094,18.56836a10.52592,10.52592,0,0,1-.81348,7.145,11.58961,11.58961,0,0,1-10.36816,6.356l-.06934-.00489a205.07389,205.07389,0,0,0-45.72522-1.2182c-.0603.38434-.13586.76935-.23474,1.15375-1.44531,5.625-1.37695,11.69873.21094,18.56836a10.52592,10.52592,0,0,1-.81348,7.145,11.58961,11.58961,0,0,1-10.36816,6.356l-.06934-.00489a205.0637,205.0637,0,0,0-46.95532-1.10583,43.72374,43.72374,0,0,0,1.2063,11.60974,10.52592,10.52592,0,0,1-.81348,7.145,11.58961,11.58961,0,0,1-10.36816,6.356l-.06934-.00489a205.07635,205.07635,0,0,0-56.60156,0h-.03027a11.66551,11.66551,0,0,1-5.40332-1.30371,10.95969,10.95969,0,0,1-5.07227-13.36816,28.33951,28.33951,0,0,0,1.25964-4.9375,205.07088,205.07088,0,0,0-51.75378.60937h-.03027a11.66551,11.66551,0,0,1-5.40332-1.30371,10.95969,10.95969,0,0,1-5.07227-13.36816,23.516,23.516,0,0,0,.23438-16.33936,11.45605,11.45605,0,0,1-.00061-7.684,205.07123,205.07123,0,0,0-38.72791,1.69519h-.03027a11.66551,11.66551,0,0,1-5.40332-1.30371,10.95969,10.95969,0,0,1-5.07227-13.36816,23.516,23.516,0,0,0,.23438-16.33936,11.45966,11.45966,0,0,1,1.19043-10.09619,10.62187,10.62187,0,0,1,8.21582-4.86084c.26367-.01758.52832-.02685.79589-.02685a165.15374,165.15374,0,0,0,19.86939,2.2445,10.99883,10.99883,0,0,1-4.30591-12.92126,23.516,23.516,0,0,0,.23438-16.33936,11.45966,11.45966,0,0,1,1.19043-10.09619c.08435-.129.18261-.24359.27148-.3681q-7.11181.49053-14.19043,1.47552h-.03027a11.66551,11.66551,0,0,1-5.40332-1.30371,10.95969,10.95969,0,0,1-5.07227-13.36816,23.516,23.516,0,0,0,.23438-16.33936,11.45966,11.45966,0,0,1,1.19043-10.09619,10.62187,10.62187,0,0,1,8.21582-4.86084c.26367-.01758.52832-.02685.79589-.02685a164.79932,164.79932,0,0,0,23.91382,2.40741,11.156,11.156,0,0,1-1.35034-10.08417,23.516,23.516,0,0,0,.23438-16.33936,11.45966,11.45966,0,0,1,1.19043-10.09619,10.62187,10.62187,0,0,1,8.21582-4.86084c.26367-.01758.52832-.02685.79589-.02685a165.12491,165.12491,0,0,0,20.22,2.26367,11.17781,11.17781,0,0,1-.65649-8.94043,23.516,23.516,0,0,0,.23438-16.33936,11.45966,11.45966,0,0,1,1.19043-10.09619,10.62187,10.62187,0,0,1,8.21582-4.86084c.26367-.01758.52832-.02685.79589-.02685a164.81144,164.81144,0,0,0,23.81177,2.40405,11.18809,11.18809,0,0,1-.24829-8.08081,23.516,23.516,0,0,0,.23438-16.33936,11.45966,11.45966,0,0,1,1.19043-10.09619,10.62187,10.62187,0,0,1,8.21582-4.86084c.26367-.01758.52832-.02685.79589-.02685a163.53251,163.53251,0,0,0,56.6543.00732h.02344a10.86414,10.86414,0,0,0,4.38476,0h.02344a163.53251,163.53251,0,0,0,56.6543-.00732c.26758,0,.53222.00927.7959.02685a10.62189,10.62189,0,0,1,8.21582,4.86084,11.45969,11.45969,0,0,1,1.19043,10.09619,23.516,23.516,0,0,0,.23437,16.33936,11.18809,11.18809,0,0,1-.24829,8.08081,164.81144,164.81144,0,0,0,23.81177-2.40405c.26758,0,.53222.00927.7959.02685a10.62189,10.62189,0,0,1,8.21582,4.86084,11.45969,11.45969,0,0,1,1.19043,10.09619,23.516,23.516,0,0,0,.23437,16.33936,11.17781,11.17781,0,0,1-.65649,8.94043,165.12469,165.12469,0,0,0,20.22-2.26367c.26758,0,.53222.00927.7959.02685a10.62189,10.62189,0,0,1,8.21582,4.86084,11.45969,11.45969,0,0,1,1.19043,10.09619,23.516,23.516,0,0,0,.23437,16.33936,11.1558,11.1558,0,0,1-1.3645,10.10559,11.51981,11.51981,0,0,1,2.345,2.37634,10.84959,10.84959,0,0,1,1.55371,9.12549c-1.44531,5.625-1.37695,11.69873.21094,18.56836a10.52592,10.52592,0,0,1-.81348,7.145,11.753,11.753,0,0,1-1.46252,2.20447q7.02155-.61707,14.00842-1.84119h.02344a11.68257,11.68257,0,0,1,9.47949,4.79785,10.84959,10.84959,0,0,1,1.55371,9.12549c-1.44531,5.625-1.37695,11.69873.21094,18.56836A10.52592,10.52592,0,0,1,763.93115,445.865Z" transform="translate(-224.43432 -115.48498)" fill="#fff"/><path d="M909.38293,192.2502H290.2428a2.46274,2.46274,0,0,1,0-4.92428H909.38293a2.46274,2.46274,0,0,1,0,4.92428Z" transform="translate(-224.43432 -115.48498)" fill="#e6e6e6"/><ellipse cx="107.95416" cy="44.51883" rx="14.42934" ry="14.75091" fill="#3f3d56"/><ellipse cx="157.80098" cy="44.51883" rx="14.42934" ry="14.75091" fill="#3f3d56"/><ellipse cx="207.6478" cy="44.51883" rx="14.42934" ry="14.75091" fill="#3f3d56"/><path d="M879.36687,148.90052H843.963a2.68027,2.68027,0,0,0,0,5.35914h35.40385a2.67982,2.67982,0,0,0,0-5.35914Z" transform="translate(-224.43432 -115.48498)" fill="#3f3d56"/><path d="M879.36687,158.964H843.963a2.68019,2.68019,0,0,0,0,5.359h35.40385a2.67974,2.67974,0,0,0,0-5.359Z" transform="translate(-224.43432 -115.48498)" fill="#3f3d56"/><path d="M879.36687,169.02737H843.963a2.68027,2.68027,0,0,0,0,5.35914h35.40385a2.67982,2.67982,0,0,0,0-5.35914Z" transform="translate(-224.43432 -115.48498)" fill="#3f3d56"/><path d="M607.2929,538.42492l-.06934-.00488a205.07635,205.07635,0,0,0-56.60156,0h-.03028a11.66557,11.66557,0,0,1-5.40332-1.30371,10.9597,10.9597,0,0,1-5.07226-13.36816,23.516,23.516,0,0,0,.23437-16.33936,11.45969,11.45969,0,0,1,1.19043-10.09619,10.62189,10.62189,0,0,1,8.21582-4.86084c.26367-.01758.52832-.02686.7959-.02686a163.53226,163.53226,0,0,0,56.6543.00733h.02344a11.68259,11.68259,0,0,1,9.47949,4.79785,10.84963,10.84963,0,0,1,1.55371,9.12549c-1.44531,5.625-1.37695,11.69873.21094,18.56836a10.52592,10.52592,0,0,1-.81348,7.145A11.5896,11.5896,0,0,1,607.2929,538.42492Z" transform="translate(-224.43432 -115.48498)" fill="#6c63ff"/><path d="M665.03575,440.37813l-15.10557-12.50042c-11.32771,5.9374-28.56433,29.64164-28.56433,29.64164L581.602,486.118a8.65642,8.65642,0,1,0,8.11854,12.5887l54.02758-28.54995Z" transform="translate(-224.43432 -115.48498)" fill="#ffb8b8"/><path d="M690.52081,392.80184l0,0a20.6868,20.6868,0,0,1-.32019,31.83813l-9.6059,7.809S656.634,466.94234,644.162,470.94408l-32.01912,16.72755-14.43754-14.4755,29.01882-23.64919s13.347-12.62436,14.68341-21.86571c.81842-5.65959,10.39705-21.07627,19.99784-32.51084A20.63385,20.63385,0,0,1,690.52081,392.80184Z" transform="translate(-224.43432 -115.48498)" fill="#3f3d56"/><polygon points="435.043 651.672 421.396 651.671 414.904 599.031 435.046 599.032 435.043 651.672" fill="#ffb6b6"/><path d="M659.95794,781.39343l-41.96673-.00158v-.53074a16.33552,16.33552,0,0,1,16.33462-16.33437h.001l7.66576-5.81564,14.30262,5.81653,3.66342.00013Z" transform="translate(-224.43432 -115.48498)" fill="#2f2e41"/><polygon points="539.027 579.842 532.564 591.861 483.126 572.653 492.665 554.913 539.027 579.842" fill="#ffb6b6"/><path d="M776.22825,701.64472l-19.874,36.96258-.46746-.25132a16.33552,16.33552,0,0,1-6.652-22.122l.00048-.00089-1.49231-9.50572,11.8958-9.8431,1.73486-3.2266Z" transform="translate(-224.43432 -115.48498)" fill="#2f2e41"/><path d="M633.67562,526.09537l-12.04495,96.35957,6.02248,32.30559,108.40452,47.49218,6.02247-19.573c-27.70957-16.95575-57.33085-42.61706-75.995-44.5035,0,0-1.54814-17.10033,11.823-27.65365,2.69757-2.12909,2.10748-5.00982,3.19848-7.62082.7504-1.79586,3.73454-3.66574,4.49909-5.50827.99055-2.38717-.2353-4.75934.76069-7.18523.56-1.364,2.68271-1.44963,3.23931-2.81477.94942-2.32855.32773-5.93392,1.25285-8.23469,1.97656-4.91573,3.87687-9.723,5.612-14.22963,5.40105-14.02768,9.202-25.14157,8.722-27.54161C703.68687,529.85941,633.67562,526.09537,633.67562,526.09537Z" transform="translate(-224.43432 -115.48498)" fill="#2f2e41"/><path d="M631.601,622.17634l-6.30135,40.69319,15.90411,83.04611h21.07866c7.57275-27.90393,7.96331-64.57838.75281-95.60676Z" transform="translate(-224.43432 -115.48498)" fill="#2f2e41"/><path d="M645.14343,408.36338l9.71705-16.93222,10.43312-8.36953,19.573-3.01124,5.43788,4.18132,0,0a139.02434,139.02434,0,0,1,20.37826,101.35832l-1.5276,8.27393-.96964,5.25188.42006,6.27755-3.26643,9.13921.44935,6.69214.24,3.57443.24086,3.58708.33621,5.00714c.60178,2.85772-2.42861,2.48091-2,5,.75268,4.42374,4.12844,10.97887-1,11l-53-11c-13.46438.05546-26-16-13-29Z" transform="translate(-224.43432 -115.48498)" fill="#3f3d56"/><circle cx="445.51733" cy="234.11192" r="25.73653" fill="#ffb8b8"/><path d="M670.38758,374.60237a66.13586,66.13586,0,0,0,11.25058-.78625c3.68824-.75,11.93921-6.79637,14.2393-10.4348h0c1.70887-2.70331,2.80163-6.92473,3.41756-9.98981a29.56442,29.56442,0,0,0-5.17072-23.47033,9.34039,9.34039,0,0,0-3.77265-3.21994c-.13515-.05285-.27422-.09968-.41475-.13971a11.52432,11.52432,0,0,1-5.73276-3.54733,9.50549,9.50549,0,0,0-.953-.98081,14.19552,14.19552,0,0,0-5.92254-2.97384c-3.52065-.94225-8.61581-.00694-15.14362,2.78264-3.27959,1.40154-6.86628.89432-9.62547.2958a.90281.90281,0,0,0-.85.29122,6.37327,6.37327,0,0,1-4.33162,1.72669c-.98624.04331-2.02094,1.40885-3.27162,3.18955-.28378.40422-.61493.876-.85378,1.16292l-.03207-.55127-.55779.615a7.73386,7.73386,0,0,0,3.49164,12.60005,15.08245,15.08245,0,0,0,3.03345.4834c.62084.05586,1.263.11363,1.87844.22041a11.66017,11.66017,0,0,1,8.66475,7.56659,3.04933,3.04933,0,0,0,4.60253,1.48045,5.03821,5.03821,0,0,1,4.59086-.836,3.34465,3.34465,0,0,1,1.47834,1.67688,4.35854,4.35854,0,0,0,1.65389,1.92956c2.49937,1.28862,2.67163,6.99725,1.774,11.75609-.86526,4.58709-2.57571,7.90545-4.15939,8.06949-1.21919.12612-1.3586.21273-1.44687.42835l-.07885.193.13695.18056A4.97987,4.97987,0,0,0,670.38758,374.60237Z" transform="translate(-224.43432 -115.48498)" fill="#2f2e41"/><path d="M618.2929,359.42492l-.06934-.00488a205.07635,205.07635,0,0,0-56.60156,0h-.03028a11.66557,11.66557,0,0,1-5.40332-1.30371,10.9597,10.9597,0,0,1-5.07226-13.36816,23.516,23.516,0,0,0,.23437-16.33936,11.45969,11.45969,0,0,1,1.19043-10.09619,10.62189,10.62189,0,0,1,8.21582-4.86084c.26367-.01758.52832-.02686.7959-.02686a163.53226,163.53226,0,0,0,56.6543.00733h.02344a11.68259,11.68259,0,0,1,9.47949,4.79785,10.84963,10.84963,0,0,1,1.55371,9.12549c-1.44531,5.625-1.37695,11.69873.21094,18.56836a10.52592,10.52592,0,0,1-.81348,7.145A11.5896,11.5896,0,0,1,618.2929,359.42492Z" transform="translate(-224.43432 -115.48498)" fill="#6c63ff"/><path d="M642.36,420.04086,653.00953,403.578C645.78905,393.02173,620.233,378.6733,620.233,378.6733l-33.04956-36.14939a8.65642,8.65642,0,1,0-11.55371,9.534l34.668,50.32105Z" transform="translate(-224.43432 -115.48498)" fill="#ffb8b8"/><path d="M692.58851,439.79152l0,0a20.68681,20.68681,0,0,1-31.65741,3.40261l-8.878-8.62752s-37.21493-19.43216-42.64673-31.351L585.022,368.62889l16.34983-14.74943,28.41851,25.834s13.08417,15.13009,22.41836,15.37735c5.71645.15144,22.14687,7.86284,34.625,16.0616A20.63385,20.63385,0,0,1,692.58851,439.79152Z" transform="translate(-224.43432 -115.48498)" fill="#3f3d56"/><path d="M444.67872,781.24382l-.06933-.00488a205.07643,205.07643,0,0,0-56.60157,0h-.03027a11.66554,11.66554,0,0,1-5.40332-1.30371,10.95971,10.95971,0,0,1-5.07227-13.36817,23.516,23.516,0,0,0,.23438-16.33935,11.45966,11.45966,0,0,1,1.19043-10.09619,10.62186,10.62186,0,0,1,8.21582-4.86084c.26367-.01758.52832-.02686.7959-.02686a163.53245,163.53245,0,0,0,56.65429.00733h.02344a11.68257,11.68257,0,0,1,9.47949,4.79785,10.84959,10.84959,0,0,1,1.55372,9.12549c-1.44532,5.625-1.377,11.69873.21093,18.56835a10.52585,10.52585,0,0,1-.81347,7.145A11.58962,11.58962,0,0,1,444.67872,781.24382Z" transform="translate(-224.43432 -115.48498)" fill="#6c63ff"/><path d="M460.67872,739.24382l-.06933-.00488a205.07643,205.07643,0,0,0-56.60157,0h-.03027a11.66554,11.66554,0,0,1-5.40332-1.30371,10.95971,10.95971,0,0,1-5.07227-13.36817,23.516,23.516,0,0,0,.23438-16.33935,11.45966,11.45966,0,0,1,1.19043-10.09619,10.62186,10.62186,0,0,1,8.21582-4.86084c.26367-.01758.52832-.02686.7959-.02686a163.53245,163.53245,0,0,0,56.65429.00733h.02344a11.68257,11.68257,0,0,1,9.47949,4.79785,10.84959,10.84959,0,0,1,1.55372,9.12549c-1.44532,5.625-1.377,11.69873.21093,18.56835a10.52585,10.52585,0,0,1-.81347,7.145A11.58962,11.58962,0,0,1,460.67872,739.24382Z" transform="translate(-224.43432 -115.48498)" fill="#6c63ff"/><path d="M320.66587,750.69334l.04289-.05469A205.07666,205.07666,0,0,0,352.42382,703.757l.017-.02508a11.66553,11.66553,0,0,1,4.10743-3.74494,10.95971,10.95971,0,0,1,13.91462,3.28924A23.516,23.516,0,0,0,383.865,712.6256a11.45965,11.45965,0,0,1,7.6954,6.64311,10.62191,10.62191,0,0,1-.57738,9.5286c-.13318.22824-.27379.45264-.42372.67427a163.53238,163.53238,0,0,0-31.75067,46.92125l-.01313.01942a11.6826,11.6826,0,0,1-9.2855,5.16329,10.84959,10.84959,0,0,1-8.429-3.82631c-3.84921-4.34892-8.91823-7.69554-15.49791-10.22953a10.52581,10.52581,0,0,1-5.46223-4.67729A11.58958,11.58958,0,0,1,320.66587,750.69334Z" transform="translate(-224.43432 -115.48498)" fill="#6c63ff"/><path d="M974.375,782.769l-748.75.30733a1.19069,1.19069,0,0,1,0-2.38137l748.75-.30733a1.19069,1.19069,0,0,1,0,2.38137Z" transform="translate(-224.43432 -115.48498)" fill="#cacaca"/></svg>