<?xml version="1.0" encoding="UTF-8"?><svg id="a" xmlns="http://www.w3.org/2000/svg" width="985.55679" height="569.28003" viewBox="0 0 985.55679 569.28003"><path d="M721.35922,105.48115c-7.02878,3.94972-18.37232-11.67288-20.94308-4.0312-2.57076,7.64168,3.65553,38.47546,6.86782,45.87041,1.59668,3.6757,3.8537,7.03749,5.42034,10.72609s2.40678,7.92972,1.02198,11.69037c-2.40993,6.54458-10.36342,9.20684-14.30693,14.95906-4.59295,6.69952-2.73791,15.72307-.59077,23.55688,1.8507,6.75223,3.82285,13.56557,7.38533,19.59271,3.56249,6.02714,8.9334,11.27512,15.64468,13.26925,8.54491,2.53896,17.6775-.47839,25.91505-3.88492,7.91976-3.27511,15.75471-6.9879,22.49067-12.28655s12.35637-12.33175,14.71101-20.57217c2.9536-10.33656,.48604-21.6486-4.62791-31.1046-5.11395-9.456-12.67886-17.33375-20.44107-24.77125-13.07317-12.52629-26.98554-24.1766-41.61291-34.84692" fill="#2f2e41"/><path d="M290.89299,247.01698s28.45524-16.68231,36.11824-1.21368c7.663,15.46863,78.45734,200.00361,78.45734,200.00361l-45.6196,8.88261-68.95597-207.67255Z" fill="#6c63ff"/><g><path id="b" d="M502.64591,320.71575c-13.45247-4.08894-22.24702-14.34448-19.64339-22.9053,2.60364-8.56081,15.61798-12.18384,29.0747-8.09164,5.39783,1.56094,10.34336,4.39184,14.42281,8.25591l56.77988,18.04484-9.03585,26.46464-55.01558-20.59872c-5.54164,.94002-11.22782,.53893-16.58256-1.16973Z" fill="#ffb6b6"/><path d="M699.6092,225.95842s34.66953,14.7909,28.97421,35.97021c-5.69532,21.17931-68.91618,92.02991-68.91618,92.02991,0,0-1.61478,19.34922-21.24595,14.9201s-111.50513-36.9287-111.50513-36.9287l12-36,92,29,39.19411-86.29984,29.49895-12.69169Z" fill="#2f2e41"/></g><path d="M228.82988,136.78012l1.34122,1.90969c-5.00067,2.88671-5.73791,10.17005-3.393,15.4549,2.34491,5.28496,6.88369,9.20203,10.80965,13.44774,3.92591,4.2456,7.5054,9.50389,7.14125,15.2773-.4086,6.49282-5.70234,11.8399-6.43958,18.30616-1.06587,9.41509,7.70083,17.67556,7.26562,27.14388-.32864,7.23011-5.88889,13.03909-11.40474,17.72879-4.31673,3.67734-9.01538,7.37225-11.92876,12.11541-.79936,1.30565-1.46553,2.70011-1.95404,4.19236-2.17614,6.73265-.12436,14.06934,2.63798,20.57994,2.75345,6.51071,6.26192,12.87027,7.12352,19.88732,.85265,7.01683-1.79422,15.11738-8.25158,17.99519,12.86143-1.10138,25.41195-5.58682,36.06168-12.87916,.95924-.65727,1.89191-1.33233,2.81564-2.02505,15.0997-11.36923,25.70503-27.79237,35.91064-43.79807,.84382-1.31455,1.67874-2.63798,2.52256-3.95253,2.26494-3.56176,4.53878-7.11463,6.81262-10.6764,6.48398-10.17894,13.04792-20.50903,16.58301-32.03808,3.25091-10.63194,3.8016-21.86792,5.13393-32.90851,.64838-5.40911,1.50109-10.80065,1.66096-16.24543,.25756-8.37594-1.17245-16.78734-4.08583-24.64804-2.85114-7.72756-7.13236-14.93089-12.64821-21.05972-5.64905-6.27965-12.55936-11.3869-20.16256-15.06414-7.36331-3.56176-15.37505-5.77342-23.53777-6.38623-2.73567-.20427-5.46251-.23984-8.18934-.11547-10.7563,.44411-21.3883,3.162-31.72712,6.50171-7.6032,3.67723-14.5135,8.78449-20.16256,15.06414-5.51585,6.12883-9.79707,13.33216-12.64821,21.05972,9.91249-5.29385,21.69026-7.11463,32.71302-4.86742Z" fill="#2f2e41"/><rect x="646.91614" y="330.94995" width="60" height="83" fill="#2f2e41"/><path d="M305.91614,233.94995l-51-20-1.29134,20-44.70866,7-21,95,19,59,142,4-5-20s23-26,9-68l-1.55478-10.68911c-4.06508-27.94742-20.84743-52.43522-45.44518-66.31087l-.00004-.00002Z" fill="#6c63ff"/><path d="M787.41614,235.44995l-71-7-71,81s-20,48,23,64v39.87795l108,3.12205,11-181Z" fill="#e6e6e6"/><polygon points="729.41614 425.44995 761.41614 221.44995 820.41614 238.44995 820.41614 440.5405 729.41614 425.44995" fill="#2f2e41"/><circle cx="738.91614" cy="156.94995" r="51" fill="#ffb6b6"/><circle cx="277.53088" cy="167.75227" r="45.29911" fill="#a0616a"/><path d="M796.408,236.82284c-11.90357,16.9802-17.991,37.96015-17.02472,58.6746-13.49625-6.53776-22.60513-20.35061-25.70538-35.02301-3.10025-14.6724-.73508-30.07837,4.24679-44.22305,.04982-.14145,.09989-.28279,.15021-.42403,7.56424-21.23093,.53568-44.95969-17.73419-58.15748-12.32351-8.90226-23.01152-20.07068-31.21475-32.87273-4.63108-7.22732-8.56733-16.29354-5.1077-24.14924,3.18791-7.23871,11.42341-10.62199,19.00213-12.88576,17.30556-5.16919,35.69289-8.11053,53.45532-4.83962,17.76243,3.27091,34.86164,13.48563,43.25643,29.4772s6.19565,37.81606-7.43012,49.67107c4.29754,1.38948,7.33817,5.94461,6.97316,10.44642s-4.09977,8.50759-8.56502,9.18656c2.91327-.10328,4.63295,3.73365,3.59405,6.45734s-3.71812,4.41556-6.27396,5.81751c-3.6406,1.99696-7.67624,4.08514-7.6918,9.31463-.00624,2.09683,.74139,4.13185,1.96305,5.83605,2.96049,4.12986,7.7403,5.98974,12.34143,7.73586-9.73171,2.86622-17.49191,11.56435-19.23398,21.55868" fill="#2f2e41"/><path d="M192.03102,166.29558c.15987,5.44478,1.01258,10.83632,1.66096,16.24543,1.33233,11.0406,1.88302,22.27657,5.13393,32.90851,3.53509,11.52905,10.09903,21.85914,16.58301,32.03808,2.27384,3.56176,4.54767,7.11463,6.81262,10.6764,.84382,1.31455,1.67874,2.63798,2.52256,3.95253,10.20561,16.0057,20.81094,32.42884,35.91064,43.79807,.92373,.69273,1.8564,1.36778,2.81564,2.02505,10.64972,7.29234,23.20025,11.77778,36.06168,12.87916-6.45736-2.87782-9.10423-10.97836-8.25158-17.99519,.8616-7.01705,4.37007-13.37661,7.12352-19.88732,2.76234-6.5106,4.81413-13.84729,2.63798-20.57994-.48851-1.49225-1.15467-2.88671-1.95404-4.19236-2.91338-4.74316-7.61203-8.43807-11.92876-12.11541-5.51585-4.68971-11.0761-10.49869-11.40474-17.72879-.43522-9.46832-6.48398-6.29743-7.54985-15.71252-.73724-6.46625-9.3618-17.48907-9.7704-23.98188-.36415-5.77342,3.17984-19.73628,7.10574-23.98188,3.92596-4.24571,.31975-16.92048,2.66465-22.20545,2.34491-5.28485,27.93446-.86155,22.93379-3.74825l1.34122-1.90969c11.02276-2.24722,22.80054-.42644,32.71302,4.86742,2.15842,1.14573,4.21903,2.45149,6.17312,3.92596,4.71643-8.61578-.87933-19.54968-8.49136-25.75832-7.45216-6.09327-16.6363-9.61058-25.74943-12.71045-1.57216-.53291-3.15316-1.06582-4.74311-1.58105-10.33881-3.33971-20.97081-6.0576-31.72712-6.50171-2.72684-.12436-5.45367-.0888-8.18934,.11547-8.16272,.61282-16.17447,2.82447-23.53777,6.38623-7.6032,3.67723-14.5135,8.78449-20.16256,15.06414-5.51585,6.12883-9.79707,13.33216-12.64821,21.05972-2.91338,7.86071-4.3434,16.2721-4.08583,24.64804Z" fill="#2f2e41"/><path d="M719.91614,227.94995s-88,83-63,160l3,21-32-5s22-162,44-170,33-17,40-17,8,11,8,11Z" fill="#2f2e41"/><path d="M956.95765,569.28003h-.11621l-928.34131-3.6543c-10.06934-.04004-19.18115-5.21387-24.37451-13.84082-5.19336-8.62793-5.50146-19.10156-.82324-28.01953l67.67871-129.01074c4.95117-9.44043,14.6499-15.30469,25.31006-15.30469H893.81263c10.96533,0,21.0957,6.39746,25.80811,16.29883l63.14111,132.66699c4.24902,8.92871,3.62354,19.24414-1.67285,27.59277-5.2749,8.31641-14.29004,13.27148-24.13135,13.27148Z" fill="#fff"/><path d="M956.95765,569.28003h-.11621l-928.34131-3.6543c-10.06934-.04004-19.18115-5.21387-24.37451-13.84082-5.19336-8.62793-5.50146-19.10156-.82324-28.01953l67.67871-129.01074c4.95117-9.44043,14.6499-15.30469,25.31006-15.30469H893.81263c10.96533,0,21.0957,6.39746,25.80811,16.29883l63.14111,132.66699c4.24902,8.92871,3.62354,19.24414-1.67285,27.59277-5.2749,8.31641-14.29004,13.27148-24.13135,13.27148ZM96.29114,382.44995c-9.5415,0-18.22168,5.24902-22.65381,13.69727L5.95863,525.15991c-4.18652,7.98047-3.91113,17.35547,.7373,25.07715,4.64795,7.72168,12.80371,12.35352,21.81592,12.38867l928.34131,3.6543h.104c8.80908,0,16.87695-4.43457,21.59863-11.87793,4.74072-7.47363,5.30029-16.70605,1.49707-24.69727l-63.14111-132.66699c-4.21777-8.86133-13.28467-14.58789-23.09912-14.58789H96.29114Z" fill="#3f3d56"/><polygon points="283.41614 475.44995 434.41614 420.44995 358.91614 390.08381 208.41614 429.44995 283.41614 475.44995" fill="#f2f2f2"/><polygon points="513.41614 392.44995 496.41614 446.44995 695.41614 458.44995 678.41614 397.44995 513.41614 392.44995" fill="#f2f2f2"/><path id="c" d="M278.8434,401.68695c13.99155,1.38748,24.61695,9.73141,23.73249,18.63557-.88446,8.90417-12.94259,14.99522-26.93894,13.60537-5.59858-.4785-11.00117-2.29078-15.75574-5.28527l-59.20851-6.62746,3.7023-27.71853,57.97604,9.47633c5.25199-2.0025,10.90724-2.71781,16.49237-2.08602Z" fill="#a0616a"/><path d="M219.41614,246.44995l-10.5-5.5s-16.5,.5-27.5,11.5-100,137-100,137c0,0-22,34,33,39s116,5,116,5l5-41-83-9,58.12205-77,8.87795-60Z" fill="#6c63ff"/><g><path id="d" d="M658.64808,423.83703c-14.04114,.73137-25.80001-5.92064-26.26399-14.85659-.46398-8.93595,10.5416-16.77027,24.58784-17.50002,5.6069-.36847,11.22051,.61116,16.37117,2.85696l59.53201-2.34754,.50616,27.96011-58.74175-.65423c-4.89132,2.76918-10.37481,4.32641-15.99144,4.54131Z" fill="#ffb6b6"/><path d="M777.21536,232.94995s36.20079-10.5,45.20079,9.5,60,168,60,168c0,0,11,16-7,25s-163-13-163-13l4.70472-31.5,102.29528-9.5-57-120,14.79921-28.5Z" fill="#2f2e41"/></g><g><g><g><path d="M531.44617,233.12988c-10.09009,2.98999-20.75,4.67993-31.76001,4.84009-.65002,.02002-1.30005,.03003-1.94995,.03003-9.96008,0-19.63013-1.22998-28.88013-3.55005l.23999-2.37012,5.38013-51.88989,.33997-3.32007-4.98999-14.96997h61.21997l-.97998,14.63013-.35999,5.32983,.53003,1.69019,13.5,43.02002,.59998,1.91992c-4.18005,1.79004-8.4801,3.33984-12.89001,4.63989Z" fill="#6c63ff"/><path d="M468.85609,234.44995c-14.52991-3.62988-28.01001-9.94995-39.87988-18.37988-4.89001-2.65015-9.64001-5.52002-14.19006-8.56006l2.25-1.13013,56.53003-28.27002,.91003,2.08008,24.33997,55.80005,.87,1.97998c-.65002,.02002-1.30005,.03003-1.94995,.03003-9.96008,0-19.63013-1.22998-28.88013-3.55005Z" fill="#2f2e41"/><path d="M592.01618,191.53003c-.25,.33984-.51001,.66992-.77002,1-4.22003,5.35986-8.90009,10.33984-13.96002,14.88989l-.03992-2.66992-.14014-9.83008s4.04004-2.94995,9.03009-3.71997c1.19-.18994,2.44-.25,3.70001-.10986,.72998,.06982,1.44995,.20996,2.17999,.43994Z" fill="#2f2e41"/><path d="M577.28614,207.41992c-9.68005,8.72998-20.79993,15.88989-32.94995,21.07007-4.18005,1.79004-8.4801,3.33984-12.89001,4.63989l-.05005-2.07007-1.15991-47.50977-.17004-7.02002,56.07001,14.66992,2.97998,.78003,2.13,.55005c-4.22003,5.35986-8.90009,10.33984-13.96002,14.88989Z" fill="#2f2e41"/><circle cx="501.01286" cy="100.76762" r="44.91004" fill="#a0616a"/></g><path d="M497.73621,0c-65.61011,0-119,53.37988-119,119,0,.71997,.01001,1.43994,.03003,2.15991,.61987-.72998,1.27991-1.44995,1.96997-2.15991C413.73621,85,433.2262,2,497.73621,2c64.52002,0,116.99994,52.47998,116.99994,117,0,27.16992-9.31,52.20996-24.89996,72.09009-.24005,.2998-.47003,.59985-.72003,.88989-3.63995,4.55005-7.60992,8.82007-11.86993,12.77002-9.77002,9.07983-21.09009,16.5-33.51001,21.82007-4,1.72998-8.12012,3.22998-12.34009,4.48975-10.33997,3.12012-21.27002,4.83008-32.57996,4.93018-.35999,.01001-.72009,.01001-1.07996,.01001-9.06006,0-18.77002-1.39014-28.64014-3.92017-13.47998-3.44995-27.2699-9.00977-40.11987-16.00977,11.86987,8.42993,25.34998,14.75,39.87988,18.37988,9.25,2.32007,18.92004,3.55005,28.88013,3.55005,.6499,0,1.29993-.01001,1.94995-.03003,11.01001-.16016,21.66992-1.8501,31.76001-4.84009,4.40991-1.30005,8.70996-2.84985,12.89001-4.63989,12.15002-5.18018,23.2699-12.34009,32.94995-21.07007,5.05994-4.55005,9.73999-9.53003,13.96002-14.88989,.26001-.33008,.52002-.66016,.77002-1,15.5-20.09009,24.71997-45.25,24.71997-72.53003,0-65.62012-53.38007-119-118.99994-119Zm-80.70007,206.37988c-23.04993-21.30005-37.68005-51.57983-38.2699-85.21997-23.53003,27.23999-.15015,62.19995,36.0199,86.3501,4.55005,3.04004,9.30005,5.90991,14.19006,8.56006-4.19006-2.97021-8.18005-6.21021-11.94006-9.69019Zm114.35999,24.67993c-10.33997,3.12012-21.27002,4.83008-32.57996,4.93018l.87,1.97998c11.01001-.16016,21.66992-1.8501,31.76001-4.84009l-.05005-2.07007Z" fill="#e6e6e6"/></g><path d="M460.79008,124.65894c-8.08154-7.62354-13.71655-17.729-8.07767-39.27087,.4198-1.60376-.70526-3.3254-1.7918-4.57746s-3.136-1.83394-4.42547-.79208c.91833-2.7044,13.50267-12.36417,14.421-15.06857-1.07258,1.42283-9.25516,4.47329-9.91099,2.81656s-.08084-3.51829,.49538-5.20437l3.43485-10.05081c.86397-2.52809,4.27206,.49239,5.98077-1.56139,3.06114-3.67932-.43218-7.55778,4.24156-8.58933,15.29628-3.37608,31.51236-6.39233,46.37234-1.43702,6.49104,2.16455,12.39402,5.76055,18.23366,9.32671l10.68545,6.5254c6.12983,3.74336,12.78774,8.18417,14.46698,15.16756l-11.22005-4.00984c2.49926,5.32151,5.02061,10.70897,6.16369,16.47596,1.14308,5.76699-1.94858,27.48149-4.94364,32.54058-2.63123,4.44452-4.49408-7.49203-5.35936-2.40003,.99082-10.00255-3.51172-20.3783-11.49399-26.487-1.63715-1.25288-3.50394-2.45787-4.23206-4.38655-.81205-2.15099,.00219-4.73762-1.10663-6.75174-1.37866-2.50426-4.97876-2.74294-7.66313-1.76002s-5.03102,2.83028-7.81196,3.49238c-7.37249,1.7553-14.0791-5.21537-21.63951-5.73958-7.20222-.49937-13.6448,5.13857-16.63963,11.70761-2.99482,6.56905-11.27918,5.14707-12.05372,12.32492s10.53536,21.3829,6,27" fill="#2f2e41"/><path d="M434.23166,173.41201c-.41127-.52904-1.17354-.62452-1.70258-.21325-.04,.03109-.07801,.06466-.11381,.10051l-1.85039,1.85218c-.86435,.86614-1.18289,2.09198-.8053,3.16749,1.56718,4.45165,4.11648,8.49335,7.45882,11.82531,3.332,3.3423,7.37369,5.89159,11.82531,7.45883,1.07552,.37759,2.30136,.05905,3.1675-.8053l1.85039-1.85039c.47412-.47353,.4746-1.24176,.00107-1.71588-.0358-.03585-.07381-.06941-.11381-.10051l-4.12848-3.21044c-.29416-.22815-.67678-.30863-1.03794-.21832l-3.9191,.97888c-1.06409,.26595-2.18969-.04585-2.96528-.8214l-4.39513-4.39691c-.7762-.77522-1.08869-1.90087-.82319-2.96528l.98067-3.9191c.09031-.36115,.00983-.74377-.21832-1.03794l-3.21044-4.12848Zm-3.1675-1.46206c1.21932-1.21971,3.19654-1.22002,4.41625-.0007,.09202,.09199,.17821,.18965,.25805,.2924l3.21044,4.12669c.58876,.75698,.79635,1.74302,.56371,2.67358l-.97888,3.9191c-.10294,.41288,.01793,.84951,.31854,1.15068l4.39691,4.39691c.30154,.30123,.73903,.42216,1.15247,.31854l3.91731-.97888c.93047-.23265,1.91624-.0248,2.67358,.56371l4.12669,3.21044c1.48353,1.15426,1.61954,3.34645,.2917,4.6725l-1.85039,1.85039c-1.32426,1.32426-3.3035,1.90587-5.14852,1.25626-4.72228-1.66155-9.00987-4.36499-12.54471-7.90979-3.54457-3.53432-6.248-7.82128-7.90979-12.54292-.64782-1.84323-.06621-3.82426,1.25805-5.14852l1.85039-1.85039h-.00179Z" fill="#ccc"/><g><path d="M494.15764,182.582c.49417,0,.89477,.4006,.89477,.89477v1.78955c0,3.95335,3.20483,7.15818,7.15818,7.15818s7.15818-3.20483,7.15818-7.15818v-1.78955c0-.49417,.4006-.89477,.89477-.89477s.89477,.4006,.89477,.89477v1.78955c.00006,4.59524-3.48075,8.44346-8.05295,8.90299v3.62383h5.36864c.49417,0,.89477,.4006,.89477,.89477s-.4006,.89477-.89477,.89477h-12.52682c-.49417,0-.89477-.4006-.89477-.89477s.4006-.89477,.89477-.89477h5.36864v-3.62383c-4.57221-.45952-8.05301-4.30775-8.05295-8.90299v-1.78955c0-.49417,.4006-.89477,.89477-.89477Z" fill="#ccc"/><path d="M505.78968,185.26631c0,1.97668-1.60241,3.57909-3.57909,3.57909s-3.57909-1.60241-3.57909-3.57909v-8.94773c0-1.97668,1.60241-3.57909,3.57909-3.57909s3.57909,1.60241,3.57909,3.57909v8.94773Zm-3.57909-14.31636c-2.96502,0-5.36864,2.40362-5.36864,5.36864v8.94773c0,2.96502,2.40362,5.36864,5.36864,5.36864s5.36864-2.40362,5.36864-5.36864v-8.94773c0-2.96502-2.40362-5.36864-5.36864-5.36864Z" fill="#ccc"/></g><g><path d="M571.36028,185.32978c0,1.0093-.16822,1.98103-.47602,2.88654l-1.45669-1.45669c.09532-.47064,.14328-.94965,.14316-1.42985v-1.78955c0-.49417,.4006-.89477,.89477-.89477s.89477,.4006,.89477,.89477v1.78955Zm-8.94773,7.15818c1.46385,0,2.8239-.43844,3.95847-1.19363l1.28489,1.28668c-1.27746,.92638-2.77826,1.49644-4.3486,1.65175v3.62383h5.36864c.49417,0,.89477,.4006,.89477,.89477s-.4006,.89477-.89477,.89477h-12.52682c-.49417,0-.89477-.4006-.89477-.89477s.4006-.89477,.89477-.89477h5.36864v-3.62383c-4.57221-.45952-8.05301-4.30775-8.05295-8.90299v-1.78955c0-.49417,.4006-.89477,.89477-.89477s.89477,.4006,.89477,.89477v1.78955c0,3.95335,3.20483,7.15818,7.15818,7.15818Zm5.36864-16.10591v8.73119l-1.78955-1.78955v-6.94165c.00875-1.97666-1.58656-3.58615-3.56322-3.59489-1.90688-.00844-3.48552,1.47967-3.58959,3.38373l-1.51217-1.51217c.95553-2.80787,4.00637-4.30949,6.81424-3.35397,2.17428,.73991,3.63738,2.78058,3.64029,5.0773Z" fill="#ccc"/><path d="M565.07182,189.99512l-1.33858-1.33858c-1.83718,.72939-3.9178-.16865-4.6472-2.00583-.1669-.4204-.25261-.86862-.25258-1.32094v-1.57122l-1.78955-1.78955v3.36077c-.00088,2.96502,2.40202,5.36935,5.36704,5.37023,.93314,.00028,1.85024-.24267,2.66086-.70489Zm-14.03004-16.55866l21.47454,21.47454,1.267-1.267-21.47454-21.47454-1.267,1.267Z" fill="#ccc"/></g></g></svg>