<?xml version="1.0" encoding="UTF-8"?><svg id="uuid-010889a4-874a-4cf0-adfa-b2e7762164aa" xmlns="http://www.w3.org/2000/svg" width="892.9103" height="584.15816" viewBox="0 0 892.9103 584.15816"><path d="M887,583.15815H0v-2H887c.55231,0,1,.44769,1,1h0c0,.55231-.44769,1-1,1Z" fill="#3f3d56"/><g><path d="M218.96458,581.15815h-55.5714c-8.30576,0-15.06326-6.75751-15.06326-15.06409v-163.11224c0-8.30658,6.75751-15.06409,15.06326-15.06409h55.57138c8.30576,0,15.06326,6.75751,15.06326,15.06409v163.11224c0,8.30658-6.75751,15.06409-15.06326,15.06409h.00002Z" fill="#3f3d56"/><path d="M763.39844,581.47779h-55.57141c-8.30579,0-15.06329-6.75751-15.06329-15.06409v-163.11224c0-8.30658,6.75751-15.06409,15.06329-15.06409h55.57141c8.30579,0,15.06329,6.75751,15.06329,15.06409v163.11224c0,8.30658-6.75751,15.06409-15.06329,15.06409Z" fill="#3f3d56"/><path d="M232.13882,175.85665l-81.83264,116.22606c-9.87473,14.02499-13.78987,31.39133-10.88821,48.29666l24.8708,144.89944c5.34189,31.12231,32.3273,53.87048,63.90471,53.87048h480.87561c34.271,0,62.62372-26.66998,64.71802-60.87689l9.59796-156.76721c1.14264-18.6626-5.82684-36.90997-19.11963-50.05908l-114.78644-113.54553c-12.59955-12.46333-29.75159-19.2262-47.46661-18.71556l-318.72525,9.18719c-20.42807,.58884-39.38297,10.77419-51.1483,27.48436l-.00002,.00008Z" fill="#6c63ff"/><path d="M244.60387,196.48966l-15.64648,29.25607c-9.97035,18.64275,4.5666,40.65808,26.68477,40.41241l391.72693-4.3512c24.06146-.26727,37.61304-26.20309,23.22253-44.44476l-24.66547-31.26643c-5.68817-7.21043-14.70721-11.38724-24.21686-11.21509l-351.41495,6.36154c-10.89609,.19725-20.77814,6.0623-25.69046,15.24745h-.00002Z" fill="#fff"/><path d="M734.95471,257.54117c-2.53119,0-4.99591-.93863-6.88879-2.65179-2.14478-1.94127-3.37549-4.71449-3.37549-7.60753l.00079-6.43095,1.289-29.63753c.23956-5.50381,4.74158-9.81464,10.25031-9.81464h40.77972c3.79718,0,7.26624,2.08075,9.05402,5.43159l4.85889,9.11066c1.53595,2.88155,1.62207,6.22913,.23633,9.18449-1.3858,2.95702-4.01465,5.0312-7.21124,5.69087l-30.74438,6.36203c-3.17859,.65639-5.68433,3.01118-6.53845,6.14543l-1.81573,6.65741c-1.11096,4.07124-4.6792,7.08897-8.87848,7.50908-.33887,.03445-.67853,.05087-1.0166,.05087h.00012Z" fill="#6c63ff"/><path d="M184.09892,257.4903c-4.19923-.4201-7.76752-3.43784-8.87846-7.50906l-1.81573-6.65741c-.85413-3.13425-3.35988-5.48904-6.53844-6.14543l-30.74435-6.36203c-3.19661-.65967-5.82544-2.73386-7.21123-5.69087-1.3858-2.95538-1.29965-6.30296,.2363-9.18449l4.85892-9.11066c1.78783-3.35086,5.25684-5.43159,9.05405-5.43159h40.77969c5.50873,0,10.01073,4.31082,10.25031,9.81464l1.28899,29.63753,.00082,6.43095c0,2.89304-1.23073,5.66626-3.37547,7.60753-1.89285,1.71318-4.35759,2.65181-6.88878,2.65181-.33804,0-.67772-.01642-1.01659-.05087l-.00002-.00003Z" fill="#6c63ff"/><circle cx="240.74925" cy="344.22854" r="40.32843" fill="#fff"/><circle cx="705.36639" cy="345.06876" r="40.32843" fill="#fff"/></g><g><g><path d="M187.06824,128.77693c3.71371,2.07874,6.87549,5.01631,9.22105,8.5676l26.48096,15.7467,44.99379,21.07445s10.61102-37.72078,23.28824-40.12999c12.67725-2.40921,33.5925,25.54663,33.5925,25.54663,0,0-36.45932,59.03377-52.34125,52.98082-15.88193-6.05296-51.3671-35.44894-51.3671-35.44894l-4.63539-3.76697-29.48273-19.61343c-4.24928-.25842-8.37473-1.53117-12.03136-3.71126-9.22116-5.32684-13.94699-14.40273-10.55602-20.27019,3.39107-5.86797,13.61354-6.30538,22.8373-.97539v-.00003Z" fill="#a0616a"/><path d="M274.76794,145.14933l23.00931-27.08702,13.90085,2.00262c17.05048,2.45637,26.52917,21.05456,18.49759,36.29418l-8.00882,15.1964-47.39893-26.40616v-.00002Z" fill="#e6e6e6"/></g><path d="M199.94759,180.61231l-40.49782-55.82875c-.60059-.82422-.45375-1.97934,.33363-2.62947l9.71497-8.02212c.42125-.34782,.97316-.501,1.5135-.42134,.53947,.08058,1.02499,.38537,1.32948,.84148l40.23752,60.38863c.33162,.49564,.41527,1.10558,.2307,1.67316-.18546,.56851-.61375,1.01241-1.17577,1.21873l-9.4534,3.45996c-.69498,.255-1.47095,.08368-1.99699-.41257-.08568-.08083-.16533-.16989-.23582-.26773v.00002Z" fill="#3f3d56"/><path d="M203.16705,177.19934l-41.91348-54.328c-.62128-.80228-.57834-1.84726,.09718-2.3788l8.33469-6.55887c.3614-.28437,.85921-.38019,1.36501-.26392,.50507,.11704,.9783,.43488,1.29636,.87661l42.03912,58.47874c.34631,.48007,.4726,1.0448,.3476,1.54924-.12573,.5052-.48595,.87691-.9888,1.02054l-8.45934,2.40614c-.62186,.17747-1.35278-.04158-1.87885-.53783-.08568-.08083-.16644-.1687-.23946-.26387l-.00003,.00002Z" fill="#e6e6e6"/><g><polygon points="186.44365 516.90229 168.21967 556.22773 138.48579 542.79956 161.50557 513.06568 186.44365 516.90229" fill="#a0616a"/><path d="M155.75063,543.75873l22.06061-2.87744s15.34651,36.448,3.83662,38.36627-101.67066,10.55072-101.67066-.95917,37.40713-25.89722,37.40713-25.89722l25.89723-18.224,12.46904,9.59155h.00003Z" fill="#2f2e41"/></g><path d="M329.35806,263.68482s26.85641,40.28461-30.69302,65.22269l-61.38606,88.24246-50.83533,110.30304-30.69302-11.50989,53.7128-166.89334,30.69302-74.81427,14.38736-23.01978,74.81425,12.46902v.00006Z" fill="#2f2e41"/><g><g><polygon points="115.95946 412.13217 103.74339 453.7179 72.35236 444.82843 90.72822 412.02079 115.95946 412.13217" fill="#a0616a"/><path d="M89.56951,443.22718l21.3937-6.1041s20.56129,33.78171,9.46096,37.37891c-11.10034,3.5972-98.99741,25.45099-100.69733,14.06732-1.69992-11.38367,33.17208-31.13797,33.17208-31.13797l22.9217-21.84894,13.7489,7.64481s-.00002-.00003-.00002-.00003Z" fill="#2f2e41"/></g><path d="M270.85147,255.6295l-147.41339,31.98976c-11.37442,2.46832-20.19348,11.46121-22.43938,22.88162l-20.63274,104.91776,45.15656,14.6575,20.2803-93.67355,130.87476-5.07062-5.82611-75.70247Z" fill="#2f2e41"/></g><g><polygon points="307.90973 78.36957 289.68222 114.07672 338.17059 121.6205 337.6427 73.61325 307.90973 78.36957" fill="#a0616a"/><circle cx="318.03085" cy="59.26635" r="33.7529" fill="#a0616a"/></g><path d="M339.90878,275.19471l5.5665-90.16887c4.81601-21.58282,3.21228-44.10313-4.61356-64.7857l-1.91208-21.53034-44.12122,2.87747-18.70355,30.21346-17.74442,71.45721-3.83662,47.95786,85.36497,23.97894-.00003-.00003Z" fill="#e6e6e6"/><g><path d="M210.79468,205.42633c4.21434-.59338,8.50925-.16907,12.52596,1.23782l30.61012-3.49568,48.57092-10.46127s-14.38736-36.44797-5.75494-46.03954,42.20291,0,42.20291,0c0,0,6.71411,69.05931-9.59158,73.8551-16.30566,4.79579-62.34521,2.87747-62.34521,2.87747l-5.96991-.19249-35.34012,2.23491c-3.53877,2.36652-7.59294,3.85068-11.8232,4.32886-10.56432,1.3418-19.81985-3.02171-20.67245-9.74472-.85284-6.72346,7.01923-13.2596,17.58751-14.60045v-.00002Z" fill="#a0616a"/><path d="M290.51221,165.37122l1.9183-35.48882,12.27698-6.82054c15.05869-8.36594,33.86151,.70004,36.69354,17.69218l2.82401,16.94392-53.7128,7.67326-.00003-.00002Z" fill="#e6e6e6"/></g><path d="M344.34677,80.01132s3.14743-15.73721-6.29489-16.78636-18.88467-19.9338-18.88467-19.9338c0,0-32.58167-5.68318-33.6308,7.95574-1.04916,13.63892-.64713,10.60766-.64713,10.60766,0,0-7.74606-3.26362-4.59863-16.90254,.89926-3.89683,3.08322-7.45109,5.74432-10.54042,8.55267-9.92895,21.6918-14.61957,34.71021-13.11858,5.51337,.63568,21.9281,5.86844,25.09897,9.43565,8.39319,9.44233,12.14154,38.79118-1.49738,49.28265Z" fill="#3f3d56"/></g><path d="M233.06638,480.15128c-5.92122,0-11.1447-3.09769-13.98677-8.29984-2.8578-5.23135-2.62466-11.33682,.62358-16.33447l.48257,.31348-.48257-.31348,10.52728-16.19626c2.95329-4.5426,7.95094-7.25488,13.36937-7.25488h457.87691c4.66846,0,9.08575,2.03479,12.11938,5.58301l11.55255,13.51205c4.08026,4.77292,4.99261,11.28403,2.38141,16.99399-2.61121,5.70999-8.13354,9.27844-14.4115,9.31329l-479.95673,2.68307h-.0955l.00002,.00003Z" fill="#3f3d56"/><g><g><path id="uuid-77c18d40-1626-490f-94e4-96ff04a7ac73" d="M780.88654,284.62937c8.42322,5.50906,18.09338,5.62848,21.59851,.26733s-.48212-14.1713-8.90906-19.68118c-3.336-2.24716-7.16168-3.66272-11.15692-4.12823l-35.98419-22.89143-10.38232,17.1153,36.57629,20.7498c2.02875,3.47467,4.86035,6.41281,8.25769,8.56845v-.00003Z" fill="#ffb6b6"/><path d="M678.54083,228.21839l88.27875,45.62756,7.67993-21.12032-59.87878-46.90465-3.98645-68.43015c-.48669-8.35655-4.67767-15.93104-11.49792-20.7825-6.81976-4.84951-15.35059-6.32379-23.40448-4.04305h0c-14.33716,4.0616-22.88458,19.08268-19.05292,33.48281l21.86188,82.17026v.00003Z" fill="#e6e6e6"/></g><polygon points="699.86475 105.76818 703.99219 79.97142 676.13171 68.62083 672.00421 107.83192 699.86475 105.76818" fill="#ffb6b6"/><path d="M612.12927,252.55576s-7.99823,49.98892,23.99469,55.98758,104.97675,9.99777,104.97675,9.99777l93.97913,113.97473,18.99579-20.99533-80.98206-124.97229-64.9856-40.99091-95.9787,6.99844Z" fill="#2f2e41"/><path d="M619.76489,244.4634s-18.65271,47.06313,11.27679,59.85973,100.3075,32.53418,100.3075,32.53418l67.01428,131.6488,23.09827-16.37421-51.9408-139.56476-54.54492-54.11313-95.21112-13.99065v.00003Z" fill="#2f2e41"/><path d="M705.1087,101.58924l-35.992-5.99867-24.39404,13.57805c-14.19812,20.65179-15.37164,86.15298-18.7226,110.98952l-19.86938,46.39453,62.98602-8.99799,50.98871-4.99889-16.99622-110.97539,1.99957-39.99113-.00006-.00005v.00002Z" fill="#e6e6e6"/><g><circle cx="692.82416" cy="59.85308" r="28.41107" fill="#ffb6b6"/><path d="M690.5567,21.6564c.82208,.47989,1.92328-.24618,2.18689-1.16087s-.04346-1.88586-.34796-2.78776c-.51099-1.51344-1.02197-3.02687-1.5329-4.54031-1.08716-3.22009-2.24103-6.5527-4.59564-9.00361-3.55383-3.69925-9.20172-4.64032-14.28601-3.95855-6.52917,.87553-12.97119,4.411-16.00708,10.25737-3.03589,5.84637-1.74341,14.00414,3.74225,17.65168-7.81818,8.96096-10.54352,18.94764-10.11322,30.832s13.38135,22.82184,21.82715,31.1939c1.88611-1.14333,3.60077-6.50146,2.5636-8.44795s.44885-4.20156-.83563-5.99449c-1.28455-1.79293-2.35919,1.06195-1.06055-.7208,.81946-1.12494-2.37885-3.71295-1.16077-4.38625,5.89154-3.25664,7.85101-10.6002,11.55133-16.22372,4.4632-6.78301,12.10199-11.37654,20.18585-12.13861,4.45312-.4198,9.15662,.34054,12.80664,2.92581s6.01306,7.2051,5.16669,11.59715c2.19208-2.22575,3.2832-5.48758,2.87164-8.5843s-2.31683-5.96033-5.01416-7.53626c1.64008-5.42366,.23505-11.66246-3.57166-15.85948s-19.24878-3.48219-24.80634-2.3776" fill="#2f2e41"/><path d="M689.69366,42.39307c-7.36078,.79459-12.67542,7.17064-17.16321,13.05891-2.58667,3.39387-5.29614,7.14182-5.2312,11.40854,.06567,4.31377,2.94983,8.01377,4.32825,12.10192,2.25305,6.6822,.05719,14.63248-5.30603,19.21107,5.2995,1.00564,11.02838-2.96791,11.94324-8.28383,1.065-6.18838-3.6261-12.16111-3.0705-18.41584,.48944-5.51049,4.83197-9.75146,8.52374-13.87164,3.69177-4.12018,7.159-9.58756,5.46057-14.85258" fill="#2f2e41"/></g><g><path id="uuid-c21a832d-a462-4839-97cd-151efee93f90" d="M758.30603,289.97312c8.42322,5.50906,18.09338,5.62848,21.59851,.26733s-.48212-14.1713-8.90906-19.68118c-3.336-2.24716-7.16168-3.66272-11.15692-4.12823l-35.98419-22.89143-10.38232,17.11528,36.57629,20.74979c2.02875,3.47467,4.86035,6.41281,8.25769,8.56845Z" fill="#ffb6b6"/><path d="M655.96039,233.56212l88.27875,45.62758,7.67993-21.12033-59.87878-46.90463-3.98645-68.43015c-.48669-8.35655-4.67767-15.93104-11.49792-20.7825-6.81976-4.84951-15.35059-6.32379-23.40448-4.04305h0c-14.33716,4.0616-22.88458,19.08268-19.05292,33.48281l21.86188,82.17026v.00002Z" fill="#e6e6e6"/></g><path d="M801.54376,450.84406l2.04309,1.16748s13.99689-7.99823,20.99536,0,11.99731,27.99377,11.99731,27.99377c0,0,28.99359,23.99469,11.99731,23.99469-12.79413,0-43.15051-14.16315-57.37897-21.16647-4.54199-2.2356-6.65662-7.547-4.89014-12.29114,1.4726-3.95486,3.37714-8.10443,5.28174-9.53284,1.99957-1.49966,3.24927-4.74896,3.99908-7.62332,.67944-2.60449,3.61816-3.87759,5.95514-2.54218h.00006Z" fill="#2f2e41"/><path d="M840.5351,412.85248l2.04309,1.16748s13.99689-7.99823,20.99536,0,11.99731,27.99377,11.99731,27.99377c0,0,28.99359,23.99469,11.99731,23.99469-12.79413,0-43.15051-14.16315-57.37897-21.16647-4.54199-2.2356-6.65662-7.547-4.89014-12.29114,1.4726-3.95486,3.37714-8.10443,5.28174-9.53284,1.99957-1.49966,3.24927-4.74896,3.99908-7.62332,.67944-2.60449,3.61816-3.87759,5.95514-2.54218h.00006Z" fill="#2f2e41"/></g></svg>