<svg id="ff9b7883-0747-4503-ae24-88c484279cec" data-name="Layer 1" xmlns="http://www.w3.org/2000/svg" width="653.38321" height="625.00429" viewBox="0 0 653.38321 625.00429"><path d="M848.76347,750.29341H694.30839v-2h.00016A152.45492,152.45492,0,0,0,846.76347,595.83849V488.04585h2Z" transform="translate(-273.30839 -137.49786)" fill="#f2f2f2"/><path d="M427.3256,360.69313a114.22715,114.22715,0,0,1-12.55762,3.9713c-5.62552,1.371-8.80167,2.00651-14.2313-.10074-.19073-.074-.37274-.14719-.54445-.21916a57.67862,57.67862,0,0,1-35.10473-52.299c-.02716-.38357-.02716-.78688-.02716-1.18035a56.19183,56.19183,0,0,1,.2714-5.67544,57.37007,57.37007,0,0,1,1.23014-7.63289l-.05427-.00984c-4.396-4.49514-6.08745-10.6526-5.52665-16.83954a27.8324,27.8324,0,0,1,12.57291-20.81333,44.03242,44.03242,0,0,1,18.28053-6.45254,46.32618,46.32618,0,0,1,5.25531-.30492h16.49858a71.2821,71.2821,0,0,1,10.35686-1.63284h.02711c33.20525-2.75411,59.39135,19.25926,56.94911,46.04317-.0181.02953-.04521.059-.06332.08855-.7055,1.15082-1.32963,2.24262-1.88143,3.28525-.53364.97377-.98591,1.90822-1.37485,2.7935-3.0302,6.846,11.36993,113.06125,6.20505,114.67433-2.93972.91476-14.789-78.123-12.66339-63.09339C473.62085,374.15117,442.62307,355.03839,427.3256,360.69313Z" transform="translate(-273.30839 -137.49786)" fill="#2f2e41"/><polygon points="204.039 415.202 250.068 513.262 73.005 495.329 109.966 401.193 204.039 415.202" fill="#ffb6b6"/><path d="M569.747,749.30585a257.90908,257.90908,0,0,1-95.64,12.81l-14.09-22.85s-.59,8.51-1.47,21.52a248.82109,248.82109,0,0,1-45.47-9.64c-28.11-8.79-54.46-22.41-81.17-34.97-5.41-32.25-7.44-81.98,22.47-110.93l160.99,29.5s25.83,19.32,18.92,26.24c-6.91,6.91-7.98,5.84-3.44,10.38,4.54,4.54,14.35,10.61005,14.45,14.58C545.337,687.49586,556.347,715.60584,569.747,749.30585Z" transform="translate(-273.30839 -137.49786)" fill="#2f2e41"/><path d="M449.23475,363.21241,410.34,365.926l-25.13916,24.29213-8.80424,1.57147a32.8246,32.8246,0,0,0-27.0061,34.24556c1.811,30.68255,5.86582,76.52768,14.34076,91.40151,13.1412,23.06327,23.99553,15.827,13.1412,23.06327s-18.14164,1.55016-13.1412,12.98621-6.75842,26.10467-6.75842,26.10467l-4.681,4.681,4.96475,2.03476,158.19639,20.58461s-13.67875-61.50178-5.12419-76.60989,29.296-60.77675,10.78454-78.6462l-18.0999-63.69413-31.13374-9.18242Z" transform="translate(-273.30839 -137.49786)" fill="#6c63ff"/><path d="M643.68048,187.42017a17.98107,17.98107,0,0,1-17.19333,21.31466l-32.97239,83.33691L568.22157,288.619l39.88551-98.69418a17.95587,17.95587,0,0,1,35.5734-2.5046Z" transform="translate(-273.30839 -137.49786)" fill="#ffb6b6"/><path d="M463.90613,442.04793l6.50586,9.60083,97.201-80.50947,53.42171-133.84435-32.04255-10.467L532.21138,332.29056l-60.07548,50.5156A44.66533,44.66533,0,0,0,463.90613,442.04793Z" transform="translate(-273.30839 -137.49786)" fill="#6c63ff"/><path d="M364.87838,649.74944a19.07238,19.07238,0,0,1-9.03526-27.60581l-55.10537-77.46087,17.67815-20.50982,64.77681,92.48a19.04564,19.04564,0,0,1-18.31433,33.0965Z" transform="translate(-273.30839 -137.49786)" fill="#ffb6b6"/><path d="M366.14455,404.27787h0a13.59981,13.59981,0,0,0-17.38172,3.06013L274.30827,511.46679l69,98,27-29-42-66,55.81831-53.1454A44.66534,44.66534,0,0,0,366.14455,404.27787Z" transform="translate(-273.30839 -137.49786)" fill="#6c63ff"/><circle cx="154.45508" cy="176.77854" r="39.05578" fill="#ffb6b6"/><path d="M461.72628,297.76076c-.65123.34367-1.29347.66029-1.94476.97685-.67839.32562-1.35679.65129-2.04418.9588-13.07045,5.92465-23.71676,6.585-30.1751-1.93565a36.169,36.169,0,0,0-2.97588-13.00712,20.90277,20.90277,0,0,1-3.44625,13.00712H408.133c-13.39606,8.89147-20.27045,17.05939-10.97193,46.24848.606,1.91765,4.75782,70.04666,5.94275,75.28391-20.2795-7.779-37.7731-90.37144-38.21631-112.13438-.02716-.35273-.02716-.72361-.02716-1.08545a47.554,47.554,0,0,1,.2714-5.21909,48.86159,48.86159,0,0,1,1.23014-7.01915l-.05427-.00905a18.33086,18.33086,0,0,1-5.52665-15.48552,44.66352,44.66352,0,0,1,12.4101-11.12568,79.19716,79.19716,0,0,1,13.586-5.10156c.11759-.0271.21708-.05426.33467-.08137,1.42917-.389,2.8945-.74172,4.35983-1.04929a81.87126,81.87126,0,0,1,9.14477-1.38389c.22613-.00906.44321-.02717.64224-.02717a6.85284,6.85284,0,0,1,3.49146.9588c.00906,0,.00906.00905.02711.00905a6.89006,6.89006,0,0,1,3.35582,5.86133h14.49056c.53364,0,1.06733.01811,1.601.04522,20.18.805,36.39826,9.43427,37.43844,29.27057C461.70817,296.404,461.72628,297.07331,461.72628,297.76076Z" transform="translate(-273.30839 -137.49786)" fill="#2f2e41"/><circle cx="102.74716" cy="136.10283" r="25.73018" fill="#2f2e41"/><path d="M411.38031,261.69971c-2.92316,13.90648-17.34512,22.22375-31.1422,18.82147a25.73019,25.73019,0,0,1-18.82148-31.1422c3.40228-13.79709,20.14678-9.81952,31.14221-18.82148C408.11342,217.82293,415.32244,242.9457,411.38031,261.69971Z" transform="translate(-273.30839 -137.49786)" fill="#2f2e41"/><path d="M663.83789,576.75669c-71.994-74.56285-119.1063-162.07861-133.25756-266.753a22.7899,22.7899,0,0,1,10.19132-30.53741L742.22924,178.82718a22.78961,22.78961,0,0,1,30.53721,10.19135c70.89374,81.23709,122.0235,168.208,133.25775,266.75293a22.78943,22.78943,0,0,1-10.19111,30.53716L694.3755,586.94775A22.79,22.79,0,0,1,663.83789,576.75669Z" transform="translate(-273.30839 -137.49786)" fill="#f2f2f2"/><path d="M710.78881,565.89361a22.78952,22.78952,0,0,1-30.53715-10.19112c-71.9945-74.563-119.10655-162.07881-133.258-266.75291a22.49573,22.49573,0,0,1-2.25785-11.46368l-3.96439,1.98022a22.79033,22.79033,0,0,0-10.19158,30.53721c14.15149,104.67432,61.26351,192.18988,133.258,266.7529A22.78943,22.78943,0,0,0,694.375,586.94735L895.83263,486.30868a22.68837,22.68837,0,0,0,12.44943-19.07353Z" transform="translate(-273.30839 -137.49786)" opacity="0.2" style="isolation:isolate"/><path d="M783.637,344.86145,648.8233,412.67592a9.05456,9.05456,0,0,1-8.13789-16.1776l134.81366-67.81447a9.05456,9.05456,0,0,1,8.13766,16.17763Z" transform="translate(-273.30839 -137.49786)" fill="#fff"/><path d="M656.16839,353.397l-29.65891,14.91907a9.05462,9.05462,0,0,1-8.18882-16.152l.05116-.02561,29.65891-14.91907a9.05456,9.05456,0,0,1,8.13766,16.17763Z" transform="translate(-273.30839 -137.49786)" fill="#fff"/><path d="M801.52475,380.42211,666.71109,448.23657a9.05461,9.05461,0,0,1-8.15713-16.168l.01924-.00958,134.81366-67.81446a9.05456,9.05456,0,0,1,8.13766,16.17762Z" transform="translate(-273.30839 -137.49786)" fill="#fff"/><circle cx="362.91554" cy="95.03522" r="37.75378" fill="#3f3d56"/><circle cx="580.69818" cy="343.18135" r="71.68503" fill="#fff"/><path d="M854.00655,553.36449a72.68506,72.68506,0,1,1,72.68506-72.68555A72.76757,72.76757,0,0,1,854.00655,553.36449Zm0-143.37012a70.68506,70.68506,0,1,0,70.68506,70.68457A70.76475,70.76475,0,0,0,854.00655,409.99437Z" transform="translate(-273.30839 -137.49786)" fill="#3f3d56"/><path d="M844.22725,517.98793a7.97166,7.97166,0,0,1-6.37854-3.19024l-19.55677-26.07613a7.97379,7.97379,0,1,1,12.75837-9.56813L843.845,496.21175l32.86155-49.29169a7.97412,7.97412,0,0,1,13.26974,8.84649l-39.11354,58.67032a7.97735,7.97735,0,0,1-6.41358,3.54846C844.37521,517.98663,844.30123,517.98793,844.22725,517.98793Z" transform="translate(-273.30839 -137.49786)" fill="#6c63ff"/><ellipse cx="655.20772" cy="624.82408" rx="5.17661" ry="3.60114" transform="translate(-324.15763 -79.40639) rotate(-4.88719)" fill="#fff"/><ellipse cx="687.25811" cy="613.95159" rx="5.17661" ry="3.60114" transform="translate(-323.11484 -76.71541) rotate(-4.88719)" fill="#3f3d56"/><ellipse cx="640.01523" cy="600.37161" rx="5.17661" ry="3.60114" transform="translate(-322.12966 -80.7896) rotate(-4.88719)" fill="#ff6584"/><ellipse cx="626.15689" cy="592.88924" rx="2.27591" ry="3.27161" transform="translate(-388.58116 15.08222) rotate(-12.7322)" fill="#e6e6e6"/><ellipse cx="616.58496" cy="573.76084" rx="2.27591" ry="3.27161" transform="translate(-384.60074 12.50227) rotate(-12.7322)" fill="#3f3d56"/><ellipse cx="662.50896" cy="600.62369" rx="2.27591" ry="3.27161" transform="translate(-389.39193 23.2842) rotate(-12.7322)" fill="#e6e6e6"/><ellipse cx="648.51016" cy="612.24491" rx="2.27591" ry="3.27161" transform="translate(-392.2974 20.4847) rotate(-12.7322)" fill="#ff6584"/><ellipse cx="673.99512" cy="621.71049" rx="2.27591" ry="3.27161" transform="translate(-393.7569 26.33419) rotate(-12.7322)" fill="#3f3d56"/><ellipse cx="810.17078" cy="143.96717" rx="3.60114" ry="5.17661" transform="translate(198.2825 756.44725) rotate(-75.77932)" fill="#fff"/><ellipse cx="776.32716" cy="143.74901" rx="3.60114" ry="5.17661" transform="translate(172.96428 723.47613) rotate(-75.77932)" fill="#3f3d56"/><ellipse cx="816.52177" cy="172.04562" rx="3.60114" ry="5.17661" transform="translate(175.85528 783.7844) rotate(-75.77932)" fill="#ff6584"/><ellipse cx="827.16723" cy="183.65225" rx="3.27161" ry="2.27591" transform="translate(279.48805 847.8117) rotate(-83.62433)" fill="#e6e6e6"/><ellipse cx="829.95015" cy="204.86009" rx="3.27161" ry="2.27591" transform="translate(260.88526 869.43019) rotate(-83.62433)" fill="#3f3d56"/><ellipse cx="795.34987" cy="164.44416" rx="3.27161" ry="2.27591" transform="translate(270.29319 799.11604) rotate(-83.62433)" fill="#e6e6e6"/><ellipse cx="812.38157" cy="158.04571" rx="3.27161" ry="2.27591" transform="translate(291.79246 810.35448) rotate(-83.62433)" fill="#ff6584"/><ellipse cx="791.39926" cy="140.7592" rx="3.27161" ry="2.27591" transform="translate(290.31977 774.13505) rotate(-83.62433)" fill="#3f3d56"/><path d="M275.30839,419.29292h-2V157.04585H427.76347v2h-.00015A152.45493,152.45493,0,0,0,275.30839,311.50078Z" transform="translate(-273.30839 -137.49786)" fill="#f2f2f2"/></svg>