<svg id="ab0df63b-a588-4c2d-b883-3ee3cd2a647b" data-name="Layer 1" xmlns="http://www.w3.org/2000/svg" xmlns:xlink="http://www.w3.org/1999/xlink" width="1134.04004" height="812.26696" viewBox="0 0 1134.04004 812.26696"><defs><linearGradient id="baba47d1-9dc7-476e-ad38-6e03762f13bc" x1="622.36395" y1="14.42645" x2="622.36395" y2="488.00438" gradientTransform="matrix(1, 0, 0, -1, -32.98, 858.16)" gradientUnits="userSpaceOnUse"><stop offset="0" stop-color="gray" stop-opacity="0.25"/><stop offset="0.54" stop-color="gray" stop-opacity="0.12"/><stop offset="1" stop-color="gray" stop-opacity="0.1"/></linearGradient><linearGradient id="fac03133-0e52-4df9-b1a8-e1e979d1daa6" x1="669.29324" y1="327.1965" x2="696.6039" y2="327.1965" xlink:href="#baba47d1-9dc7-476e-ad38-6e03762f13bc"/></defs><ellipse cx="600.03998" cy="793.38696" rx="170.69" ry="18.88" fill="#6c63ff" opacity="0.1" style="isolation:isolate"/><path d="M1112.15,595.03347c-26.56006,54.81-80.52,91.46-136.42,115.63-75.27,32.55-158.16,45.46-239.91,40q-21.5-1.42-42.85-4.57A540.44253,540.44253,0,0,1,549.7,704.33346q-19.7-8.89993-38.7-19.36a494.85106,494.85106,0,0,1-60.46-39.54q-7.23-5.52-14.26-11.32c-3.25-2.68-6.47-5.42-9.74-8.08-6.9-5.61-14-10.94-21.92-14.93a78.30763,78.30763,0,0,0-7.34-3.24c-25.08-9.54-54-5.94-80.11,1.5-19.84,5.61-39.17,13.36-59.04,18.89a195.99773,195.99773,0,0,1-26.91,5.72,143.20977,143.20977,0,0,1-60.49-5.27l-1.67-.52q-4.2-1.32-8.33-2.89l-1.67-.64q-4-1.54-7.83-3.31l-1.67-.76q-4-1.86-7.83-3.93c-.92-.48-1.83-1-2.73-1.49a163.67,163.67,0,0,1-39.16-30.48993c-.33-.33-.64-.67-1-1-1.59-1.72-3.15-3.47-4.66-5.26-.56-.66-1.12-1.32-1.67-2q-2.69-3.29-5.19-6.71c-.25-.33-.49-.67-.73-1a144.58945,144.58945,0,0,1-16.87-30.5c-.14-.33-.27-.67-.39-1q-2-5.15-3.65-10.47c-.45-1.48-.88-3-1.26-4.48-.13-.44-.25-.89-.36-1.33-5.47-21.72-6.06-44.31-6.06-66.77v-7.85c.16-36.33.72-73.28,6.08-109.11a4.5538,4.5538,0,0,1,.11-.74,340.758,340.758,0,0,1,7.31-35.82,264.24838,264.24838,0,0,1,12.31-36.3c12.33-29,30.26-55.39,50.17-79.85,50.1-61.51,115.87-113.22,192.85-132.51,82.95-20.83,175.14-.87,242.05,52.4,20.4,16.24,38.73,35.47,61.64,47.92,20,10.84,43.41,15.33,64.83,6.8,17.7-7,29.22-10.55,49.1-9.48a411.56,411.56,0,0,1,120.36,25.19c1.56.57,3.12,1.16,4.67,1.75,100.71,38.55,187.3,115.1,232.28,213.47q1.79,3.9,3.47,7.86C1132.06,460.50347,1141.74,533.97347,1112.15,595.03347Z" transform="translate(-32.97998 -43.86652)" fill="#6c63ff" opacity="0.1" style="isolation:isolate"/><path d="M258.13,249.09347v379.16a195.99773,195.99773,0,0,1-26.91,5.72,143.20977,143.20977,0,0,1-60.49-5.27l-1.67-.52q-4.2-1.32-8.33-2.89l-1.67-.64q-4-1.54-7.83-3.31l-1.67-.76q-4-1.86-7.83-3.93c-.92-.48-1.83-1-2.73-1.49a163.67,163.67,0,0,1-39.16-30.48993c-.33-.33-.64-.67-1-1-1.59-1.72-3.15-3.47-4.66-5.26-.56-.66-1.12-1.32-1.67-2q-2.69-3.29-5.19-6.71c-.25-.33-.49-.67-.73-1a144.58945,144.58945,0,0,1-16.87-30.5c-.14-.33-.27-.67-.39-1q-2-5.15-3.65-10.47c-.45-1.48-.88-3-1.26-4.48-.13-.44-.25-.89-.36-1.33-5.47-21.72-6.06-44.31-6.06-66.77v-7.85c.16-36.33.72-73.28,6.08-109.11a4.5538,4.5538,0,0,1,.11-.74,340.758,340.758,0,0,1,7.31-35.82H173.59v-51.54H194v-41.39h43.82v41.39Z" transform="translate(-32.97998 -43.86652)" fill="#6c63ff" opacity="0.1" style="isolation:isolate"/><path d="M1112.15,595.03347c-26.56006,54.81-80.52,91.46-136.42,115.63-75.27,32.55-158.16,45.46-239.91,40q-21.5-1.42-42.85-4.57A540.44253,540.44253,0,0,1,549.7,704.33346q-19.7-8.89993-38.7-19.36a494.85106,494.85106,0,0,1-60.46-39.54q-7.23-5.52-14.26-11.32c-3.25-2.68-6.47-5.42-9.74-8.08-6.9-5.61-14-10.94-21.92-14.93a78.30763,78.30763,0,0,0-7.34-3.24v-155.16H582.87v34.53h81.45v-252.58h95.87v101h47.42v-59.8h39.18v-63.88h18v-37.22c1.56.57,3.12,1.16,4.67,1.75v35.47H887v63.92h39.17v59.8H983.9v227.83h91.76v-165.69H1105.23C1132.06,460.50347,1141.74,533.97347,1112.15,595.03347Z" transform="translate(-32.97998 -43.86652)" fill="#6c63ff" opacity="0.1" style="isolation:isolate"/><rect x="659.98999" y="228.78695" width="42.84998" height="42.85001" fill="#6c63ff" opacity="0.1" style="isolation:isolate"/><rect x="659.98999" y="317.61697" width="42.84998" height="42.85001" fill="#6c63ff" opacity="0.1" style="isolation:isolate"/><rect x="659.98999" y="406.43695" width="42.84998" height="42.85001" fill="#6c63ff" opacity="0.1" style="isolation:isolate"/><rect x="659.98999" y="495.26696" width="42.84998" height="42.84998" fill="#6c63ff" opacity="0.1" style="isolation:isolate"/><rect x="659.98999" y="584.09698" width="42.84998" height="42.84998" fill="#6c63ff" opacity="0.1" style="isolation:isolate"/><path d="M735.82,716.78347v33.84q-21.50007-1.42-42.85-4.57v-29.27Z" transform="translate(-32.97998 -43.86652)" fill="#6c63ff" opacity="0.1" style="isolation:isolate"/><rect x="378.42999" y="464.21695" width="149.98999" height="19.41" fill="#6c63ff" opacity="0.1" style="isolation:isolate"/><rect x="378.42999" y="523.15698" width="149.98999" height="19.40997" fill="#6c63ff" opacity="0.1" style="isolation:isolate"/><path d="M561.4,625.97347v19.4H450.56q-7.23-5.52-14.26-11.32c-3.25-2.68-6.47-5.42-9.74-8.08Z" transform="translate(-32.97998 -43.86652)" fill="#6c63ff" opacity="0.1" style="isolation:isolate"/><path d="M561.4,684.97347v19.41H549.7q-19.7-8.94993-38.7-19.41Z" transform="translate(-32.97998 -43.86652)" fill="#6c63ff" opacity="0.1" style="isolation:isolate"/><rect x="774.40997" y="344.81695" width="27.89001" height="27.89001" fill="#6c63ff" opacity="0.1" style="isolation:isolate"/><rect x="170.41" y="214.83696" width="27.89" height="27.89" fill="#6c63ff" opacity="0.1" style="isolation:isolate"/><rect x="170.41" y="279.63696" width="27.89" height="27.89001" fill="#6c63ff" opacity="0.1" style="isolation:isolate"/><rect x="170.41" y="344.43695" width="27.89" height="27.89001" fill="#6c63ff" opacity="0.1" style="isolation:isolate"/><rect x="170.41" y="409.22696" width="27.89" height="27.88998" fill="#6c63ff" opacity="0.1" style="isolation:isolate"/><rect x="170.41" y="474.02694" width="27.89" height="27.88998" fill="#6c63ff" opacity="0.1" style="isolation:isolate"/><rect x="170.41" y="538.82696" width="27.89" height="27.89001" fill="#6c63ff" opacity="0.1" style="isolation:isolate"/><rect x="880.90997" y="344.81695" width="27.89001" height="27.89001" fill="#6c63ff" opacity="0.1" style="isolation:isolate"/><rect x="774.40997" y="413.62695" width="27.89001" height="27.89001" fill="#6c63ff" opacity="0.1" style="isolation:isolate"/><rect x="880.90997" y="413.62695" width="27.89001" height="27.89001" fill="#6c63ff" opacity="0.1" style="isolation:isolate"/><rect x="774.40997" y="482.42697" width="27.89001" height="27.88998" fill="#6c63ff" opacity="0.1" style="isolation:isolate"/><rect x="880.90997" y="482.42697" width="27.89001" height="27.88998" fill="#6c63ff" opacity="0.1" style="isolation:isolate"/><rect x="774.40997" y="551.23694" width="27.89001" height="27.89001" fill="#6c63ff" opacity="0.1" style="isolation:isolate"/><rect x="880.90997" y="551.23694" width="27.89001" height="27.89001" fill="#6c63ff" opacity="0.1" style="isolation:isolate"/><rect x="774.40997" y="620.04693" width="27.89001" height="27.89001" fill="#6c63ff" opacity="0.1" style="isolation:isolate"/><rect x="880.90997" y="620.04693" width="27.89001" height="27.89001" fill="#6c63ff" opacity="0.1" style="isolation:isolate"/><polygon points="774.41 706.837 774.41 688.847 802.3 688.847 802.3 704.277 774.41 706.837" fill="#6c63ff" opacity="0.1" style="isolation:isolate"/><path d="M64.06,336.45349v16H170.73v-16Zm9.5,15H65.73v-14h7.83Zm9.5,0H75.23v-14h7.83Zm9.5,0H84.73v-14h7.83Zm9.5,0H94.23v-14h7.83Zm9.5,0h-7.83v-14h7.83Zm9.5,0h-7.83v-14h7.83Zm9.5,0h-7.83v-14h7.83Zm9.5,0h-7.83v-14h7.83Zm9.5,0h-7.83v-14h7.83Zm9.5,0h-7.83v-14h7.83Zm10,0h-8.33v-14h8.33Z" transform="translate(-32.97998 -43.86652)" fill="#6c63ff" opacity="0.1" style="isolation:isolate"/><path d="M64.06,382.91348v15.95H170.73v-15.95Zm9.5,14.95H65.73v-13.95h7.83Zm9.5,0H75.23v-13.95h7.83Zm9.5,0H84.73v-13.95h7.83Zm9.5,0H94.23v-13.95h7.83Zm9.5,0h-7.83v-13.95h7.83Zm9.5,0h-7.83v-13.95h7.83Zm9.5,0h-7.83v-13.95h7.83Zm9.5,0h-7.83v-13.95h7.83Zm9.5,0h-7.83v-13.95h7.83Zm9.5,0h-7.83v-13.95h7.83Zm10,0h-8.33v-13.95h8.33Z" transform="translate(-32.97998 -43.86652)" fill="#6c63ff" opacity="0.1" style="isolation:isolate"/><path d="M64.06,429.36349v15.95H170.73v-15.95Zm9.5,14.95H65.73v-13.95h7.83Zm9.5,0H75.23v-13.95h7.83Zm9.5,0H84.73v-13.95h7.83Zm9.5,0H94.23v-13.95h7.83Zm9.5,0h-7.83v-13.95h7.83Zm9.5,0h-7.83v-13.95h7.83Zm9.5,0h-7.83v-13.95h7.83Zm9.5,0h-7.83v-13.95h7.83Zm9.5,0h-7.83v-13.95h7.83Zm9.5,0h-7.83v-13.95h7.83Zm10,0h-8.33v-13.95h8.33Z" transform="translate(-32.97998 -43.86652)" fill="#6c63ff" opacity="0.1" style="isolation:isolate"/><path d="M64.06,475.81347v16H170.73v-16Zm9.5,15H65.73v-14h7.83Zm9.5,0H75.23v-14h7.83Zm9.5,0H84.73v-14h7.83Zm9.5,0H94.23v-14h7.83Zm9.5,0h-7.83v-14h7.83Zm9.5,0h-7.83v-14h7.83Zm9.5,0h-7.83v-14h7.83Zm9.5,0h-7.83v-14h7.83Zm9.5,0h-7.83v-14h7.83Zm9.5,0h-7.83v-14h7.83Zm10,0h-8.33v-14h8.33Z" transform="translate(-32.97998 -43.86652)" fill="#6c63ff" opacity="0.1" style="isolation:isolate"/><path d="M64.47,522.26345c.38,1.5.81,3,1.26,4.48v-3.48h7.83v14H69.38c.12.33.25.67.39,1h101v-16Zm18.59,15H75.23v-14h7.83Zm9.5,0H84.73v-14h7.83Zm9.5,0H94.23v-14h7.83Zm9.5,0h-7.83v-14h7.83Zm9.5,0h-7.83v-14h7.83Zm9.5,0h-7.83v-14h7.83Zm9.5,0h-7.83v-14h7.83Zm9.5,0h-7.83v-14h7.83Zm9.5,0h-7.83v-14h7.83Zm10,0h-8.33v-14h8.33Z" transform="translate(-32.97998 -43.86652)" fill="#6c63ff" opacity="0.1" style="isolation:isolate"/><path d="M86.64,568.71347c.24.33.48.67.73,1h5.19v6.71c.55.67,1.11,1.33,1.67,2v-8.7h7.83v14H98.89a13.46679,13.46679,0,0,0,1,1h70.89v-16Zm24.92,15h-7.83v-14h7.83Zm9.5,0h-7.83v-14h7.83Zm9.5,0h-7.83v-14h7.83Zm9.5,0h-7.83v-14h7.83Zm9.5,0h-7.83v-14h7.83Zm9.5,0h-7.83v-14h7.83Zm10,0h-8.33v-14h8.33Z" transform="translate(-32.97998 -43.86652)" fill="#6c63ff" opacity="0.1" style="isolation:isolate"/><path d="M139,615.16348c.9.51,1.81,1,2.73,1.49v-.49h7.83v4.42l1.67.76v-5.18h7.83v8.49l1.67.64v-9.13h8.33v12l1.67.52v-13.52Z" transform="translate(-32.97998 -43.86652)" fill="#6c63ff" opacity="0.1" style="isolation:isolate"/><path d="M467.92,197.97347s-23.83-1.43-21,15.27a4.07,4.07,0,0,0,2.11,4.29s.05-1.24,2.45-.82a10.6198,10.6198,0,0,0,2.59.13,5.35,5.35,0,0,0,3.16-1.31h0s6.7-2.77,9.31-13.72c0,0,1.93-2.39,1.85-3l-4,1.72s1.37,2.9.29,5.31c0,0-.13-5.21-.9-5.08-.16,0-2.09,1-2.09,1s2.36,5.06.58,8.73c0,0,.68-6.23-1.32-8.36l-2.83,1.65s2.76,5.22.89,9.48c0,0,.48-6.53-1.49-9.08l-2.56,2s2.59,5.15,1,8.68c0,0-.21-7.6-1.57-8.18a15.99984,15.99984,0,0,0-2.59,2.79s1.78,3.74.68,5.71c0,0-.68-5.07-1.23-5.09,0,0-2.24,3.36-2.47,5.66a12.24015,12.24015,0,0,1,1.93-6,6.74,6.74,0,0,0-3.43,1.77s.35-2.37,4-2.58c0,0,1.85-2.55,2.34-2.7,0,0-3.61-.3-5.8.67,0,0,1.93-2.24,6.46-1.23l2.54-2.06s-4.82-.65-6.82.05c0,0,2.32-2,7.45-.54l2.76-1.65a25.22028,25.22028,0,0,0-6.47-.56s2.55-1.37,7.27.12l2-.89s-3-.58-3.84-.67-.92-.34-.92-.34a10.32006,10.32006,0,0,1,5.58.62S468,198.20347,467.92,197.97347Z" transform="translate(-32.97998 -43.86652)" fill="#6c63ff" opacity="0.1" style="isolation:isolate"/><path d="M405.34,279.20349s-8.14,22.45,8.67,24.5a4.09,4.09,0,0,0,4.72-.81s-1.18-.4-.09-2.58a11.20944,11.20944,0,0,0,.85-2.45,5.37,5.37,0,0,0-.35-3.4h0s-.75-7.21-10.52-12.82c0,0-1.74-2.53-2.35-2.63l.51,4.34s3.17-.49,5.17,1.23c0,0-5-1.35-5.13-.58,0,.16.37,2.29.37,2.29s5.52-.83,8.54,1.93c0,0-5.78-2.42-8.4-1.11l.78,3.18s5.8-1.17,9.35,1.84c0,0-6.13-2.32-9.13-1.15l1.19,3s5.67-1,8.61,1.5c0,0-7.35-2-8.29-.82a15.73857,15.73857,0,0,0,1.94,3.27s4.09-.64,5.67,1c0,0-5.05-.79-5.23-.26,0,0,2.58,3.1,4.72,4a12.23006,12.23006,0,0,1-5.19-3.54,6.78023,6.78023,0,0,0,.73,3.78s-2.18-1-1.34-4.54a16.10177,16.10177,0,0,1-1.93-3s-1.31,3.37-1,5.74c0,0-1.61-2.48.66-6.54l-1.27-3s-2,4.37-1.85,6.5c0,0-1.24-2.78,1.6-7.29l-.8-3.11a24.73991,24.73991,0,0,0-2.37,6s-.59-2.83,2.18-6.94l-.29-2.15s-1.41,2.68-1.74,3.49-.58.79-.58.79a10.23974,10.23974,0,0,1,2.18-5.17S405.62,279.21347,405.34,279.20349Z" transform="translate(-32.97998 -43.86652)" fill="#6c63ff" opacity="0.1" style="isolation:isolate"/><path d="M563.38,260.29348s-8.15,22.44,8.67,24.49a4.05,4.05,0,0,0,4.71-.81s-1.17-.39-.09-2.58a11.38935,11.38935,0,0,0,.86-2.44,5.41,5.41,0,0,0-.36-3.41h0s-.75-7.21-10.51-12.82c0,0-1.74-2.52-2.35-2.63l.5,4.35s3.19-.47,5.19,1.23c0,0-5-1.36-5.13-.58,0,.16.37,2.29.37,2.29s5.52-.83,8.53,1.92c0,0-5.78-2.42-8.39-1.11l.78,3.18s5.79-1.16,9.34,1.84c0,0-6.13-2.31-9.12-1.15l1.19,3s5.67-1,8.61,1.49c0,0-7.36-2-8.29-.82a15.75755,15.75755,0,0,0,1.94,3.28s4.09-.65,5.66,1c0,0-5.05-.79-5.23-.27,0,0,2.59,3.1,4.73,4a12.24,12.24,0,0,1-5.19-3.55,6.72007,6.72007,0,0,0,.73,3.79s-2.18-1-1.35-4.55c0,0-1.92-2.49-1.92-3,0,0-1.32,3.37-1,5.75,0,0-1.6-2.48.66-6.54l-1.26-3s-2,4.37-1.86,6.51c0,0-1.24-2.79,1.6-7.3l-.79-3.11a24.93037,24.93037,0,0,0-2.37,6s-.6-2.83,2.17-6.94l-.29-2.14s-1.4,2.68-1.74,3.49-.57.78-.57.78a10.27994,10.27994,0,0,1,2.17-5.17S563.65,260.29348,563.38,260.29348Z" transform="translate(-32.97998 -43.86652)" fill="#6c63ff" opacity="0.1" style="isolation:isolate"/><path d="M337.47,443.77346s-8.14,22.45,8.67,24.49a4.07,4.07,0,0,0,4.72-.81s-1.18-.39-.09-2.57a10.86878,10.86878,0,0,0,.85-2.45,5.40014,5.40014,0,0,0-.35-3.41h0s-.75-7.21-10.51-12.82c0,0-1.75-2.52-2.36-2.63l.51,4.35s3.17-.49,5.18,1.23c0,0-5-1.36-5.14-.58,0,.16.37,2.29.37,2.29s5.52-.83,8.54,1.92c0,0-5.78-2.42-8.4-1.11l.79,3.18s5.79-1.16,9.34,1.84c0,0-6.13-2.31-9.13-1.15l1.19,3s5.67-1,8.61,1.49c0,0-7.35-2-8.29-.82a15.44949,15.44949,0,0,0,1.95,3.28s4.08-.65,5.66,1c0,0-5.05-.79-5.23-.27,0,0,2.58,3.1,4.72,4a12.24023,12.24023,0,0,1-5.18-3.55,6.7702,6.7702,0,0,0,.72,3.79s-2.17-1-1.34-4.55c0,0-1.92-2.49-1.93-3,0,0-1.31,3.38-1,5.75,0,0-1.6-2.48.66-6.54l-1.26-3s-2,4.37-1.86,6.51c0,0-1.24-2.79,1.6-7.29l-.8-3.12a24.9291,24.9291,0,0,0-2.37,6s-.59-2.83,2.18-6.94l-.29-2.14s-1.41,2.68-1.74,3.49-.58.78-.58.78a10.35006,10.35006,0,0,1,2.18-5.17S337.75,443.77346,337.47,443.77346Z" transform="translate(-32.97998 -43.86652)" fill="#6c63ff" opacity="0.1" style="isolation:isolate"/><path d="M305.15,232.17347s-8.15,22.45,8.66,24.5a4.09,4.09,0,0,0,4.72-.81s-1.17-.4-.09-2.58a10.69912,10.69912,0,0,0,.85-2.45,5.41,5.41,0,0,0-.35-3.41h0s-.75-7.21-10.51-12.81c0,0-1.74-2.53-2.36-2.63l.51,4.34s3.17-.49,5.18,1.23c0,0-5-1.35-5.13-.58,0,.16.37,2.29.37,2.29s5.51-.83,8.53,1.92c0,0-5.78-2.41-8.39-1.11l.78,3.19s5.79-1.17,9.34,1.84c0,0-6.13-2.32-9.12-1.16l1.19,3s5.67-1,8.6,1.49c0,0-7.35-2-8.29-.81a15.42977,15.42977,0,0,0,1.95,3.27s4.08-.64,5.66,1c0,0-5.05-.79-5.23-.26,0,0,2.59,3.1,4.72,4a12.17007,12.17007,0,0,1-5.18-3.54,6.68986,6.68986,0,0,0,.73,3.78s-2.18-1-1.35-4.54a16.10178,16.10178,0,0,1-1.93-3s-1.31,3.38-1,5.75c0,0-1.6-2.48.66-6.54l-1.26-3s-2,4.37-1.86,6.5c0,0-1.24-2.78,1.6-7.29l-.8-3.11a25.18107,25.18107,0,0,0-2.37,6s-.59-2.84,2.18-6.94l-.29-2.15s-1.4,2.68-1.74,3.49-.58.78-.58.78a10.35,10.35,0,0,1,2.18-5.17S305.42,232.18348,305.15,232.17347Z" transform="translate(-32.97998 -43.86652)" fill="#6c63ff" opacity="0.1" style="isolation:isolate"/><path d="M365.58,354.38348s6.29,23,21.2,15a4.08,4.08,0,0,0,3.39-3.38s-1.19.36-1.56-2.05a11.81122,11.81122,0,0,0-.71-2.5,5.46023,5.46023,0,0,0-2.26-2.58h0s-4.77-5.45-16-4.41c0,0-2.88-1.06-3.43-.79l2.91,3.26s2.31-2.23,4.94-2c0,0-4.89,1.79-4.52,2.48.07.15,1.62,1.66,1.62,1.66s4-3.86,8.08-3.35c0,0-6.12,1.36-7.5,3.93l2.48,2.16s4.05-4.3,8.69-3.89c0,0-6.34,1.64-8.12,4.32l2.72,1.79s4-4.11,7.89-3.75c0,0-7.14,2.64-7.24,4.11a15.39915,15.39915,0,0,0,3.47,1.56s3-2.88,5.19-2.47c0,0-4.58,2.26-4.43,2.8,0,0,3.9,1,6.15.52a12.14,12.14,0,0,1-6.28.09,6.79017,6.79017,0,0,0,2.78,2.68s-2.36.43-3.72-2.94c0,0-3-.93-3.31-1.35,0,0,.87,3.51,2.49,5.27,0,0-2.74-1.1-3.23-5.72l-2.77-1.74s.91,4.71,2.24,6.39c0,0-2.62-1.56-2.9-6.88l-2.45-2.08a24.78042,24.78042,0,0,0,1.55,6.3s-2.12-2-2.23-6.93l-1.47-1.58s.4,3,.59,3.85,0,1,0,1a10.23988,10.23988,0,0,1-1.2-5.48S365.8,354.22347,365.58,354.38348Z" transform="translate(-32.97998 -43.86652)" fill="#6c63ff" opacity="0.1" style="isolation:isolate"/><path d="M536.21,374.97347s6.29,23,21.21,15a4.07,4.07,0,0,0,3.38-3.38s-1.18.36-1.56-2.05a10.73958,10.73958,0,0,0-.71-2.5,5.43,5.43,0,0,0-2.25-2.58h0s-4.77-5.45-16-4.41c0,0-2.88-1.06-3.44-.79l2.92,3.26s2.31-2.23,4.94-2c0,0-4.89,1.79-4.53,2.49.07.14,1.62,1.65,1.62,1.65s4-3.86,8.08-3.35c0,0-6.11,1.36-7.49,3.93l2.47,2.16s4.06-4.3,8.69-3.89c0,0-6.34,1.64-8.12,4.32l2.72,1.79s4-4.11,7.9-3.75c0,0-7.14,2.64-7.25,4.12a15.59036,15.59036,0,0,0,3.48,1.55s3-2.88,5.18-2.47c0,0-4.58,2.27-4.42,2.8,0,0,3.9,1,6.15.52a12.14,12.14,0,0,1-6.28.09,6.72038,6.72038,0,0,0,2.78,2.68s-2.36.43-3.73-2.94c0,0-3-.93-3.31-1.35,0,0,.88,3.51,2.5,5.28,0,0-2.74-1.11-3.23-5.73l-2.77-1.74s.9,4.71,2.23,6.39c0,0-2.62-1.56-2.9-6.88l-2.44-2.08a25.05941,25.05941,0,0,0,1.54,6.3s-2.12-2-2.22-6.93l-1.47-1.58s.4,3,.59,3.85,0,1,0,1a10.2397,10.2397,0,0,1-1.2-5.48S536.44,374.76348,536.21,374.97347Z" transform="translate(-32.97998 -43.86652)" fill="#6c63ff" opacity="0.1" style="isolation:isolate"/><polygon points="922.97 671.977 933.04 682.607 949.01 654.467 947.57 651.307 922.97 671.977" fill="#6c63ff"/><polygon points="922.97 671.977 933.04 682.607 949.01 654.467 947.57 651.307 922.97 671.977" opacity="0.2" style="isolation:isolate"/><path d="M248.05,691.7535c0,53.4-36.57,64.73-73.22,64.73s-57.28-45-57.28-98.42,29.71-96.7,66.36-96.7S248.05,638.35348,248.05,691.7535Z" transform="translate(-32.97998 -43.86652)" fill="#636780"/><path d="M248.05,691.7535c0,53.4-36.57,64.73-73.22,64.73s-57.28-45-57.28-98.42,29.71-96.7,66.36-96.7S248.05,638.35348,248.05,691.7535Z" transform="translate(-32.97998 -43.86652)" opacity="0.2" style="isolation:isolate"/><path d="M222.71,659.78347c0,53.4-23.54,96.7-52.58,96.7s-53.73-43.3-53.73-96.7c0-7.38-1.14-14.56-.29-21.46,5.31-43.07,29-75.23,54-75.23C199.17,563.09347,222.71,606.38345,222.71,659.78347Z" transform="translate(-32.97998 -43.86652)" fill="#636780"/><path d="M217.47,424.40347s-46.09,51.68-60.73,94.75l398,43.94,213.2-43.94s-84.44-101.18-107.26-105.09S217.47,424.40347,217.47,424.40347Z" transform="translate(-32.97998 -43.86652)" fill="#6c63ff"/><path d="M217.47,424.40347s-46.09,51.68-60.73,94.75l398,43.94,213.2-43.94s-84.44-101.18-107.26-105.09S217.47,424.40347,217.47,424.40347Z" transform="translate(-32.97998 -43.86652)" opacity="0.4" style="isolation:isolate"/><polygon points="476.53 512.007 540.41 691.227 540.41 645.867 558.19 595.087 607.45 573.277 669.91 601.617 692.25 608.597 694.2 567.257 619.94 530.647 585.37 514.057 506.24 507.157 484.41 503.257 476.53 512.007" fill="#6c63ff"/><path d="M538,574.51345l58.12,6.67c-2.64-23.21,14.59-23.21,14.59-23.21l-58.14-10.06H525.43" transform="translate(-32.97998 -43.86652)" fill="#6c63ff"/><path d="M573.39,762.65347h41.2l119.31-4s2.58,22.75,34,17.4c0,0,17.3,1.11,19.16-8.29s-39.4-96.27-39.4-96.27l-56.25-42-51-12.38-36.61,10.77-23.26,37-14.64,50.65Z" transform="translate(-32.97998 -43.86652)" fill="#636780"/><path d="M573.39,762.65347h41.2l119.31-4s2.58,22.75,34,17.4c0,0,17.3,1.11,19.16-8.29s-39.4-96.27-39.4-96.27l-56.25-42-51-12.38-36.61,10.77-23.26,37-14.64,50.65Z" transform="translate(-32.97998 -43.86652)" opacity="0.2" style="isolation:isolate"/><path d="M225.49,436.77346c-5.9,4.82-24.54,22.11-40.07,58.67a8.84,8.84,0,0,0,7,12.25l93.58,12.13a14.14,14.14,0,0,0,15.56-10.66l16.45-67.11a6.7,6.7,0,0,0-6.64-8.3l-81.77,1.52A6.63,6.63,0,0,0,225.49,436.77346Z" transform="translate(-32.97998 -43.86652)" fill="#6c63ff"/><path d="M225.49,436.77346c-5.9,4.82-24.54,22.11-40.07,58.67a8.84,8.84,0,0,0,7,12.25l93.58,12.13a14.14,14.14,0,0,0,15.56-10.66l16.45-67.11a6.7,6.7,0,0,0-6.64-8.3l-81.77,1.52A6.63,6.63,0,0,0,225.49,436.77346Z" transform="translate(-32.97998 -43.86652)" fill="#fff" opacity="0.2" style="isolation:isolate"/><path d="M361.48,433.60348l105.38-1c7.59-.07,14.39,5,16.95,12.74l32.85995,74.63c2.91,8.74-3.38,17.84-12,17.34l-153.82-10.13c-12.76-.74-21.79-13.75-18.84-27.16l11.15-50.67C345.17,440.19348,352.73,433.68347,361.48,433.60348Z" transform="translate(-32.97998 -43.86652)" fill="#6c63ff"/><path d="M361.48,433.60348l105.38-1c7.59-.07,14.39,5,16.95,12.74l32.85995,74.63c2.91,8.74-3.38,17.84-12,17.34l-153.82-10.13c-12.76-.74-21.79-13.75-18.84-27.16l11.15-50.67C345.17,440.19348,352.73,433.68347,361.48,433.60348Z" transform="translate(-32.97998 -43.86652)" fill="#fff" opacity="0.2" style="isolation:isolate"/><path d="M525.29,432.40347c28.81-.52,105.16-2.7,143.14-11.45,0,0,65.18,49.1,84.71,86.14,0,0-101.6,24.73-171.77,28.08a26.59006,26.59006,0,0,1-25.17-15l-37.31-77.32a7.26,7.26,0,0,1,6.4-10.45Z" transform="translate(-32.97998 -43.86652)" fill="#6c63ff"/><path d="M525.29,432.40347c28.81-.52,105.16-2.7,143.14-11.45,0,0,65.18,49.1,84.71,86.14,0,0-101.6,24.73-171.77,28.08a26.59006,26.59006,0,0,1-25.17-15l-37.31-77.32a7.26,7.26,0,0,1,6.4-10.45Z" transform="translate(-32.97998 -43.86652)" fill="#fff" opacity="0.2" style="isolation:isolate"/><path d="M561.82,443.59347c12-.21,35.41-.83,58.27-2.54a109.53,109.53,0,0,1,90.23,36.49l.74.84a14.24,14.24,0,0,1-7.78,23.26c-25.22,5.41-68.18,13.67-101.34,15.27a19.00008,19.00008,0,0,1-18.07-10.72l-26.62-55.17a5.18,5.18,0,0,1,4.57007-7.43Z" transform="translate(-32.97998 -43.86652)" fill="#fff" opacity="0.1" style="isolation:isolate"/><path d="M573.39,735.09347v27.56l-304.66-46.51c-14.93-5.17-23.84-2-23.84-2-11-5.37-19-26.32-19.23-27h0l5.75-16.65-46.7-77.24-62.13,2.58c9.77-78.11,37.9-81.84,37.9-81.84l365,33.88Z" transform="translate(-32.97998 -43.86652)" fill="#6c63ff"/><path d="M507.73,570.58346c-2.39,2.62-6.76,5-14.82,4.78-12.35-.3-14.69-10.84-15-17.13a29.44977,29.44977,0,0,1,.13-4.62l16.18-4.95,3.31,3.09,9.77,9.15A6.91,6.91,0,0,1,507.73,570.58346Z" transform="translate(-32.97998 -43.86652)" opacity="0.1" style="isolation:isolate"/><path d="M507.73,569.72347c-2.39,2.62-6.76,5-14.82,4.78-12.35-.3-14.69-10.84-15-17.13a29.44986,29.44986,0,0,1,.13-4.62l16.18-4.95,3.31,3.09,9.77,9.15A6.91,6.91,0,0,1,507.73,569.72347Z" transform="translate(-32.97998 -43.86652)" fill="#dce0ed"/><path d="M497.54,550.89346c-2.07,5.27-8.19,6.7-8.19,6.7l-11.43-.22a29.44986,29.44986,0,0,1,.13-4.62l16.18-4.95Z" transform="translate(-32.97998 -43.86652)" opacity="0.1" style="isolation:isolate"/><path d="M456.3,510.54348s-25.84,3.46-18.95,26.82c5.22,17.7,16.87,18.89,22.21,18.44a88.45268,88.45268,0,0,1,9.35-.34l20.43.41s11.54-2.69,8.31-14.32S479.56,508.60348,456.3,510.54348Z" transform="translate(-32.97998 -43.86652)" fill="#f0f0f4"/><ellipse cx="283.41" cy="521.80694" rx="11.92001" ry="15.51001" opacity="0.2" style="isolation:isolate"/><rect x="314.13104" y="543.97136" width="10.51001" height="44.61999" rx="5.25" transform="translate(-310.5633 779.92133) rotate(-83.91)" opacity="0.1" style="isolation:isolate"/><rect x="314.13228" y="543.10622" width="10.51001" height="44.61999" rx="5.25" transform="translate(-309.70194 779.14921) rotate(-83.91)" fill="#f0f0f4"/><path d="M118.84,666.89346s-21.39-21.11,4.59-71.92c0,0,33.31-50.4,85,4.74,0,0,29.72,33.16,38.33,86.14l-20.24.43s-19.39-93.9-76.24-89.16C150.28,597.11349,108.93,604.4335,118.84,666.89346Z" transform="translate(-32.97998 -43.86652)" opacity="0.1" style="isolation:isolate"/><path d="M118,669.47347s-21.4-21.1,4.59-71.93c0,0,33.31-50.39,85,4.74,0,0,29.72,33.17,38.34,86.14l-20.25.43s-19.41-93.88-76.26-89.15C149.42,599.70346,108.07,607.02346,118,669.47347Z" transform="translate(-32.97998 -43.86652)" opacity="0.1" style="isolation:isolate"/><path d="M118,667.7535s-21.4-21.11,4.59-71.93c0,0,33.31-50.39,85,4.74,0,0,29.72,33.16,38.34,86.14l-20.25.43s-19.41-93.89-76.26-89.16C149.42,597.97347,108.07,605.30349,118,667.7535Z" transform="translate(-32.97998 -43.86652)" fill="#6c63ff"/><path d="M118,667.7535s-21.4-21.11,4.59-71.93c0,0,33.31-50.39,85,4.74,0,0,29.72,33.16,38.34,86.14l-20.25.43s-19.41-93.89-76.26-89.16C149.42,597.97347,108.07,605.30349,118,667.7535Z" transform="translate(-32.97998 -43.86652)" opacity="0.2" style="isolation:isolate"/><path d="M573.39,735.09347v27.56l-304.66-46.51c-14.93-5.17-23.84-2-23.84-2-11-5.37-19-26.32-19.23-27h0l20.25-.43,58.58,8.18,212.91,30.58s37.76,4.31,39.91,6S573.39,735.09347,573.39,735.09347Z" transform="translate(-32.97998 -43.86652)" fill="none"/><path d="M573.39,734.23348v27.56l-304.66-46.52c-14.93-5.16-23.84-2-23.84-2-11-5.37-19-26.32-19.23-27h0l20.25-.43,58.58,8.18,212.91,30.58s37.76,4.31,39.91,6S573.39,734.23348,573.39,734.23348Z" transform="translate(-32.97998 -43.86652)" opacity="0.1" style="isolation:isolate"/><path d="M573.39,735.09347v27.56l-304.66-46.51c-14.93-5.17-23.84-2-23.84-2-11-5.37-19-26.32-19.23-27h0l20.25-.43,58.58,8.18,212.91,30.58s37.76,4.31,39.91,6S573.39,735.09347,573.39,735.09347Z" transform="translate(-32.97998 -43.86652)" fill="#6c63ff"/><path d="M573.39,735.09347v27.56l-304.66-46.51c-14.93-5.17-23.84-2-23.84-2-11-5.37-19-26.32-19.23-27h0l20.25-.43,58.58,8.18,212.91,30.58s37.76,4.31,39.91,6S573.39,735.09347,573.39,735.09347Z" transform="translate(-32.97998 -43.86652)" opacity="0.2" style="isolation:isolate"/><path d="M984.57,633.72347s-101.65,51.69-227,46.52c0,0-28.18,1.39-30.14-1.19s7.27,10.86,7.27,10.86,3.48-3.64,6.93-3.64,19.22,1.17,19.22,1.17,180.2-7.63,226.29-48.55Z" transform="translate(-32.97998 -43.86652)" fill="none"/><path d="M987.44,668.34347c.76,2.83,2.53,10.65-.28,12.76-1.07.8-2,2.77-2.72,5.11a79.53334,79.53334,0,0,0-2.44,12.12l-29.3,32.73-49.53,19.39-118.45,8.18-71.5-116.29-160.65-94.48,43.86-2.43c43.87-2.44,168.4-30,168.4-30L905.7,546.55349a94.40022,94.40022,0,0,1,56.5,37.21c17.15,24,25,50,25,50,2.12,2.54,2.94,6.7,3.06,11.26.16,7.43-1.54,15.89-2.47,19.93-.35,1.51-.59,2.41-.59,2.41S987.28,667.70346,987.44,668.34347Z" transform="translate(-32.97998 -43.86652)" fill="#6c63ff"/><path d="M557.3,729.77346s-8.61-92.13,56-117.13c0,0,90.88-38.36,144.29,65.88l27.13,59.45s7.75,14.64,28.86,14.21c0,0,99.49-3,152-36.61l16.37-19s-8.18,26.7-16.37,32.73c0,0-32.3,37.9-149.89,44.8,0,0-48.09,5.16-62.59-40.49,0,0-19.67-103.37-119.6-102.51,0,0-58.71,1.15-60.15,102.22Z" transform="translate(-32.97998 -43.86652)" opacity="0.1" style="isolation:isolate"/><path d="M557.3,731.49349s-8.61-92.12,56-117.13c0,0,90.88-38.35,144.29,65.88l27.13,59.44s7.75,14.64,28.86,14.21c0,0,99.49-3,152-36.61L982,698.33346s-8.18,26.7-16.37,32.73c0,0-32.3,37.91-149.89,44.8,0,0-48.09,5.17-62.59-40.49,0,0-19.67-103.37-119.6-102.51,0,0-58.71,1.16-60.15,102.23Z" transform="translate(-32.97998 -43.86652)" fill="#6c63ff"/><path d="M557.3,731.49349s-8.61-92.12,56-117.13c0,0,90.88-38.35,144.29,65.88l27.13,59.44s7.75,14.64,28.86,14.21c0,0,99.49-3,152-36.61L982,698.33346s-8.18,26.7-16.37,32.73c0,0-32.3,37.91-149.89,44.8,0,0-48.09,5.17-62.59-40.49,0,0-19.67-103.37-119.6-102.51,0,0-58.71,1.16-60.15,102.23Z" transform="translate(-32.97998 -43.86652)" opacity="0.2" style="isolation:isolate"/><path d="M621.47,633.65347l-.84.14c0-.1-1.79-10.73-7.69-19.18-12.37-17.71-16.41-29.72-16.87-37.74a20.65986,20.65986,0,0,1,1-8.22c1.93-5.41,7.1-9.41,14.12-11.39h0l1.5.25c-6.75,1.9-13,6.3-14.85,11.43a20.18026,20.18026,0,0,0-1,8.11c.5,7.85,4.55,19.63,16.72,37.08C619.66,622.73348,621.46,633.54348,621.47,633.65347Z" transform="translate(-32.97998 -43.86652)" opacity="0.2" style="isolation:isolate"/><ellipse cx="953.0861" cy="593.20418" rx="9.91998" ry="42.14001" transform="translate(-198.06147 649.16531) rotate(-37)" opacity="0.1" style="isolation:isolate"/><ellipse cx="953.09099" cy="591.48058" rx="9.91998" ry="42.14001" transform="translate(-197.02319 648.82118) rotate(-37)" fill="#dce0ed"/><ellipse cx="954.23357" cy="591.57037" rx="6.44" ry="34.79999" transform="translate(-196.84716 649.52688) rotate(-37)" opacity="0.1" style="isolation:isolate"/><ellipse cx="954.23598" cy="590.71353" rx="6.44" ry="34.79999" transform="translate(-196.33101 649.3558) rotate(-37)" fill="#f0f0f4"/><path d="M849.54,657.63345s2.8-21.11,19.39-25.85c0,0,56.42-16.32,68.7-16.56,0,0,12.7-3.89,21.1,5.58l8.61,11.63s6,9.48-7.32,11.2c0,0-68.19,25-97.76,27.6a41.68991,41.68991,0,0,0-5,.76C852.94,672.89346,843.87,673.15347,849.54,657.63345Z" transform="translate(-32.97998 -43.86652)" opacity="0.1" style="isolation:isolate"/><path d="M850.41,656.77346s2.8-21.11,19.38-25.85c0,0,56.42-16.32,68.7-16.56,0,0,12.7-3.9,21.1,5.58l8.62,11.63s6,9.47-7.33,11.2c0,0-68.18,25-97.75,27.6a41.53426,41.53426,0,0,0-5,.76C853.8,672.03347,844.73,672.29348,850.41,656.77346Z" transform="translate(-32.97998 -43.86652)" fill="#f0f0f4"/><path d="M856.35,654.97347s2.61-18.05,18-22.1c0,0,52.46-14,63.87-14.17,0,0,11.81-3.33,19.62,4.77l8,9.95s5.6,8.11-6.81,9.58c0,0-63.39,21.4-90.88,23.61a42.25976,42.25976,0,0,0-4.61.65C859.51,667.97347,851.08,668.23348,856.35,654.97347Z" transform="translate(-32.97998 -43.86652)" opacity="0.1" style="isolation:isolate"/><path d="M857.22,654.09347s2.6-18,18-22.1c0,0,52.46-14,63.87-14.17,0,0,11.81-3.34,19.62,4.77l8,10s5.6,8.1-6.81,9.58c0,0-63.4,21.4-90.89,23.61a41.89568,41.89568,0,0,0-4.59.65C860.37,667.15347,851.94,667.3735,857.22,654.09347Z" transform="translate(-32.97998 -43.86652)" fill="#636780"/><path d="M861.65,642.97347l-.11-.86c.77-.09,77.39-9.61,93.88-22.34l.53.68C939.27,633.30349,864.81,642.5635,861.65,642.97347Z" transform="translate(-32.97998 -43.86652)" fill="#f0f0f4"/><path d="M857.62,652.89346l-.15-.85c.84-.15,85.13-15.76,103.31-27l.46.73C942.92,637.10348,858.47,652.73348,857.62,652.89346Z" transform="translate(-32.97998 -43.86652)" fill="#f0f0f4"/><path d="M855.63,661.0635l-.16-.84c1-.19,98-18.5,110-29.23l.57.64C953.91,642.52346,859.63,660.3135,855.63,661.0635Z" transform="translate(-32.97998 -43.86652)" fill="#f0f0f4"/><path d="M986.89,665.78347c-2.71-.19-4.88-4.84-4.88-10.53s2.26-10.54,5-10.54a3.17992,3.17992,0,0,1,2.29,1.13C989.52,653.27346,987.82,661.73348,986.89,665.78347Z" transform="translate(-32.97998 -43.86652)" fill="#6c63ff"/><path d="M193.21,681.10348c0,29-8.4,52.26-25.85,52.26s-38.19-23.53-38.19-52.55,7.25-54.55,24.7-54.55S193.21,652.08346,193.21,681.10348Z" transform="translate(-32.97998 -43.86652)" fill="#f0f0f4"/><path d="M193.2,679.97347q0,3.3-.18,6.48a81.99932,81.99932,0,0,1-2.44,16.52c-2.83,10.68-8,18.1-15.54,19.51a14.70839,14.70839,0,0,1-2.69.24,21.13,21.13,0,0,1-11.16-3.62c-7.19-4.58-13.82-13.13-17.19-23.82a50.63958,50.63958,0,0,1-2.31-12.11c-.08-1.12-.12-2.26-.12-3.4a106.62075,106.62075,0,0,1,2.35-23.51,43.28009,43.28009,0,0,1,5.08-13.36c3.08-4.85,7.17-7.74,12.41-7.74a20.53993,20.53993,0,0,1,10.93,3.69,42.59009,42.59009,0,0,1,12,12.41A53.11013,53.11013,0,0,1,193.2,679.97347Z" transform="translate(-32.97998 -43.86652)" fill="#636780"/><path d="M193,686.49349a81.99933,81.99933,0,0,1-2.42,16.48c-.36-.41-10.24-11.83-17.66-4.5-5.45,5.37-.86,17.6,2.12,24a14.7092,14.7092,0,0,1-2.69.24,21.13007,21.13007,0,0,1-11.16-3.62v-.82s4.39-13.68-7.32-22.11c0,0-5.69-2.26-9.92-.9a50.63908,50.63908,0,0,1-2.31-12.11c1-.79,7.85-6.66,5.05-17.72a80.5486,80.5486,0,0,0-2.82-9.19,43.27972,43.27972,0,0,1,5.13-13.34s2.25,12.21,10.86,12.94,12.37-16.52,12.48-17a42.59009,42.59009,0,0,1,12,12.41s-13.75,5.72-9.74,20.94C177.54,682.97347,187.5,685.78347,193,686.49349Z" transform="translate(-32.97998 -43.86652)" fill="#f0f0f4"/><ellipse cx="163.77718" cy="677.5692" rx="6.45904" ry="11.19833" transform="translate(-126.24045 -14.25922) rotate(-8.04906)" fill="#636780"/><path d="M552.57,547.86349" transform="translate(-32.97998 -43.86652)"/><path d="M209.86,427.48348s10-17,44.22-18.51c0,0,250.1-32.67,408,1.28,0,0,13.48,6-1.15,9.52S310.07,435.46347,209.86,427.48348Z" transform="translate(-32.97998 -43.86652)" opacity="0.1" style="isolation:isolate"/><path d="M209.86,425.76348s10-17,44.22-18.52c0,0,250.1-32.66,408,1.29,0,0,13.48,6-1.15,9.52S310.07,433.74346,209.86,425.76348Z" transform="translate(-32.97998 -43.86652)" fill="#fff"/><path d="M186.45,497.17349c15.53-36.56,34.17-53.85,40.07-58.68a6.68,6.68,0,0,1,4.1-1.5l81.82-1.52a6.63,6.63,0,0,1,5.63,2.9,6.69,6.69,0,0,0-6.49-4.62l-81.82,1.52a6.6,6.6,0,0,0-4.1,1.5c-5.9,4.82-24.54,22.11-40.07,58.67a8.81,8.81,0,0,0,.71,8.28A8.80006,8.80006,0,0,1,186.45,497.17349Z" transform="translate(-32.97998 -43.86652)" opacity="0.1" style="isolation:isolate"/><path d="M333.73,501.25347l11.15-50.67c2-9.17,9.58-15.67,18.32-15.75l105.38-1a17.00007,17.00007,0,0,1,11,3.94,17.19007,17.19007,0,0,0-12.68-5.55l-105.38,1c-8.75.09-16.31,6.59-18.32,15.76l-11.2,50.66a23,23,0,0,0,7.42,22.6A23.17,23.17,0,0,1,333.73,501.25347Z" transform="translate(-32.97998 -43.86652)" opacity="0.1" style="isolation:isolate"/><path d="M561.58,522.59347l-37.3-77.32a7.26,7.26,0,0,1,6.4-10.41c28.41-.52,103.08-2.65,141.56-11.1-2.42-1.89-3.81-2.94-3.81-2.94-38,8.75-114.33,10.93-143.14,11.45a7.26,7.26,0,0,0-6.4,10.41l37.31,77.29a26.61991,26.61991,0,0,0,15.26,13.6A26.5704,26.5704,0,0,1,561.58,522.59347Z" transform="translate(-32.97998 -43.86652)" opacity="0.1" style="isolation:isolate"/><rect x="524.33002" y="687.62695" width="16.08002" height="4.95001" fill="#6c63ff"/><rect x="524.33002" y="687.62695" width="16.08002" height="4.95001" opacity="0.2" style="isolation:isolate"/><path d="M245.16,682.5035l-19.77,3.41a10.25047,10.25047,0,0,0,.57,2c.39,1,22-.77,22-.77l-2.08-.43Z" transform="translate(-32.97998 -43.86652)" fill="#6c63ff"/><path d="M245.16,682.5035l-19.77,3.41a10.25047,10.25047,0,0,0,.57,2c.39,1,22-.77,22-.77l-2.08-.43Z" transform="translate(-32.97998 -43.86652)" opacity="0.2" style="isolation:isolate"/><path d="M170.57,730.97347c-17.44,0-38.19-23.53-38.19-52.55,0-19.89,3.41-38.15,11.17-47.66-10,8.07-14.38,28.42-14.38,50.87,0,29,20.75,52.55,38.19,52.55,5.9,0,10.75-2.66,14.61-7.3A17.61,17.61,0,0,1,170.57,730.97347Z" transform="translate(-32.97998 -43.86652)" opacity="0.1" style="isolation:isolate"/><path d="M727.43482,768.7535c0,53.4-36.57,64.73-73.22,64.73s-57.28-45-57.28-98.42,29.71-96.7,66.36-96.7S727.43482,715.35348,727.43482,768.7535Z" transform="translate(-32.97998 -43.86652)" fill="#636780"/><path d="M727.43482,768.7535c0,53.4-36.57,64.73-73.22,64.73s-57.28-45-57.28-98.42,29.71-96.7,66.36-96.7S727.43482,715.35348,727.43482,768.7535Z" transform="translate(-32.97998 -43.86652)" opacity="0.2" style="isolation:isolate"/><path d="M702.09482,736.78347c0,53.4-23.54,96.7-52.58,96.7s-53.73-43.3-53.73-96.7c0-7.38-1.14-14.56-.29-21.46,5.31-43.07,29-75.23,54-75.23C678.55481,640.09347,702.09482,683.38345,702.09482,736.78347Z" transform="translate(-32.97998 -43.86652)" fill="#636780"/><path d="M672.59482,758.10348c0,29-8.4,52.26-25.85,52.26s-38.19-23.53-38.19-52.55,7.25-54.55,24.7-54.55S672.59482,729.08346,672.59482,758.10348Z" transform="translate(-32.97998 -43.86652)" fill="#f0f0f4"/><path d="M672.58481,756.97347q0,3.3-.18,6.48a81.9993,81.9993,0,0,1-2.44,16.52c-2.83,10.68-8,18.1-15.54,19.51a14.70831,14.70831,0,0,1-2.69.24,21.13,21.13,0,0,1-11.16-3.62c-7.19-4.58-13.82-13.13-17.19-23.82a50.63909,50.63909,0,0,1-2.31-12.11c-.08-1.12-.12-2.26-.12-3.4a106.62076,106.62076,0,0,1,2.35-23.51,43.27983,43.27983,0,0,1,5.08-13.36c3.08-4.85,7.17-7.74,12.41-7.74a20.53993,20.53993,0,0,1,10.93,3.69,42.58983,42.58983,0,0,1,12,12.41A53.11,53.11,0,0,1,672.58481,756.97347Z" transform="translate(-32.97998 -43.86652)" fill="#636780"/><path d="M672.38482,763.49349a82.00076,82.00076,0,0,1-2.42,16.48c-.36-.41-10.24-11.83-17.66-4.5-5.45,5.37-.86,17.6,2.12,24a14.70928,14.70928,0,0,1-2.69.24,21.13013,21.13013,0,0,1-11.16-3.62v-.82s4.39-13.68-7.32-22.11c0,0-5.69-2.26-9.92-.9a50.63958,50.63958,0,0,1-2.31-12.11c1-.79,7.85-6.66,5.05-17.72a80.55056,80.55056,0,0,0-2.82-9.19,43.27947,43.27947,0,0,1,5.13-13.34s2.25,12.21,10.86,12.94,12.37-16.52,12.48-17a42.58983,42.58983,0,0,1,12,12.41s-13.75,5.72-9.74,20.94C656.92481,759.97347,666.88482,762.78347,672.38482,763.49349Z" transform="translate(-32.97998 -43.86652)" fill="#f0f0f4"/><path d="M649.95482,807.97347c-17.44,0-38.19-23.53-38.19-52.55,0-19.89,3.41-38.15,11.17-47.66-10,8.07-14.38,28.42-14.38,50.87,0,29,20.75,52.55,38.19,52.55,5.9,0,10.75-2.66,14.61-7.3A17.61007,17.61007,0,0,1,649.95482,807.97347Z" transform="translate(-32.97998 -43.86652)" opacity="0.1" style="isolation:isolate"/><ellipse cx="783.75207" cy="630.3857" rx="25.73999" ry="50.25" transform="translate(-249.17432 694.96558) rotate(-45)" opacity="0.1" style="isolation:isolate"/><ellipse cx="784.61207" cy="629.52949" rx="25.73999" ry="50.25" transform="translate(-248.317 695.32291) rotate(-45)" fill="#dce0ed"/><ellipse cx="787.07831" cy="628.78261" rx="18.86999" ry="42.64001" transform="translate(-247.06653 696.84806) rotate(-45)" opacity="0.1" style="isolation:isolate"/><ellipse cx="787.08021" cy="627.9145" rx="18.86999" ry="42.64001" transform="translate(-246.45212 696.59514) rotate(-45)" fill="#f0f0f4"/><path d="M1085.47,795.10348s-42.28-2.55-37.3,27.08c0,0-1,5.23,3.76,7.61,0,0,.06995-2.19,4.34-1.45a19.31147,19.31147,0,0,0,4.59.22,9.50032,9.50032,0,0,0,5.61-2.32h0s11.89-4.91,16.51-24.33c0,0,3.42-4.24,3.28-5.33l-7.13,3s2.43995,5.15.52,9.43c0,0-.23-9.24-1.6-9-.28,0-3.71,1.78-3.71,1.78s4.19995,9,1,15.48c0,0,1.19995-11-2.34-14.83l-5,2.93s4.9,9.26,1.58,16.82c0,0,.85-11.59-2.64-16.11l-4.55005,3.55s4.61,9.13,1.80005,15.4c0,0-.37-13.49-2.79-14.51,0,0-4,3.51-4.57995,4.95,0,0,3.15,6.62,1.18994,10.12,0,0-1.2-9-2.18006-9,0,0-4,6-4.38,10,0,0,.17-6.07,3.42-10.61a11.91047,11.91047,0,0,0-6.06994,3.15s.61-4.21,7-4.58c0,0,3.28-4.52,4.15-4.79,0,0-6.4-.54-10.28,1.18,0,0,3.42-4,11.46-2.17l4.49-3.66s-8.43-1.16-12,.12c0,0,4.11-3.52,13.21-1l4.89-2.92s-7.18-1.55-11.46-1c0,0,4.51-2.44,12.9.2l3.49-1.57s-5.26-1-6.8-1.19-1.63-.59-1.63-.59a18.25966,18.25966,0,0,1,9.89,1.1S1085.59,795.57345,1085.47,795.10348Z" transform="translate(-32.97998 -43.86652)" fill="#6c63ff"/><ellipse cx="1023.37001" cy="788.50695" rx="29.92003" ry="5.06" fill="#6c63ff" opacity="0.1" style="isolation:isolate"/><ellipse cx="1117.17004" cy="694.18695" rx="16.87" ry="2.84998" fill="#6c63ff" opacity="0.1" style="isolation:isolate"/><path d="M1025.88,731.53347s-28.78-1.73-25.39,18.43a4.93,4.93,0,0,0,2.56,5.19s.05-1.5,3-1a13.14065,13.14065,0,0,0,3.13.15,6.52016,6.52016,0,0,0,3.82-1.58h0s8.09-3.34,11.24-16.56c0,0,2.31995-2.89,2.23-3.63l-4.85,2.07s1.65,3.51.35,6.42c0,0-.16-6.29-1.09-6.14-.19,0-2.52,1.21-2.52,1.21s2.85,6.11.7,10.54c0,0,.81-7.52-1.6-10.09l-3.41,2s3.33,6.31,1.07,11.45c0,0,.58-7.89-1.79-11l-3.1,2.41s3.13,6.22,1.22,10.48c0,0-.25-9.18-1.89-9.88,0,0-2.71,2.39-3.13,3.38,0,0,2.15,4.51.82,6.89,0,0-.82-6.12-1.49-6.15,0,0-2.7,4-3,6.83a14.77,14.77,0,0,1,2.33-7.22,8.18026,8.18026,0,0,0-4.14,2.14s.42-2.86,4.8-3.11c0,0,2.24-3.08,2.83-3.27,0,0-4.35-.36-7,.81,0,0,2.33-2.7,7.8-1.47l3.06-2.5s-5.74-.79-8.17.08c0,0,2.8-2.39,9-.65l3.33-2s-4.89-1.05-7.8-.67c0,0,3.07-1.66,8.78.14l2.38-1.07s-3.58-.71-4.63-.82-1.11-.4-1.11-.4a12.42935,12.42935,0,0,1,6.73.75S1026,731.85348,1025.88,731.53347Z" transform="translate(-32.97998 -43.86652)" fill="#6c63ff"/><ellipse cx="973.08002" cy="713.03698" rx="20.37" ry="3.44" fill="#6c63ff" opacity="0.1" style="isolation:isolate"/><ellipse cx="29.92" cy="744.28698" rx="29.92" ry="5.06" fill="#6c63ff" opacity="0.1" style="isolation:isolate"/><path d="M42.81,764.64346s17.06-.52,22.21-4.19,26.25-8,27.53-2.16,25.65,29.22,6.38,29.37-44.77-3-49.91-6.13S42.81,764.64346,42.81,764.64346Z" transform="translate(-32.97998 -43.86652)" fill="#a8a8a8"/><path d="M99.27,785.6235c-19.27.15-44.77-3-49.9-6.13-3.91-2.38-5.47-10.93-6-14.87H42.8s1.08,13.77,6.21,16.89,30.64,6.29,49.91,6.13c5.56,0,7.48-2,7.38-5C105.53,784.48348,103.41,785.58346,99.27,785.6235Z" transform="translate(-32.97998 -43.86652)" opacity="0.2" style="isolation:isolate"/><path d="M688,511.60348c2.86-7.68-2.24-15.77-2.24-15.77l-.41-17.58c2.25-4.65-5.5-16.17-5.5-16.17s-1.84-8.7-3.47-9.5-3.46-4.45-3.46-4.45a2.69,2.69,0,0,0-1.56-2.38,115.58071,115.58071,0,0,1-7.44-16.34c-1.14-3.12-2.15-6.45-1.5-9.71a17.26093,17.26093,0,0,1,.73-2.42c.07-.17.13-.33.19-.5s0-.14.08-.2l.07-.18a12.53939,12.53939,0,0,0,1.2-5.19c-.23-3.75-3.68-6.49-7.11-8.08s-7.28-2.62-10-5.27c-3.38-3.31-4.16-8.34-5-13s-2-9.69-5.82-12.49c-3.38-2.48-8-2.53-12.13-1.83a40.41,40.41,0,0,0-15.64,6.23c-4.55,3.06-8.61,7.11-13.87,8.7-1.93.58-4,.81-5.88,1.44a14.51008,14.51008,0,0,0-8.75,8.76h0c-.07.19-.12.38-.19.57s-.16.47-.23.71-.1.41-.14.61-.12.47-.16.71-.07.41-.09.61-.07.49-.09.73a5.983,5.983,0,0,0,0,.6v.76a32.05028,32.05028,0,0,0-5.6,7c-6.72,10.66-15.09,26.07-18.81,33l-.18.34v-.21s-16.41,16.47-6.83,14.25a19.56949,19.56949,0,0,1,2-.36l-.17,1.87991v.05c-1.53,1.92-8.16,8.56,4.17,13.48,10.23,4.08,31.14,5.12,38,5.36l-.6,2.89c-10.6,8.69-6.52,18.6-6.72,25.07s-1.23,14.15-1.23,14.15-4.49,7.28-3.87,11.12-3.26,10.11-3.26,10.11-5.71,6.26-5.1,10.31-1,9.29-1,9.29-3.87,7.08-2.24,11.12.82,6.27.82,6.27-8.36,1.21-9,5.66-8.15,6.06-8.15,6.06-13.45,4.85-16.72,7.08-20.58,18.39-20.58,18.39-17.39007,17.89-18.31009,19.69-11.16,9.55-6.42,16.83c.24.36.48.73.73,1.09a61.92994,61.92994,0,0,0,18.81,17.83c3.28,2,6.55,4.28,7.52,5.79,2.14,3.34,37.92,26.23,37.92,26.23s15.72,13.82,25.84,23.45l.77,4.63c-.13.2-.26.41-.39.65a2.81,2.81,0,0,0,1,2.74l.14.82s4.08,34.37,7.75,50.44c2.43,10.63.7,18.65-.74,22.86-3.8-4.21-4.25-5.73-4.25-5.73a43.27247,43.27247,0,0,0-2.6,8.47c-.06.43-.1.83-.12,1.21a.31.31,0,0,0-.27.12l-1.43,2c-1.56,2.15-2.93,4.44-4.32,6.7-3.21,5.21-13.28,7.64-13.28,7.64a9.88966,9.88966,0,0,1-2.7,1,30.99985,30.99985,0,0,1-8.56.26,13.99751,13.99751,0,0,0-2.53.62,9.79253,9.79253,0,0,0-1.92.88h0c-4.39,2.84-2.79,8.08-2.79,8.08h0l.11.07.11.07.18.11.27.17.23.13.24.15.25.14.31.17.26.15.66.35.31.17.43.22.35.17.47.23.46.21c.26.13.53.25.81.37l.47.21.54.22.52.21.54.21,1,.37.5.17.71.24.54.17.82.24.45.12c.41.12.83.22,1.26.32l.42.09c.33.08.66.15,1,.21l.25.06h.21c.36.07.72.12,1.09.18h.32l1.44.17h.33c.38,0,.76.06,1.15.08h2.02q.75,0,1.5-.06h.31l1.23-.12.54-.08,1.08-.18.51-.1c.52-.11,1-.23,1.57-.37a97.58056,97.58056,0,0,1,35-3c9,.76,11.26-2.32,11.26-2.32a5.34791,5.34791,0,0,0,.45-.77,2.89064,2.89064,0,0,0,.13-.31,5.36857,5.36857,0,0,0,.21-.56,1.90255,1.90255,0,0,1,.11-.39c.03-.13.09-.39.13-.59s0-.28.07-.42,0-.16,0-.24a5.63372,5.63372,0,0,0,.05-.59,22.23857,22.23857,0,0,0-.36-5.18,59.466,59.466,0,0,0-3.28-11l-.64.44q-.10995-.4899-.21-1c-2.2-11.85-3-40.28-3-43.29h0a5.39012,5.39012,0,0,0,3.42-1.18c.17-.14.26-.23.26-.23,7.64-6.21,3.89-34.57,1.37-38.51s-3-24.18-3.9-30.62c-.43-3.06-2-3.95-4.13-4a8.87191,8.87191,0,0,0-.89,0c-.3-6,.58-20.11,1.26-29.74h0c0-.62.09-1.23.13-1.81l1.93.1,2.85-17S616,644.41348,626,626.6235s11-37.19,11-37.19,3.06-5.86,2.24-8.49c-.21-.68-.54-2.6-.93-5.09a66.60755,66.60755,0,0,1,10.69-5.22c10.69-4.32,18.71-12.41,22.43-16.42l.59-.64a45.01207,45.01207,0,0,1,2.52,4.33s8.77-6.07,13.25-11.33a6.939,6.939,0,0,0,1.13-2c2.7-6.72-.06-21.09-.06-21.09C692.37,517.27346,688,511.60348,688,511.60348Z" transform="translate(-32.97998 -43.86652)" fill="url(#baba47d1-9dc7-476e-ad38-6e03762f13bc)"/><g opacity="0.1"><path d="M643.87,552.5035c-.41.75-3.35,2.51-6.93,4.45-.33-2.61-.57-4.58-.62-5.19-.21-2.23,4.55-12.22,4.55-12.22s9.11-12.22,8.9-14.06,3.52-7.12,3.52-7.12l8.26-13.39008a6,6,0,0,0,.85,6.27c2.49,3.26.41,9.78.41,9.78l.51,8.22v.82c-.29.29-1.62,1.56-4.56,4.21-2.71,2.44-2.23,3.19-1.92,3.39-.62,1.1.14,1.29.14,1.29a4.37432,4.37432,0,0,0,.72-.06l-.66.61C652,544.22347,644.61,551.17349,643.87,552.5035Z" transform="translate(-32.97998 -43.86652)" fill="url(#fac03133-0e52-4df9-b1a8-e1e979d1daa6)"/></g><path d="M589.27,400.97347c-2.47,2.58.34,6.2-1.58,9-1.09,1.57-3.49,2.56-4.85,4-2.65,2.88-.65,6.56.63,9.84,4.68,11.94-2.34,25.55-17,33a30.71012,30.71012,0,0,0,20.15,1.65c6.56-1.75,11.61-5.84,12.93-10.48,1-3.29.14-6.79,1.83-9.94,2.63-4.91,10.68-7.86,13.06-12.82,1.86-3.89-.17-8.09-2.54-11.85a94.05964,94.05964,0,0,0-10.13-13.22c-2.3-2.51-2.3-3.5-6-2.83A17.71007,17.71007,0,0,0,589.27,400.97347Z" transform="translate(-32.97998 -43.86652)" fill="#985c7e"/><path d="M611.16,435.97347a38.42883,38.42883,0,0,1-2.35,10.36c-1.4,4.24-2.84,8.53-5.25,12.3s-5.95,7-10.27,8.15a12.86,12.86,0,0,0,10.7,3.09c2.75-.49,5.53-1.88,8.19-1a26.06815,26.06815,0,0,1,3.53,1.89c3.92,2,9,.52,11.84-2.85a13.45,13.45,0,0,0,2.07-12.44c-.8-2.53-2.23-4.84-3-7.4-1.09-3.78-.66-8-2.49-11.48-2.66-5-10-8-15.06-10C608.82,429.31347,611.28,432.77346,611.16,435.97347Z" transform="translate(-32.97998 -43.86652)" fill="#985c7e"/><path d="M604.23,426.64349a38.44863,38.44863,0,0,1-2.35,10.33c-1.39,4.25-2.83,8.54-5.25,12.3s-5.94,7-10.26,8.15a12.8,12.8,0,0,0,10.69,3.09c2.75-.48,5.53-1.88,8.19-1a24.94027,24.94027,0,0,1,3.53,1.88c3.92,2,9,.52,11.84-2.85a13.42,13.42,0,0,0,2.07-12.44c-.8-2.53-2.23-4.84-3-7.4-1.09-3.78-.66-8-2.49-11.48-2.66-5-10.05-8-15.06-10C601.89,419.97347,604.35,423.39349,604.23,426.64349Z" transform="translate(-32.97998 -43.86652)" opacity="0.1" style="isolation:isolate"/><path d="M609.19,659.89346s-3,36.68-1.71,41.59,3.52,71.26,3.52,71.26.9,38.68,3.91,46.8-20.35,5.81-21.15,5.71-6.61-16.54-6.61-16.54,5.71-10,2.1-26-7.61-50-7.61-50L575,692.66348s.9-9.42-2.6-14.73-8-40.08-7-43.09,24.82-9.62,24.82-9.62l10.26,13.43Z" transform="translate(-32.97998 -43.86652)" fill="#ecb4b6"/><path d="M565.73,642.51345v.71c.07.66.14,1.36.22,2.08,1.25,11.61,4.12,29,6.51,32.63s2.73,9.19,2.7,12.33v1a10.52417,10.52417,0,0,1-.08,1.42l5.09,30.83.22,1.31,1.31,7.95s4,34.08,7.62,50a42.21011,42.21011,0,0,1-.46,21.82c-.1.33-.2.65-.3.94a20.3635,20.3635,0,0,1-1.35,3.19s.82,2.32,1.89,5.23l.74,2c.14.36.27.71.4,1.07,1.55,4.09,3.19,8.18,3.59,8.23.79.1,24.15,2.4,21.14-5.71a23.99482,23.99482,0,0,1-.9-3.62c-2.29-12.41-3-43.18-3-43.18s-2.2-66.34-3.51-71.26c-.86-3.27.18-20.61,1-31.84h0c.39-5.63.73-9.72.73-9.72l-8.72-21.24-10.26-13.43s-17.1,4.75-22.93,8l-.17.09a3.94,3.94,0,0,0-1.72,1.5C565.24,635.6235,565.36,638.53347,565.73,642.51345Z" transform="translate(-32.97998 -43.86652)" opacity="0.07" style="isolation:isolate"/><path d="M581.23,688.86349s11.32,3,10.32,6.31Z" transform="translate(-32.97998 -43.86652)" opacity="0.05" style="isolation:isolate"/><path d="M587.25,808.71347s1.23,3.47,2.63,7.24c1.6.76,2.82,1.23,2.82,1.23s4.36-4.05-1.4-10c-.93-1-1.72-1.81-2.4-2.58A22.11172,22.11172,0,0,1,587.25,808.71347Z" transform="translate(-32.97998 -43.86652)" opacity="0.1" style="isolation:isolate"/><path d="M581.72,810.67349c.44,2.4,5.71,5.06,8.56,6.35,1.08.48,1.82.77,1.82.77a5.50943,5.50943,0,0,0,1.21-1.92c.66-1.75.78-4.6-2.61-8.11-.8-.82-1.49-1.56-2.1-2.24-3.82-4.25-4.27-5.77-4.27-5.77a43.58071,43.58071,0,0,0-2.54,8.4A8.06,8.06,0,0,0,581.72,810.67349Z" transform="translate(-32.97998 -43.86652)" fill="#cc8294"/><path d="M581.72,810.67349c.44,2.4,5.71,5.06,8.56,6.35,1.55,4.09,3.19,8.18,3.59,8.23.79.1,24.15,2.4,21.14-5.71a23.99362,23.99362,0,0,1-.9-3.62l-6.48,4.57c-3.3,2.35-8.26.6-8.26.6l-6.06-5.22-1.51-1.29a9.00021,9.00021,0,0,1-2.66-.64,12.86014,12.86014,0,0,1-5.21-4.18c-1.15-1.22-1.8-1.56-2.14-1.61A8.05852,8.05852,0,0,0,581.72,810.67349Z" transform="translate(-32.97998 -43.86652)" opacity="0.1" style="isolation:isolate"/><path d="M544.5,836.3735a41.381,41.381,0,0,0,14.33,5.74,29.00008,29.00008,0,0,0,13.08-.37,95.19978,95.19978,0,0,1,34.37-3c8.82.75,11.07-2.3,11.07-2.3,1.47-2,1.42-5.48.83-9a59.61909,59.61909,0,0,0-3.18-10.91s-4,2.81-7.32,5.16-8.26.61-8.26.61l-7.57-6.52c-4.81-.35-7.87-4.81-7.87-4.81-2.11-2.26-2.54-1.51-2.54-1.51L580,811.40347c-1.54,2.14-2.89,4.4-4.26,6.65-3.15,5.16-13,7.58-13,7.58a10.50034,10.50034,0,0,1-2.65.94,30.25847,30.25847,0,0,1-8.43.25,11.18964,11.18964,0,0,0-4.22,1.44C542.88,831.05349,544.5,836.3735,544.5,836.3735Z" transform="translate(-32.97998 -43.86652)" fill="#cc8294"/><circle cx="557.22998" cy="776.17694" r="0.78003" fill="#4b4b5b"/><circle cx="547.63" cy="780.26696" r="0.78003" fill="#4b4b5b"/><circle cx="551.41998" cy="786.08697" r="0.78003" fill="#4b4b5b"/><circle cx="538.21002" cy="784.11694" r="0.78003" fill="#4b4b5b"/><circle cx="552.97998" cy="778.70697" r="0.78003" fill="#4b4b5b"/><circle cx="556.72998" cy="785.67694" r="0.78003" fill="#4b4b5b"/><circle cx="542.97998" cy="782.54693" r="0.78003" fill="#4b4b5b"/><circle cx="533.04999" cy="785.30694" r="0.78003" fill="#4b4b5b"/><path d="M544.5,836.3735s13.43,9.23,27.41,5.37a95.19986,95.19986,0,0,1,34.37-3c8.82.75,11.07-2.3,11.07-2.3a6.81,6.81,0,0,0,1.13-3.25,2.68626,2.68626,0,0,1,.06-.69,23.37128,23.37128,0,0,0-.36-5c-1.84,1.37-5.64,3-13.35,3.29-13.33.42-30.92,3.83-30.92,3.83l-17-.7s-9.52-2.06-9.48-5.61C542.88,831.05349,544.5,836.3735,544.5,836.3735Z" transform="translate(-32.97998 -43.86652)" opacity="0.1" style="isolation:isolate"/><path d="M568.34,839.67349a3.998,3.998,0,0,0,.85.07c3,0,10.24-1.58,14.56-2.59a20.3409,20.3409,0,0,1,3.72-.53c4-.21,13.79-.68,19.31-.64h.13a29.15054,29.15054,0,0,0,11.57-2.8,2.68626,2.68626,0,0,1,.06-.69,28.64984,28.64984,0,0,1-11.76,2.88c-5.52,0-15.36.44-19.34.65a21.6694,21.6694,0,0,0-3.83.54c-3.83.9-13,2.95-15.16,2.52Z" transform="translate(-32.97998 -43.86652)" fill="#cc8294"/><path d="M575.2,691.24349a10.52417,10.52417,0,0,1-.08,1.42l5.09,30.83c.91.87,1.79,1.7,2.62,2.51a66.99881,66.99881,0,0,1,7.11,7.5c3,4.66,13.63,2.26,13.43,1.81s-4.56-22.4-4.56-22.4l-3.45-8.87s-3.6,2.25-7.14-1.5c-2.23-2.37-7.22-7-10.61-10.1l-2.39-2.18C575.22,690.6235,575.21,690.97347,575.2,691.24349Z" transform="translate(-32.97998 -43.86652)" opacity="0.03" style="isolation:isolate"/><path d="M565.74,642.60348v.62c.07.66.14,1.36.22,2.08.74-.27,1.47-.56,2.19-.88l1-.46a52.65016,52.65016,0,0,0,9.31-5.76l-8.72-3.75-2.58-1.11a3.94,3.94,0,0,0-1.72,1.5A39.957,39.957,0,0,0,565.74,642.60348Z" transform="translate(-32.97998 -43.86652)" opacity="0.05" style="isolation:isolate"/><path d="M490.88,650.22347c.24.36.47.72.72,1.08a61.15994,61.15994,0,0,0,18.49,17.67c3.23,2,6.44,4.25,7.4,5.75,2.1,3.3,37.28,26,37.28,26s16.37,14.5,26.26,24.07l1.26,1.22.61.6c.73.71,1.39,1.38,2,2,.88.89,1.61,1.67,2.17,2.32.21.24.4.46.56.66a7.70454,7.70454,0,0,1,.52.7c3,4.66,13.63,2.25,13.43,1.8S597,711.71347,597,711.71347l-3.46-8.87a5.38987,5.38987,0,0,1-4.54.3,7.0006,7.0006,0,0,1-2.59-1.81c-2.23-2.36-7.23-7-10.62-10.09-2-1.84-3.44-3.14-3.44-3.14l-11.28-12.77s-14.43-18.79-25.25-23.45c0,0,12.19-5,20.89-6.32a37.999,37.999,0,0,0,9.67-2.34l1-.47a53.1085,53.1085,0,0,0,9.31-5.76L568,633.2535l-45.84-19.71c-.28,0-2.94.18-4.89.31l-2.07.14s-17.09,17.74-18,19.55S486.22,642.97347,490.88,650.22347Z" transform="translate(-32.97998 -43.86652)" fill="#ecb4b6"/><path d="M541.39,641.97347s-19.69,2.41-23.6,6.47c0,0,17.29,1.2,18,3.46,0,0-9.88-6.69-12.63-5Z" transform="translate(-32.97998 -43.86652)" opacity="0.03" style="isolation:isolate"/><path d="M582.29,726.02346l.61.6c.73.71,1.39,1.38,2,2,.88.89,1.61,1.67,2.17,2.32l2.55-3.3a10.53992,10.53992,0,0,0-2.9-1.76,5,5,0,0,0-4.41.14Z" transform="translate(-32.97998 -43.86652)" opacity="0.05" style="isolation:isolate"/><path d="M583.54,733.39346a13.8324,13.8324,0,0,0,2.06.85l2-2.64,2.59-3.36a10.37988,10.37988,0,0,0-2.9-1.75,4.99988,4.99988,0,0,0-4.41.13,6.41037,6.41037,0,0,0-2.35,2.59S579.77,731.46347,583.54,733.39346Z" transform="translate(-32.97998 -43.86652)" fill="#cc8294"/><path d="M583.13,732.97347l.41.41a13.8324,13.8324,0,0,0,2.06.85l2-2.64a7.70454,7.70454,0,0,1,.52.7c3,4.66,13.63,2.25,13.43,1.8S597,711.71347,597,711.71347l-3.46-8.87a5.38987,5.38987,0,0,1-4.54.3c-.8.82-.94,1.85,0,3.15a21.16046,21.16046,0,0,1,3.41,10c1.35,3.72-2.75,8.28-5.11,10.2a7.361,7.361,0,0,1-1.27.85,2.94024,2.94024,0,0,0-1.15,1.28A24.21428,24.21428,0,0,0,583.13,732.97347Z" transform="translate(-32.97998 -43.86652)" opacity="0.05" style="isolation:isolate"/><path d="M584.33,732.97347l4.56,4.58a34.11,34.11,0,0,1,13.8,17.22,36.8422,36.8422,0,0,0,1.63,4,17.89916,17.89916,0,0,1,1.19,5.62c.11,1.17.16,2.32.2,3.32a5.4,5.4,0,0,0,1.36,3.47l.06.06a5.39,5.39,0,0,0,7.37.63c.16-.13.25-.22.25-.22,7.51-6.16,3.83-34.28,1.35-38.19s-2.93-24-3.84-30.36c-.42-3-2-3.92-4.06-4s-4.77.81-7.12,1.07h-.38c-4.67.37-13.62,1.75-10.49,6.08a21,21,0,0,1,3.41,10c1.66,4.58-5,10.45-6.38,11S584.33,732.97347,584.33,732.97347Z" transform="translate(-32.97998 -43.86652)" fill="#cc8294"/><circle cx="557.94" cy="686.27697" r="1.33002" fill="#4b4b5b"/><circle cx="559.96997" cy="691.25695" r="1.33002" fill="#4b4b5b"/><circle cx="566.21002" cy="699.27697" r="1.33002" fill="#4b4b5b"/><circle cx="563.12" cy="695.15698" r="1.33002" fill="#4b4b5b"/><circle cx="568.79999" cy="704.02697" r="1.33002" fill="#4b4b5b"/><path d="M607.08,751.97347s1.11,13.05,0,19.15a5.41,5.41,0,0,0,7.43.69c.16-.13.25-.22.25-.22,7.51-6.16,3.83-34.28,1.35-38.19s-2.93-24-3.84-30.36c-.42-3-2-3.92-4.06-4s-4.77.81-7.12,1.07c0,6.37.36,21,2,25.86C605.28,732.2535,607.08,751.97347,607.08,751.97347Z" transform="translate(-32.97998 -43.86652)" opacity="0.1" style="isolation:isolate"/><path d="M610.39,725.42349c1.4,4.93,3.5,18.45,3.31,25.67-.15,5.3.46,15.63.8,20.74.16-.13.25-.22.25-.22,7.51-6.16,3.83-34.28,1.35-38.19s-2.93-24-3.84-30.36c-.42-3-2-3.92-4.06-4C608.48,705.5635,609.28,721.52346,610.39,725.42349Z" transform="translate(-32.97998 -43.86652)" opacity="0.1" style="isolation:isolate"/><path d="M605.27,699.41348c.28,5.13,1.12,18.81,2.5,22.72,1.72,4.9,3.54,28.34,3.62,29.34h-.6c0-.25-1.9-24.37-3.59-29.19-1.41-4-2.25-17.58-2.52-22.8Z" transform="translate(-32.97998 -43.86652)" fill="#cc8294"/><path d="M600.87,446.83346s-9.72,1.73-15.23,3.77-6.32,3.15-6.32,3.15l-5.71.9v-6.11s-20.46,1.51-22.52.68a.49.49,0,0,1-.13-.08c-1-1,.6,7.92-.9,9.82s-8,8.48,4.11,13.36,39.58,5.38,39.58,5.38l7.82-15.43Z" transform="translate(-32.97998 -43.86652)" fill="#ff718d"/><path d="M631.63,476.30346l-21.63-4.61a52.39991,52.39991,0,0,0,6.26-16.56c.79-4.63.68-9.58-1.45-13.91-6.22-12.62,16.82-19.25,16.82-19.25s8.43,13,16,19.59c2.54,2.19,5,3.66,7,3.66C662.7,445.23348,631.63,476.30346,631.63,476.30346Z" transform="translate(-32.97998 -43.86652)" fill="#ecb4b6"/><path d="M515.19,615.80349s9.41,22.25,18,22.65c5.19.24,21.19,2.44,33.12,4.15l1.07.15a53.10938,53.10938,0,0,0,9.31-5.76L568,633.2535l-45.84-19.71c-.28,0-2.94.18-4.89.31Z" transform="translate(-32.97998 -43.86652)" opacity="0.1" style="isolation:isolate"/><path d="M582.53,635.24349c8.18,1.18-2.21,9.42-2.21,9.42s4,3,8.62,14,6.82,10.22,6.82,10.22l12.81.7c.39-5.63.73-9.72.73-9.72l-8.72-21.24-10.26-13.43s-17.1,4.75-22.93,8l-.17.09a3.94,3.94,0,0,0-1.72,1.5C565.24,635.6235,582.16,631.26345,582.53,635.24349Z" transform="translate(-32.97998 -43.86652)" opacity="0.1" style="isolation:isolate"/><path d="M631.63,476.30346l-21.63-4.61a52.39991,52.39991,0,0,0,6.26-16.56l6.77,6.53a16.72016,16.72016,0,0,0,9.27-2.71,14.17963,14.17963,0,0,0,3.16-2.9c4.81-6,10.61-13.83,10.61-13.83s.68-.31,1.61-.65c2.54,2.19,5,3.66,7,3.66C662.7,445.23348,631.63,476.30346,631.63,476.30346Z" transform="translate(-32.97998 -43.86652)" opacity="0.1" style="isolation:isolate"/><path d="M515.19,613.97347s9.41,22.25,18,22.66,47.1,6.21,47.1,6.21,4,3,8.62,14,6.82,10.23,6.82,10.23l14.83.8,2.81-16.83s1.6-6.22,11.42-23.86,10.82-36.87,10.82-36.87,3-5.82,2.21-8.42-3.41-23.26-3.61-25.46,4.41-12,4.41-12,8.82-12,8.62-13.83,3.41-7,3.41-7l8-13.19a6,6,0,0,0,.83,6.17c2.4,3.21.39,9.62.39,9.62l.49,8.09.11,1.94s-1.2,1.2-4.48,4.21-1.73,3.4-1.73,3.4c10.23-1.4,18.24,15.24,18.24,15.24s8.62-6,13-11.23a6.92852,6.92852,0,0,0,1.11-1.93c2.66-6.67-.06-20.92-.06-20.92,3.47-6.21-.85-11.83-.85-11.83,2.81-7.61-2.2-15.63-2.2-15.63l-.4-17.44c2.2-4.6-5.42-16-5.42-16s-1.8-8.62-3.41-9.42-3.4-4.41-3.4-4.41c.2-4-10.43-4.41-11.42-4.61a19.42987,19.42987,0,0,1-3.63-2.12,31.5001,31.5001,0,0,0-3.19-1.89c-1.81-.8-6.62,1.41-6.62,1.41s-5.8,7.81-10.62,13.83a13.93,13.93,0,0,1-3.15,2.9,16.72,16.72,0,0,1-9.24,2.68l-6.9-6.65-20.36,1.24-4.74,23.45c-10.43,8.61-6.42,18.44-6.62,24.85s-1.2,14-1.2,14-4.41,7.22-3.81,11-3.21,10-3.21,10-5.61,6.21-5,10.22-1,9.22-1,9.22-3.8,7-2.2,11,.8,6.22.8,6.22-8.22,1.2-8.82,5.61-8,6-8,6-13.22,4.81-16.44,7S515.19,613.97347,515.19,613.97347Z" transform="translate(-32.97998 -43.86652)" fill="#ff718d"/><path d="M683.55,515.97347s-15,1.81-16.84,4,15,2.41,15,2.41Z" transform="translate(-32.97998 -43.86652)" opacity="0.1" style="isolation:isolate"/><path d="M661.3,527.91348s11-3.91,11.32-2.71-11.32,7.82-11.32,7.82Z" transform="translate(-32.97998 -43.86652)" opacity="0.1" style="isolation:isolate"/><path d="M656.69,506.56347c-1.91,3.01-17.69,22.41-17.69,22.41l17-24.81Z" transform="translate(-32.97998 -43.86652)" opacity="0.1" style="isolation:isolate"/><path d="M654.38,501.25347c-1.2,1.6-13.93,22.45-13.93,22.45l12.83-23.45Z" transform="translate(-32.97998 -43.86652)" opacity="0.1" style="isolation:isolate"/><path d="M681,476.30346s-4.91-6.92-9.72-2.51S681,476.30346,681,476.30346Z" transform="translate(-32.97998 -43.86652)" opacity="0.1" style="isolation:isolate"/><path d="M646.67,470.38348s-12.53,0-18.64,2.81S633.44,464.77346,646.67,470.38348Z" transform="translate(-32.97998 -43.86652)" opacity="0.1" style="isolation:isolate"/><path d="M632.29,460.97347h1.85s4.31-1.6,5.41-4.92,9.77-.29,9.77-.29,1.25.94.15-.6,3.81-6.41,6-9.62a2.68967,2.68967,0,0,0,.38-.81,30.04438,30.04438,0,0,0-3.19-1.9c-1.81-.8-6.62,1.41-6.62,1.41s-5.8,7.82-10.62,13.83A13.92915,13.92915,0,0,1,632.29,460.97347Z" transform="translate(-32.97998 -43.86652)" opacity="0.1" style="isolation:isolate"/><path d="M632.29,459.76348h1.85s4.31-1.6,5.41-4.92,9.77-.29,9.77-.29,1.25.94.15-.6,3.81-6.41,6-9.62a2.73927,2.73927,0,0,0,.38-.82,31.49914,31.49914,0,0,0-3.19-1.89c-1.81-.8-6.62,1.41-6.62,1.41s-5.8,7.81-10.62,13.83A13.92859,13.92859,0,0,1,632.29,459.76348Z" transform="translate(-32.97998 -43.86652)" fill="#ff718d"/><circle cx="584.52002" cy="428.45697" r="1.33" fill="#e7c7ca"/><circle cx="561.65997" cy="459.55694" r="1.33" fill="#e7c7ca"/><circle cx="569.90997" cy="439.92697" r="1.33" fill="#e7c7ca"/><circle cx="557.96997" cy="479.77694" r="1.33" fill="#e7c7ca"/><circle cx="541.03003" cy="514.65698" r="1.33002" fill="#e7c7ca"/><circle cx="539.70001" cy="532.52697" r="1.33002" fill="#e7c7ca"/><path d="M553.27,446.83346l2.7,8.72,8.52-.6,7.61-8.12s.5-1.46,1.28-3.63c1.92-5.37,5.55-15.12,7.55-18.12,2.8-4.2,4.61-21.64,4.61-21.64s-3.08-7-11.87,7c-6.61,10.56-14.84,25.84-18.49,32.74C554,445.47347,553.27,446.83346,553.27,446.83346Z" transform="translate(-32.97998 -43.86652)" fill="#ecb4b6"/><path d="M591,568.90347c0,2.14,9,3.14,13.25,3.5l2.18.15c-1,2.26,4.31,19.5,4.31,19.5a9.99693,9.99693,0,0,0,1.34-.17c7-1.41,20.81-11.06,20.81-11.06s.3-3.31,14.58-9.11c10.51-4.29,18.38-12.31,22.05-16.29a24.55521,24.55521,0,0,1,2.25-2.36l-12.68-13.09009s-2.05,1.9-4.75,4.45c-4.94,4.67-12.07,11.5-12.79,12.82-1.1,2-20.94,11.7-20.94,11.7-4.41-3.81-13.93-4.61-13.93-4.61S591,566.09347,591,568.90347Z" transform="translate(-32.97998 -43.86652)" fill="#ecb4b6"/><path d="M614.5,523.70346c-.6,1.2-27.76,19.24-32.37,19.54s4.31-8.62,4.61-8.72S614.5,523.70346,614.5,523.70346Z" transform="translate(-32.97998 -43.86652)" opacity="0.1" style="isolation:isolate"/><path d="M468,810.11349l-1-.23Z" transform="translate(-32.97998 -43.86652)" opacity="0.1" style="isolation:isolate"/><path d="M547.24,828.32345a10.99983,10.99983,0,0,1,4.22-1.44,29.99945,29.99945,0,0,0,8.43-.26,20.10035,20.10035,0,0,0-.62,7.41l-2.55-.1S547.2,831.86349,547.24,828.32345Z" transform="translate(-32.97998 -43.86652)" fill="#fff" opacity="0.3" style="isolation:isolate"/><path d="M468.64,810.24349l-.54-.11Z" transform="translate(-32.97998 -43.86652)" opacity="0.1" style="isolation:isolate"/><path d="M454.33,804.52346Z" transform="translate(-32.97998 -43.86652)" opacity="0.1" style="isolation:isolate"/><path d="M454.35,804.53347Z" transform="translate(-32.97998 -43.86652)" opacity="0.1" style="isolation:isolate"/><path d="M468.1,810.13345h0Z" transform="translate(-32.97998 -43.86652)" opacity="0.1" style="isolation:isolate"/><path d="M605.51,764.35348c.11,1.17.16,2.32.2,3.32a5.4,5.4,0,0,0,1.36,3.47l.06.06a48.243,48.243,0,0,0,.44-7.13C607.36,764.38345,606.46,764.41348,605.51,764.35348Z" transform="translate(-32.97998 -43.86652)" fill="#fff" opacity="0.3" style="isolation:isolate"/><path d="M654.34,544.38345c6.53-.41,12.1,6.37,15.13,11a24.55521,24.55521,0,0,1,2.25-2.36l-12.63-13.05S657,541.83346,654.34,544.38345Z" transform="translate(-32.97998 -43.86652)" opacity="0.1" style="isolation:isolate"/><path d="M654.28,542.64346c10.23-1.4,18.24,15.24,18.24,15.24s8.62-6,13-11.23a7,7,0,0,0,1.11-1.94c-2.38-5.72-8.95-15.25-26.28-11.62l.11,1.94s-1.2,1.2-4.48,4.2S654.28,542.64346,654.28,542.64346Z" transform="translate(-32.97998 -43.86652)" opacity="0.1" style="isolation:isolate"/><path d="M654.28,543.84347c10.23-1.4,18.24,15.24,18.24,15.24s8.62-6,13-11.23a6.92852,6.92852,0,0,0,1.11-1.93c-2.38-5.72-8.95-15.26-26.28-11.63l.11,1.94s-1.2,1.2-4.48,4.21S654.28,543.84347,654.28,543.84347Z" transform="translate(-32.97998 -43.86652)" fill="#ff718d"/><path d="M654.28,543.84347c10.23-1.4,18.24,15.24,18.24,15.24s8.62-6,13-11.23a6.92852,6.92852,0,0,0,1.11-1.93c-2.38-5.72-8.95-15.26-26.28-11.63l.11,1.94s-1.2,1.2-4.48,4.21S654.28,543.84347,654.28,543.84347Z" transform="translate(-32.97998 -43.86652)" fill="#fff" opacity="0.1" style="isolation:isolate"/><path d="M553.27,446.83346l2.7,8.72,8.52-.6,7.61-8.12s.5-1.46,1.28-3.63c-1.08.61-8.44,4.69-12.9,4.91-3.55.18-4.86-3.14-5.3-4.91C554,445.47347,553.27,446.83346,553.27,446.83346Z" transform="translate(-32.97998 -43.86652)" opacity="0.1" style="isolation:isolate"/><path d="M550.61,449.89349l.56-.65c2-2.32,3.8-4.11,3.8-4.11a9.33991,9.33991,0,0,0,1.73,4.31,4.38,4.38,0,0,0,3.78,1.68,23.99988,23.99988,0,0,0,7.48-2.21c3-1.34,5.55-2.78,5.55-2.78v2.41l.05,2.4v5.51s2.1,14.63-17.34,6.82c0,0,1.21-5.37-6.18-4.35Z" transform="translate(-32.97998 -43.86652)" opacity="0.1" style="isolation:isolate"/><path d="M573.51,444.33346l.1,4.81v5.51s2.1,14.63-17.34,6.82c0,0,1.41-6.22-8-4s6.73-14.14,6.73-14.14.68,6.23,5.51,6S573.51,444.33346,573.51,444.33346Z" transform="translate(-32.97998 -43.86652)" fill="#ff718d"/><path d="M573.51,444.33346l.1,4.81v5.51s2.1,14.63-17.34,6.82c0,0,1.41-6.22-8-4s6.73-14.14,6.73-14.14.68,6.23,5.51,6S573.51,444.33346,573.51,444.33346Z" transform="translate(-32.97998 -43.86652)" fill="#fff" opacity="0.1" style="isolation:isolate"/><path d="M610.59,597.46347c-.2-.3-1-24.25-4.11-24.85s-10.82,2.6-10.82,2.6l1.4,19.14Z" transform="translate(-32.97998 -43.86652)" opacity="0.1" style="isolation:isolate"/><path d="M606.38,572.55349c-1,2.26,4.31,19.5,4.31,19.5a9.99672,9.99672,0,0,0,1.34-.17c-.49-7.13-1.53-19.45-3.75-19.87a10.64055,10.64055,0,0,0-4.08.39Z" transform="translate(-32.97998 -43.86652)" opacity="0.1" style="isolation:isolate"/><path d="M611.79,596.86349c-.2-.3-1-24.25-4.11-24.86s-10.82,2.61-10.82,2.61l1.4,19.14Z" transform="translate(-32.97998 -43.86652)" fill="#ff718d"/><path d="M611.79,596.86349c-.2-.3-1-24.25-4.11-24.86s-10.82,2.61-10.82,2.61l1.4,19.14Z" transform="translate(-32.97998 -43.86652)" fill="#fff" opacity="0.1" style="isolation:isolate"/><path d="M584,454.58346c2.42-3.76,3.86-8.05,5.25-12.3a59.00693,59.00693,0,0,0,1.8-6.23,24.81005,24.81005,0,0,0,17,10.56,49.67261,49.67261,0,0,1,2,4.78,13.4,13.4,0,0,1-2.05,12.43c-2.8,3.38-7.92,4.82-11.84,2.85a24.40962,24.40962,0,0,0-3.53-1.88c-2.66-.84-5.44.55-8.19,1a12.81,12.81,0,0,1-10.69-3.1C578.1,461.58346,581.63,458.34347,584,454.58346Z" transform="translate(-32.97998 -43.86652)" fill="#985c7e"/><circle cx="578.81" cy="379.73697" r="24.84999" opacity="0.1" style="isolation:isolate"/><circle cx="578.81" cy="378.11697" r="24.84999" fill="#ecb4b6"/><path d="M593.4,414.22347c-2.92-2-7.22-.41-10.3-2.18a7.68981,7.68981,0,0,1-3.1-4.07c-2.69-7.1,1.55-16,8.75-18.41,1.88-.63,3.88-.85,5.78-1.43,5.17-1.58,9.16-5.59,13.64-8.62a39.41052,39.41052,0,0,1,15.37-6.18c4.08-.7,8.6-.65,11.93,1.81,3.75,2.78,4.95,7.78,5.72,12.39s1.55,9.59,4.86,12.88c2.65,2.62,6.43,3.65,9.81,5.23s6.77,4.29,7,8c.17,2.91-1.66,5.55-2.23,8.41-.64,3.23.35,6.54,1.47,9.63a115.3901,115.3901,0,0,0,12.38,24.58,66.99985,66.99985,0,0,1-19.68,7.26c-2.84.57-5.83.94-8.58.05-3.48-1.11-6.08-4.11-7.76-7.36a24.47992,24.47992,0,0,1-2.62-9.28c-.49-6.45,1.53-13.37-1.33-19.17a6.62014,6.62014,0,0,0-2.51-2.89c-1.26-.74-2.79-.83-4.18-1.27-2.4-.75-4.33-2.52-6.17-4.24l-6.62-6.16a18.63974,18.63974,0,0,0-5.15-3.79c-3.52-1.49-7.67-.64-11,1.23-2.93,1.64-6.31,4.1-9.27,2.52" transform="translate(-32.97998 -43.86652)" fill="#985c7e"/><g opacity="0.1"><path d="M591.4,413.66348l-1.76-.5A4.20993,4.20993,0,0,0,591.4,413.66348Z" transform="translate(-32.97998 -43.86652)"/><path d="M591.4,413.66348l2,.56a5.0705,5.0705,0,0,0-1.13-.59A6.33111,6.33111,0,0,1,591.4,413.66348Z" transform="translate(-32.97998 -43.86652)"/><path d="M655.58,460.28347c-2.84.56-5.82.93-8.58.05-3.48-1.12-6.08-4.11-7.76-7.37a24.47992,24.47992,0,0,1-2.62-9.28c-.49-6.45,1.53-13.36-1.32-19.17a6.71,6.71,0,0,0-2.45-2.89c-1.26-.74-2.78-.83-4.18-1.26-2.4-.76-4.33-2.53-6.17-4.24l-6.62-6.15a18.6401,18.6401,0,0,0-5.15-3.79c-3.52-1.49-7.67-.64-11,1.23-2.09,1.17-4.4,2.75-6.64,3a5.27974,5.27974,0,0,1,1.13.59l-2-.56a4.21,4.21,0,0,1-1.76-.5l1.76.5a4.22185,4.22185,0,0,0,.87,0c-2.82-1.08-6.46,0-9.17-1.58a7.68013,7.68013,0,0,1-3.12-4.09,13.11961,13.11961,0,0,1-.67-6.48,13.87008,13.87008,0,0,0-.13,9.68,7.6901,7.6901,0,0,0,3.12,4.08c2.7,1.56,6.35.5,9.17,1.59,2.23-.24,4.55-1.82,6.64-3,3.34-1.87,7.49-2.72,11-1.23a18.63994,18.63994,0,0,1,5.15,3.79l6.62,6.16c1.84,1.72,3.77,3.49,6.17,4.24,1.39.44,2.92.53,4.18,1.27a6.6198,6.6198,0,0,1,2.44,2.89c2.86,5.8.84,12.72,1.33,19.17a24.47992,24.47992,0,0,0,2.62,9.28c1.68,3.25,4.28,6.25,7.76,7.36,2.75.89,5.74.52,8.57-.05a66.99961,66.99961,0,0,0,19.69-7.26c-.46-.69-.91-1.39-1.35-2.09A67.27087,67.27087,0,0,1,655.58,460.28347Z" transform="translate(-32.97998 -43.86652)"/><path d="M662.81,414.59347a29.387,29.387,0,0,0-1.4,4.22c-.06.31-.1.63-.13.94A19.91951,19.91951,0,0,0,662.81,414.59347Z" transform="translate(-32.97998 -43.86652)"/></g><path d="M608.16,461.91348c-2.8,3.37-7.92,4.81-11.84,2.84a24.94124,24.94124,0,0,0-3.53-1.88c-2.66-.84-5.44.55-8.19,1a12.86011,12.86011,0,0,1-9.21-2,15.07386,15.07386,0,0,1-1.48.49,12.83,12.83,0,0,0,10.69,3.09c2.75-.49,5.53-1.88,8.19-1a26.06875,26.06875,0,0,1,3.53,1.89c3.92,2,9,.52,11.84-2.85a12.73,12.73,0,0,0,2.71-8.87A12.37,12.37,0,0,1,608.16,461.91348Z" transform="translate(-32.97998 -43.86652)" opacity="0.1" style="isolation:isolate"/></svg>