<?xml version="1.0" encoding="UTF-8"?><svg id="uuid-d785b4d8-6bfc-4ec5-9b72-87c61d0c9c29" xmlns="http://www.w3.org/2000/svg" width="672.12891" height="669.16391" xmlns:xlink="http://www.w3.org/1999/xlink" viewBox="0 0 672.12891 669.16391"><defs><linearGradient id="uuid-141f4887-b7a9-44af-b9c6-b833f01d854e" x1="-1022.49575" y1="1026.2959" x2="-1042.99078" y2="1086.84339" gradientTransform="translate(1827.58875 -1095.01485) scale(1.5625)" gradientUnits="userSpaceOnUse"><stop offset="0" stop-color="#114a8b"/><stop offset="1" stop-color="#0669bc"/></linearGradient><linearGradient id="uuid-964f0e3b-4f43-487b-b522-f1a03bdde981" x1="-1016.09371" y1="1054.51177" x2="-1020.83452" y2="1056.11478" gradientTransform="translate(1827.58875 -1095.01485) scale(1.5625)" gradientUnits="userSpaceOnUse"><stop offset="0" stop-color="#000" stop-opacity=".3"/><stop offset=".071" stop-color="#000" stop-opacity=".2"/><stop offset=".321" stop-color="#000" stop-opacity=".1"/><stop offset=".623" stop-color="#000" stop-opacity=".05"/><stop offset="1" stop-color="#000" stop-opacity="0"/></linearGradient><linearGradient id="uuid-9dddefc3-117b-4eec-b7f9-9a8b12365692" x1="-1018.55345" y1="1024.47472" x2="-996.05597" y2="1084.41209" gradientTransform="translate(1827.58875 -1095.01485) scale(1.5625)" gradientUnits="userSpaceOnUse"><stop offset="0" stop-color="#3ccbf4"/><stop offset="1" stop-color="#2892df"/></linearGradient></defs><g><path d="M244.3008,88.93414c-1.66316-2.8044-8.85817,.19832-10.18096-2.3468-1.3181-2.53592,5.36689-6.39986,9.18616-15.22671,.68881-1.5918,5.02904-11.62289,1.81598-14.71813-6.09032-5.86699-33.95985,18.34461-43.7129,10.42142-2.14048-1.73879-3.6358-5.20999-10.11387-10.84578-2.57716-2.24202-4.13548-3.2543-5.64366-2.87768-2.14,.53437-2.30953,3.39846-4.60426,9.02986-3.44138,8.44542-5.47678,7.93545-7.48188,14.67352-1.48846,5.00199-1.14845,7.91009-2.89998,8.47662-2.47857,.80176-4.75996-4.50375-7.90113-4.02871-3.20537,.48483-5.14326,6.6622-5.75536,11.28733-1.14869,8.67939,2.03876,14.40661,3.80544,20.42882,1.91986,6.54462,3.05929,16.49755-1.37437,30.58735l-43.88321,123.64124c9.68807-25.37081,37.73962-94.91898,49.52687-120.76356,3.40279-7.46078,7.1599-15.02833,14.87443-18.015,7.4273-2.87557,17.62773-1.15873,30.63208-4.2916,1.51876-.3658,5.73336-1.43815,6.26382-3.91708,.4386-2.0494-2.04045-3.19335-1.65955-5.11278,.51086-2.57464,5.38589-2.60626,11.37666-5.57663,4.22433-2.09461,6.85608-4.58557,9.11919-6.72773,.68231-.64582,10.82468-10.36479,8.61061-14.09798h-.00012Z" fill="#f2f2f2"/><path d="M71.65119,154.02407c-1.85631,.00709-2.45849,4.40486-4.08931,4.31973-1.62499-.08476-1.59259-4.48066-4.82284-8.90205-.58252-.79731-4.25355-5.82191-6.69984-5.13791-4.63678,1.29634-.79485,21.96069-7.49769,24.4615-1.47097,.54886-3.60616,.28122-8.24132,1.83461-1.84399,.61799-2.79045,1.09074-3.04077,1.93963-.35516,1.20448,1.00159,2.11415,3.10341,4.86516,3.15211,4.1258,2.31451,4.9777,5.04305,7.90594,2.02554,2.17378,3.55097,2.846,3.32362,3.86911-.32162,1.44783-3.58386,1.03676-4.25703,2.71549-.68688,1.71312,1.78586,4.44658,3.87927,6.08149,3.9285,3.06807,7.6591,3.15613,11.12459,4.02667,3.76607,.94604,8.97984,3.25857,14.61593,9.50003l48.02223,57.2126c-9.65687-12.07526-35.69779-45.91001-44.98146-59.1523-2.68002-3.82276-5.31014-7.85027-4.5501-12.49842,.73167-4.47507,4.51746-8.9861,6.732-16.27266,.25868-.851,.94839-3.22894-.11518-4.20455-.87931-.80657-2.15605,.08013-2.98823-.66067-1.11623-.99365,.27485-3.39546,.54543-7.19278,.19081-2.67767-.27244-4.68806-.67083-6.41693-.12011-.5212-1.96386-8.30336-4.43492-8.29386v.00018Z" fill="#f2f2f2"/><path d="M108.68403,162.33711l-1.11839-9.98366,.51098-.75686c2.36453-3.49982,3.56973-6.9177,3.58416-10.16202,.0024-.51579-.0217-1.03165-.04581-1.55706-.09643-2.08253-.2169-4.67123,1.13288-7.68898,.75686-1.6824,2.88279-5.57754,6.0789-5.09547,.8605,.12053,1.51131,.51579,2.0054,.97856,.07232-.11566,.14704-.23139,.22658-.35673,.99546-1.51852,1.78363-2.16928,2.54289-2.79598,.5833-.48207,1.1859-.97856,2.13074-2.15485,.41456-.51579,.73756-.96895,1.00994-1.34978,.82677-1.15212,1.90657-2.52606,3.81073-2.50196,2.03432,.09643,3.09969,1.77882,3.80593,2.89241,1.26063,1.9861,1.83185,3.41788,2.21027,4.36753,.13742,.34711,.29409,.73756,.37362,.85809,.65562,.96414,5.98494,.06264,7.99268-.26517,4.50976-.75205,8.41211-1.4028,10.01985,1.44139,1.15218,2.03432,.29649,4.72425-2.62008,8.20964-.90871,1.08467-1.87525,1.90897-2.73334,2.55498,.71105,.42424,1.34731,1.07499,1.60533,2.09702h0c.60741,2.41996-1.47271,4.84479-6.18014,7.21659-1.16901,.59292-2.74296,1.38356-4.94842,1.7644-1.03886,.17836-1.97408,.22177-2.77428,.24587-.01689,.46277-.12534,.96414-.40734,1.47993-.82677,1.51852-2.5477,2.24159-5.14128,2.06804-2.85387-.14945-5.20392-.69416-7.27683-1.17141-1.81014-.41456-3.36967-.76648-4.5941-.68454-2.27051,.18317-4.02048,2.00059-6.07403,4.35791l-5.12679,5.99209h-.00006Z" fill="#f2f2f2"/><path d="M113.87207,102.89439l-9.37348,3.61416-.8617-.30232c-3.98513-1.39949-7.59688-1.69833-10.73877-.88935-.49956,.12853-.99239,.28266-1.49454,.43927-1.98995,.62148-4.46347,1.39468-7.72487,.85448-1.8194-.30533-6.12633-1.37376-6.47073-4.58761-.10166-.8629,.1156-1.59271,.43794-2.18803-.13027-.04058-.26114-.0835-.40253-.12865-1.72135-.57777-2.55077-1.17508-3.34959-1.75057-.61426-.44197-1.2474-.89891-2.62483-1.5145-.6041-.27016-1.12434-.46764-1.56181-.63452-1.32417-.50744-2.92703-1.20352-3.38668-3.05153-.42273-1.99223,.93444-3.4495,1.83245-4.41514,1.60142-1.72316,2.84143-2.6389,3.66405-3.24583,.30088-.22093,.63885-.47155,.73528-.57903,.76629-.87871-1.45745-5.80507-2.2838-7.66403-1.87134-4.17149-3.49068-7.78114-1.14725-10.05772,1.67555-1.63046,4.49455-1.4851,8.60574,.45201,1.27968,.60386,2.32221,1.3297,3.16473,1.9959,.23-.79539,.69806-1.57599,1.62126-2.08469h0c2.18677-1.20135,5.05988,.19568,8.54815,4.1475,.87005,.98037,2.03408,2.30231,2.96184,4.33903,.43602,.95963,.7152,1.85325,.94153,2.62123,.45195-.10105,.96438-.1233,1.53487,.01864,1.67855,.41456,2.81456,1.89581,3.3045,4.44856,.57934,2.79845,.64853,5.20981,.71267,7.33598,.05813,1.85613,.11326,3.45389,.50317,4.61749,.75313,2.1498,2.95493,3.38151,5.75608,4.77l7.09654,3.43922-.00024,.00006Z" fill="#f2f2f2"/><path d="M108.68403,73.48224l-1.11839-9.98366,.51098-.75686c2.36453-3.49982,3.56973-6.9177,3.58416-10.16202,.0024-.51579-.0217-1.03165-.04581-1.55706-.09643-2.08253-.2169-4.67123,1.13288-7.68898,.75686-1.6824,2.88279-5.57754,6.0789-5.09547,.8605,.12053,1.51131,.51579,2.0054,.97856,.07232-.11566,.14704-.23139,.22658-.35673,.99546-1.51852,1.78363-2.16928,2.54289-2.79598,.5833-.48207,1.1859-.97856,2.13074-2.15485,.41456-.51579,.73756-.96895,1.00994-1.34978,.82677-1.15212,1.90657-2.52606,3.81073-2.50196,2.03432,.09643,3.09969,1.77882,3.80593,2.89241,1.26063,1.9861,1.83185,3.41788,2.21027,4.36753,.13742,.34711,.29409,.73756,.37362,.85809,.65562,.96414,5.98494,.06264,7.99268-.26517,4.50976-.75205,8.41211-1.4028,10.01985,1.44139,1.15218,2.03432,.29649,4.72425-2.62008,8.20964-.90871,1.08467-1.87525,1.90897-2.73334,2.55498,.71105,.42424,1.34731,1.07499,1.60533,2.09702h0c.60741,2.41996-1.47271,4.84479-6.18014,7.21659-1.16901,.59292-2.74296,1.38356-4.94842,1.7644-1.03886,.17836-1.97408,.22177-2.77428,.24587-.01689,.46277-.12534,.96414-.40734,1.47993-.82677,1.51852-2.5477,2.24159-5.14128,2.06804-2.85387-.14945-5.20392-.69416-7.27683-1.17141-1.81014-.41456-3.36967-.76648-4.5941-.68454-2.27051,.18317-4.02048,2.00059-6.07403,4.35791l-5.12679,5.99209h-.00006Z" fill="#f2f2f2"/><path d="M118.89907,267.27377l-2.09221-1.31124-.50617-2.41515,.50617,2.41515-2.43926,.2796c-.03859-.22658-.17115-.74724-.37115-1.56193-1.09188-4.46395-4.42055-18.04866-7.19729-39.44282-1.93795-14.93449-3.03464-30.28834-3.26122-45.64225-.22658-15.37796,.50137-27.01997,1.08467-36.37686,.44107-7.05746,.97622-13.7775,1.50163-20.32404,1.39799-17.48946,2.71645-34.00992,1.73542-52.29959-.2169-4.08312-.67251-12.58198-5.63777-21.6256-2.88038-5.24492-6.84778-9.90166-11.7938-13.83533l3.07558-3.86616c5.45941,4.34823,9.84864,9.5064,13.04721,15.32981,5.50522,10.027,6.00177,19.28758,6.24037,23.73705,.99786,18.61267-.33502,35.29225-1.7475,52.9504-.52066,6.52237-1.05575,13.21349-1.49442,20.24204-.57849,9.2702-1.29916,20.81086-1.07499,35.99122,.22177,15.17068,1.30637,30.33655,3.21781,45.08306,2.74296,21.12424,6.02347,34.50648,7.10087,38.90292,.57368,2.3477,.69416,2.83939,.10604,3.7698v-.00006Z" fill="#f2f2f2"/><path d="M81.37484,42.977c-.20247,0-.40734-.00481-.61462-.0193-4.20365-.22658-8.09632-2.74296-11.57203-7.47689-1.62938-2.22717-2.46336-4.76766-4.12652-9.83421-.2579-.78096-1.51131-4.74355-2.27298-10.19574-.49896-3.56252-.43626-5.05206,.26998-6.36812,.78337-1.4655,2.05121-2.48747,3.47811-3.17681-.06264-.47245-.01208-.95933,.19285-1.45588,.8412-2.05842,3.07798-1.78844,4.28799-1.65829,.61222,.07713,1.37629,.17836,2.20066,.13496,1.29676-.06264,1.99338-.44834,3.04907-1.02684,1.00994-.55439,2.2657-1.24373,4.12893-1.62457,3.67337-.76648,6.75135,.27479,7.76611,.61703,5.33888,1.77882,7.97098,5.92945,11.01765,10.73564,.60741,.96414,2.69234,4.47357,4.06863,9.28463,.99305,3.4709,.85328,5.01353,.55439,6.16084-.60741,2.35732-2.04153,3.7071-5.68358,6.68631-3.80352,3.11898-5.7125,4.68091-7.35155,5.63056-3.81554,2.20306-6.21146,3.58656-9.39308,3.58656v.00012Z" fill="#f2f2f2"/></g><path d="M286.70588,663.47909c0,.65997,.53003,1.19,1.19,1.19h247.29004c.65997,0,1.19-.53003,1.19-1.19,0-.32001-.12006-.60004-.32001-.81h-89.72003c-1.90997,0-3.77997-.13-5.62-.38h-152.82001c-.65997,0-1.19,.52997-1.19,1.19Z" fill="#3f3d56"/><g><g><path d="M167.2301,452.94407h137.66886c23.32296,0,42.22995,18.90699,42.22995,42.22995v110.43289c0,23.32291-18.90695,42.22986-42.22986,42.22986H167.2301c-23.32296,0-42.22995-18.90699-42.22995-42.22995v-110.43281c0-23.32296,18.90699-42.22995,42.22995-42.22995Z" fill="#fff"/><path d="M124.00007,605.60697v-110.43262c0-23.83691,19.39307-43.22998,43.22998-43.22998h137.66895c23.83691,0,43.22998,19.39307,43.22998,43.22998v110.43262c0,23.83691-19.39307,43.22949-43.22998,43.22949H167.23005c-23.83691,0-43.22998-19.39258-43.22998-43.22949Zm43.22998-151.6626c-22.73438,0-41.22998,18.49561-41.22998,41.22998v110.43262c0,22.73438,18.49561,41.22949,41.22998,41.22949h137.66895c22.73438,0,41.22998-18.49512,41.22998-41.22949v-110.43262c0-22.73437-18.49561-41.22998-41.22998-41.22998H167.23005Z" fill="#3f3d56"/></g><g><path d="M218.70079,501.2965h30.83565l-32.01043,94.84349c-.6746,1.99835-2.54853,3.34388-4.65768,3.34434h-23.99776c-2.71102,.00032-4.909-2.19715-4.90931-4.90817-.00006-.53376,.08693-1.06396,.25755-1.56971l29.82311-88.36561c.67433-1.99923,2.54897-3.3454,4.65886-3.34552v.00118Z" fill="url(#uuid-141f4887-b7a9-44af-b9c6-b833f01d854e)"/><path d="M263.50948,564.91118h-48.89792c-1.24988-.00138-2.26423,1.01073-2.26561,2.26061-.00069,.62874,.2602,1.22943,.72016,1.65809l31.42067,29.32691c.91481,.85336,2.11935,1.32782,3.37039,1.32755h27.6879l-12.03559-34.57316Z" fill="#0078d4"/><path d="M218.70079,501.2965c-2.13503-.00819-4.02716,1.37335-4.66952,3.40947l-29.77574,88.21995c-.91437,2.5487,.41052,5.35607,2.95921,6.27043,.53537,.19207,1.10008,.28951,1.66886,.28798h24.61713c1.86659-.33351,3.40936-1.64555,4.03831-3.43434l5.93786-17.49975,21.21002,19.783c.88882,.73519,2.00379,1.1417,3.15723,1.1511h27.58487l-12.09835-34.57316-35.26832,.00829,21.58543-63.62296h-30.94697Z" fill="url(#uuid-964f0e3b-4f43-487b-b522-f1a03bdde981)"/><path d="M258.08559,504.63611c-.67338-1.99601-2.54522-3.33985-4.65176-3.3396h-34.36592c2.10642,.00012,3.97807,1.34382,4.65176,3.3396l29.8243,88.36917c.86727,2.56925-.51246,5.35509-3.08172,6.22236-.50585,.17076-1.03616,.25786-1.57004,.25789h34.36711c2.71168-.0008,4.90927-2.19971,4.90847-4.91138-.00016-.53349-.08726-1.06339-.25789-1.56886l-29.82431-88.36917Z" fill="url(#uuid-9dddefc3-117b-4eec-b7f9-9a8b12365692)"/></g></g><g><g><path d="M43.23002,206.94438H180.89888c23.32296,0,42.22995,18.90699,42.22995,42.22995v110.43289c0,23.32291-18.90695,42.22986-42.22986,42.22986H43.23002c-23.32296,0-42.22995-18.90699-42.22995-42.22995v-110.43281c0-23.32296,18.90699-42.22995,42.22995-42.22995Z" fill="#fff"/><path d="M0,359.60728v-110.43262c0-23.83691,19.39307-43.22998,43.22998-43.22998H180.89893c23.83691,0,43.22998,19.39307,43.22998,43.22998v110.43262c0,23.83691-19.39307,43.22949-43.22998,43.22949H43.22998c-23.83691,0-43.22998-19.39258-43.22998-43.22949ZM43.22998,207.94468c-22.73438,0-41.22998,18.49561-41.22998,41.22998v110.43262c0,22.73438,18.49561,41.22949,41.22998,41.22949H180.89893c22.73438,0,41.22998-18.49512,41.22998-41.22949v-110.43262c0-22.73437-18.49561-41.22998-41.22998-41.22998H43.22998Z" fill="#3f3d56"/></g><g><path d="M84.56893,306.08045c0,1.55073,.16765,2.80808,.46103,3.73014,.33529,.92206,.75441,1.92794,1.34117,3.01764,.20956,.33529,.29338,.67059,.29338,.96397,0,.41912-.25147,.83823-.79632,1.25735l-2.64044,1.76029c-.37721,.25147-.75441,.37721-1.0897,.37721-.41912,0-.83823-.20956-1.25735-.58676-.58676-.62868-1.0897-1.29926-1.50882-1.96985-.41912-.7125-.83823-1.50882-1.29926-2.47279-3.26911,3.85587-7.37646,5.78381-12.32204,5.78381-3.52058,0-6.32867-1.00588-8.38234-3.01764-2.05367-2.01176-3.10147-4.69411-3.10147-8.04705,0-3.56249,1.25735-6.4544,3.81396-8.63381,2.55661-2.17941,5.95146-3.26911,10.26836-3.26911,1.425,0,2.89191,.12573,4.44264,.33529s3.14338,.54485,4.81984,.92206v-3.05955c0-3.18529-.67059-5.40661-1.96985-6.70587-1.34117-1.29926-3.6044-1.92794-6.83161-1.92794-1.46691,0-2.97573,.16765-4.52646,.54485s-3.05955,.83823-4.52646,1.425c-.67059,.29338-1.17353,.46103-1.46691,.54485-.29338,.08382-.50294,.12573-.67059,.12573-.58676,0-.88015-.41912-.88015-1.29926v-2.05367c0-.67059,.08382-1.17353,.29338-1.46691s.58676-.58676,1.17353-.88015c1.46691-.75441,3.2272-1.38309,5.28087-1.88603,2.05367-.54485,4.23308-.79632,6.53822-.79632,4.98749,0,8.63381,1.13162,10.98087,3.39485,2.30514,2.26323,3.47867,5.69999,3.47867,10.31028v13.57939h.08382Zm-17.01615,6.37058c1.38309,0,2.80808-.25147,4.3169-.75441,1.50882-.50294,2.84999-1.425,3.98161-2.68235,.67059-.79632,1.17353-1.67647,1.425-2.68235s.41912-2.22132,.41912-3.64632v-1.76029c-1.21544-.29338-2.5147-.54485-3.85588-.7125s-2.64044-.25147-3.9397-.25147c-2.80808,0-4.86176,.54485-6.24484,1.67647-1.38309,1.13162-2.05367,2.72426-2.05367,4.81984,0,1.96985,.50294,3.43676,1.55073,4.44264,1.00588,1.0478,2.47279,1.55074,4.40073,1.55074Zm33.65509,4.52646c-.75441,0-1.25735-.12574-1.59265-.41912-.33529-.25147-.62868-.83823-.88014-1.63456l-9.84925-32.39774c-.25147-.83823-.37721-1.38309-.37721-1.67647,0-.67059,.33529-1.04779,1.00588-1.04779h4.10735c.79632,0,1.34117,.12574,1.63456,.41912,.33529,.25147,.58676,.83823,.83823,1.63456l7.04116,27.74554,6.53823-27.74554c.20956-.83823,.46103-1.38309,.79632-1.63456,.33529-.25147,.92206-.41912,1.67647-.41912h3.35294c.79632,0,1.34117,.12574,1.67647,.41912,.33529,.25147,.62868,.83823,.79632,1.63456l6.62205,28.08083,7.25072-28.08083c.25147-.83823,.54485-1.38309,.83823-1.63456,.33529-.25147,.88015-.41912,1.63455-.41912h3.89779c.67059,0,1.04779,.33529,1.04779,1.04779,0,.20956-.04191,.41912-.08382,.67059-.04191,.25147-.12574,.58676-.29338,1.04779l-10.10072,32.39774c-.25147,.83823-.54485,1.38309-.88015,1.63456s-.88015,.41912-1.59265,.41912h-3.60441c-.79632,0-1.34117-.12574-1.67647-.41912s-.62868-.83823-.79632-1.67647l-6.49631-27.03304-6.4544,26.99113c-.20956,.83823-.46103,1.38309-.79632,1.67647-.33529,.29338-.92206,.41912-1.67647,.41912h-3.60441Zm53.85653,1.13161c-2.17941,0-4.35881-.25147-6.4544-.75441-2.09558-.50294-3.73014-1.04779-4.81984-1.67647-.67059-.37721-1.13161-.79632-1.29926-1.17353-.16764-.37721-.25147-.79632-.25147-1.17353v-2.1375c0-.88014,.33529-1.29926,.96397-1.29926,.25147,0,.50294,.04191,.75441,.12574,.25147,.08382,.62868,.25147,1.04779,.41912,1.42499,.62868,2.97573,1.13161,4.61029,1.46691,1.67647,.33529,3.31102,.50294,4.98749,.50294,2.64043,0,4.69411-.46103,6.11911-1.38309,1.42499-.92206,2.17941-2.26323,2.17941-3.98161,0-1.17353-.3772-2.1375-1.13162-2.93382-.75441-.79632-2.17941-1.50882-4.23308-2.17941l-6.0772-1.88602c-3.05955-.96397-5.32278-2.38897-6.70587-4.27499-1.38309-1.84412-2.09558-3.89779-2.09558-6.0772,0-1.76029,.3772-3.31102,1.13161-4.6522,.75441-1.34117,1.76029-2.5147,3.01764-3.43676,1.25735-.96397,2.68235-1.67647,4.35881-2.17941,1.67647-.50294,3.43676-.7125,5.28088-.7125,.92206,0,1.88603,.04191,2.80809,.16765,.96396,.12574,1.84411,.29338,2.72426,.46103,.83823,.20956,1.63455,.41912,2.38897,.67059,.75441,.25147,1.34118,.50294,1.7603,.75441,.58676,.33529,1.00588,.67059,1.25735,1.04779,.25147,.33529,.3772,.79632,.3772,1.38309v1.96985c0,.88015-.33529,1.34117-.96396,1.34117-.33529,0-.88015-.16765-1.59264-.50294-2.38897-1.0897-5.07132-1.63456-8.04705-1.63456-2.38897,0-4.27499,.37721-5.57426,1.17353s-1.96985,2.01176-1.96985,3.73014c0,1.17353,.41912,2.17941,1.25735,2.97573,.83823,.79632,2.38897,1.59264,4.61029,2.30514l5.95147,1.88603c3.01765,.96397,5.19705,2.30514,6.49631,4.02352,1.29926,1.71838,1.92794,3.68823,1.92794,5.86764,0,1.8022-.3772,3.43676-1.08971,4.86176-.75441,1.425-1.7603,2.68235-3.05955,3.68823-1.29926,1.04779-2.84999,1.8022-4.6522,2.34705-1.88605,.58676-3.85589,.88014-5.99339,.88014Z" fill="#252f3e"/><g><path d="M162.9857,338.47819c-13.78894,10.18454-33.82273,15.59115-51.04844,15.59115-24.14113,0-45.8933-8.92719-62.32268-23.76393-1.29926-1.17353-.12574-2.76617,1.425-1.84412,17.77056,10.31028,39.69037,16.55512,62.3646,16.55512,15.29777,0,32.10435-3.18529,47.56978-9.72351,2.30514-1.04779,4.27498,1.50882,2.01176,3.18529Z" fill="#f90" fill-rule="evenodd"/><path d="M168.72761,331.93997c-1.7603-2.26323-11.65145-1.0897-16.136-.54485-1.34117,.16765-1.55073-1.00588-.33529-1.88603,7.8794-5.53234,20.83011-3.9397,22.33893-2.09558,1.50882,1.88603-.41912,14.83674-7.79558,21.03967-1.13162,.96397-2.22131,.46103-1.71838-.79632,1.67647-4.14926,5.40661-13.49557,3.64632-15.71688Z" fill="#f90" fill-rule="evenodd"/></g></g></g><path d="M428.43041,280.4909c-1-1-9-22-9-22l-19-1-8.69341,20.49606,36.69341,2.50394Z" fill="#ffb6b6"/><circle cx="401.4745" cy="241.59026" r="25.5753" fill="#ffb6b6"/><polygon points="449.93041 418.9909 458.93041 448.9909 434.93041 622.9909 418.68238 622.9909 409.93041 491.9909 399.93041 536.9909 450.93041 601.9909 437.93041 616.9909 364.43041 545.4909 365.93041 434.9909 371.93041 417.9909 449.93041 418.9909" fill="#2f2e41"/><path d="M422.91616,262.60003l-1.99758,.09841s-1.78608-15.93141-2.83407-16.881c-1.04799-.94958-2.94716,1.14641-2.94716,1.14641,0,0-8.23634-4.6003-8.48237-9.59424-.24603-4.99394-.44285-8.9891-3.43922-8.84148-2.99637,.14762-19.77895,4.97927-23.77411,5.17609s-10.33233-6.49946-3.63604-12.83664c6.69629-6.33717,12.59061-8.62998,13.54019-9.67798s7.20163-5.36085,12.66372-1.62509c5.46209,3.73576,12.45361,3.39132,12.45361,3.39132,0,0,13.13187,2.35669,11.42953,8.44784s4.88086,17.78137,2.17972,23.92172c-2.70113,6.14035-5.15624,17.27464-5.15624,17.27464Z" fill="#2f2e41"/><path d="M417.93041,619.9909l18,2,2,33s-1,16-18,14c-17-2-12-18-12-18l10-31Z" fill="#2f2e41"/><path d="M441.43041,596.4909s13-6,15,1l4,14s0,14,1,15,20,27,3,41c0,0-9,1-14-13s-20-28-20-28c0,0-2.90551-7,2.04724-6.5,4.95276,.5,11.95276-11.5,9.95276-15.5-2-4-1-8-1-8Z" fill="#2f2e41"/><path d="M276.3286,465.84528c-4.65244-1.95972-5.92755-9.47402-2.84736-16.78716,1.19035-2.93823,3.06701-5.5486,5.47299-7.6128l3.5938-8.24313-.12832-.08676,10.33322-41.18274c2.4026-9.57549,9.0179-17.65364,18.10272-21.51737,5.40436-2.29845,10.53252-2.71387,12.02372,2.79303,2.47441,9.13773-13.64221,38.57201-23.35983,55.13285l-7.57082,18.57731c.20475,3.1646-.35153,6.33215-1.62226,9.23753-3.0781,7.311-9.34543,11.64889-13.99787,9.68924Z" fill="#ffb6b6"/><path d="M392.43041,274.4909l33,1,32,14-5,83s6,19,3,22,0,16.44882-2,16.72441,0,14.74016,0,14.74016c0,0-28-9.46457-52-3.46457-24,6-32-4-32-4,0,0-6-24-6-29v-102.24409l29-12.75591Z" fill="#6c63ff"/><path d="M368.93041,286.9909s-14-4-21,6-11,10-11,23c0,0-41,58-39,64l-9.5,15.5,24,13s8.5-8.5,8.5-16.5,24-30,24-30c0,0,21-27,22-37,1-10,2-38,2-38Z" fill="#6c63ff"/><g><g><path d="M492.2301,470.94407h137.66886c23.32296,0,42.22995,18.90699,42.22995,42.22995v110.43289c0,23.32291-18.90695,42.22986-42.22986,42.22986h-137.66894c-23.32296,0-42.22995-18.90699-42.22995-42.22995v-110.43281c0-23.32296,18.90699-42.22995,42.22995-42.22995Z" fill="#fff"/><path d="M448,622.60728v-110.43262c0-23.83691,19.39307-43.22998,43.22998-43.22998h137.66895c23.83691,0,43.22998,19.39307,43.22998,43.22998v110.43262c0,23.83691-19.39307,43.22949-43.22998,43.22949h-137.66895c-23.83691,0-43.22998-19.39258-43.22998-43.22949Zm43.22998-151.6626c-22.73438,0-41.22998,18.49561-41.22998,41.22998v110.43262c0,22.73438,18.49561,41.22949,41.22998,41.22949h137.66895c22.73438,0,41.22998-18.49512,41.22998-41.22949v-110.43262c0-22.73437-18.49561-41.22998-41.22998-41.22998h-137.66895Z" fill="#3f3d56"/></g><g><path d="M578.5884,548.15588h3.39717l9.68193-9.68193,.4756-4.11058c-18.01922-15.9044-45.51974-14.19-61.42414,3.82922-4.41784,5.00528-7.62485,10.95991-9.37287,17.40309,1.07861-.4421,2.27343-.51379,3.39717-.20383l19.36387-3.19334s.98518-1.63064,1.49475-1.52873c8.61353-9.45987,23.10936-10.56233,33.05446-2.5139h-.06794Z" fill="#ea4335"/><path d="M605.46001,555.59568c-2.22544-8.19522-6.79465-15.56263-13.14705-21.19834l-13.58868,13.58868c5.73804,4.68852,9.00651,11.75141,8.86661,19.16003v2.41199c6.67929,0,12.09392,5.41463,12.09392,12.09392s-5.41463,12.09392-12.09392,12.09392h-24.18785l-2.41199,2.44596v14.50592l2.41199,2.41199h24.18785c17.37313,.13525,31.56648-13.83881,31.70174-31.21194,.08197-10.52996-5.11015-20.40255-13.83263-26.30213Z" fill="#4285f4"/><path d="M539.18123,612.97387h24.18784v-19.36386h-24.18784c-1.72328-.00038-3.42634-.37112-4.99384-1.08709l-3.39717,1.05312-9.74988,9.68193-.84929,3.39717c5.46751,4.1286,12.13903,6.34847,18.99018,6.31874Z" fill="#34a853"/><path d="M539.18123,550.16021c-17.37335,.10378-31.3731,14.27179-31.26932,31.64514,.05795,9.7014,4.58895,18.83336,12.27914,24.74787l14.03031-14.03031c-6.08689-2.75004-8.79194-9.91378-6.0419-16.00067,2.75004-6.08689,9.91378-8.79194,16.00067-6.0419,2.68203,1.21173,4.83017,3.35987,6.0419,6.0419l14.03031-14.03031c-5.96955-7.80407-15.24574-12.36676-25.07111-12.33173Z" fill="#fbbc05"/></g></g><g><path d="M477.51343,488.47375c5.0414-.2644,8.79112-6.89994,8.37577-14.82439-.12249-3.16783-1.00183-6.26018-2.56443-9.01843l-.58285-8.97357,.15015-.03806,4.25715-42.24536c.98984-9.82256-2.49116-19.6664-9.72544-26.38412-4.30351-3.99622-8.9863-6.12743-12.25799-1.45349-5.4288,7.75557-.2585,40.91263,3.26173,59.78858l.81649,20.04413c-1.26663,2.90727-1.81841,6.07561-1.60916,9.23982,.41411,7.92174,4.83721,14.12922,9.8786,13.86489Z" fill="#ffb6b6"/><path d="M451.1095,288.80699s14.5266,.98889,17.71721,12.77108c3.19061,11.78219,6.95319,13.13975,2.54111,25.36814,0,0,18.88179,68.47246,14.96416,73.43755l3.67557,17.80422-26.98757,4.08301s-5.11066-10.88031-2.39554-18.40547c2.71513-7.52516-12.39377-36.36474-12.39377-36.36474,0,0-10.59-32.52463-8.13674-42.27048,2.45326-9.74585,11.01556-36.42331,11.01556-36.42331Z" fill="#6c63ff"/></g></svg>