<svg id="e281c6c1-c124-4cbc-b58b-d47b44bee57f" data-name="Layer 1" xmlns="http://www.w3.org/2000/svg" width="883.02568" height="802" viewBox="0 0 883.02568 802"><path d="M1041.51233,450a399.1275,399.1275,0,0,1-60.40009,211.75c-1.37,2.2-2.76995,4.39-4.18,6.56q-3.93,6.045-8.07,11.94c0,.01-.00994.01-.01995.02-1.65,2.36-3.34,4.69995-5.04,7.02-2.18,2.96-4.4,5.9-6.66,8.79-.25.33-.51.66-.77.99q-5.925,7.575-12.21,14.85c-.45.53-.91,1.05-1.38,1.58-.71.83-1.44,1.65-2.17,2.47a401.60585,401.60585,0,0,1-73.8,65.11005q-5.43,3.735-11,7.27c-.92.59-1.84,1.17-2.77,1.75-.28.19-.56.36-.84.53-.99.62-1.98,1.24-2.98,1.84-1.99,1.22-4,2.42-6.01,3.6-1.01.6-2.02,1.18-3.04,1.76a.09178.09178,0,0,1-.06.04l-.01995.01c-2.53,1.46-5.07,2.89-7.64,4.28q-6.87,3.75-13.88,7.23c-1.16.58-2.33,1.15-3.5,1.72q-5.835,2.835-11.76,5.46a397.58347,397.58347,0,0,1-104.67,30.24q-8.625,1.26-17.35,2.14c-2.22.22-4.44.43-6.66.61-.92.08-1.85.15-2.77.22q-15.525,1.23-31.35,1.22-17.235,0-34.12-1.44-3.585-.3-7.16-.66-5.64-.57-11.23-1.31-2.82-.36007-5.62-.78a395.16535,395.16535,0,0,1-60.29-13.59q-16.75508-5.16-32.87-11.74c-3.43-1.4-6.85-2.85-10.23-4.34q-4.74-2.085-9.41-4.3a1.17268,1.17268,0,0,1-.28-.13c-.69-.32-1.38-.65-2.07-.98a398.47077,398.47077,0,0,1-49.51-28.27q-7.605-5.085-14.95-10.51-5.925-4.365-11.68-8.95a401.8074,401.8074,0,0,1-52.85-50.5c-1.13-1.29-2.24-2.58-3.35-3.88-.86-1.01-1.71-2.02-2.55-3.04q-6.75-8.07-13.05-16.5c-.58-.77-1.15-1.55-1.72-2.33q-4.02-5.415-7.83-10.99-2.88-4.18506-5.65-8.45a401.1606,401.1606,0,0,1,24.1-469.84q3.61506-4.485,7.36-8.86c73.54-86.06,182.88-140.61,304.96-140.61,142.73,0,268.05,74.57,339.1,186.88q5.55,8.73,10.62006,17.78A399.06535,399.06535,0,0,1,1041.51233,450Z" transform="translate(-158.48716 -49)" fill="#f2f2f2"/><path d="M834.69226,764.75q-8.055,22.32-16.12,44.64c-1.16.58-2.33,1.15-3.5,1.72q-5.835,2.835-11.76,5.46a13.282,13.282,0,0,1-.87-4.19c-.21-5.97,2.49-11.6,3.95-17.42.05-.17.09-.35.13-.52a39.35315,39.35315,0,0,0-2.66-25.69c-2.25994-4.78-5.5-9.13-6.91-14.23-3.11-11.28,5.13-24.34,16.66-26.38,11.52-2.05,23.75,7.37,24.71,19.04C838.82227,753.19,836.74225,759.08,834.69226,764.75Z" transform="translate(-158.48716 -49)" fill="#e4e4e4"/><path d="M812.02228,805.37q-2.82-5.205-5.63-10.41c-4.79-8.88-9.57-17.75-14.44-26.59-1.3-2.36-2.62-4.72-4.01-7.06a101.80887,101.80887,0,0,0-12.29-17.2c-1.07-1.19-2.2-2.34-3.37-3.43-.73-.7-1.48-1.38-2.25-2.03-4.35-3.7-10.22-8.67-16.34-6.69a24.35309,24.35309,0,0,0-4.44,2.04c-1.61.91-3.18,1.93-4.75,2.83q-4.52994,2.61-9.1,5.12-2.055,1.14-4.13,2.26-2.745,1.485-5.5,2.94c-.94.5-1.89.98-2.84,1.46-1.9.96-3.8,1.92-5.61,3.02a31.36173,31.36173,0,0,0-9.19,8.43c-.48.66-.94,1.34-1.36,2.04a29.05784,29.05784,0,0,0-1.5,2.8c-.31.65-.6,1.3-.86,1.96a31.3979,31.3979,0,0,0-.98,19.81v.01c.12.45.25.89.4,1.33.24.74.51,1.48.81,2.2,2.09,5.08,5.65,8.9,9.46,12.68.4.39.81.79,1.21,1.18q7.56006,7.38,15.19,14.68c6.09,5.82,12.16,11.71,18.36,17.44a394.533,394.533,0,0,0,54.45-19.62q5.925-2.625,11.76-5.46C814.08228,809.18,813.05225,807.27,812.02228,805.37Z" transform="translate(-158.48716 -49)" fill="#e4e4e4"/><path d="M738.85927,708.28182l-8.22594-12.7585a2.05037,2.05037,0,0,0-3.32909.89319l-6.49356,19.24073a43.703,43.703,0,0,0-12.85607,6.17109l-7.38282-12.96639a2.05039,2.05039,0,0,0-3.3803.766l-4.27055,17.32955a44.00019,44.00019,0,1,0,45.93829-18.67563Z" transform="translate(-158.48716 -49)" fill="#e4e4e4"/><path d="M734.725,763.11782a3.759,3.759,0,0,1-5.084-1.53313.5364.5364,0,0,1,.94529-.50726,2.682,2.682,0,0,0,4.72648-2.5363.5364.5364,0,0,1,.94529-.50726A3.759,3.759,0,0,1,734.725,763.11782Z" transform="translate(-158.48716 -49)" fill="#fff"/><ellipse cx="730.01555" cy="753.77433" rx="4.29121" ry="1.65047" transform="translate(-428.13774 385.7664) rotate(-28.21872)" fill="#fff"/><path d="M708.59917,756.5892a9.55069,9.55069,0,0,1,12.91759-6.93178,10.6153,10.6153,0,1,0-13.38921,6.78955l0,0Q708.36165,756.5236,708.59917,756.5892Z" transform="translate(-158.48716 -49)" fill="#fff"/><circle cx="553.28366" cy="700.08397" r="3.65156" fill="#3f3d56"/><path d="M733.87541,743.44836a9.55067,9.55067,0,0,1,12.91758-6.93178,10.61529,10.61529,0,1,0-13.3892,6.78955l0,0Q733.63789,743.38276,733.87541,743.44836Z" transform="translate(-158.48716 -49)" fill="#fff"/><circle cx="579.9001" cy="686.73943" r="3.65156" fill="#3f3d56"/><rect x="742.20712" y="741.575" width="17.80043" height="1.76316" transform="translate(-463.38461 709.51534) rotate(-45.53938)" fill="#fff"/><rect x="744.71108" y="746.24036" width="17.80051" height="1.76317" transform="translate(-440.67101 467.36327) rotate(-32.19276)" fill="#fff"/><rect x="700.02392" y="764.21118" width="17.80043" height="1.76316" transform="translate(-290.35189 98.82909) rotate(-10.89806)" fill="#fff"/><rect x="702.52712" y="768.87695" width="17.80051" height="1.76317" transform="translate(-411.82852 311.02886) rotate(-24.24467)" fill="#fff"/><path d="M204.44008,494.08652c-34.19042-30.77117-54.893-79.70452-42.17022-123.90786a211.93228,211.93228,0,0,0,119.34561,83.238c18.66773,4.86579,39.93738,8.334,51.29453,23.92814,7.06689,9.70294,8.70792,22.525,7.03528,34.41113-1.673,11.88666-6.34879,23.112-10.98194,34.18567l.24524,2.98651C284.05713,540.14216,238.6305,524.85773,204.44008,494.08652Z" transform="translate(-158.48716 -49)" fill="#e6e6e6"/><path d="M163.22491,370.31818c8.68977,36.65705,29.1467,70.77536,57.85121,95.26078,6.20584,5.2937,12.96189,10.12362,20.54036,13.24627a44.74073,44.74073,0,0,0,23.38617,2.74588c7.389-.96087,14.83576-2.7994,22.32962-1.94738,7.8989.898,14.498,5.32412,19.10806,11.6972,5.64054,7.79764,8.14286,17.157,10.27186,26.39471,2.36383,10.25672,4.65661,20.94764,11.42828,29.33027.82046,1.01568-.80347,2.22937-1.62271,1.21527-11.78153-14.58429-10.16986-34.77246-18.70255-50.8884-3.9815-7.52-10.25339-13.88565-18.89172-15.46527-7.55386-1.38129-15.23468.508-22.70776,1.54562-7.84684,1.08945-15.43862.826-22.96668-1.83291-7.70077-2.71988-14.6599-7.29587-20.97386-12.40769a175.74326,175.74326,0,0,1-36.45946-41.08212,184.35749,184.35749,0,0,1-24.60536-57.58188c-.30017-1.26627,1.71632-1.48831,2.01453-.23032Z" transform="translate(-158.48716 -49)" fill="#fff"/><path d="M211.32594,458.11228a27.17749,27.17749,0,0,1-35.1855.67935c-1.00737-.82864.233-2.433,1.24168-1.60321a25.16575,25.16575,0,0,0,32.72856-.69882c.97359-.86829,2.18328.7594,1.21526,1.62271Z" transform="translate(-158.48716 -49)" fill="#fff"/><path d="M261.32034,482.55177A52.3824,52.3824,0,0,0,249.96,446.10645c-.81686-1.01855.80684-2.23257,1.62271-1.21524a54.48565,54.48565,0,0,1,11.74437,37.94867C263.23083,484.14341,261.22464,483.84821,261.32034,482.55177Z" transform="translate(-158.48716 -49)" fill="#fff"/><path d="M177.04164,410.03608a15.38381,15.38381,0,0,0,7.73373-12.38037c.07967-1.30411,2.08591-1.00751,2.00675.28811a17.2388,17.2388,0,0,1-8.52523,13.715,1.04772,1.04772,0,0,1-1.419-.20373,1.01878,1.01878,0,0,1,.20373-1.419Z" transform="translate(-158.48716 -49)" fill="#fff"/><path d="M305.05642,307.991c-.02658.81573-.05319,1.63143-.06619,2.45764a202.594,202.594,0,0,0,1.767,32.81646c.1008.84244.21567,1.69471.34048,2.53251a213.5814,213.5814,0,0,0,25.53955,74.37121,207.41736,207.41736,0,0,0,17.60907,26.13587c9.01056,11.39694,19.68708,23.03717,24.27146,36.35318a35.58127,35.58127,0,0,1,1.22073,4.23138L332.833,548.39722c-.16766.09082-.32183.19214-.49.28363l-1.6008,2.53418c-.36618-.4021-.73736-.82708-1.10354-1.22918-.21338-.23236-.41724-.47846-.63062-.71088-.13925-.15924-.27807-.31927-.41284-.455-.04654-.05285-.09259-.10638-.12518-.14947-.13474-.13574-.24548-.27619-.36618-.4021q-3.12191-3.55435-6.20468-7.165c-.014-.00983-.014-.00983-.01853-.03333-15.61276-18.38092-29.82818-38.22668-40.57943-59.59921-.32325-.64313-.661-1.29538-.9647-1.96661a197.92077,197.92077,0,0,1-11.94549-30.0083,174.97674,174.97674,0,0,1-4.26547-17.18241,145.49893,145.49893,0,0,1-1.53815-45.46624c3.741-30.18549,17.09424-58.83857,40.655-77.45179C303.84539,308.91975,304.4393,308.457,305.05642,307.991Z" transform="translate(-158.48716 -49)" fill="#e6e6e6"/><path d="M305.74066,308.6739C290.60888,343.17435,286.401,382.73237,294.578,419.56474c1.76785,7.96307,4.25421,15.88711,8.42517,22.94311a44.74042,44.74042,0,0,0,17.01932,16.27252c6.47818,3.68146,13.531,6.697,19.0014,11.88907,5.76615,5.47272,8.37036,12.97983,8.21421,20.84393-.19108,9.622-3.8281,18.60148-7.69,27.259-4.28784,9.61261-8.89389,19.52917-8.534,30.29919.04361,1.30493-1.98377,1.29633-2.02732-.00665-.62613-18.738,12.81537-33.88684,15.70539-51.89176,1.34854-8.40142.17337-17.26016-5.77283-23.72226-5.19968-5.65081-12.46994-8.76669-19.06143-12.43756-6.92121-3.85446-12.82416-8.63562-17.23407-15.291-4.51108-6.80808-7.3125-14.65161-9.27619-22.53455a175.74279,175.74279,0,0,1-4.37655-54.75287,184.35643,184.35643,0,0,1,15.02225-60.79c.5227-1.19177,2.26644-.155,1.74716,1.029Z" transform="translate(-158.48716 -49)" fill="#fff"/><path d="M291.28848,407.73273A27.17751,27.17751,0,0,1,262.78582,387.091c-.30542-1.26813,1.65082-1.80231,1.95667-.5325a25.16578,25.16578,0,0,0,26.55267,19.14688C292.59527,405.5983,292.58117,407.62623,291.28848,407.73273Z" transform="translate(-158.48716 -49)" fill="#fff"/><path d="M316.49194,457.34632a52.38245,52.38245,0,0,0,12.872-35.93924c-.039-1.305,1.98837-1.29681,2.02731.00668a54.48578,54.48578,0,0,1-13.47049,37.37082c-.86166.98285-2.28579-.46072-1.4288-1.43823Z" transform="translate(-158.48716 -49)" fill="#fff"/><path d="M292.85958,348.705a15.38377,15.38377,0,0,0,13.62879-5.22879c.84875-.99328,2.27206.45142,1.4288,1.43827a17.23882,17.23882,0,0,1-15.06427,5.81787,1.04773,1.04773,0,0,1-1.01031-1.017,1.01875,1.01875,0,0,1,1.017-1.01031Z" transform="translate(-158.48716 -49)" fill="#fff"/><path d="M697.00783,312.09317c5.96035-32.965-3.9451-70.37081-30.98487-90.14556a154.34494,154.34494,0,0,1-31.58624,101.15128c-8.57742,11.12729-19.27616,22.61038-18.85973,36.65379.25893,8.73815,5.03286,16.85207,11.29711,22.94928,6.26474,6.09736,13.96326,10.47465,21.56963,14.78374l1.19076,1.82881C671.711,374.1184,691.04747,345.05818,697.00783,312.09317Z" transform="translate(-158.48716 -49)" fill="#e6e6e6"/><path d="M665.5353,222.45391a131.92333,131.92333,0,0,1,9.18011,80.6464,56.81125,56.81125,0,0,1-5.91779,16.78738A32.58366,32.58366,0,0,1,656.55818,331.899c-4.68257,2.74229-9.78995,5.00512-13.72437,8.83794a19.951,19.951,0,0,0-5.78406,15.25672c.23035,7.005,2.964,13.50955,5.85833,19.77751,3.21362,6.95936,6.66183,14.13706,6.50188,21.98336-.01939.95072,1.45691.92519,1.47624-.02408.2783-13.65123-9.65363-24.55535-11.92889-37.6394-1.06168-6.10523-.2899-12.56746,3.97894-17.32959,3.73294-4.16432,8.99764-6.50223,13.76284-9.23791A34.76916,34.76916,0,0,0,669.10421,322.225a52.52,52.52,0,0,0,6.54138-16.49791,127.98988,127.98988,0,0,0,2.66794-39.91329A134.26324,134.26324,0,0,0,666.7978,221.688c-.39194-.86291-1.65192-.09139-1.26256.76589Z" transform="translate(-158.48716 -49)" fill="#fff"/><path d="M676.99873,294.45287A19.79271,19.79271,0,0,0,697.559,279.15109c.21039-.92637-1.21924-1.29682-1.42994-.36923a18.32762,18.32762,0,0,1-19.15447,14.19475c-.94779-.06565-.91828,1.411.02409,1.47625Z" transform="translate(-158.48716 -49)" fill="#fff"/><path d="M659.11558,330.82116a38.14873,38.14873,0,0,1-9.71432-26.0494c.016-.95073-1.46026-.92549-1.47625.02407A39.68052,39.68052,0,0,0,658.08874,331.882c.63682.70753,1.66015-.35716,1.02683-1.06089Z" transform="translate(-158.48716 -49)" fill="#fff"/><path d="M675.295,251.483a11.20374,11.20374,0,0,1-9.97421-3.67848c-.62752-.71527-1.65028.35028-1.02683,1.06088a12.55447,12.55447,0,0,0,11.02518,4.09381.763.763,0,0,0,.72612-.75017.742.742,0,0,0-.75015-.7261Z" transform="translate(-158.48716 -49)" fill="#fff"/><path d="M556.08047,249.82788c.37911.45779.75826.91553,1.13425,1.38541a147.54505,147.54505,0,0,1,13.619,19.68149c.31769.53.63166,1.07189.93348,1.60989a155.546,155.546,0,0,1,18.46608,54.20855,151.05627,151.05627,0,0,1,1.51868,22.90091c-.10458,10.58032-1.05973,22.0437,2.23989,31.75481a25.91705,25.91705,0,0,0,1.18443,2.98054l52.13481,16.27588c.137-.02249.271-.03288.40857-.05525l2.05189.745c.03147-.39485.05562-.805.0871-1.19988.01919-.22894.02683-.46158.046-.69052.00911-.1538.01767-.30783.03474-.4461.00323-.05118.00587-.10253.0054-.14189.017-.13823.01815-.26847.03148-.39485q.21207-3.43875.37656-6.89245c.00371-.01191.00371-.01191-.00417-.02746.79075-17.54577.12365-35.31173-3.21876-52.41165-.10074-.51443-.19714-1.04062-.32172-1.56249a144.13707,144.13707,0,0,0-6.50649-22.60444,127.44041,127.44041,0,0,0-5.20765-11.79487,105.96381,105.96381,0,0,0-19.39264-26.86227c-15.61671-15.71017-36.08394-26.251-57.95017-26.459C557.19189,249.82244,556.64355,249.82092,556.08047,249.82788Z" transform="translate(-158.48716 -49)" fill="#e6e6e6"/><path d="M555.99113,250.52617a131.92378,131.92378,0,0,1,55.88454,58.86453,56.811,56.811,0,0,1,5.38216,16.96669,32.58352,32.58352,0,0,1-2.541,16.95936c-2.08774,5.00883-4.8033,9.89053-5.6371,15.31962a19.951,19.951,0,0,0,4.56735,15.664c4.40144,5.45447,10.50028,9.00208,16.585,12.26408,6.75589,3.62187,13.83059,7.27678,18.42687,13.63793.55693.77071,1.72028-.13847,1.16421-.908-7.99676-11.06729-22.49188-13.79393-32.18607-22.87092-4.52348-4.23549-7.79794-9.85986-7.25664-16.23233.47331-5.57243,3.26931-10.60888,5.427-15.66214a34.769,34.769,0,0,0,3.1023-16.49,52.5197,52.5197,0,0,0-4.71-17.111,127.98881,127.98881,0,0,0-21.90034-33.47483,134.26284,134.26284,0,0,0-35.76142-28.29862c-.83247-.453-1.374.9216-.547,1.37165Z" transform="translate(-158.48716 -49)" fill="#fff"/><path d="M608.49237,301.11156a19.79272,19.79272,0,0,0,7.20354-24.59637c-.38975-.8663-1.7543-.30135-1.364.5661a18.32761,18.32761,0,0,1-6.74758,22.86606c-.79627.51817.11633,1.67941.908,1.16419Z" transform="translate(-158.48716 -49)" fill="#fff"/><path d="M616.10988,340.91649A38.14893,38.14893,0,0,1,592.67,325.96617c-.55963-.76873-1.72316.14023-1.16421.908a39.68073,39.68073,0,0,0,24.42293,15.50759c.93442.18155,1.11051-1.28473.18116-1.46527Z" transform="translate(-158.48716 -49)" fill="#fff"/><path d="M581.2612,267.82827a11.20364,11.20364,0,0,1-10.17861,3.06815c-.93167-.19331-1.10674,1.27322-.18116,1.46527a12.5546,12.5546,0,0,0,11.26774-3.36919.763.763,0,0,0,.12809-1.03612.742.742,0,0,0-1.03612-.12809Z" transform="translate(-158.48716 -49)" fill="#fff"/><path d="M289.76175,427.0153a27.21468,27.21468,0,0,1,27.21472,27.21463V454.23a27.21952,27.21952,0,0,1-22.00339,26.71066v44.51077H277.602V427.0153Z" transform="translate(-158.48716 -49)" fill="#3f3d56"/><path d="M956.3761,687.754v9.32q-5.92494,7.57508-12.21,14.85c-.45.53-.91,1.05-1.38,1.58-.71.83-1.44,1.65-2.17,2.47v-28.22Z" transform="translate(-158.48716 -49)" fill="#cacaca"/><path d="M910.1361,668.314a13.15546,13.15546,0,0,0-13.14,13.14v18.91a13.15546,13.15546,0,0,0,13.14,13.14h32.65c.47-.53.93-1.05,1.38-1.58q6.285-7.275,12.21-14.85c.26-.33.52-.66.77-.99,2.26-2.89,4.48-5.83,6.66-8.79,1.7-2.32,3.39-4.66,5.04-7.02.01-.01.02-.01.02-.02q4.14-5.88008,8.07-11.94Z" transform="translate(-158.48716 -49)" fill="#3f3d56"/><path d="M994.20611,506.45405a18.99882,18.99882,0,0,0-6.24-1.04h-5.37a19.6557,19.6557,0,0,0-5.77.87,19.43811,19.43811,0,0,0-13.61,18.52v157.75c0,.59.03,1.17.08,1.74a18.4227,18.4227,0,0,0,.51,3c1.7-2.32,3.39-4.66,5.04-7.02.01-.01.02-.01.02-.02q4.14-5.88006,8.07-11.94c1.41-2.17,2.81-4.36,4.18-6.56a398.42481,398.42481,0,0,0,26.24-49.56v-87.39A19.40741,19.40741,0,0,0,994.20611,506.45405Z" transform="translate(-158.48716 -49)" fill="#3f3d56"/><path d="M332.34616,687.754v18.83q-6.75-8.07-13.05-16.5c-.58-.77-1.15-1.55-1.72-2.33Z" transform="translate(-158.48716 -49)" fill="#cacaca"/><path d="M362.82614,668.314h-58.73q2.775,4.275,5.65,8.45,3.81,5.56494,7.83,10.99c.57.78,1.14,1.56,1.72,2.33q6.315,8.43,13.05,16.5c.84,1.02,1.69,2.03,2.55,3.04q1.65,1.95,3.35,3.88h24.58a13.14692,13.14692,0,0,0,13.13-13.14v-18.91A13.14689,13.14689,0,0,0,362.82614,668.314Z" transform="translate(-158.48716 -49)" fill="#3f3d56"/><path d="M299.31613,507.604a19.50913,19.50913,0,0,0-8.96-2.19h-5.36a19.18058,19.18058,0,0,0-7.39,1.47,19.41123,19.41123,0,0,0-12,17.92v67.77a398.874,398.874,0,0,0,38.49,75.74q2.775,4.275,5.65,8.45V524.804A19.421,19.421,0,0,0,299.31613,507.604Z" transform="translate(-158.48716 -49)" fill="#3f3d56"/><polygon points="359.293 751.487 376.909 747.445 369.703 677.573 343.703 683.539 359.293 751.487" fill="#9e616a"/><path d="M533.80609,739.864a20.48015,20.48015,0,0,1-.73-3.77,23.04691,23.04691,0,0,0-.88-4.45,23.35667,23.35667,0,0,0-1.85-3.8c-.35-.64-.72-1.28-1.05-1.93a15.98628,15.98628,0,0,1-.86-2.01c-10.31-30.44995-24.7-71.83-34.68-96.05-5.87-14.25-41.97-18.99-76.03-20.2-4.15-.15-8.27-.25-12.3-.3-1.39-.02-2.77-.04-4.14-.05-3.5-.02-6.91-.02-10.19.02-.43,0-.86,0-1.29.01q-3.58492.03-6.95.1c-15.42.3-26.75,1-28.77,1.13l-17.99-11.31-3.51-2.21-.37,2.21-2.83,16.86-4.83,28.77,12.11005,3.4,7.86,2.2,46.57,13.06,9.9,2.78.06.02,16.67-.03,45.58-.08,2.2,5.83a10.2797,10.2797,0,0,0,4.21,14.84l1.71.81,20.83,55.12a24.93778,24.93778,0,0,0,4.47,13.93c.35.51.73,1.01,1.13,1.5l.46.55,8.01,15.67,4.77-1.1,20.3-4.65.1-.2c.01-.03.27-.58.65-1.54v-.03C533.73608,760.994,537.2561,750.14405,533.80609,739.864Z" transform="translate(-158.48716 -49)" fill="#2f2e41"/><path d="M583.29614,805.134a26.11073,26.11073,0,0,0-31.38995-19.67993l-14.07-6.35-3.94,2.77-16.34,11.46-1.35.31-4.38,1,6.05,26.37,65.62-15.05Z" transform="translate(-158.48716 -49)" fill="#2f2e41"/><path d="M496.25613,764.474l-5.95,48.24-.2,1.58-.88,7.19c-3.43-1.4-6.85-2.85-10.23-4.34q-4.74-2.085-9.41-4.3v-48.36Z" transform="translate(-158.48716 -49)" fill="#9e616a"/><circle cx="208.65458" cy="347.76835" r="36.07316" fill="#9e616a"/><path d="M500.08615,782.884c-1-1.37-2.04-2.8-2.1-4.17-.23-4.83-.47-9.61-.72-14.29-.18-3.27-.36-6.5-.54-9.66-.02-.4-.05-.8-.07-1.19-.31-5.23,1.24-10.75,2.73-16.1.49-1.75.98-3.52,1.42-5.29a38.42911,38.42911,0,0,0,1.37-12.13c-2.56-32.39-14-62.85-19.13-67.98-7.8-7.8-43.07-25.82-65.32-36.78-3.95-1.95-7.49-3.67-10.39-5.07-2.57-1.25-4.64-2.24-6.05-2.92-1.08-.51-1.78-.84-2.02-.96l-.12-.06-8.05.9-1.29.15-7.1.8-46.19,5.18-7.13.8-10.09,1.14-9.11,1.02-.34.03-.06.34c0,.01-.02.08-.04.21a95.31926,95.31926,0,0,0,0,29.84c1.18,6.71,3.41,13.53,7.37,19.27.54.78,1.1,1.53,1.7,2.25a.35088.35088,0,0,0,.08.1c.13.16.26.32.4.48v.01a32.91954,32.91954,0,0,0,17.37,10.57c1,.27,2.02.49,3.07.67,11.19,1.98,23.83,3.8,36.22,5.4,5.13.66,10.22,1.28,15.14,1.86,9.85,1.16,19.05,2.14,26.63,2.92,10.62,1.08,18.08,1.75,19.74,1.89l18.55,86.54a12.68283,12.68283,0,0,0,2.14,15.61005l1.52,1.47,1.76,8.24,5.8,7.76.73.98h25.59l.14-.17c.09-.12,9.09-11.68,8.48-25.45C502.11612,785.674,501.12613,784.324,500.08615,782.884Z" transform="translate(-158.48716 -49)" fill="#2f2e41"/><path d="M499.38736,492.849a13.74184,13.74184,0,0,0-17.30957,12.0159l-29.97254,9.36779,1.25037,19.60266,42.1412-13.8236a13.81626,13.81626,0,0,0,3.89054-27.16275Z" transform="translate(-158.48716 -49)" fill="#9e616a"/><path d="M479.83139,525.28761l-22.401,8.47839-.57276,1.11114A11.30158,11.30158,0,0,1,441.634,539.7447h0l-50.35028,19.05676S368.79818,536.3,352.78939,516.2187l5.45606-33.55918a64.28882,64.28882,0,0,1,7.9234-22.08783c32.83124,7.19925,51.67743,53.09458,51.67743,53.09458l59.17013-11.29Z" transform="translate(-158.48716 -49)" fill="#6c63ff"/><path d="M362.01565,430.91334c-9.03088,2.43905-18.98715-.80368-26.03488-6.95474s-11.45636-14.86707-13.99658-23.87c-1.86041-6.59357-2.74252-13.91272.1933-20.10281s10.83712-10.3664,16.933-7.2396c-3.7605-4.38128-1.8818-11.62771,2.51016-15.37573s10.42282-4.8226,16.16669-5.41c8.33594-.85248,16.9465-.94791,24.87878,1.75268s15.13953,8.60486,17.62207,16.6081a12.64027,12.64027,0,0,0,15.07663-3.404,11.45183,11.45183,0,0,1-6.30975,12.41715l12.15372-3.94034c2.09021,4.42429-1.57233,9.9-6.25589,11.31683s-9.73932-.1318-14.18381-2.17871-8.75159-4.63473-13.57922-5.433-10.49836.7529-12.73139,5.10684c-1.16958,2.28043-1.23059,4.95123-1.90963,7.42249s-2.39921,5.03347-4.95411,5.23571c-1.61416.12778-3.19455-.732-4.8042-.55621a5.17667,5.17667,0,0,0-4.05441,3.9614,15.1987,15.1987,0,0,0-.0144,5.98l3.08725,23.598Z" transform="translate(-158.48716 -49)" fill="#2f2e41"/><path d="M407.33615,610.224l-1.91-2.87-13.94-20.91-.28-.41,4.31-22.36,1.34-6.98,2.93-15.19-.85-34.77-.61-24.6-.09-3.86-3.09-9.42a33.92882,33.92882,0,0,0-18-20.11l-20.8-9.52a10.141,10.141,0,0,0-13.43134,5.0278q-.13967.30671-.25867.62219c-2.85.39-15.22,2.47-25.71,10.61a39.05764,39.05764,0,0,0-14.48,22.62c-.02.07-.03.14-.05.21-1.39,6.21-2.43,16.01-3.1,29.29q-.675,13.17-.85,30.86a448.62517,448.62517,0,0,0,3.31,58.82c.23,1.86.47,3.71.72,5.57.21,1.56,1.71,3.05,3.16,4.48,1.33,1.31,2.7,2.67,2.89,3.9.17,1.08-.52,2.21-1.34,3.39-.1.15-.21.3-.31.45-1.02,1.45-2.07,2.96-1.8,4.55.63,3.58,1,7.22,1.35,10.74a113.67189,113.67189,0,0,0,2.1,14.42c.35,1.46.75,2.93,1.2,4.4,1.05,3.45,2.32,6.89,3.56,10.25,1.07,2.92,2.18,5.92,3.12,8.88.18.55.35,1.09.51,1.63l.08.28.29.05h.02a11.05851,11.05851,0,0,1,1.4-1.96.40612.40612,0,0,1,.09-.1q.21-.255.48-.54c2.19-2.39,6.95-6.68,17.37-13.91,2.33-1.61005,4.94-3.36005,7.86-5.28,10.71-7.01,25.67-16.14,46.57-27.93q7.86-4.44,16.87-9.39Z" transform="translate(-158.48716 -49)" fill="#6c63ff"/><path d="M519.5061,830.20405a26.05818,26.05818,0,0,0-18.53-7.67l-10.87-8.24-1.43-1.09-9.68,3.94c3.38,1.49,6.8,2.94,10.23,4.34q16.095,6.57,32.87,11.74A26.32553,26.32553,0,0,0,519.5061,830.20405Z" transform="translate(-158.48716 -49)" fill="#2f2e41"/><path d="M638.979,362.62862V64.70933H628.55631V362.62862a57.322,57.322,0,0,0-52.11329,57.078v15.634h36.47925a20.84531,20.84531,0,1,0,41.69062.02436v-.02436h36.4793v-15.634A57.322,57.322,0,0,0,638.979,362.62862Z" transform="translate(-158.48716 -49)" fill="#fff"/><polygon points="602.45 750.806 588.836 744.295 607.537 687.39 627.63 697 602.45 750.806" fill="#ffb6b6"/><path d="M852.20611,790.634q-5.94,3.705-12.03,7.2v.03l-.06.01-.02.01-1.54.38-2.21-5.84-5.1-13.47-13.9-36.7,21.61-5.33,1.22,4.95,9.14,37.07,2.62,10.6Z" transform="translate(-158.48716 -49)" fill="#ffb6b6"/><path d="M797.09124,552.47248a14.19228,14.19228,0,0,0,19.22614,4.82343,13.594,13.594,0,0,0,1.8244-1.32209l43.04089,24.7-1.86938-25.35517-40.58575-19.5683a14.13965,14.13965,0,0,0-17.15168-2.234,13.60711,13.60711,0,0,0-4.66107,18.67029Q797.00122,552.33066,797.09124,552.47248Z" transform="translate(-158.48716 -49)" fill="#ffb6b6"/><path d="M842.67816,571.37287l7.60827,4.63666,34.16913,20.83624a20.147,20.147,0,0,0,27.76563-6.39325l.01123-.01794a19.71263,19.71263,0,0,0,2.51263-13.91608l-15.18677-75.87311A21.05272,21.05272,0,0,0,871.92169,484.669a20.0447,20.0447,0,0,0-12.64722,24.35077l15.88019,53.84574-24.3418-11.3487Z" transform="translate(-158.48716 -49)" fill="#6c63ff"/><path d="M982.78613,646.184c-.01-.03-.03-.14-.06-.31l-.03-.11q-.10491-.54008-.24-1.2a269.77264,269.77264,0,0,0-7.85-29.97,92.05748,92.05748,0,0,0-7.47-17.34c-.1-.18-.21-.36-.32-.54l-.37-.6-3.11,1.14-.12.04-47.28,17.33-13.67,5.01-.43.16-2.33,9.5-32.69-4.23-26.64-3.45-7.65-.99a25.21418,25.21418,0,0,0-18.79,5.14,26.21117,26.21117,0,0,0-9.97,17.64c-.1.76-.16,1.53-.19,2.29l-2.31,86.17v.11l1.07,2.14,22.35,44.84h15.49l9.14-.01h7.43l-15.45-39.09.35-.53a17.18862,17.18862,0,0,0,1.77-15.23l1.74-5.04c3.61-10.41,1.9-15.41-.26-21.73a53.69167,53.69167,0,0,1-3.38-16.03l-.36-7.13c9.07,1.59,17.52,3.36,25.66,5.14q4.08.885,8.08,1.79c7.59,1.69,14.92,3.32,22.1,4.68,14.54,2.77,28.47,4.46,42.78,3.41.28-.02.56-.04.84-.07,3.48-.28,6.98-.73,10.52-1.36,1.99-.36,3.99-.77,6.01-1.25.56-.14,1.13-.28,1.69-.42a19.44444,19.44444,0,0,0,4.46-1.79,29.18741,29.18741,0,0,0,5.55-4.02c.01-.01.02-.01.02-.02q4.14011-5.88008,8.07-11.94c1.41-2.17,2.81-4.36,4.18-6.56C983.11609,656.26405,983.8761,650.724,982.78613,646.184Z" transform="translate(-158.48716 -49)" fill="#2f2e41"/><path d="M983.11609,629.994c-.15-.64-.34-1.29-.54-1.92a136.82,136.82,0,0,0-5.54-14.02c-2.36-5.2-5.19-10.77-8.56-16.8q-2.445-4.38008-5.26-9.11-1.41-2.37-2.93-4.83a2.54253,2.54253,0,0,0-.13-.22l-.29-.48-46.78,6.26-17.42,2.33-1.04,8.68-.25,2.15c-.01,0-.01,0,0,.01l-.7,5.86v.01l-.93,7.74-.08-.01-25.85-3.35-26.64-3.45-14.31-1.85a25.21442,25.21442,0,0,0-18.79,5.14,26.21145,26.21145,0,0,0-9.97,17.64c-.09.7-.15,1.42-.18006,2.13l-13.5,31.99a206.39624,206.39624,0,0,0-15.26,60.04l-9.9,31.65,1.41.13,20.98,1.95,5.54.52,12.2-17.81c1.39-2.03,2.71-4.12,3.94-6.26a95.07344,95.07344,0,0,0,5.39-10.84l26.39-62.8q3.06.52515,6.06,1,13.87509,2.25,26.64,3.67c27.67,3.09,51.63,3.33,72.96.71q8.985-1.095,17.37-2.88,3.07507-.64508,6.07-1.39c.47-.11.93-.22,1.39-.34a25.5193,25.5193,0,0,0,17.85-16.68A26.03811,26.03811,0,0,0,983.11609,629.994Z" transform="translate(-158.48716 -49)" fill="#2f2e41"/><ellipse cx="725.15362" cy="359.04508" rx="32.35846" ry="33.07962" fill="#ffb6b6"/><path d="M960.47613,584.424c-.05005-.37-.11-.74-.19-1.11-.77-4.06-2.77-8.04-4.7-11.9-1.84-3.68-3.59-7.16-4.31-10.62-.71-3.41-.29-6.83.12-10.13.44-3.58.9-7.28-.13-10.87a266.74324,266.74324,0,0,0-21.4-52.86,40.18782,40.18782,0,0,0-33.35-28.06,9.47231,9.47231,0,0,0,1.07-5.46,9.25974,9.25974,0,0,0-3.41-6.27,8.9265,8.9265,0,0,0-6.59-1.92l-15.04,1.69a9.21972,9.21972,0,0,0-8.01,10.21,9.9598,9.9598,0,0,0,.5,2.18c-13.96,17.78-21.13,33.98-21.79,49.3v.01a52.23226,52.23226,0,0,0,.03,5.31,52.90743,52.90743,0,0,0,3.68,16.67,71.09851,71.09851,0,0,0,9.96,17.13q1.26,1.59,2.61,3.12,1.26,1.5,2.82,3.15l2.63,4.12,2.45,3.85,13.1,30.23,6.67-.22.93,6.65.22,1.55,4.32,15.47.32,1.16,5.91-2.81,35.26-16.74,26.36-12.52Z" transform="translate(-158.48716 -49)" fill="#6c63ff"/><path d="M847.352,530.434a70.781,70.781,0,0,0,12.50183,20.12768c.90246,1.07758,1.8554,2.13611,2.85278,3.19648l5.11884,8.03161c18.86908-14.14349,34.1571-69.83227,34.1571-69.83227l-21.28979-4.14142Z" transform="translate(-158.48716 -49)" opacity="0.2" style="isolation:isolate"/><path d="M834.46276,444.215a14.22489,14.22489,0,0,1-4.80352,19.25037,13.647,13.647,0,0,1-2.02545.9935l1.50708,49.60324-21.48072-13.52209,1.86206-45.031a14.18545,14.18545,0,0,1,6.10993-16.20468,13.57541,13.57541,0,0,1,18.642,4.589Q834.37066,444.05291,834.46276,444.215Z" transform="translate(-158.48716 -49)" fill="#ffb6b6"/><path d="M831.02887,495.33833l-23.62238,3.3591,1.01569,48.91812a20.46787,20.46787,0,0,0,10.00628,17.249h0a19.61138,19.61138,0,0,0,23.426-2.65973l55.7699-53.64279a21.14537,21.14537,0,0,0,1.55816-29.03613h0a20.054,20.054,0,0,0-28.2608-2.37748q-.23841.20142-.47046.41016a20.57072,20.57072,0,0,0-1.57031,1.56406L832.05566,521.4864Z" transform="translate(-158.48716 -49)" fill="#6c63ff"/><path d="M852.80609,789.384l-.87.16-11.76,2.17-3.83.71-6.03,1.11,2.14,8.63c2.57-1.39,5.11-2.82,7.64-4.28l.02-.01.06-.01v-.03q6.09-3.47993,12.03-7.2c.28-.17.56-.34.84-.53Z" transform="translate(-158.48716 -49)" fill="#2f2e41"/><path d="M765.28613,790.51405l-14.73-7.06-2.31-1.11-3.69,9.06-25.76,5.67a6.11226,6.11226,0,0,0-1,11.63l25.17,10.27,7.99-7.19-1.96,9.65,9.48,3.87,10.38995-33.07Z" transform="translate(-158.48716 -49)" fill="#2f2e41"/><path d="M970.2287,393.69862c-5.50025-6.41419-8.11524-14.9242-12.51227-22.20783-4.3971-7.28369-12.04883-13.80261-20.13245-12.1076-5.57233,1.16851-9.87878,6.08563-12.059,11.56768-2.17975,5.482-2.58838,11.52756-2.97046,17.45014.135-12.17114-7.88373-23.97028-18.92975-27.85394-11.04516-3.88364-24.26428.44839-31.205,10.22647a16.86642,16.86642,0,0,0-22.40162-.47025c-6.20825,5.54874-7.58215,16.10983-3.01641,23.18738s14.45379,9.71414,21.70959,5.78885l2.56519,2.35968c-1.44391,5.05014,1.3562,11.01556,6.06323,12.91659,3.81683,1.54175,9.20532,1.28513,10.6336,5.29062.99817,2.79877-.86743,5.78617-2.852,7.93683-1.98407,2.15064-4.34014,4.37152-4.57843,7.3476-.3601,4.49041,4.28028,7.636,8.49854,8.5834,10.17145,2.28446,21.4574-2.42572,27.31988-11.4021q.16947-.25964.36853-.52a39.27855,39.27855,0,0,0,7.90058-30.03345c-.32977-2.07467.0025-3.61782,1.43292-4.10916,6.18256-2.12368,23.50433,2.33353,28.74652,6.36188,5.24262,4.02835,9.44061,9.3595,14.49,13.64783,5.04987,4.28839,11.48462,7.59625,17.89618,6.42846,5.135-.93527,9.50348-4.66326,12.4419-9.16,2.938-4.4967,4.629-9.73825,6.14373-14.94729C994.42675,406.54005,978.88623,403.7942,970.2287,393.69862Z" transform="translate(-158.48716 -49)" fill="#2f2e41"/><path d="M866.81226,590.88v190.2q-5.43,3.735-11,7.27V603.49c0-5.36-1.8-9.71-4.01-9.72h-166.49c-2.22.01-4.01,4.36-4.02,9.72V848.95c-2.22.22-4.44.43-6.66.61-.92.08-1.85.15-2.77.22-.53-.98-1.05-1.97-1.56994-2.97V590.88c0-1.48.06-2.97.16-4.44.9-12.48,5.37-21.6,10.6-21.62h175a4.68158,4.68158,0,0,1,1.84.39c4.38,1.86,7.84,10.02,8.71,20.57C866.74225,587.46,866.82227,589.17,866.81226,590.88Z" transform="translate(-158.48716 -49)" fill="#e4e4e4"/><path d="M599.68225,590.88V848.19c-.15.24-.3.47-.44995.71q-5.64-.57-11.23-1.31V603.49c0-5.36-1.91-9.71-4.26-9.72h-176.71c-2.35.01-4.26,4.36-4.26,9.72V772.95q-5.925-4.365-11.68-8.95V590.88c0-1.48.06-2.97.17-4.44.95-12.48,5.7-21.6,11.26-21.62h185.73a5.1397,5.1397,0,0,1,1.95.39c4.65,1.86,8.33,10.02,9.26,20.57C599.61224,587.46,599.68225,589.17,599.68225,590.88Z" transform="translate(-158.48716 -49)" fill="#e4e4e4"/><polygon points="381.974 456.37 393.555 507.325 400.955 515.431 406.294 515.431 384.291 422.785 383.202 438.524 383.202 438.535 381.974 456.37" fill="#3f3d56"/><path d="M579.02612,567.03407a.98113.98113,0,0,0-.13-.22,2.012,2.012,0,0,0-.45-.64l-1.35-1.35-7.1-7.11a2.8064,2.8064,0,0,0-1.95-.8h-.03l-5.01.03-4.31.03-6.02.04-41,.26-26.94995.17a2.785,2.785,0,0,0-2.75,2.77,2.89843,2.89843,0,0,0,.26,1.17l.52,1.11,1.09,2.33,1.42,3.05.7,1.5a2.775,2.775,0,0,0,2.51,1.6h88.01a2.82416,2.82416,0,0,0,2.54-3.94Z" transform="translate(-158.48716 -49)" fill="#3f3d56"/><path d="M485.26754,567.87165l.69483,1.50549a2.79886,2.79886,0,0,0,2.51306,1.59815H576.489a2.819,2.819,0,0,0,2.53619-3.9375.83883.83883,0,0,0-.12744-.22Z" transform="translate(-158.48716 -49)" opacity="0.17" style="isolation:isolate"/><polygon points="383.202 438.524 383.202 438.535 402.044 515.431 406.294 515.431 384.291 422.785 383.202 438.524" opacity="0.17" style="isolation:isolate"/><path d="M571.24609,272.334l-2.76-.37a2.89234,2.89234,0,0,0-2.13.57l-1.65,1.27-18.37,22.98a2.89223,2.89223,0,0,0-1.1,1.92l-1.03,7.82-25.64,195.09a2.9253,2.9253,0,0,0,.51,2.05l12.08,33.3.36.52.78,1.11a2.93833,2.93833,0,0,0,1.66,1.14l1.75.44a2.89572,2.89572,0,0,0,2.34-.42,2.8517,2.8517,0,0,0,1.24-2.02l3.13-23.78v-.01l2-15.26,1.69-12.87v-.01l27.64-210.23a2.88664,2.88664,0,0,0-2.48578-3.23819Z" transform="translate(-158.48716 -49)" fill="#3f3d56"/><path d="M564.7019,273.80491,531.15417,536.96845l.36444.51514.77735,1.10669a2.929,2.929,0,0,0,1.66046,1.14093l1.7525.44055a2.90552,2.90552,0,0,0,3.57922-2.438l34.455-262.15661a2.89623,2.89623,0,0,0-2.49323-3.24778l-2.76715-.36367a2.85479,2.85479,0,0,0-2.131.57263Z" transform="translate(-158.48716 -49)" opacity="0.17" style="isolation:isolate"/><polygon points="405.226 232.331 387.423 257.742 366.263 418.743 377.735 441.502 405.226 232.331" fill="#6c63ff"/><polygon points="578.645 456.37 567.064 507.325 559.664 515.431 554.325 515.431 576.329 422.785 577.417 438.524 577.417 438.535 578.645 456.37" fill="#3f3d56"/><path d="M792.86609,557.444l-67.94-.43-6.03-.04-4.3-.03-5.01-.03h-.04a2.76476,2.76476,0,0,0-1.94.8l-8.46,8.46a2.18417,2.18417,0,0,0-.45.64.98162.98162,0,0,0-.13.22,2.82408,2.82408,0,0,0,2.54,3.94h88.01a2.80049,2.80049,0,0,0,2.52-1.6l.69-1.5,1.42-3.05,1.61-3.44a2.74173,2.74173,0,0,0,.26-1.17A2.785,2.785,0,0,0,792.86609,557.444Z" transform="translate(-158.48716 -49)" fill="#3f3d56"/><path d="M792.32592,567.87165l-.69482,1.50549a2.79886,2.79886,0,0,1-2.51306,1.59815H701.10455a2.819,2.819,0,0,1-2.53619-3.9375.83883.83883,0,0,1,.12744-.22Z" transform="translate(-158.48716 -49)" opacity="0.17" style="isolation:isolate"/><polygon points="577.417 438.524 577.417 438.535 558.575 515.431 554.325 515.431 576.329 422.785 577.417 438.524" opacity="0.17" style="isolation:isolate"/><path d="M759.02612,501.614l-26.67-202.91a2.89223,2.89223,0,0,0-1.1-1.92l-18.36-22.98-1.65-1.27a2.92886,2.92886,0,0,0-2.14-.57l-2.76.37a2.89377,2.89377,0,0,0-2.5,3.24h0l27.64,210.24v.01l1.69,12.86,2.01,15.27v.02l3.12,23.76a2.832,2.832,0,0,0,1.25,2.02,2.87294,2.87294,0,0,0,2.33.42l1.75-.44a2.93888,2.93888,0,0,0,1.66-1.14l.78-1.11.36-.52,12.08-33.3A2.87576,2.87576,0,0,0,759.02612,501.614Z" transform="translate(-158.48716 -49)" fill="#3f3d56"/><path d="M712.89166,273.80491l33.54767,263.16354-.36444.51514-.77735,1.10669a2.929,2.929,0,0,1-1.66046,1.14093l-1.7525.44055a2.90552,2.90552,0,0,1-3.57922-2.438l-34.455-262.15658a2.89623,2.89623,0,0,1,2.49322-3.24778l2.76709-.36367a2.8548,2.8548,0,0,1,2.131.57263Z" transform="translate(-158.48716 -49)" opacity="0.17" style="isolation:isolate"/><polygon points="555.393 232.331 573.196 257.742 594.356 418.743 582.884 441.502 555.393 232.331" fill="#6c63ff"/><path d="M382.98611,605.934a8.207,8.207,0,0,1-.13,1.5c-.04.24-.09.47-.15.7a8.69248,8.69248,0,0,1-8.41,6.49h-37.63v89.75a8.64832,8.64832,0,0,1-1.77,5.25c-.86-1.01-1.71-2.02-2.55-3.04q-6.75-8.07-13.05-16.5v-75.46h-16.8a8.68518,8.68518,0,0,1-.72-17.34q.36-.02992.72-.03h71.8A8.687,8.687,0,0,1,382.98611,605.934Z" transform="translate(-158.48716 -49)" fill="#3f3d56"/><path d="M982.61609,605.934a8.69428,8.69428,0,0,1-5.58,8.12,8.5076,8.5076,0,0,1-2.43.54c-.22.02-.45.03-.67.03h-16.79v81.46c-.25.33-.51.66-.77.99q-5.92494,7.57508-12.21,14.85a8.62246,8.62246,0,0,1-4.39-7.55v-89.75h-37.64a8.50282,8.50282,0,0,1-3.24-.63,8.6594,8.6594,0,0,1-5.22-6.08v-.01a8.58485,8.58485,0,0,1,.7-5.86c-.01-.01-.01-.01,0-.01a8.495,8.495,0,0,1,1.54-2.16,8.69213,8.69213,0,0,1,6.22-2.62h71.8a8.6785,8.6785,0,0,1,8.68006,8.67694Z" transform="translate(-158.48716 -49)" fill="#3f3d56"/><path d="M982.04138,438.59605a27.21464,27.21464,0,0,0-27.21472,27.21463v.00006A27.21945,27.21945,0,0,0,976.83,492.5214v44.51077h17.3711V438.59605Z" transform="translate(-158.48716 -49)" fill="#3f3d56"/><path d="M506.89206,537.97041a13.74185,13.74185,0,0,0-19.845,7.08374l-31.37851,1.22357-4.2279,14.61609,44.609,2.28357a13.81628,13.81628,0,0,0,10.8425-25.207Z" transform="translate(-158.48716 -49)" fill="#9e616a"/><path d="M481.11709,564.75355l-32.23214-.4018-4.08-.05523-65.57767-.82624s-17.8081-16.98919-33.31457-34.48083l2.17343-15.72034a64.22775,64.22775,0,0,1,21.53521-39.76663c22.209,14.83987,35.08838,44.21371,35.08838,44.21371l21.595,9.66309h0a94.54686,94.54686,0,0,1,43.17008,12.643l7.10162,4.11425Z" transform="translate(-158.48716 -49)" fill="#6c63ff"/><path d="M582.3861,846.814h116.26q-11.89508,1.74-24.01,2.75h-68.24Q594.27609,848.559,582.3861,846.814Z" transform="translate(-158.48716 -49)" fill="#ccc"/><path d="M605.76049,788.28461c2.25013-20.307,14.54737-40.45007,33.79377-47.306a94.135,94.135,0,0,0,.86871,64.624c3.07843,7.9967,7.335,16.57037,4.64868,24.70721-1.67139,5.063-5.87347,8.97565-10.596,11.4502-4.72277,2.47455-9.98449,3.69415-15.18048,4.89l-1.01422.86194C609.75866,828.94282,603.51031,808.59162,605.76049,788.28461Z" transform="translate(-158.48716 -49)" fill="#ccc"/><path d="M639.75122,741.35938a80.45967,80.45967,0,0,0-19.395,45.54615,34.64977,34.64977,0,0,0,.53912,10.84271,19.8727,19.8727,0,0,0,5.06537,9.15045c2.26025,2.4176,4.85217,4.62878,6.48541,7.55377a12.168,12.168,0,0,1,.72724,9.92468c-1.35321,4.05481-4.08271,7.3816-6.86493,10.54218-3.08918,3.50922-6.35346,7.10522-7.62482,11.71966-.154.55909-1.01257.28742-.85876-.27087,2.212-8.02844,9.91461-12.67493,13.52069-19.92761,1.68261-3.38422,2.35559-7.29608.6886-10.82245-1.45777-3.08368-4.12861-5.36615-6.43836-7.79425a21.20529,21.20529,0,0,1-5.28619-8.76264,32.03173,32.03173,0,0,1-.954-10.782,78.06153,78.06153,0,0,1,5.38342-23.796A81.88749,81.88749,0,0,1,639.14648,740.692c.37921-.43621.98157.234.6048.66736Z" transform="translate(-158.48716 -49)" fill="#fff"/><path d="M620.52563,781.45338a12.07151,12.07151,0,0,1-9.357-12.52143.45063.45063,0,0,1,.90008.0329,11.178,11.178,0,0,0,8.72785,11.62976c.56543.12647.29132.98456-.27088.85877Z" transform="translate(-158.48716 -49)" fill="#fff"/><path d="M624.65319,805.8238a23.26712,23.26712,0,0,0,10.21-13.53778c.156-.55853,1.01458-.287.85876.27087a24.201,24.201,0,0,1-10.65307,14.06568C624.5736,806.92542,624.16058,806.125,624.65319,805.8238Z" transform="translate(-158.48716 -49)" fill="#fff"/><path d="M628.99633,756.63105a6.833,6.833,0,0,0,6.47046-.41528c.49128-.309.90375.49182.41571.79876a7.65687,7.65687,0,0,1-7.157.47522.46538.46538,0,0,1-.29395-.56482.45249.45249,0,0,1,.56482-.29394Z" transform="translate(-158.48716 -49)" fill="#fff"/><path d="M698.9729,776.40119c-.30127.20166-.60248.40332-.904.61255a89.98346,89.98346,0,0,0-11.38483,9.136c-.27789.25457-.55573.51672-.82575.77868a94.86821,94.86821,0,0,0-20.2243,28.4762,92.12942,92.12942,0,0,0-4.87146,13.12292c-1.77936,6.20307-3.21509,13.07032-6.83319,18.1731a15.81081,15.81081,0,0,1-1.21082,1.53632l-33.30743.44531c-.07623-.037-.15271-.06641-.22925-.10333l-1.329.07861c.05029-.23627.10754-.48029.15778-.71655.02862-.13721.06463-.27448.0932-.41169.02142-.09149.04321-.183.05731-.26678.007-.03046.0144-.061.02154-.08386.0141-.0838.03608-.1601.0503-.23627q.47415-2.047.97882-4.0946c-.00012-.00763-.00012-.00763.0072-.01532a135.46423,135.46423,0,0,1,10.99866-30.07813c.14837-.2832.29626-.574.45984-.85742a87.91232,87.91232,0,0,1,7.73559-12.082,77.70964,77.70964,0,0,1,5.096-5.989,64.62744,64.62744,0,0,1,16.009-12.32935c11.86182-6.467,25.65985-9.06848,38.47827-5.38641C698.32415,776.20466,698.645,776.29914,698.9729,776.40119Z" transform="translate(-158.48716 -49)" fill="#ccc"/><path d="M698.90362,776.825a80.46031,80.46031,0,0,0-42.90777,24.6889,34.64794,34.64794,0,0,0-6.0976,8.98194,19.87276,19.87276,0,0,0-1.46478,10.35577c.34912,3.29114,1.08734,6.61719.63037,9.93591a12.168,12.168,0,0,1-5.39472,8.36219c-3.52172,2.42279-7.704,3.43573-11.82836,4.28418-4.57929.942-9.35071,1.8479-13.144,4.76684-.45959.3537-.9815-.38019-.52258-.73334,6.59979-5.07849,15.54749-4.15094,22.79327-7.77069,3.381-1.689,6.27356-4.40728,7.06568-8.2265.69262-3.33978-.06568-6.77032-.448-10.09961a21.20593,21.20593,0,0,1,1.055-10.17914,32.03212,32.03212,0,0,1,5.7298-9.18322,78.06159,78.06159,0,0,1,18.62524-15.75861A81.88692,81.88692,0,0,1,698.82263,775.928c.56543-.12.64288.77777.08111.897Z" transform="translate(-158.48716 -49)" fill="#fff"/><path d="M659.41381,797.26264a12.07155,12.07155,0,0,1,.06769-15.63122c.37854-.4386,1.07794.129.69886.56817a11.17805,11.17805,0,0,0-.03321,14.54047C660.52252,797.18146,659.787,797.70155,659.41381,797.26264Z" transform="translate(-158.48716 -49)" fill="#fff"/><path d="M648.03662,819.20612a23.267,23.267,0,0,0,16.30279-4.662c.46088-.352.98291.38171.52259.73333a24.20114,24.20114,0,0,1-16.97437,4.81678c-.57782-.0564-.42572-.94422.149-.88807Z" transform="translate(-158.48716 -49)" fill="#fff"/><path d="M681.12188,782.54334a6.83314,6.83314,0,0,0,5.41632,3.56415c.57825.04907.42548.93683-.149.88806a7.65709,7.65709,0,0,1-6.00067-3.92956.46539.46539,0,0,1,.10534-.628A.45254.45254,0,0,1,681.12188,782.54334Z" transform="translate(-158.48716 -49)" fill="#fff"/><circle cx="557.76249" cy="745.09901" r="10.59285" fill="#ccc"/><circle cx="595.12418" cy="719.09803" r="10.59285" fill="#ccc"/><path d="M656.44226,187.7c-62.31,16.39-131.35,26.36-201.55,29.09a252.37107,252.37107,0,0,1-30.88-.21c-22.59-1.9-41.94-9-63.49-12.88-10.36-1.86-21.9-3.22-32.33-5.23q3.61506-4.485,7.36-8.86c22.49,1.9,45.33,8.12,68.09,11.01,38.69,4.92,82.04-.57,111.37-14.11,14.23-6.57,25.13-14.77,39.31-21.37a18.32,18.32,0,0,1,6.17-1.89c4.49-.41,8.43,1.4,11.64,3.02,23.79,12.01,58.33,21.77,90.39,16.4C664.91229,184.54,660.37225,186.67,656.44226,187.7Z" transform="translate(-158.48716 -49)" fill="#fff"/><path d="M798.31244,229.96509c.29279-.05347.58636-.09522.87933-.14594a23.90284,23.90284,0,0,1-3.46472-2.61035Z" transform="translate(-158.48716 -49)" fill="#fff"/><path d="M990.2323,253.66q-20.085,1.605-40.38,2.39a254.38717,254.38717,0,0,1-30.88-.21c-22.59-1.91-41.94-9-63.49-12.88-19.75-3.55-43.75-5.26-56.29-13.14,32.41-5.61,65.99,5.81,99.41,10.06a237.37571,237.37571,0,0,0,81.00994-4Q985.16227,244.61,990.2323,253.66Z" transform="translate(-158.48716 -49)" fill="#fff"/></svg>