<svg id="f884f692-0494-4baf-9475-d9448c55dbe1" data-name="Layer 1" xmlns="http://www.w3.org/2000/svg" width="1137" height="693.11186" viewBox="0 0 1137 693.11186"><path d="M168.89819,796.55593l-1.95117-.43945c21.75586-96.751,76.43018-184.60938,153.95117-247.39161C511.624,394.502,791.26007,424.09353,945.48291,614.81929A444.11409,444.11409,0,0,1,1033.053,794.93581l-1.94922.44336C985.05005,593.17019,807.82935,451.9446,600.134,451.9446,395.1604,451.9446,213.79956,596.87429,168.89819,796.55593Z" transform="translate(-31.5 -103.44407)" fill="#3f3d56"/><circle cx="417.13336" cy="69.4033" r="54.31516" fill="#ff6584"/><path d="M214.63058,784.217c1.694,6.26184,7.4961,10.14,7.4961,10.14s3.05572-6.27435,1.36177-12.53619-7.49609-10.14-7.49609-10.14S212.93665,777.95522,214.63058,784.217Z" transform="translate(-31.5 -103.44407)" fill="#3f3d56"/><path d="M217.11972,782.8713c4.64821,4.52484,5.216,11.48059,5.216,11.48059s-6.9685-.3805-11.61671-4.90534-5.216-11.48059-5.216-11.48059S212.4715,778.34646,217.11972,782.8713Z" transform="translate(-31.5 -103.44407)" fill="#6c63ff"/><path d="M343.63058,784.217c1.69394,6.26184,7.4961,10.14,7.4961,10.14s3.05572-6.27435,1.36175-12.53619-7.49609-10.14-7.49609-10.14S341.93665,777.95522,343.63058,784.217Z" transform="translate(-31.5 -103.44407)" fill="#3f3d56"/><path d="M346.11972,782.8713c4.64822,4.52484,5.216,11.48059,5.216,11.48059s-6.9685-.3805-11.61673-4.90534-5.216-11.48059-5.216-11.48059S341.4715,778.34646,346.11972,782.8713Z" transform="translate(-31.5 -103.44407)" fill="#6c63ff"/><polygon points="337.71 181.988 317.286 165.648 431.66 63.529 721.679 63.529 721.679 153.394 533.779 280.022 337.71 181.988" fill="#3f3d56"/><polygon points="774.556 120.812 774.556 65.569 736.05 65.569 736.05 79.098 721.679 63.529 627.729 165.648 590.966 190.157 533.964 606.62 619.93 692.585 819.714 692.585 819.714 169.733 774.556 120.812" fill="#ccc"/><path d="M348.78618,269.09254l310.44313,0V796.029l-310.44313,0C314.88914,603.22389,306.36836,423.2649,348.78618,269.09254Z" transform="translate(-31.5 -103.44407)" fill="#f2f2f2"/><rect x="437.78711" y="563.91435" width="57.18689" height="128.67053" fill="#ccc"/><polygon points="376.515 600.677 376.515 580.253 352.007 580.253 352.007 600.677 374.473 600.677 376.515 600.677" fill="#3f3d56"/><polygon points="374.473 617.016 352.007 617.016 352.007 637.44 376.515 637.44 376.515 617.016 374.473 617.016" fill="#3f3d56"/><rect x="392.85455" y="580.25346" width="24.50867" height="20.42389" fill="#3f3d56"/><rect x="392.85455" y="617.01646" width="24.50867" height="20.42389" fill="#3f3d56"/><polygon points="543.991 600.677 543.991 580.253 519.483 580.253 519.483 600.677 541.949 600.677 543.991 600.677" fill="#3f3d56"/><polygon points="541.949 617.016 519.483 617.016 519.483 637.44 543.991 637.44 543.991 617.016 541.949 617.016" fill="#3f3d56"/><rect x="560.33044" y="580.25346" width="24.50867" height="20.42389" fill="#3f3d56"/><rect x="560.33044" y="617.01646" width="24.50867" height="20.42389" fill="#3f3d56"/><polygon points="715.552 192.199 715.552 171.776 691.043 171.776 691.043 192.199 713.51 192.199 715.552 192.199" fill="#3f3d56"/><polygon points="713.51 208.539 691.043 208.539 691.043 228.962 715.552 228.962 715.552 208.539 713.51 208.539" fill="#3f3d56"/><rect x="731.89117" y="171.77561" width="24.50867" height="20.42389" fill="#3f3d56"/><rect x="731.89117" y="208.53863" width="24.50867" height="20.42389" fill="#3f3d56"/><polygon points="715.552 306.573 715.552 286.149 691.043 286.149 691.043 306.573 713.51 306.573 715.552 306.573" fill="#3f3d56"/><polygon points="713.51 322.912 691.043 322.912 691.043 343.336 715.552 343.336 715.552 322.912 713.51 322.912" fill="#3f3d56"/><rect x="731.89117" y="286.14942" width="24.50867" height="20.42389" fill="#3f3d56"/><rect x="731.89117" y="322.91242" width="24.50867" height="20.42389" fill="#3f3d56"/><polygon points="715.552 420.947 715.552 400.523 691.043 400.523 691.043 420.947 713.51 420.947 715.552 420.947" fill="#3f3d56"/><polygon points="713.51 437.286 691.043 437.286 691.043 457.71 715.552 457.71 715.552 437.286 713.51 437.286" fill="#3f3d56"/><rect x="731.89117" y="400.52323" width="24.50867" height="20.42389" fill="#3f3d56"/><rect x="731.89117" y="437.28623" width="24.50867" height="20.42389" fill="#3f3d56"/><polygon points="715.552 535.321 715.552 514.897 691.043 514.897 691.043 535.321 713.51 535.321 715.552 535.321" fill="#3f3d56"/><polygon points="713.51 551.66 691.043 551.66 691.043 572.084 715.552 572.084 715.552 551.66 713.51 551.66" fill="#3f3d56"/><rect x="731.89117" y="514.89701" width="24.50867" height="20.42389" fill="#3f3d56"/><rect x="731.89117" y="551.66001" width="24.50867" height="20.42389" fill="#3f3d56"/><rect x="352.00677" y="192.1995" width="236.91718" height="49.01733" fill="#3f3d56"/><rect x="352.00677" y="290.2342" width="236.91718" height="49.01733" fill="#3f3d56"/><rect x="352.00677" y="388.26887" width="236.91718" height="49.01733" fill="#3f3d56"/><rect x="352.00677" y="486.30357" width="236.91718" height="49.01733" fill="#3f3d56"/><rect y="690.52885" width="1137" height="2" fill="#3f3d56"/><rect x="190.40491" y="459.61479" width="5.87477" height="232.05347" fill="#3f3d56"/><path d="M281.99716,592.63143c.374,81.14331-56.71464,147.1875-56.71464,147.1875s-57.695-65.51514-58.06894-146.65845S223.92822,445.973,223.92822,445.973,281.62317,511.48809,281.99716,592.63143Z" transform="translate(-31.5 -103.44407)" fill="#6c63ff"/><path d="M281.99716,592.63143c.374,81.14331-56.71464,147.1875-56.71464,147.1875s-57.695-65.51514-58.06894-146.65845S223.92822,445.973,223.92822,445.973,281.62317,511.48809,281.99716,592.63143Z" transform="translate(-31.5 -103.44407)" opacity="0.1" style="isolation:isolate"/><rect x="114.03286" y="459.61479" width="5.87477" height="232.05347" fill="#3f3d56"/><path d="M205.62511,592.63143c.374,81.14331-56.71465,147.1875-56.71465,147.1875s-57.695-65.51514-58.06894-146.65845S147.55617,445.973,147.55617,445.973,205.25114,511.48809,205.62511,592.63143Z" transform="translate(-31.5 -103.44407)" fill="#6c63ff"/><path d="M977.0545,268.76439c-46.27673.21329-83.94415.897-83.94415.897s44.77368-59.30728,83.77625-37.33435,83.80664,36.56195,83.80664,36.56195S1023.33124,268.55111,977.0545,268.76439Z" transform="translate(-31.5 -103.44407)" fill="#f2f2f2"/><path d="M206.0545,382.76439c-46.27671.21329-83.94415.897-83.94415.897s44.77365-59.30728,83.77623-37.33435,83.80663,36.562,83.80663,36.562S252.33122,382.55111,206.0545,382.76439Z" transform="translate(-31.5 -103.44407)" fill="#f2f2f2"/><path d="M374.0545,144.76439c-46.27673.21329-83.94415.897-83.94415.897S334.884,86.35412,373.8866,108.327s83.80664,36.562,83.80664,36.562S420.33124,144.55111,374.0545,144.76439Z" transform="translate(-31.5 -103.44407)" fill="#f2f2f2"/><rect x="1035.03284" y="459.61479" width="5.87476" height="232.05347" fill="#3f3d56"/><path d="M1126.62512,592.63143c.374,81.14331-56.7146,147.1875-56.7146,147.1875s-57.695-65.51514-58.069-146.65845,56.7146-147.1875,56.7146-147.1875S1126.2511,511.48809,1126.62512,592.63143Z" transform="translate(-31.5 -103.44407)" fill="#6c63ff"/><polygon points="824.667 547.629 883.956 547.629 883.956 533.318 916.667 533.318 916.667 547.629 978 547.629 978 611.007 916.667 611.007 916.667 690.74 883.956 690.74 883.956 611.007 824.667 611.007 794 576.251 824.667 547.629" fill="#3f3d56"/><polygon points="431.66 63.529 720.106 49.419 841.106 150.419 819.714 169.733 628.106 165.419 431.66 63.529" fill="#3f3d56"/><rect x="735.10563" y="61.4194" width="40" height="62" fill="#f2f2f2"/></svg>