<?xml version="1.0" encoding="UTF-8"?><svg id="a" xmlns="http://www.w3.org/2000/svg" width="878.63972" height="473.81258" viewBox="0 0 878.63972 473.81258"><circle cx="464.34905" cy="6.59142" r="6.59143" fill="#fff"/><polygon points="766.09005 363.2601 766.09005 369.12011 162.16903 369.12011 162.62302 368.38711 162.62302 363.2601 766.09005 363.2601" fill="#ccc"/><path d="M691.54737,376.68208c-.48358,.00061-.9068,.32495-1.03314,.79175l-1.72858,6.42047c-.15375,.57062,.18414,1.15778,.75476,1.31152,.09076,.02448,.18439,.03687,.27838,.03687h32.8739c.59082,0,1.06982-.47894,1.06982-1.06982,.00006-.11926-.0199-.23767-.05896-.35034l-2.22235-6.42041c-.14935-.43085-.55524-.71985-1.01123-.71997l-28.92261-.00006Z" fill="#ccc"/><path d="M500.48139,417.47767h6.57648l-5.15302-344.38824h-2.57648l.10278,6.87061h-57.74664l.10278-6.87061h-2.57648l-5.15302,344.38824h6.57648l-3.66589-22.32941h67.17883l-3.66583,22.32941Zm-2.71375-248.20001h-57.41956l.62964-42.08234h59.16028l-2.37036,42.08234Zm3.03857,2.57648l-2.37036,42.08234h-55.75598l-2.37036-42.08234h60.4967Zm.66821,44.65881l-2.37036,42.08234h-58.09241l-1.37036-42.08234h61.83313Zm.66821,44.65881l-2.37036,42.08234h-59.42883l-1.37036-42.08234h63.16956Zm.66821,44.65881l-2.37036,42.0824h-60.76532l-1.37036-42.0824h64.50604Zm-3.34106-223.29404l.62964,42.08234h-59.08313l.62964-42.08234h57.82385Zm-53.81448,318.01682l-8.01865-50.06391h65.84241l-12.60669,51.09182-45.21707-1.02792Z" fill="#3f3d56"/><path d="M457.79442,107.68338c23.20276,0,42.01233,18.80956,42.01233,42.01233s-18.80957,32.01233-42.01233,32.01233-42.01233-8.80956-42.01233-32.01233,18.80957-42.01233,42.01233-42.01233Z" fill="#2f2e41"/><polygon points="469.94728 181.00335 482.5064 174.72979 486.57986 201.23155 474.02075 203.50511 469.94728 181.00335" fill="#2f2e41"/><rect x="446.76378" y="184.23076" width="12.76324" height="22.86749" transform="translate(-27.60694 83.84976) rotate(-10.26106)" fill="#2f2e41"/><ellipse cx="452.99195" cy="209.74393" rx="10.63605" ry="3.98853" transform="translate(-28.24119 342.44241) rotate(-40.26106)" fill="#2f2e41"/><ellipse cx="477.58691" cy="205.2915" rx="10.63605" ry="3.98853" transform="translate(-19.53736 357.28268) rotate(-40.26106)" fill="#2f2e41"/><circle cx="454.8532" cy="139.41925" r="14.35864" fill="#fff"/><circle cx="448.95183" cy="134.27246" r="4.78622" fill="#3f3d56"/><path d="M490.93628,103.9908c.63177-15.55359-12.77313-28.7276-29.9408-29.42493s-31.59692,11.34601-32.22876,26.8996,11.30188,19.08746,28.46954,19.78485,33.06824-1.70593,33.70001-17.25952Z" fill="#6c63ff"/><ellipse cx="419.00183" cy="142.04177" rx="6.59448" ry="21.00616" transform="translate(186.93639 518.71674) rotate(-77.0899)" fill="#2f2e41"/><ellipse cx="501.47047" cy="155.75628" rx="6.59448" ry="21.00616" transform="translate(237.61189 609.75111) rotate(-77.0899)" fill="#2f2e41"/><path d="M469.33314,166.25227c.94684,5.20123-2.50201,10.18524-7.70325,11.13208s-10.18524-2.50201-11.13208-7.70325l-.00336-.01849c-.94177-5.20215,3.08038-7.043,8.28253-7.98474s9.61444-.62775,10.55615,4.5744Z" fill="#fff"/><ellipse cx="309.18593" cy="289.9718" rx="21.53369" ry="6.76007" transform="translate(-72.06307 475.25208) rotate(-69.08217)" fill="#2f2e41"/><path d="M226.86756,315.59524c3.81001-23.4783,25.93157-39.42262,49.40987-35.61261,23.47833,3.81001,39.42259,25.93157,35.61258,49.40987-3.81001,23.4783-25.93151,29.42263-49.40984,25.61262-23.4783-3.81001-39.42262-15.93157-35.61261-39.40987Z" fill="#2f2e41"/><polygon points="249.75316 348.29348 262.8369 356.29348 262.8369 379.7352 249.75316 379.7352 249.75316 348.29348" fill="#2f2e41"/><rect x="275.92064" y="357.29348" width="13.08374" height="22.44171" fill="#2f2e41"/><ellipse cx="260.6563" cy="380.00778" rx="10.90314" ry="4.08868" fill="#2f2e41"/><ellipse cx="286.82378" cy="379.46264" rx="10.90314" ry="4.08868" fill="#2f2e41"/><path d="M227.60206,282.44246c-3.47748-15.57379,7.63867-31.31046,24.82861-35.14883s33.94421,5.67508,37.42169,21.24887-7.91492,21.31766-25.10486,25.15601-33.66797,4.31772-37.14545-11.25604Z" fill="#6c63ff"/><ellipse cx="220.87062" cy="302.51039" rx="6.76007" ry="21.53369" transform="translate(-147.10548 372.43861) rotate(-64.62574)" fill="#2f2e41"/><path d="M82.90082,323.03396c23.78543,0,43.06733,19.28189,43.06733,43.06732s-19.2819,33.06732-43.06733,33.06732-43.06733-9.28189-43.06733-33.06732,19.2819-43.06732,43.06733-43.06732Z" fill="#2f2e41"/><polygon points="63.27521 391.90097 76.35895 399.90097 76.35895 423.34268 63.27521 423.34268 63.27521 391.90097" fill="#2f2e41"/><rect x="89.44269" y="400.90097" width="13.08374" height="22.44171" fill="#2f2e41"/><ellipse cx="74.17829" cy="423.61526" rx="10.90314" ry="4.08868" fill="#2f2e41"/><ellipse cx="100.34583" cy="423.0701" rx="10.90314" ry="4.08868" fill="#2f2e41"/><circle cx="83.99115" cy="355.19818" r="14.71922" fill="#fff"/><circle cx="83.99115" cy="355.19818" r="4.90643" fill="#3f3d56"/><path d="M41.12403,326.04994c-3.47748-15.57379,7.63867-31.31042,24.82861-35.1488s33.94421,5.67511,37.42169,21.2489-7.91492,21.31769-25.10486,25.15601-33.66791,4.31775-37.14545-11.2561Z" fill="#e6e6e6"/><ellipse cx="107.98876" cy="209.82888" rx="21.53369" ry="6.76007" transform="translate(-126.5661 235.78554) rotate(-69.08217)" fill="#2f2e41"/><path d="M25.67035,235.45231c3.81001-23.47831,25.93157-39.4226,49.40987-35.6126,23.4783,3.81001,39.42262,25.93154,35.61261,49.40986s-25.93157,29.42262-49.40987,25.61261-39.42262-15.93156-35.61261-39.40987Z" fill="#2f2e41"/><polygon points="48.55597 268.15054 61.63971 276.15054 61.63971 299.59225 48.55597 299.59225 48.55597 268.15054" fill="#2f2e41"/><rect x="74.72345" y="277.15054" width="13.08374" height="22.44171" fill="#2f2e41"/><ellipse cx="59.45911" cy="299.86483" rx="10.90314" ry="4.08868" fill="#2f2e41"/><ellipse cx="85.62659" cy="299.3197" rx="10.90314" ry="4.08868" fill="#2f2e41"/><circle cx="69.27191" cy="231.44775" r="14.71922" fill="#fff"/><circle cx="69.27191" cy="231.44775" r="4.90642" fill="#3f3d56"/><path d="M26.40485,202.29945c-3.47748-15.57379,7.63867-31.31046,24.82861-35.14883s33.94421,5.67508,37.42169,21.24887-7.91492,21.31766-25.10486,25.15601-33.66797,4.31781-37.14545-11.25604Z" fill="#6c63ff"/><ellipse cx="19.67342" cy="222.36747" rx="6.76007" ry="21.53369" transform="translate(-189.67243 144.85199) rotate(-64.62574)" fill="#2f2e41"/><path d="M47.02704,257.88783c0,4.21515,10.85327,12.53857,22.89655,12.53857s23.33514-11.867,23.33514-16.08209-11.29193,.81775-23.33514,.81775-22.89655-1.48938-22.89655,2.72577Z" fill="#fff"/><path d="M110.52378,77.9068c-1.6561,.0018-2.9982,1.34392-3,3.00002v124c.0018,1.6561,1.3439,2.9982,3,3H397.52381c1.65613-.0018,2.99817-1.3439,3-3V80.90681c-.00183-1.6561-1.34387-2.9982-3-3l-287.00003-.00002Z" fill="#6c63ff"/><circle cx="188.01818" cy="142.90679" r="29.12109" fill="#fff"/><path id="b" d="M253.74363,139.03227c-1.88043,.03088-3.37979,1.58029-3.34894,3.46072,.03018,1.83694,1.51202,3.31879,3.34894,3.34894h91.94565c1.88043,.03088,3.42987-1.46848,3.46072-3.34894,.03088-1.88043-1.46848-3.42984-3.34891-3.46072-.03729-.00064-.07455-.00064-.11182,0h-91.94565Z" fill="#fff"/><path id="c" d="M253.74363,119.30507c-1.88043,.03088-3.37979,1.58029-3.34894,3.46072,.03018,1.83694,1.51202,3.31879,3.34894,3.34894h45.91556c1.88043,.03143,3.4303-1.46747,3.46173-3.3479s-1.46747-3.4303-3.3479-3.46173l-.00204-.00003c-.03729-.00064-.07455-.00064-.11179,0h-45.91556Z" fill="#fff"/><path id="d" d="M253.74363,159.69886c-1.88043,.03088-3.37979,1.58029-3.34894,3.46072,.03018,1.83694,1.51202,3.31879,3.34894,3.34894h91.94565c1.88043,.03088,3.42987-1.46848,3.46072-3.34894,.03088-1.88043-1.46848-3.42984-3.34891-3.46072-.03729-.00067-.07455-.00067-.11182,0h-91.94565Z" fill="#fff"/><ellipse cx="692.60266" cy="368.94823" rx="6.76007" ry="21.53369" transform="translate(-86.07803 271.59514) rotate(-20.91783)" fill="#2f2e41"/><path d="M716.51122,367.959c23.47827-3.81,45.59983,12.13433,49.40983,35.6126s-12.13433,35.59983-35.6126,39.40983-45.59983-2.13433-49.40983-25.6126,12.13433-45.59983,35.6126-49.40983Z" fill="#2f2e41"/><polygon points="743.03499 436.27011 729.95205 444.27011 732.51204 472.34311 743.058 469.47812 743.03499 436.27011" fill="#2f2e41"/><polygon points="714.51204 445.34311 701.428 445.34311 703.988 472.4161 714.058 469.47812 714.51204 445.34311" fill="#2f2e41"/><ellipse cx="703.31807" cy="469.65722" rx="10.90314" ry="4.08868" transform="translate(-32.37445 52.53526) rotate(-4.18164)" fill="#2f2e41"/><circle cx="722.31954" cy="399.56707" r="14.71922" fill="#fff"/><circle cx="722.31954" cy="399.56707" r="4.90643" fill="#3f3d56"/><ellipse cx="768.91803" cy="380.48681" rx="21.53369" ry="6.76007" transform="translate(6.03262 772.92917) rotate(-53.5499)" fill="#2f2e41"/><path d="M702.39698,432.67677c0-3.474,8.94501-10.33398,18.87079-10.33398s19.2323,9.78052,19.2323,13.25446-9.30658-.67401-19.2323-.67401-18.87079,1.22754-18.87079-2.24646Z" fill="#fff"/><path d="M844.1767,374.87983l-235.74548-32.68109c-3.82678-.53522-6.49841-4.06683-5.97247-7.8949l26.50189-191.17178c.53503-3.8269,4.06677-6.49863,7.8949-5.9725l235.74554,32.68109c3.8269,.53503,6.49866,4.06674,5.97253,7.8949l-26.50201,191.17181c-.53522,3.82678-4.06683,6.49841-7.8949,5.97247Z" fill="#6c63ff"/><path d="M759.72236,315.21766l-120.35449-16.68457c-.15094-.01892-.29985-.05173-.44481-.098,41.15979-28.52332,65.65942-58.66464,70.59052-90.70627,1.34943-1.76556,3.87468-2.10287,5.64018-.75341,.58014,.44342,1.02869,1.03632,1.29755,1.71518l29.0293,71.46231,1.3913,3.4198,12.85046,31.64496Z" fill="#fff"/><polygon points="759.72201 315.2171 718.63003 309.52111 742.86403 283.01709 744.60903 281.10809 745.48104 280.1531 746.87203 283.57309 759.72201 315.2171" isolation="isolate" opacity=".2"/><path d="M826.73482,324.50751l-104.09675-14.43078,24.23376-26.504,1.74426-1.90948,31.57922-34.54013c2.14899-2.04364,5.54779-1.95822,7.59143,.19077,.13055,.1373,.25372,.2814,.36908,.4317,.11542,.168,.21998,.34316,.31312,.52447-.54425,26.90054,10.42993,52.51233,38.26587,76.23746Z" fill="#fff"/><circle cx="761.18606" cy="220.52163" r="18" fill="#fff"/><circle cx="649.11263" cy="163.2347" r="11.61554" fill="#3f3d56"/><circle cx="277.0785" cy="121.35656" r="11.61554" fill="#3f3d56"/><circle cx="307.80605" cy="142.04177" r="11.61554" fill="#3f3d56"/><circle cx="333.74815" cy="163.10368" r="11.61554" fill="#3f3d56"/><path d="M765.18659,370.41877c3.47748-15.57379-7.63867-31.31049-24.82861-35.14886s-33.94421,5.67511-37.42169,21.2489,7.91492,21.31769,25.10486,25.15601,33.66797,4.31781,37.14545-11.25604Z" fill="#f2f2f2"/><ellipse cx="732.01056" cy="469.58801" rx="10.90314" ry="4.08868" transform="translate(-32.29302 54.62729) rotate(-4.18164)" fill="#2f2e41"/></svg>