<svg id="b3baaf28-052f-4b5a-847f-40c970304401" data-name="Layer 1" xmlns="http://www.w3.org/2000/svg" width="774.02241" height="543.02745" viewBox="0 0 774.02241 543.02745"><path id="b4563b74-9daa-461f-b9e9-3e2f4623f9b3" data-name="Path 461" d="M249.49611,685.62819a22.728,22.728,0,0,0,21.947-3.866c7.687-6.452,10.1-17.081,12.058-26.924l5.8-29.112-12.143,8.362c-8.733,6.013-17.662,12.219-23.709,20.929s-8.686,20.6-3.828,30.024" transform="translate(-212.9888 -178.48628)" fill="#e4e4e4"/><path id="bfa8049b-ba58-4877-9a46-b8dff86a45d8" data-name="Path 462" d="M250.53412,720.87417c-1.229-8.953-2.493-18.02-1.631-27.069.766-8.036,3.217-15.885,8.209-22.321a37.13192,37.13192,0,0,1,9.527-8.633c.953-.6,1.829.909.881,1.507a35.29989,35.29989,0,0,0-13.963,16.847c-3.04,7.732-3.528,16.161-3,24.374.317,4.967.988,9.9,1.665,14.83a.9.9,0,0,1-.61,1.074.878.878,0,0,1-1.074-.61Z" transform="translate(-212.9888 -178.48628)" fill="#f0f0f0"/><path d="M976.424,481.28168H346.17212a10.59938,10.59938,0,0,1-10.58725-10.58725V189.07353a10.59937,10.59937,0,0,1,10.58725-10.58725H976.424a10.59937,10.59937,0,0,1,10.58725,10.58725v281.6209A10.59938,10.59938,0,0,1,976.424,481.28168Z" transform="translate(-212.9888 -178.48628)" fill="#fff"/><path d="M976.424,481.28168H346.17212a10.59938,10.59938,0,0,1-10.58725-10.58725V189.07353a10.59937,10.59937,0,0,1,10.58725-10.58725H976.424a10.59937,10.59937,0,0,1,10.58725,10.58725v281.6209A10.59938,10.59938,0,0,1,976.424,481.28168ZM346.17212,182.72118a6.3593,6.3593,0,0,0-6.35235,6.35235v281.6209a6.3593,6.3593,0,0,0,6.35235,6.35235H976.424a6.3593,6.3593,0,0,0,6.35235-6.35235V189.07353a6.3593,6.3593,0,0,0-6.35235-6.35235Z" transform="translate(-212.9888 -178.48628)" fill="#cacaca"/><rect x="507.74409" y="215" width="46" height="46" fill="#f0f0f0"/><rect x="296.74409" y="99" width="46" height="46" fill="#f0f0f0"/><rect x="501.74409" y="68" width="46" height="46" fill="#6c63ff"/><rect x="366.74409" y="61" width="46" height="46" fill="#6c63ff"/><rect x="435.74409" y="147" width="46" height="46" fill="#f0f0f0"/><rect x="604.74409" y="68" width="46" height="46" fill="#f0f0f0"/><rect x="604.74409" y="164" width="46" height="46" fill="#f0f0f0"/><path d="M528.526,471.61878a11.91482,11.91482,0,0,0-11.52148-14.17914l-10.0607-25.30057L490.07753,434.503,504.787,470.03273a11.97942,11.97942,0,0,0,23.73895,1.58605Z" transform="translate(-212.9888 -178.48628)" fill="#9f616a"/><path d="M497.45278,462.729l-5.22609-12.46216-32.56676-61.99118,1.77077-114.706.34-.045c20.83854-2.75323,34.93787,93.26307,35.52813,97.35214l20.57642,70.37242,4.89814,15.51129Z" transform="translate(-212.9888 -178.48628)" fill="#e4e4e4"/><polygon points="234.424 526.119 250.258 526.118 257.79 465.043 234.421 465.044 234.424 526.119" fill="#9f616a"/><path d="M443.37328,699.43529l31.18316-.00126h.00126a19.87342,19.87342,0,0,1,19.87235,19.872v.64577l-51.05582.00189Z" transform="translate(-212.9888 -178.48628)" fill="#2f2e41"/><polygon points="88.834 501.994 101.826 511.047 142.925 465.246 123.751 451.885 88.834 501.994" fill="#9f616a"/><path d="M301.46514,673.92979l25.58432,17.82784.001.00072a19.87342,19.87342,0,0,1,4.9421,27.66557l-.36922.52981-41.88881-29.18946Z" transform="translate(-212.9888 -178.48628)" fill="#2f2e41"/><path d="M438.71014,690.24909l-.68423-114.57168L428.063,503.636l-18.57479,63.35382-.03612.052-67.3126,97.723-26.192-13.27065.14349-.341c1.60068-3.80715,39.318-93.22462,49.456-93.22462a5.475,5.475,0,0,0,4.66418-2.04958c2.97555-3.97335.55239-12.40468.52754-12.48934-2.90215-12.03422,4.39488-16.13261,5.84819-16.81684l3.90908-80.6949.40522.028,105.97355,7.43334L482.42884,554.2294l-9.56369,132.18613-.32853.03728Z" transform="translate(-212.9888 -178.48628)" fill="#2f2e41"/><path d="M488.49391,471.22008l-.45823-.03728-113.9719-9.187.28134-37.71033,5.5783-98.46314.03165-.06834L402.67233,276.435l16.10368-7.292,23.49508-1.23643.05727.01437,21.442,5.3123,22.30525,160.11958Z" transform="translate(-212.9888 -178.48628)" fill="#e4e4e4"/><circle cx="431.55925" cy="228.93689" r="30.00755" transform="translate(-269.91499 56.57066) rotate(-28.6632)" fill="#9f616a"/><path d="M401.381,236.46944V224.77777s-9.42864-11.10462.94287-13.90188c0,0,2.82859-27.97264,27.34307-14.91875,0,0,33.94314-5.59452,30.17168,13.98632,0,0,8.48578-5.11192,5.65718,7.942L460.02517,238.913s2.642-13.89025-5.84379-15.7551l-4.71433-2.79726s-13.2001,13.0539-33.00026-2.79727c0,0-8.48578-2.02533-7.54292,6.36646S401.381,236.46944,401.381,236.46944Z" transform="translate(-212.9888 -178.48628)" fill="#2f2e41"/><path d="M428.4349,443.059A11.91485,11.91485,0,0,0,414.556,431.17756l-14.43764-23.08443-16.16823,5.35223,20.8466,32.31332A11.97942,11.97942,0,0,0,428.4349,443.059Z" transform="translate(-212.9888 -178.48628)" fill="#9f616a"/><path d="M391.14526,435.78224l-26.11977-53.03056.02311-.12893c.10524-.58715,10.61935-58.96651,18.66081-80.425,8.09232-21.59441,19.16912-25.93007,19.63667-26.104l.23377-.087,9.932,9.5268-13.7582,91.83209,14.83017,44.28934Z" transform="translate(-212.9888 -178.48628)" fill="#e4e4e4"/><rect x="309.74409" y="247" width="46" height="46" fill="#6c63ff"/><path d="M594.9888,721.48628h-381a1,1,0,1,1,0-2h381a1,1,0,0,1,0,2Z" transform="translate(-212.9888 -178.48628)" fill="#cacaca"/></svg>