<svg id="a6423b57-d2bc-4f5c-abd3-b96cdf6bb625" data-name="Layer 1" xmlns="http://www.w3.org/2000/svg" width="921.36081" height="701.90308" viewBox="0 0 921.36081 701.90308"><title>date_night</title><path d="M179.72425,753.52437c18.06853,10.87063,25.0273,32.46269,25.0273,32.46269s-22.33612,3.96729-40.40466-6.90333S139.3196,746.621,139.3196,746.621,161.65571,742.65374,179.72425,753.52437Z" transform="translate(-139.3196 -99.04846)" fill="#6c63ff"/><path d="M942.41614,722.01987a41.84518,41.84518,0,0,0-3.62635-17.36232,41.58657,41.58657,0,0,0-12.31654,13.97512,41.58657,41.58657,0,0,0-12.31654-13.97512,41.8451,41.8451,0,0,0-3.62636,17.36232,41.89712,41.89712,0,0,0-16.74033-5.1588s1.10237,13.50565,10.12759,22.29135c8.02472,7.81174,19.61044,9.26167,22.08067,9.48716.04514.03112.06916.0472.06916.0472l.01885-.03938c.25069.02188.387.02947.387.02947s-.021-.25535-.08-.71626c.02542-.05938.0522-.12262.08-.18883.02782.06621.0546.12946.08.18884-.059.4609-.08.71625-.08.71625s.13627-.00759.387-.02947l.01884.03938s.024-.01608.06917-.0472c2.47021-.22549,14.05593-1.67542,22.08067-9.48716,9.02522-8.7857,10.12758-22.29135,10.12758-22.29135A41.89712,41.89712,0,0,0,942.41614,722.01987Z" transform="translate(-139.3196 -99.04846)" fill="#d0cde1"/><rect x="545.10659" y="68.92482" width="9.29323" height="576.79614" fill="#d0cde1"/><circle cx="419.52616" cy="83.63911" r="18.58647" fill="#6c63ff"/><ellipse cx="421.07503" cy="70.47369" rx="51.88722" ry="8.5188" fill="#d0cde1"/><path d="M693.59765,167.97328h-9.29323a59.63159,59.63159,0,1,0-119.26317,0H555.748a68.92482,68.92482,0,0,1,137.84964,0Z" transform="translate(-139.3196 -99.04846)" fill="#d0cde1"/><circle cx="679.73672" cy="83.63911" r="18.58647" fill="#6c63ff"/><ellipse cx="678.18785" cy="70.47369" rx="51.88722" ry="8.5188" fill="#d0cde1"/><path d="M684.30442,167.97328h9.29323a59.63159,59.63159,0,1,1,119.26318,0h9.29323a68.92482,68.92482,0,1,0-137.84964,0Z" transform="translate(-139.3196 -99.04846)" fill="#d0cde1"/><rect x="527.94723" y="603.28579" width="43.36843" height="43.36843" fill="#d0cde1"/><ellipse cx="296.39081" cy="688.47377" rx="281.89477" ry="4.64662" fill="#3f3d56"/><ellipse cx="639.46604" cy="646.65421" rx="281.89477" ry="4.64662" fill="#3f3d56"/><circle cx="198.45959" cy="270.60377" r="31.13997" fill="#2f2e41"/><path d="M382.04258,558.28383l4.72116,9.44232s15.10771,24.55,4.72116,27.38274-13.69137-18.41253-13.69137-18.41253l-1.88846-11.33079Z" transform="translate(-139.3196 -99.04846)" fill="#a0616a"/><polygon points="223.838 411.08 235.641 442.239 247.444 463.957 232.809 473.399 221.006 452.626 206.842 420.05 223.838 411.08" fill="#d0cde1"/><path d="M329.63768,656.01187,306.03187,681.034l-41.54622,70.34531L246.54523,745.714l21.24523-42.01834s12.275-32.1039,18.41253-36.35295,16.52407-32.1039,16.52407-32.1039l11.33079-8.9702Z" transform="translate(-139.3196 -99.04846)" fill="#a0616a"/><path d="M378.26565,669.70324l1.88846,8.026s6.13751,25.02216,15.57983,36.35294l22.66158,39.18565,16.99618-5.6654L401.87145,668.2869Z" transform="translate(-139.3196 -99.04846)" fill="#a0616a"/><circle cx="203.7734" cy="281.48363" r="25.49427" fill="#a0616a"/><path d="M323.02805,393.04317l-3.30481,27.38273,21.24523,10.38656s0-23.60581,5.66539-29.74332Z" transform="translate(-139.3196 -99.04846)" fill="#a0616a"/><path d="M256.45967,569.61461l-2.36058,8.026s-15.57983,30.68755-2.36058,30.68755,15.57983-28.327,15.57983-28.327l1.41635-7.08174Z" transform="translate(-139.3196 -99.04846)" fill="#a0616a"/><path d="M365.04639,537.51071l-3.30481,23.1337,40.12987,84.50879,2.36059,24.55-75.06648,9.44233L312.6415,633.3503,286.203,667.34266l15.10772-34.93659s4.72116-23.60581,3.30481-29.74332.94424-36.82506,5.19328-44.37892S365.04639,537.51071,365.04639,537.51071Z" transform="translate(-139.3196 -99.04846)" fill="#2f2e41"/><path d="M267.31834,751.37934l-22.66157-7.55386L237.575,755.15627s-13.69137,3.77693-13.21926,13.69137-2.36058,26.91062-2.36058,26.91062l9.91444.94424,3.77693-19.35677,19.35676,23.13369s34.46449,1.88847,35.88083-3.77692-24.55-11.80291-24.55-11.80291l-4.249-20.301Z" transform="translate(-139.3196 -99.04846)" fill="#2f2e41"/><path d="M436.80805,744.76972l-20.77311,6.60962v4.72116s-6.13751,9.44233-5.19328,17.4683,5.19328,27.38274,5.19328,27.38274h10.85867l-.47211-17.94041,21.71734,17.94041s38.71353-2.8327,38.71353-8.97021-29.74332-10.38655-29.74332-10.38655Z" transform="translate(-139.3196 -99.04846)" fill="#2f2e41"/><path d="M342.38482,425.14706s-19.35677-19.35676-28.327-14.6356v8.49809s-13.21926,6.13751-13.69137,15.57984S286.203,529.95686,286.203,529.95686l-32.1039,111.89153s9.91444,15.57983,46.26739-1.88847L323.02805,563.005s-24.07792,86.86937-12.275,85.453,58.07029-109.05884,58.07029-109.05884l-3.30481-50.98855s7.55386-22.18946-7.55386-37.29718Z" transform="translate(-139.3196 -99.04846)" fill="#d0cde1"/><path d="M309.33668,427.97976s-8.026,2.8327-13.69136,15.10772-33.99237,98.67228-33.99237,98.67228l-7.55386,30.68755,21.24523,5.19328,10.38656-31.63178,38.71352-71.76166S330.58191,436.47785,309.33668,427.97976Z" transform="translate(-139.3196 -99.04846)" fill="#d0cde1"/><path d="M311.20237,360.19371c.47747-5.82767,3.26751-11.80107,8.42747-14.55146-2.591-5.20417-4.90666-11.14418-3.19864-16.7011a12.74583,12.74583,0,0,1,9.60185-8.5918,25.015,25.015,0,0,1,7.46009.09656l11.6334,1.3195c3.77406.42806,7.69369.90563,10.90363,2.93614a12.63039,12.63039,0,0,1,1.45875,20.2714c8.13931,6.51042,13.57867,11.4525,17.28211,21.1951-6.78662-5.46352-13.28172-7.39833-21.98152-7.86922a20.95246,20.95246,0,0,0-22.01385,19.19809c-.22443,2.71864.07552,5.51806-.71564,8.1287s-3.17493,5.05659-5.876,4.67514c.37461.05291,2.68082-6.87221,1.05724-10.0687l-.02545-.05148a3.04261,3.04261,0,0,0-1.65323-1.41857,4.76134,4.76134,0,0,0-6.329,3.31135c-.90311,3.46843-2.3482,7.89418-3.61044,6.71939-1.653-1.53849-.95761-15.10376-1.40367-17.20669A39.48311,39.48311,0,0,1,311.20237,360.19371Z" transform="translate(-139.3196 -99.04846)" fill="#2f2e41"/><path d="M319.7579,345.54912s25.58709,1.66873,37.82439-.55624" transform="translate(-139.3196 -99.04846)" fill="#d0cde1"/><path d="M321.209,342.12536c-2.59111-5.20417-4.90674-11.14415-3.19866-16.70108a12.61632,12.61632,0,0,1,4.46332-6.27375,12.77526,12.77526,0,0,0-6.8239,7.6901c-1.70808,5.55693.60755,11.49691,3.19866,16.70108C320.90353,343.23491,316.049,344.87576,321.209,342.12536Z" transform="translate(-139.3196 -99.04846)" fill="#2f2e41"/><polygon points="190.082 375.435 153.257 440.587 139.093 475.995 158.922 442.003 190.082 375.435" opacity="0.2"/><polygon points="707.129 621.361 710.378 644.098 726.619 642.474 724.995 618.924 707.129 621.361" fill="#ffb8b8"/><polygon points="629.984 621.361 626.736 644.098 610.495 642.474 612.119 618.924 629.984 621.361" fill="#ffb8b8"/><path d="M745.7543,484.91333s-14.617,17.05314-11.36876,43.85092,8.9326,87.70184,8.9326,87.70184l4.06027,108.0032,25.98573-1.62411,4.06027-91.76211,12.99287-73.89693,34.91832,86.07774s17.05314,80.39335,17.86519,80.39335,24.36162-2.43616,24.36162-2.43616l-11.36875-95.01033s-17.86519-138.04919-28.4219-140.48536S745.7543,484.91333,745.7543,484.91333Z" transform="translate(-139.3196 -99.04846)" fill="#2f2e41"/><path d="M867.56241,738.2742s-14.617-9.74464-20.30135,1.62411-.812,19.4893-.812,19.4893,4.87232,3.24822,2.43616,6.49643-3.24822,24.36163,17.86519,21.11341,10.5567-25.17368,10.5567-25.17368Z" transform="translate(-139.3196 -99.04846)" fill="#2f2e41"/><path d="M748.19046,738.2742s14.617-9.74464,20.30136,1.62411.812,19.4893.812,19.4893-4.87232,3.24822-2.43616,6.49643,3.24821,24.36163-17.86519,21.11341-10.55671-25.17368-10.55671-25.17368Z" transform="translate(-139.3196 -99.04846)" fill="#2f2e41"/><path d="M765.64963,326.96881s7.30848,20.30135,1.6241,31.67011,8.9326,24.36162,8.9326,24.36162,38.16654-19.4893,33.29422-29.23395-12.99287-22.73751-11.36876-30.858Z" transform="translate(-139.3196 -99.04846)" fill="#ffb8b8"/><circle cx="640.54098" cy="209.64913" r="25.98573" fill="#ffb8b8"/><path d="M761.18333,357.42084s26.07347,21.69673,45.5189-9.047L826.95971,359.857l10.5567,123.43222s-59.27994,34.10627-87.70184,4.87233l4.06027-114.49963Z" transform="translate(-139.3196 -99.04846)" fill="#6c63ff"/><polygon points="630.052 246.218 593.442 270.553 606.435 330.645 589.382 424.031 616.991 382.617 630.052 246.218" fill="#575a89"/><path d="M801.727,338.49311l8.99167,5.93486,36.54243,12.99287-5.68438,100.6947,15.429,64.96433-21.92546,11.36876S831.02,503.59057,805.8463,488.16155,795.9835,343.115,801.727,338.49311Z" transform="translate(-139.3196 -99.04846)" fill="#575a89"/><path d="M740.882,496.28209l10.5567,7.30848s-13.39889,14.21095-15.83505,11.77479a6.65859,6.65859,0,0,1-2.03014-5.27835l-2.43616-5.68438Z" transform="translate(-139.3196 -99.04846)" fill="#ffb8b8"/><path d="M811.0594,494.70229l-3.589,5.64007s-10.5567,4.87232-8.12054,8.12054,22.73752,10.5567,26.79779,3.24821l4.06027-7.30848Z" transform="translate(-139.3196 -99.04846)" fill="#ffb8b8"/><path d="M737.63376,368.78959l-5.68438.81206-9.33862,60.498s-3.65424,10.96273.406,36.94846,8.08105,42.90711,8.08105,42.90711l17.90468-12.86111L740.882,475.98073l10.5567-77.14513Z" transform="translate(-139.3196 -99.04846)" fill="#575a89"/><path d="M834.2682,355.79673l12.99286,1.62411s14.617,15.429,17.05314,31.67011,1.62411,62.52816,1.62411,62.52816l-37.35449,59.28-20.30135-14.617,28.42189-50.34736-13.80492-60.092Z" transform="translate(-139.3196 -99.04846)" fill="#575a89"/><path d="M804.64069,285.1949a30.3577,30.3577,0,0,0-17.26858-13.20144l-5.2797,4.22374,2.05265-4.92651a27.94581,27.94581,0,0,0-5.21828-.3016l-4.75037,6.10766,1.96611-5.89845a30.06737,30.06737,0,0,0-20.74192,12.33788c-6.04609,8.71788-7.06629,20.84165-1.11973,29.62771,1.63242-5.01654,3.61366-9.72373,5.24608-14.74033a14.84834,14.84834,0,0,0,3.86781.01885l1.98609-4.6341.55477,4.4381c6.15571-.53636,15.28615-1.71375,21.122-2.79258l-.56744-3.40463,3.39507,2.82925c1.788-.41165,2.84954-.78486,2.76182-1.07014,4.34023,6.997,8.64073,11.46612,12.98086,18.46305C807.27549,302.40191,810.184,294.19811,804.64069,285.1949Z" transform="translate(-139.3196 -99.04846)" fill="#2f2e41"/><ellipse cx="663.88215" cy="208.83275" rx="1.75911" ry="3.51822" fill="#ffb8b8"/></svg>