<svg id="bff36fba-3ef8-4288-b7b5-16bd064b41d0" data-name="Layer 1" xmlns="http://www.w3.org/2000/svg" width="702.7404" height="559.40295" viewBox="0 0 702.7404 559.40295"><path d="M600.861,185.78682a13.75638,13.75638,0,0,1-14.00435,13.50936H521.88735c-.23539-.006-.47082-.01208-.70625-.03017a12.81461,12.81461,0,0,1-1.8109-.24751V176.02a4.51587,4.51587,0,0,1,2.93366-4.23149h65.04775A13.7716,13.7716,0,0,1,600.861,185.78682Z" transform="translate(-248.6298 -170.29852)" fill="#e6e6e6"/><path d="M943.8702,170.29852h-419a7.24183,7.24183,0,0,0-2.64.49,7.48113,7.48113,0,0,0-4.86,7.01v457a7.50271,7.50271,0,0,0,7.5,7.5h419a7.50272,7.50272,0,0,0,7.5-7.5v-457A7.50272,7.50272,0,0,0,943.8702,170.29852Zm4.5,464.5a4.50681,4.50681,0,0,1-4.5,4.5h-419a4.50681,4.50681,0,0,1-4.5-4.5v-457a4.50677,4.50677,0,0,1,4.5-4.5h419a4.50677,4.50677,0,0,1,4.5,4.5Z" transform="translate(-248.6298 -170.29852)" fill="#e6e6e6"/><circle cx="472.85825" cy="147.17846" r="9.84302" fill="#6c63ff"/><circle cx="513.87086" cy="147.17846" r="9.84302" fill="#6c63ff"/><circle cx="390.83308" cy="228.5176" r="9.84302" fill="#6c63ff"/><circle cx="431.84566" cy="228.5176" r="9.84302" fill="#6c63ff"/><circle cx="472.85825" cy="269.18717" r="9.84302" fill="#6c63ff"/><circle cx="513.87086" cy="269.18717" r="9.84302" fill="#6c63ff"/><circle cx="554.88343" cy="269.18717" r="9.84302" fill="#6c63ff"/><path d="M556.8714,177.57084a1.17006,1.17006,0,0,0-.00012,1.65463l.00012.00009,5.02283,5.02287h-12.3858a1.17006,1.17006,0,0,0,0,2.34012h12.3858l-5.02283,5.02287a1.17,1.17,0,0,0,1.65466,1.65473h0l7.02033-7.0203a1.17011,1.17011,0,0,0,0-1.65472l-7.02033-7.02029a1.17,1.17,0,0,0-1.6546,0Z" transform="translate(-248.6298 -170.29852)" fill="#fff"/><path d="M853.51694,338.47675H589.222c-1.02264,0-1.85179-.44776-1.85179-1s.82915-1,1.85179-1H853.51694c1.02264,0,1.85179.44775,1.85179,1S854.53958,338.47675,853.51694,338.47675Z" transform="translate(-248.6298 -170.29852)" fill="#e6e6e6"/><path d="M853.51694,294.29852H589.222c-1.02264,0-1.85179-.44775-1.85179-1s.82915-1,1.85179-1H853.51694c1.02264,0,1.85179.44776,1.85179,1S854.53958,294.29852,853.51694,294.29852Z" transform="translate(-248.6298 -170.29852)" fill="#e6e6e6"/><path d="M854.36873,379.73944H588.6075a1,1,0,0,1,0-2H854.36873a1,1,0,0,1,0,2Z" transform="translate(-248.6298 -170.29852)" fill="#e6e6e6"/><path d="M854.36873,419.73944H588.6075a1,1,0,0,1,0-2H854.36873a1,1,0,0,1,0,2Z" transform="translate(-248.6298 -170.29852)" fill="#e6e6e6"/><path d="M854.36873,460.73944H588.6075a1,1,0,0,1,0-2H854.36873a1,1,0,0,1,0,2Z" transform="translate(-248.6298 -170.29852)" fill="#e6e6e6"/><path d="M823.37022,458.67863V293.91842c0-.34237.44776-.62,1-.62s1,.27759,1,.62V458.67863c0,.34237-.44775.62-1,.62S823.37022,459.021,823.37022,458.67863Z" transform="translate(-248.6298 -170.29852)" fill="#e6e6e6"/><path d="M782.37022,458.67863V293.91842c0-.34237.44776-.62,1-.62s1,.27759,1,.62V458.67863c0,.34237-.44775.62-1,.62S782.37022,459.021,782.37022,458.67863Z" transform="translate(-248.6298 -170.29852)" fill="#e6e6e6"/><path d="M741.37022,458.67863V293.91842c0-.34237.44776-.62,1-.62s1,.27759,1,.62V458.67863c0,.34237-.44775.62-1,.62S741.37022,459.021,741.37022,458.67863Z" transform="translate(-248.6298 -170.29852)" fill="#e6e6e6"/><path d="M701.37022,458.67863V293.91842c0-.34237.44776-.62,1-.62s1,.27759,1,.62V458.67863c0,.34237-.44775.62-1,.62S701.37022,459.021,701.37022,458.67863Z" transform="translate(-248.6298 -170.29852)" fill="#e6e6e6"/><path d="M659.37021,500.52174V294.07534a1.03206,1.03206,0,0,1,2,0v206.4464a1.03206,1.03206,0,0,1-2,0Z" transform="translate(-248.6298 -170.29852)" fill="#e6e6e6"/><path d="M617.37021,500.52174V294.07534a1.03206,1.03206,0,0,1,2,0v206.4464a1.03206,1.03206,0,0,1-2,0Z" transform="translate(-248.6298 -170.29852)" fill="#e6e6e6"/><path d="M588.6075,501.73993a1,1,0,0,1-.00439-2l101.76269-.44141a1.02586,1.02586,0,0,1,1.0044.9961.99963.99963,0,0,1-.99561,1.0039l-101.76269.44141Z" transform="translate(-248.6298 -170.29852)" fill="#e6e6e6"/><path d="M663.0074,250.47675a1,1,0,0,1-.00146-2l142.72559-.17823h.00146a1,1,0,0,1,.00147,2l-142.72559.17823Z" transform="translate(-248.6298 -170.29852)" fill="#e6e6e6"/><path d="M711.33478,576.50157a20.03541,20.03541,0,1,1,20.03542-20.0354A20.03542,20.03542,0,0,1,711.33478,576.50157Z" transform="translate(-248.6298 -170.29852)" fill="#e6e6e6"/><path d="M719.24022,554.48983h-5.929v-5.92912a1.9764,1.9764,0,1,0-3.95279,0v5.92912h-5.92913a1.97637,1.97637,0,0,0,0,3.95273h5.92913v5.92912a1.9764,1.9764,0,0,0,3.95279,0v-5.92912h5.929a1.97636,1.97636,0,1,0,0-3.95273Z" transform="translate(-248.6298 -170.29852)" fill="#fff"/><path d="M757.33478,576.50157a20.03541,20.03541,0,1,1,20.03542-20.0354A20.03542,20.03542,0,0,1,757.33478,576.50157Z" transform="translate(-248.6298 -170.29852)" fill="#e6e6e6"/><path d="M767.4754,564.992l-5.21905-6.10992a8.47573,8.47573,0,1,0-2.14386,2.10907l5.08166,5.94909a1.5,1.5,0,1,0,2.28125-1.94824Zm-17.64062-11.02588a5.5,5.5,0,1,1,5.5,5.5A5.50622,5.50622,0,0,1,749.83478,553.96616Z" transform="translate(-248.6298 -170.29852)" fill="#fff"/><path d="M663.0074,578.47723a1,1,0,0,1-.00146-2l142.72559-.17871h.00146a1,1,0,0,1,.00147,2l-142.72559.17871Z" transform="translate(-248.6298 -170.29852)" fill="#e6e6e6"/><polygon points="231.731 539.012 244.488 539.011 250.557 489.808 231.729 489.809 231.731 539.012" fill="#ffb6b6"/><path d="M477.11181,705.144v16.53h41.13V721.154a16.01268,16.01268,0,0,0-16.01-16.01l-7.52-5.7-.39.16-13.62,5.54Z" transform="translate(-248.6298 -170.29852)" fill="#2f2e41"/><polygon points="116.468 522.427 127.885 528.117 155.266 486.788 138.415 478.39 116.468 522.427" fill="#ffb6b6"/><path d="M356.67181,702.344l36.81,18.34.23-.46a16.00177,16.00177,0,0,0-7.18006-21.47l-4.19-8.45-.44-.03-14.63995-1.13-.3-.15L364.0418,687.544Z" transform="translate(-248.6298 -170.29852)" fill="#2f2e41"/><path d="M489.01309,444.84434l-70.34117,2.462-.4901-.71228s-6,14-6,26c0,3.98978,2.77482,30.0849,1.36422,35.022-.17544.614,1.03161,2.11871.63578,4.978-.25685,1.85534-1.67424.42823-2,3-.23381,1.84584,2.261,2.86482,2,5-.28513,2.33265-3.71686,9.88884-4.02575,12.48363-3.28871,27.62609-7.66742,67.64782-7.66742,67.64782s-17.58656,47.10341-21.30683,47.86855c-6.24457,1.2843-10.46045,12.63861-7,15,1.64776,1.12445,22.94452,8.6886,22.94452,8.6886,1.17016.21173,4.83093-1.62445,2.49884-5.96656-.42932-.79931,2.1311,1.2349,2.55664.278.45253-1.01764-.43581-5.067.08247-6.19651,4.65427-10.14333,11.8001-24.19972,18.57183-31.41769a68.60111,68.60111,0,0,0,18.08477-38.7651l15.53252-86.1252,5.32348,24.15171,4.40493,4.35279-1.20845,10.14911.20845,9.85089,11,41s1.64972,76.56842-1,79c-1.43506,1.31689-7.52454,17.5379,4,19l20.93824-1.61542s2.8212-5.94506,1.4106-8.061-1.326-1.53833.395-5.001,1.01563-9.32994,1.01563-9.32994a691.2062,691.2062,0,0,0,3.24056-82.99271c-1.04968-45.503-7.41043-97.777-7.41043-98.84229a7.035,7.035,0,0,1,.5859-3.173v-2.87206l-2.7018-10.17686Z" transform="translate(-248.6298 -170.29852)" fill="#2f2e41"/><path d="M397.946,470.42952a7.98815,7.98815,0,0,1,4.13335-11.53036l-.5054-50.54133,12.46628,7.88646-1.43288,47.90229a8.03141,8.03141,0,0,1-14.66135,6.28294Z" transform="translate(-248.6298 -170.29852)" fill="#ffb8b8"/><path d="M400.79189,449.24239l1.06111-.0512.12643.0033,3.92606-.01388,6.46629-.0136.46836-.00668.21089.04032,2.20744.38383.09149-.59229,4.303-8.21926,3.30821-4.55059-1.2036-5.36193-2.37389-2.95682,4.032-4.88588.50936-2.41293,3.37475-15.8705,11.18616-52.6388.00085-.03158.235-1.11682,3.63794-17.10055-1.12075-4.3-1.24887-4.72087a12.90519,12.90519,0,0,0-5.21626-7.34958,12.74073,12.74073,0,0,0-3.63126-1.69606,12.47561,12.47561,0,0,0-5.08208-.41821l-.0191.00581a12.87176,12.87176,0,0,0-2.83341.6848l-.36431.14228a12.9479,12.9479,0,0,0-1.47705.71094,12.74931,12.74931,0,0,0-6.09032,7.73886l-11.85251,13.2029-2.0848,7.47085-.67043,2.39919-2.14858,12.79.032,50.33287-.38253,2.28022-.54394,12.636,2.12562,2.89656-2.40153,3.51149-.08229,1.92751-.01616.49624,3.20749,3.25712.20455,7.02485Z" transform="translate(-248.6298 -170.29852)" fill="#3f3d56"/><path d="M412.3702,461.29852c17.7608,3.07172,29.67071,1.902,37-9,9.56195-12.17578,26.95113,2.20109,41.62282,7.54655l1.74-1.88,2.96-3.19-2.72-3.08,2.72-5.94-2.27-7.33-2.9-.53.78-6.31,1.22-3.69-3.58-3.93-3.04-9.81,2.19-20.53a136.76057,136.76057,0,0,0-16.62-81.22l-8.31-7.46-3.45-3.1-4.63-8.64-4.89.57-13.24,1.53-.45,1.08-3.25,7.84-11.80651,12.68235a17.26348,17.26348,0,0,0-4.54347,13.46766v0l.34,3.42.25,2.46,1.18,11.84,4.81,48.37.36,2.57,3.87,27.81c-6.29,6.08-6.67281,4.75344-9.34285,15.45345-.3,1.19-3.78,3.84-4,5C414.0602,448.93854,412.3702,461.29852,412.3702,461.29852Z" transform="translate(-248.6298 -170.29852)" fill="#3f3d56"/><circle cx="199.80163" cy="94.81348" r="22.99621" fill="#ffb6b6"/><path d="M424.37217,247.80105c3.08667-3.21387,8.01756-4.799,12.20446-3.27393a15.51161,15.51161,0,0,1,27.23682-3.93865,4.82342,4.82342,0,0,1,4.72067.43379,9.94568,9.94568,0,0,1,3.17717,3.74883,22.3213,22.3213,0,0,1-1.253,22.88758c.89988-1.81715-1.63041,1.31251-4.09654.49254-2.1184-.55521-10.81986-6.1348-12.99155-5.85269-2.17129.28208-2.87583-1.469-5-2-2.0805-.66543-7.39163,7.93545-8.45608,13.62645-.20169,1.07851-.69148,2.41847-1.78841,2.443-1.35089.03031-1.75538-1.90444-2.89483-2.631a2.32515,2.32515,0,0,0-3.08833.9464,3.79072,3.79072,0,0,0,.06484,3.47037,11.20249,11.20249,0,0,0,2.21817,2.82953l-.59007.32417a3.08006,3.08006,0,0,1-3.909-.26535c-2.19622.99085-8.16989-4.59728-7.3769-7.97816a37.403,37.403,0,0,1-2.693-13.01932A17.86949,17.86949,0,0,1,424.37217,247.80105Z" transform="translate(-248.6298 -170.29852)" fill="#2f2e41"/><path d="M593.063,384.876a7.98808,7.98808,0,0,1-10.323-6.59309l-49.3891-10.74239,10.46034-10.40123,46.38521,12.04553A8.03141,8.03141,0,0,1,593.063,384.876Z" transform="translate(-248.6298 -170.29852)" fill="#ffb8b8"/><path d="M459.59119,313.57705a12.88376,12.88376,0,0,0-7.80476,2.99941,12.49468,12.49468,0,0,0-2.986,3.62,12.68325,12.68325,0,0,0-1.52928,4.866l.00052.00994a12.80562,12.80562,0,0,0,6.65143,12.56148l16.26991,8.81683,2.06067,1.11444c13.86259,14.129,37.2378,21.51488,64.12858,26.41472l15.4601,4.22909,5.19727-1.929,1.25836,4.94131,5.17522.16927,2.814-.58481,5.888-2.30895,1.12405-2.26145-.00052-.01,2.41648-10.71995.01635-.07095-.00052-.01.56338-2.45255-3.3204-1.53648-2.88825-3.85834-5.22324.10485-4.76326.41457-1.39538-3.26441-60.35827-27.93008-12.49754-5.78865-.031-.01844-.59527-.27945L468.918,313.27218l-4.43869.14072Z" transform="translate(-248.6298 -170.29852)" fill="#3f3d56"/><circle cx="342.85825" cy="217.17846" r="9.84302" fill="#6c63ff"/><path d="M309.32282,723.60878a48.67531,48.67531,0,0,1-39.25924-14.64528c-6.59053-6.94854-11.11322-15.89234-15.48708-24.54163-1.2732-2.51693-2.58928-5.1197-3.9282-7.61425A15.53411,15.53411,0,0,1,252.26,659.47584a15.27246,15.27246,0,0,1,16.303-5.20878l.63823.18437,5.74416,22.41411c.85694-3.34324,2.69631-10.87592,3.85784-18.25612l.09757-.61814.572.25475a78.13171,78.13171,0,0,1,16.78623,10.11535,80.52859,80.52859,0,0,1,30.11215,60.64309l.01521.697Z" transform="translate(-248.6298 -170.29852)" fill="#f2f2f2"/><path d="M528.57049,723.19924l-278.75.30733a1.19069,1.19069,0,1,1,0-2.38137l278.75-.30733a1.19069,1.19069,0,0,1,0,2.38137Z" transform="translate(-248.6298 -170.29852)" fill="#cacaca"/><path d="M760.8702,237.11908h-53a4.5,4.5,0,0,1,0-9h53a4.5,4.5,0,0,1,0,9Z" transform="translate(-248.6298 -170.29852)" fill="#e6e6e6"/></svg>