<svg id="a2134470-2a1f-4f53-a95f-8981f9cd694f" data-name="Layer 1" xmlns="http://www.w3.org/2000/svg" width="777" height="618.84065" viewBox="0 0 777 618.84065"><title>decorative_friends</title><rect x="55.5" width="666" height="549" fill="#d0cde1"/><rect x="97.5" y="34.62162" width="582" height="479.75676" fill="#eae6fc"/><path d="M906.42913,400.07967H635.07087A16.57087,16.57087,0,0,1,618.5,383.50881V185.15054a16.57087,16.57087,0,0,0-16.57087-16.57087h-3.85826A16.57087,16.57087,0,0,0,581.5,185.15054V383.50881a16.57087,16.57087,0,0,1-16.57087,16.57086H293.57087A16.57087,16.57087,0,0,0,277,416.65054v3.85827a16.57087,16.57087,0,0,0,16.57087,16.57086H564.92913A16.57087,16.57087,0,0,1,581.5,453.65054V652.00881a16.57087,16.57087,0,0,0,16.57087,16.57086h3.85826A16.57087,16.57087,0,0,0,618.5,652.00881V453.65054a16.57087,16.57087,0,0,1,16.57087-16.57087H906.42913A16.57087,16.57087,0,0,0,923,420.50881v-3.85827A16.57087,16.57087,0,0,0,906.42913,400.07967Z" transform="translate(-211.5 -140.57967)" fill="#d0cde1"/><polygon points="313.31 549 327.01 528.63 314.67 549 313.31 549" fill="#d0cde1"/><path d="M551.542,641.7134l-34.46255-72.634a5.10143,5.10143,0,0,1,4.609-7.28824h0a5.10144,5.10144,0,0,0,4.609-7.28824L497.51422,493.839a5.10144,5.10144,0,0,1,4.609-7.28824H511.887a5.10143,5.10143,0,0,0,4.609-7.28823l-30.71271-64.73076a5.10144,5.10144,0,0,1,4.609-7.28824h3.226a5.10144,5.10144,0,0,0,4.609-7.28824L457.109,313.29361a5.10144,5.10144,0,0,0-9.21792,0l-41.11822,86.66163a5.10144,5.10144,0,0,0,4.609,7.28824h3.226a5.10144,5.10144,0,0,1,4.609,7.28824L388.504,479.26248a5.10143,5.10143,0,0,0,4.609,7.28823h9.76384a5.10144,5.10144,0,0,1,4.609,7.28824L378.70266,554.5029a5.10144,5.10144,0,0,0,4.609,7.28824h0a5.10143,5.10143,0,0,1,4.609,7.28824L353.458,641.7134a5.10144,5.10144,0,0,0,4.609,7.28824h68.25219a5.10143,5.10143,0,0,1,5.10143,5.10143v22.85732a5.10143,5.10143,0,0,0,5.10143,5.10144h24.461a5.10143,5.10143,0,0,0,5.10143-5.10144V654.10307a5.10143,5.10143,0,0,1,5.10143-5.10143H546.933A5.10144,5.10144,0,0,0,551.542,641.7134Z" transform="translate(-211.5 -140.57967)" fill="#d0cde1"/><circle cx="556.96506" cy="383.07517" r="47.3471" fill="#fff"/><circle cx="562.07013" cy="482.05686" r="65.02334" fill="#fff"/><path d="M810.34729,556.89422,732.116,560.92907a2.18218,2.18218,0,0,0-2.06688,2.29168l.23043,4.4678a2.18218,2.18218,0,0,0,2.29168,2.06691l13.29619-.68576,1.44324,1.24242-8.92395,60.9795,8.32124,9.798,9.03613-63.51749L796.4418,612.607l11.25067-2.47667L759.366,568.3735l51.43655-2.65289a2.1822,2.1822,0,0,0,2.06688-2.29171l-.23043-4.4678A2.18218,2.18218,0,0,0,810.34729,556.89422Z" transform="translate(-211.5 -140.57967)" fill="#6c63ff"/><path d="M741.61566,501.65068s19.73527-11.17364,19.5487-14.79108-8.70467-14.05931-23.17443-13.313c0,0-3.95328-6.32482-8.033-1.03652s2.61824,8.56992,2.61824,8.56992-7.28671,13.43325,4.69957,20.79459Z" transform="translate(-211.5 -140.57967)" fill="#6c63ff"/><circle cx="538.82452" cy="374.52878" r="3.78777" fill="#3f3d56"/><circle cx="574.13009" cy="372.70786" r="3.78777" fill="#3f3d56"/><rect x="765.48068" y="522.37969" width="6.94424" height="21.46402" transform="translate(-237.93855 -100.26519) rotate(-2.95247)" fill="#ff6584"/><circle cx="562.12794" cy="458.66494" r="3.78777" fill="#3f3d56"/><circle cx="562.8433" cy="472.53498" r="3.78777" fill="#3f3d56"/><circle cx="563.55866" cy="486.40503" r="3.78777" fill="#3f3d56"/><path d="M769.91178,551.70524a37.70448,37.70448,0,0,1-18.19857-3.87277l.53931-1.14145c11.83374,5.59093,23.51135,4.98864,34.70866-1.79014l.6545,1.07989A37.70755,37.70755,0,0,1,769.91178,551.70524Z" transform="translate(-211.5 -140.57967)" fill="#3f3d56"/><circle cx="584.8027" cy="383.53582" r="3.15647" fill="#ff6584"/><circle cx="529.32251" cy="386.39727" r="3.15647" fill="#ff6584"/><rect y="545.67681" width="777" height="2.92655" fill="#3f3d56"/><path d="M575.59887,686.25648H329.76836v-.00008a80.48016,80.48016,0,0,1,80.48014-80.48014c44.79218-13.96151,103.22143-9.48219,165.35037,0Z" transform="translate(-211.5 -140.57967)" fill="#ff6584"/><path d="M328.98023,528.11749H444.5791a7.31638,7.31638,0,0,1,7.31638,7.31638v0a7.31638,7.31638,0,0,1-7.31638,7.31638H328.98023a0,0,0,0,1,0,0V528.11749a0,0,0,0,1,0,0Z" fill="#3f3d56"/><path d="M560.50134,536.89588l30.985-37.55965a8.13353,8.13353,0,0,1,15.16017,1.29913l12.219,43.1412Z" transform="translate(-211.5 -140.57967)" fill="#3f3d56"/><path d="M522.9209,556.02485l11.70622-47.26269a8.13353,8.13353,0,0,1,14.23236-5.38132l29.66594,33.62141Z" transform="translate(-211.5 -140.57967)" fill="#ff6584"/><path d="M118.26836,545.67681h23.41243a0,0,0,0,1,0,0v49.75144a23.41241,23.41241,0,0,1-23.41241,23.41241h0a0,0,0,0,1,0,0V545.67681A0,0,0,0,1,118.26836,545.67681Z" fill="#ff6584"/><path d="M324.5904,531.044H440.18927a7.31638,7.31638,0,0,1,7.31638,7.31638v0a7.31638,7.31638,0,0,1-7.31638,7.31638H324.5904a0,0,0,0,1,0,0V531.044a0,0,0,0,1,0,0Z" fill="#ff6584"/><circle cx="364.09887" cy="466.65986" r="79.01695" fill="#ff6584"/><ellipse cx="440.18927" cy="472.51297" rx="8.77966" ry="20.48588" fill="#3f3d56"/><ellipse cx="418.97175" cy="451.29545" rx="2.19492" ry="5.12147" fill="#3f3d56"/><ellipse cx="435.0678" cy="441.05252" rx="2.19492" ry="5.12147" fill="#3f3d56"/><path d="M402.60959,376.58548a1.5009,1.5009,0,0,0,0-3,1.5009,1.5009,0,0,0,0,3Z" transform="translate(-211.5 -140.57967)" fill="#d0cde1"/><path d="M568.96953,527.34311s-4.39177-7.63966-4.39177-12.3001" transform="translate(-211.5 -140.57967)" fill="#3f3d56"/><path d="M570.90149,522.402s2.393-8.48089,5.72565-11.73871" transform="translate(-211.5 -140.57967)" fill="#3f3d56"/><circle cx="488.5" cy="69" r="9" fill="#d0cde1"/><circle cx="497.5" cy="134" r="6" fill="#d0cde1"/><circle cx="604.5" cy="214" r="6" fill="#d0cde1"/><circle cx="454.5" cy="325" r="6" fill="#d0cde1"/><circle cx="431.5" cy="207" r="6" fill="#d0cde1"/><circle cx="179.5" cy="144" r="6" fill="#d0cde1"/><circle cx="627.5" cy="338" r="6" fill="#d0cde1"/><circle cx="160.5" cy="369" r="6" fill="#d0cde1"/><circle cx="302.5" cy="172" r="9" fill="#d0cde1"/><path d="M932.55859,348.47665C831.64258,298.795,782.07715,200.95321,765.45117,161.193a14.33783,14.33783,0,0,0-9.8125-8.44532,14.5284,14.5284,0,0,0-12.81152,2.84375c-59.92188,48.604-121.34473,67.03955-182.55957,54.79688-50.56153-10.11182-88.272-39.14893-106.25049-55.55713a11.60322,11.60322,0,0,0-18.56543,4.1831c-16.50977,40.22413-65.93018,139.208-168.00977,189.46241l-.88378-1.79395c101.46679-49.95312,150.62011-148.41406,167.043-188.42822a13.60407,13.60407,0,0,1,21.76465-4.90088c40.61035,37.06543,149.79444,111.32861,286.20166.68408a16.517,16.517,0,0,1,14.55957-3.22949,16.32241,16.32241,0,0,1,11.16993,9.61328c16.53906,39.55225,65.83593,136.87842,166.14453,186.26123Z" transform="translate(-211.5 -140.57967)" fill="#3f3d56"/><circle cx="85.5" cy="190" r="17" fill="#6c63ff"/><circle cx="154.5" cy="138" r="17" fill="#6c63ff"/><circle cx="208.5" cy="52" r="17" fill="#6c63ff"/><circle cx="311.5" cy="55" r="17" fill="#6c63ff"/><circle cx="390.5" cy="72" r="17" fill="#6c63ff"/><circle cx="484.5" cy="45" r="17" fill="#6c63ff"/><circle cx="574.5" cy="60" r="17" fill="#6c63ff"/><circle cx="621.5" cy="128" r="17" fill="#6c63ff"/><circle cx="676.5" cy="181" r="17" fill="#6c63ff"/><circle cx="232.5" cy="12" r="9" fill="#3f3d56"/><circle cx="542.5" cy="12" r="9" fill="#3f3d56"/></svg>