<svg id="afb44ec5-5c61-4c13-9c84-2288fe13c92d" data-name="Layer 1" xmlns="http://www.w3.org/2000/svg" width="700.68273" height="655.304" viewBox="0 0 700.68273 655.304"><path d="M503.89031,370.313a3.00328,3.00328,0,0,0-3,3v124a3.00328,3.00328,0,0,0,3,3h124a3.00328,3.00328,0,0,0,3-3v-124a3.00328,3.00328,0,0,0-3-3Z" transform="translate(-249.65863 -122.348)" fill="#e6e6e6"/><path d="M526.20031,520.273a42.83061,42.83061,0,0,1-4.43,19.04c-.33.68-.68,1.34-1.05,2h-75.17c-.37-.66-.72-1.32-1.05-2a43.07125,43.07125,0,1,1,81.7-19.04Z" transform="translate(-249.65863 -122.348)" fill="#2f2e41"/><circle cx="234.56793" cy="387.01729" r="14.71922" fill="#fff"/><circle cx="234.56793" cy="387.01729" r="4.90642" fill="#3f3d56"/><path d="M441.35946,480.217c-3.47748-15.5738,7.63867-31.31043,24.82861-35.14881s33.94421,5.67511,37.42169,21.2489-7.91491,21.31769-25.10486,25.156S444.837,495.79089,441.35946,480.217Z" transform="translate(-249.65863 -122.348)" fill="#6c63ff"/><path d="M544.89031,407.313h-124a5.0018,5.0018,0,0,0-5,5v124a5.0018,5.0018,0,0,0,5,5h124a5.0018,5.0018,0,0,0,5-5v-124A5.0018,5.0018,0,0,0,544.89031,407.313Zm3,129a3.00882,3.00882,0,0,1-3,3h-124a3.00882,3.00882,0,0,1-3-3v-124a3.00879,3.00879,0,0,1,3-3h124a3.00879,3.00879,0,0,1,3,3Z" transform="translate(-249.65863 -122.348)" fill="#3f3d56"/><ellipse cx="218.23168" cy="649.96502" rx="70" ry="5.33899" fill="#e6e6e6"/><path id="fd64def7-6a13-40ab-ac2d-27d7bb837252" data-name="ac481be8-039b-4a38-bb10-2d9a81406e5c-1003" d="M569.19909,654.02542h-234.838c-4.578,0-8.288-2.643-8.293-5.9v-51.042c.005-3.257,3.715-5.9,8.293-5.9h234.838c4.578,0,8.288,2.643,8.293,5.9v51.041C577.48809,651.38149,573.77709,654.02145,569.19909,654.02542Z" transform="translate(-249.65863 -122.348)" fill="#e6e6e6"/><path id="f3d257e2-a3b3-4c88-a188-1639081793e8" data-name="e05581d0-cd6a-412e-af3c-57495fab8d46-1004" d="M498.35656,682.14352h-234.838c-4.578,0-8.288-2.643-8.293-5.9v-51.042c.005-3.257,3.715-5.9,8.293-5.9h234.838c4.578,0,8.288,2.643,8.293,5.9v51.041C506.64556,679.49954,502.93456,682.13949,498.35656,682.14352Zm-234.838-60.484c-2.747,0-4.973,1.586-4.976,3.54v51.041c0,1.954,2.229,3.538,4.976,3.54h234.838c2.747,0,4.973-1.586,4.976-3.54v-51.039c0-1.954-2.229-3.538-4.976-3.54Z" transform="translate(-249.65863 -122.348)" fill="#3f3d56"/><circle cx="48.23168" cy="527.96502" r="19" fill="#6c63ff"/><path id="af1be544-8131-4fe7-8648-199d5a99a025" data-name="bf4cb793-0df2-4753-9628-c376ea3545d1-1007" d="M338.93026,636.6885a3.625,3.625,0,0,0,0,7.249h135.878a3.625,3.625,0,0,0,.119-7.249q-.05952-.001-.119,0Z" transform="translate(-249.65863 -122.348)" fill="#3f3d56"/><path id="e31bcc86-3690-4431-8796-f8ae99059738" data-name="bf2170fd-291c-4664-b596-01f8e04656d6-1008" d="M338.93026,656.6885a3.625,3.625,0,0,0,0,7.249h135.878a3.625,3.625,0,1,0,.119-7.249q-.05952-.001-.119,0Z" transform="translate(-249.65863 -122.348)" fill="#3f3d56"/><ellipse cx="500.68122" cy="678.7216" rx="21.53369" ry="6.76007" transform="translate(-561.72437 781.73352) rotate(-69.08217)" fill="#2f2e41"/><circle cx="460.87411" cy="711.24367" r="43.06735" transform="translate(-564.66814 929.88999) rotate(-80.78252)" fill="#2f2e41"/><rect x="191.58979" y="622.69527" width="13.08374" height="23.44168" fill="#2f2e41"/><rect x="217.75727" y="622.69527" width="13.08374" height="23.44168" fill="#2f2e41"/><ellipse cx="202.49292" cy="646.4096" rx="10.90314" ry="4.08868" fill="#2f2e41"/><ellipse cx="228.6604" cy="645.86443" rx="10.90314" ry="4.08868" fill="#2f2e41"/><path d="M419.09731,671.19222c-3.47748-15.57379,7.63867-31.31048,24.82861-35.14886s33.94419,5.67511,37.42173,21.24884-7.91492,21.31769-25.10486,25.156S422.57485,686.766,419.09731,671.19222Z" transform="translate(-249.65863 -122.348)" fill="#6c63ff"/><ellipse cx="412.36588" cy="691.26018" rx="6.76007" ry="21.53369" transform="translate(-638.57646 645.27105) rotate(-64.62574)" fill="#2f2e41"/><ellipse cx="624.23168" cy="419.96502" rx="70" ry="5.33899" fill="#e6e6e6"/><path id="a57870e8-de60-471f-b9b7-92106e879aa4" data-name="a69b3c31-ebec-4776-89b9-9c88b713759e-1002" d="M793.19909,300.02545h-234.838c-4.578,0-8.288-2.643-8.293-5.9v-51.042c.005-3.257,3.715-5.9,8.293-5.9h234.838c4.578,0,8.288,2.643,8.293,5.9v51.041C801.48809,297.38149,797.77709,300.02145,793.19909,300.02545Z" transform="translate(-249.65863 -122.348)" fill="#e6e6e6"/><circle cx="398.23168" cy="170.96502" r="19" fill="#6c63ff"/><path id="ae707616-7859-44c4-85e2-23c8eff2faa5" data-name="f4993879-8a0d-4ea4-907e-e549be7081a0-1005" d="M688.93023,279.6885a3.625,3.625,0,0,0,0,7.249h135.878a3.625,3.625,0,0,0,.119-7.249q-.05952-.001-.119,0Z" transform="translate(-249.65863 -122.348)" fill="#3f3d56"/><path id="fa5c53e0-b4e1-47b9-8303-3d466a67aea7" data-name="a649136c-96b9-48c7-9686-75389104c34a-1006" d="M688.93023,299.6885a3.625,3.625,0,0,0,0,7.249h135.878a3.625,3.625,0,0,0,.119-7.249q-.05952-.001-.119,0Z" transform="translate(-249.65863 -122.348)" fill="#3f3d56"/><circle cx="626.20464" cy="358.8956" r="43.06733" fill="#2f2e41"/><rect x="632.74651" y="392.69527" width="13.08374" height="23.44168" fill="#2f2e41"/><rect x="606.57903" y="392.69527" width="13.08374" height="23.44168" fill="#2f2e41"/><ellipse cx="634.92717" cy="416.4096" rx="10.90314" ry="4.08868" fill="#2f2e41"/><ellipse cx="608.75963" cy="415.86437" rx="10.90314" ry="4.08868" fill="#2f2e41"/><circle cx="625.11431" cy="347.99248" r="14.71922" fill="#fff"/><circle cx="625.11431" cy="347.99248" r="4.90643" fill="#3f3d56"/><path d="M917.64007,441.19222c3.47747-15.57379-7.63868-31.31042-24.82862-35.1488s-33.94421,5.67511-37.42169,21.2489,7.91492,21.31769,25.10486,25.156S914.16253,456.76608,917.64007,441.19222Z" transform="translate(-249.65863 -122.348)" fill="#e6e6e6"/><circle cx="639.19976" cy="227.60756" r="42.01233" fill="#2f2e41"/><rect x="895.44623" y="382.86744" width="12.76324" height="22.86749" transform="translate(-251.4818 -118.1516) rotate(-0.26634)" fill="#2f2e41"/><rect x="869.92011" y="382.98604" width="12.76324" height="22.86749" transform="translate(-251.48262 -118.27025) rotate(-0.26634)" fill="#2f2e41"/><ellipse cx="873.70702" cy="408.25886" rx="10.63605" ry="3.98853" transform="translate(-336.33596 373.66713) rotate(-30.26634)" fill="#2f2e41"/><ellipse cx="898.7014" cy="408.14266" rx="10.63605" ry="3.98853" transform="translate(-332.87045 386.24897) rotate(-30.26634)" fill="#2f2e41"/><circle cx="638.08672" cy="216.97658" r="14.35864" fill="#fff"/><circle cx="633.1682" cy="210.88369" r="4.78621" fill="#3f3d56"/><path d="M929.42974,310.69628c3.32159-15.20788-7.59338-30.50848-24.37952-34.1748s-33.08661,5.68994-36.40826,20.89783,7.81763,20.7593,24.6037,24.42569S926.10808,325.90417,929.42974,310.69628Z" transform="translate(-249.65863 -122.348)" fill="#6c63ff"/><ellipse cx="844.98295" cy="328.68508" rx="6.59448" ry="21.00614" transform="matrix(0.3892, -0.92115, 0.92115, 0.3892, -36.31352, 856.77056)" fill="#2f2e41"/><ellipse cx="930.81977" cy="363.50447" rx="6.59448" ry="21.00616" transform="translate(-15.95851 957.107) rotate(-67.09517)" fill="#2f2e41"/><path d="M897.3485,368.26351a9.57243,9.57243,0,1,1-19.14435.13843l-.00018-.03064-.00012-.0188c-.0246-5.28662,4.256-6.40149,9.54266-6.42608S897.3239,362.97683,897.3485,368.26351Z" transform="translate(-249.65863 -122.348)" fill="#fff"/><path id="e8766300-bfe9-404a-93f8-d64e2f4a896b" data-name="acccf4df-3a09-4c7b-a8c8-af469fe66e6d-1009" d="M854.29357,324.97808h-234.838c-4.578,0-8.288-2.643-8.293-5.9v-51.042c.005-3.257,3.715-5.9,8.293-5.9h234.838c4.578,0,8.288,2.643,8.293,5.9v51.041C862.58257,322.33413,858.87157,324.97412,854.29357,324.97808Zm-234.838-60.484c-2.747,0-4.973,1.586-4.976,3.54v51.041c0,1.954,2.229,3.538,4.976,3.54h234.838c2.747,0,4.973-1.586,4.976-3.54v-51.039c0-1.954-2.229-3.538-4.976-3.54Z" transform="translate(-249.65863 -122.348)" fill="#3f3d56"/><path d="M934.97521,158.90048H250.65185a1.01559,1.01559,0,0,1,0-2.03069H934.97521a1.01559,1.01559,0,0,1,0,2.03069Z" transform="translate(-249.65863 -122.348)" fill="#cacaca"/><ellipse cx="23.34831" cy="11.16881" rx="10.92534" ry="11.16881" fill="#3f3d56"/><ellipse cx="61.09038" cy="11.16881" rx="10.92534" ry="11.16881" fill="#3f3d56"/><ellipse cx="98.83246" cy="11.16881" rx="10.92534" ry="11.16881" fill="#3f3d56"/><path d="M912.362,129.1796H885.54529a2.03118,2.03118,0,0,1,0-4.06138H912.362a2.03118,2.03118,0,0,1,0,4.06138Z" transform="translate(-249.65863 -122.348)" fill="#3f3d56"/><path d="M912.362,136.7947H885.54529a2.03118,2.03118,0,0,1,0-4.06138H912.362a2.03118,2.03118,0,0,1,0,4.06138Z" transform="translate(-249.65863 -122.348)" fill="#3f3d56"/><path d="M912.362,144.4098H885.54529a2.03118,2.03118,0,0,1,0-4.06138H912.362a2.03118,2.03118,0,0,1,0,4.06138Z" transform="translate(-249.65863 -122.348)" fill="#3f3d56"/></svg>