<svg id="bca94d6f-89f1-4616-b9d3-149b7576fb14" data-name="Layer 1" xmlns="http://www.w3.org/2000/svg" xmlns:xlink="http://www.w3.org/1999/xlink" width="835.19" height="791.24" viewBox="0 0 835.19 791.24"><defs><linearGradient id="fd399217-ef4a-4662-8ef4-2adbcd8f81ef" x1="380.08" y1="743.36" x2="664.61" y2="71.48" gradientTransform="translate(-13.63 -2.04) rotate(-0.14)" gradientUnits="userSpaceOnUse"><stop offset="0" stop-color="gray" stop-opacity="0.25"/><stop offset="0.54" stop-color="gray" stop-opacity="0.12"/><stop offset="1" stop-color="gray" stop-opacity="0.1"/></linearGradient><clipPath id="f59e91fa-307f-4a6e-a5c8-a983060efb40" transform="translate(-182.4 -29.66)"><path d="M596.93,103.62A28.4,28.4,0,0,1,569,127.83l-120.93.29a28.38,28.38,0,0,1-28-24.07L356,104.2a13.3,13.3,0,0,0-13.27,13.33l1.4,573.67a13.29,13.29,0,0,0,13.33,13.26l306-.74a13.3,13.3,0,0,0,13.27-13.33l-1.4-573.67A13.29,13.29,0,0,0,662,103.46Z" fill="#6c63ff" opacity="0.3"/></clipPath><linearGradient id="af319326-76fb-44a0-bdd4-101e00168a77" x1="561.94" y1="387.88" x2="561.94" y2="214.05" gradientTransform="translate(47.68 -77.98) rotate(7.89)" xlink:href="#fd399217-ef4a-4662-8ef4-2adbcd8f81ef"/><linearGradient id="e584134e-1149-41e8-8693-79bf575dbd74" x1="792.73" y1="820.9" x2="792.73" y2="462.68" gradientTransform="matrix(1, 0, 0, 1, 0, 0)" xlink:href="#fd399217-ef4a-4662-8ef4-2adbcd8f81ef"/></defs><title>Destination</title><g opacity="0.5"><path d="M675.17,79.1l-332.5.81A13.67,13.67,0,0,0,329,93.6l1.52,621.89a13.67,13.67,0,0,0,13.7,13.63l332.49-.81a13.67,13.67,0,0,0,13.64-13.7L688.87,92.73A13.67,13.67,0,0,0,675.17,79.1Z" transform="translate(-182.4 -29.66)" fill="url(#fd399217-ef4a-4662-8ef4-2adbcd8f81ef)"/></g><rect x="334.65" y="87.99" width="350.11" height="631.95" rx="13.64" transform="translate(-183.38 -28.42) rotate(-0.14)" fill="#fff"/><path d="M596.93,103.62A28.4,28.4,0,0,1,569,127.83l-120.93.29a28.38,28.38,0,0,1-28-24.07L356,104.2a13.3,13.3,0,0,0-13.27,13.33l1.4,573.67a13.29,13.29,0,0,0,13.33,13.26l306-.74a13.3,13.3,0,0,0,13.27-13.33l-1.4-573.67A13.29,13.29,0,0,0,662,103.46Z" transform="translate(-182.4 -29.66)" fill="#6c63ff" opacity="0.3"/><g clip-path="url(#f59e91fa-307f-4a6e-a5c8-a983060efb40)"><polyline points="69.95 113 546.09 502.95 552.35 183.81 14.61 164.76 99.53 246.19 638.1 287.58 77.13 428.95 585.13 593.85 583.23 656.33 59.03 625.17 74.91 782.74 305.09 762.2 428.54 0.32" fill="none" stroke="#fff" stroke-miterlimit="10" stroke-width="4"/></g><rect x="466.82" y="111.42" width="78.02" height="4.88" rx="2" transform="translate(-184.06 -22.04) rotate(-0.86)" fill="#dbdbdb"/><circle cx="379" cy="82.88" r="2.93" fill="#dbdbdb"/><path d="M627,280.21c-4.64,33.48-73.52,103.5-73.52,103.5S501.4,296.92,506,263.44a61.05,61.05,0,1,1,121,16.77Z" transform="translate(-182.4 -29.66)" fill="url(#af319326-76fb-44a0-bdd4-101e00168a77)"/><path d="M623,281.26c-4.35,31.41-69,97.09-69,97.09S505.21,297,509.57,265.54A57.27,57.27,0,1,1,623,281.26Z" transform="translate(-182.4 -29.66)" fill="#6c63ff"/><ellipse cx="566.92" cy="268.85" rx="28.71" ry="28.63" transform="translate(40.38 763.84) rotate(-82.11)" fill="#fff"/><g opacity="0.5"><path d="M810.81,477c18.19,30,22.79,53.3,22.79,53.3,5.4-96.26-23.89-61.95-26.73-60.32l-.06-.12-9.8,5.66a22.51,22.51,0,0,0-15.75-6.63,21.86,21.86,0,0,0-11.79,3.49c-7,.16-12.54,3.72-12.54,8.09a5.27,5.27,0,0,0,.44,2.07,25.37,25.37,0,0,0,15.11,42.11L775.06,543,771,546.2a22.56,22.56,0,0,0-8.71,16.36c-.38,6.79,2.42,14.58,15.13,18.55,0,0-.22,2.35-.64,6.06l-21.61,43.21s-8.64,19.81.63,20.39c13.32-2.31,11-7.53,12.74-12.16l1-3.46h5.1c-4.15,22.63-17.65,100.41-16.3,146.23v13.24l-.86,6.56-24.88,7.47a6.26,6.26,0,0,0,2,12.25l35.16-1.18a6.24,6.24,0,0,0,6-6.25V795.68h6.36v-14.3l6.36-76.29.83-2,.76,9.9,28.61,63.58,6.35,11.12,2.78-1.49L827,796.69,815.4,806.75a6.25,6.25,0,0,0-1.6,7.3h0a6.26,6.26,0,0,0,8.47,3l31.57-15.53a6.25,6.25,0,0,0,2.94-8.19L854,787.21a6.27,6.27,0,0,0-4.36-3.52l-6-6,2.07-1.11L841,765.48l-28.61-66.75-1.17-37.57c5.72-3.63,13.89-11.47,12-26h1.83s-4.05-23.55-6.15-49.27c-.07-.83-.14-1.66-.2-2.49v-3.87s-.22-1.21-.6-3.17c-2.24-25.39-5.71-45.55-24.69-47.83l-.14.11v-7.82c7.34-4.78,12.3-13.8,12.3-24.15A30.59,30.59,0,0,0,801.92,482l8.86-5.11Z" transform="translate(-182.4 -29.66)" fill="url(#e584134e-1149-41e8-8693-79bf575dbd74)"/></g><ellipse cx="599.53" cy="471.41" rx="23.6" ry="26.97" fill="#795548"/><polygon points="594.24 758.28 594.24 772.15 575.74 772.15 577.28 760.34 594.24 758.28" fill="#fda57d"/><path d="M827.5,777.15,826,795.65h1a29.69,29.69,0,0,0,19.74-7.51l5.43-4.82-13.87-13.87Z" transform="translate(-182.4 -29.66)" fill="#fda57d"/><polygon points="606.57 661.19 608.11 681.23 635.85 742.87 657.42 732.08 629.68 667.36 628.14 618.04 603.48 618.04 606.57 661.19" fill="#4d8af0"/><polygon points="606.57 661.19 608.11 681.23 635.85 742.87 657.42 732.08 629.68 667.36 628.14 618.04 603.48 618.04 606.57 661.19" opacity="0.05"/><path d="M782.8,578.34l-26.2,52.4s-8.38,19.21.61,19.77c12.92-2.25,10.68-7.3,12.36-11.8L785.89,583Z" transform="translate(-182.4 -29.66)" fill="#fda57d"/><circle cx="594.67" cy="474.16" r="24.66" fill="#fda57d"/><polygon points="611.19 510.16 593.91 519.17 589.61 488.58 611.19 488.58 611.19 510.16" fill="#fda57d"/><path d="M776.64,629.2s-18.49,95.55-16.95,147.95H782.8l6.17-74,16.95-40.07S829,655.4,821.33,629.2Z" transform="translate(-182.4 -29.66)" fill="#4d8af0"/><rect x="577.28" y="745.34" width="23.12" height="16.02" fill="#4d8af0"/><rect x="577.28" y="745.34" width="23.12" height="16.02" fill="#fff" opacity="0.05"/><polygon points="635.22 741.44 641.64 753.75 662.05 743 656.6 730.34 635.22 741.44" fill="#4d8af0"/><path d="M760.37,795.9l-25.64,7.7a6.07,6.07,0,0,0-4.33,5.81h0a6.07,6.07,0,0,0,6.27,6.06l34.1-1.13a6.08,6.08,0,0,0,5.87-6.07v-6.55a6.07,6.07,0,0,0-6.07-6.07h-8.45A6.12,6.12,0,0,0,760.37,795.9Z" transform="translate(-182.4 -29.66)" fill="#4d8af0"/><path d="M793.73,532,772,549.11A21.84,21.84,0,0,0,763.51,565c-.37,6.59,2.34,14.14,14.67,18,0,0-4.62,49.31-12.33,52.4h58.57s-3.93-22.84-6-47.78C816.09,558.77,814.38,534.45,793.73,532Z" transform="translate(-182.4 -29.66)" fill="#47e6b1"/><path d="M793.59,562.93l13.87,24.66-1.54,55.48s-7.7,12.33-1.54,13.87,15.41-3.08,13.87-12.33V581.42s-4.62-26.2-9.25-32.36Z" transform="translate(-182.4 -29.66)" fill="#fda57d"/><path d="M835.25,784.2,815,801.76a6.08,6.08,0,0,0-1.55,7.08h0a6.08,6.08,0,0,0,8.21,2.95l30.62-15.07a6.07,6.07,0,0,0,2.85-7.94l-2.7-6a6.07,6.07,0,0,0-8-3l-7.7,3.48A5.75,5.75,0,0,0,835.25,784.2Z" transform="translate(-182.4 -29.66)" fill="#4d8af0"/><polygon points="623.6 455.34 618.02 458.11 614.08 451.29 619.6 448.34 623.6 455.34" fill="#795548"/><path d="M802,478s37-39,29.31,55.66c0,0-8.89-25.63-25.31-48.66Z" transform="translate(-182.4 -29.66)" fill="#795548"/><ellipse cx="601.78" cy="471.41" rx="21.35" ry="23.6" fill="#795548"/><ellipse cx="588.57" cy="455.68" rx="12.64" ry="7.87" fill="#795548"/><g opacity="0.5"><rect x="99.19" y="130.76" width="3" height="17" fill="#47e6b1"/><rect x="281.6" y="160.42" width="3" height="17" transform="translate(269.61 -143.84) rotate(90)" fill="#47e6b1"/></g><g opacity="0.5"><rect x="123.19" y="237.34" width="3" height="17" fill="#47e6b1"/><rect x="305.6" y="267" width="3" height="17" transform="translate(400.19 -61.26) rotate(90)" fill="#47e6b1"/></g><g opacity="0.5"><rect x="583.19" y="98.76" width="3" height="17" fill="#47e6b1"/><rect x="765.6" y="128.42" width="3" height="17" transform="translate(721.61 -659.84) rotate(90)" fill="#47e6b1"/></g><g opacity="0.5"><rect x="825.19" y="161.34" width="3" height="17" fill="#47e6b1"/><rect x="1007.6" y="191" width="3" height="17" transform="translate(1026.19 -839.26) rotate(90)" fill="#47e6b1"/></g><path d="M194.69,259.31a3.69,3.69,0,0,1-2.05-4.45,1.1,1.1,0,0,0,.08-.4h0a1.84,1.84,0,0,0-3.31-1.22h0a2.08,2.08,0,0,0-.2.36,3.67,3.67,0,0,1-4.44,2,1.41,1.41,0,0,0-.41-.07h0a1.84,1.84,0,0,0-1.22,3.31h0a2.53,2.53,0,0,0,.36.2,3.67,3.67,0,0,1,2.05,4.44,1.86,1.86,0,0,0-.08.41h0a1.84,1.84,0,0,0,3.31,1.22h0a1.82,1.82,0,0,0,.2-.36,3.68,3.68,0,0,1,4.45-2.05,1.77,1.77,0,0,0,.4.08h0a1.84,1.84,0,0,0,1.22-3.31h0A1.58,1.58,0,0,0,194.69,259.31Z" transform="translate(-182.4 -29.66)" fill="#4d8af0" opacity="0.5"/><path d="M950.69,450.31a3.69,3.69,0,0,1-2.05-4.45,1.1,1.1,0,0,0,.08-.4h0a1.84,1.84,0,0,0-3.31-1.22h0a2.08,2.08,0,0,0-.2.36,3.67,3.67,0,0,1-4.44,2,1.41,1.41,0,0,0-.41-.07h0a1.84,1.84,0,0,0-1.22,3.31h0a2.53,2.53,0,0,0,.36.2,3.67,3.67,0,0,1,2,4.44,1.86,1.86,0,0,0-.08.41h0a1.84,1.84,0,0,0,3.31,1.22h0a1.82,1.82,0,0,0,.2-.36,3.68,3.68,0,0,1,4.45-2.05,1.77,1.77,0,0,0,.4.08h0a1.84,1.84,0,0,0,1.22-3.31h0A1.58,1.58,0,0,0,950.69,450.31Z" transform="translate(-182.4 -29.66)" fill="#4d8af0" opacity="0.5"/><path d="M897.69,145.31a3.69,3.69,0,0,1-2.05-4.45,1.1,1.1,0,0,0,.08-.4h0a1.84,1.84,0,0,0-3.31-1.22h0a2.08,2.08,0,0,0-.2.36,3.67,3.67,0,0,1-4.44,2,1.41,1.41,0,0,0-.41-.07h0a1.84,1.84,0,0,0-1.22,3.31h0a2.53,2.53,0,0,0,.36.2,3.67,3.67,0,0,1,2,4.44,1.86,1.86,0,0,0-.08.41h0a1.84,1.84,0,0,0,3.31,1.22h0a1.82,1.82,0,0,0,.2-.36,3.68,3.68,0,0,1,4.45-2,1.77,1.77,0,0,0,.4.08h0a1.84,1.84,0,0,0,1.22-3.31h0A1.58,1.58,0,0,0,897.69,145.31Z" transform="translate(-182.4 -29.66)" fill="#4d8af0" opacity="0.5"/><path d="M921.69,319.31a3.69,3.69,0,0,1-2.05-4.45,1.1,1.1,0,0,0,.08-.4h0a1.84,1.84,0,0,0-3.31-1.22h0a2.08,2.08,0,0,0-.2.36,3.67,3.67,0,0,1-4.44,2,1.41,1.41,0,0,0-.41-.07h0a1.84,1.84,0,0,0-1.22,3.31h0a2.53,2.53,0,0,0,.36.2,3.67,3.67,0,0,1,2,4.44,1.86,1.86,0,0,0-.08.41h0a1.84,1.84,0,0,0,3.31,1.22h0a1.82,1.82,0,0,0,.2-.36,3.68,3.68,0,0,1,4.45-2.05,1.77,1.77,0,0,0,.4.08h0a1.84,1.84,0,0,0,1.22-3.31h0A1.58,1.58,0,0,0,921.69,319.31Z" transform="translate(-182.4 -29.66)" fill="#4d8af0" opacity="0.5"/><circle cx="72.19" cy="420.34" r="6" fill="#f55f44" opacity="0.5"/><circle cx="584.19" cy="222.34" r="6" fill="#4d8af0" opacity="0.5"/><circle cx="633.19" cy="374.34" r="6" fill="#47e6b1" opacity="0.5"/><circle cx="13.19" cy="58.34" r="6" fill="#f55f44" opacity="0.5"/><rect x="126.42" y="487.71" width="71.6" height="7.16" fill="#b0bec5"/><rect x="152.42" y="574.71" width="71.6" height="7.16" fill="#b0bec5"/><rect x="209.7" y="616.77" width="36.69" height="8.05" fill="#b0bec5"/><rect x="228.5" y="660.63" width="36.69" height="5.37" fill="#b0bec5"/><path d="M391.3,504.44S345,509.82,359,537.82a317.85,317.85,0,0,1,21.27,56.8l24.49-5.12s-9.69-45.76-18.3-51.14l23.15-4.31Z" transform="translate(-182.4 -29.66)" fill="#fda57d"/><path d="M386.46,538.36l23.15-4.31L391.3,504.44s-.54.06-1.48.21L408,534.05l-23.15,4.31c8.62,5.38,18.31,51.14,18.31,51.14l-23,4.8.09.32,24.49-5.12S395.07,543.74,386.46,538.36Z" transform="translate(-182.4 -29.66)" opacity="0.05"/><path d="M395,584.32s-14.3,10.26-36,9.44c0,0-11.54,5.25,4.79,9.43s42.68,1.23,44.75-2-.86-14.14-5.68-18.61S395,584.32,395,584.32Z" transform="translate(-182.4 -29.66)" fill="#6c63ff"/><path d="M432.76,570.12s-1.08,21,6.46,36.07l5.38,72.69h17.23s0-35.54,8.08-54.38-4.31-39.84-4.31-39.84l-1.08-21.54Z" transform="translate(-182.4 -29.66)" fill="#fda57d"/><circle cx="261.12" cy="315.42" r="22.07" fill="#fda57d"/><rect x="246.05" y="326.72" width="26.92" height="24.23" fill="#fda57d"/><path d="M455.37,673.49s-16.15,7-37.15,1.62c0,0-12.38,2.69,2.69,10.23s41.46,10.23,44.15,7.53,2.16-14-1.61-19.38S455.37,673.49,455.37,673.49Z" transform="translate(-182.4 -29.66)" fill="#6c63ff"/><path d="M386.73,424.49,355,506.32s-24.23,6.46-11.84,18.31c0,0-2.16-11.31,15.07-8.08,0,0,4.85,8.08,4.85,10.77s5.53-9,3.3-14.72A131.36,131.36,0,0,1,393.19,467s13.46-23.69,12.92-39.84Z" transform="translate(-182.4 -29.66)" fill="#fda57d"/><path d="M493.33,395.41s17.23,8.08,25.84,5.39c6.1-1.91,12.74-14.08,16.1-21a10.47,10.47,0,0,1,8.16-5.85c6.4-.77,15.37-.69,12.89,6.41-3.77,10.77-16.15,14-16.15,14L522.4,419.1H491.17Z" transform="translate(-182.4 -29.66)" fill="#fda57d"/><circle cx="257.09" cy="313.53" r="22.61" fill="#3d213c"/><ellipse cx="268.93" cy="293.34" rx="16.69" ry="9.42" fill="#3d213c"/><polygon points="250.45 548.62 250.45 551.34 282.81 547.19 282.81 544.1 250.45 548.62" opacity="0.05"/><polygon points="205.22 475.37 203.04 475.8 213.5 506.94 214.81 506.7 205.22 475.37" opacity="0.05"/><polygon points="319.81 369.2 321.94 369.86 322.63 389.44 319.81 389.44 319.81 369.2" opacity="0.05"/><polygon points="203.34 397.37 202.62 399.21 221.75 411.17 222.29 409.08 203.34 397.37" opacity="0.05"/><path d="M407.86,492.65l-3.17,1.26s53.09,25.73,70.59,3.19l-.58-2S458.61,516.66,407.86,492.65Z" transform="translate(-182.4 -29.66)" opacity="0.05"/><path d="M381.87,497.15l15,42.76q10.78-3.51,21.82-6.22A36.41,36.41,0,0,1,430,532.43c-3,.55-2.53,2.52-3.36,5.5s-.58,6.13-.4,9.22A156.36,156.36,0,0,1,425,578.26a239.93,239.93,0,0,1,48.3-5.38,154.16,154.16,0,0,1-4.48-26.63,31.13,31.13,0,0,1,0-7.09c.48-3.18,1.84-6.16,3-9.17a73.16,73.16,0,0,0,4.62-21.62,19.58,19.58,0,0,0-.91-8.45c-1.42-3.55-4.59-6.17-8.09-7.71a38.93,38.93,0,0,0-11.11-2.58c-14.39-1.78-28.49-1.43-42.93-1.29-5.54.05-8.25,1.77-13.24,4.17C398.53,493.28,382.59,499.22,381.87,497.15Z" transform="translate(-182.4 -29.66)" fill="#6c63ff"/><path d="M409.78,382.52c-8.73,4.73-15.66,12.12-22.43,19.39L370.48,420a251,251,0,0,1,24,12.86c2.86,1.74,5.84,3.71,7.21,6.77s.87,6.53.25,9.78a155.9,155.9,0,0,1-12.11,37.3c13.58,2.95,27.39,6,39.5,12.8,3.06,1.72,6.14,3.72,9.64,4a20.94,20.94,0,0,0,6.23-.75l30.72-6.9a5.7,5.7,0,0,0,2.68-1.11,5.81,5.81,0,0,0,1.25-2c5.41-11.84,10.95-24.25,10.37-37.26-.28-6.13-1.91-12.35-.51-18.32s7.57-11.54,13.29-9.3l2.52-28.77c.29-3.24.35-7-2.18-9.08-1.76-1.42-4.21-1.49-6.36-2.2-3.4-1.12-6-3.84-9-5.8-8.19-5.37-18.77-4.73-28.53-3.89-8.3.71-16.53,2-24.78.8C425.74,377.69,417.93,378.11,409.78,382.52Z" transform="translate(-182.4 -29.66)" fill="#6c63ff"/></svg>