<?xml version="1.0" encoding="UTF-8"?><svg id="a" xmlns="http://www.w3.org/2000/svg" width="342" height="343.71063" viewBox="0 0 342 343.71063"><path d="M328.91003,0H13.09998C5.86506,0,0,5.86506,0,13.09998V199.8999c0,6.92017,5.40991,12.62012,12.21997,13.06006,.29004,.03003,.58008,.04004,.88,.04004H91.71654v-2H13.09998c-.29993,0-.58997-.01001-.88-.04004-5.70996-.44995-10.21997-5.23999-10.21997-11.06006V13.08997C2,6.96515,6.96515,2,13.08997,2H328.90991c6.12489,0,11.09009,4.9652,11.09009,11.09009V155.22003c0,30.80643-24.97354,55.77997-55.77997,55.77997h-.00006v2h44.68994c7.22946,0,13.09009-5.86063,13.09009-13.09009V13.08997c0-7.22939-5.86058-13.08997-13.08997-13.08997Z" fill="#e6e6e6"/><g><path d="M267.12473,47.65933h-67.08496c-2.30142,0-4.17392-1.87249-4.17392-4.17392s1.87249-4.17392,4.17392-4.17392h67.08496c2.30142,0,4.17392,1.87249,4.17392,4.17392s-1.87249,4.17392-4.17392,4.17392Z" fill="#f2f2f2"/><path d="M91.12473,61.65933H24.03978c-2.30142,0-4.17392-1.87249-4.17392-4.17392s1.87249-4.17392,4.17392-4.17392H91.12473c2.30142,0,4.17392,1.87249,4.17392,4.17392s-1.87249,4.17392-4.17392,4.17392Z" fill="#f2f2f2"/><path d="M319.47806,61.78644h-119.43829c-2.30142,0-4.17392-1.87249-4.17392-4.17392s1.87249-4.17392,4.17392-4.17392h119.43829c2.30142,0,4.17392,1.87249,4.17392,4.17392s-1.87249,4.17392-4.17392,4.17392Z" fill="#f2f2f2"/></g><path d="M90.71654,332.67059V96.75067c0-6.0874,4.95215-11.04004,11.04004-11.04004h171.91992c6.0874,0,11.04004,4.95264,11.04004,11.04004v235.91992c0,6.0874-4.95264,11.04004-11.04004,11.04004H101.75657c-6.08789,0-11.04004-4.95264-11.04004-11.04004ZM282.71654,96.75067c0-4.99268-4.04736-9.04004-9.04004-9.04004H101.75657c-4.99268,0-9.04004,4.04736-9.04004,9.04004v235.91992c0,4.99268,4.04736,9.04004,9.04004,9.04004h95.24736c47.33776,0,85.7126-38.37484,85.7126-85.7126V96.75067Z" fill="#3f3d56"/><g><path d="M314.58111,296.03543c-7.91992,0-14.36328-6.44336-14.36328-14.36377,0-7.91992,6.44336-14.36328,14.36328-14.36328,7.92041,0,14.36377,6.44336,14.36377,14.36328,0,7.92041-6.44336,14.36377-14.36377,14.36377Zm0-26.72705c-6.81689,0-12.36328,5.54639-12.36328,12.36328,0,6.81738,5.54639,12.36377,12.36328,12.36377,6.81738,0,12.36377-5.54639,12.36377-12.36377,0-6.81689-5.54639-12.36328-12.36377-12.36328Z" fill="#3f3d56"/><path d="M311.70215,288.29218c-.27246,0-.54395-.11084-.74121-.32861-.37109-.40967-.33984-1.04199,.07031-1.4126l5.54883-5.02441-5.02344-5.54883c-.37109-.40918-.33887-1.0415,.07031-1.41211s1.04199-.33936,1.41211,.07031l5.69434,6.29004c.37109,.40918,.33984,1.0415-.07031,1.41211l-6.29004,5.69531c-.19141,.17334-.43164,.25879-.6709,.25879Z" fill="#3f3d56"/></g><g><path d="M60.30865,296.03543c-7.92041,0-14.36377-6.44336-14.36377-14.36377,0-7.91992,6.44336-14.36328,14.36377-14.36328,7.91992,0,14.36328,6.44336,14.36328,14.36328,0,7.92041-6.44336,14.36377-14.36328,14.36377Zm0-26.72705c-6.81738,0-12.36377,5.54639-12.36377,12.36328,0,6.81738,5.54639,12.36377,12.36377,12.36377,6.81689,0,12.36328-5.54639,12.36328-12.36377,0-6.81689-5.54639-12.36328-12.36328-12.36328Z" fill="#3f3d56"/><path d="M63.29785,288.29218c-.23926,0-.47949-.08545-.6709-.25879l-6.29004-5.69531c-.41016-.37061-.44141-1.00293-.07031-1.41211l5.69434-6.29004c.37012-.40967,1.00293-.44092,1.41211-.07031s.44141,1.00293,.07031,1.41211l-5.02344,5.54883,5.54883,5.02441c.41016,.37061,.44141,1.00293,.07031,1.4126-.19727,.21777-.46875,.32861-.74121,.32861Z" fill="#3f3d56"/></g><g><path d="M168.51983,46.55485c3.00889-.17832,5.59947,2.07094,6.79559,3.81525,1.14722,1.673,2.87925,1.60111,3.8832,5.89419,1.07818,4.61045-.3518,12.99378-1.4562,15.30162-1.08215,2.26137,2.204,3.90363,1.4562,7.20658-.40599,1.79316-1.89214,3.59532-3.8832,4.23916-.95818,.30981-2.3604,.45719-6.79559-1.27175-5.61209-2.18768-8.41814-3.28157-9.70799-5.51091-1.28466-2.22039-.01336-3.36075,.9708-9.32616,1.45709-8.83202-.51877-11.24713,2.427-15.6849,.90984-1.37069,2.96367-4.46473,6.31019-4.66308Z" fill="#2f2e41"/><path d="M107.49586,189.54659c.51624-1.74565,1.38395-3.22997,2.40928-4.2844l3.86743-16.94026,8.00702,2.07609-4.78523,16.96068c.28694,1.44251,.20778,3.16002-.30846,4.90567-1.17934,3.98794-4.19264,6.61237-6.73041,5.86188-2.53777-.75049-3.63898-4.59172-2.45965-8.57964h0Z" fill="#ffb6b6"/><path d="M222.18528,88.59793c-.14313,1.81475-.68428,3.44671-1.46875,4.69079l-.27156,17.374-8.26346-.37106,1.16518-17.58424c-.57975-1.35168-.85836-3.04829-.71523-4.86304,.32699-4.14579,2.73076-7.33789,5.36898-7.1298,2.63822,.20809,4.51183,3.73757,4.18484,7.88335h0Z" fill="#ffb6b6"/><g><polygon points="123.16046 329.20879 129.1851 329.35096 132.54333 302.28453 123.65248 302.07413 123.16046 329.20879" fill="#ffb6b6"/><path d="M143.83022,341.778h0c0,1.01775-.72226,1.84283-1.61322,1.84283h-11.95839s-1.1768-4.73044-5.97482-6.76621l-.33115,6.76621h-6.16892l.74743-10.87976s-1.65022-5.82071,1.77693-8.79609c3.42718-2.97538,.65129-2.56119,.65129-2.56119l1.34819-6.73375,9.3219,1.0962,.06854,10.57041,4.52385,10.49212,6.63539,3.27778c.59058,.29173,.97289,.95645,.97289,1.69144l.00007,.00002Z" fill="#2f2e41"/></g><g><polygon points="154.01367 317.41775 159.8523 318.91003 169.20651 293.29034 160.5903 291.08754 154.01367 317.41775" fill="#ffb6b6"/><path d="M171.33055,334.31005h0c-.22869,.99173-1.11787,1.63341-1.98605,1.43321l-11.65259-2.68706s-.08377-4.8739-4.30165-7.93573l-1.84305,6.51878-6.01116-1.38616,3.17301-10.43359s-.3001-6.04267,3.70798-8.17188c4.00811-2.1292,1.21014-2.34935,1.21014-2.34935l2.8268-6.25861,8.8372,3.16281-2.30839,10.3155,2.05057,11.24032,5.72919,4.68494c.50993,.41697,.7331,1.1506,.56795,1.8668l.00007,.00003Z" fill="#2f2e41"/></g><path d="M169.24793,145.82051l2.427,41.25896,21.95332,60.69214-21.38032,47.93902h-19.57842l18.04702-44-26.95208-60.50527-8.12949,125.50063-16.38319-.02484-2.6697-128.87358s-5.0967-37.13307,14.31929-52.18045l38.34656,10.19339Z" fill="#2f2e41"/><path d="M167.2992,80.96194c-2.59234-1.04174-5.2437-2.097-8.03368-2.24346s-5.79386,.77847-7.44945,3.02891c-1.4102,1.91688-1.66492,4.49807-3.07387,6.41587-3.45377,4.70113-11.35851,2.9072-15.79659,6.69304-4.06968,3.47158-3.43667,9.88765-1.91232,15.01507s3.5616,10.77606,1.24912,15.5996c-1.80642,3.76796-6.14447,6.72637-5.63436,10.87371,.44115,3.58666,4.2809,5.56941,7.62564,6.93741l19.13242,7.82512c3.70659,1.51599,7.54914,3.0581,11.55214,2.9442s8.23601-2.34603,9.38995-6.18079c1.0879-3.61528-.75762-7.52909-.13285-11.25246,.48324-2.87985,2.37028-5.28711,4.00844-7.70444,6.00366-8.85928,9.29569-19.53,9.32683-30.23186-9.26882-1.86528-17.1271-9.46897-19.29652-18.67135" fill="#6c63ff"/><path d="M180.54085,111.68709l25.94374,23.43077c3.00638,2.71518,6.99221,5.6262,10.73274,4.07088,2.03724-.84709,3.37801-2.89447,3.93395-5.02961s.44379-4.37981,.32775-6.58309c-.48593-9.22638,1.19746-18.82582,.71154-28.0522-2.58546-1.07177-7.34022-1.77049-9.92568-2.84226l-3.25667,20.68202-18.62114-16.64537c-2.15606-1.92729-4.72235-3.98794-7.58489-3.57692-2.9972,.43035-4.99798,3.58407-5.14833,6.60827-.15035,3.0242,1.09874,5.92472,2.37092,8.67243" fill="#6c63ff"/><path d="M135.75843,97.16963c-1.55334-1.99912-4.9151-1.55053-6.71096,.23391s-2.43497,4.39342-2.99843,6.8616l-16.80553,73.61564,10.3349,3.6261,13.28774-40.13725c2.42211-7.31626,4.85597-14.68204,5.91546-22.31564s.67635-15.6328-2.37765-22.70863" fill="#6c63ff"/><circle cx="161.48154" cy="63.30258" r="15.29009" fill="#ffb6b6"/><path d="M173.37383,48.4979c-.44037-2.57063-3.60389-4.47525-6.31019-4.854-2.28273-.31943-2.85846,.64011-8.25179,1.4562-2.88344,.43628-2.75431,.16739-4.3686,.4854-1.8614,.36666-6.77225,1.33408-9.70799,5.3394-2.20538,3.00886-3.34591,7.79999-1.9416,11.64959,.75873,2.07989,2.19427,3.7039,1.4562,5.3394-.47656,1.056-1.42013,1.14364-2.427,1.9416-2.53649,2.01021-3.30688,6.81011-1.9416,9.70799,1.61531,3.42855,6.12264,3.98772,13.10579,4.854,7.19402,.89247,13.93072,.24957,14.07659-.9708,.07445-.62287-1.63898-.80258-2.427-2.427-.92322-1.90314,.37667-3.82483,.9708-5.82479,1.8538-6.24022-6.74981-3.87046-4.8909-8.48424,.06518-.16178,.14034-.36605,.22335-.60459,1.37558-3.95301,4.02003-10.15215,4.02003-10.15215,0,0,1.74428,3.76523,1.75662,3.75674,2.08521-1.43361,9.67908,1.8285,11,0,2.12481-2.94131-4.24334-10.63271-4.34271-11.21273Z" fill="#2f2e41"/></g><path d="M231.94488,101.03543c-7.92041,0-14.36377-6.44336-14.36377-14.36377,0-7.91992,6.44336-14.36328,14.36377-14.36328s14.36377,6.44336,14.36377,14.36328c0,7.92041-6.44336,14.36377-14.36377,14.36377Zm0-26.72705c-6.81738,0-12.36377,5.54639-12.36377,12.36328,0,6.81738,5.54639,12.36377,12.36377,12.36377s12.36377-5.54639,12.36377-12.36377c0-6.81689-5.54639-12.36328-12.36377-12.36328Z" fill="#3f3d56"/><circle cx="231.94488" cy="86.6718" r="7.63636" fill="#6c63ff"/><g><path d="M49.41586,16.68893H21.3558c-1.40997,0-2.56,1.15002-2.56,2.56,0,1.41998,1.15002,2.57001,2.56,2.57001h28.06006c1.40997,0,2.56-1.15002,2.56-2.57001,0-1.40997-1.15002-2.56-2.56-2.56Z" fill="#e6e6e6"/><path d="M96.41586,16.68893h-28.06006c-1.40997,0-2.56,1.15002-2.56,2.56,0,1.41998,1.15002,2.57001,2.56,2.57001h28.06006c1.40997,0,2.56-1.15002,2.56-2.57001,0-1.40997-1.15002-2.56-2.56-2.56Z" fill="#e6e6e6"/><path d="M143.41586,16.68893h-28.06006c-1.40997,0-2.56,1.15002-2.56,2.56,0,1.41998,1.15002,2.57001,2.56,2.57001h28.06006c1.40997,0,2.56-1.15002,2.56-2.57001,0-1.40997-1.15002-2.56-2.56-2.56Z" fill="#3f3d56"/></g></svg>