<svg id="f63559cc-ba74-42cc-9bb9-e3f9353a6e45" data-name="Layer 1" xmlns="http://www.w3.org/2000/svg" width="704.72644" height="560.95591" viewBox="0 0 704.72644 560.95591"><polygon points="270.438 559.992 73.438 559.992 73.658 537.104 73.678 535.114 75.438 355.992 269.438 355.992 269.688 407.738 269.698 409.728 270.438 559.992" fill="#e6e6e6"/><path d="M755.66542,375.655l31.87637-54.03865a10.12679,10.12679,0,0,0-3.48086-13.77488l0,0a10.12679,10.12679,0,0,0-14.17886,3.86527l-31.39087,57.148L717.95309,402.776a8.83708,8.83708,0,1,0,7.55813,8.45614Z" transform="translate(-247.29658 -205.18832)" fill="#a0616a"/><path d="M786.01179,335.55691h0a2.98619,2.98619,0,0,0,2.2983-2.79656,3.87391,3.87391,0,0,1,.84492-2.207,3.56246,3.56246,0,0,1,.31968-.34128,5.84267,5.84267,0,0,0,1.91346-5.05187c-.41011-3.06824.69793-6.62581,2.05675-9.56381,1.487-3.21491,3.17044-6.39757,3.84457-9.875.97237-5.01625-.50447-10.9606-6.68692-12.4485a11.76108,11.76108,0,0,0-7.82276.95086c-5.09461,2.45643-8.20655,7.34346-11.13894,12.04723,0,0-7.006,7.29026-11.89129,10.83335,1.27577.49449,1.11934,2.52776.061,3.3948-1.05843.86709-2.52788.95018-3.87884,1.1667-1.70287.27292-3.63808,1.05189-3.53418,3.17087a3.68182,3.68182,0,0,0,1.38637,2.60386,69.58157,69.58157,0,0,0,25.2,13.26721c2.04919.58465,4.34642,1.05166,6.23049.05607S787.83121,336.66623,786.01179,335.55691Z" transform="translate(-247.29658 -205.18832)" fill="#6c63ff"/><polygon points="587.328 224.152 522.328 223.152 520.328 208.152 526.328 174.152 577.328 174.152 587.328 224.152" fill="#a0616a"/><polygon points="500.069 538.978 489.031 538.978 483.778 496.405 500.069 496.405 500.069 538.978" fill="#a0616a"/><path d="M753.191,763.29084l-7.91554,0-1.41288-7.4732-3.61862,7.4732H719.25012a4.71923,4.71923,0,0,1-2.68163-8.60272l16.7651-11.57858v-7.55515l17.634,1.05251Z" transform="translate(-247.29658 -205.18832)" fill="#2f2e41"/><polygon points="649.348 503.147 640.294 509.46 611.634 477.542 624.997 468.225 649.348 503.147" fill="#a0616a"/><path d="M912.3615,720.69038l-6.49294,4.52741-5.43337-5.322,1.30614,8.19983-17.22081,12.00777a4.71923,4.71923,0,0,1-7.12014-5.52283l7.12949-19.0867-4.32129-6.19732,15.06674-9.22266Z" transform="translate(-247.29658 -205.18832)" fill="#2f2e41"/><path d="M950.83856,765.83692l-702.3575.30731a1.19069,1.19069,0,0,1,0-2.38134l702.3575-.30732a1.19069,1.19069,0,0,1,0,2.38135Z" transform="translate(-247.29658 -205.18832)" fill="#cacaca"/><rect x="62.93408" y="335.38378" width="215.49825" height="23.7682" fill="#e6e6e6"/><path d="M452.12249,511.93756l-.72975-2.56027h.16395a1.70682,1.70682,0,0,0,0-3.41364,50.78067,50.78067,0,0,0-23.46887,0,1.70586,1.70586,0,0,0-.02027,3.41161l-.694,2.5623c-5.38483,7.48643-2.75049,19.92225,0,32.42971h24.749C455.23378,530.73466,457.58961,517.78745,452.12249,511.93756Z" transform="translate(-247.29658 -205.18832)" fill="#e6e6e6"/><circle cx="192.52567" cy="319.97715" r="6.82731" fill="#fff"/><path d="M470.79393,475.40648l-.72975-2.56027h.164a1.70682,1.70682,0,0,0,0-3.41364,50.78045,50.78045,0,0,0-23.46888,0,1.70586,1.70586,0,0,0-.02026,3.41161l-.694,2.5623c-5.38483,7.48642-2.75048,19.92224,0,32.42971h24.749C473.90523,494.20358,476.26106,481.25637,470.79393,475.40648Z" transform="translate(-247.29658 -205.18832)" fill="#e6e6e6"/><circle cx="211.19711" cy="283.44606" r="6.82731" fill="#fff"/><path d="M434.79393,475.40648l-.72975-2.56027h.164a1.70682,1.70682,0,0,0,0-3.41364,50.78045,50.78045,0,0,0-23.46888,0,1.70586,1.70586,0,0,0-.02026,3.41161l-.694,2.5623c-5.38483,7.48642-2.75048,19.92224,0,32.42971h24.749C437.90523,494.20358,440.26106,481.25637,434.79393,475.40648Z" transform="translate(-247.29658 -205.18832)" fill="#e6e6e6"/><circle cx="175.19711" cy="283.44606" r="6.82731" fill="#fff"/><path d="M418.79393,440.40648l-.72975-2.56027h.164a1.70682,1.70682,0,0,0,0-3.41364,50.78045,50.78045,0,0,0-23.46888,0,1.70586,1.70586,0,0,0-.02026,3.41161l-.694,2.5623c-5.38483,7.48642-2.75048,19.92224,0,32.42971h24.749C421.90523,459.20358,424.26106,446.25637,418.79393,440.40648Z" transform="translate(-247.29658 -205.18832)" fill="#e6e6e6"/><circle cx="159.19711" cy="248.44606" r="6.82731" fill="#fff"/><path d="M454.79393,440.40648l-.72975-2.56027h.164a1.70682,1.70682,0,0,0,0-3.41364,50.78045,50.78045,0,0,0-23.46888,0,1.70586,1.70586,0,0,0-.02026,3.41161l-.694,2.5623c-5.38483,7.48642-2.75048,19.92224,0,32.42971h24.749C457.90523,459.20358,460.26106,446.25637,454.79393,440.40648Z" transform="translate(-247.29658 -205.18832)" fill="#e6e6e6"/><circle cx="195.19711" cy="248.44606" r="6.82731" fill="#fff"/><path d="M397.79393,475.40648l-.72975-2.56027h.164a1.70682,1.70682,0,0,0,0-3.41364,50.78045,50.78045,0,0,0-23.46888,0,1.70586,1.70586,0,0,0-.02026,3.41161l-.694,2.5623c-5.38483,7.48642-2.75048,19.92224,0,32.42971h24.749C400.90523,494.20358,403.26106,481.25637,397.79393,475.40648Z" transform="translate(-247.29658 -205.18832)" fill="#e6e6e6"/><circle cx="138.19711" cy="283.44606" r="6.82731" fill="#fff"/><path d="M726.79393,376.40648l-.72975-2.56027h.164a1.70682,1.70682,0,0,0,0-3.41364,50.78045,50.78045,0,0,0-23.46888,0,1.70586,1.70586,0,0,0-.02026,3.41161l-.694,2.5623c-5.38483,7.48642-2.75048,19.92224,0,32.42971h24.749C729.90523,395.20358,732.26106,382.25637,726.79393,376.40648Z" transform="translate(-247.29658 -205.18832)" fill="#ccc"/><circle cx="467.19711" cy="184.44606" r="6.82731" fill="#fff"/><path d="M378.24851,511.93756l-.72975-2.56027h.164a1.70682,1.70682,0,0,0,0-3.41364,50.78067,50.78067,0,0,0-23.46887,0,1.70586,1.70586,0,0,0-.02027,3.41161l-.694,2.5623c-5.38483,7.48643-2.75049,19.92225,0,32.42971h24.749C381.35981,530.73466,383.71564,517.78745,378.24851,511.93756Z" transform="translate(-247.29658 -205.18832)" fill="#e6e6e6"/><circle cx="118.6517" cy="319.97715" r="6.82731" fill="#fff"/><path d="M415.24851,511.93756l-.72975-2.56027h.164a1.70682,1.70682,0,0,0,0-3.41364,50.78067,50.78067,0,0,0-23.46887,0,1.70586,1.70586,0,0,0-.02027,3.41161l-.694,2.5623c-5.38483,7.48643-2.75049,19.92225,0,32.42971h24.749C418.35981,530.73466,420.71564,517.78745,415.24851,511.93756Z" transform="translate(-247.29658 -205.18832)" fill="#e6e6e6"/><circle cx="155.6517" cy="319.97715" r="6.82731" fill="#fff"/><path d="M491.089,511.93756l-.72975-2.56027h.16395a1.70682,1.70682,0,0,0,0-3.41364,50.78067,50.78067,0,0,0-23.46887,0,1.70586,1.70586,0,0,0-.02027,3.41161l-.694,2.5623c-5.38483,7.48643-2.75049,19.92225,0,32.42971h24.749C494.20027,530.73466,496.5561,517.78745,491.089,511.93756Z" transform="translate(-247.29658 -205.18832)" fill="#e6e6e6"/><circle cx="231.49216" cy="319.97715" r="6.82731" fill="#fff"/><path d="M833.38107,415.9781l-67.87964-4.5737s-15.728,36.33189-15.47607,41.1339,6.742,3.35558-.003,10.57879-6.745-2.77679-6.745,7.22321-27.27065,232-15.27065,234c21,3,20-1,20-1l32.953-103.24339s59.49733,86.98165,78.047,82.24339,15-11,15-11l-39.74462-80.67467s-5.925-.01089-5.09019-6.66811-4.22193-5.5307-4.22193-5.5307-7.59425-2.36756-4.76875-6.247-4.67451-6.12357-4.67451-6.12357l21.88927-83.7874S852.98481,446.11589,833.38107,415.9781Z" transform="translate(-247.29658 -205.18832)" fill="#2f2e41"/><path d="M827.39351,277.38705l-23.36321,1.18344-7.7994,13.13989s-22.22422,1.62992-22.22422,19.62992-15.16944,10.167-8.08472,33.08351,8.69889,27.33382,2.39181,30.62515-15.20807,2.58268-7.25758,7.937,10.95049,7.35433,8.95049,9.35433,37.07086-13.73526,59.53543-3.86763c0,0,6.28453-4.757,4.87455-8.94466s-2.17771-2.56848.20615-6.3781,27.68584-70.06958,27.68584-70.06958-5.13648-9.5497-16.21923-9.14486S827.39351,277.38705,827.39351,277.38705Z" transform="translate(-247.29658 -205.18832)" fill="#6c63ff"/><path d="M909.366,499.92169l-41.30915,22.41773-31.7187-58.44805a23.5,23.5,0,0,1,41.30915-22.41772Zm-40.50526,19.706,37.79348-20.50984-30.76476-56.69021A21.5,21.5,0,1,0,838.096,462.93743Z" transform="translate(-247.29658 -205.18832)" fill="#3f3d56"/><path d="M944.65473,541.64144,883.80425,574.6639a7.841,7.841,0,0,1-9.19977-1.23849l-41.091-39.44318a7.8673,7.8673,0,0,1,1.69536-12.58989l91.265-49.52786a7.86729,7.86729,0,0,1,11.47982,5.44L948.63015,533.253A7.841,7.841,0,0,1,944.65473,541.64144Z" transform="translate(-247.29658 -205.18832)" fill="#6c63ff"/><rect x="877.36549" y="498.01078" width="7" height="12" transform="translate(-381.03911 275.98732) rotate(-28.48789)" fill="#3f3d56"/><path d="M865.16505,382.62974l-1.78631-62.71433a10.12678,10.12678,0,0,0-10.28016-9.80725h0a10.1268,10.1268,0,0,0-9.94456,10.82063l3.85269,65.088.67384,39.64855a8.83709,8.83709,0,1,0,10.89991,3.13424Z" transform="translate(-247.29658 -205.18832)" fill="#a0616a"/><path d="M869.5054,332.53063h0a2.98618,2.98618,0,0,0,.45665-3.59088,3.874,3.874,0,0,1-.45977-2.31806,3.56228,3.56228,0,0,1,.08892-.45908,5.84265,5.84265,0,0,0-1.06982-5.29511c-1.98066-2.37893-2.93672-5.98032-3.35064-9.19075-.45288-3.51306-.72223-7.10346-2.00293-10.406-1.8475-4.76393-6.26235-9.00956-12.28793-6.97759a11.761,11.761,0,0,0-6.11573,4.96966c-3.0048,4.79168-3.03725,10.58532-3.01528,16.12823l-1.08069-2.19025a44.96673,44.96673,0,0,1-3.21771,17.69147c1.3432-.26062,2.29327,1.54383,1.85894,2.84125-.43432,1.29749-1.634,2.15015-2.66229,3.05267-1.29617,1.13762-2.51962,2.8273-1.30353,4.5657a3.68177,3.68177,0,0,0,2.55982,1.46607,69.58171,69.58171,0,0,0,28.39508-2.18551c2.0459-.59607,4.23913-1.42377,5.30395-3.2696S871.63613,332.501,869.5054,332.53063Z" transform="translate(-247.29658 -205.18832)" fill="#6c63ff"/><path d="M849.81313,245.7824c-1.34,4.96.2,12.77.78,17.4.62,4.95-7.96,9.38-12.87,9.66a6.9892,6.9892,0,0,0-1.3-4.6,11.967,11.967,0,0,1-.96,4.61h-40.97c-5.16-9.71-9.55-22.98-4.81-36.7a14.03972,14.03972,0,0,1,9.7-12.15l22.34-7.15c8.81,0,19.62,1.25,24.49,7.81A24.57544,24.57544,0,0,1,849.81313,245.7824Z" transform="translate(-247.29658 -205.18832)" fill="#2f2e41"/><circle cx="565.19654" cy="43.66408" r="23" fill="#a0616a"/><path d="M841.49312,242.85241v5h-19.9a7.156,7.156,0,0,0-1.17-5.61,12.19184,12.19184,0,0,1-1.42,5.61c-11.50684,3.40265-21.1651,3.33743-29.07916,0a4.43085,4.43085,0,0,1-4.43085-4.43084v0c0-15.32986,12.08375-28.24713,27.41036-28.56306a27.99692,27.99692,0,0,1,28.58964,27.99392Z" transform="translate(-247.29658 -205.18832)" fill="#2f2e41"/><path d="M837.57162,208.97116c-2.3714-1.10943-5.04126-1.57959-6.91223-3.78284l.70624,3.73237a17.626,17.626,0,0,0-12.55036-1.568,6.73025,6.73025,0,0,0-3.31354,1.71942,4.9566,4.9566,0,0,0-1.31311,4.07953,4.64127,4.64127,0,0,0,2.07728,3.1203,8.96233,8.96233,0,0,0,3.16558,1.07776q6.9431,1.41138,13.88611,2.82269a10.59112,10.59112,0,0,0,5.31964.1698,5.21975,5.21975,0,0,0,3.514-4.51586C842.41482,212.63956,839.943,210.08054,837.57162,208.97116Z" transform="translate(-247.29658 -205.18832)" fill="#2f2e41"/></svg>