<?xml version="1.0" encoding="UTF-8"?><svg id="uuid-6a21fd7a-67fe-42a2-986d-095ee9210c26" xmlns="http://www.w3.org/2000/svg" width="731.67004" height="504.36518" viewBox="0 0 731.67004 504.36518"><path d="M0,489.97694c0,.66003,.53003,1.19,1.19006,9.19H730.48004c.65997-8,1.19-8.52997,1.19-9.19,0-.65997-.53003-1.19-1.19,6.81H1.19006c-.66003-8-1.19006-7.46997-1.19006-6.81Z" fill="#3f3d56"/><polygon points="422.05549 295.39437 431.40737 474.28924 454.77717 471.48701 467.57982 286.55456 422.05549 295.39437" fill="#ffb6b6"/><path d="M457.84683,463.46906s13,34-4,36c-17,2-66,11-66-2,0-13,25-18,25-18,0,0,12-19,17-17,5,2,9,13,18,10,9-3,10-9,10-9Z" fill="#2f2e41"/><rect x="394.34683" y="58.96906" width="29" height="37" transform="translate(817.69367 154.93813) rotate(-180)" fill="#ffb6b6"/><circle cx="408.09683" cy="44.71906" r="33.25" fill="#ffb6b6"/><path d="M444.84683,180.46906l4-33,19,1,4,39,15.74121,72.22266,.03809-.00977-.0166,.00586,4.57324,19.72266c2.79297,3.46387,4.71484,7.54688,5.60547,11.90625,2.38086,10.87988-1.30078,20.92383-8.22363,22.43848-6.92188,1.51465-14.46094-6.0752-16.83887-16.95215-1.01074-4.33496-.96777-8.84863,.12402-13.16309l-4.26758-14.92871-23.73535-88.24219Z" fill="#ffb6b6"/><path d="M392.34683,84.96906h35s34,18,34,18l-12,72,14,45s-75,23-98,13l10-58-7-77,24-13Z" fill="#6c63ff"/><path d="M454.84683,103.46906s12-4,14,3c2,7,7,49,7,49l-30,1,9-53Z" fill="#6c63ff"/><path d="M291.04029,235.05212c-1.2124,0-2.39404-.09277-3.52979-.28027-4.62793-.76465-7.95459-3.01172-9.36768-6.32715-1.41357-3.31543-.73145-7.271,1.92139-11.13916,2.60547-3.79834,6.81494-7.07324,11.85352-9.2207,4.08203-1.80469,8.59326-2.62451,13.04688-2.38184l41.41064-21.55225,3.00293-31.03027,22.91553-9.37451,3.18555,42.20898c.53418,7.08105-3.51562,13.66211-10.07617,16.37646l-52.26514,22.49805c-2.91162,3.39307-6.63184,6.08105-10.76611,7.77686-3.77734,1.61035-7.69238,2.4458-11.33154,2.4458Z" fill="#ffb6b6"/><path d="M376.84683,97.46906s-20-7-26,15c-6,22-4,42-4,42l34-3-4-54Z" fill="#6c63ff"/><g><path d="M267.26675,179.96906c0,9.95996,8.08008,18.04004,18.04004,18.04004,5.34961,0,10.14941-2.33008,13.4502-6.02051,0,0,.00977-.00977,.01953-.00977,2.15039-2.41016,3.66016-5.41016,4.25977-8.72949,.08008-.33984,.12988-.69043,.16992-1.0498,.09082-.69043,.13086-1.39062,.14063-2.11035v-.12012c0-9.95996-8.07031-18.04004-18.04004-18.04004-6.62988,0-12.43066,3.58008-15.56055,8.91992-.5,.83008-.91992,1.70996-1.25977,2.62988-.79004,2.00977-1.21973,4.2002-1.21973,6.49023Z" fill="#6c63ff"/><path d="M268.48648,173.47883c.96973-.29004,2.0498-.74023,3.23047-1.37012,.40918-.20996,.72949-.40918,1.01953-.58984,.60059-.35937,.91992-.5498,1.52051-.62988,1.48926-.18945,2.7793,.62012,3.33008,.95996,1.68945,1.07031,2.44922,2.57031,3.17969,4.03027,.39941,.7998,1.12988,2.49023,1.4502,4.78027,.18945,1.3291,.12988,2.04004,.06934,2.67969-.05957,.71973-.10938,1.39941,.16992,2.51953,.78027,3.03027,2.93066,4.98047,4.14062,5.87012,2.00977,1.48047,4.12012,2.2207,6.2793,2.2207,.28027,0,.55078-.01074,.82031-.03027,1.10059-.08984,3.16016-.48047,5.06055-1.93066,0,0,.00977-.00977,.01953-.00977,2.15039-2.41016,3.66016-5.41016,4.25977-8.72949,0-.08008-.00977-.15039-.01953-.2207-.04004-.19922-.10059-.61914,0-.76953,.01953,0,.05957-.02051,.18945-.05957,.09082-.69043,.13086-1.39062,.14063-2.11035-1.20996,.28027-1.62012,.59961-1.87988,.91016-.66992,.83984-.5,1.88965-.44043,2.2793,.2998,1.9502-1.22949,5.20996-3.18945,6.89062-1.64063,1.38965-3.56055,1.68945-4.31055,1.75-2.9502,.25-5.0498-1.29004-5.74023-1.7998-1-.73047-2.76953-2.33008-3.38965-4.75-.2002-.80078-.16992-1.2207-.11035-1.86035,.06055-.70996,.12988-1.58008-.08984-3.12988-.35937-2.57031-1.18945-4.48047-1.63965-5.40039-.78027-1.54004-1.74023-3.45996-3.91016-4.81934-.66992-.4209-2.44043-1.52051-4.63965-1.25-1.02051,.12988-1.62012,.48926-2.31055,.89941-.25977,.16016-.5498,.33984-.91016,.53027-.37012,.18945-.71973,.37012-1.04004,.50977-.5,.83008-.91992,1.70996-1.25977,2.62988Z" fill="#f2f2f2"/></g><g><polygon points="485.65205 317.56145 472.98525 314.47076 497.81809 232.10978 493.92685 215.05522 521.16135 221.85832 507.96226 236.47967 485.65205 317.56145" fill="#3f3d56"/><path d="M553.06212,187.05041c8.49819-25.98348,.06784-52.05805-18.82898-58.23847-18.89682-6.18042-41.10569,9.87325-49.60388,35.85672-8.49819,25.98348-.06784,52.05805,18.82898,58.23847s41.10569-9.87325,49.60388-35.85672Zm-3.80183-1.24343c-7.55408,23.09684-27.29506,37.36638-44.09234,31.87264-16.79728-5.49374-24.29096-28.67069-16.73687-51.76753,7.55408-23.09684,27.29506-37.36638,44.09234-31.87264,16.79728,5.49374,24.29096,28.67069,16.73687,51.76753Z" fill="#3f3d56"/></g><path d="M440.30629,44.73933l5.77027,15.2027,13.97367,25.06826c14.52642,26.05988,20.86025,55.89335,18.17499,85.60737v.00005s-37.0946-1.82432-37.0946-1.82432l-4.29334-12.15436c-10.82682-30.6505-14.806-63.12869-13.46541-95.60755,.64146-15.54086-6.14038-27.34269-21.02503-35.06242l37.95946,18.77027Z" fill="#2f2e41"/><path d="M444.34683,55.96906l-16-15s-21-7-30-13c-5.69442-3.79628-14.19114,.41397-19.66441,4.01882-3.51367,2.3142-8.00523,2.52501-11.69881,.51033h-.00001c-2.65027-1.44561-3.81221-4.63636-2.71213-7.44768v-.00002c4.08321-10.43485,15.1104-16.38986,26.07534-14.08145h.00002s7.89151-5.63679,7.89151-5.63679c8.1389-5.8135,18.72186-6.95748,27.91507-3.01753l5.17521,2.21795c5.22682,2.24007,9.66804,5.98611,12.7573,10.76042v.00002c4.01727,6.2085,5.47612,13.73072,4.07094,20.99084l-3.81002,19.68511Z" fill="#6c63ff"/><polygon points="354.92702 297.98455 345.71154 476.88649 369.24586 476.51829 401.12181 293.90437 354.92702 297.98455" fill="#ffb6b6"/><path d="M460.15722,212.39437s20,31,18,75c0,0-56,35-126,14,0,0,7-62,16-72l92-17Z" fill="#2f2e41"/><path d="M373.84683,463.46906s13,34-4,36c-17,2-66,11-66-2,0-13,25-18,25-18,0,0,12-19,17-17,5,2,9,13,18,10,9-3,10-9,10-9Z" fill="#2f2e41"/></svg>