<?xml version="1.0" encoding="UTF-8"?><svg id="uuid-112b2b36-2227-47b7-8741-802a01cf5ba5" xmlns="http://www.w3.org/2000/svg" width="731.67004" height="668.52719" viewBox="0 0 731.67004 668.52719"><g><path d="M421.36123,228.70544s-.29929,12.99655-24.05062,31.99324l-5.37739,9.64799,50.18552,28.96662c4.52095,.20886,9.59867,1.40427,14.65768,3.65024,13.12415,5.82653,21.12912,16.4836,17.87983,23.80256s-16.52286,8.52932-29.64701,2.70279c-2.87046-1.27435-5.4962-2.77984-7.81343-4.43151-17.20276-4.31215-93.73369-24.925-85.26465-48.3792,9.53346-26.4029,18.86202-57.27324,18.86202-57.27324l50.56806,9.3205Z" fill="#ffb6b6"/><path d="M379.71216,181.08102c3.01313-9.92297,10.25176-17.85247,19.85837-21.75606,9.60622-3.9027,20.31838-3.26168,29.40649,1.73786,8.80704,4.85767,15.0052,13.29579,17.0071,23.15226,2.00101,9.85607-.41589,20.04374-6.63076,27.95121l-20.93508,26.6386-52.82778-11.22444,14.12166-46.49941Z" fill="#6c63ff"/><path d="M488.72422,279.66977c-15.25-5.44629-31.23242-8.13086-47.88574-8.29102-1.73828-.30078-3.39844,.86914-3.7002,2.6084l-1.80762,10.44141c-.30078,1.73926,.86914,3.39941,2.60742,3.70117,6.49512,3.85547,13.11035,6.19531,19.80762,7.5127l-6.94238,40.09668c-7.7959-1.51562-14.95703-1.87793-21.05371-.31348-1.73926-.30078-3.39941,.86914-3.7002,2.6084l-1.80859,10.44238c-.30078,1.73828,.86914,3.39941,2.6084,3.7002,13.58301,4.89453,30.10645,7.15625,47.88477,8.29102,1.73926,.30078,3.39941-.86914,3.7002-2.6084l1.80859-10.44238c.30078-1.73828-.86914-3.39941-2.6084-3.7002-6.85742-2.48633-13.58887-4.74512-19.99707-6.41699l7.03613-40.63574c6.98828,.68457,14.05273,.43262,21.15039-.24316,1.73828,.30078,3.39941-.86914,3.7002-2.6084l1.80859-10.44238c.30078-1.73828-.87012-3.39941-2.6084-3.7002Z" fill="#2f2e41"/></g><path d="M275.52794,624.7352l-46.79688-47.86133,33.82227-48.31738,9.16895,.60156c4.86914,.31934,9.08008-3.3584,9.41992-8.22656l1.72461-24.71777c.35742-5.125-3.70312-9.47852-8.84082-9.47852h-85.95605c.69727-1.6748,.88379-3.54102,.47461-5.35352l-51.28027-226.96191c-.99023-4.38184-5.10352-7.33008-9.57129-6.85938l-20.25977,2.13184c-5.27344,.55566-8.88281,5.58594-7.71777,10.75977l54.94434,244.09961c1.23926,5.50293,6.91797,8.07324,11.62598,6.39844-.26074,.72559-.41016,1.46484-.47266,2.20215l-7.28516,.58301-124,138h38l96-107,92,107h30l1-18-16-9Zm-89.95215-101.22656l50.3252,3.30078-19.71387,37.23633-28.65918-29.31055-1.95215-11.22656Z" fill="#f2f2f2"/><path d="M0,652.03241c0,.66003,.53003,1.19,1.19006,1.19H730.48004c.65997,0,1.19-.52997,1.19-1.19,0-.65997-.53003-1.19-1.19-1.19H1.19006c-.66003,0-1.19006,.53003-1.19006,1.19Z" fill="#3f3d56"/><circle cx="435.75194" cy="63.02631" r="41" fill="#ffb6b6"/><polygon points="357.52794 585.7352 357.52794 626.7352 326.52794 627.7352 327.8196 585.7352 357.52794 585.7352" fill="#ffb6b6"/><path d="M348.44395,621.51254l-.11133,.16699-.19629,.04395c-.74805,.16504-18.38184,3.98926-23.51562-3.19727-.40625-.56836-.75879-.80371-1.06348-.71094-3.35547,1.07617-6.0293,26.69824-6.0293,36.41992,0,5.72949,12.78418,7.20508,28.96973,9.07422,7.56055,.87207,16.12988,1.86133,24.62109,3.43457,18.45996,3.41895,33.67383-5.04199,41.10059-10.39062,1.31348-.94531,2.11816-2.41504,2.20605-4.03223,.08887-1.62402-.55371-3.18066-1.76367-4.27051-9.79199-8.82324-42.17676-37.73633-47.77148-39.33496-.39844-.11328-.80859-.16699-1.22754-.16699-6.49316,0-15.12695,12.82617-15.21875,12.96387Z" fill="#2f2e41"/><polygon points="415.52794 585.7352 415.52794 626.7352 384.52794 627.7352 385.8196 585.7352 415.52794 585.7352" fill="#ffb6b6"/><polygon points="428.02794 292.2352 444.52794 304.7352 447.52794 445.7352 419.52794 599.7352 383.02794 601.2352 382.02794 454.2352 335.02794 320.2352 344.52794 288.7352 428.02794 292.2352" fill="#2f2e41"/><polygon points="351.02794 316.2352 335.02794 320.2352 323.52794 599.7352 365.02794 596.2352 392.52794 398.7352 351.02794 316.2352" fill="#2f2e41"/><path d="M428.93712,667.72641c-8.45801-1.56543-17.00977-2.55273-24.55469-3.42383-17.33203-2.00098-29.85449-3.44629-29.85449-10.06738,0-5.02051,1.9375-35.83789,6.72461-37.37207,.52637-.16797,1.32813-.11426,2.18262,1.08105,4.47949,6.27344,20.35449,3.24023,22.29199,2.84375,1.19727-1.75879,10.50391-15.02051,17.43848-13.0332,5.35059,1.52832,31.85449,24.87891,47.17578,38.66211,1.70215,1.53125,2.59277,3.71875,2.44336,6.00391-.14746,2.26465-1.30176,4.29785-3.16699,5.5791-6.17285,4.23926-17.73145,10.52734-31.95703,10.52734-2.81055,0-5.72559-.24512-8.72363-.80078Z" fill="#2f2e41"/><polygon points="390.89638 114.13383 399.85656 84.03873 438.84839 93.91987 437.26624 126.57713 390.89638 114.13383" fill="#ffb6b6"/><path d="M344.43614,289.22641l-.43555-.08105,6.86914-108.37891c1.41992-22.38672,9.5293-43.51562,23.45215-61.10254l17.07715-21.57227,54.37207,30.20605,.20508,.11426,12.04297,64.23145,.02246,.11816-13.03418,112.11621-.12891,.43164-100.44238-16.08301Z" fill="#6c63ff"/><path d="M400.2093,84.97445l3.51264,.81322s6.04528-23.65279,10.03317-18.74395c3.98789,4.90885,14.17308,6.41278,14.17308,6.41278l3.49788-7.73077s18.95942-.73501,22.10457-9.4015c0,0,40.26553,1.92013,28.99259-19.47895-11.27294-21.39908-14.89332-16.82822-14.89332-16.82822,0,0-11.01318-6.53529-13.48236-13.08533-2.46919-6.55005-26.76045-12.26339-41.07875,1.59251-52.46383,50.76954-12.85949,76.4502-12.85949,76.4502Z" fill="#3f3d56"/><g><g><rect x="473.86789" y="256.61874" width="44" height="7" transform="translate(328.77507 794.55931) rotate(-100.31842)" fill="#3f3d56"/><path d="M476.35044,288.57489c10.75635-7.40184,28.61561-8.63337,47.81171-8.70474,1.73611-.31608,3.40671,.8399,3.72279,2.57601l1.89824,10.42627c.31608,1.73611-.8399,3.40671-2.57601,3.72279-17.08245,5.0566-33.37407,8.62323-47.81171,8.70474-1.73611,.31608-3.40671-.8399-3.72279-2.57601l-1.89824-10.42627c-.31608-1.73611,.8399-3.40671,2.57601-3.72279Z" fill="#3f3d56"/><path d="M464.70774,224.6261c15.69002-5.58428,31.61947-8.56683,47.81171-8.70474,1.73611-.31608,3.40671,.8399,3.72279,2.57601l1.89824,10.42627c.31608,1.73611-.8399,3.40671-2.57601,3.72279-14.77568,7.07349-30.14949,11.9957-47.81171,8.70474-1.73611,.31608-3.40671-.8399-3.72279-2.57601l-1.89824-10.42627c-.31608-1.73611,.8399-3.40671,2.57601-3.72279Z" fill="#3f3d56"/></g><path d="M431.72715,191.26956s4.19426,12.3048-11.56322,38.3183l-1.72634,10.90962,57.0908,9.91424c4.31639-1.36067,9.49521-1.98682,15.01821-1.62023,14.32785,.95103,25.51293,8.19992,24.98257,16.19015-.53036,7.99023-12.57541,13.6972-26.90325,12.74618-3.13373-.208-6.11729-.71727-8.86155-1.47001-17.63557,1.87517-96.58408,8.87563-96.7092-16.06046-.14116-28.07098-2.01301-60.26564-2.01301-60.26564l50.68498-8.66214Z" fill="#ffb6b6"/><path d="M376.22611,160.89909c-.58803-10.35367,3.47748-20.2908,11.15243-27.26362,7.67489-6.97184,17.95268-10.05866,28.20654-8.49427,9.94114,1.52797,18.66583,7.31578,23.93929,15.88014,5.27249,8.56429,6.51142,18.96117,3.39949,28.52508l-10.48204,32.21831-53.46212,7.65275-2.7536-48.51839Z" fill="#6c63ff"/></g><g><rect x="138.36797" y="606.01943" width="44" height="7" transform="translate(-455.27487 744.48502) rotate(-87.62441)" fill="#3f3d56"/><path d="M135.0745,632.99119c12.11995-4.85727,29.8133-2.13424,48.55589,2.01437,1.76313,.07314,3.13888,1.56798,3.06573,3.33111l-.43927,10.58855c-.07314,1.76313-1.56798,3.13888-3.33111,3.06573-17.77607,1.17924-34.45323,1.0787-48.55589-2.01437-1.76313-.07314-3.13888-1.56798-3.06573-3.33111l.43927-10.58855c.07314-1.76313,1.56798-3.13888,3.33111-3.06573Z" fill="#3f3d56"/><path d="M137.76875,568.04705c16.53363-1.99999,32.72912-1.40924,48.55589,2.01437,1.76313,.07314,3.13888,1.56798,3.06573,3.33111l-.43927,10.58855c-.07314,1.76313-1.56798,3.13888-3.33111,3.06573-15.96888,3.65373-32.04854,5.07732-48.55589-2.01437-1.76313-.07314-3.13888-1.56798-3.06573-3.33111l.43927-10.58855c.07314-1.76313,1.56798-3.13888,3.33111-3.06573Z" fill="#3f3d56"/></g></svg>