<?xml version="1.0" encoding="UTF-8"?><svg id="uuid-09c44ae5-2534-449c-b9f7-e3528d221b54" xmlns="http://www.w3.org/2000/svg" width="731.67004" height="668.52724" viewBox="0 0 731.67004 668.52724"><g><path d="M421.36124,228.70546s-.29929,12.99655-24.05063,31.99323l-5.37738,9.64798,50.18552,28.96661c4.52094,.20886,9.59866,1.40427,14.65768,3.65024,13.12415,5.82654,21.12912,16.48361,17.87982,23.80255s-16.52286,8.52933-29.647,2.70279c-2.87045-1.27435-5.49619-2.77985-7.81342-4.43152-17.20276-4.31216-93.73367-24.92499-85.26465-48.37921,9.53345-26.40289,18.86203-57.27324,18.86203-57.27324l50.56805,9.3205-.00003,.00008Z" fill="#ffb6b6"/><path d="M379.71216,181.08104c3.01312-9.92297,10.25177-17.85248,19.85837-21.75606,9.60623-3.90269,20.31839-3.26167,29.40649,1.73785,8.80704,4.85767,15.00519,13.29579,17.00711,23.15227,2.00101,9.85606-.41589,20.04373-6.63077,27.9512l-20.93509,26.6386-52.82779-11.22444,14.12167-46.4994v-.00002Z" fill="#6c63ff"/><path d="M488.72421,279.66978c-15.25-5.44629-31.23242-8.13086-47.88574-8.29102-1.73828-.30078-3.39844,.86914-3.7002,2.6084l-1.80762,10.44141c-.30078,1.73926,.86914,3.39941,2.60742,3.70117,6.49512,3.85547,13.11035,6.19531,19.80762,7.5127l-6.94238,40.09668c-7.7959-1.51562-14.95703-1.87793-21.05371-.31348-1.73926-.30078-3.39941,.86914-3.7002,2.6084l-1.80859,10.44238c-.30078,1.73828,.86914,3.39941,2.6084,3.7002,13.58301,4.89453,30.10645,7.15625,47.88477,8.29102,1.73926,.30078,3.39941-.86914,3.7002-2.6084l1.80859-10.44238c.30078-1.73828-.86914-3.39941-2.6084-3.7002-6.85742-2.48633-13.58887-4.74512-19.99707-6.41699l7.03613-40.63574c6.98828,.68457,14.05273,.43262,21.15039-.24316,1.73828,.30078,3.39941-.86914,3.7002-2.6084l1.80859-10.44238c.30078-1.73828-.87012-3.39941-2.6084-3.7002Z" fill="#2f2e41"/></g><path d="M275.52795,624.73524l-46.79688-47.86133,33.82227-48.31738,9.16895,.60156c4.86914,.31934,9.08008-3.3584,9.41992-8.22656l1.72461-24.71777c.35742-5.125-3.70312-9.47852-8.84082-9.47852h-85.95605c.69727-1.6748,.88379-3.54102,.47461-5.35352l-51.28027-226.96191c-.99023-4.38184-5.10352-7.33008-9.57129-6.85938l-20.25977,2.13184c-5.27344,.55566-8.88281,5.58594-7.71777,10.75977l54.94434,244.09961c1.23926,5.50293,6.91797,8.07324,11.62598,6.39844-.26074,.72559-.41016,1.46484-.47266,2.20215l-7.28516,.58301-124,138h38l96-107,92,107h30l1-18-16-9Zm-89.95215-101.22656l50.3252,3.30078-19.71387,37.23633-28.65918-29.31055-1.95215-11.22656Z" fill="#f2f2f2"/><path d="M0,652.03242c0,.66003,.53003,1.19,1.19006,1.19H730.48004c.65997,0,1.19-.52997,1.19-1.19,0-.65997-.53003-1.19-1.19-1.19H1.19006c-.66003,0-1.19006,.53003-1.19006,1.19Z" fill="#3f3d56"/><circle cx="435.75195" cy="63.02632" r="41" fill="#ffb6b6"/><polygon points="357.52795 585.73524 357.52795 626.73524 326.52795 627.73524 327.81961 585.73524 357.52795 585.73524" fill="#ffb6b6"/><path d="M348.44394,621.51253l-.11133,.16699-.19629,.04395c-.74805,.16504-18.38184,3.98926-23.51562-3.19727-.40625-.56836-.75879-.80371-1.06348-.71094-3.35547,1.07617-6.0293,26.69824-6.0293,36.41992,0,5.72949,12.78418,7.20508,28.96973,9.07422,7.56055,.87207,16.12988,1.86133,24.62109,3.43457,18.45996,3.41895,33.67383-5.04199,41.10059-10.39062,1.31348-.94531,2.11816-2.41504,2.20605-4.03223,.08887-1.62402-.55371-3.18066-1.76367-4.27051-9.79199-8.82324-42.17676-37.73633-47.77148-39.33496-.39844-.11328-.80859-.16699-1.22754-.16699-6.49316,0-15.12695,12.82617-15.21875,12.96387Z" fill="#2f2e41"/><polygon points="415.52795 585.73524 415.52795 626.73524 384.52795 627.73524 385.81961 585.73524 415.52795 585.73524" fill="#ffb6b6"/><polygon points="428.02795 292.23521 444.52795 304.73521 447.52795 445.73521 419.52795 599.73524 383.02795 601.23524 382.02795 454.23521 335.02795 320.23521 344.52795 288.73521 428.02795 292.23521" fill="#2f2e41"/><polygon points="351.02795 316.23521 335.02795 320.23521 323.52795 599.73524 365.02795 596.23524 392.52795 398.73521 351.02795 316.23521" fill="#2f2e41"/><path d="M428.93713,667.72645c-8.45801-1.56543-17.00977-2.55273-24.55469-3.42383-17.33203-2.00098-29.85449-3.44629-29.85449-10.06738,0-5.02051,1.9375-35.83789,6.72461-37.37207,.52637-.16797,1.32812-.11426,2.18262,1.08105,4.47949,6.27344,20.35449,3.24023,22.29199,2.84375,1.19727-1.75879,10.50391-15.02051,17.43848-13.0332,5.35059,1.52832,31.85449,24.87891,47.17578,38.66211,1.70215,1.53125,2.59277,3.71875,2.44336,6.00391-.14746,2.26465-1.30176,4.29785-3.16699,5.5791-6.17285,4.23926-17.73145,10.52734-31.95703,10.52734-2.81055,0-5.72559-.24512-8.72363-.80078Z" fill="#2f2e41"/><polygon points="390.89639 114.13384 399.85657 84.03874 438.84839 93.91988 437.26624 126.57715 390.89639 114.13384" fill="#ffb6b6"/><path d="M344.43613,289.22642l-.43555-.08105,6.86914-108.37891c1.41992-22.38672,9.5293-43.51562,23.45215-61.10254l17.07715-21.57227,54.37207,30.20605,.20508,.11426,12.04297,64.23145,.02246,.11816-13.03418,112.11621-.12891,.43164-100.44238-16.08301Z" fill="#6c63ff"/><path d="M400.20929,84.97446l3.51263,.81322s6.04529-23.65279,10.03317-18.74395c3.98788,4.90885,14.17307,6.41278,14.17307,6.41278l3.49789-7.73077s18.95941-.73501,22.10458-9.4015c0,0,40.26553,1.92013,28.99258-19.47895-11.27295-21.39908-14.89331-16.82822-14.89331-16.82822,0,0-11.01318-6.53529-13.48236-13.08533-2.46918-6.55005-26.76044-12.26339-41.07877,1.59251-52.46384,50.76954-12.8595,76.4502-12.8595,76.4502v.00002Z" fill="#3f3d56"/><g><g><rect x="492.36791" y="238.11874" width="7" height="44.00003" transform="translate(-38.57267 93.0259) rotate(-10.31842)" fill="#3f3d56"/><path d="M476.35043,288.5749c10.75635-7.40186,28.6156-8.63336,47.81174-8.70474,1.73608-.31607,3.40674,.8399,3.72278,2.57602l1.89825,10.42627c.3161,1.73611-.8399,3.40671-2.57599,3.72278-17.08246,5.05661-33.37408,8.62323-47.81171,8.70474-1.73611,.31607-3.40671-.8399-3.72278-2.57602l-1.89825-10.42627c-.31607-1.73611,.8399-3.40671,2.57602-3.72278h-.00006Z" fill="#3f3d56"/><path d="M464.70773,224.62611c15.69003-5.58427,31.61948-8.56683,47.81174-8.70474,1.73608-.31609,3.40674,.8399,3.72278,2.576l1.89825,10.42627c.3161,1.73611-.8399,3.40671-2.57599,3.72279-14.77567,7.07349-30.14948,11.9957-47.81171,8.70474-1.73611,.31609-3.40671-.8399-3.72278-2.576l-1.89825-10.42627c-.31607-1.73611,.8399-3.40671,2.57602-3.72279h-.00006Z" fill="#3f3d56"/></g><path d="M431.72714,191.26958s4.19427,12.30479-11.56323,38.3183l-1.72635,10.90962,57.09079,9.91425c4.31638-1.36067,9.49521-1.98682,15.01822-1.62022,14.32785,.95103,25.51294,8.19992,24.98254,16.19016-.53033,7.99023-12.57541,13.6972-26.90326,12.74619-3.13373-.20801-6.11728-.71729-8.86154-1.47-17.63556,1.87518-96.58408,8.87564-96.7092-16.06046-.14117-28.07098-2.013-60.26564-2.013-60.26564l50.68497-8.66214,.00006-.00005Z" fill="#ffb6b6"/><path d="M376.2261,160.89911c-.58804-10.35367,3.47748-20.2908,11.15244-27.26363,7.6749-6.97184,17.95267-10.05866,28.20654-8.49427,9.94113,1.52797,18.66583,7.31577,23.9393,15.88013,5.27249,8.56429,6.51141,18.96117,3.39948,28.52509l-10.48203,32.21831-53.46213,7.65276-2.7536-48.51839Z" fill="#6c63ff"/></g><g><rect x="138.36794" y="606.01947" width="44" height="7" transform="translate(-455.27494 744.48503) rotate(-87.62441)" fill="#3f3d56"/><path d="M135.07449,632.99122c12.11995-4.8573,29.81329-2.13422,48.55589,2.01434,1.76312,.07312,3.13889,1.56799,3.06573,3.33112l-.43927,10.58856c-.07314,1.76312-1.56798,3.13885-3.33112,3.06573-17.77608,1.17926-34.45323,1.07867-48.55589-2.01434-1.76312-.07312-3.13889-1.56799-3.06573-3.33112l.43927-10.58856c.07314-1.76312,1.56798-3.13885,3.33112-3.06573Z" fill="#3f3d56"/><path d="M137.76875,568.04707c16.53363-2,32.72911-1.40924,48.55589,2.01434,1.76312,.07312,3.13889,1.56799,3.06573,3.33112l-.43927,10.58856c-.07314,1.76312-1.56798,3.13885-3.33112,3.06573-15.96887,3.65375-32.04854,5.07733-48.55589-2.01434-1.76312-.07312-3.13889-1.56799-3.06573-3.33112l.43927-10.58856c.07314-1.76312,1.56798-3.13885,3.33112-3.06573Z" fill="#3f3d56"/></g></svg>