<?xml version="1.0" encoding="UTF-8"?><svg id="uuid-b046705d-da66-466c-acdf-21dea98c50cc" xmlns="http://www.w3.org/2000/svg" width="731.67004" height="633.31836" viewBox="0 0 731.67004 633.31836"><path d="M0,631.95199c0,.66003,.53003,1.19,1.19006,1.19H730.48004c.65997,0,1.19-.52997,1.19-1.19,0-.65997-.53003-1.19-1.19-1.19H1.19006c-.66003,0-1.19006,.53003-1.19006,1.19Z" fill="#3f3d56"/><polygon points="443.52794 140.65478 447.52794 163.65478 404.52794 170.65478 414.52794 138.65478 443.52794 140.65478" fill="#a0616a"/><path d="M526.68191,119.89927c9.37422-1.49988,18.88321,9.22567,21.23668,23.95548,1.02275,5.87519,.6223,11.90933-1.16618,17.59843l5.47106,24.27626c10.43721,26.37272,15.56391,57.98132-.69554,65.92534-23.01268,11.24352-46.63626-10.20147-46.63626-10.20147l21.26951-29.931-3.3626-32.98442-2.22849-12.89653c-3.4719-4.84612-5.73306-10.45285-6.59339-16.35172-2.35731-14.7354,3.3312-27.89093,12.70521-29.39037Z" fill="#a0616a"/><path d="M262.10508,602.83349l-23.71289-17.52637,.18848-.37695,132.11426-263.22559,.24902-.04297,106.38184-18.06445,22.1582,49.35254,57.94434,81.46777c3.99121,5.6123,6.07715,12.21875,6.0332,19.10547l-.93652,145.11816-35.94531,1.02637-.04883-.45996-12.53906-117.3291c-.91406-8.55176-5.34961-16.46289-12.1709-21.70312l-70.72168-54.33496-168.99414,196.99316Z" fill="#2f2e41"/><path d="M242.02794,587.15478s-12,2-16,9c-4,7-16,22-16,22,0,0-9,17,12,15s29-11,29-11l9-25-18-10Z" fill="#2f2e41"/><path d="M545.02794,587.15478s12,2,16,9c4,7,16,22,16,22,0,0,9,17-12,15-21-2-29-11-29-11l-9-25,18-10Z" fill="#2f2e41"/><polygon points="384.52794 169.65478 455.52794 155.65478 495.52794 168.65478 484.52794 317.65478 371.02794 322.15478 384.52794 169.65478" fill="#6c63ff"/><polygon points="477.67039 163.3252 503.41186 174.38759 537.98059 220.59369 501.47269 248.68591 461.61092 185.59835 477.67039 163.3252" fill="#6c63ff"/><polygon points="543.94726 186.91285 524.35357 190.92376 528.57837 240.48334 552.52794 237.65478 543.94726 186.91285" fill="#a0616a"/><path d="M543.8668,184.1245c-1.29102,0-2.58496-.21875-3.82031-.66016-2.97656-1.06445-5.39355-3.3418-6.63086-6.25l-14.09668-33.11914c-5.31055-12.47656-11.41016-24.77051-18.12988-36.54004l-2.94434-5.15723c-2.02539-3.11523-49.99512-76.93945-52.27637-82.70508-1.7207-4.34766,3.41992-13.2627,3.63965-13.64062l.05957-.08203c.11426-.12695,11.62109-12.66504,25.46875-1.02148,13.59668,11.43066,36.48145,87.18555,37.44824,90.40527l.61914,1.55957c5.64453,14.25977,12.78125,27.98926,21.21289,40.80469l18.94922,28.79883c1.76172,2.67871,2.31152,5.99512,1.50684,9.09863-.80469,3.10254-2.89453,5.7334-5.73535,7.21875-1.6377,.85645-3.45117,1.29004-5.27051,1.29004Z" fill="#3f3d56"/><path d="M422.02794,196.15478l22,4,48.15234-39.60937,19.0918-17.70264c2.16992-5.55273,5.6377-10.50488,10.11426-14.44238,11.06836-10.0083,25.19824-12.41162,31.56543-5.37012,6.36719,7.04102,2.55957,20.85938-8.50586,30.86279-4.36816,4.06006-9.64551,7.01465-15.38965,8.61621l-4.77441,4.89893-55.19147,60.18549c-9.95816,10.85922-25.61644,14.38571-39.26837,8.84383l-27.79407-11.28274,20-29Z" fill="#a0616a"/><path d="M404.08946,238.85693l-31.45508-26.21289c-9.99707-8.33105-12.47168-22.52246-5.88477-33.74414,4.00098-6.81543,10.76758-11.45508,18.56738-12.72852,7.79004-1.27637,15.69043,.96875,21.65234,6.15918l30.75879,26.77051-33.63867,39.75586Z" fill="#6c63ff"/><g><circle cx="421.54832" cy="113.80876" r="35.30005" fill="#a0616a"/><path d="M444.76986,144.27902l-3.04796-5.07848s13.34903-8.99854,2.31997-14.22112c-11.02906-5.22258-12.772-17.99208-12.772-17.99208,0,0-32.21571-9.28299-30.47527-16.24851s-3.19394-11.89866,4.93188-14.8019c8.12582-2.90324,44.40381-.00563,48.46797,8.41027,4.06416,8.41589,8.1302,31.63306,6.09905,34.82575s-15.52364,25.10608-15.52364,25.10608Z" fill="#2f2e41"/><path d="M435.62284,104.37479l-32.79773-21.76242s-42.37392-13.05458-26.4086,11.90241l13.49563,2.75539s36.71404,8.55687,45.71071,7.10462Z" fill="#6c63ff"/><path d="M425.7547,99.44228l34.24935,25.82533s20.02073-35.69972-11.32539-53.39923c-31.34611-17.69951-51.22274,10.01912-51.22274,10.01912l8.27242,8.85069,20.02635,8.70409Z" fill="#6c63ff"/></g><path d="M179.65782,41.15478c0,10.77979,8.74023,19.52979,19.53027,19.52979,5.28027,0,10.07031-2.09961,13.58008-5.50977,3.66992-3.55029,5.93945-8.52002,5.93945-14.02002,0-10.78027-8.73926-19.53027-19.51953-19.53027-3.37988,0-6.5498,.86035-9.32031,2.36035-.46973,.25977-.92969,.54004-1.37988,.83984-4.21973,2.76025-7.29004,7.10986-8.37988,12.2002-.13965,.58008-.24023,1.16992-.2998,1.77002-.10059,.77002-.15039,1.56006-.15039,2.35986Z" fill="#6c63ff"/><path d="M179.80821,38.79492c.30957,.33984,.62988,.70996,.97949,1.12988,1.18066,1.41992,1.65039,2.18994,2.31055,3.25977,.56934,.93018,1.29004,2.09033,2.69922,4.05029,2.91016,4.04004,4.37012,6.06982,6.64062,7.91016,2.24023,1.80957,5.03027,4.06982,9.21973,4.35986,.29004,.02002,.58008,.02002,.86035,.02002,5.06934,0,8.76953-3.05029,10.17969-4.41992,3.69043-3.6001,4.45996-7.97021,4.62012-9.68018,.12988-1.37988,.30957-6.22021-2.86035-10.56982-2.7998-3.84033-6.66992-5.20996-10.41992-6.55029-2.4502-.87012-4.30957-1.18018-5.95996-1.45996-2.25977-.37988-4.2002-.70996-7.16992-2.27002-.41016-.21973-.75-.41016-1.04004-.58984-.46973,.25977-.92969,.54004-1.37988,.83984,.07031,.04004,.15039,.08984,.23047,.14014,.38965,.22998,.86914,.50977,1.5293,.85986,3.16992,1.66992,5.32031,2.04004,7.58984,2.41992,1.6709,.28027,3.40039,.57031,5.73047,1.40039,3.7002,1.31982,7.2002,2.55957,9.74023,6.0498,2.87988,3.9502,2.70996,8.33984,2.59961,9.58984-.14941,1.56006-.84961,5.53027-4.2002,8.80029-1.34961,1.31006-5.00977,4.33984-9.94922,4-3.75-.26025-6.34082-2.36035-8.43066-4.04004-2.12012-1.72021-3.54004-3.7002-6.37012-7.63037-1.38965-1.92969-2.08984-3.06982-2.64941-3.97998-.66016-1.06982-1.18066-1.91992-2.41992-3.40967-.66992-.81006-1.26074-1.45996-1.78027-2-.13965,.58008-.24023,1.16992-.2998,1.77002Z" fill="#e6e6e6"/></svg>