<svg id="b208fd5c-8ee3-4a1b-afb1-851c7bb4aa81" data-name="Layer 1" xmlns="http://www.w3.org/2000/svg" width="858.70499" height="727.77933" viewBox="0 0 858.70499 727.77933"><title>hot_beverage</title><path d="M870.70625,705.76867,951.87441,585.0635,870.87226,718.75423l.16939,13.58236q-8.8884.06779-17.60411-.296c-.07589-3.08338,4.2648-172.87436,3.91546-175.93924.408-.12289.38246-16.05788.53386-16.75816l-88.8887-129.056L857.782,526.99542l.31507,3.48714,3.04073-131.91133L784.3619,264.76969l76.99454,110.62852c-.00084-1.79422-.80991-272.52516-.80194-274.19586.03554.88682,5.09626,215.37712,5.12268,216.28091l69.972-87.49006-69.743,106.04511,1.52718,117.99162L931.8221,338.87459C851.85066,506.5874,869.20556,448.06881,868.5202,536.986l93.63851-160.41-93.35384,183.2983Z" transform="translate(-170.64751 -86.11034)" fill="#d0cde1"/><ellipse cx="458.70499" cy="657" rx="400" ry="21" fill="#d0cde1"/><path d="M660.35249,121.11034v293a16,16,0,0,1-32,0v-293c0-8.84,7.16-2,16-2,4.42,0,4.1-4.89,7-2C654.24251,120.0103,660.35249,116.69029,660.35249,121.11034Z" transform="translate(-170.64751 -86.11034)" fill="#a0616a"/><rect x="457.70499" y="42.5" width="32" height="12" opacity="0.1"/><rect x="457.70499" y="80.5" width="32" height="12" opacity="0.1"/><rect x="457.70499" y="118.5" width="32" height="12" opacity="0.1"/><rect x="457.70499" y="156.5" width="32" height="12" opacity="0.1"/><rect x="457.70499" y="194.5" width="32" height="12" opacity="0.1"/><rect x="457.70499" y="232.5" width="32" height="12" opacity="0.1"/><rect x="457.70499" y="270.5" width="32" height="12" opacity="0.1"/><rect x="457.70499" y="308.5" width="32" height="12" opacity="0.1"/><ellipse cx="473.70499" cy="33" rx="16" ry="5" fill="#a0616a"/><ellipse cx="473.70499" cy="33" rx="16" ry="5" opacity="0.1"/><path d="M810.29043,183.30957,624.88833,410.19074a16,16,0,1,1-24.77883-20.24869L785.5116,163.06088c5.59371-6.84517,6.80978,2.982,13.65495,8.57567,3.42257,2.79684,6.269-1.19218,6.68592,2.88073C806.2553,178.59155,813.08731,179.887,810.29043,183.30957Z" transform="translate(-170.64751 -86.11034)" fill="#a0616a"/><rect x="783.35859" y="167.6388" width="12" height="32" transform="translate(-22.97123 592.55775) rotate(-50.74509)" opacity="0.1"/><rect x="759.31327" y="197.06366" width="12" height="32" transform="translate(-54.58616 584.74418) rotate(-50.74509)" opacity="0.1"/><rect x="735.26795" y="226.48852" width="12" height="32" transform="translate(-86.20108 576.9306) rotate(-50.74509)" opacity="0.1"/><rect x="711.22263" y="255.91338" width="12" height="32" transform="translate(-117.81601 569.11703) rotate(-50.74509)" opacity="0.1"/><rect x="687.1773" y="285.33824" width="12" height="32" transform="translate(-149.43094 561.30346) rotate(-50.74509)" opacity="0.1"/><rect x="663.13198" y="314.7631" width="12" height="32" transform="translate(-181.04586 553.48988) rotate(-50.74509)" opacity="0.1"/><rect x="639.08666" y="344.18797" width="12" height="32" transform="translate(-212.66079 545.67631) rotate(-50.74509)" opacity="0.1"/><rect x="615.04134" y="373.61283" width="12" height="32" transform="translate(-244.27571 537.86273) rotate(-50.74509)" opacity="0.1"/><ellipse cx="799.16655" cy="171.63655" rx="5" ry="16" transform="translate(-10.07567 595.74487) rotate(-50.74509)" fill="#a0616a"/><ellipse cx="799.16655" cy="171.63655" rx="5" ry="16" transform="translate(-10.07567 595.74487) rotate(-50.74509)" opacity="0.1"/><path d="M808.76949,455.11034H765.94893l.31354-8.01,1.84-47.32.92-23.51h-298.17l.47,12.03,1.22,31.37,2.32,59.53,1.55,39.63,2,51.26,1.7,43.78.49,12.59.01.15.24,6.26995.62,15.71.06,1.75.42,10.66.07,1.92.61,15.49.54,13.96.19,4.81994.09,2.19.08,2.12006a55.0659,55.0659,0,0,0,4.12,20.98,52.82867,52.82867,0,0,0,2.43,5.16,55.46915,55.46915,0,0,0,30.77,26.23005,52.2871,52.2871,0,0,0,5.31,1.55,55.00605,55.00605,0,0,0,12.79,1.49h161.96a55.27691,55.27691,0,0,0,23.57-5.24,55.8886,55.8886,0,0,0,20.8-16.97,54.7518,54.7518,0,0,0,5.92-9.88995c.13-.28.26-.56.37-.84a54.66454,54.66454,0,0,0,4.68006-19.57c.05-.96.07995-1.93.07995-2.9l.52-13.35.64-16.39.06-1.63.66339-17.01995h50.55359a67.65926,67.65926,0,0,0,67.583-67.583v-62.834A67.65925,67.65925,0,0,0,808.76949,455.11034Zm27.583,130.417a27.61468,27.61468,0,0,1-27.583,27.583H759.78523l.00727-.18.46-11.82.35-9.02,1.98-50.74,1.80188-46.24h44.38514a27.61467,27.61467,0,0,1,27.583,27.583Z" transform="translate(-170.64751 -86.11034)" fill="#3f3d56"/><circle cx="371.93783" cy="74.4213" r="32.3569" fill="#d0cde1"/><circle cx="392.25629" cy="139.03572" r="44.4368" fill="#d0cde1"/><path d="M575.98438,175.35523l-51.06872,16.05892a1.4913,1.4913,0,0,0-.97526,1.87l.91713,2.91654a1.49128,1.49128,0,0,0,1.87.97529l8.67964-2.72937,1.16752.575,4.53246,41.87254,7.18243,5.05833-4.89263-43.57091,32.92264,16.21431,7.01977-3.56417-39.12046-19.356L577.79622,181.117a1.49131,1.49131,0,0,0,.97525-1.87l-.91713-2.91654A1.49129,1.49129,0,0,0,575.98438,175.35523Z" transform="translate(-170.64751 -86.11034)" fill="#6c63ff"/><path d="M521.05523,150.56857s11.14485-10.77041,10.40228-13.13185-8.16544-7.81209-17.61119-4.84181c0,0-3.69806-3.508-5.49219.68908s3.199,5.2219,3.199,5.2219-2.5219,10.13483,6.66835,12.95376Z" transform="translate(-170.64751 -86.11034)" fill="#6c63ff"/><circle cx="358.47299" cy="71.87162" r="2.58855" fill="#3f3d56"/><circle cx="381.52017" cy="64.62427" r="2.58855" fill="#3f3d56"/><rect x="542.15375" y="159.37076" width="4.74568" height="14.66846" transform="translate(-195.57778 84.91146) rotate(-17.45612)" fill="#ff6584"/><circle cx="388.29098" cy="123.54928" r="2.58855" fill="#3f3d56"/><circle cx="391.13815" cy="132.60353" r="2.58855" fill="#3f3d56"/><circle cx="393.98532" cy="141.65778" r="2.58855" fill="#3f3d56"/><path d="M548.34338,178.8427a25.76727,25.76727,0,0,1-12.70335.55241l.16145-.84751a23.80223,23.80223,0,0,0,22.65753-7.12482l.61785.60245A25.76927,25.76927,0,0,1,548.34338,178.8427Z" transform="translate(-170.64751 -86.11034)" fill="#3f3d56"/><circle cx="390.43458" cy="69.96162" r="2.15713" fill="#ff6584"/><circle cx="354.21758" cy="81.35031" r="2.15713" fill="#ff6584"/><circle cx="490.64806" cy="408.56206" r="5.07893" fill="#d0cde1"/><circle cx="506.64806" cy="492.56206" r="5.07893" fill="#d0cde1"/><circle cx="406.64806" cy="513.56206" r="5.07893" fill="#d0cde1"/><circle cx="457.64806" cy="609.56206" r="5.07893" fill="#d0cde1"/><circle cx="343.64806" cy="532.56206" r="5.07893" fill="#d0cde1"/><circle cx="339.64806" cy="434.56206" r="5.07893" fill="#d0cde1"/><circle cx="550.64806" cy="395.56206" r="5.07893" fill="#d0cde1"/><circle cx="391.64806" cy="604.56206" r="5.07893" fill="#d0cde1"/><circle cx="366.64806" cy="372.56206" r="6.88538" fill="#d0cde1"/><circle cx="434.64806" cy="444.56206" r="6.88538" fill="#d0cde1"/><circle cx="522.64806" cy="589.56206" r="6.88538" fill="#d0cde1"/><ellipse cx="449.28601" cy="290.15912" rx="149.41898" ry="18.12164" fill="#a0616a"/><path d="M623.63857,188.7022s4.59982,35.91436-39.82133,47.96991-55.86085,38.10947-55.86085,38.10947-47.508,13.035-18.43888,42.54464c0,0-67.4545,46.54462-1.56858,65.732s243.87846,6.20267,236.41738-30.1629c0,0,9.25793-16.86763-12.2015-20.25175,0,0,29.88391-40.73978-45.56521-64.36764,0,0,12.27049-12.727-20.557-9.10664C666.0426,259.16926,686.50661,175.89018,623.63857,188.7022Z" transform="translate(-170.64751 -86.11034)" fill="#d0cde1"/><path d="M527.18791,276.83085l-.11881-2.89379c52.78973-2.16469,81.77784-18.63142,96.80051-32.06435,16.22983-14.51208,20.09528-28.70169,20.13206-28.84384l2.80327.72911c-.157.60676-4.04508,15.034-20.83288,30.1203C610.59863,257.69379,580.98113,274.62514,527.18791,276.83085Z" transform="translate(-170.64751 -86.11034)" fill="#a0616a"/><path d="M509.01121,319.341l-.64354-2.82449c.22842-.05162,23.57533-5.35478,87.97346-18.39593,44.08149-8.92676,54.64255-18.10032,57.01514-22.77409a3.80874,3.80874,0,0,0,.5311-2.6187l2.63071-1.21211c.099.215.92288,2.18308-.57918,5.14193-3.18727,6.27907-16.01414,15.59195-59.02283,24.3016C532.5632,313.99185,509.23963,319.28865,509.01121,319.341Z" transform="translate(-170.64751 -86.11034)" fill="#a0616a"/><path d="M538.19378,331.269c-.27367,0-.47381-.00071-.59686-.00142l.01556-2.89661c1.00349.01273,105.991.14426,138.30149-34.58757,6.866-7.38086,9.97551-15.925,9.24145-25.39562l2.88814-.22347c.79911,10.31142-2.5692,19.59531-10.01017,27.59354C645.793,330.41191,547.68417,331.269,538.19378,331.269Z" transform="translate(-170.64751 -86.11034)" fill="#a0616a"/><path d="M661.16,366.85937c-.09335,0-.1478-.0007-.16265-.0007l.04172-2.89662c.49149-.00495,50.60171.32884,69.88091-32.0594l2.48928,1.48226C713.83237,366.27383,664.39256,366.85937,661.16,366.85937Z" transform="translate(-170.64751 -86.11034)" fill="#a0616a"/><path d="M630.63857,186.7022s4.59982,35.91436-39.82133,47.96991-55.86085,38.10947-55.86085,38.10947-47.508,13.035-18.43888,42.54464c0,0-67.4545,46.54462-1.56858,65.732s243.87846,6.20267,236.41738-30.1629c0,0,9.25793-16.86763-12.2015-20.25175,0,0,29.88391-40.73978-45.56521-64.36764,0,0,12.27049-12.727-20.557-9.10664C673.0426,257.16926,693.50661,173.89018,630.63857,186.7022Z" transform="translate(-170.64751 -86.11034)" fill="#d0cde1"/><path d="M534.18791,274.83085l-.11881-2.89379c52.78973-2.16469,81.77784-18.63142,96.80051-32.06435,16.22983-14.51208,20.09528-28.70169,20.13206-28.84384l2.80327.72911c-.157.60676-4.04508,15.034-20.83288,30.1203C617.59863,255.69379,587.98113,272.62514,534.18791,274.83085Z" transform="translate(-170.64751 -86.11034)" fill="#a0616a"/><path d="M516.01121,317.341l-.64354-2.82449c.22842-.05162,23.57533-5.35478,87.97346-18.39593,44.08149-8.92676,54.64255-18.10032,57.01514-22.77409a3.80874,3.80874,0,0,0,.5311-2.6187l2.63071-1.21211c.099.215.92288,2.18308-.57918,5.14193-3.18727,6.27907-16.01414,15.59195-59.02283,24.3016C539.5632,311.99185,516.23963,317.28865,516.01121,317.341Z" transform="translate(-170.64751 -86.11034)" fill="#a0616a"/><path d="M545.19378,329.269c-.27367,0-.47381-.00071-.59686-.00142l.01556-2.89661c1.00349.01273,105.991.14426,138.30149-34.58757,6.866-7.38086,9.97551-15.925,9.24145-25.39562l2.88814-.22347c.79911,10.31142-2.5692,19.59531-10.01017,27.59354C652.793,328.41191,554.68417,329.269,545.19378,329.269Z" transform="translate(-170.64751 -86.11034)" fill="#a0616a"/><path d="M668.16,364.85937c-.09335,0-.1478-.0007-.16265-.0007l.04172-2.89662c.49149-.00495,50.60171.32884,69.88091-32.0594l2.48928,1.48226C720.83237,364.27383,671.39256,364.85937,668.16,364.85937Z" transform="translate(-170.64751 -86.11034)" fill="#a0616a"/><circle cx="169.70499" cy="115" r="25" fill="#2f2e41"/><path d="M365.31765,190.94551l-15.648-3.83517a40.29746,40.29746,0,0,1-39.48919-48.328v0a52.672,52.672,0,0,1,52.672-52.672h.00011a52.672,52.672,0,0,1,52.672,52.672l0,.00006C424.36074,169.67792,396.5282,198.59489,365.31765,190.94551Z" transform="translate(-170.64751 -86.11034)" fill="#2f2e41"/><polygon points="94.02 265.057 132.705 210 153.705 249 129.705 277 94.02 265.057" fill="#575a89"/><path d="M284.85249,345.61034s-12-5-19,4-19,28-15,31,17-9,17-9Z" transform="translate(-170.64751 -86.11034)" fill="#575a89"/><ellipse cx="262.35249" cy="381.11034" rx="17" ry="9" transform="translate(-369.83925 262.58336) rotate(-51.43929)" fill="#ffb8b8"/><path d="M245.85249,484.61034s2,64,9,101-4,170-4,170l22,10,14-15s-5-27,2-46,10-101,10-101l12-110Z" transform="translate(-170.64751 -86.11034)" fill="#ffb8b8"/><path d="M327.85249,503.61034l63,115,57,105v22l29-9-10-23s-5-90-41-125l-31-89Z" transform="translate(-170.64751 -86.11034)" fill="#ffb8b8"/><path d="M290.35249,349.11034h-11s-60,82-57,132l86,35,3-7s71,13,89-2l-25-128-2-18Z" transform="translate(-170.64751 -86.11034)" fill="#2f2e41"/><path d="M262.85249,754.61034s14-18-3-19-17,10-17,10l-38,26s-63,23-18,30c0,0,19,4,43-5a142.40252,142.40252,0,0,1,45-9s22-1,22-12-10.73236-30-10.73236-30S268.85249,757.61034,262.85249,754.61034Z" transform="translate(-170.64751 -86.11034)" fill="#2f2e41"/><path d="M478.85249,729.61034s-34-7-35,6,0,35,0,35,8,10,6,17,5,29,29,26,16-37,16-37l-16-39Z" transform="translate(-170.64751 -86.11034)" fill="#2f2e41"/><circle cx="199.20499" cy="57.5" r="33.5" fill="#ffb8b8"/><path d="M347.35249,162.11034l-.5,57.5,41-14s-5-33-4-36Z" transform="translate(-170.64751 -86.11034)" fill="#ffb8b8"/><path d="M339.85249,202.61034s43-15,48-13,7,13,7,13,24-5,27,11-19,86-19,86l-22,41s11,17-8,23-88-13-88-13-12-14,0-14c0,0,4-13,8-16s-3-8,1-9,4-3,4-3-20-27-2-49,20.5-42.5,29.5-45.5S339.85249,202.61034,339.85249,202.61034Z" transform="translate(-170.64751 -86.11034)" fill="#575a89"/><ellipse cx="361.35249" cy="432.11034" rx="17" ry="9" transform="translate(-306.63339 81.52032) rotate(-22.09232)" fill="#ffb8b8"/><path d="M406.85249,210.61034h14.09814s40.90186,99,28.90186,130-56,85-56,85-14,25-24,25-21-36-21-36l32-14,38-70-18-54Z" transform="translate(-170.64751 -86.11034)" fill="#575a89"/><polygon points="126.705 222 104.705 261 108.705 263 126.705 222" opacity="0.2"/><rect x="267.52154" y="451.61009" width="116.6619" height="2.00049" transform="translate(-364.27912 569.40939) rotate(-75.58387)" opacity="0.2"/><path d="M410.35249,130.11034l-6-11-9,6.03448h0a9.77362,9.77362,0,0,1-8.11,4.03478l-31.42339-.63428a10.35861,10.35861,0,0,1-7.46656-3.4005h0A16.37578,16.37578,0,0,0,338.19884,136.366l-3.84635,14.74434v-50h60Z" transform="translate(-170.64751 -86.11034)" fill="#2f2e41"/></svg>