<?xml version="1.0" encoding="UTF-8"?><svg id="uuid-b13edee3-da86-46f7-ade6-74be6f507bb8" xmlns="http://www.w3.org/2000/svg" width="692.67999" height="534.43919" viewBox="0 0 692.67999 534.43919"><path id="uuid-46f04d04-3f74-422d-95b7-446e3ae0b653" d="m215.22,295.98939c2.92999-3.92999,4.87-8.5,5.67-13.32999l32.59999-39.48-19.24001-14.96001-31,41.66c-4.34,2.26001-8.08,5.53-10.89999,9.54001-7.19,9.92001-7.91,21.67999-1.59,26.25,6.31,4.57999,17.25999.23999,24.45-9.67999h.00999l.00002-.00003Z" fill="#ffb6b6"/><polygon points="347.26001 139.2994 306.48001 112.0494 223.72 237.9694 245.27 261.0994 347.26001 139.2994" fill="#6c63ff"/><path d="m0,292.5594c0,.87.7,1.57001,1.57,1.57001h689.53999c.87,0,1.57001-.70001,1.57001-1.57001s-.70001-1.57001-1.57001-1.57001H1.57c-.87,0-1.57.70001-1.57,1.57001Z" fill="#3f3d56"/><polygon points="277.66 104.0494 273.10999 72.69939 313.29001 62.4794 318.63 90.2194 277.66 104.0494" fill="#ffb6b6"/><polygon points="156.47 439.9094 161.24001 484.4094 194.08 474.33939 188.78 438.8494 156.47 439.9094" fill="#ffb6b6"/><path d="m272.48001,246.5494s-107.54001,20.65999-120.25,51.92,2.12,148.32999,2.12,148.32999l36.55,3.70999,15.36-134.56s93.23999-1.59,100.12-12.70999,5.82999-51.39,5.82999-51.39l-39.73001-5.3h0l.00003.00002Z" fill="#2f2e41"/><path d="m156.89999,462.51939h0l-21.3,21.16s-36.35,29.85999-13.04,28.26999c23.31001-1.59,83.69999-15.89001,83.16999-27.01999s-10.07001-33.37-10.07001-33.37l-38.77,10.95001h.00999l.00003.00998Z" fill="#2f2e41"/><polygon points="280.97 452.72941 304.98999 490.48939 329.95999 466.89939 309.45999 437.4394 280.97 452.72941" fill="#ffb6b6"/><path d="m299.13,227.9694s-87.2,66.23999-84.73001,99.88998c2.48,33.64999,67.72,131.97998,67.72,131.97998l34.39999-12.89999-45.94-127.39999s82.85001-42.79999,84.07999-55.82001-17.57999-48.63-17.57999-48.63l-37.95999,12.88h.01001v.00003Z" fill="#2f2e41"/><path d="m292.10001,470.28941h0l-12.13,32.26999s-17.59,41.54999,2.59,29.78003,67.95001-51.38,62.54001-61.12-23.82999-25.44-23.82999-25.44l-29.17001,24.51001h0v-.00003Z" fill="#2f2e41"/><circle cx="291.73999" cy="49.8194" r="32.70001" fill="#ffb6b6"/><path d="m315.92001,74.9194l-40.79001,30.2-6.35999,131.38-15.36,14.83,52.96999,51.92s58.26999-18.01001,52.44-45.56l-5.82999-27.55,2.10001-30.74001c3.07999-44.95-10.92001-89.4-39.19-124.47h.01999v-.00999Z" fill="#6c63ff"/><path d="m315.26001,75.5994l-19.89999-.66s5.16-31.18-7.14001-31.01l-12.31.18,1.19-5.47s-27.81-18.74-15.06-26.6c12.76001-7.85,21.66-14.91,28.95001-10.86,7.29999,4.05,22.07999,5.63,22.07999,5.63,0,0,26.22,11.04,25.44,20.27s-6.73999,49.66-23.26001,48.51h.01001v.01001Z" fill="#2f2e41"/><path id="uuid-0af48ab2-d8af-4e46-b0bf-7a9653f887cf" d="m228.46001,298.0994c2.73-4.07001,4.45-8.73001,5.00999-13.59l30.62-41.03-19.95-14-28.91,43.13c-4.23,2.47-7.8,5.92999-10.42,10.06-6.7,10.26999-6.83,22.04001-.3,26.29999,6.53,4.26001,17.25-.60999,23.95-10.87h.00002Z" fill="#ffb6b6"/><polygon points="352.62 135.0994 310.56 109.8894 234.09 239.7394 256.75 261.76939 352.62 135.0994" fill="#6c63ff"/><polygon points="566.47998 329.06941 575.46002 415.06941 541.21997 417.81941 539.26001 334.3494 566.47998 329.06941" fill="#ffb6b6"/><path d="m575.87,396.0994h0l27.59998,11.82001s44.79999,14.35001,22.54999,21.47-83.65997,16.10001-87.27002,5.56c-3.60999-10.54001-2.95001-34.73001-2.95001-34.73001l40.07001-4.10999h0l.00006-.01001Z" fill="#2f2e41"/><path d="m428.39999,219.1694l14.23001,6.82001s104.58002-5.87,111.67999,13.53c7.09998,19.40999,20.83002,135.37001,20.83002,135.37001l-36.91998,2.37-16.09003-78.57001-93.72-79.51999h-.01001v-.00002Z" fill="#2f2e41"/><path id="uuid-61b5e3b1-9a6a-4cf7-bd76-8f7437a5378b" d="m527.45001,242.6294c-3.51001-3.42-7.78003-5.95-12.46997-7.38l-34.84-37.50999-17.37,17.10001,37.20999,36.21001c1.67001,4.60001,4.42001,8.73999,8.01999,12.06,8.88998,8.44,20.44998,10.69,25.81998,5.04001s2.52002-17.08-6.37-25.50999h0v-.01003Z" fill="#ffb6b6"/><polygon points="389.51999 91.1194 357.13 127.94939 471.07001 226.56941 496.82999 208.25939 389.51999 91.1194" fill="#6c63ff"/><polygon points="514.38 327.3094 459.23999 393.9094 433.29999 371.38941 491.54999 311.5594 514.38 327.3094" fill="#ffb6b6"/><path d="m472.07999,375.6594h0l10.88,27.98001s21.11002,42.04001.45001,31.13-70.05002-48.48001-65.06-58.44,22.73999-26.42001,22.73999-26.42001l30.98999,25.73999h0v.01001Z" fill="#2f2e41"/><path d="m365.92999,246.14939s-20.82999,49.22,13.25,49.22,114.07001-2.84,114.07001-2.84l-23.67001,41.64999,27.92999,14.20001s58.68997-55.38,54.89999-80.45999-109.78-41.92999-109.78-41.92999l-21.41,5.63-55.29001,14.53h0l.00003-.00003Z" fill="#2f2e41"/><path d="m363.10999,11.1194s36.73999,1.95,40.03,16.05c3.29001,14.09-4.23999,28.48,7.57999,28.33s15.95001,5.11,15.95001,5.11c0,0-12.06,34.15-31,36.11s-32.56-85.6-32.56-85.6Z" fill="#2f2e41"/><polygon points="387.75 105.2994 388.89001 73.6394 347.84 67.8194 345.51999 95.9694 387.75 105.2994" fill="#ffb6b6"/><path d="m398.89999,42.5294c5.73001,17.12-3.51001,35.65-20.63,41.38s-35.64999-3.51-41.38-20.63,3.51001-35.65,20.63-41.38,35.64999,3.51,41.38,20.62999Z" fill="#ffb6b6"/><path d="m393.31,92.8994l-37.58002-7.83-7,62.78001c-1.79001,6.96001,1.67001,33.39999,3.51001,40.34l11.32001,76.14999,79.07001-38.36-18.01001-44.62,3.91-32.09999-35.23001-56.36s.01001,0,.01001,0Z" fill="#6c63ff"/><path id="uuid-cb2e0e5b-b1d7-4cf9-874f-44524815f9d8" d="m411.17001,177.0994c-4.79999,1-9.28,3.13-13.09,6.22l-50.58002,7.94,4.48001,23.95999,50.82001-10.64c4.75,1.17999,9.72,1.21001,14.48001.09,11.97-2.66,20.29001-10.99001,18.60001-18.60001s-12.76001-11.63-24.72-8.97h0l.00998.00002Z" fill="#ffb6b6"/><path d="m381.28,132.4994l-33.92999-29.03-50.06,87.79001c-1.48001,20.45999,17.19,36.56,37.20999,32.07001l44.89999-10.95-8.57001-36.13-25.23999-.92999,35.70999-42.83h-.01999v.00998Z" fill="#6c63ff"/><path d="m342.73999,17.4594s-40.23999,11.09-31.10999,27.03,19.85001,20.42,18.51999,29.42,9.26001,43.91,25.37,38.52,40.16-15.71,40.16-15.71c0,0-33.95999-28.53-27.98001-33.37s-12.89001-39-12.89001-39c0,0,19.14999-9.26,29.29999-6.48s15.81,1.84,15.81,1.84c0,0-27.64999-25.89-39.94-15.6-12.29001,10.29-17.23001,13.36-17.23001,13.36h0l-.00995-.00999Z" fill="#2f2e41"/></svg>