<?xml version="1.0" encoding="UTF-8"?><svg id="uuid-25199b97-b6a8-46cc-9151-65a98f4a40bf" xmlns="http://www.w3.org/2000/svg" width="692.68042" height="534.43022" viewBox="0 0 692.68042 534.43022"><g><path id="uuid-db7ec72e-746a-4755-9425-2ac106606561" d="M215.22482,295.97505c2.92899-3.92648,4.87476-8.4975,5.67453-13.33044l32.60051-39.47682-19.23785-14.96289-30.99753,41.65599c-4.34254,2.26343-8.07993,5.53397-10.89941,9.53796-7.1944,9.92477-7.90642,21.67676-1.59264,26.25391,6.3138,4.57715,17.2619,.24454,24.45244-9.67767l-.00003-.00003h-.00002Z" fill="#ffb6b6"/><polygon points="347.25571 139.28995 306.48355 112.03876 223.72263 237.96309 245.26717 261.09047 347.25571 139.28995" fill="#6c63ff"/></g><path d="M0,292.55452c0,.8714,.69976,1.57108,1.57114,1.57108H691.10938c.87134,0,1.57104-.69968,1.57104-1.57108,0-.87131-.69977-1.57108-1.57104-1.57108H1.57114c-.87139,0-1.57114,.69977-1.57114,1.57108Z" fill="#3f3d56"/><polygon points="277.65815 104.04289 273.10939 72.6881 313.29046 62.47334 318.62922 90.20503 277.65815 104.04289" fill="#ffb6b6"/><g><polygon points="156.47003 439.90111 161.23775 484.3997 194.08192 474.33455 188.78447 438.84163 156.47003 439.90111" fill="#ffb6b6"/><path d="M272.48416,246.54422s-107.53822,20.66005-120.25211,51.91502c-12.71388,31.25494,2.11897,148.32858,2.11897,148.32858l36.5524,3.70822,15.36259-134.55524s93.23514-1.58923,100.1218-12.71387,5.82718-51.38525,5.82718-51.38525l-39.73087-5.29745v-.00002h.00003Z" fill="#2f2e41"/><path d="M156.9037,462.51042h0l-21.29582,21.16342s-36.3503,29.86182-13.04152,28.27258,83.69971-15.89236,83.16995-27.017-10.06516-33.37393-10.06516-33.37393l-38.76746,10.95493Z" fill="#2f2e41"/></g><g><polygon points="280.97049 452.72285 304.98969 490.48436 329.95639 466.8896 309.45877 437.43355 280.97049 452.72285" fill="#ffb6b6"/><path d="M299.13211,227.96448s-87.20184,66.23552-84.72566,99.88643c2.4762,33.65091,67.72112,131.98373,67.72112,131.98373l34.40186-12.89737-45.94302-127.39841s82.84702-42.79816,84.08182-55.82349-17.58069-48.63455-17.58069-48.63455l-37.95544,12.88367,.00003-.00002Z" fill="#2f2e41"/><path d="M292.10059,470.28386h0l-12.13303,32.26834s-17.59177,41.54651,2.59106,29.77887c20.18283-11.7677,67.95477-51.3844,62.54337-61.11862s-23.82983-25.44141-23.82983-25.44141l-29.17157,24.51282Z" fill="#2f2e41"/></g><circle cx="291.74434" cy="49.81062" r="32.69619" fill="#ffb6b6"/><path d="M315.92325,74.90684l-40.79037,30.19546-6.35693,131.37675-15.36259,14.83286,52.9745,51.91501s58.27194-18.01132,52.44476-45.55807l-5.82718-27.54674,2.1033-30.7404c3.0752-44.94525-10.91824-89.39632-39.18539-124.47482l-.00003-.00005-.00006,.00002Z" fill="#6c63ff"/><path d="M315.26232,75.58883l-19.89733-.65791s5.16423-31.18455-7.14465-31.00569l-12.30888,.17886,1.19194-5.46602s-27.81426-18.74414-15.05905-26.59659c12.7552-7.85245,21.65603-14.90941,28.95376-10.86407,7.29777,4.04535,22.08424,5.63376,22.08424,5.63376,0,0,26.22333,11.0353,25.43641,20.2706s-6.73801,49.65517-23.25648,48.50706h.00003Z" fill="#2f2e41"/><g><path id="uuid-262f4849-591a-49e0-94bb-3397d3a18280" d="M228.46378,298.08601c2.73212-4.06592,4.45046-8.72721,5.0113-13.59364l30.61729-41.03409-19.95126-13.99752-28.90895,43.1317c-4.22584,2.47452-7.79767,5.92509-10.4166,10.063-6.69701,10.26694-6.82955,22.03976-.29806,26.3005,6.53149,4.26073,17.25301-.60567,23.94629-10.8699l-.00002-.00002h0l.00002-.00002Z" fill="#ffb6b6"/><polygon points="352.61986 135.09021 310.55538 109.87954 234.09495 239.72604 256.75205 261.76456 352.61986 135.09021" fill="#6c63ff"/></g><polygon points="566.48394 329.05535 575.45684 415.05618 541.21587 417.81338 539.26238 334.33898 566.48394 329.05535" fill="#ffb6b6"/><path d="M575.87493,396.08633h0l27.59967,11.81778s44.8009,14.35095,22.54907,21.46997-83.66077,16.09616-87.27112,5.5603c-3.61035-10.53583-2.95258-34.7334-2.95258-34.7334l40.07489-4.11465h.00006Z" fill="#2f2e41"/><path d="M428.40386,219.16l14.22504,6.81863s104.57672-5.87199,111.67639,13.53386c7.09973,19.40587,20.82581,135.36775,20.82581,135.36775l-36.91846,2.36658-16.09265-78.5701-93.71613-79.51672h0Z" fill="#2f2e41"/><g><path id="uuid-71b8973d-77a2-47e3-9b86-f59dd61561fe" d="M527.45317,242.62316c-3.50665-3.42046-7.78174-5.95113-12.46722-7.38023l-34.84091-37.51433-17.36554,17.10034,37.21216,36.21219c1.672,4.60275,4.42203,8.73819,8.01987,12.06033,8.89111,8.43848,20.44708,10.69159,25.81567,5.0354,5.36859-5.65619,2.51514-17.07944-6.37396-25.51375v.00005h-.00006Z" fill="#ffb6b6"/><polygon points="389.51555 91.11219 357.13344 127.94148 471.06511 226.56138 496.82772 208.24941 389.51555 91.11219" fill="#6c63ff"/></g><polygon points="514.37895 327.29778 459.23885 393.90276 433.30257 371.37814 491.55162 311.5548 514.37895 327.29778" fill="#ffb6b6"/><path d="M472.08074,375.6542h0l10.87839,27.98325s21.10928,42.04129,.44974,31.13226-70.05432-48.48294-65.05682-58.436,22.73953-26.42047,22.73953-26.42047l30.9892,25.74094-.00003,.00003Z" fill="#2f2e41"/><path d="M365.92647,246.13888s-20.82581,49.22464,13.25278,49.22464,114.06863-2.83987,114.06863-2.83987l-23.66568,41.65161,27.92551,14.1994s58.69095-55.37772,54.90439-80.46335c-3.78656-25.08563-109.78314-41.93269-109.78314-41.93269l-21.41226,5.62793-55.29022,14.53232-.00003,.00002h.00003Z" fill="#2f2e41"/><path d="M363.11321,11.10682s36.74158,1.95447,40.03181,16.04867c3.29023,14.09421-4.24167,28.48474,7.57745,28.32974,11.81912-.155,15.95436,5.10944,15.95436,5.10944,0,0-12.05915,34.1545-31.00067,36.1144-18.94152,1.9599-32.56294-85.60226-32.56294-85.60225Z" fill="#2f2e41"/><polygon points="387.74965 105.29172 388.88852 73.62921 347.8399 67.80974 345.52459 95.95559 387.74965 105.29172" fill="#ffb6b6"/><path d="M398.90112,42.52359c5.72857,17.12486-3.50995,35.65121-20.63482,41.37978s-35.65122-3.50995-41.37979-20.63481c-5.72857-17.12486,3.50995-35.65121,20.63482-41.37978s35.65122,3.50995,41.37979,20.63481Z" fill="#ffb6b6"/><path d="M393.30956,92.89469l-37.57663-7.82847-6.99648,62.77698c-1.79379,6.95996,1.66598,33.39567,3.50809,40.34299l11.31688,76.15193,79.0675-38.3595-18.00546-44.62225,3.91422-32.09671-35.22809-56.36496s-.00003-.00002-.00003-.00002Z" fill="#6c63ff"/><path id="uuid-90ca9227-c16d-40e9-945a-3041471cdced" d="M411.17224,177.09137c-4.79592,.99771-9.28306,3.12982-13.08586,6.21775l-50.57817,7.94112,4.48245,23.95603,50.82281-10.63526c4.75165,1.18444,9.71788,1.21372,14.48319,.08544,11.96587-2.66048,20.29011-10.98652,18.59783-18.59906-1.6923-7.61253-12.76097-11.62717-24.72225-8.96601v.00003h.00001v-.00003Z" fill="#ffb6b6"/><path d="M381.27706,132.49011l-33.92926-29.02769-50.06476,87.7891c-1.48497,20.46118,17.18994,36.55871,37.20858,32.07334l44.89543-10.94817-8.57278-36.12909-25.24483-.92663,35.70762-42.83086Z" fill="#6c63ff"/><path d="M342.73627,17.44843s-40.24069,11.08702-31.11057,27.02639c9.13012,15.93937,19.85433,20.4242,18.52188,29.41703s9.26295,43.91044,25.3663,38.52358,40.16224-15.70634,40.16224-15.70634c0,0-33.95903-28.52658-27.98442-33.37423s-12.88608-39.00255-12.88608-39.00255c0,0,19.15004-9.25506,29.30285-6.47845,10.15278,2.77662,15.80631,1.83509,15.80631,1.83509,0,0-27.65066-25.88845-39.94498-15.60287-12.29432,10.28557-17.23351,13.36233-17.23351,13.36233,0,0-.00003,0-.00003,0Z" fill="#2f2e41"/></svg>