<svg id="a92421f0-ff05-4ba0-a810-ad2a70a509f9" data-name="Layer 1" xmlns="http://www.w3.org/2000/svg" width="672.1504" height="530" viewBox="0 0 672.1504 530"><path d="M922.42344,547.018H392.207a13.6672,13.6672,0,0,1-13.65176-13.65176V206.42419a10.01282,10.01282,0,0,1,10.00127-10.00167H925.90082A10.186,10.186,0,0,1,936.0752,206.5971V533.36626A13.6672,13.6672,0,0,1,922.42344,547.018Z" transform="translate(-263.9248 -185)" fill="#f2f2f2"/><path d="M903.08156,527.68479H408.93364c-7.24371,0-13.13677-5.51856-13.13677-12.30161V230.67785c0-5.03053,4.36687-9.12339,9.73464-9.12339H906.3224c5.45674,0,9.896,4.16033,9.896,9.27368v284.555C916.21843,522.16623,910.32517,527.68479,903.08156,527.68479Z" transform="translate(-263.9248 -185)" fill="#fff"/><path d="M935.88512,205.64327H378.3636V198.693A13.7128,13.7128,0,0,1,392.06505,185H922.18367a13.71273,13.71273,0,0,1,13.70145,13.693Z" transform="translate(-263.9248 -185)" fill="#e6e6e6"/><circle cx="139.33908" cy="10.34224" r="3.54401" fill="#fff"/><circle cx="152.79128" cy="10.34224" r="3.54401" fill="#fff"/><circle cx="166.24348" cy="10.34224" r="3.54401" fill="#fff"/><path d="M616.84561,447.65564H881.47335a13.23807,13.23807,0,0,0,13.23807-13.23807V314.82168a13.23806,13.23806,0,0,0-13.23807-13.23807H616.84561a13.23807,13.23807,0,0,0-13.23807,13.23807V434.41757A13.23808,13.23808,0,0,0,616.84561,447.65564Z" transform="translate(-263.9248 -185)" fill="#f2f2f2"/><path d="M852.58194,381.23866H641.60023a6.619,6.619,0,1,1,0-13.23807H852.58194a6.619,6.619,0,0,1,0,13.23807Z" transform="translate(-263.9248 -185)" fill="#fff"/><path d="M852.58194,409.36955H641.60023a6.619,6.619,0,1,1,0-13.23807H852.58194a6.619,6.619,0,0,1,0,13.23807Z" transform="translate(-263.9248 -185)" fill="#fff"/><path d="M815.34987,353.10776H641.60023a6.619,6.619,0,1,1,0-13.23807H815.34987a6.619,6.619,0,1,1,0,13.23807Z" transform="translate(-263.9248 -185)" fill="#fff"/><path d="M486.89171,501.20649a10.05572,10.05572,0,0,1,13.594-7.27737L523.945,466.97285l4.98282,17.88869-23.04127,22.8556a10.11027,10.11027,0,0,1-18.99481-6.51065Z" transform="translate(-263.9248 -185)" fill="#ffb8b8"/><circle cx="351.72074" cy="165.14844" r="24.56103" fill="#ffb8b8"/><polygon points="322.867 503.221 310.607 503.22 304.775 455.932 322.869 455.933 322.867 503.221" fill="#ffb8b8"/><path d="M589.9183,700.10483l-39.53051-.00146v-.5a15.38605,15.38605,0,0,1,15.38647-15.38623h.001l24.1438.001Z" transform="translate(-263.9248 -185)" fill="#2f2e41"/><polygon points="359.867 516.221 347.607 516.22 345.91 470.062 359.869 468.933 359.867 516.221" fill="#ffb8b8"/><path d="M626.9183,713.10483l-39.53051-.00146v-.5a15.38605,15.38605,0,0,1,15.38647-15.38623h.001l24.1438.001Z" transform="translate(-263.9248 -185)" fill="#2f2e41"/><path d="M620.30473,692.59112l-9.54688-1.124a4.51223,4.51223,0,0,1-3.97387-4.4043l-1.78907-124.33887a1.49985,1.49985,0,0,0-2.91357-.47851l-13.2456,37.39941.94726,70.10156a4.49832,4.49832,0,0,1-4.22876,4.55274l-12.46387.52929a4.52691,4.52691,0,0,1-4.74438-3.9248l-6.50977-79.30078-.00415-.04981,9.8772-82.81933,74.18311,5.36719L625.2996,688.64971a4.50656,4.50656,0,0,1-4.46631,3.97266A4.40049,4.40049,0,0,1,620.30473,692.59112Z" transform="translate(-263.9248 -185)" fill="#2f2e41"/><path d="M572.02592,516.07549a4.47312,4.47312,0,0,1-2.35474-3.61816s6.6709-41.48437,9.11548-42.26269L573.438,425.83135a40.90925,40.90925,0,0,1,8.78052-30.49023,39.01332,39.01332,0,0,1,27.03174-14.48242q1.12133-.10109,2.23046-.1543a39.36854,39.36854,0,0,1,33.134,15.082,40.11988,40.11988,0,0,1,7.21948,36.40625l-2.99976,10.43946v72.95605a4.55527,4.55527,0,0,1-1.86181,3.65332c-9.34107,6.85547-19.897,9.2793-30.15552,9.2793C597.40629,528.52081,579.0601,519.84112,572.02592,516.07549Z" transform="translate(-263.9248 -185)" fill="#6c63ff"/><path d="M514.43666,502.72488l-12.90243-9.64814a4.49948,4.49948,0,0,1-.59686-6.67226l76.863-82.47429a15.05277,15.05277,0,0,1,19.52127-2.07541l.00022.00012a14.97782,14.97782,0,0,1,1.92527,22.97632l-78.96383,77.50169a4.47171,4.47171,0,0,1-5.36243.70857A4.62124,4.62124,0,0,1,514.43666,502.72488Z" transform="translate(-263.9248 -185)" fill="#6c63ff"/><path d="M613.18524,491.80493a10.0558,10.0558,0,0,1,14.71505-4.60685l28.08641-22.09373,1.54965,18.50493-26.90891,18.14357a10.11027,10.11027,0,0,1-17.4422-9.94792Z" transform="translate(-263.9248 -185)" fill="#ffb8b8"/><path d="M638.32426,500.43a4.46445,4.46445,0,0,1-3.023-3.249l-2.83716-11.916a4.43719,4.43719,0,0,1,1.65039-4.61231l19.08887-20.64453-28.07861-43.2959a15.24849,15.24849,0,0,1-.46192-18.626,15.242,15.242,0,0,1,26.29468,2.99414l26.104,50.81054a23.11847,23.11847,0,0,1-7.721,29.79493l-26.67676,17.82031a4.46124,4.46124,0,0,1-2.97046,1.13672A4.54951,4.54951,0,0,1,638.32426,500.43Z" transform="translate(-263.9248 -185)" fill="#6c63ff"/><path d="M633.84486,372.10551a4.39851,4.39851,0,0,1-6.49319-2.5649l-.01538-.06128c-.50024-2.04355-.10537-4.18241.02382-6.28233s-.08861-4.40488-1.52657-5.94066c-2.68051-2.86288-7.41379-1.31231-11.27146-2.01917a9.51063,9.51063,0,0,1-7.45267-10.117c.05254-.43662.13627-.87389.23045-1.311a7.3247,7.3247,0,0,0-7.65072-8.82988c-3.89344.24353-8.091,1.446-11.32878-1.42141a8.35087,8.35087,0,0,1-2.05309-8.99159c1.81152-5.32069,6.99681-8.12883,12.13465-9.68478a44.58808,44.58808,0,0,1,37.8262,5.99911c3.26265,2.2737,6.31357,5.13619,7.7189,8.85636s.76212,8.42656-2.34867,10.904a20.12269,20.12269,0,0,1,4.76547,19.52057C644.88744,365.14164,637.549,369.94774,633.84486,372.10551Z" transform="translate(-263.9248 -185)" fill="#2f2e41"/><path d="M382.61051,429.163l-2.47487,2.47487-27.40039,27.40039a19.25,19.25,0,1,1-27.22361-27.22361l1.94454-1.94454-23.33452-23.33453-1.94455,1.94455a52.218,52.218,0,0,0-13.753,49.59415,31.49794,31.49794,0,1,0,38.47284,38.15416,52.21406,52.21406,0,0,0,49.17284-13.85565L429.27956,429.163,405.945,405.82843Z" transform="translate(-263.9248 -185)" fill="#5091cd"/><path d="M379.075,377.54416l2.47487-2.47488,27.40039-27.40039a19.25,19.25,0,0,1,27.22361,27.22362L434.2293,376.837l23.33453,23.33452,1.94454-1.94454a52.218,52.218,0,0,0,13.753-49.59415,31.49794,31.49794,0,1,0-38.47284-38.15416,52.21406,52.21406,0,0,0-49.17284,13.85565l-53.20978,53.20979,23.33452,23.33452Z" transform="translate(-263.9248 -185)" fill="#f9a541"/><path d="M354.82177,403.77114l-2.47487-2.47488-27.40039-27.40039a19.25,19.25,0,1,1,27.22361-27.22361l1.94454,1.94455,23.33453-23.33453-1.94455-1.94454a52.218,52.218,0,0,0-49.59415-13.753,31.49793,31.49793,0,1,0-38.15416,38.47284A52.21406,52.21406,0,0,0,301.612,397.2304l53.20979,53.20978,23.33452-23.33452Z" transform="translate(-263.9248 -185)" fill="#7ac143"/><path d="M406.86371,401.52176l2.47488,2.47487L436.739,431.397a19.25,19.25,0,1,1-27.22361,27.22361l-1.94455-1.94454L384.2363,480.01061l1.94454,1.94454a52.21793,52.21793,0,0,0,49.59415,13.753,31.49794,31.49794,0,1,0,38.15416-38.47284,52.21407,52.21407,0,0,0-13.85565-49.17284l-53.20979-53.20978-23.33452,23.33452Z" transform="translate(-263.9248 -185)" fill="#f44321"/><path d="M660.74116,715h-147a1,1,0,0,1,0-2h147c.55224,0,.44775,1,1,1C661.98919,714,661.2934,715,660.74116,715Z" transform="translate(-263.9248 -185)" fill="#ccc"/></svg>