<svg id="e5623f47-a855-4036-8ba5-4d095c94a944" data-name="Layer 1" xmlns="http://www.w3.org/2000/svg" width="822" height="676.98456" viewBox="0 0 822 676.98456"><title>listening</title><path d="M898.91112,716.074l81.16815-120.70517L899.07713,729.0596l.16939,13.58236q-8.8884.06778-17.60412-.296l4.02576-174.59233-.1103-1.34691.14855-.26025.38532-16.49791L797.203,420.59249l88.78382,116.70829.31506,3.48715,3.04074-131.91133L812.56677,275.075,889.5613,385.70358l-.80365-273.28626.00171-.9096.02613.89456,5.09656,215.38635,69.972-87.49006-69.743,106.04511,1.52719,117.99162L960.027,349.18,895.875,481.68209l.85012,65.60928,93.6385-160.41-93.35384,183.2983Z" transform="translate(-189 -111.50772)" fill="#d0cde1"/><path d="M290.70809,721.55335l81.16815-120.70517L290.8741,734.5389l.16939,13.58237q-8.8884.06777-17.60412-.296l4.02576-174.59233-.11029-1.34692.14854-.26024.38532-16.49792L189,426.07179l88.78382,116.7083.31506,3.48715,3.04074-131.91133L204.36374,280.55436l76.99454,110.62853-.80366-273.28627.00171-.90959.02613.89455L285.679,333.26793l69.972-87.49L285.90809,351.823l1.52719,117.99162,64.38866-115.15535-64.152,132.50214.85012,65.60928,93.6385-160.41L288.80671,575.659Z" transform="translate(-189 -111.50772)" fill="#d0cde1"/><ellipse cx="427.48993" cy="637.67053" rx="394.51007" ry="15.34206" fill="#d0cde1"/><polygon points="390.779 557.125 403.929 576.85 423.654 561.508 410.504 545.07 390.779 557.125" fill="#ffb8b8"/><path d="M595.46929,677.77394s-18.83358.87543-13.52472,10.831,9.45035,66.13078,24.60252,62.87589,28.89015-20.47221,28.72181-32.32456-2.06516-16.99288-2.06516-16.99288-4.063-7.84545-1.35806-10.01165,3.72633-15.85925-2.71614-20.0233-25.06278-9.675-25.06278-9.675S602.18113,679.50242,595.46929,677.77394Z" transform="translate(-189 -111.50772)" fill="#2f2e41"/><polygon points="415.983 603.151 411.6 627.26 434.613 629.452 434.613 610.822 415.983 603.151" fill="#ffb8b8"/><path d="M557.86135,388.092s-12.05448,40.54687-15.34206,64.65582c0,0-65.75168,88.76476-53.69721,127.11991s47.122,115.06544,47.122,115.06544,59.17651-24.109,71.231-37.25929l-43.83446-62.46409s6.57517-7.671-3.28758-12.05448-1.09586-9.86275-1.09586-9.86275,18.62964-62.46409,37.25928-69.03926l64.65582-13.15034s-4.38345-93.14821-19.7255-109.58613C641.14681,381.51678,564.43651,382.61264,557.86135,388.092Z" transform="translate(-189 -111.50772)" fill="#2f2e41"/><path d="M610.46269,728.90482s-10.95861-15.34206-16.43792-5.47931-50.40962,43.83446-39.451,54.79307,32.87584,13.15033,42.73859,6.57517,13.15034-10.95862,13.15034-10.95862,4.38344-7.671,7.671-6.57516,15.34206-5.47931,15.34206-13.15034-5.47931-26.30067-5.47931-26.30067S612.65441,735.48,610.46269,728.90482Z" transform="translate(-189 -111.50772)" fill="#2f2e41"/><path d="M594.02477,496.58222l15.34206,132.59922s-8.76689,37.25928-10.95861,65.75168,0,27.39653,0,27.39653,49.31375,19.72551,58.08064,6.57517,4.38345-237.80191,4.38345-237.80191L634.57164,466.994Z" transform="translate(-189 -111.50772)" fill="#2f2e41"/><path d="M567.27217,200.56131c11.37656-26.843,40.33637-31.91261,40.33637-31.91261s27.88405-7.43886,51.17091,27.98836c21.70523,33.02109,49.69542,63.95892,14.19828,77.13924L663.60114,254.084l-1.12486,22.66263a144.5189,144.5189,0,0,1-15.62684,2.37147c-39.3732,3.99993-76.48856,10.65068-77.176-3.57854C568.75964,256.62385,556.32564,226.38969,567.27217,200.56131Z" transform="translate(-189 -111.50772)" fill="#2f2e41"/><circle cx="424.75027" cy="110.01331" r="31.77998" fill="#ffb8b8"/><path d="M604.43545,241.79447s-.54793,32.3279-3.83551,39.99893,58.62858-6.02723,58.62858-6.02723-21.91723-15.34206-25.20481-36.16343Z" transform="translate(-189 -111.50772)" fill="#ffb8b8"/><path d="M609.36683,268.64307l-5.98464-4.40171-42.23326,2.21L552.382,362.88714s-25.20481,29.58826,5.47931,29.58826,59.17651-14.2462,81.09373-4.38345S679.502,283.98513,679.502,283.98513l-32.76286-19.74377S632.37992,281.7934,609.36683,268.64307Z" transform="translate(-189 -111.50772)" fill="#575a89"/><path d="M573.2034,346.44922l61.36824,13.15034v14.24619l-61.36824,2.19173S566.62824,350.83267,573.2034,346.44922Z" transform="translate(-189 -111.50772)" fill="#ffb8b8"/><path d="M355.27672,714.90959a45.85648,45.85648,0,0,0-3.974-19.02669,45.57313,45.57313,0,0,0-13.49721,15.31479,45.57319,45.57319,0,0,0-13.49723-15.31479,45.85657,45.85657,0,0,0-3.974,19.02669,45.91357,45.91357,0,0,0-18.34508-5.65333s1.208,14.80033,11.09843,24.42823c8.794,8.56059,21.49032,10.14951,24.19735,10.39662.04947.0341.0758.05173.0758.05173l.02065-.04317c.27472.024.42406.0323.42406.0323s-.023-.27983-.0877-.78492c.02786-.06507.05721-.13438.0877-.20694.03048.07257.05982.14188.08769.207-.0647.50509-.08769.78491-.08769.78491s.14933-.00831.42405-.0323l.02064.04317s.02634-.01763.0758-.05173c2.707-.24711,15.40336-1.836,24.19736-10.39662,9.89038-9.6279,11.09842-24.42823,11.09842-24.42823A45.9135,45.9135,0,0,0,355.27672,714.90959Z" transform="translate(-189 -111.50772)" fill="#d0cde1"/><path d="M779.37505,712.71787a45.85648,45.85648,0,0,0-3.974-19.02669A45.57322,45.57322,0,0,0,761.90384,709.006a45.57311,45.57311,0,0,0-13.49722-15.31479,45.85648,45.85648,0,0,0-3.974,19.02669,45.9135,45.9135,0,0,0-18.34507-5.65333s1.208,14.80033,11.09843,24.42823c8.794,8.56058,21.49032,10.1495,24.19735,10.39661.04947.03411.0758.05173.0758.05173l.02065-.04316c.27472.024.424.0323.424.0323s-.023-.27983-.08769-.78492c.02786-.06507.05721-.13438.08769-.20694.03049.07257.05983.14187.0877.207-.0647.50508-.0877.78491-.0877.78491s.14933-.00831.42405-.0323l.02065.04316s.02634-.01762.0758-.05173c2.707-.24711,15.40336-1.836,24.19735-10.39661,9.89039-9.6279,11.09843-24.42823,11.09843-24.42823A45.9135,45.9135,0,0,0,779.37505,712.71787Z" transform="translate(-189 -111.50772)" fill="#d0cde1"/><path d="M573.2034,271.93065l-12.05447-5.4793s-14.2462,3.28758-15.34206,15.34205-21.91722,89.86063-5.4793,93.14822,38.35514,3.28758,38.35514,3.28758-14.2462-19.7255,3.28759-30.68412L568.82,340.96991s-13.15034-29.58825-4.38345-44.93031S573.2034,271.93065,573.2034,271.93065Z" transform="translate(-189 -111.50772)" fill="#575a89"/><polygon points="384.704 79.301 413.727 64.099 453.807 70.318 462.099 106.942 441.457 106.148 435.691 92.693 435.691 105.927 426.166 105.56 420.638 84.139 417.183 106.942 383.322 106.251 384.704 79.301" fill="#2f2e41"/><ellipse cx="456.71292" cy="106.91458" rx="5.84457" ry="10.228" fill="#ffb8b8"/><circle cx="457.27466" cy="110.16649" r="3.98869" fill="#fff"/><ellipse cx="458.98733" cy="109.56585" rx="0.64839" ry="1.94518" fill="#2f2e41"/><path d="M647.88409,233.25177h0a1.02046,1.02046,0,0,1-1.02046-1.02046l-1.02047-8.16373h3.0614v8.16373A1.02047,1.02047,0,0,1,647.88409,233.25177Z" transform="translate(-189 -111.50772)" fill="#fff"/><polygon points="379.298 190.155 368.95 234.998 393.096 234.998 374.124 230.686 379.298 190.155" opacity="0.1"/><path d="M749.2793,156.9337l.04763-.00816-6.992-40.87641L703.6719,128.332l5.78484,36.56086a9.9347,9.9347,0,1,0,3.9919,4.90623l.03551-.00562-6.20829-39.23624,32.51505-10.32968,5.5272,32.31293a9.914,9.914,0,1,0,3.96119,4.39327Z" transform="translate(-189 -111.50772)" fill="#6c63ff"/><path d="M901.604,208.43919l.04762-.00816-6.992-40.87642-38.663,12.28282,5.78485,36.56086a9.93471,9.93471,0,1,0,3.99189,4.90623l.03552-.00562-6.2083-39.23623L892.11564,171.733l5.52719,32.31293a9.914,9.914,0,1,0,3.9612,4.39328Z" transform="translate(-189 -111.50772)" fill="#6c63ff"/><path d="M788.049,190.89571l.02756-.00435-4.98121-31.48106-2.46.38914,4.3183,27.29206a7.70306,7.70306,0,1,0,3.09535,3.80421Z" transform="translate(-189 -111.50772)" fill="#6c63ff"/><path d="M834.56633,140.97522a7.689,7.689,0,1,0-3.5865,6.48514l-4.3183,27.292,2.46.38915,4.9812-31.48113-.02756-.00435A7.63758,7.63758,0,0,0,834.56633,140.97522Z" transform="translate(-189 -111.50772)" fill="#6c63ff"/><path d="M692.961,375.73987l-.22943-.20677,5.6643-6.28494a4.89687,4.89687,0,0,0-.35923-6.91591L684.7211,350.33169a4.89687,4.89687,0,0,0-6.91591.35921l-31.07474,34.47968a4.89687,4.89687,0,0,0,.35922,6.91591L660.40516,404.087a4.89687,4.89687,0,0,0,6.91591-.35921l21.37852-23.721.22942.20676Z" transform="translate(-189 -111.50772)" fill="#3f3d56"/><circle cx="493.51485" cy="254.89016" r="3.15565" fill="#6c63ff"/><path d="M660.63244,364.49568s37.35649,9.04157,28.74948,21.93289-42.58785-10.6712-42.58785-10.6712Z" transform="translate(-189 -111.50772)" fill="#ffb8b8"/><path d="M669.6392,283.98513H679.502s10.95862,12.05447,8.76689,23.01308-8.76689,62.4641-8.76689,62.4641-32.87584,30.68412-49.31376,14.2462-4.38344-31.78-4.38344-31.78,21.91722,17.53378,33.9717-5.47931Z" transform="translate(-189 -111.50772)" fill="#575a89"/><path d="M659.83776,358.69957l7.54791-74.57214s15.83193-47.07751.37712-48.23134S651.22241,280.507,651.22241,280.507l-26.91705,81.60074S639.077,376.57579,659.83776,358.69957Z" transform="translate(-189 -111.50772)" fill="#ffb8b8"/></svg>