<?xml version="1.0" encoding="UTF-8"?><svg id="uuid-7da615ba-f155-4443-90a5-d95203d31bf1" xmlns="http://www.w3.org/2000/svg" width="788.67004" height="600.83681" viewBox="0 0 788.67004 600.83681"><path d="M0,544.59645c0,.66003,.53003,1.19,1.19006,1.19H787.48004c.65997,0,1.19-.52997,1.19-1.19,0-.65997-.53003-1.19-1.19-1.19H1.19006c-.66003,0-1.19006,.53003-1.19006,1.19Z" fill="#3f3d56"/><polygon points="432.06293 207.90642 440.17624 157.19823 385.41138 134.88663 377.29807 211.96306 432.06293 207.90642" fill="#a0616a"/><g><circle cx="418.22348" cy="117.65202" r="55.84705" fill="#a0616a"/><path d="M413.76639,42.56956c1.616,.94332,3.78058-.4839,4.29874-2.2819,.51816-1.79799-.08542-3.70699-.68399-5.47984-1.00443-2.97493-2.00882-5.94987-3.01324-8.9248-2.13705-6.32967-4.40518-12.88052-9.03354-17.69822-6.98572-7.27154-18.08768-9.12139-28.08167-7.78124-12.83423,1.72101-25.49722,8.67062-31.46478,20.1627-5.96756,11.49208-3.42694,27.52765,7.35602,34.69755-15.36807,17.61438-20.72516,37.245-19.8793,60.60585s26.30347,44.86044,42.90521,61.31724c3.70746-2.24742,7.078-12.77979,5.03922-16.60597-2.03876-3.82619,.88232-8.25893-1.64261-11.78325-2.52496-3.52432-4.63739,2.08745-2.08472-1.41685,1.61078-2.21127-4.67603-7.29848-2.28171-8.62196,11.5809-6.40152,15.43262-20.8366,22.70615-31.89064,8.77325-13.33324,23.78867-22.36263,39.67892-23.86062,8.75339-.82519,17.99893,.66939,25.17374,5.7512,7.17484,5.08181,11.81976,14.16293,10.15601,22.79628,4.3089-4.3751,6.45377-10.78682,5.64478-16.87399s-4.55411-11.7161-9.85617-14.81388c3.22388-10.66119,.46207-22.92467-7.02069-31.17466-7.48279-8.24999-37.83698-6.84486-48.76126-4.67361" fill="#2f2e41"/><path d="M412.06989,83.33124c-14.46887,1.56191-24.91583,14.09519-33.7374,25.66965-5.08456,6.67125-10.41055,14.03853-10.28293,22.42555,.12906,8.47949,5.79846,15.7525,8.50797,23.78848,4.42877,13.13507,.1124,28.76277-10.43002,37.76282,10.41711,1.97678,21.67828-5.83397,23.47662-16.28336,2.09348-12.16437-7.12769-23.90485-6.03561-36.19965,.96213-10.83186,9.49811-19.16825,16.75494-27.26721s14.07227-18.84607,10.73376-29.19543" fill="#2f2e41"/></g><path d="M414.83896,594.83687s-121,12-130-2,122.79135-28,122.79135-28l7.20865,30Z" fill="#a0616a"/><path d="M337.68936,370.50002l-2.49991,13.27188c6.80859,10.04883,7.46021,20.67285,3.5,31.72803l138,1c-1.48315-14.95264-3.10718-30.96826,2.57471-45.66309l-141.5748-.33682Z" fill="#a0616a"/><path d="M563.72626,469.16988l-50.04932-40.03906c-6.6499-5.32031-10.95508-13.23096-11.8125-21.7041l-7.71289-76.27441,45.9458-15.31543,11.07666,75.52344,27.61035,62.75146-15.05811,15.05811Z" fill="#a0616a"/><polygon points="372.18936 203.00002 439.18936 200.00002 510.18936 233.81891 481.18936 372.00002 334.18936 383.00002 314.18936 230.00002 372.18936 203.00002" fill="#6c63ff"/><path d="M479.26416,403.83684c10.06641,13.27002,14.29395,45.22021,18.57471,77,0,0-185.99988-1-186.99988-1s28.4252-67,28.4252-67l140-9h-.00003Z" fill="#2f2e41"/><path d="M485.33896,472.36046l12.5,8.47638s177.00003-12,162.00003,43.99997c-15,56-62,65-62,65l-190,11-2-31s-183,41-200-43,105-47,105-47l174.5-7.47638-.00003,.00003Z" fill="#2f2e41"/><path d="M410.65393,538.83687s4.18503-22,34.18503-13,47,21,47,21l-72,18-9.18503-26Z" fill="#a0616a"/><path d="M485.68936,231.50002s33.99997-12,46.99997,27,10,71,10,71l-50,16-7-114h.00003Z" fill="#6c63ff"/><path d="M252.54364,475.25679l-10.9082-19.21973,23.56738-58.66846,11.07812-75.53174,45.9458,15.31543-7.80615,77.19629c-.79736,7.88721-4.80518,15.25098-10.99512,20.20312l-50.88184,40.70508Z" fill="#a0616a"/><path d="M330.68936,231.50002s-34-12-47,27-10,71-10,71l50,16,7-114Z" fill="#6c63ff"/><ellipse cx="578.18933" cy="442.50002" rx="24" ry="35.5" fill="#a0616a"/><ellipse cx="241.18934" cy="448.50002" rx="23.99999" ry="35.5" fill="#a0616a"/><polyline points="332.83896 507.83684 419.83896 532.83687 436.83896 562.83687 404.32782 569.83687" fill="#2f2e41"/></svg>