<?xml version="1.0" encoding="UTF-8"?><svg id="uuid-af2942b9-f9b5-4735-b461-6cb0b904835b" xmlns="http://www.w3.org/2000/svg" width="412.24" height="608.19" viewBox="0 0 412.24 608.19"><path d="m360.3,608.19h-193.12c-28.64,0-51.94-23.3-51.94-51.94V51.94c0-28.64,23.3-51.94,51.94-51.94h193.12c28.64,0,51.94,23.3,51.94,51.94v504.31c0,28.64-23.3,51.94-51.94,51.94ZM167.18,2c-27.54,0-49.94,22.4-49.94,49.94v504.31c0,27.54,22.4,49.94,49.94,49.94h193.12c27.54,0,49.94-22.4,49.94-49.94V51.94c0-27.54-22.4-49.94-49.94-49.94h-193.12Z" fill="#dedfe0"/><path d="m291.09,47.36h-54.69c-7.22,0-13.09-5.87-13.09-13.09s5.87-13.09,13.09-13.09h54.69c7.22,0,13.09,5.87,13.09,13.09s-5.87,13.09-13.09,13.09Z" fill="#dadbdc"/><path d="m215.08,607.14c0,.54-.44.98-.98.98H.98c-.54,0-.98-.44-.98-.98s.44-.98.98-.98h213.12c.54,0,.98.44.98.98Z" fill="#3f3d58"/><g><polygon points="119.16 304.11 138.81 310.57 138.81 282.29 120.98 282.29 119.16 304.11" fill="#f6aaae"/><circle cx="136.37" cy="270.54" r="19.58" fill="#f6aaae"/><path d="m131.39,272.07l2.7,3.28,4.88-8.54s6.23.32,6.23-4.3,5.72-4.75,5.72-4.75c0,0,8.09-14.13-8.67-10.41,0,0-11.63-7.97-17.41-1.16,0,0-17.73,8.93-12.66,24.48l8.43,16.02,1.91-3.63s-1.16-15.23,8.87-10.99Z" fill="#2f2e43"/><g><rect x="113.76" y="572.1" width="15.82" height="22.44" transform="translate(243.33 1166.63) rotate(-180)" fill="#f6aaae"/><path d="m127.83,607.39c-2.71.25-16.24,1.31-16.92-1.79-.62-2.85.29-5.83.42-6.23,1.3-12.94,1.78-13.09,2.07-13.18.46-.13,1.81.5,3.99,1.91l.14.09.03.16c.04.2,1.01,4.95,5.59,4.23,3.14-.5,4.16-1.19,4.49-1.53-.27-.12-.6-.33-.83-.7-.34-.53-.4-1.21-.18-2.02.59-2.15,2.36-5.33,2.43-5.46l.2-.36,17.98,12.13,11.1,3.17c.84.24,1.51.84,1.85,1.64h0c.47,1.12.18,2.42-.72,3.23-2.02,1.81-6.02,4.92-10.23,5.3-1.12.1-2.6.14-4.26.14-6.95,0-17.08-.72-17.16-.73Z" fill="#2f2e43"/></g><g><rect x="71.28" y="540.89" width="15.82" height="22.44" transform="translate(-211.74 1027.97) rotate(-140.4)" fill="#f6aaae"/><path d="m68.59,574.58c-2.24-1.54-13.35-9.34-11.9-12.16,1.34-2.59,3.94-4.3,4.3-4.53,9.25-9.14,9.72-8.95,10-8.83.44.19,1.07,1.54,1.86,4.01l.05.15-.08.14c-.1.18-2.38,4.46,1.61,6.82,2.74,1.62,3.97,1.73,4.43,1.68-.13-.26-.25-.64-.2-1.07.07-.62.46-1.19,1.16-1.67,1.83-1.28,5.21-2.6,5.36-2.66l.38-.15,6.12,20.81,6.53,9.52c.49.72.63,1.61.38,2.45h0c-.35,1.16-1.4,1.98-2.62,2.03-2.71.11-7.77-.05-11.26-2.44-.92-.63-2.09-1.54-3.37-2.6-5.35-4.43-12.7-11.44-12.76-11.5Z" fill="#2f2e43"/></g><path d="m155.74,399.02h-54.26l12.06,179.36h18.09l24.12-179.36Z" fill="#2f2e43"/><polygon points="144.69 408.9 155.74 399.02 150.21 497.66 88.41 556.44 73.01 543.71 109.01 496.99 144.69 408.9" fill="#2f2e43"/><path d="m144.69,293.51l-26.8-4.35-8.32,14.55c-10.58,18.5-14.89,39.92-12.3,61.07l4.21,34.25h54.26l-11.05-105.51Z" fill="#dadbdc"/><path id="uuid-9f563873-8ca9-408c-bce4-7333c5979659" d="m122.93,431.31c1.11,5.53-.96,10.58-4.61,11.28-3.66.69-7.52-3.23-8.63-8.77-.47-2.21-.39-4.49.24-6.66l-4.4-23.51,11.5-1.79,3.11,23.37c1.42,1.79,2.38,3.87,2.79,6.09h0Z" fill="#f6aaae"/><path d="m108.94,424.94l-16.89-52.18v-.08s6.38-53.73,6.38-53.73c.98-8.23,7.96-14.43,16.24-14.43,5.07,0,9.77,2.29,12.89,6.29,3.12,4,4.21,9.11,2.98,14.04l-11.27,45.07,2.69,51.15-13.03,3.87Z" fill="#dadbdc"/></g><path d="m205.57,310.29c4.69,25.05,28.8,41.56,53.86,36.86,7.58-1.42,14.38-4.62,20.04-9.09h0s57,61.48,57,61.48c3.49,3.76,9.44,3.75,12.92-.03h0c3.25-3.53,3.07-9.01-.41-12.32l-60.9-58.04c7.32-9.94,10.66-22.77,8.21-35.86-4.69-25.05-28.8-41.56-53.86-36.86s-41.56,28.8-36.86,53.86Zm9.84-1.84c-3.67-19.62,9.25-38.5,28.87-42.17,19.62-3.67,38.5,9.25,42.17,28.87s-9.25,38.5-28.87,42.17-38.5-9.25-42.17-28.87Z" fill="#6c63ff"/></svg>