<svg id="b29e554b-093d-48c4-b1ea-ffb6ead99508" data-name="Layer 1" xmlns="http://www.w3.org/2000/svg" width="796.73899" height="610.28346" viewBox="0 0 796.73899 610.28346"><title>new_entries</title><ellipse cx="709.4198" cy="592.70019" rx="76.32487" ry="17.58327" fill="#e6e6e6"/><polygon points="708.42 143.137 708.42 166.137 720.42 196.137 739.42 162.137 739.42 136.137 708.42 143.137" fill="#a0616a"/><path d="M856.55031,466.49487l-3,22s-7,24,3,24,10-26,10-26l2-15Z" transform="translate(-201.63051 -144.85827)" fill="#a0616a"/><path d="M977.55031,463.49487l-3,22s-7,24,3,24,10-26,10-26l2-15Z" transform="translate(-201.63051 -144.85827)" fill="#a0616a"/><path d="M885.05031,440.99487l-4.706,1.2951s-12.294,79.7049-13.294,121.7049-3,148-3,148h32l21-180,10,180h34s14-236,5-255S885.05031,440.99487,885.05031,440.99487Z" transform="translate(-201.63051 -144.85827)" fill="#2f2e41"/><path d="M866.05031,709.99487l-9,14s-25,21-3,20,31-11,31-11v3l12-4-2-22Z" transform="translate(-201.63051 -144.85827)" fill="#2f2e41"/><path d="M958.05031,709.99487l9,14s25,21,3,20-31-11-31-11v3l-12-4,2-22Z" transform="translate(-201.63051 -144.85827)" fill="#2f2e41"/><circle cx="720.9198" cy="126.6366" r="22" fill="#a0616a"/><polygon points="719.42 181.137 708.42 158.613 703.42 170.137 701.42 269.137 747.42 166.137 739.42 157.29 719.42 181.137" fill="#575a89"/><path d="M982.05031,330.99487l-36.46363-23.83011s-2.53637,22.83011-25.53637,20.83011-12.24837-19.34176-12.24837-19.34176l-36.75163,20.34176,14,78-6,45s54-6,66,3a51.27727,51.27727,0,0,0,24,10l-2-77Z" transform="translate(-201.63051 -144.85827)" fill="#d0cde1"/><path d="M971.05031,334.99487l6.91791-6.66778,5.08209,3.66778s5,6,9,24,2,98,2,98l-22-3,1-33-9-44Z" transform="translate(-201.63051 -144.85827)" fill="#d0cde1"/><path d="M878.05031,327.99487l-3.77771-.78352-3.22229,1.78352s-9,12-9,23-9,105-9,105l20,9,14-71Z" transform="translate(-201.63051 -144.85827)" fill="#d0cde1"/><path d="M997.05031,455.99487s-20-12-27-4,4,16,4,16S1005.05031,479.99487,997.05031,455.99487Z" transform="translate(-201.63051 -144.85827)" fill="#575a89"/><path d="M875.05031,461.99487s-20-12-27-4,4,16,4,16S883.05031,485.99487,875.05031,461.99487Z" transform="translate(-201.63051 -144.85827)" fill="#575a89"/><path d="M941.817,255.36416s5.75423-11-6.90509-12c0,0-11.50847-7-20.71525,1,0,0-8.05593-2-10.35763,4,0,0-1.15085-3,2.3017-5,0,0-8.05594-2-8.05594,8,0,0-3.45254,10,0,19s4.60339,10,4.60339,10-5.67351-18.86929,8.13666-19.86929,29.26589-9.63071,30.41673,1.36929,3.45254,14,3.45254,14S955.05172,259.86416,941.817,255.36416Z" transform="translate(-201.63051 -144.85827)" fill="#2f2e41"/><path d="M462.07062,669.47826h-.1372c-5.11314,0-10.28858-.15231-15.3822-.45316l.07552-1.28647c5.06908.29959,10.21872.45064,15.30668.45064h.1372Zm15.52445-.46952-.07679-1.28647c5.1232-.30714,10.29991-.77415,15.38661-1.38843l.15482,1.27892C487.94721,668.23081,482.74407,668.70034,477.59507,669.00874Zm-46.51039-1.362c-5.12006-.61176-10.28669-1.38842-15.35576-2.30733l.23035-1.26884c5.04327.91387,10.1841,1.68676,15.279,2.29726Zm77.32828-2.35768-.23161-1.26884c5.04579-.92016,10.12871-2.009,15.10716-3.23379l.3084,1.25122C518.59328,663.26873,513.48456,664.36261,508.413,665.28906Zm-107.87239-3.18595c-5.00677-1.226-10.04186-2.62328-14.96429-4.15143l.38267-1.23108c4.89725,1.5206,9.90654,2.91028,14.88876,4.13129Zm138.015-4.23451-.38393-1.23108c4.8897-1.52437,9.80332-3.2212,14.60428-5.04516l.45819,1.2059C548.40794,654.62978,543.46978,656.33667,538.55553,657.8686Zm-167.69052-4.981c-4.82173-1.82648-9.65731-3.82793-14.37078-5.949l.52868-1.1757c4.69019,2.111,9.50122,4.10234,14.299,5.91875Zm196.68823-6.032-.52994-1.1757c4.66815-2.10466,9.3338-4.38178,13.86789-6.76716l.60044,1.14045C576.93424,642.45115,572.24469,644.7396,567.55324,646.8556Zm-225.03768-6.7294c-4.57186-2.40048-9.1261-4.97215-13.53684-7.64327l.66715-1.10268c4.38871,2.65727,8.92029,5.21635,13.46887,7.6055Zm252.48018-7.70746-.66715-1.10269c4.3843-2.656,8.74469-5.48069,12.95906-8.39475l.73261,1.05988C603.78575,626.91035,599.404,629.74888,594.99574,632.41874Zm-279.06356-8.37965c-4.24647-2.9342-8.45644-6.03456-12.51283-9.21422l.79554-1.01457c4.03563,3.16456,8.22482,6.24855,12.44989,9.1689Zm304.58391-9.26583-.79554-1.01457c4.04569-3.17462,8.03726-6.50407,11.86267-9.89647l.856.96422C628.59364,608.23646,624.58193,611.58228,620.51609,614.77326Zm-329.02991-9.89521c-3.86128-3.42008-7.66655-7.00129-11.31195-10.64418l.91135-.91135c3.62652,3.624,7.41354,7.18759,11.25531,10.59131Zm352.258-10.69579-.91135-.91135c3.63156-3.63156,7.19766-7.41668,10.59761-11.25091l.96421.856C650.97839,586.72907,647.39466,590.53308,643.74422,594.18226ZM269.52375,582.93387c-3.42386-3.85939-6.77157-7.86858-9.95122-11.918l1.01331-.79555c3.16392,4.02807,6.49526,8.01838,9.90213,11.85764Zm394.82532-11.98351-1.01457-.79554c3.17462-4.047,6.26113-8.23489,9.17393-12.44549l1.05989.73261C670.64167,562.67393,667.54006,566.88327,664.34907,570.95036Zm-413.992-12.42409c-2.93546-4.23954-5.7765-8.62007-8.44447-13.01822l1.10205-.66967c2.65475,4.378,5.482,8.73588,8.40231,12.95529Zm431.66392-13.129-1.10268-.66715c2.6623-4.39312,5.22265-8.92344,7.6118-13.46509l1.14044.59918C687.27006,536.42978,684.69587,540.98276,682.021,545.39728Zm-447.751-13.39082c-2.39985-4.55676-4.69082-9.24569-6.80933-13.93461l1.17444-.53121c2.10781,4.66627,4.38745,9.33128,6.77534,13.86412Zm462.21937-14.11462-1.1757-.52868c2.116-4.69648,4.10989-9.50625,5.9263-14.29714l1.20591.45819C700.61934,508.33776,698.61537,513.1727,696.48931,517.89184ZM221.50976,503.75457c-1.834-4.81984-3.54281-9.75675-5.07851-14.67477l1.22982-.38519c1.52878,4.89285,3.22875,9.80584,5.05334,14.60176ZM707.51993,488.8142l-1.23108-.38267c1.52437-4.89788,2.91657-9.90654,4.13884-14.88624l1.25122.30714C710.45035,478.85731,709.0506,483.89114,707.51993,488.8142ZM212.25527,474.1218c-1.2336-4.99858-2.33-10.10668-3.259-15.18331l1.26758-.23161c.92457,5.05019,2.01592,10.13186,3.2426,15.10527Zm502.6675-15.45646-1.26884-.23162c.91638-5.04264,1.69179-10.18221,2.30481-15.27646l1.27891.15357C716.62337,448.43026,715.84419,453.59626,714.92277,458.66534ZM206.66254,443.58776c-.61868-5.11187-1.09135-10.31438-1.4029-15.464l1.28647-.078c.31028,5.1232.78043,10.30053,1.3966,15.386Zm511.96228-15.74221-1.28647-.07552c.30337-5.1144.4582-10.30935.4582-15.44388v-.54505h1.289v.54505C719.08553,417.48585,718.9307,422.70724,718.62482,427.84555ZM206.07029,412.5993h-1.289v-.27315c0-5.071.14916-10.20047.44434-15.24626l1.28647.07553c-.2933,5.02061-.44183,10.12494-.44183,15.17073ZM717.30563,396.336c-.316-5.1295-.79177-10.30557-1.41235-15.38535l1.27892-.15609c.62435,5.105,1.10142,10.30683,1.41989,15.46214Zm-509.429-14.57029-1.28017-.15231c.60987-5.12006,1.38339-10.28669,2.3004-15.357l1.26885.2291C209.2531,371.53059,208.48273,376.67142,207.87663,381.76567Zm505.67785-16.08586c-.93275-5.05711-2.02914-10.13878-3.26022-15.10338l1.25122-.30966c1.23738,4.98978,2.3388,10.09662,3.27659,15.17891Zm-500.1789-14.30846-1.25248-.30588c1.22289-5.00488,2.617-10.04,4.14388-14.96618l1.23108.38141C215.97872,341.38236,214.59218,346.39164,213.37558,351.37135ZM706.124,335.699c-1.53319-4.89411-3.23882-9.80521-5.06782-14.5961l1.20339-.45945c1.83906,4.81481,3.55351,9.75108,5.09551,14.67037ZM222.53063,321.84117l-1.20591-.45567c1.82459-4.82362,3.82353-9.65982,5.942-14.37455l1.17569.52868C226.33464,312.23045,224.34578,317.0421,222.53063,321.84117ZM695.121,306.86493c-2.11222-4.66375-4.39689-9.32625-6.79108-13.85657l1.14045-.60169c2.40551,4.553,4.70152,9.23876,6.82381,13.92706ZM235.21024,293.62768l-1.1417-.59918c2.39229-4.56053,4.96145-9.11666,7.63571-13.54124l1.10269.66715C240.14652,284.557,237.59058,289.0898,235.21024,293.62768Zm445.50287-14.04539c-2.65979-4.37234-5.492-8.72832-8.41741-12.94521l1.05988-.73513c2.9405,4.23892,5.78532,8.6163,8.4577,13.01068ZM251.203,267.16828l-1.06115-.73261c2.926-4.23891,6.02386-8.45014,9.20729-12.5166l1.01457.79429C257.19659,258.75968,254.11449,262.95013,251.203,267.16828ZM663.113,254.218c-3.17588-4.03248-6.51163-8.01838-9.91535-11.84757l.96422-.856c3.42009,3.84744,6.7722,7.85348,9.96319,11.90673ZM270.25573,242.83558l-.96548-.85471c3.41631-3.86,6.99563-7.66781,10.63726-11.31636l.91261.91009C277.21611,235.20553,273.655,238.99443,270.25573,242.83558Zm372.3342-11.6984c-3.64163-3.62841-7.4318-7.18759-11.26728-10.57873l.85345-.96548c3.85436,3.4075,7.66467,6.98493,11.32266,10.6316ZM292.07907,220.97007l-.856-.96422c3.84744-3.41819,7.85537-6.76842,11.91176-9.95815l.79681,1.01331C299.89541,214.235,295.90762,217.56887,292.07907,220.97007Zm327.36077-10.29613c-4.0394-3.16015-8.23111-6.24036-12.46059-9.155l.73261-1.06115c4.24961,2.92917,8.46273,6.02512,12.521,9.20163Zm-303.08472-8.78812-.73386-1.05988c4.23577-2.93546,8.61441-5.779,13.01571-8.4514l.669,1.10142C324.92736,196.13512,320.57012,198.96484,316.35512,201.88582Zm277.633-8.75539c-4.39941-2.656-8.93351-5.20943-13.47642-7.5904l.59792-1.1417c4.5662,2.39292,9.12295,4.95893,13.545,7.62816Zm-251.25287-7.26438-.6017-1.14044c4.55487-2.40237,9.24191-4.69585,13.93084-6.81689l.5312,1.17444C351.92992,181.19349,347.2668,183.47565,342.73522,185.86605Zm223.86135-7.08689c-4.69081-2.10466-9.50373-4.091-14.30532-5.90427l.45568-1.2059c4.8255,1.82207,9.66234,3.81848,14.37707,5.93448ZM370.83668,173.155l-.45945-1.20465c4.82173-1.83717,9.75864-3.54848,14.67351-5.08607l.38519,1.22982C380.5456,169.62411,375.63387,171.3266,370.83668,173.155ZM537.648,167.85113c-4.90166-1.51619-9.9122-2.90084-14.89253-4.11493l.30588-1.25247c5.00488,1.22038,10.04123,2.61195,14.96806,4.13632Zm-137.33333-3.92045-.30966-1.25122c5.00614-1.238,10.11361-2.33691,15.1808-3.26714l.23287,1.26758C410.37724,161.6051,405.29558,162.699,400.31462,163.93068Zm107.32609-3.39616c-5.03824-.90947-10.17907-1.67669-15.28087-2.2809l.151-1.28017c5.12761.60736,10.29487,1.37836,15.35891,2.29222Zm-76.94877-2.18334-.15608-1.27955c5.10872-.62246,10.31123-1.097,15.46339-1.41171l.078,1.28647C440.95157,157.25919,435.77487,157.73186,430.69194,158.35118Zm46.27752-1.45389c-4.97782-.28826-10.0362-.43427-15.036-.43427h-.40973v-1.289h.40973c5.02439,0,10.10857.14665,15.1103.4368Z" transform="translate(-201.63051 -144.85827)" fill="#e6e6e6"/><rect x="366.79586" y="430.25559" width="152.813" height="114.60975" fill="#e6e6e6"/><rect x="385.89749" y="460.81819" width="114.60975" height="7.64065" fill="#fff"/><rect x="385.89749" y="483.74014" width="114.60975" height="7.64065" fill="#fff"/><rect x="385.89749" y="506.66209" width="114.60975" height="7.64065" fill="#fff"/><rect width="106.73857" height="80.05393" fill="#ccc"/><rect x="13.34232" y="21.34771" width="80.05393" height="5.33693" fill="#fff"/><rect x="13.34232" y="37.3585" width="80.05393" height="5.33693" fill="#fff"/><rect x="13.34232" y="53.36929" width="80.05393" height="5.33693" fill="#fff"/><rect x="45.36389" y="41.3612" width="106.73857" height="80.05393" fill="#e6e6e6"/><rect x="58.70621" y="62.70891" width="80.05393" height="5.33693" fill="#fff"/><rect x="58.70621" y="78.7197" width="80.05393" height="5.33693" fill="#fff"/><rect x="58.70621" y="94.73048" width="80.05393" height="5.33693" fill="#fff"/><rect x="92.02261" y="148.47246" width="332.84357" height="249.63267" fill="#3f3d56"/><circle cx="258.44439" cy="273.2888" r="83.21089" opacity="0.2"/><path d="M494.62922,411.16H466.33751V382.86832a6.65687,6.65687,0,0,0-6.65687-6.65687h0a6.65687,6.65687,0,0,0-6.65687,6.65687V411.16H424.73205a6.65686,6.65686,0,0,0-6.65686,6.65686v0a6.65686,6.65686,0,0,0,6.65686,6.65686h28.29171v28.29171a6.65687,6.65687,0,0,0,6.65687,6.65686h0a6.65687,6.65687,0,0,0,6.65687-6.65686V424.47377h28.29171a6.65686,6.65686,0,0,0,6.65686-6.65686v0A6.65686,6.65686,0,0,0,494.62922,411.16Z" transform="translate(-201.63051 -144.85827)" fill="#6c63ff"/></svg>