<svg id="a06fd64e-df54-4b6a-ac0b-082e76d81757" data-name="Layer 1" xmlns="http://www.w3.org/2000/svg" width="977.4528" height="657.62715" viewBox="0 0 977.4528 657.62715"><path d="M181.40453,256.822c-2.47411,10.8697-3.65,23.19285,2.949,32.92a22.60018,22.60018,0,0,0,11.69787,8.86176,33.19417,33.19417,0,0,0,14.9065.9156c11.25543-1.55938,21.25864-7.42214,32.32809-9.69833,4.88494-1.00449,10.06918-1.33649,14.77168.59669,3.52347,1.44848,7.23466,4.36064,7.25156,8.51474.01737,4.2658-3.68759,7.09707-7.37227,8.40863-4.91664,1.75007-10.02625,1.07273-15.126.85214-5.49244-.23758-11.09305.25908-15.65586,3.62276a27.22947,27.22947,0,0,0-8.70142,11.79727c-2.29343,5.5661-3.22429,11.55034-4.69076,17.35773a77.07252,77.07252,0,0,1-5.53231,15.12563,78.3522,78.3522,0,0,1-19.14376,24.81466c-3.93926,3.39016-8.72569,6.84394-14.10564,7.15467-4.14959.23966-9.19371-1.50406-10.79318-5.707a8.19475,8.19475,0,0,1,3.83658-9.72918c3.55623-1.79454,7.42916.76542,8.57758,4.279a5.47726,5.47726,0,0,1-.57067,4.93908c-1.07829,1.60788,1.51933,3.11129,2.59041,1.51415,2.48685-3.70823,1.187-8.69547-1.85866-11.66586a8.737,8.737,0,0,0-11.499-.857,11.36119,11.36119,0,0,0-4.1531,11.73953c1.27929,4.6166,5.81562,7.5531,10.34564,8.2806,5.5941.89838,10.97782-1.30019,15.49346-4.47649a69.4528,69.4528,0,0,0,12.26916-11.333,81.43966,81.43966,0,0,0,16.24638-29.04895c3.30206-10.58121,3.54225-24.55935,13.354-31.70534,5.04883-3.67711,11.2352-3.26928,17.15486-2.93176,5.22555.298,10.32313.24379,15.117-2.12187,3.95837-1.95338,7.15208-5.55889,7.21812-10.15242.06666-4.6372-3.22567-8.36592-7.10486-10.4786-10.24788-5.58119-22.55428-1.08-32.622,2.64874-10.12433,3.74972-21.68376,8.15073-32.4433,4.20478A20.1246,20.1246,0,0,1,185.022,284.84145c-2.60543-5.52533-2.97613-11.79462-2.37425-17.791a77.42736,77.42736,0,0,1,1.64958-9.43093c.42785-1.87971-2.46384-2.68225-2.89283-.79751Z" transform="translate(-111.2736 -121.18643)" fill="#3f3d56"/><path d="M340.68864,383.74169c-14.53414-1.14816,2.61589-10.76644,3.764-25.30058a26.39837,26.39837,0,0,1,52.63277,4.15783C395.9373,377.13308,355.22278,384.88984,340.68864,383.74169Z" transform="translate(-111.2736 -121.18643)" fill="#f0f0f0"/><path d="M480.23975,293.2568a26.39838,26.39838,0,0,1-24.23747-28.39531c1.14815-14.53413-27.71433-24.25652-13.18019-23.10837s66.96111,12.73207,65.813,27.26621A26.39838,26.39838,0,0,1,480.23975,293.2568Z" transform="translate(-111.2736 -121.18643)" fill="#f0f0f0"/><path d="M512.05145,260.12627c1.91543,3.97344.78617,8.56406-1.74341,11.9946-2.87722,3.902-7.45371,5.82551-12.14836,6.46122a37.39053,37.39053,0,0,1-15.02122-1.2369c-4.699-1.35616-9.57574-4.263-10.545-9.45609-.646-3.4612.83068-7.15493,4.425-8.11436a8.65483,8.65483,0,0,1,8.1935,2.22289c2.98454,3.1063,2.75735,8.092.86054,11.69992-2.23087,4.24337-6.69457,6.585-11.284,7.35773-5.45642.9187-10.93917-.36462-16.07224-2.19053-5.57906-1.98456-10.99111-4.45579-16.45748-6.72582-10.6603-4.42694-21.55009-8.58564-33.01385-10.34875-17.51211-2.69334-38.29549,1.50061-49.01578,16.85376-5.78705,8.288-7.42642,18.68218-6.18087,28.57033,1.31354,10.42791,5.8892,20.01043,11.94795,28.49615a120.99785,120.99785,0,0,0,10.485,12.54714,8.64119,8.64119,0,0,1,1.9948,9.41442c-3.32114,8.1602-16.59968,5.55956-17.58906-2.85193-.44956-3.822,1.6828-7.75831,4.34722-10.35071a20.48847,20.48847,0,0,1,10.92715-5.2936c8.61615-1.43886,17.724,1.75576,24.31017,7.30478,7.44057,6.26888,11.62939,15.79554,13.83574,25.06952,2.512,10.55867,2.64012,21.41858,2.87881,32.21162.24427,11.04492.66414,22.22054,3.83282,32.881A81.25649,81.25649,0,0,0,432.792,460.60039a84.87444,84.87444,0,0,0,42.30724,31.35222,77.7441,77.7441,0,0,0,12.6575,2.96518c1.68127.24926,1.882-2.38344.20789-2.63164-18.72013-2.77538-35.93524-12.91117-48.25894-27.1581a80.49406,80.49406,0,0,1-14.42115-24.03883c-4.01884-10.59275-5.03793-21.8445-5.366-33.08693-.33508-11.482-.15262-23.06788-2.4514-34.37858-2.03223-9.99917-6.0185-20.12457-13.40088-27.41a34.24283,34.24283,0,0,0-25.02514-9.97174c-8.56358.39669-17.72032,5.11314-20.26514,13.85068a11.36378,11.36378,0,0,0,2.69549,11.5463,13.31345,13.31345,0,0,0,13.63295,2.88118,11.04447,11.04447,0,0,0,6.13194-13.51117,13.44156,13.44156,0,0,0-3.3103-5.0636c-7.72542-8.25036-14.81492-17.48291-18.66194-28.22581-3.58821-10.02014-4.32418-21.5467-.186-31.51705,7.83429-18.87547,30.57085-24.54708,49.09118-21.909,12.12052,1.7265,23.5969,6.31538,34.82429,11.00926,5.73319,2.3969,11.42942,5.0607,17.37542,6.89548,5.32362,1.64272,11.03622,2.46764,16.521,1.12037,4.78711-1.17589,9.18682-3.95923,11.50576-8.41178,2.10642-4.04447,2.4699-9.17659-.03513-13.13892-3.62178-5.72875-13.62208-7.0174-17.26628-.583-2.418,4.26942-1.23011,9.73647,1.9456,13.27733,3.56038,3.96978,8.89211,5.59124,13.99453,6.40963,9.64156,1.54642,21.51435.33111,26.67248-9.192a13.91184,13.91184,0,0,0,.72179-12.70226,1.3209,1.3209,0,0,0-2.37727,1.14873Z" transform="translate(-111.2736 -121.18643)" fill="#3f3d56"/><path d="M1082.91141,336.74169c14.53414-1.14816-2.61589-10.76644-3.764-25.30058a26.39837,26.39837,0,1,0-52.63277,4.15783C1027.66275,330.13308,1068.37728,337.88984,1082.91141,336.74169Z" transform="translate(-111.2736 -121.18643)" fill="#f0f0f0"/><path d="M943.36031,246.2568a26.39838,26.39838,0,0,0,24.23746-28.39531c-1.14815-14.53413,27.71433-24.25652,13.18019-23.10837s-66.96111,12.73207-65.813,27.26621A26.39838,26.39838,0,0,0,943.36031,246.2568Z" transform="translate(-111.2736 -121.18643)" fill="#f0f0f0"/><path d="M911.5486,213.12627c-1.91542,3.97344-.78617,8.56406,1.74341,11.9946,2.87723,3.902,7.45371,5.82551,12.14836,6.46122a37.39059,37.39059,0,0,0,15.02123-1.2369c4.699-1.35616,9.57573-4.263,10.545-9.45609.646-3.4612-.83068-7.15493-4.42495-8.11436a8.65482,8.65482,0,0,0-8.1935,2.22289c-2.98455,3.1063-2.75736,8.092-.86055,11.69992,2.23088,4.24337,6.69457,6.585,11.284,7.35773,5.45641.9187,10.93916-.36462,16.07223-2.19053,5.57907-1.98456,10.99111-4.45579,16.45748-6.72582,10.6603-4.42694,21.55009-8.58564,33.01385-10.34875,17.51211-2.69334,38.29549,1.50061,49.01578,16.85376,5.78706,8.288,7.42642,18.68218,6.18087,28.57033-1.31353,10.42791-5.8892,20.01043-11.94795,28.49615a120.99785,120.99785,0,0,1-10.485,12.54714,8.64119,8.64119,0,0,0-1.9948,9.41442c3.32114,8.1602,16.59969,5.55956,17.58907-2.85193.44955-3.822-1.68281-7.75831-4.34723-10.35071a20.48847,20.48847,0,0,0-10.92714-5.2936c-8.61616-1.43886-17.724,1.75576-24.31018,7.30478-7.44057,6.26888-11.62939,15.79554-13.83574,25.06952-2.512,10.55867-2.64011,21.41858-2.87881,32.21162-.24427,11.04492-.66414,22.22054-3.83282,32.881a81.2567,81.2567,0,0,1-11.77306,23.95773,84.87451,84.87451,0,0,1-42.30725,31.35222,77.7441,77.7441,0,0,1-12.6575,2.96518c-1.68126.24926-1.882-2.38344-.20789-2.63164,18.72013-2.77538,35.93525-12.91117,48.25894-27.1581a80.49406,80.49406,0,0,0,14.42115-24.03883c4.01885-10.59275,5.03793-21.8445,5.366-33.08693.33508-11.482.15262-23.06788,2.45141-34.37858,2.03222-9.99917,6.01849-20.12457,13.40087-27.41a34.24283,34.24283,0,0,1,25.02514-9.97174c8.56358.39669,17.72032,5.11314,20.26514,13.85068a11.36376,11.36376,0,0,1-2.69549,11.5463,13.31344,13.31344,0,0,1-13.63295,2.88118,11.04447,11.04447,0,0,1-6.13194-13.51117,13.44156,13.44156,0,0,1,3.3103-5.0636c7.72542-8.25036,14.81492-17.48291,18.66195-28.22581,3.5882-10.02014,4.32417-21.5467.186-31.51705-7.83428-18.87547-30.57085-24.54708-49.09117-21.909-12.12053,1.7265-23.59691,6.31538-34.8243,11.00926-5.73319,2.3969-11.42942,5.0607-17.37542,6.89548-5.32361,1.64272-11.03622,2.46764-16.521,1.12037-4.78711-1.17589-9.18682-3.95923-11.50576-8.41178-2.10642-4.04447-2.46989-9.17659.03513-13.13892,3.62178-5.72875,13.62208-7.0174,17.26629-.583,2.418,4.26942,1.2301,9.73647-1.9456,13.27733-3.56039,3.96978-8.89212,5.59124-13.99454,6.40963-9.64156,1.54642-21.51435.33111-26.67248-9.192a13.91184,13.91184,0,0,1-.72179-12.70226,1.3209,1.3209,0,0,1,2.37727,1.14873Z" transform="translate(-111.2736 -121.18643)" fill="#3f3d56"/><path d="M514.42639,555.21149c-25.34937-33.4628-15.29654-71.65489-30.14779-98.29857-56.91918-102.11609,13.16894-92.708,92.41059-72.84974l.18892,2.203c-50.43435,7.78318-83.6029,33.73992-91.00109,71.21392-5.74975,29.1236,4.80122,63.27108,29.70941,96.152Z" transform="translate(-111.2736 -121.18643)" fill="#f0f0f0"/><path d="M831.5855,529.31481l-.52957-2.10005c28.29549-12.82872,25.86439-51.03877,51.17992-59.76417,192.84531-66.468,2.48581-73.96363-40.33192-109.12209-38.2899-31.44062-80.0194-67.99465-133.05275-86.821l.423-2.14335c53.265,18.90912,100.74681,49.90274,133.697,87.27174,33.11648,37.55628,47.6287,77.11248,40.863,111.38174C878.499,495.04121,860.43154,516.23712,831.5855,529.31481Z" transform="translate(-111.2736 -121.18643)" fill="#f0f0f0"/><path d="M571.69656,542.91913v0a9.72308,9.72308,0,0,1-9.72308,9.72308H455.23974a12.62137,12.62137,0,0,1-12.62137-12.62137v0a12.62137,12.62137,0,0,1,3.25011-8.45449l66.92574-74.1829q14.08923-15.78013,20.57345-28.46476A55.31613,55.31613,0,0,0,539.85,403.554q0-16.62588-9.58242-25.5057-9.58413-8.87772-27.33747-8.87753-24.01907,0-47.64549,16.13488a9.97935,9.97935,0,0,1-14.59337-3.81469l0,0a9.91657,9.91657,0,0,1,2.81616-12.27192,92.469,92.469,0,0,1,23.63047-12.73078,102.8317,102.8317,0,0,1,36.35606-6.764q27.6171,0,43.68355,14.23256,16.06454,14.23487,16.06434,38.46995a74.79123,74.79123,0,0,1-7.75026,33.11491q-7.755,15.92577-25.78742,35.65156l-57.21161,62.00282h89.481A9.72308,9.72308,0,0,1,571.69656,542.91913Z" transform="translate(-111.2736 -121.18643)" fill="#2f2e41"/><path d="M606.86151,451.41833q-17.90109-26.06495-17.8965-76.51711,0-50.44529,17.8965-76.51673,17.89364-26.06495,52.27935-26.06953,34.38132,0,52.27935,26.06953,17.89422,26.07126,17.8965,76.235,0,50.45216-17.8965,76.65778-17.90051,26.21058-52.27935,26.2102Q624.75323,477.48748,606.86151,451.41833Zm87.64919-13.66874q11.41381-20.2921,11.41381-63.13009,0-42.55208-11.27314-62.56627-11.275-20.0077-35.51051-20.01-23.95774,0-35.36984,20.01-11.4138,20.014-11.41381,62.56627,0,42.55836,11.41381,62.989,11.41439,20.43717,35.36984,20.43277Q683.0923,458.04131,694.5107,437.74959Z" transform="translate(-111.2736 -121.18643)" fill="#2f2e41"/><path d="M878.57844,542.91913v0a9.72308,9.72308,0,0,1-9.72307,9.72308H762.12163a12.62137,12.62137,0,0,1-12.62137-12.62137v0a12.6214,12.6214,0,0,1,3.2501-8.45449l66.92575-74.1829q14.08922-15.78013,20.57344-28.46476a55.316,55.316,0,0,0,6.48231-25.36465q0-16.62588-9.58241-25.5057-9.58413-8.87772-27.33748-8.87753-24.019,0-47.64549,16.13488a9.97935,9.97935,0,0,1-14.59337-3.81469l0,0a9.91659,9.91659,0,0,1,2.81617-12.27192,92.46887,92.46887,0,0,1,23.63047-12.73078,102.83166,102.83166,0,0,1,36.35606-6.764q27.6171,0,43.68354,14.23256,16.06453,14.23487,16.06435,38.46995a74.79123,74.79123,0,0,1-7.75026,33.11491q-7.755,15.92577-25.78743,35.65156l-57.21161,62.00282h89.481A9.72307,9.72307,0,0,1,878.57844,542.91913Z" transform="translate(-111.2736 -121.18643)" fill="#2f2e41"/><path d="M1028.10508,441.14708v0a9.72307,9.72307,0,0,1-9.72308,9.72307H911.64826a12.62137,12.62137,0,0,1-12.62137-12.62136v0a12.62135,12.62135,0,0,1,3.25011-8.45449l66.92574-74.18291q14.08923-15.78013,20.57345-28.46475A55.31617,55.31617,0,0,0,996.2585,301.782q0-16.62588-9.58242-25.5057-9.58413-8.87774-27.33748-8.87754-24.019,0-47.64548,16.13489a9.97935,9.97935,0,0,1-14.59337-3.81469l0,0A9.91658,9.91658,0,0,1,899.9159,267.447a92.46885,92.46885,0,0,1,23.63047-12.73077,102.83167,102.83167,0,0,1,36.35606-6.764q27.6171,0,43.68355,14.23257,16.06454,14.23487,16.06434,38.46994a74.79117,74.79117,0,0,1-7.75026,33.11491q-7.755,15.92577-25.78742,35.65157L928.901,431.424h89.481A9.72307,9.72307,0,0,1,1028.10508,441.14708Z" transform="translate(-111.2736 -121.18643)" fill="#2f2e41"/><ellipse cx="477.2392" cy="177.17398" rx="9.00291" ry="6.2629" fill="#e6e6e6"/><ellipse cx="534.38812" cy="191.2655" rx="9.00291" ry="6.2629" fill="#3f3d56"/><ellipse cx="454.5362" cy="221.79711" rx="9.00291" ry="6.2629" fill="#ff6584"/><ellipse cx="714.44637" cy="268.76883" rx="9.00291" ry="6.2629" fill="#e6e6e6"/><ellipse cx="771.59529" cy="282.86035" rx="9.00291" ry="6.2629" fill="#3f3d56"/><ellipse cx="691.74338" cy="313.39196" rx="9.00291" ry="6.2629" fill="#ff6584"/><ellipse cx="697.22341" cy="126.28796" rx="9.00291" ry="6.2629" fill="#e6e6e6"/><ellipse cx="754.37233" cy="140.37947" rx="9.00291" ry="6.2629" fill="#3f3d56"/><ellipse cx="674.52041" cy="170.91109" rx="9.00291" ry="6.2629" fill="#ff6584"/><ellipse cx="545.22995" cy="393.81966" rx="5.68984" ry="3.95815" fill="#e6e6e6"/><ellipse cx="581.34807" cy="402.7255" rx="5.68984" ry="3.95815" fill="#3f3d56"/><ellipse cx="530.88166" cy="422.02148" rx="5.68984" ry="3.95815" fill="#ff6584"/><ellipse cx="532.70416" cy="260.73313" rx="5.68984" ry="3.95815" fill="#e6e6e6"/><ellipse cx="568.82228" cy="269.63897" rx="5.68984" ry="3.95815" fill="#3f3d56"/><ellipse cx="518.35587" cy="288.93495" rx="5.68984" ry="3.95815" fill="#ff6584"/><ellipse cx="352.64591" cy="284.21899" rx="5.68984" ry="3.95815" fill="#e6e6e6"/><ellipse cx="388.76403" cy="293.12482" rx="5.68984" ry="3.95815" fill="#3f3d56"/><ellipse cx="338.29762" cy="312.42081" rx="5.68984" ry="3.95815" fill="#ff6584"/><ellipse cx="796.52864" cy="183.22979" rx="5.68984" ry="3.95815" fill="#e6e6e6"/><ellipse cx="832.64676" cy="192.13563" rx="5.68984" ry="3.95815" fill="#3f3d56"/><ellipse cx="782.18035" cy="211.43161" rx="5.68984" ry="3.95815" fill="#ff6584"/><path d="M201.15673,289.91354a9.15744,9.15744,0,0,1,7.43492,11.912L246.231,376.57343l-16.03386,4.779-33.80733-73.7853a9.20709,9.20709,0,0,1,4.767-17.65357Z" transform="translate(-111.2736 -121.18643)" fill="#ffb6b6"/><path d="M262.3703,416.92229s4.66552-1.2791.05112-10.43124c-3.69418-7.327-22.02585-54.43288-29.66412-62.88552a7.194,7.194,0,0,0-.4755-8.80681l-19.232,13.8133c-.61051,5.33,1.8119,9.467,3.91756,9.38714l5.841,13.621,14.91291,46.79948,21.293-.51291Z" transform="translate(-111.2736 -121.18643)" fill="#6c63ff"/><polygon points="145.084 321.167 146.958 338.549 145.855 361.341 196.34 355.343 201.084 321.167 195.04 321.227 145.084 321.167" fill="#ffb6b6"/><path d="M299.3,386.21149l-19-15h0l-9.97368-.57991-14.79926,9.48075-12.40673,6.31775.21253,32.98786,14.26452,59.07154,51-2,6.713-42.12345s15.59514-20.94623-1.19963-32.94249Z" transform="translate(-111.2736 -121.18643)" fill="#6c63ff"/><polygon points="118.898 636.741 129.936 636.741 135.188 594.167 118.898 594.167 118.898 636.741" fill="#ffb6b6"/><path d="M226.56938,750.36757l17.634-1.05251v7.55516l16.7651,11.57857a4.71924,4.71924,0,0,1-2.68163,8.60273H237.29292l-3.61862-7.4732-1.41288,7.4732h-7.91554Z" transform="translate(-111.2736 -121.18643)" fill="#2f2e41"/><polygon points="180.898 636.741 191.936 636.741 197.188 594.167 180.898 594.167 180.898 636.741" fill="#ffb6b6"/><path d="M288.56938,750.36757l17.63395-1.05251v7.55516l16.7651,11.57857a4.71924,4.71924,0,0,1-2.68163,8.60273H299.29292l-3.61862-7.4732-1.41288,7.4732h-7.91554Z" transform="translate(-111.2736 -121.18643)" fill="#2f2e41"/><path d="M225.40928,721.21381h.12l2.12275-69.22332a18.1011,18.1011,0,0,1,.23751-17.10521l.30391-.55014-.788-3.65272a23.26651,23.26651,0,0,1,1.32959-14.00271l1.98032-64.57252c-7.07489-45.85118,26.6419-75.75358,26.6419-75.75358h50.50822l10.84353,37.2558c7.16852,69.84052,5.8678,137.89795-5.50763,203.83417l.31012.15682c1.11665.38546,1.59558,1.93234,1.07,3.45519s-1.85694,2.44491-2.9736,2.05946l-26.67413-.92778c-1.11666-.38536-1.59576-1.93234-1.07-3.45519.52557-1.52285,1.85694-2.44482,2.97359-2.05945l1.81368.91734-3.86794-66.79789.42925-12.20106-.88431-13.84185-4.08866-62.26057-15.47616,76.563-15.80813,82.93272a2.908,2.908,0,0,1-1.96091,5.0635H225.40928a2.917,2.917,0,0,1,0-5.834Z" transform="translate(-111.2736 -121.18643)" fill="#2f2e41"/><path d="M300.17068,529.614a9.1575,9.1575,0,0,0,.227-14.04l-4.80023-83.0845-17.701,3.80645,9.08613,80.65139a9.20709,9.20709,0,0,0,13.18814,12.6667Z" transform="translate(-111.2736 -121.18643)" fill="#ffb6b6"/><path d="M287.11794,389.229s4.6569-1.31012,5.4232,8.91079c.61347,8.18262,9.20007,57.99514,7.01488,69.17616a7.194,7.194,0,0,1,4.13428,7.79061l-23.6009-1.91683c-3.27177-4.25177-3.32976-9.04541-1.48453-10.0629l-2.02-14.68227L265.2272,400.65766l18.50769-10.5414Z" transform="translate(-111.2736 -121.18643)" fill="#6c63ff"/><circle cx="160.52211" cy="223.865" r="23.87576" fill="#ffb8b8"/><path d="M220.345,395.22886q-7.57869-2.6859-15.15737-5.38157a15.25738,15.25738,0,0,1,3.28123-3.86194c4.81047-4.01685,11.45032-4.74278,17.55782-6.09782,6.11719-1.35509,12.757-4.133,14.993-9.97914,2.32295-6.07849-1.04535-12.64088-3.00055-18.83552-2.7392-8.64342-2.68112-18.2935.98729-26.5788,3.66835-8.2853,11.12126-15.00259,19.968-16.9771,8.84664-1.96488,18.84516,1.23889,24.2848,8.47889a14.97419,14.97419,0,0,1,18.02246,8.34337c1.268,3.17471,1.30671,6.998-.58072,9.8533s-5.9236,4.3169-8.96285,2.72951l1.7616-4.47173c-5.44933,1.84868-8.99185,11.702-8.25629,17.41267.72593,5.701,4.05554,10.69538,7.43359,15.351s6.97859,9.35966,8.43045,14.92514c2.09072,8.00462-.73562,16.7545-5.96229,23.17174-5.22673,6.41724-12.5925,10.77283-20.21963,13.9766a93.73124,93.73124,0,0,1-17.71272,5.459c1.084-2.11,2.15842-4.22006,3.24247-6.3301l-12.86349,7.782c-2.48753.242-4.99444.38718-7.50129.43557-7.298.12583-14.74117-.63885-21.41989-3.55221-6.68816-2.9231-12.56343-8.2176-14.9832-15.09941a19.56889,19.56889,0,0,1-1.08394-6.9302Q211.47405,397.13565,220.345,395.22886Z" transform="translate(-111.2736 -121.18643)" fill="#2f2e41"/><path d="M236.3,186.21149c0-33.13709-24.33756-65.02506-54.16093-65.02506S128.3,153.0744,128.3,186.21149c0,29.0968,18.64245,53.34973,43.37866,58.83288A43.74615,43.74615,0,0,0,169.3,257.71149c0,9.11267,5.10708.47494,12.83907.47494S197.3,266.82416,197.3,257.71149a44.28325,44.28325,0,0,0-2.53473-13.12482C218.57615,238.33209,236.3,214.57922,236.3,186.21149Z" transform="translate(-111.2736 -121.18643)" fill="#6c63ff"/><path d="M170.90194,246.42642l23.42974.5263c1.93125.04338,1.9307-2.95663,0-3l-23.42974-.5263c-1.93125-.04339-1.93071,2.95663,0,3Z" transform="translate(-111.2736 -121.18643)" fill="#3f3d56"/><path d="M410.3,777.21149c-.76735,2.27271-298.19856,2.05908-299.02643-.208C112.03994,774.72524,409.4711,774.93884,410.3,777.21149Z" transform="translate(-111.2736 -121.18643)" fill="#ccc"/></svg>