<svg id="a3df42b5-ffde-4ab4-9ca0-725f043ce33a" data-name="Layer 1" xmlns="http://www.w3.org/2000/svg" width="717.67004" height="542.28093" viewBox="0 0 717.67004 542.28093"><polygon points="598.744 522.951 588.558 522.794 584.314 483.434 599.347 483.665 598.744 522.951" fill="#ffb6b6"/><path d="M844.96,718.75956l-.07-.96-.32-4.79-1.23-18.12-3.32-.25-11.15-.84-1.79-.14-.1,6.98005L811.34,711.07951a4.35982,4.35982,0,0,0,.84,7.68,4.23192,4.23192,0,0,0,1.51.3l19.38.3.3-.6,3.14-6.25,1.08,6.25.12.67,7.3.11Z" transform="translate(-241.16498 -178.85954)" fill="#2f2e41"/><polygon points="619.542 509.96 611.511 516.225 583.521 488.229 595.374 478.981 619.542 509.96" fill="#ffb6b6"/><path d="M875.8,699.42954l-16.76-18.16-2.75,1.89-9.2,6.34-1.48,1.02,4.29,5.5-5.33,16.99-.3.95a4.34225,4.34225,0,0,0,.62,3.84c.03.05.07.09.1.14a3.92384,3.92384,0,0,0,.86.82,4.36507,4.36507,0,0,0,2.59.85,4.3181,4.3181,0,0,0,2.59-.85c.03-.02.05-.04.08-.06l15.27-11.92-1.61-7.49,5.27,4.63Z" transform="translate(-241.16498 -178.85954)" fill="#2f2e41"/><path d="M868.56118,442.42l-12.92579-47.84219a7.999,7.999,0,0,0-9.703-5.63912h0a7.99906,7.99906,0,0,0-5.645,10.14346l14.95027,49.2847,7.82193,30.33017a6.98032,6.98032,0,1,0,8.94971.39936Z" transform="translate(-241.16498 -178.85954)" fill="#ffb8b8"/><path d="M774.60178,432.71718l34.49805-35.57859a7.99905,7.99905,0,0,0-.11762-11.22205l0,0a7.99906,7.99906,0,0,0-11.60354.33783l-34.702,38.056-22.061,22.2354a6.98033,6.98033,0,1,0,4.2347,7.89455Z" transform="translate(-241.16498 -178.85954)" fill="#ffb8b8"/><path d="M800.10907,439.98719l6.79605,30.10332,44.29832-2.76864c-4.62655-15.53559-6.24223-18.67086-2.76569-29.48262Z" transform="translate(-241.16498 -178.85954)" fill="#ffb8b8"/><path d="M833.53106,369.10732H815.41949l-7.77794,13.3096-3.70614-.20461c-7.65184-.42244-26.08572,15.82014-26.08572,23.48363v0L788.44748,419.332l9.22882-8.30593s-11.4294,5.82845.33455,12.8304c0,0-2.09821,13.1924,0,13.05059s6.93108-2.82673,2.09822-.1418-4.4723,3.0455-3.84711,3.67069l.62519.62519,50.81777,8.53291s1.48642-9.85138,1.64661-11.60858-.91378,2.53869.16019-1.7572,2.68493-2.68492,1.074-4.29588,3.055-21.56893-1.89555-29.31046L846.589,426.71508l17.53475-5.5373c2.143-9.61818.19766-19.48728-4.61441-29.53221,0-7.42595-7.42581-10.211-14.85176-10.211h-.95125Z" transform="translate(-241.16498 -178.85954)" fill="#e6e6e6"/><path d="M852.94311,464.50982l1.53313,17.01357s17.21069,17.07694,11.374,38.99357-16.70473,81.62053-16.70473,81.62053,5.78547,53.99221-6.43935,77.43486l-18.38221-3.66246L813.34232,602.6607l-5.01016-83.29916-3.95411-23.65923,2.52707-27.45756Z" transform="translate(-241.16498 -178.85954)" fill="#2f2e41"/><polygon points="575.442 307.126 563.213 316.843 536.784 430.08 595.668 505.201 607.032 494.697 567.586 425.972 576.815 364.139 569.936 334.965 575.442 307.126" fill="#2f2e41"/><path d="M798.33265,343.953c6.19447,10.6713-5.46965,28.65176,6.28585,32.38551l-.96848-.96848c-7.09592-8.72828,7.7355-27.20211.63955-35.93044a21.32544,21.32544,0,0,1-2.81938-4.19086Z" transform="translate(-241.16498 -178.85954)" fill="#2f2e41"/><path d="M846.66573,342.33528a21.12785,21.12785,0,1,1-36.3399-14.65435l.10141-.10131c.169-.17754.33807-.355.51556-.52407a.00827.00827,0,0,0,.00841-.00846c.21974-.20282.43947-.40564.66767-.6a21.12229,21.12229,0,0,1,35.04685,15.88819Z" transform="translate(-241.16498 -178.85954)" fill="#2f2e41"/><circle cx="579.16763" cy="168.36412" r="17.71661" fill="#ffb8b8"/><path d="M832.99,330.18955a19.982,19.982,0,0,0-20.86-4.05c-.09.04-.19.07995-.28.12-.35.13995-.7.3-1.05.47l-.2.09v.03l-.12.09a.71106.71106,0,0,1-.29.16,10.93965,10.93965,0,0,0-8.25,3.43c-2.74,2.98-4.04,7.8-3.64,13.56l.01.18.16.1c.05005.03.09.06.14.09,1.4.87,2.73,1.64,4.02,2.32.78.42,1.54.8,2.3,1.15l.27.12c.29.14.59.27.88.4,7.32,3.2,14.07,3.7,20.55,1.55l.12-.04,2.18-3.65.69-1.15c.15.82.24,2.11.34,3.59a55.42737,55.42737,0,0,0,.77,6.89v.01995c.4,2.02,1.02,3.65,2.04,4.19a1.32706,1.32706,0,0,0,.5.19l1.62-2.14,4.26-5.62.06995-.33C840.95,344.13957,838.45,335.39951,832.99,330.18955Z" transform="translate(-241.16498 -178.85954)" fill="#2f2e41"/><path d="M903,360.99955c-3.59,4.76-12.99,12.81-18.26,15.59-.53.28-1.06.54-1.6.78a6.265,6.265,0,0,0,.29-3.98,10.57177,10.57177,0,0,0-2.84-4.13q-4.875-5.115-9.76-10.22a25.97475,25.97475,0,0,1,4.78,20.54,23.135,23.135,0,0,1-8.17-.24c-5.82-1.26-11.16-5.2-13.47-10.69-1.97-4.63995-1.68994-9.91-1.06-14.91.63-5,1.6-10.06.9-15.05-.69-5-3.44-10.07-8.13-11.93a2.097,2.097,0,0,1,.1,3.16,3.59348,3.59348,0,0,1-2.56006.86,4.94028,4.94028,0,0,1-.87-.07c-3.73-.59-6.46-3.71-8.84-6.65a3.323,3.323,0,0,1-2.67-2.18,2.67419,2.67419,0,0,1,0-1.87,3.14264,3.14264,0,0,1,5.2-.62,10.206,10.206,0,0,1,8.95-12.6c4.31-.41,11.16-1.06,14.01,2.21,4.44995,5.12,11.28,10.25,12,17,.71,6.74,4.44,5.4,6,12,1.56,6.61,7.97,8.89,14,12C897.74,353.47953,896.81,365.39951,903,360.99955Z" transform="translate(-241.16498 -178.85954)" fill="#2f2e41"/><path d="M828.79576,346.07837c6.19448,10.6713-5.46965,28.65176,6.28586,32.38551l-.96848-.96847c-7.09592-8.72829,7.7355-27.20212.63954-35.93045a21.32553,21.32553,0,0,1-2.81937-4.19086Z" transform="translate(-241.16498 -178.85954)" fill="#2f2e41"/><path d="M838.39208,351.78359a36.03771,36.03771,0,0,0-27.7451-24.11112c-.02533-.00836-.10987-.0422-.21974-.09285-.06757-.0423-.15211-.08459-.2366-.12679.25352-.1437.49858-.27039.75216-.39728a.00827.00827,0,0,0,.00841-.00846c.21974-.20282.43947-.40564.66767-.6l.6423.02538S834.83413,322.89766,838.39208,351.78359Z" transform="translate(-241.16498 -178.85954)" fill="#fd6584"/><path d="M485.28751,397.81614a6.48014,6.48014,0,0,1-7.14288,5.53822,6.21585,6.21585,0,0,1-1.005-.21495L449,437.23964l-9-12L473.17721,394.833a6.46218,6.46218,0,0,1,6.75253-4.07985,6.18429,6.18429,0,0,1,5.38088,6.89471Q485.30021,397.73216,485.28751,397.81614Z" transform="translate(-241.16498 -178.85954)" fill="#a0616a"/><path d="M402.03017,391.15011s18.77953-2.13157,22.77953,6.86843,14.0806,27.74016,14.0806,27.74016-5.16955,2.20211.1097-3.51906c2.36586-2.5639-2-1,1-2s4,0,4,0l10,17s-.80444,3.874-6,4,3-5-4,2c-3.61438,3.61438-6.06432,2.24046-6.06432,2.24046l-44.22047-24.47Z" transform="translate(-241.16498 -178.85954)" fill="#3f3d56"/><path d="M316.22613,525.4687a6.48016,6.48016,0,0,0,.17263-9.03676,6.21773,6.21773,0,0,0-.77288-.6774L329,467.23964l-16-7-6.40224,57.30107a6.4622,6.4622,0,0,0,.7635,7.85232,6.18429,6.18429,0,0,0,8.74374.19474Q316.16638,525.52907,316.22613,525.4687Z" transform="translate(-241.16498 -178.85954)" fill="#a0616a"/><path d="M352.67875,385.80186s-8.05307-11.79857-21.81685,3.52985-18.05512,55.30479-17.40945,57.8166,4.27534,1.07087-.03949,5.29134-7.31484,1.22047-4.31484,4.22047,2.0325,7.4911-3.09812,8.57952,22.0561,5.41164,22.0561,5.41164,2.90827-1.06261,3.03108-8.06957c.069-3.93553-1.931-5.93553,1.069-6.93553s-.68905-7.67794-.37354-8.832,13.31551-22.15406,13.31551-22.15406Z" transform="translate(-241.16498 -178.85954)" fill="#3f3d56"/><ellipse cx="526.34309" cy="674.03302" rx="5.25681" ry="7.55666" transform="translate(-457.61505 918.98461) rotate(-81.72174)" fill="#f2f2f2"/><ellipse cx="575.51461" cy="669.23496" rx="5.2568" ry="7.55666" transform="translate(-410.77522 963.53656) rotate(-81.72174)" fill="#f2f2f2"/><ellipse cx="512.87848" cy="634.22486" rx="5.25681" ry="7.55666" transform="translate(-429.74764 871.58374) rotate(-81.72174)" fill="#f2f2f2"/><ellipse cx="495.66792" cy="618.98177" rx="4.77581" ry="3.3223" transform="translate(-368.20914 931.09553) rotate(-89.56675)" fill="#f2f2f2"/><ellipse cx="488.42219" cy="588.61016" rx="4.77581" ry="3.3223" transform="translate(-345.02934 893.70806) rotate(-89.56675)" fill="#f2f2f2"/><ellipse cx="544.76735" cy="642.06207" rx="4.77581" ry="3.3223" transform="translate(-342.56062 1003.09934) rotate(-89.56675)" fill="#f2f2f2"/><ellipse cx="521.00555" cy="653.92606" rx="4.77581" ry="3.3223" transform="translate(-378.0064 991.1125) rotate(-89.56675)" fill="#f2f2f2"/><ellipse cx="554.08281" cy="675.85381" rx="4.77581" ry="3.3223" transform="translate(-367.10637 1045.95075) rotate(-89.56675)" fill="#f2f2f2"/><ellipse cx="718.34309" cy="322.03302" rx="5.25681" ry="7.55666" transform="translate(55.07299 807.66526) rotate(-81.72174)" fill="#f2f2f2"/><ellipse cx="767.51461" cy="317.23496" rx="5.2568" ry="7.55666" transform="translate(101.91283 852.21721) rotate(-81.72174)" fill="#f2f2f2"/><ellipse cx="704.87848" cy="282.22486" rx="5.25681" ry="7.55666" transform="translate(82.94041 760.26439) rotate(-81.72174)" fill="#f2f2f2"/><ellipse cx="687.66792" cy="266.98177" rx="4.77581" ry="3.3223" transform="translate(174.32898 773.7517) rotate(-89.56675)" fill="#f2f2f2"/><ellipse cx="680.42219" cy="236.61016" rx="4.77581" ry="3.3223" transform="translate(197.50879 736.36423) rotate(-89.56675)" fill="#f2f2f2"/><ellipse cx="736.76735" cy="290.06207" rx="4.77581" ry="3.3223" transform="translate(199.97751 845.75551) rotate(-89.56675)" fill="#f2f2f2"/><ellipse cx="713.00555" cy="301.92606" rx="4.77581" ry="3.3223" transform="translate(164.53172 833.76867) rotate(-89.56675)" fill="#f2f2f2"/><ellipse cx="746.08281" cy="323.85381" rx="4.77581" ry="3.3223" transform="translate(175.43176 888.60693) rotate(-89.56675)" fill="#f2f2f2"/><path d="M702.5,178.85954h-205a15.5,15.5,0,0,0,0,31h205a15.5,15.5,0,0,0,0-31Z" transform="translate(-241.16498 -178.85954)" fill="#e6e6e6"/><path d="M882.07006,234.64427H317.92994a2.46274,2.46274,0,0,1,0-4.92428H882.07006a2.46274,2.46274,0,0,1,0,4.92428Z" transform="translate(-241.16498 -178.85954)" fill="#e6e6e6"/><ellipse cx="104.93789" cy="15.64417" rx="8.45661" ry="8.64507" fill="#e6e6e6"/><ellipse cx="134.15165" cy="15.64417" rx="8.45661" ry="8.64507" fill="#e6e6e6"/><ellipse cx="163.3654" cy="15.64417" rx="8.45661" ry="8.64507" fill="#e6e6e6"/><path d="M437.8418,201.3365a.9967.9967,0,0,1-.71485-.30078l-5.70605-5.833a.99953.99953,0,0,1,0-1.39843l5.70605-5.83252a1,1,0,1,1,1.42969,1.39843l-5.022,5.1333,5.022,5.13379a1,1,0,0,1-.71484,1.69922Z" transform="translate(-241.16498 -178.85954)" fill="#e6e6e6"/><path d="M447.43018,201.3365a1,1,0,0,1-.71485-1.69922l5.02149-5.13379-5.02149-5.1333a1,1,0,0,1,1.42969-1.39843l5.70557,5.83252a.99953.99953,0,0,1,0,1.39843l-5.70557,5.833A.9967.9967,0,0,1,447.43018,201.3365Z" transform="translate(-241.16498 -178.85954)" fill="#e6e6e6"/><path d="M833.94,186.85954H823.33a2.18935,2.18935,0,0,0-2.19,2.19v10.62a2.18935,2.18935,0,0,0,2.19,2.19h10.61a2.1979,2.1979,0,0,0,2.2-2.19v-10.62A2.1979,2.1979,0,0,0,833.94,186.85954Z" transform="translate(-241.16498 -178.85954)" fill="#e6e6e6"/><path d="M807.94,186.85954H797.33a2.18935,2.18935,0,0,0-2.19,2.19v10.62a2.18935,2.18935,0,0,0,2.19,2.19h10.61a2.1979,2.1979,0,0,0,2.2-2.19v-10.62A2.1979,2.1979,0,0,0,807.94,186.85954Z" transform="translate(-241.16498 -178.85954)" fill="#e6e6e6"/><path d="M858.44,187.35954H847.83a2.18935,2.18935,0,0,0-2.19,2.19v10.62a2.18935,2.18935,0,0,0,2.19,2.19h10.61a2.1979,2.1979,0,0,0,2.2-2.19v-10.62A2.1979,2.1979,0,0,0,858.44,187.35954Z" transform="translate(-241.16498 -178.85954)" fill="#e6e6e6"/><path d="M588.45,191.39951H503.64a2.67,2.67,0,1,0,0,5.34h84.81a2.67,2.67,0,0,0,0-5.34Z" transform="translate(-241.16498 -178.85954)" fill="#fff"/><path d="M843.72062,450.93692a70.25477,70.25477,0,0,0-99.35532,0c-.12252.12246-.23464.25129-.35609.3745L744,451.30222v42.45859c-.17266-.00246-.34336-.013-.51658-.013a36.16057,36.16057,0,0,0,0,72.32115c.17322,0,.34392-.0106.51658-.01306v83.22646l93.41988-93.41989a70.15065,70.15065,0,0,0,6.30074-104.9255Z" transform="translate(-241.16498 -178.85954)" fill="#6c63ff"/><polygon points="130.66 530.521 140.561 530.52 145.271 492.33 130.658 492.331 130.66 530.521" fill="#a0616a"/><path d="M371.47619,719.70917l30.447-.00116v-.385a11.85147,11.85147,0,0,0-11.85083-11.85064h-.00073l-5.56152-4.21924L374.13354,707.473l-2.65784.00006Z" transform="translate(-241.16498 -178.85954)" fill="#2f2e41"/><polygon points="87.66 530.521 97.561 530.52 102.271 492.33 87.658 492.331 87.66 530.521" fill="#a0616a"/><path d="M328.47619,719.70917l30.447-.00116v-.385a11.85147,11.85147,0,0,0-11.85083-11.85064h-.00073l-5.56152-4.21924L331.13354,707.473l-2.65784.00006Z" transform="translate(-241.16498 -178.85954)" fill="#2f2e41"/><path d="M401.15615,502.104s11.27034,15.7116,3.13517,42.8558,2.43176,51.41192.1483,56.27806-6.88025,9.48743-3.08186,13.17679,5.79839,6.68935,2.79839,7.68935-19,71-19,71l-17,1s-6.15844-32.51694.42078-58.75847c0,0-1.44432-19.05013,1.56745-24.64583s2.42122-.54845,2.2165-7.57207a61.67021,61.67021,0,0,0-2.20473-15.02363c-1-4-1.57922-44.315-1.57922-44.315l-10.10039,53.79836a13.32144,13.32144,0,0,0-.7298,5.7607c.40941,2.7559.413,6.874-.0888,8.315s-1.06061,1.74395-.7812,4.59245-11.72059,74.39069-11.72059,74.39069h-19l-9-75.5422a24.75172,24.75172,0,0,0,4-6c2-4,2.07788-4.22047,1.03894-7.11023s-1.03894-8.51969-1.03894-10.20473-1.03892-78.18208,11.98054-89.43356S401.15615,502.104,401.15615,502.104Z" transform="translate(-241.16498 -178.85954)" fill="#2f2e41"/><path d="M342.8097,382.01854l18.98059-4.91845,8.86-12.22,21.04131,2.58668,4.47906,16.66817,14.97969,8.6951s-8.27947,87.57155-6.31006,92.38S402.03071,494.04117,396,500.23964s5.01088-.71778,6.41029,6.03056,11.60059,13.89007,0,13.8192S327,523.23964,329,515.23964,324.7782,505.05,327.794,500.03429s5.0454-2.21287,4.03057-9.61431-.01482-12.40144-.01482-16.40144S335.16029,433.67,335.16029,433.67Z" transform="translate(-241.16498 -178.85954)" fill="#e6e6e6"/><circle cx="143.1644" cy="160.87326" r="23.0557" fill="#a0616a"/><path d="M369.15615,357.64618c5.45-4.26-2-23,7-19,0,0,11-7,13.21-2.4,2.559,5.32635,11.66,2.91,17.25,1.03a13.58179,13.58179,0,0,1-.93-3.19,25.53831,25.53831,0,0,0,3.27,2.19,6.63788,6.63788,0,0,0,2-1.64,4.06186,4.06186,0,0,0,.51-4.61c-.93-1.43-2.85-1.87-3.98-3.14a1.36734,1.36734,0,0,1-.18768-1.25624,3.59357,3.59357,0,0,0-3.21981-4.50037,1.29233,1.29233,0,0,1-.61253-.1334,14.01094,14.01094,0,0,1-2.61-2.06,25.90185,25.90185,0,0,0,3.94-.11c.27-.03.54-.06.81-.1a8.85616,8.85616,0,0,0-5.47-4.97,26.01548,26.01548,0,0,0-7.92-1.11c-1.55-.05-3.1-.1-4.64-.15a46.39806,46.39806,0,0,0-9.79.34,23.90837,23.90837,0,0,0-16.57,11.84C357.82613,330.82617,354.15615,350.64618,369.15615,357.64618Z" transform="translate(-241.16498 -178.85954)" fill="#2f2e41"/><path d="M699.72062,341.93692a70.25477,70.25477,0,0,0-99.35532,0c-.12252.12246-.23464.25129-.35609.3745L600,342.30222v42.45859c-.17266-.00246-.34336-.013-.51658-.013a36.16058,36.16058,0,0,0,0,72.32115c.17322,0,.34392-.0106.51658-.01306v83.22646l93.41988-93.41989a70.15065,70.15065,0,0,0,6.30074-104.9255Z" transform="translate(-241.16498 -178.85954)" fill="#f2f2f2"/><path d="M599.48342,457.08457a36.16057,36.16057,0,0,1,0-72.32115c.17322,0,.34392.0106.51658.01306v-42.4586l-.3653-.3653-.37451.37451a70.24894,70.24894,0,1,0-92.68007,105.28154l93.05458,93.05464L600,540.298V457.07152C599.82734,457.074,599.65664,457.08457,599.48342,457.08457Z" transform="translate(-241.16498 -178.85954)" fill="#6c63ff"/><path d="M411,520.23964c3.62,6.46-16.77,8.36-38.86,7.49a14.65017,14.65017,0,0,0-2.09-4.58c-2.44-3.54.51-27.49-3.05-29.91,1.61,3.9-4.9,29.82-6.26,33.81-19.98-1.6-38.19-5.23-37.97-9.55.06-1.26,4.23-25.26,6.25-27.08,2.01-1.82-.02-36.18,0-43.55.01-7.38,10.98-61.63,10.98-63.63s26-12,26-12l11,63,16.72-59.24a35.35471,35.35471,0,0,0,5.63,6.03c3.35,2.79,16.65,14.21,16.65,14.21l-11.39,84.28s5.39,12.72,5.11,17.77a35.41981,35.41981,0,0,1-2.33,11.71C405.77,513.74965,405.94,511.1996,411,520.23964Z" transform="translate(-241.16498 -178.85954)" fill="#3f3d56"/><circle cx="358.83502" cy="239.38011" r="15" fill="#fff"/><circle cx="495.83502" cy="349.38011" r="15" fill="#3f3d56"/><path d="M241.165,719.95046a1.18646,1.18646,0,0,0,1.19006,1.19h715.29a1.19,1.19,0,0,0,0-2.38H242.355A1.18651,1.18651,0,0,0,241.165,719.95046Z" transform="translate(-241.16498 -178.85954)" fill="#ccc"/><path d="M606.5,416.23964H602v-4.5a2,2,0,0,0-4,0v4.5h-4.5a2,2,0,0,0,0,4H598v4.5a2,2,0,0,0,4,0v-4.5h4.5a2,2,0,0,0,0-4Z" transform="translate(-241.16498 -178.85954)" fill="#3f3d56"/></svg>