<svg id="e7437954-7eef-4a58-abc5-dbe1a7594f9a" data-name="Layer 1" xmlns="http://www.w3.org/2000/svg" width="649.85177" height="576.59578" viewBox="0 0 649.85177 576.59578"><path d="M479.21536,697.10485l.70715-15.90018a51.35269,51.35269,0,0,1,23.9526-6.06332c-11.504,9.40539-10.06637,27.53575-17.86583,40.18378a30.88876,30.88876,0,0,1-22.651,14.27411l-9.627,5.8943a51.75977,51.75977,0,0,1,10.90965-41.94291,49.997,49.997,0,0,1,9.1885-8.53763C476.13509,691.09262,479.21536,697.10485,479.21536,697.10485Z" transform="translate(-275.07412 -161.70211)" fill="#f2f2f2"/><path d="M909.84962,436.55024c1.23112-19.46268,2.42245-39.34751-2.72269-58.1581s-17.87431-36.68854-36.42656-42.69906c-15.57756-5.04671-32.58093-1.16587-48.83211-3.17277-31.90193-3.93967-56.63486-29.75206-74.03759-56.77792-17.40277-27.02594-30.77739-57.27755-53.90189-79.6049-38.117-36.80284-100.29531-44.72652-147.55488-20.77062-47.25953,23.956-77.36335,77.10423-76.07951,130.07313,1.2839,52.96891,32.72918,103.61087,78.39555,130.47968,16.776,9.87049,36.179,16.863,55.48889,14.41614,16.755-2.12308,31.97892-11.12589,48.65505-13.79866,26.21872-4.20226,52.2704,7.65209,74.94762,21.466,22.67715,13.8139,44.58172,30.18754,70.35125,36.59165,45.83112,11.3897,98.03015-15.47048,115.40388-59.38365Z" transform="translate(-275.07412 -161.70211)" fill="#f2f2f2"/><path d="M671.78041,398.24521H413.2139a20.363,20.363,0,0,1-20.3403-20.3403V249.21114a20.363,20.363,0,0,1,20.3403-20.3403H671.78041a20.363,20.363,0,0,1,20.3403,20.3403V377.90491A20.363,20.363,0,0,1,671.78041,398.24521Z" transform="translate(-275.07412 -161.70211)" fill="#fff"/><path d="M671.78038,399.24543H413.214a21.36451,21.36451,0,0,1-21.34033-21.34033V249.21125A21.36451,21.36451,0,0,1,413.214,227.87092H671.78038a21.36451,21.36451,0,0,1,21.34033,21.34033V377.9051A21.36451,21.36451,0,0,1,671.78038,399.24543ZM413.214,229.87092a19.36254,19.36254,0,0,0-19.34033,19.34033V377.9051A19.36254,19.36254,0,0,0,413.214,397.24543H671.78038a19.36254,19.36254,0,0,0,19.34033-19.34033V249.21125a19.36254,19.36254,0,0,0-19.34033-19.34033Z" transform="translate(-275.07412 -161.70211)" fill="#ccc"/><path d="M683.67438,434.822H610.88581a8.07569,8.07569,0,0,1,0-16.15137h72.78857a8.07569,8.07569,0,1,1,0,16.15137Z" transform="translate(-275.07412 -161.70211)" fill="#e6e6e6"/><path d="M515.32183,357.81439a8.69449,8.69449,0,0,1-4.19433-1.09244,8.58134,8.58134,0,0,1-4.50753-7.61979V277.2798a8.69394,8.69394,0,0,1,13.35561-7.33865l68.13087,35.91118a8.69448,8.69448,0,0,1,0,14.6773l-68.13087,35.91118A8.65282,8.65282,0,0,1,515.32183,357.81439Z" transform="translate(-275.07412 -161.70211)" fill="#f2f2f2"/><path d="M915.42585,304.00621H807.3736a8.5095,8.5095,0,0,1-8.5-8.5V241.72643a8.50951,8.50951,0,0,1,8.5-8.5H915.42585a8.50951,8.50951,0,0,1,8.5,8.5v53.77978A8.5095,8.5095,0,0,1,915.42585,304.00621Z" transform="translate(-275.07412 -161.70211)" fill="#fff"/><path d="M915.42588,305.00618H807.37364a9.51081,9.51081,0,0,1-9.5-9.5V241.72639a9.51081,9.51081,0,0,1,9.5-9.5H915.42588a9.5108,9.5108,0,0,1,9.5,9.5v53.77979A9.5108,9.5108,0,0,1,915.42588,305.00618ZM807.37364,234.22639a7.5082,7.5082,0,0,0-7.5,7.5v53.77979a7.5082,7.5082,0,0,0,7.5,7.5H915.42588a7.5082,7.5082,0,0,0,7.5-7.5V241.72639a7.5082,7.5082,0,0,0-7.5-7.5Z" transform="translate(-275.07412 -161.70211)" fill="#ccc"/><path d="M897.67438,330.32213H824.88581a8.07568,8.07568,0,1,1,0-16.15136h72.78857a8.07568,8.07568,0,1,1,0,16.15136Z" transform="translate(-275.07412 -161.70211)" fill="#e6e6e6"/><path d="M915.42585,457.36205H807.3736a8.50982,8.50982,0,0,1-8.5-8.5V395.08226a8.50951,8.50951,0,0,1,8.5-8.5H915.42585a8.50951,8.50951,0,0,1,8.5,8.5v53.77979A8.50982,8.50982,0,0,1,915.42585,457.36205Z" transform="translate(-275.07412 -161.70211)" fill="#fff"/><path d="M915.42588,458.36213H807.37364a9.51081,9.51081,0,0,1-9.5-9.5V395.08235a9.51081,9.51081,0,0,1,9.5-9.5H915.42588a9.5108,9.5108,0,0,1,9.5,9.5v53.77978A9.5108,9.5108,0,0,1,915.42588,458.36213ZM807.37364,387.58235a7.5082,7.5082,0,0,0-7.5,7.5v53.77978a7.5082,7.5082,0,0,0,7.5,7.5H915.42588a7.5082,7.5082,0,0,0,7.5-7.5V395.08235a7.50819,7.50819,0,0,0-7.5-7.5Z" transform="translate(-275.07412 -161.70211)" fill="#ccc"/><path d="M897.67438,483.822H824.88581a8.07569,8.07569,0,0,1,0-16.15137h72.78857a8.07569,8.07569,0,1,1,0,16.15137Z" transform="translate(-275.07412 -161.70211)" fill="#e6e6e6"/><path d="M849.78074,287.755a3.63324,3.63324,0,0,1-1.75276-.45653,3.586,3.586,0,0,1-1.88365-3.18422V254.10044a3.63311,3.63311,0,0,1,5.58117-3.06675l28.47118,15.00691a3.63333,3.63333,0,0,1,0,6.13349L851.7255,287.181A3.616,3.616,0,0,1,849.78074,287.755Z" transform="translate(-275.07412 -161.70211)" fill="#6c63ff"/><path d="M849.51805,442.755a3.6333,3.6333,0,0,1-1.75277-.45653,3.586,3.586,0,0,1-1.88364-3.18422V409.10044a3.6331,3.6331,0,0,1,5.58116-3.06675L879.934,421.0406a3.63333,3.63333,0,0,1,0,6.13349L851.4628,442.181A3.61593,3.61593,0,0,1,849.51805,442.755Z" transform="translate(-275.07412 -161.70211)" fill="#6c63ff"/><path d="M479.5152,367.29768l-55.30415.37145s-31.49717-10.154-45.78146-8.03243l-5.4616,21.45486,39.2346,12.99944,68.28349-9.90726a9.77391,9.77391,0,1,0-.97088-16.88606Z" transform="translate(-275.07412 -161.70211)" fill="#a0616a"/><path d="M411.73437,396.16856l-65.61366-18.87088L340.14721,355.04a17.97372,17.97372,0,0,1,1.38938-18.92117h0c5.60148-7.58645,9.97994-.05089,17.92946,5.02222,13.93572.98521,48.71955,12.88719,62.83954,26.66819l-1.11257,8.47125Z" transform="translate(-275.07412 -161.70211)" fill="#3f3d56"/><path d="M468.82256,378.00073a8.69444,8.69444,0,0,1-4.19432-1.09245,8.58133,8.58133,0,0,1-4.50753-7.61978V297.46614a8.69393,8.69393,0,0,1,13.35561-7.33865l68.13086,35.91118a8.69448,8.69448,0,0,1,0,14.6773l-68.13086,35.91118A8.65288,8.65288,0,0,1,468.82256,378.00073Z" transform="translate(-275.07412 -161.70211)" fill="#6c63ff"/><polygon points="147.978 562.236 161.937 562.235 168.577 508.395 147.976 508.396 147.978 562.236" fill="#a0616a"/><path d="M419.49161,719.38088l3.92889-.00015,15.33913-6.238,8.22129,6.23709h.00112a17.51925,17.51925,0,0,1,17.51834,17.51809v.56929l-45.00793.00169Z" transform="translate(-275.07412 -161.70211)" fill="#2f2e41"/><polygon points="48.578 549.095 61.8 553.572 85.358 504.706 65.845 498.099 48.578 549.095" fill="#a0616a"/><path d="M321.74141,705.33875l3.72137,1.26,16.5295-.98859,5.78646,8.54447.00106.00036a17.51925,17.51925,0,0,1,10.974,22.2114l-.1826.53921-42.63057-14.43426Z" transform="translate(-275.07412 -161.70211)" fill="#2f2e41"/><path d="M339.83194,492.03052s-1.6299,19.55886,2.44486,38.30276,12.84391,80.9644,12.84391,80.9644c-17.76169,29.19372-28.05554,57.92114-30,87l25,2,35.79644-84.93431L389.544,530.3333l26.07847,57.86161-1.341,4.47013a5.03629,5.03629,0,0,0,2.15278,5.71677h0s-2.44165,15.89157-.81174,15.89157,5.70466,2.44483,5.70466,2.44483c-10.15973,31.628-11.52362,61.91681-2.20645,90.57947l22-1,14.43445-124.62239-10.59438-67.641-.815-13.03924-3.66729.15077-1.86734-5.448-3.42985-9.372Z" transform="translate(-275.07412 -161.70211)" fill="#2f2e41"/><path d="M338.42331,496.13871l-.14524-.20374c-7.75717-10.86019,3.90962-36.957,5.66925-40.74l-7.41137-2.40506-6.48062-54.84016-4.73968-18.9449a41.59241,41.59241,0,0,1,11.80527-40.3079l10.9557-10.32976,13.3146-19.70087H382.8625l7.362,13.90592A31.2951,31.2951,0,0,1,414.43832,354.524l-1.6685,36.47111,6.53195,45.40971.004,8.218,11.34007,18.59269,2.47032,11.52712c1.02227,1.349,7.7699,10.34607,7.7699,12.80565,0,.36928-.27258.72622-.85753,1.1222-4.59843,3.11377-30.01475,9.46188-41.26372,4.96055-11.98234-4.791-59.61407,2.39631-60.094,2.46952Z" transform="translate(-275.07412 -161.70211)" fill="#3f3d56"/><path d="M557.74419,737.10789a1.18646,1.18646,0,0,1-1.18292,1.19H276.26412a1.19,1.19,0,0,1,0-2.38h280.29a1.18651,1.18651,0,0,1,1.19006,1.18293Z" transform="translate(-275.07412 -161.70211)" fill="#ccc"/><circle cx="99.82636" cy="112.16848" r="28.43602" fill="#a0616a"/><path d="M480.46012,295.70222l-43.87271,33.673s-31.24241,10.91269-41.35164,21.22509l8.5935,20.40323,39.12914-13.3135,48.46682-49.10963a9.77391,9.77391,0,1,0-10.96511-12.8782Z" transform="translate(-275.07412 -161.70211)" fill="#a0616a"/><path d="M443.83891,359.62917,382.89208,377.4753l-20.955-7.43619a17.97371,17.97371,0,0,1-10.31137-15.92535h0c-.11218-9.42965,7.92681-6.06361,17.32707-6.8162,11.70626-7.62485,46.62425-19.12731,66.19988-16.66061l4.22542,7.426Z" transform="translate(-275.07412 -161.70211)" fill="#3f3d56"/><path d="M394.39936,241.03909c-2.038-.06054-1.3384-3.902-2.98037-5.1275q-.012.05577-.02485.11132a4.00215,4.00215,0,0,1-7.64816.32629,6.08262,6.08262,0,0,0-3.862-4.05152c-.10225,3.56059-2.79555,6.65086-6.0086,8.18873s-6.8766,1.79379-10.43833,1.84647c-3.56172.05261-7.17472-.06663-10.6286.805-3.4538.87154-6.81329,2.92074-8.28892,6.16283-1.47571,3.24208-.42282,7.70573,2.8039,9.21464-2.4997.01331-4.62077,2.076-5.48509,4.42158a17.557,17.557,0,0,0-.542,7.41888c.70251,9.19517,2.41529,19.09484,9.1109,25.43625,5.103,4.83307,12.40716,6.78,19.43551,6.7519,7.02835-.02818,5.79256-.67419,12.58822-2.468,0,0,6.46081-18.52156,4.83392-20.3436-1.62688-1.822-2.97817-4.15349-2.68374-6.57834s2.90035-4.59706,5.16184-3.674c-.38025-.9721-.66675-1.15727-.84619-1.10791a8.597,8.597,0,0,0,.29883-.845,9.6159,9.6159,0,0,1,6.00541-6.36825,7.4573,7.4573,0,0,1,8.15078,2.4667C410.793,256.64677,406.17651,241.38883,394.39936,241.03909Z" transform="translate(-275.07412 -161.70211)" fill="#2f2e41"/></svg>