<svg id="a86ed9f7-2c32-434b-8290-cc0dcaafbc5c" data-name="Layer 1" xmlns="http://www.w3.org/2000/svg" width="927.82501" height="430.53147" viewBox="0 0 927.82501 430.53147"><path d="M883.77359,664.28591H530.18448V456.80007l-1.62524-1.04492,57.395-55.90186a156.80428,156.80428,0,0,1,108.44922-44.66406l105.50927-.96435.15161.18017L884.0192,454.283l-.24756,2.76514Z" transform="translate(-136.08749 -234.73426)" fill="#f2f2f2"/><rect x="460.69241" y="158.64219" width="211.47168" height="2" fill="#fff"/><rect x="439.69241" y="179.64219" width="211.47168" height="2" fill="#fff"/><rect id="a2154f00-ed14-462d-b588-8472cd78aad3" data-name="Rectangle 371" x="735.65002" y="317.13146" width="38.44" height="33.977" fill="#fff"/><rect id="eab3f4c7-6f92-4328-96cc-d5b6a118827f" data-name="Rectangle 372" x="735.65002" y="258.32247" width="38.44" height="33.438" fill="#fff"/><rect x="690.18366" y="122.85463" width="34.46997" height="119.29999" fill="#f2f2f2"/><path d="M883.77359,664.28493H694.54947V526.7864a133.786,133.786,0,0,1,31.97-86.74561l73.249-85.876,84.00512,100.00586Z" transform="translate(-136.08749 -234.73426)" fill="#e6e6e6"/><rect id="a6590c42-447c-4063-b06f-22960ea9e1c6" data-name="Rectangle 374" x="647.29881" y="326.14745" width="38.44" height="33.977" fill="#fff"/><rect id="a578d772-16a5-40c1-af18-cd3a687ecce1" data-name="Rectangle 375" x="647.29881" y="267.33746" width="38.44" height="33.438" fill="#fff"/><rect id="ed02d0f4-f24a-4a19-b524-9521b83f0535" data-name="Rectangle 378" x="463.685" y="317.13146" width="38.44" height="33.977" fill="#fff"/><rect id="b847f630-38c4-41e6-9edb-729b8a62aeb5" data-name="Rectangle 379" x="463.685" y="258.32247" width="38.44" height="33.438" fill="#fff"/><rect x="407.13361" y="57.40461" width="41.83008" height="144.80005" fill="#f2f2f2"/><path d="M612.90152,664.284H183.9484V412.50417l-1.908-1.22851.45019-.438,78.34913-76.31494A158.22228,158.22228,0,0,1,370.27433,289.451l140.894-1.28711.15185.18018L613.19181,409.53493l-.29224,3.3125Z" transform="translate(-136.08749 -234.73426)" fill="#f2f2f2"/><path d="M612.90152,664.284h-229.458V479.40652a113.12976,113.12976,0,0,1,27.03442-73.353L511.0463,288.1487,612.90152,409.40163Z" transform="translate(-136.08749 -234.73426)" fill="#e6e6e6"/><rect id="ea84a9e5-6c52-4e5e-8073-8fad2571a91f" data-name="Rectangle 381" x="363.96631" y="304.15148" width="37.105" height="32.797" fill="#fff"/><rect id="f19b6ec7-0e8c-4fff-907a-924d40e6f96c" data-name="Rectangle 381" x="363.96631" y="247.15148" width="37.105" height="32.797" fill="#fff"/><rect id="acaff666-bc25-4fb5-a952-92ce00b7aba4" data-name="Rectangle 385" x="132.21701" y="293.20745" width="46.657" height="41.239" fill="#fff"/><rect id="b161f5b0-b707-4bd0-97aa-6c4dd340fe66" data-name="Rectangle 386" x="132.21701" y="221.82748" width="46.657" height="40.585" fill="#fff"/><rect id="bed8a224-40da-4f11-a19c-2b4f6eae74c1" data-name="Rectangle 387" y="428.03045" width="927.82501" height="2.285" fill="#3f3d56"/><ellipse id="eaa25ba1-fb02-4ae1-bc1b-a61530bf454c" data-name="Ellipse 519" cx="139.265" cy="318.16147" rx="33.252" ry="67.848" fill="#3f3d56"/><path id="b4bf8935-d3ff-4e35-bb4f-d79f2288d23a" data-name="Path 2702" d="M278.4235,663.95173c-13.318-79.9-.134-159.52,0-160.314l2.591.439c-.134.79-13.242,79.988,0,159.444Z" transform="translate(-136.08749 -234.73426)" fill="#6c63ff"/><rect id="b9f9a211-6e99-401f-90e8-cf0ebb439f20" data-name="Rectangle 388" x="273.15961" y="546.18961" width="34.1" height="2.628" transform="translate(-360.01398 -33.12933) rotate(-28.142)" fill="#6c63ff"/><rect id="e0f316f7-4b6f-4546-8015-4a3c859d357e" data-name="Rectangle 389" x="257.16114" y="538.51392" width="2.628" height="34.101" transform="translate(-489.40112 286.54124) rotate(-61.842)" fill="#6c63ff"/><ellipse id="f9fb50b4-1b5d-416e-9e0d-266f30cba72e" data-name="Ellipse 520" cx="58.747" cy="270.41145" rx="47.988" ry="97.915" fill="#6c63ff"/><path id="a800d1c2-f743-4d93-bec2-cff0f953733c" data-name="Path 2703" d="M200.17949,665.26571c-19.194-115.162-.194-229.905,0-231.051l1.911.324c-.194,1.143-19.138,115.577,0,230.409Z" transform="translate(-136.08749 -234.73426)" fill="#3f3d56"/><rect id="fb01bfd3-0095-4a66-b946-3896d80fc39c" data-name="Rectangle 390" x="191.67182" y="496.39623" width="49.213" height="1.939" transform="translate(-345.10608 -73.92688) rotate(-28.142)" fill="#3f3d56"/><rect id="b67993a5-f0ea-4993-bd83-fcb2f25516f5" data-name="Rectangle 391" x="169.50882" y="484.39838" width="1.939" height="49.213" transform="translate(-494.82263 184.37099) rotate(-61.842)" fill="#3f3d56"/><path id="a58bbeb0-9bd3-48cd-81c7-bf267a60ca0e" data-name="Path 2708" d="M797.90952,308.06674l10.519-8.414c-8.172-.9-11.53,3.555-12.9,7.083-6.384-2.651-13.335.823-13.335.823l21.047,7.641a15.92584,15.92584,0,0,0-5.328-7.134Z" transform="translate(-136.08749 -234.73426)" fill="#3f3d56"/><path id="f9b938cf-521f-4b64-a4af-443f90f250ff" data-name="Path 2709" d="M607.81448,243.26574l10.519-8.414c-8.172-.9-11.53,3.555-12.9,7.083-6.384-2.651-13.335.823-13.335.823l21.047,7.641A15.9271,15.9271,0,0,0,607.81448,243.26574Z" transform="translate(-136.08749 -234.73426)" fill="#3f3d56"/><path id="a8da215e-7841-4236-9b2d-2b5040889003" data-name="Path 2710" d="M872.57552,258.93173l10.519-8.414c-8.172-.9-11.53,3.555-12.9,7.083-6.384-2.651-13.335.823-13.335.823l21.047,7.641a15.926,15.926,0,0,0-5.328-7.134Z" transform="translate(-136.08749 -234.73426)" fill="#3f3d56"/><path id="f0e6e0e6-42da-4f68-a4c7-39fa16634762" data-name="Path 2712" d="M425.41149,649.54571a15.90711,15.90711,0,0,0-7.966,2.138,17.12,17.12,0,0,0-28.6,12.718h52.507a15.987,15.987,0,0,0-15.94-14.855Z" transform="translate(-136.08749 -234.73426)" fill="#3f3d56"/><path id="a1a48b26-c08c-4af6-a63a-aec9264485a6" data-name="Path 2713" d="M698.51952,649.54571a15.90719,15.90719,0,0,0-7.966,2.138,17.12,17.12,0,0,0-28.6,12.718h52.507A15.987,15.987,0,0,0,698.51952,649.54571Z" transform="translate(-136.08749 -234.73426)" fill="#3f3d56"/><g id="b7f6eb98-a688-40b6-a6fe-b95f7faf89e9" data-name="Group 204"><path id="a2b702d6-67ae-4451-8add-a2f537c8659d" data-name="Path 2714" d="M563.9895,638.08373h-74.586v2.406h11.632v22.857h2.406v-22.857h45.306v22.857h2.406v-22.857h12.835Z" transform="translate(-136.08749 -234.73426)" fill="#3f3d56"/><rect id="e92a1475-8072-45d0-b33d-944691a78c33" data-name="Rectangle 400" x="353.46301" y="396.15148" width="74.586" height="2.406" fill="#3f3d56"/><rect id="b6a0a497-0aca-42fa-836e-077aa391619e" data-name="Rectangle 401" x="353.46301" y="390.13647" width="74.586" height="2.406" fill="#3f3d56"/></g><ellipse id="fb6c0aeb-9c49-4f71-adc3-f096e0d8dfbf" data-name="Ellipse 525" cx="873.81801" cy="333.37448" rx="29.118" ry="59.413" fill="#e6e6e6"/><path id="b1a6d698-dda0-490a-ac80-38ce87516ad9" data-name="Path 2716" d="M1006.66249,665.26574c11.647-69.878.117-139.5,0-140.2l-1.16.2c.117.693,11.613,70.13,0,139.808Z" transform="translate(-136.08749 -234.73426)" fill="#3f3d56"/><rect id="ec111ffd-238a-4858-990a-57023cafb3d8" data-name="Rectangle 406" x="996.30183" y="548.4467" width="1.17742" height="29.87157" transform="translate(-106.29034 941.77214) rotate(-61.84665)" fill="#3f3d56"/><rect id="e635c501-1628-42d4-a3a5-c4826c51f25c" data-name="Rectangle 407" x="1009.75266" y="569.85975" width="29.87157" height="1.17742" transform="translate(-284.0109 316.23848) rotate(-28.15335)" fill="#3f3d56"/><g id="e6d5674b-00e7-4467-bab6-ed987278fef8" data-name="Group 202"><path id="e1ce62fd-b420-4db2-ab4c-e67ce8dd22d3" data-name="Path 2721" d="M974.80447,639.34674a1.76988,1.76988,0,0,1-1.677-.085c-.128-.078-.232.13-.1.208a1.98306,1.98306,0,0,0,1.855.1.121.121,0,0,0,.074-.147.117.117,0,0,0-.14593-.078Z" transform="translate(-136.08749 -234.73426)" fill="#fff"/><path id="fb654e67-0d02-4c8d-bcee-f27f565fe02d" data-name="Path 2749" d="M938.01151,617.31073a2.71515,2.71515,0,0,0,.746-4.095l3.156-24.522-5.9.248-1.24494,24.026a2.729,2.729,0,0,0,3.243,4.343Z" transform="translate(-136.08749 -234.73426)" fill="#ffb6b6"/><path id="a488bb03-142b-4649-b46b-ce040c2328f3" data-name="Path 2750" d="M965.4595,588.69074l.758,12.538-5.117,13.514-2.445-3.615,2.33-13.147-.646-8.411Z" transform="translate(-136.08749 -234.73426)" fill="#ffb6b6"/><path id="f0ef5070-4018-49e8-960c-7187773c9309" data-name="Path 2751" d="M958.13345,627.34873l.628,32.23-2.755.427-5.955-32.987Z" transform="translate(-136.08749 -234.73426)" fill="#ffb6b6"/><path id="fb7c6aba-de42-4943-8375-93a8e608f158" data-name="Path 2752" d="M940.26547,628.90674l4.312,31.946h2.788l.836-33.51Z" transform="translate(-136.08749 -234.73426)" fill="#ffb6b6"/><circle id="b6f1e84f-de40-4eb0-b986-5230eeabe2b6" data-name="Ellipse 528" cx="812.29199" cy="331.83447" r="5.733" fill="#ffb6b6"/><path id="f5873d16-c2b8-4b32-b8ce-4dfe24df8d00" data-name="Path 2754" d="M958.8345,609.37073l2.406,5.625-2.406,7.569v7.834l-9.213.055-.2-9.634-1.24,9.634h-9.381l-1.736-19.31,2.491-4.57Z" transform="translate(-136.08749 -234.73426)" fill="#2f2e41"/><path id="b50d2378-3b60-4f71-817b-0ffe618fac58" data-name="Path 2755" d="M946.53848,574.17871l-.678,1.256s-5.846,1.139-8.8,4.357l3.965,8.1-3.67205,23.445,21.648-1.443.768-18.051,3.258-12.625s-5.647-3.873-8.084-3.466l-.853-1.568Z" transform="translate(-136.08749 -234.73426)" fill="#6c63ff"/><path id="b1c08a75-8ec9-4886-9316-db9a3786fe59" data-name="Path 2756" d="M942.62247,580.63575l-5.564-.843s-1.523,8.935-1.511,10.975l6.716,1.071Z" transform="translate(-136.08749 -234.73426)" fill="#6c63ff"/><path id="b7e6bad9-42bd-4009-bf9c-01fa534afc33" data-name="Path 2757" d="M960.36844,579.78171l2.659-.57s1.026,3.255,2.718,10.921l-6.912,2.412Z" transform="translate(-136.08749 -234.73426)" fill="#6c63ff"/><path id="e547f758-b125-48f0-a3f2-c593124eae11" data-name="Path 2758" d="M947.9075,662.94873h-10.013v-.127a3.9,3.9,0,0,1,3.9-3.9h6.113Z" transform="translate(-136.08749 -234.73426)" fill="#2f2e41"/><path id="a5abfdf4-c3af-402b-ba0c-8bb282f8d7b3" data-name="Path 2759" d="M959.97244,661.41675l-9.894,1.532-.019-.125a3.9,3.9,0,0,1,3.255-4.447h0l6.043-.936Z" transform="translate(-136.08749 -234.73426)" fill="#2f2e41"/><path id="bd2c52c0-fba3-4836-9bfb-70573bfe7e73" data-name="Path 2800" d="M950.62747,568.89873a8.20624,8.20624,0,0,0-1.348-.351,3.063,3.063,0,0,1-2.343-3.453,1.55554,1.55554,0,0,0,.084-.569c-.06-.426-.559-.7-1.037-.8a11.52521,11.52521,0,0,1-1.444-.24,1.953,1.953,0,0,1-1.276-1.532,2.844,2.844,0,0,1,.484-1.908l.173.434a1.6162,1.6162,0,0,0,.564-.738,1.143,1.143,0,0,1,.886.622c.277.143.317-.444.624-.53a.61205.61205,0,0,1,.382.082,3.50008,3.50008,0,0,0,2-.1,8.57474,8.57474,0,0,1,3.489,0,4.41485,4.41485,0,0,1,2.062.927,4.233,4.233,0,0,1,.96094,1.445,7.41188,7.41188,0,0,1,.778,4.051,5.41888,5.41888,0,0,1-1.547,3.038c-.442.445-1.883,2-2.673,1.731C950.45444,570.67373,951.79745,569.43874,950.62747,568.89873Z" transform="translate(-136.08749 -234.73426)" fill="#2f2e41"/></g><g id="f113d3c6-765b-418c-a680-f18597c55a1b" data-name="Group 203"><path id="fc5ed3c1-c68d-40d2-b7a6-abe3b4a2a74d" data-name="Path 2809" d="M877.4935,615.07877a1.954,1.954,0,0,0,.465-2.959l2.539-25.476-4.239.281-1.174,25.086a1.964,1.964,0,0,0,2.41,3.068Z" transform="translate(-136.08749 -234.73426)" fill="#feb8b8"/><path id="a008d3da-b54e-4923-9038-9867749ffee1" data-name="Path 2810" d="M874.5405,585.69776l1.111,8.447-.154,5.177,4.663.427.934-4.306.515-11.4a3.4,3.4,0,0,0-3.006-3.533h0a3.4,3.4,0,0,0-3.765,2.933Z" transform="translate(-136.08749 -234.73426)" fill="#2f2e41"/><path id="ebb1e42f-8de7-4654-9747-025b9834ff06" data-name="Path 2811" d="M892.39648,660.02176h2.825l1.345-10.909h-4.174Z" transform="translate(-136.08749 -234.73426)" fill="#feb8b8"/><path id="a35d91d7-34c0-4dd3-9e8f-4f1bbf8a8f5c" data-name="Path 2812" d="M891.67548,662.76477h9.12v-.115a3.55,3.55,0,0,0-3.549-3.55h-5.57Z" transform="translate(-136.08749 -234.73426)" fill="#2f2e41"/><path id="a1f78e26-4946-4012-8d05-fc85d50d3a11" data-name="Path 2813" d="M869.04248,660.02176h2.828l1.346-10.909h-4.174Z" transform="translate(-136.08749 -234.73426)" fill="#feb8b8"/><path id="e8271c9c-db88-4a38-868d-596fdbbe0842" data-name="Path 2814" d="M868.32053,662.76477h9.12v-.115a3.55,3.55,0,0,0-3.549-3.55h-5.57Z" transform="translate(-136.08749 -234.73426)" fill="#2f2e41"/><circle id="b88cef57-831c-4e73-93ef-4ce4c84855e9" data-name="Ellipse 532" cx="743.95301" cy="335.6295" r="6.132" fill="#feb8b8"/><path id="ba66fbbf-93e8-4cf1-ad4a-d3a9d01d0c08" data-name="Path 2815" d="M880.8335,578.98475l-4.255.486h0a11.324,11.324,0,0,0-1.448,10.225l3.211,9.289s-4.457,8.936-4.457,17.232-8.489,37.91-8.489,37.91l11.949,1.246,5.214-31.547,7.185,31.42,8.2-1.335-4.517-41.2-2.985-13.559-.126-6.603s1.269-4.962-1.907-8.138l-3.878-5.4Z" transform="translate(-136.08749 -234.73426)" fill="#2f2e41"/><path id="adc0a8ff-b80e-404d-9cbd-0bdc38dcadd7" data-name="Path 2816" d="M887.18848,568.17377h-9.014v-3.928c1.978-.786,3.913-1.454,5.083,0a3.928,3.928,0,0,1,3.928,3.928h.003Z" transform="translate(-136.08749 -234.73426)" fill="#2f2e41"/><path id="a9ea9b79-794e-43c8-9184-cfa6df2e5b1c" data-name="Path 2817" d="M877.6835,563.55277c-5.387,0-6.895,6.752-6.895,10.561,0,2.124.961,2.884,2.47,3.141l.533-2.843,1.249,2.966c.424,0,.87-.006,1.331-.015l.423-.872.944.856c3.781.006,6.838.557,6.838-3.233C884.57352,570.30576,883.25153,563.55277,877.6835,563.55277Z" transform="translate(-136.08749 -234.73426)" fill="#2f2e41"/><path id="af0349f9-456a-4dd2-a64e-6531d0c151a5" data-name="Path 2818" d="M885.64551,600.84777l.228-9.891.6-4.391,1.494,4.35Z" transform="translate(-136.08749 -234.73426)" opacity="0.2" style="isolation:isolate"/><path d="M875.31255,599.02858h-.001a5.39829,5.39829,0,0,1-5.38476-5.39062V583.51491a5.39915,5.39915,0,0,1,5.38476-5.38574,7.27919,7.27919,0,0,1,7.27149,7.27051v6.3584A7.279,7.279,0,0,1,875.31255,599.02858Z" transform="translate(-136.08749 -234.73426)" fill="#6c63ff"/><path id="f944ffa0-7c6b-4400-915a-69234f51563c" data-name="Path 2822" d="M887.31149,591.91077a9.417,9.417,0,0,0,2.018-6.03c0-4.39-2.615-7.961-5.829-7.961a5.36,5.36,0,0,0-4.46,2.829l.484.3a4.808,4.808,0,0,1,3.976-2.559c2.9,0,5.26,3.316,5.26,7.393a8.843,8.843,0,0,1-1.883,5.662Z" transform="translate(-136.08749 -234.73426)" fill="#6c63ff"/><path id="ec3de1bf-746d-4468-9eef-f7ee611e3754" data-name="Path 2823" d="M884.54849,616.10675a2.141,2.141,0,0,0,.333-3.265l1.263-28.024-4.621.56.206,27.516a2.152,2.152,0,0,0,2.819,3.213Z" transform="translate(-136.08749 -234.73426)" fill="#feb8b8"/><path id="f5efdb27-b8cb-453b-a7a0-ebd86690dd4e" data-name="Path 2824" d="M879.57053,584.13974l1.718,9.176.139,5.673,5.126.19.766-4.766-.114-12.5a3.727,3.727,0,0,0-3.5-3.686h0a3.727,3.727,0,0,0-3.945,3.433Z" transform="translate(-136.08749 -234.73426)" fill="#2f2e41"/></g><g id="f3a52820-5da4-4b42-9266-f78e9fe7018d" data-name="Group 205"><path id="a893f891-f54b-45a9-863c-d8f504ba27e5" data-name="Path 2714-2" d="M837.0965,638.08373h-74.586v2.406h11.632v22.857h2.406v-22.857h45.306v22.857h2.406v-22.857h12.835Z" transform="translate(-136.08749 -234.73426)" fill="#3f3d56"/><rect id="acd566dc-6da0-4893-9936-737f20e2ae79" data-name="Rectangle 400-2" x="626.57001" y="396.15148" width="74.586" height="2.406" fill="#3f3d56"/><rect id="a718245b-7267-423b-9db7-7deabc7ded2f" data-name="Rectangle 401-2" x="626.57001" y="390.13647" width="74.586" height="2.406" fill="#3f3d56"/></g><circle id="f99f95d7-6e4c-45e5-9ca3-115f1183054f" data-name="Ellipse 533" cx="416.15512" cy="371.23197" r="5.318" fill="#a0616a"/><g id="ada0ff63-34b6-473e-888e-14c468d60184" data-name="Group 206"><path id="f6aff86a-449a-4efa-96e1-5e9aeb63600f" data-name="Path 2833" d="M562.77948,660.12374h2.722l1.3-10.5h-4.022Z" transform="translate(-136.08749 -234.73426)" fill="#a0616a"/><path id="be6cb877-ace5-48c6-bd02-c8097b1472ff" data-name="Path 2834" d="M562.08548,659.23572h5.361a3.417,3.417,0,0,1,3.417,3.416v.111h-8.778Z" transform="translate(-136.08749 -234.73426)" fill="#2f2e41"/><path id="f72c38d0-548e-4cbc-be70-00a274c38ac9" data-name="Path 2835" d="M552.2435,654.54273l-2.206,1.6-7.2-7.748,3.255-2.355Z" transform="translate(-136.08749 -234.73426)" fill="#a0616a"/><path id="f50cadf5-a7b6-4eb1-a003-daa0c7a8710f" data-name="Path 2836" d="M554.3515,656.27972l-7.112,5.146-.065-.09a3.417,3.417,0,0,1,.765-4.771h0l4.344-3.143Z" transform="translate(-136.08749 -234.73426)" fill="#2f2e41"/><path id="be113f8e-4433-4984-a5b5-4a984297f3c3" data-name="Path 2837" d="M555.2215,613.72971a5.2,5.2,0,0,0-5.945,0l-2.137,17.828h6.418l.951-5.7,2.139-8.557Z" transform="translate(-136.08749 -234.73426)" fill="#6c63ff"/><path id="afa107ec-0e1f-4b07-9537-fe3a9a5f8e8b" data-name="Path 2838" d="M561.6515,641.26474l-11.519-3.761-5.491,4.357,5.834,8.918-3.051,4-.087-.1c-.379-.431-9.271-10.593-9.245-13.475a21.68273,21.68273,0,0,1,.982-5.76l2.889-4.1,4.1-1.206,13.572,1.9h.022l5.484,3.338a4.308,4.308,0,0,1,1.952,3.183c.235,2.119.709,19.092.714,19.263v.111h-5.914Z" transform="translate(-136.08749 -234.73426)" fill="#2f2e41"/><path id="b735e730-6705-4934-808d-0e6dc1de6035" data-name="Path 2839" d="M554.3495,637.00472c-2-.89-4.559-4.364-4.98-4.95-.824.448-6.831,3.659-8.525,2.834a3.145,3.145,0,0,0-1.558,1.8l-.05.251-.145-.211c-.027-.039-2.636-3.919.739-6.33a10.54981,10.54981,0,0,0,3.992-4.673l-1.67-8.826.044-.041c.137-.127,3.388-3.118,6.354-3.474l1.83-.323.08,6.966v8.918c1.478-.186,3.817-15.768,3.817-15.768l1.222.448c.316.061,3.865.77,4.807,2.182l.031.046-3.228,8.728-.944,1.421v1.819l5.516,4.8-.078.082c-.188.2-4.255,4.427-6.624,4.426A1.53618,1.53618,0,0,1,554.3495,637.00472Z" transform="translate(-136.08749 -234.73426)" fill="#3f3d56"/><path id="ade73258-5ca4-4173-8b1c-41e04f44844d" data-name="Path 2840" d="M550.9045,638.58973a2.08192,2.08192,0,0,1,2.685-1.727l3.048-3.654,2.672,1.311-4.377,5.1a2.093,2.093,0,0,1-4.028-1.029Z" transform="translate(-136.08749 -234.73426)" fill="#a0616a"/><path id="fb6336a6-3b5c-4476-975a-6834746d9cfa" data-name="Path 2841" d="M553.05849,635.49172l4.782-6.455-1.184-6.4,1.922-7.206.048-.021a2.479,2.479,0,0,1,1.658-.114,1.12106,1.12106,0,0,1,.624.648c.476,1.189,1.623,13.3,1.671,13.838a13.68414,13.68414,0,0,1-.724,3.366c-.477.953-4.824,5.762-5.008,5.967l-.076.084Z" transform="translate(-136.08749 -234.73426)" fill="#3f3d56"/><path id="b93590be-0d48-4c9c-8edf-7b9cf6debf72" data-name="Path 2842" d="M556.81149,604.59772c-1.77,2.226-4.8,1.818-7.231,1a7.693,7.693,0,0,1-1.369,5.022c.313-1.263-1.007-1.514-1.778-1.984-.3-.376-.05-.936-.172-1.4-1.384-1.622-2.3-2.846-.524-4.75,1.04-1.392,2.288-3.129,4.269-2.764,1.568-1.829,4.136-1.353,5.889-.074a12.51906,12.51906,0,0,1,2.136,2.007,8.5001,8.5001,0,0,1-1.109,2.786" transform="translate(-136.08749 -234.73426)" fill="#2f2e41"/><path id="b24fdcc1-dbae-4f5c-89cb-c8a774e1760c" data-name="Path 2845" d="M552.74649,640.14372a2.082,2.082,0,0,0-2.685-1.727l-3.048-3.654-2.672,1.311,4.377,5.1a2.093,2.093,0,0,0,4.028-1.029Z" transform="translate(-136.08749 -234.73426)" fill="#a0616a"/><path id="f543f9b6-75c6-481a-84a9-cd09bde9e30c" data-name="Path 2846" d="M546.83649,639.48873c-.273-.2-6.684-5.024-7.4-6.456s-.54-5.684-.53-5.877a69.58952,69.58952,0,0,1,2.072-9.068,2.627,2.627,0,0,1,3.39073-1.51831q.03938.015.07826.03131l.074.03-1.073,12.518,5.853,7.764-2.384,2.635Z" transform="translate(-136.08749 -234.73426)" fill="#3f3d56"/></g><path id="e743b151-a501-4802-bd45-1d20431e6e42" data-name="Path 2700" d="M537.55118,368.47969,528.583,347.674l-18.00159.32077-10.92,20.74241.22037.27659h-.07854v43.14385H537.527v-43.144Z" transform="translate(-136.08749 -234.73426)" fill="#f2f2f2"/><path id="f115d1b6-9c1d-4192-bab1-4c1681c44a09" data-name="Path 2700" d="M817.91582,420.55666l-7.24723-15.20776-14.54724.23446-8.82457,15.16153.17809.20217h-.06347v31.5357h30.4849V420.94693Z" transform="translate(-136.08749 -234.73426)" fill="#f2f2f2"/><rect x="120.26837" y="103.85389" width="211.47168" height="2" fill="#fff"/><rect x="99.26837" y="124.85389" width="211.47168" height="2" fill="#fff"/><rect x="690.18366" y="128.64466" width="34.46997" height="2" fill="#fff"/><rect x="690.18369" y="149.64464" width="34.47" height="2" fill="#fff"/><rect x="407.13361" y="64.64466" width="41.83008" height="2" fill="#fff"/><rect x="407.13361" y="85.64466" width="41.83008" height="2" fill="#fff"/></svg>