<?xml version="1.0" encoding="UTF-8"?><svg id="uuid-c9a15e4a-9383-4906-a6be-0c76fa3ebafe" xmlns="http://www.w3.org/2000/svg" width="730.67004" height="563.03973" viewBox="0 0 730.67004 563.03973"><path d="M730.67004,472.80516c0,.65997-.53003,1.19-1.19,1.19H1.19c-.65997,0-1.19-.53003-1.19-1.19,0-.32001,.12006-.60004,.32001-.81H90.04004c1.90997,0,3.77997-.13,5.62-.38H729.48004c.65997,0,1.19,.52997,1.19,1.19Z" fill="#3f3d56"/><g><rect x="74.95232" y="275.04001" width="73.6237" height="181.53789" fill="#e6e6e6"/><path d="M113.88211,327.48429c0,18.38111-14.90084,33.28195-33.28195,33.28195-18.38111,0-33.28195-14.90084-33.28195-33.28195s14.90084-33.28195,33.28195-33.28195,33.28195,14.90084,33.28195,33.28195Z" fill="#e6e6e6"/><circle cx="49.84125" cy="327.686" r="9.2786" fill="#e6e6e6"/><path d="M172.37766,327.28258c0,10.69446-8.66958,19.36404-19.36404,19.36404-10.69446,0-19.36404-8.66958-19.36404-19.36404s8.66958-19.36404,19.36404-19.36404,19.36404,8.66958,19.36404,19.36404Z" fill="#e6e6e6"/><circle cx="172.37766" cy="327.28258" r="9.2786" fill="#e6e6e6"/><circle cx="112.67186" cy="209.48466" r="9.2786" fill="#e6e6e6"/><rect x="59.42075" y="261.12211" width="108.1159" height="16.94354" rx="8.47176" ry="8.47176" fill="#e6e6e6"/><path d="M113.47866,218.76327h.00007c19.37072,0,35.09729,15.72657,35.09729,35.09729v12.50598H78.38137v-12.50598c0-19.37072,15.72657-35.09729,35.09729-35.09729Z" fill="#e6e6e6"/><rect x="55.08401" y="453.55227" width="113.36033" height="18.15379" fill="#e6e6e6"/></g><g><g><path d="M208.2178,361.3024c8.9668,5.40745,9.85142,7.95928,15.2839,10.18927,2.74947,1.1286,7.89744,2.68118,17.83122,1.27366,13.68724-1.93925,22.12706-7.46704,45.85171-20.37854,16.92126-9.20884,25.19456-13.23582,36.9361-15.2839,8.79823-1.5347,13.91156-.97577,17.83122,0,13.6741,3.40399,21.13827,13.95085,22.92585,16.55756,6.17912,9.01045,6.96104,17.81039,7.64195,25.47317,.85768,9.65225,2.09706,23.6-5.09463,34.38878-9.01189,13.51941-21.56307,7.52752-43.30439,20.37854-24.02977,14.20366-20.01099,28.21063-39.48341,35.66244-24.91661,9.53518-52.04307-5.53634-53.49366-6.36829-25.79734-14.7954-31.07559-41.6436-44.57805-39.48341-8.06726,1.29061-8.87068,11.3045-21.65219,14.01024-2.39169,.50623-12.23424,2.58992-19.10488-3.82098-4.22156-3.93898-4.09065,4.87899-1.91049-.63683,2.79911-7.08177,8.44638-20.90404,12.09976-28.65732,1.95161-4.14172-.24822-5.4202,1.27366-16.55756,.74333-5.43979,1.11857-8.18581,2.54732-11.46293,3.53988-8.11957,10.41401-12.31307,15.2839-15.2839,5.9248-3.61435,11.74978-7.16791,19.10488-6.36829,4.20897,.45757,7.47606,2.42776,14.01024,6.36829Z" fill="#3f3d56"/><path d="M363.60414,391.87021c2.25949,1.85094,2.79763,5.60257,3.82098,12.73659,.94673,6.60011,.37097,10.64839,0,17.83122-.55684,10.78148,.32117,9.77803,0,24.19951-.26427,11.86608-.39639,17.79919-1.27366,22.92585-1.5775,9.21863-2.41796,5.67658-10.18927,29.29415-1.57668,4.79161-2.83246,8.85902-6.36829,10.18927-4.43025,1.6667-9.53452-2.05664-10.18927-2.54732-1.07372-.80459-4.85757-3.64031-5.09463-7.64195-.30092-5.07955,5.44889-6.36674,10.18927-14.01024,2.95991-4.77264,3.67149-9.55011,5.09463-19.10488,1.35342-9.08663,2.03013-13.62995,0-17.83122-3.70425-7.66574-12.1787-10.04188-12.73659-10.18927-5.07162-1.34036-6.7103,.55769-12.73659,0-5.63686-.52178-14.92219-3.17451-16.55756-7.64195-4.4828-12.2459,45.2478-47.05136,56.04098-38.20976Z" fill="#3f3d56"/><path d="M343.22561,374.03899c2.25949,1.85094,2.79763,5.60257,3.82098,12.73659,.94673,6.60011,.37097,10.64839,0,17.83122-.55684,10.78148,.32117,9.77803,0,24.19951-.26427,11.86608-.39639,17.79919-1.27366,22.92585-1.5775,9.21863-2.41796,5.67658-10.18927,29.29415-1.57668,4.79161-2.83246,8.85902-6.36829,10.18927-4.43025,1.6667-9.53452-2.05664-10.18927-2.54732-1.07372-.80459-4.85757-3.64031-5.09463-7.64195-.30092-5.07955,5.44889-6.36674,10.18927-14.01024,2.95991-4.77264,3.67149-9.55011,5.09463-19.10488,1.35342-9.08663,2.03013-13.62995,0-17.83122-3.70425-7.66574-12.1787-10.04188-12.73659-10.18927-5.07162-1.34036-6.7103,.55769-12.73659,0-5.63686-.52178-14.92219-3.17451-16.55756-7.64195-4.4828-12.2459,45.2478-47.05136,56.04098-38.20976Z" fill="#3f3d56"/><path d="M305.01585,436.44826c1.43364,2.18661,3.0785,7.82603,6.36829,19.10488,1.46703,5.02965,10.96622,38.12284,14.01024,48.39902,.87502,2.95404,2.00887,6.64146,5.09463,10.18927,2.59711,2.98607,3.98438,2.89232,5.09463,5.09463,2.88909,5.73084-2.74912,13.81528-3.82098,15.2839-1.24754,1.70946-7.04146,9.64837-15.2839,8.91561-.86095-.07649-6.43107-.57168-7.64195-3.82098-1.85615-4.98083,9.05678-9.65474,8.91561-17.83122-.08337-4.82908-3.95266-6.82959-8.91561-12.73659-10.64722-12.67253-6.10593-19.25616-14.01024-29.29415-11.82243-15.01384-33.79548-15.28857-36.9361-15.2839-8.13555,.01182-19.4582,.02845-26.74683,7.64195-10.16128,10.61418-5.96196,29.18314-10.18927,57.31463,0,.00016-.68538,4.56104-2.54732,11.46293-3.07267,11.38985-5.52406,14.33099-6.36829,15.2839-1.14695,1.29465-4.50305,4.98051-10.18927,6.36829-.78337,.19124-4.40572,1.02085-8.91561,0-2.99283-.67741-5.72136-1.29511-7.64195-3.82098-1.84208-2.42263-2.54063-6.07429-1.27366-8.91561,1.5333-3.43866,4.6925-2.88035,8.91561-6.36829,2.98055-2.46165,4.53438-5.88663,7.64195-12.73659,1.37573-3.0324,3.43633-7.63013,5.09463-14.01024,1.91927-7.38402,2.15474-13.08967,2.54732-24.19951,.33077-9.35949,.17102-17.13982,0-25.47317-.19916-9.70216-.47078-12.87107,0-19.10488,.49395-6.54056,.97491-12.9087,2.54732-16.55756,8.45905-19.62976,75.57986-23.38171,94.25073,5.09463Z" fill="#3f3d56"/><path d="M358.50951,349.83948c5.44403-3.01095,6.22152-10.05587,7.64195-22.92585,1.03469-9.3752,1.65088-14.95818-1.27366-21.65219-3.94757-9.03548-11.35681-13.25245-12.73659-14.01024-1.50718-.82775-11.40105-6.07475-21.65219-2.54732-1.43061,.49224-5.2187,3.30682-12.73659,8.91561-8.97127,6.69324-10.28757,7.96954-11.46293,10.18927-3.14454,5.93871-2.8103,13.96516,0,15.2839,2.13484,1.00173,5.82382-1.80865,7.64195-3.82098,2.17351-2.40568,1.84647-3.86249,3.82098-6.36829,1.56502-1.9862,3.03722-2.67854,7.64195-5.09463,11.40525-5.98427,11.98253-6.77828,14.01024-6.36829,5.05308,1.02179,7.46222,7.1648,7.64195,7.64195,1.54224,4.09446,.48473,7.81826-1.27366,14.01024-.93045,3.27634-1.98756,5.80454-3.82098,10.18927-3.32019,7.94046-4.19439,8.53578-3.82098,10.18927,1.22488,5.42362,13.18855,10.3449,20.37854,6.36829Z" fill="#3f3d56"/></g><path d="M227.95951,372.1285c2.10569,.34764,3.12755,12.38785,0,22.92585-2.1388,7.20646-6.45295,14.50155-7.22279,15.78842-.60643,1.0137-1.19025,1.93801-2.96648,4.59011-8.68749,12.97151-13.0763,19.45019-15.2839,19.10488-2.94374-.46036,5.11345-7.42248,5.73146-14.07902,1.14901-12.37588,6.70575-13.90607,16.55756-31.84146,5.33111-9.70543,1.54046-16.76024,3.18415-16.48878Z" fill="#6c63ff"/><path d="M183.38146,368.30752c-1.0647-5.41927,4.98922-12.94586,11.46293-14.01024,9.43987-1.55196,17.63454,10.98795,20.37854,19.10488,3.77402,11.16364-.46425,20.75774-2.54732,25.47317-2.61262,5.91415-4.56617,6.30222-5.09463,6.36829-3.85363,.48229-8.42151-6.57601-10.18927-12.73659-1.55538-5.4202,.19979-6.16229-1.27366-10.18927-3.03349-8.29029-11.60021-8.22685-12.73659-14.01024Z" fill="#2f2e41"/><polygon points="226.08385 395.47725 478.81823 230.53847 475.09179 229.69268 222.3574 394.63146 226.08385 395.47725" fill="#6c63ff"/></g><g><polygon points="539.79459 80.0539 534.2593 59.75783 559.16811 50.53234 561.93576 68.98331 539.79459 80.0539" fill="#a0616a"/><polygon points="539.79459 80.0539 534.2593 59.75783 548.92845 53.57032 544.37091 77.49739 539.79459 80.0539" opacity=".1"/><g><path d="M466.87735,253.99836c-4.75769-2.83068-5.00862-11.18601-.56036-18.66252,1.94714-3.27274,4.47209-5.83421,7.09475-7.44284l2.61223-4.26793,33.04577-59.24118s14.46542-55.87198,20.35462-62.6274c5.88909-6.75537,14.40397-5.16373,14.40397-5.16373l7.55254,6.70835-26.95602,79.13455-33.26447,46.84558-4.45806,6.51925c-.1625,3.07238-1.20893,6.5135-3.15628,9.78606-4.44815,7.47646-11.91098,11.24249-16.66867,8.41182Z" fill="#a0616a"/><path d="M538.43248,74.25663s10.51082-.40645,17.14247,7.75833c6.63165,8.16478-28.1105,100.18917-28.1105,100.18917l-28.29812-1.00178,39.26615-106.94572Z" fill="#6c63ff"/></g><circle cx="541.17841" cy="37.15538" r="25.83137" fill="#a0616a"/><polygon points="480.75147 412.17146 463.22304 455.53125 453.075 445.38321 449.38481 426.00969 464.14559 407.55871 480.75147 412.17146" fill="#a0616a"/><polygon points="644.96515 396.48813 662.49358 416.7842 654.19064 433.39008 635.73966 430.62243 626.51417 404.79107 644.96515 396.48813" fill="#a0616a"/><polygon points="528.26273 154.31907 525.95636 191.6823 583.15438 181.53426 579.46419 158.47054 528.26273 154.31907" fill="#a0616a"/><path d="M525.49508,192.14357l57.6593-18.91225s21.21862,42.43724-1.8451,69.19116c-23.06372,26.75391-99.63527,178.97446-99.63527,178.97446l-23.06372-11.07059,33.21176-96.86762,36.90195-89.48723-3.22892-31.82793Z" fill="#2f2e41"/><polygon points="581.30928 226.73915 603.45045 323.60678 649.57789 398.33323 625.59162 412.17146 561.01321 323.60678 539.79459 255.33817 581.30928 226.73915" fill="#2f2e41"/><path d="M441.08187,422.31949h-15.97753s-18.64348-7.38039-23.01287,0c-4.36939,7.38039,19.4952,28.31208,19.4952,28.31208,0,0,33.33343,18.73791,37.94617,17.81536,4.61274-.92255,6.45784-11.99313,6.45784-11.99313l5.53529-12.91568-8.30294,2.76765s-11.07059-6.45784-8.30294-17.52843l-13.83823-6.45784Z" fill="#2f2e41"/><path d="M658.80338,419.55185v-9.22549l10.72554,9.22549s17.87347,6.45784,4.03524,20.29607c-13.83823,13.83823-31.36666,28.59901-31.36666,28.59901,0,0-27.67646,7.38039-29.52156-.92255s0-11.66261,0-11.66261l10.14804-4.94326,9.22549-23.98627,14.76078,1.8451,11.99313-9.22549Z" fill="#2f2e41"/><path d="M549.02008,42.2294l-8.30294-.92255-15.22205-15.22205s-13.83823,7.38039-13.83823,1.8451c0-25.83137,15.68333-24.90882,28.59901-26.75391,12.91568-1.8451,11.53186-2.30637,15.68333,4.61274,1.89859,3.16432,8.76421,5.07402,8.76421,5.07402,0,0,12.91568-17.52843,19.37352,3.6902,6.45784,21.21862-1.8451,86.71958,4.61274,92.25488,6.45784,5.53529-26.51586,11.06238-22.94469-10.61341,3.57117-21.67579,10.02901-54.88755,6.33882-62.26794-3.6902-7.38039-4.61274-5.53529-4.61274-5.53529,4.57316-1.86717,7.56119,31.02138-9.68153,32.63167l-.46651-16.02579s-2.76765-8.30294-8.30294-2.76765Z" fill="#2f2e41"/><path d="M537.48822,74.05733l27.67646-11.07059,36.90195,110.70585-75.92587-2.76572-6.8363-33.04214s-6.67468-17.19718-1.13938-27.34522c5.53529-10.14804,19.32314-36.48219,19.32314-36.48219Z" fill="#6c63ff"/><g><path d="M609.50674,259.50385c-5.51579,.47376-10.59067-6.16855-11.33518-14.83636-.32592-3.7942,.23228-7.34736,1.42535-10.18331l-.36572-4.99051-7.68725-67.39768s-14.31019-55.13042-13.46358-64.0524c.84655-8.92187,2.18352-11.29054,2.18352-11.29054l10.04717,1.04746,24.23253,80.01055,.28316,57.45393,.17849,7.89576c1.65911,2.591,2.81501,5.99691,3.14065,9.79109,.74458,8.66771-3.12335,16.07824-8.63914,16.552Z" fill="#a0616a"/><path d="M562.85831,71.75096s8.30294-6.45784,18.45098-3.6902c10.14804,2.76765,35.56898,97.79017,35.56898,97.79017l-23.57584,15.68333-30.44411-109.7833Z" fill="#6c63ff"/></g></g></svg>