<svg id="b8114087-4476-4280-ba6f-ecd4d440a9a3" data-name="Layer 1" xmlns="http://www.w3.org/2000/svg" width="689.16222" height="554.20406" viewBox="0 0 689.16222 554.20406"><polygon points="479.89 539.425 467.133 539.424 461.065 490.221 479.892 490.221 479.89 539.425" fill="#ffb6b6"/><path d="M738.562,724.68826l-41.13227-.00153v-.52025a16.0107,16.0107,0,0,1,16.00983-16.00958h.001l7.51335-5.7,14.01824,5.7009,3.5906.00014Z" transform="translate(-255.41889 -172.89797)" fill="#2f2e41"/><polygon points="595.153 522.84 583.736 528.53 556.355 487.2 573.206 478.802 595.153 522.84" fill="#ffb6b6"/><path d="M859,705.35332l-36.81344,18.34759-.23208-.46562a16.01068,16.01068,0,0,1,7.18674-21.47025l.00091-.00045,4.18157-8.45312L848.413,692.1602l3.2136-1.60162Z" transform="translate(-255.41889 -172.89797)" fill="#2f2e41"/><path d="M726.65691,447.85663l70.34117,2.462,5.25958,9.76778s5.50871,39.96244,2.68751,42.78364-4.2318,2.8212-2.8212,7.7583,11.05738,93.10945,11.05738,93.10945,29.05782,60.27237,30.46842,63.79887,2.82119,2.11589,1.4106,3.52649-26.51672,4.2318-26.51672,4.2318-.72995-1.84129-1.9976-4.80258c-.42671-.99682-4.00481-.2692-4.54605-1.49233-.55288-1.24944,1.92877-4.454,1.27186-5.88151-4.65669-10.11955-11.73084-23.97726-18.438-31.12639a68.60119,68.60119,0,0,1-18.08478-38.7651l-15.53252-86.1252-6.1451,46.81812-2.317,2.41508-.1527,1.16342,1.50272,3.78867-.29261,2.22932-2.25024,2.90652-.34778,2.64963,1.6914,1.35119-6.14238,46.79741s-3.5265,68.41406-2.8212,71.94056l.7053,3.52649-27.09706.30267s-2.8212-5.94506-1.4106-8.061,1.326-1.53833-.395-5.001-1.01563-9.32995-1.01563-9.32995,4.16987-179.7191,4.16987-181.835a7.035,7.035,0,0,0-.5859-3.173V482.719l2.7018-10.17686Z" transform="translate(-255.41889 -172.89797)" fill="#2f2e41"/><circle cx="570.22498" cy="255.78" r="27.78" fill="#6c63ff"/><path d="M821.85411,443.13617a3.08927,3.08927,0,0,1-2.47187-1.23631l-7.57881-10.10525a3.09008,3.09008,0,1,1,4.94424-3.70793l4.95831,6.61059,12.7348-19.10194a3.0902,3.0902,0,1,1,5.1424,3.42827L824.42556,441.76a3.09148,3.09148,0,0,1-2.48544,1.37513C821.91145,443.13566,821.88278,443.13617,821.85411,443.13617Z" transform="translate(-255.41889 -172.89797)" fill="#fff"/><path d="M839.38055,458.04645a7.98813,7.98813,0,0,0-7.3119-9.827l-14.23432-48.4981-9.62943,11.17489,15.3201,45.409a8.03141,8.03141,0,0,0,15.85555,1.74121Z" transform="translate(-255.41889 -172.89797)" fill="#ffb8b8"/><path d="M759.11637,339.31946l9.00785,16.30137.0175.02493,48.19085,87.23081,2.41522-.73029.079-.02551,10.51977-3.17282,7.25908-2.193-12.12843-34.46828L793.5548,340.19886l-11.20986-17.57447a12.84173,12.84173,0,0,0-12.99936-5.73985l-.01351.002a12.52564,12.52564,0,0,0-4.74142,1.87495,12.8537,12.8537,0,0,0-5.836,11.2348l.18584,4.88148Z" transform="translate(-255.41889 -172.89797)" fill="#e6e6e6"/><path d="M862.22263,724.77227l.0152-.697A80.52866,80.52866,0,0,1,892.35,663.43218a78.13223,78.13223,0,0,1,16.78623-10.11536l.572-.25474.09757.61813c1.16153,7.38021,3.0009,14.91289,3.85784,18.25612l5.74416-22.4141.63823-.18437a15.27246,15.27246,0,0,1,16.303,5.20878,15.53411,15.53411,0,0,1,1.61173,17.33178c-1.33892,2.49454-2.655,5.09732-3.9282,7.61425-4.37386,8.64929-8.89655,17.59309-15.48708,24.54163a48.67531,48.67531,0,0,1-39.25924,14.64528Z" transform="translate(-255.41889 -172.89797)" fill="#f2f2f2"/><polygon points="262.385 109.64 260.385 109.64 260.385 32.597 405.042 32.597 405.042 34.597 262.385 34.597 262.385 109.64" fill="#3f3d56"/><circle cx="427.22498" cy="27.78" r="27.78" fill="#6c63ff"/><path d="M678.85411,215.13617a3.08927,3.08927,0,0,1-2.47187-1.23631l-7.57881-10.10525a3.09008,3.09008,0,1,1,4.94424-3.70793l4.95831,6.61059,12.7348-19.10194a3.0902,3.0902,0,1,1,5.1424,3.42827L681.42556,213.76a3.09148,3.09148,0,0,1-2.48544,1.37513C678.91145,215.13566,678.88278,215.13617,678.85411,215.13617Z" transform="translate(-255.41889 -172.89797)" fill="#fff"/><polygon points="164.385 296.685 162.385 296.685 162.385 373.728 307.042 373.728 307.042 371.728 164.385 371.728 164.385 296.685" fill="#3f3d56"/><circle cx="329.22498" cy="373.78" r="27.78" fill="#6c63ff"/><path d="M580.85411,561.13617a3.08927,3.08927,0,0,1-2.47187-1.23631l-7.57881-10.10525a3.09008,3.09008,0,1,1,4.94424-3.70793l4.95831,6.61059,12.7348-19.10194a3.0902,3.0902,0,1,1,5.1424,3.42827L583.42556,559.76a3.09148,3.09148,0,0,1-2.48544,1.37513C580.91145,561.13566,580.88278,561.13617,580.85411,561.13617Z" transform="translate(-255.41889 -172.89797)" fill="#fff"/><path d="M744.53431,317.1196l0,0a136.62925,136.62925,0,0,0-16.61513,81.21609l2.19382,20.53449-9.79659,31.59761,2.726,5.94346-2.726,3.079,4.70587,5.07011,72.27269-2c3.99652-10.37952,1.65033-20.71717-9-31l4.22855-30.38283,7.35818-73.84663-17.1238-18.39419-3.70379-8.92-18.12675-2.10338-4.63239,8.647Z" transform="translate(-255.41889 -172.89797)" fill="#e6e6e6"/><circle cx="515.16092" cy="98.92528" r="22.99621" fill="#ffb6b6"/><path d="M798.30109,265.54961c-1.36112-4.24309-5.09446-7.83317-9.52571-8.30232a15.5116,15.5116,0,0,0-22.738-15.50289,4.82339,4.82339,0,0,0-4.43137-1.684,9.9457,9.9457,0,0,0-4.501,1.97209,22.32129,22.32129,0,0,0-8.92844,21.11147c-.01017-2.02774.88812,1.8953,3.46377,2.242a16.98984,16.98984,0,0,1,6.01723,2.48205,17.5052,17.5052,0,0,0,6.00511,2.51707c2.16132.31613,2.7185,8.98,1.17479,14.56008-.29258,1.05749-.4412,2.47639.53344,2.98032,1.20026.62066,2.41353-.93975,3.75632-1.09191a2.32517,2.32517,0,0,1,2.35867,2.20684,3.79078,3.79078,0,0,1-1.58272,3.08913,11.20253,11.20253,0,0,1-3.23565,1.5675l.38768.55043a3.08007,3.08007,0,0,0,3.62818,1.47875c1.53772,1.85489,17.3847-3.2955,18.15747-6.68106a37.40262,37.40262,0,0,0,8.1384-10.51292A17.86946,17.86946,0,0,0,798.30109,265.54961Z" transform="translate(-255.41889 -172.89797)" fill="#2f2e41"/><path d="M816.89912,335.58468a4.459,4.459,0,0,0-3.92131-4.81578c2.40988-.72544,3.65686-4.16907,2.68828-6.69132-1.09726-2.85761-3.87444-4.65539-6.48312-6.2569l-21.38464-13.12782c-2.46561-1.51363-5.00875-3.05728-7.85971-3.54991s-6.12085.30674-7.76276,2.689a14.358,14.358,0,0,0-4.35072-4.386c-1.8242-.99262-4.342-1.035-5.77307.47-2.2965,2.41509-.33876,6.33041,1.65158,9.00345q5.54355,7.44474,11.087,14.88956l-1.69508-.80648a76.07612,76.07612,0,0,0,30.36738,17.025c2.59177.74271,5.3275,1.34948,7.9662.79605S816.57589,338.26136,816.89912,335.58468Z" transform="translate(-255.41889 -172.89797)" fill="#e6e6e6"/><path d="M765.6729,311.564s14.46457,6.75226,21.54331,17.37431,20.33935,12.09988,20.33935,12.09988" transform="translate(-255.41889 -172.89797)" opacity="0.2"/><path d="M690.03274,218.07807a7.98809,7.98809,0,0,0,7.12039,9.96663l13.29325,48.76445,9.84386-10.98648-14.4386-45.69692a8.03141,8.03141,0,0,0-15.8189-2.04768Z" transform="translate(-255.41889 -172.89797)" fill="#ffb8b8"/><path d="M767.98463,338.33588l-8.69075-16.47261-.017-.02526-46.494-88.14694-2.4289.68343-.07943.024-10.5792,2.96868-7.30015,2.05217,11.4592,34.69649c6.29108,26.60318,14.88678,49.56411,29.71527,62.67447l10.8677,17.78809a12.84171,12.84171,0,0,0,12.88587,5.9903l.01354-.00174a12.52554,12.52554,0,0,0,4.77681-1.78285,12.85371,12.85371,0,0,0,6.05226-11.11978l-.09135-4.88416Z" transform="translate(-255.41889 -172.89797)" fill="#e6e6e6"/><path d="M943.39043,726.7947l-271.75.30733a1.19069,1.19069,0,0,1,0-2.38137l271.75-.30733a1.19069,1.19069,0,0,1,0,2.38137Z" transform="translate(-255.41889 -172.89797)" fill="#cacaca"/><path d="M339.04731,326.6063a58.77888,58.77888,0,0,1,16.04834-40.42676l-35.42334-48.75537a17.27493,17.27493,0,0,0-26.06348-2.19678,126.47218,126.47218,0,0,0-38.18994,90.95508,128.78525,128.78525,0,0,0,1.42725,19.11817,17.39208,17.39208,0,0,0,8.05713,12.231,17.20044,17.20044,0,0,0,14.38232,1.728l61.16553-19.874A59.15048,59.15048,0,0,1,339.04731,326.6063Z" transform="translate(-255.41889 -172.89797)" fill="#f2f2f2"/><path d="M342.30024,345.92515l-63.58985,20.66162a17.25668,17.25668,0,0,0-10.19189,24.00635,127.485,127.485,0,0,0,94.86133,69.62353,17.29346,17.29346,0,0,0,13.89306-3.97266,17.25251,17.25251,0,0,0,6.022-13.10449V383.74692A59.11375,59.11375,0,0,1,342.30024,345.92515Z" transform="translate(-255.41889 -172.89797)" fill="#e6e6e6"/><path d="M533.53168,383.034a19.26609,19.26609,0,0,0-11.80517-10.8457l-69.353-22.53418a59.04575,59.04575,0,0,1-47.06885,35.4917v72.25928a19.24418,19.24418,0,0,0,22.16944,19.01074A141.91776,141.91776,0,0,0,533.0727,398.912,19.08863,19.08863,0,0,0,533.53168,383.034Z" transform="translate(-255.41889 -172.89797)" fill="#3f3d56"/><path d="M516.30121,217.29136a19.22959,19.22959,0,0,0-29.01367,2.44531l-47.415,65.26123a58.81034,58.81034,0,0,1,17.17481,41.6084c0,1.437-.06934,2.85644-.17041,4.26758L532.246,355.36314a19.26508,19.26508,0,0,0,24.979-15.53907,143.32936,143.32936,0,0,0,1.58887-21.2832A140.78833,140.78833,0,0,0,516.30121,217.29136Z" transform="translate(-255.41889 -172.89797)" fill="#6c63ff"/><path d="M398.04731,267.6063a58.7061,58.7061,0,0,1,28.9668,7.60644l28.93994-39.83252a17.33715,17.33715,0,0,0,2.83545-14.249,16.99427,16.99427,0,0,0-8.791-11.2041,127.6262,127.6262,0,0,0-115.37891-.168,17.43656,17.43656,0,0,0-9.09375,11.4707,17.18642,17.18642,0,0,0,2.80957,14.15332l32.83008,45.187A58.7338,58.7338,0,0,1,398.04731,267.6063Z" transform="translate(-255.41889 -172.89797)" fill="#e6e6e6"/></svg>