<svg id="a3363411-88d6-4d9c-90ba-a0d76aee6716" data-name="Layer 1" xmlns="http://www.w3.org/2000/svg" width="785" height="260.84196" viewBox="0 0 785 260.84196"><path id="e6d48fe3-12d5-4a4a-b92a-b78b486fac3b" data-name="Path 438" d="M309.28694,475.45315a52.15479,52.15479,0,0,0,50.36294-8.87123c17.63958-14.80651,23.17124-39.19162,27.67-61.7767L400.63007,338l-27.86593,19.18733c-20.04088,13.79849-40.53183,28.04032-54.40665,48.02636s-19.928,47.27083-8.78325,68.89757" transform="translate(-207.5 -319.57902)" fill="#6c63ff"/><path id="a99fcdd9-ae8f-4ca7-ba44-ef69baf9e145" data-name="Path 439" d="M313.58973,560.984c-3.50732-25.55267-7.11595-51.43577-4.64984-77.26241,2.18545-22.9371,9.18347-45.33609,23.43031-63.70971a105.98258,105.98258,0,0,1,27.1917-24.64095c2.71849-1.7155,5.22114,2.59225,2.51425,4.30116a100.75623,100.75623,0,0,0-39.85592,48.08616c-8.677,22.06856-10.07026,46.12659-8.57567,69.57019.90341,14.17706,2.82315,28.26118,4.75115,42.32867a2.5807,2.5807,0,0,1-1.74039,3.06388,2.506,2.506,0,0,1-3.06392-1.74033Z" transform="translate(-207.5 -319.57902)" fill="#3f3d56"/><path id="bbeda2f4-be86-4904-b4b0-963c2a3b729b" data-name="Path 442" d="M338.83512,519.9822a38.39278,38.39278,0,0,0,33.45243,17.27094c16.93879-.80377,31.05443-12.621,43.76017-23.84376l37.58913-33.18833-24.87676-1.19066c-17.89034-.85689-36.24233-1.66067-53.28237,3.86268s-32.75493,18.79538-35.87034,36.43334" transform="translate(-207.5 -319.57902)" fill="#6c63ff"/><path id="a6e93fc3-3616-4120-bc87-b7b79f9b3178" data-name="Path 443" d="M303.67556,575.67259c16.88563-29.877,36.46983-63.082,71.46666-73.69528a79.74859,79.74859,0,0,1,30.058-3.10382c3.19179.2757,2.39465,5.19454-.7905,4.92057a74.08893,74.08893,0,0,0-47.9699,12.69084c-13.52609,9.20673-24.058,22.00714-32.97082,35.57969-5.46025,8.315-10.35092,16.982-15.24158,25.63731C306.66474,580.46859,302.09462,578.47081,303.67556,575.67259Z" transform="translate(-207.5 -319.57902)" fill="#3f3d56"/><path id="e252ff7a-4a4a-4da8-9d61-47808c761739" data-name="Path 438" d="M469.91119,534.32478a22.51,22.51,0,0,0,21.73664-3.82882c7.61324-6.39049,10.00071-16.91511,11.94235-26.66283L509.33488,475,497.308,483.28125c-8.64965,5.95543-17.49354,12.10221-23.48191,20.72818s-8.60091,20.40209-3.79085,29.73619" transform="translate(-207.5 -319.57902)" fill="#6c63ff"/><path id="ef525daa-216d-438f-b057-809f99c83d16" data-name="Path 439" d="M471.76827,571.23989c-1.51376-11.02854-3.07125-22.19968-2.00687-33.34646.94324-9.89965,3.96358-19.56706,10.11252-27.49712a45.74208,45.74208,0,0,1,11.73594-10.635c1.1733-.74041,2.25344,1.11882,1.08515,1.85638a43.48643,43.48643,0,0,0-17.20182,20.754c-3.745,9.52479-4.34632,19.90824-3.70125,30.02649.38991,6.11883,1.21847,12.19753,2.05059,18.26906a1.11382,1.11382,0,0,1-.75115,1.32237,1.08157,1.08157,0,0,1-1.32239-.75113Z" transform="translate(-207.5 -319.57902)" fill="#3f3d56"/><path id="f74a7d99-3259-4264-a03b-1567597bdebf" data-name="Path 442" d="M482.66418,553.54352a16.57033,16.57033,0,0,0,14.43807,7.45414c7.31078-.34691,13.40309-5.44722,18.88689-10.291l16.22347-14.32408-10.73681-.51389c-7.72147-.36984-15.64219-.71674-22.99667,1.66713s-14.137,8.11209-15.48164,15.72463" transform="translate(-207.5 -319.57902)" fill="#6c63ff"/><path id="a42fcbb9-6e6a-4d65-b4bb-1afcb6d22e9b" data-name="Path 443" d="M467.48932,577.5795c7.28783-12.89494,15.74037-27.2262,30.845-31.80689a34.41945,34.41945,0,0,1,12.973-1.33961c1.37757.119,1.03353,2.242-.34118,2.12372a31.97674,31.97674,0,0,0-20.70381,5.47737c-5.83786,3.97362-10.38345,9.49828-14.23021,15.35619-2.35664,3.58875-4.46745,7.32942-6.57827,11.06506C468.77944,579.64945,466.807,578.7872,467.48932,577.5795Z" transform="translate(-207.5 -319.57902)" fill="#3f3d56"/><path id="bcabba70-d0f3-473d-b335-0d566e9784d7" data-name="Path 438" d="M909.08881,542.32478c-33.66813,9.666-34.06661-37.91416-39.42369-59.32478,19.03,12.95794,51.11625,31.43174,39.29969,58.74562" transform="translate(-207.5 -319.57902)" fill="#6c63ff"/><path id="ba478ea8-fb83-4c8b-9ab3-cf7979187684" data-name="Path 439" d="M907.23173,579.23989c4.42251-25.01354,4.70166-56.69462-19.84253-71.47844-1.17236-.74058-2.2525,1.11865-1.08421,1.85621,23.69653,14.33251,22.99265,44.93874,18.85159,69.04967a1.07647,1.07647,0,0,0,2.07443.57111Z" transform="translate(-207.5 -319.57902)" fill="#3f3d56"/><path id="fd385cca-8359-4008-938e-478bfe5bb8f2" data-name="Path 442" d="M812.33582,553.54352c-15.40686,20.68145-36.86161-7.01067-49.54843-17.16091,16.92307-.89964,43.95541-4.38779,49.21512,16.87787" transform="translate(-207.5 -319.57902)" fill="#6c63ff"/><path id="b59fa0dc-1c02-46f1-977b-f71e7fc9587c" data-name="Path 443" d="M827.51068,577.5795c-8.70881-16.672-22.61667-35.52669-43.81854-33.1459-1.37708.11839-1.033,2.24137.34167,2.12312,20.13906-2.08412,33.24227,16.0282,41.51183,31.8991C826.22056,579.64945,828.193,578.7872,827.51068,577.5795Z" transform="translate(-207.5 -319.57902)" fill="#3f3d56"/><path d="M991.5,580.421h-783a1,1,0,0,1,0-2h783a1,1,0,0,1,0,2Z" transform="translate(-207.5 -319.57902)" fill="#cacaca"/><path d="M803.5,514.421h-261a1,1,0,0,1,0-2h261a1,1,0,0,1,0,2Z" transform="translate(-207.5 -319.57902)" fill="#cacaca"/><path d="M676.68626,346.50945l-1.71845-21.39164a2.89859,2.89859,0,0,0-4.744-1.11271l-20.95036,19.62714a61.78244,61.78244,0,0,0-20.1396-.90646l-.52924-21.087a2.89858,2.89858,0,0,0-4.72275-1.30538l-16.90371,18.7324a62.20305,62.20305,0,1,0,69.70807,7.44367Z" transform="translate(-207.5 -319.57902)" fill="#3f3d56"/><path d="M684.45225,433.31866c22.88069-.36388,51.66641,79.93243-2.556,80.34854-28.05666.21531-77.72658,5.68731-77.72658,5.68731s-38.61087-57.94744-21.39078-93.99864Z" transform="translate(-207.5 -319.57902)" fill="#3f3d56"/><polyline points="426.623 156.173 426.623 197.775 446.073 197.775 461.505 155.414" fill="#3f3d56"/><path d="M653.57323,518.11264H634.12288a.75835.75835,0,0,1-.75831-.75831V475.7518a.75831.75831,0,1,1,1.51662,0V516.596h18.16126l15.25-41.86209a.75838.75838,0,0,1,1.42516.51912l-15.43183,42.36084A.75835.75835,0,0,1,653.57323,518.11264Z" transform="translate(-207.5 -319.57902)" fill="#fff"/><ellipse cx="477.05037" cy="195.22565" rx="15.92447" ry="5.30816" fill="#3f3d56"/><path d="M676.588,510.25519a.75842.75842,0,0,1-.72461-.53578c-.08368-.27215-8.139-27.28762,10.94529-35.42351a.75831.75831,0,1,1,.59465,1.39517c-17.84245,7.60641-10.16995,33.32372-10.09034,33.58254a.75861.75861,0,0,1-.5019.94788A.76656.76656,0,0,1,676.588,510.25519Z" transform="translate(-207.5 -319.57902)" fill="#fff"/><path d="M703.60081,503.32412c-.10693-.15308-.18457-.31421-.27734-.47119q-1.24292.04576-2.48584.09161Z" transform="translate(-207.5 -319.57902)" fill="#3f3d56"/><path d="M786.23607,479.28634c-6.209-9.92377-21.40088-12.68116-30.70118-5.57233-4.19677,3.20789-7.02539,7.84534-10.61084,11.72455A39.30625,39.30625,0,0,1,722.094,497.52108c-6.09375.91357-12.53907.4176-18.16651,2.92676-5.45752,2.43316-9.5747,9.37921-6.604,14.40509q31.42089-1.15806,62.84131-2.316c6.02636-.22211,12.26709-.49683,17.65576-3.20386C788.281,504.07827,792.44505,489.21016,786.23607,479.28634Z" transform="translate(-207.5 -319.57902)" fill="#3f3d56"/><path d="M631.59247,450.54064a62.39085,62.39085,0,0,1-25.046-4.99787c-16.52505-7.1732-24.09924-19.27836-24.4136-19.79007a.75832.75832,0,0,1,1.292-.79422,55.77494,55.77494,0,0,0,23.80191,19.22615c14.88087,6.43377,40.29271,9.65732,76.84517-11.522a.75835.75835,0,1,1,.76053,1.31223C663.37569,446.40771,645.66005,450.54064,631.59247,450.54064Z" transform="translate(-207.5 -319.57902)" fill="#fff"/><path d="M634.88119,412.05391a5.31412,5.31412,0,0,1-5.30816-5.30816.75831.75831,0,0,1,1.51662,0,3.79154,3.79154,0,0,0,7.58308,0,.75831.75831,0,0,1,1.51662,0A5.31413,5.31413,0,0,1,634.88119,412.05391Z" transform="translate(-207.5 -319.57902)" fill="#fff"/><path d="M627.67708,514.93315a.7586.7586,0,0,1-.72221-.52837l-12.13293-38.04352a.75822.75822,0,1,1,1.44478-.46062l12.13293,38.04352a.75939.75939,0,0,1-.72257.989Z" transform="translate(-207.5 -319.57902)" fill="#fff"/><ellipse cx="436.10173" cy="200.5338" rx="15.92447" ry="5.30816" fill="#3f3d56"/><ellipse cx="410.31925" cy="199.77549" rx="15.92447" ry="5.30816" fill="#3f3d56"/><ellipse cx="427.76034" cy="77.68788" rx="6.06647" ry="2.33326" fill="#fff"/><path d="M594.46945,397.438a18.49644,18.49644,0,0,1,28.3913,0,20.55818,20.55818,0,1,0-29.06583-.67455Q594.12432,397.10849,594.46945,397.438Z" transform="translate(-207.5 -319.57902)" fill="#fff"/><path d="M649.97654,397.438a18.49647,18.49647,0,0,1,28.39126,0,20.55817,20.55817,0,1,0-29.06581-.67455Q649.63137,397.10849,649.97654,397.438Z" transform="translate(-207.5 -319.57902)" fill="#fff"/><circle cx="392.15208" cy="64.98841" r="7.0718" fill="#3f3d56"/><circle cx="447.65716" cy="64.98841" r="7.0718" fill="#3f3d56"/><circle cx="457.334" cy="86.6274" r="6.19685" fill="#ff6584"/><circle cx="401.334" cy="86.6274" r="6.19685" fill="#ff6584"/></svg>