<svg id="bede37bf-e307-45f7-83e0-92b8be260785" data-name="Layer 1" xmlns="http://www.w3.org/2000/svg" width="785" height="260.84118" viewBox="0 0 785 260.84118"><path d="M326.46777,478.87012a52.292,52.292,0,0,1-17.34668-2.94532l-.415-.1455.3418-1.59864c-10.08887-19.76074-6.605-46.92041,8.89893-69.25244,14.104-20.3164,35.58447-35.10644,54.53369-48.15283h0a14.23158,14.23158,0,0,1,22.02881,14.50244l-6.69922,33.62451c-4.877,24.48536-10.67578,47.65625-27.83887,62.06153A52.93712,52.93712,0,0,1,326.46777,478.87012Z" transform="translate(-207.5 -319.57941)" fill="#6c63ff"/><path id="abd51855-a673-4ef9-adc8-1347fdb580b5" data-name="a99fcdd9-ae8f-4ca7-ba44-ef69baf9e145-26" d="M313.58972,560.98358c-3.50732-25.55267-7.11593-51.43576-4.64984-77.26242,2.18546-22.9371,9.18347-45.33609,23.4303-63.70972a105.98271,105.98271,0,0,1,27.19171-24.641c2.71847-1.71551,5.22113,2.59226,2.51425,4.30115a100.7564,100.7564,0,0,0-39.85593,48.08615c-8.677,22.06857-10.07025,46.12659-8.57568,69.57016.90341,14.17706,2.82315,28.26117,4.75116,42.32867a2.58071,2.58071,0,0,1-1.74039,3.06391,2.506,2.506,0,0,1-3.06393-1.74036Z" transform="translate(-207.5 -319.57941)" fill="#3f3d56"/><path d="M370.94287,537.77734A39.135,39.135,0,0,1,338.417,520.25586l-.24316-.36914.97314-.8252c2.92725-16.09277,17.10547-30.46289,36.17627-36.64453,17.33057-5.61719,36.52832-4.69922,53.46094-3.88574h0a10.60774,10.60774,0,0,1,6.51416,18.54785l-18.91943,16.70508C402.585,525.96777,388.835,536.96875,372.31152,537.752,371.855,537.76855,371.39746,537.77734,370.94287,537.77734Z" transform="translate(-207.5 -319.57941)" fill="#6c63ff"/><path id="b6a87e1b-685a-4f79-adc0-a59c983b9bff" data-name="a6e93fc3-3616-4120-bc87-b7b79f9b3178-28" d="M303.67557,575.67218c16.88562-29.877,36.46982-63.082,71.46664-73.69528a79.74861,79.74861,0,0,1,30.058-3.10382c3.1918.27569,2.39465,5.19455-.7905,4.92056a74.089,74.089,0,0,0-47.96991,12.69086c-13.52609,9.20672-24.058,22.00714-32.97083,35.57971-5.46023,8.315-10.35092,16.982-15.24157,25.63733C306.66473,580.46814,302.09464,578.4704,303.67557,575.67218Z" transform="translate(-207.5 -319.57941)" fill="#3f3d56"/><path d="M477.32617,536.083a22.84846,22.84846,0,0,1-7.58105-1.28711l-.415-.14551.1792-.83594c-4.34522-8.61328-2.8208-20.40039,3.90625-30.09082,6.1167-8.81152,15.41064-15.21,23.60888-20.85449h0a6.4263,6.4263,0,0,1,9.94727,6.54883l-2.89111,14.51269c-2.11573,10.62012-4.63379,20.67188-12.11133,26.94727A23.13135,23.13135,0,0,1,477.32617,536.083Z" transform="translate(-207.5 -319.57941)" fill="#6c63ff"/><path id="ebf62926-f2ef-4574-b3b9-03deb0cc338a" data-name="ef525daa-216d-438f-b057-809f99c83d16-30" d="M471.76828,571.23944c-1.51376-11.02857-3.07126-22.19971-2.00687-33.34644.94324-9.89965,3.9636-19.56707,10.11252-27.49713a45.74145,45.74145,0,0,1,11.73593-10.635c1.17331-.74041,2.25345,1.11881,1.08515,1.85639a43.48652,43.48652,0,0,0-17.20182,20.754c-3.745,9.52478-4.34631,19.90826-3.70126,30.02648.38992,6.11884,1.21848,12.19751,2.0506,18.26905a1.11381,1.11381,0,0,1-.75116,1.32239,1.08156,1.08156,0,0,1-1.32239-.75116Z" transform="translate(-207.5 -319.57941)" fill="#3f3d56"/><path d="M496.523,561.50781a17.1751,17.1751,0,0,1-14.27686-7.69043l-.24267-.36914.53418-.4541c1.32275-7.00684,7.498-13.24805,15.78711-15.93457,7.53027-2.44043,15.83984-2.043,23.1748-1.69043a4.86245,4.86245,0,0,1,2.98633,8.50195l-8.16553,7.21c-5.99316,5.293-11.9707,10.07325-19.19385,10.415C496.92529,561.50391,496.72363,561.50781,496.523,561.50781Z" transform="translate(-207.5 -319.57941)" fill="#6c63ff"/><path id="ab8c1ad0-4924-41ff-9be1-1da9c47377aa" data-name="a42fcbb9-6e6a-4d65-b4bb-1afcb6d22e9b-32" d="M467.48932,577.5791c7.28784-12.895,15.74036-27.2262,30.845-31.80688a34.41958,34.41958,0,0,1,12.973-1.3396c1.37757.119,1.03351,2.242-.34118,2.12371a31.97669,31.97669,0,0,0-20.7038,5.47736c-5.83786,3.97363-10.38345,9.49829-14.23023,15.3562-2.35662,3.58875-4.46743,7.32941-6.57827,11.06506C468.77945,579.64905,466.807,578.78674,467.48932,577.5791Z" transform="translate(-207.5 -319.57941)" fill="#3f3d56"/><path d="M898.69336,535.11621c-8.64844,0-15.24024-4.66992-20.01563-14.11621-4.57714-9.05664.16993-16.876,6.51856-20.30859,6.36133-3.44043,15.52246-3.13086,20.60156,5.67285h0c4.9502,8.5791,5.51856,17.4707,1.68945,26.43164l.18848.87988-.44922.12891A31.018,31.018,0,0,1,898.69336,535.11621Z" transform="translate(-207.5 -319.57941)" fill="#6c63ff"/><path id="fe56ea42-b5c6-4c01-a160-1e56b0952e49" data-name="ba478ea8-fb83-4c8b-9ab3-cf7979187684-34" d="M907.23175,579.23944c4.42249-25.01355,4.70166-56.69464-19.84253-71.47846-1.17236-.74057-2.2525,1.11866-1.08423,1.85621,23.69654,14.33252,22.99268,44.93872,18.85157,69.04968a1.07647,1.07647,0,0,0,2.0744.5711Z" transform="translate(-207.5 -319.57941)" fill="#3f3d56"/><path d="M794.41016,559.53711a21.01163,21.01163,0,0,1-8.88379-2.23731c-6.958-3.26562-7.71485-10.124-5.47364-15.11523,2.2168-4.93555,7.78809-8.88086,14.78223-5.87793a20.88831,20.88831,0,0,1,12.61328,14.67578l.56934.48242-.28028.377C803.9082,556.98145,799.50391,559.53711,794.41016,559.53711Z" transform="translate(-207.5 -319.57941)" fill="#6c63ff"/><path id="bd957783-9dde-42d5-bbc3-75df1df1a96d" data-name="b59fa0dc-1c02-46f1-977b-f71e7fc9587c-36" d="M827.51068,577.5791c-8.7088-16.672-22.6167-35.52667-43.81854-33.14587-1.37708.1184-1.033,2.24139.34167,2.1231,20.139-2.0841,33.24225,16.0282,41.51184,31.89911C826.22058,579.64905,828.193,578.78674,827.51068,577.5791Z" transform="translate(-207.5 -319.57941)" fill="#3f3d56"/><path d="M991.5,580.42059h-783a1,1,0,0,1,0-2h783a1,1,0,0,1,0,2Z" transform="translate(-207.5 -319.57941)" fill="#cacaca"/><path d="M803.5,514.42059h-261a1,1,0,0,1,0-2h261a1,1,0,0,1,0,2Z" transform="translate(-207.5 -319.57941)" fill="#cacaca"/><path d="M676.68628,346.509l-1.71845-21.39163a2.89864,2.89864,0,0,0-4.744-1.11271c-13.79132,3.3836-19.35632,10.58413-20.95037,19.62713a61.78277,61.78277,0,0,0-20.13959-.90646c4.84814-6.90061,4.51385-13.93366-.52924-21.087a2.89865,2.89865,0,0,0-4.72278-1.30539c-9.3283,4.71473-15.853,10.59021-16.90368,18.7324a62.203,62.203,0,1,0,69.70809,7.44367Z" transform="translate(-207.5 -319.57941)" fill="#3f3d56"/><path d="M684.45225,433.31822c27.20648-11.59668,55.27112,70.572-2.556,80.34858-28.05664.21533-77.25055,2.49462-77.25055,2.49462-2.01923,9.69169-42.2923-39.36978-21.86682-90.806Z" transform="translate(-207.5 -319.57941)" fill="#3f3d56"/><polyline points="426.623 156.172 426.623 197.774 446.073 197.774 461.505 155.413" fill="#3f3d56"/><path d="M653.57324,518.11218H634.12286a.75835.75835,0,0,1-.7583-.7583V475.75137a.75831.75831,0,1,1,1.5166-.00748v40.85169h18.16126l15.25-41.86209a.75839.75839,0,0,1,1.42517.51913h0l-15.43182,42.36084A.75837.75837,0,0,1,653.57324,518.11218Z" transform="translate(-207.5 -319.57941)" fill="#fff"/><ellipse cx="477.05038" cy="195.22482" rx="15.92447" ry="5.30817" fill="#3f3d56"/><path d="M676.588,510.25476a.7584.7584,0,0,1-.72461-.53577c-.08368-.27215-8.139-27.28763,10.94532-35.42352a.7583.7583,0,0,1,.59649,1.39438l-.00183.00079c-17.84247,7.60642-10.16992,33.32373-10.09033,33.58255a.7586.7586,0,0,1-.50189.94788A.7663.7663,0,0,1,676.588,510.25476Z" transform="translate(-207.5 -319.57941)" fill="#fff"/><path d="M703.60083,503.3237c-.10693-.15308-.18457-.31421-.27734-.47119q-1.24293.04572-2.48584.09161Z" transform="translate(-207.5 -319.57941)" fill="#3f3d56"/><path d="M780.23608,479.28592c-6.209-9.92377-21.40087-12.68115-30.70117-5.57233-4.19678,3.20789-7.02539,7.84534-10.61084,11.72455A39.30641,39.30641,0,0,1,716.094,497.52066c-6.09375.91357-12.53906.4176-18.1665,2.92676-5.45752,2.43316-9.57471,9.37921-6.604,14.40506q31.42089-1.15806,62.8413-2.316c6.02637-.22211,12.26709-.49683,17.65577-3.20386C782.281,504.07785,786.44507,489.20975,780.23608,479.28592Z" transform="translate(-207.5 -319.57941)" fill="#3f3d56"/><path d="M631.59247,450.54022a62.39088,62.39088,0,0,1-25.046-4.99786c-16.525-7.17319-24.09925-19.27835-24.41358-19.79007a.75832.75832,0,0,1,1.292-.79422,55.77509,55.77509,0,0,0,23.80194,19.22613c14.88086,6.43378,40.29272,9.65732,76.84515-11.522a.75835.75835,0,0,1,.76056,1.31222h0C663.37567,446.40729,645.66,450.54022,631.59247,450.54022Z" transform="translate(-207.5 -319.57941)" fill="#fff"/><path d="M634.88116,412.0535a5.31415,5.31415,0,0,1-5.30816-5.30817.75831.75831,0,0,1,1.5166,0,3.79154,3.79154,0,0,0,7.58307,0,.75831.75831,0,0,1,1.5166,0A5.31414,5.31414,0,0,1,634.88116,412.0535Z" transform="translate(-207.5 -319.57941)" fill="#fff"/><path d="M627.67706,514.93274a.75853.75853,0,0,1-.72223-.52838L614.8219,476.36084a.75822.75822,0,0,1,1.44226-.46848l.0025.00785,12.13294,38.04351a.7593.7593,0,0,1-.7226.989Z" transform="translate(-207.5 -319.57941)" fill="#fff"/><ellipse cx="436.10172" cy="200.53297" rx="15.92447" ry="5.30817" fill="#3f3d56"/><ellipse cx="410.31924" cy="199.77467" rx="15.92447" ry="5.30817" fill="#3f3d56"/><ellipse cx="427.76035" cy="77.68705" rx="6.06647" ry="2.33326" fill="#fff"/><path d="M594.46942,397.43756a18.49648,18.49648,0,0,1,28.3913,0,20.55818,20.55818,0,1,0-29.06586-.67456Q594.12427,397.10811,594.46942,397.43756Z" transform="translate(-207.5 -319.57941)" fill="#fff"/><path d="M649.97656,397.43756a18.49637,18.49637,0,0,1,28.39124,0,20.55817,20.55817,0,1,0-29.0658-.67459v0Q649.63133,397.10811,649.97656,397.43756Z" transform="translate(-207.5 -319.57941)" fill="#fff"/><circle cx="392.15207" cy="64.98758" r="7.0718" fill="#3f3d56"/><circle cx="447.65717" cy="64.98758" r="7.0718" fill="#3f3d56"/><circle cx="457.33401" cy="86.62658" r="6.19684" fill="#ff6584"/><circle cx="401.33401" cy="86.62658" r="6.19684" fill="#ff6584"/></svg>