<?xml version="1.0" encoding="UTF-8"?><svg id="uuid-acaa8f94-a6cf-45c0-a95d-e28ff263c542" xmlns="http://www.w3.org/2000/svg" width="623.06788" height="640" viewBox="0 0 623.06788 640"><path d="M0,574.91689c0,.66003,.53003,1.19,1.19006,1.19H523.48004c.65997,0,1.19-.52997,1.19-1.19,0-.65997-.53003-1.19-1.19-1.19H1.19006c-.66003,0-1.19006,.53003-1.19006,1.19Z" fill="#3f3d56"/><g><path d="M7.94496,533.90978l-1.67075-1.83057,163.06378-148.79639,58.7488,26.33617,63.44023-108.79394,52.12208-25.12366,48.29266,80.48737,169.81036-209.7662,1.92742,1.56058-172.04045,212.52053-44.66877-74.66708c-2.11025-3.52744-6.5448-4.88991-10.2716-3.15583l-.00005,.00002c-28.49045,13.25661-52.25459,34.89544-68.11468,62.02293l-39.7393,67.97107-9.0714-4.06644c-30.33815-13.59969-65.85408-7.89979-90.41309,14.51026L7.94496,533.90978Z" fill="#3f3d56"/><polygon points="565.42824 159.96917 562.9526 160.14109 562.11889 147.94413 550.01379 149.66683 549.66647 147.20958 564.40959 145.11444 565.42824 159.96917" fill="#3f3d56"/></g><circle cx="152.42824" cy="210" r="65" fill="#ff6884"/><polygon points="391.09554 173.58851 399.86092 139.89126 434.00812 138.24873 444.22445 184.69927 391.09554 173.58851" fill="#ffb6b6"/><polygon points="391.09554 173.58851 399.86092 139.89126 434.00812 138.24873 444.22445 184.69927 391.09554 173.58851" opacity=".1"/><circle cx="409.3174" cy="121.23127" r="41.21627" fill="#ffb6b6"/><path d="M432.69041,128.0828s-18.12136-29.65077-36.26097-26.37806c-18.13961,3.2727-27.59589,6.22745-27.59589,6.22745,0,0-7.38687-23.6407,17.41324-34.98277,0,0-35.09648-29.38483,2.30856-48.24303,37.40504-18.85821,60.68121-.58156,60.68121-.58156,0,0,30.95905,26.25555-3.36586,50.5541,0,0,29.70861,33.84124-.29765,66.16729,0,0,5.29716-24.61448-1.90879-19.56838-7.20596,5.04609-10.97385,6.80496-10.97385,6.80496Z" fill="#2f2e41"/><polygon points="368.08982 344.01995 362.60717 349.27447 323.00004 434.1995 318.66449 574.67149 385.21014 574.67149 416.42614 505.10802 437.4587 574 497.29278 574 511.16314 448.94039 473.87737 360.49506 368.08982 344.01995" fill="#2f2e41"/><path d="M437.02515,170.16419h-44.44115l-48.33973,26.01333,11.27244,50.29244s-2.60133,30.34889,3.46844,52.89377c6.06978,22.54489,3.46844,52.02666,3.46844,52.02666l111.42377,9.10467,3.46844-102.31911-1.73422-68.50177-38.58644-19.51Z" fill="#e6e6e6"/><path d="M351.61471,196.61107s-26.88044,.86711-31.216,18.20933c-4.33556,17.34222-7.804,106.65466-7.804,106.65466,0,0,2.60133,52.99619,31.64955,27.79876,29.04822-25.19743,26.44689-101.5032,26.44689-101.5032l-19.07644-51.15955Z" fill="#e6e6e6"/><path d="M612.33836,639h-158.40879c-5.36477,0-9.72961-4.36428-9.72961-9.72961v-163.75796c0-5.36533,4.36484-9.72961,9.72961-9.72961h158.40879c5.36533,0,9.72961,4.36428,9.72961,9.72961v163.75796c0,5.36533-4.36428,9.72961-9.72961,9.72961Z" fill="#fff"/><path d="M612.33839,640h-158.40918c-5.91602,0-10.72949-4.81299-10.72949-10.72949v-163.7583c0-5.91602,4.81348-10.72949,10.72949-10.72949h158.40918c5.91602,0,10.72949,4.81348,10.72949,10.72949v163.7583c0,5.9165-4.81348,10.72949-10.72949,10.72949Zm-158.40918-183.21729c-4.81348,0-8.72949,3.91602-8.72949,8.72949v163.7583c0,4.81348,3.91602,8.72949,8.72949,8.72949h158.40918c4.81348,0,8.72949-3.91602,8.72949-8.72949v-163.7583c0-4.81348-3.91602-8.72949-8.72949-8.72949h-158.40918Z" fill="#3f3d56"/><g><path d="M539.38523,595.97909h-13.05612c-1.58965,0-2.88277-.99816-2.88277-2.2252v-56.21145c0-1.22704,1.29312-2.2252,2.88277-2.2252h13.05612c1.58965,0,2.88277,.99816,2.88277,2.2252v56.21145c0,1.22704-1.29312,2.2252-2.88277,2.2252Z" fill="#6c63ff"/><path d="M496.22071,562.85316c-1.2842,0-2.32919,.80662-2.32919,1.79789v29.04004c0,.99127,1.04499,1.79789,2.32919,1.79789h13.05612c1.2842,0,2.32919-.80662,2.32919-1.79789v-29.04004c0-.99127-1.04499-1.79789-2.32919-1.79789h-13.05612Z" fill="#6c63ff"/><path d="M569.49364,595.97909h-13.05612c-1.58965,0-2.88277-.99816-2.88277-2.2252v-92.12049c0-1.22704,1.29312-2.2252,2.88277-2.2252h13.05612c1.58965,0,2.88277,.99816,2.88277,2.2252v92.12049c0,1.22704-1.29312,2.2252-2.88277,2.2252Z" fill="#6c63ff"/></g><path d="M321.90381,210.28673H140.9554c-6.12811,0-11.11401-4.98526-11.11401-11.11401V12.11401c0-6.12875,4.9859-11.11401,11.11401-11.11401h180.94842c6.12875,0,11.11401,4.98526,11.11401,11.11401V199.17272c0,6.12875-4.98526,11.11401-11.11401,11.11401Z" fill="#fff"/><path d="M321.90382,211.28662H140.95558c-6.67969,0-12.11426-5.43408-12.11426-12.11377V12.11377c0-6.67969,5.43457-12.11377,12.11426-12.11377h180.94824c6.67969,0,12.11426,5.43408,12.11426,12.11377V199.17285c0,6.67969-5.43457,12.11377-12.11426,12.11377ZM140.95558,2c-5.57715,0-10.11426,4.53711-10.11426,10.11377V199.17285c0,5.57666,4.53711,10.11377,10.11426,10.11377h180.94824c5.57715,0,10.11426-4.53711,10.11426-10.11377V12.11377c0-5.57666-4.53711-10.11377-10.11426-10.11377H140.95558Z" fill="#3f3d56"/><g><path d="M238.57036,161.14447h-14.91385c-1.81583,0-3.29295-1.14018-3.29295-2.54182V94.39301c0-1.40163,1.47712-2.54182,3.29295-2.54182h14.91385c1.81583,0,3.29295,1.14018,3.29295,2.54182v64.20965c0,1.40163-1.47712,2.54182-3.29295,2.54182Z" fill="#6c63ff"/><path d="M189.26405,123.30513c-1.46693,0-2.66061,.92139-2.66061,2.05371v33.17208c0,1.13232,1.19368,2.05371,2.66061,2.05371h14.91385c1.46693,0,2.66061-.92139,2.66061-2.05371v-33.17208c0-1.13232-1.19368-2.05371-2.66061-2.05371h-14.91385Z" fill="#6c63ff"/><path d="M272.96282,161.14447h-14.91385c-1.81583,0-3.29295-1.14018-3.29295-2.54182V53.37455c0-1.40163,1.47712-2.54182,3.29295-2.54182h14.91385c1.81583,0,3.29295,1.14018,3.29295,2.54182v105.22811c0,1.40163-1.47712,2.54182-3.29295,2.54182Z" fill="#6c63ff"/></g><path d="M508.84876,479.6092c7.7246-.73964,13.04396-11.17797,11.88173-23.32009-.39773-4.85673-1.95276-9.54749-4.53496-13.67993l-1.48888-13.74216,.22807-.06839,3.74228-65.15798c.87013-15.15003-5.12704-30.03689-16.68126-39.8746-6.87334-5.85223-14.20574-8.81527-18.9208-1.421-7.82382,12.26948,2.31027,62.84671,8.96534,91.60161l2.58023,30.72778c-1.75279,4.54852-2.39051,9.45065-1.85978,14.29609,1.16015,12.13803,8.36346,21.37819,16.08804,20.63866Z" fill="#ffb6b6"/><path d="M466.07337,191.40841s22.54489-8.67111,32.95022,17.34222c10.40533,26.01333,21.67778,154.34577,21.67778,154.34577l-52.89377-9.53822-1.73422-162.14977Z" fill="#e6e6e6"/><path d="M317.87838,186.34599c-7.7246,.73964-13.04396,11.17797-11.88173,23.32009,.39773,4.85673,1.95276,9.54749,4.53496,13.67993l1.48888,13.74216-.22807,.06839-3.74228,65.15798c-.87013,15.15003,5.12704,30.03689,16.68126,39.8746,6.87334,5.85223,14.20574,8.81527,18.9208,1.421,7.82382-12.26948-2.31027-62.84671-8.96534-91.60161l-2.58023-30.72778c1.75279-4.54852,2.39051-9.45065,1.85978-14.29609-1.16015-12.13803-8.36346-21.37819-16.08804-20.63866Z" fill="#ffb6b6"/><g><path d="M198.54629,514.11602H118.18919c-2.02587,0-3.67427-1.64841-3.67427-3.67428s1.64841-3.67351,3.67427-3.67351h80.3571c2.02587,0,3.67351,1.64765,3.67351,3.67351,0,2.02587-1.64764,3.67427-3.67351,3.67427Z" fill="#6c63ff"/><path d="M55.03234,533.78325c0,.66003,.53003,1.19,1.19006,1.19h204.28998c.65997,0,1.19-.52997,1.19-1.19,0-.65997-.53003-1.19-1.19-1.19H56.2224c-.66003,0-1.19006,.53003-1.19006,1.19Z" fill="#3f3d56"/></g></svg>