<?xml version="1.0" encoding="UTF-8"?><svg id="uuid-947b0d9e-d205-4102-bbec-a93312845925" xmlns="http://www.w3.org/2000/svg" width="692.68042" height="503.58746" viewBox="0 0 692.68042 503.58746"><path d="M0,497.67245c0,.8714,.69976,1.57108,1.57114,1.57108H691.10938c.87134,0,1.57104-.69968,1.57104-1.57108,0-.87131-.69977-1.57108-1.57104-1.57108H1.57114c-.87139,0-1.57114,.69977-1.57114,1.57108Z" fill="#3f3d56"/><g><g><path id="uuid-a7ca5c13-21b1-4b26-9c66-659d4bbf104a" d="M232.56828,225.83102c4.89854,.02271,9.73128-1.12839,14.09369-3.35686l51.12312,2.76392,.6037-24.3643-51.92336-.17973c-4.40088-2.14783-9.25218-3.21051-14.14796-3.09912-12.25757,.11073-22.13298,6.5211-22.06279,14.31914s10.06036,14.02933,22.31358,13.91699v-.00005l.00002,.00002Z" fill="#ffb6b6"/><path d="M328.65274,233.06303l-73.64648-8.11621,12.86523-26.71973,43.2334-.35645,5.15186-61.24219c.46631-5.54248,3.10596-10.51953,7.43213-14.01514,4.32715-3.49561,9.74902-5.0293,15.26416-4.32129h0c10.24268,1.31689,17.81738,10.0957,17.6167,20.4209l-1.37793,71.03563c-.12988,6.70215-3.09326,13.08398-8.12939,17.50781-4.37939,3.84766-10.02441,5.9502-15.80371,5.94922-.8667,0-1.73682-.04688-2.60596-.14258v.00002Z" fill="#6c63ff"/></g><path d="M247.94524,468.26031l8.10793-112.93457c.40674-5.66797,2.75244-11.09082,6.60449-15.27051l67.25-72.94922v-18.06055l61.03369-43.5957,.30127-.21484,.29395,.22559c.34961,.26855,34.84717,27.38281,26.896,75.46289l25.3623,83.50879,90.47266,62.58789,.45117,.3125-16.73438,19.95117-98.37354-44.76953c-3.76514-1.71289-6.9375-4.45801-9.1748-7.9375l-52.21582-81.22461-54.67773,44.84863-28.50977,110.31836-.09912,.38477-26.98828-.64355h-.00002Z" fill="#2f2e41"/><path d="M521.55463,503.24859c-4.65381-1.29785-7.52979-5.86426-6.68945-10.62207l4.10303-23.23242-3.84961-18.88379,14.2373-21.62109c3.5752-5.42871,10.31445-7.60645,16.3916-5.28711l7.92334,3.02246c2.65918,1.01465,4.01562,4.00977,3.02393,6.67676l-23.875,64.20605c-1.38184,3.71387-4.97803,6.08008-8.79346,6.08008-.82031,0-1.65088-.10938-2.47168-.33887Z" fill="#2f2e41"/><path d="M200.63223,488.45172c-.47217-4.80859,2.74561-9.14062,7.48535-10.07617l23.14453-4.57422,16.21387-10.41602,25.30566,5.45801c6.35645,1.37012,10.8208,6.86816,10.85645,13.37012l.03662,6.65723c.02148,3.85156-3.09424,7.02832-6.94531,7.08203l-66.6709,.92676c-.04297,.00098-.08496,.00098-.12744,.00098-4.76025-.00098-8.83252-3.67871-9.29883-8.42871Z" fill="#2f2e41"/><polygon points="331.64908 82.34629 337.85562 105.31056 309.92612 119.58564 299.37497 89.1735 331.64908 82.34629" fill="#ffb6b6"/><circle cx="313.39261" cy="61.93627" r="32.69619" fill="#ffb6b6"/><path d="M338.11551,89.65206l-12.22379,3.05595s9.16785-28.37668,.87314-27.94012l-8.29471,.43656-5.23877-9.16785s-8.73129-17.02601-24.01105-15.71632c0,0,6.54846-21.82822,31.43262-14.84319l8.29471,3.05595s-4.36563-23.13791,10.91412-20.95509c0,0,2.61938,3.05595,13.53348-6.1119,10.91412-9.16785,31.8692,27.50355,23.13791,31.43263-8.73129,3.92908-8.29471,17.89914-20.95508,12.2238,0,0,1.74625,44.96612-17.46255,44.52956l-.00003,.00002Z" fill="#2f2e41"/><path d="M300.246,188.68217c-6.10938-12.51074-7.29346-26.75098-3.3335-40.09717l10.729-36.16016,28.41357-16.41699,18.32812,16.21387c9.36816,8.28711,16.31494,18.96973,20.08887,30.89355l21.70215,68.55908-65.97998,38.33008-29.94824-61.32227Z" fill="#6c63ff"/><g><path id="uuid-b46d3c37-e1cd-415b-8bcd-8b3ae3ea6add" d="M371.20416,271.99694c2.39368-4.27393,3.7287-9.05911,3.8934-13.95499l27.19186-43.37991-21.01981-12.33498-25.31918,45.3322c-4.01144,2.80878-7.29193,6.53741-9.56699,10.87393-5.84314,10.77582-5.02133,22.52066,1.83389,26.23816s17.14719-2.00159,22.98682-12.77438l-.00003-.00003h.00003Z" fill="#ffb6b6"/><path d="M424.09259,191.45294l-42.78848,60.4882-17.13828-24.20203,20.63901-37.99059-51.07422-34.18436c-4.62225-3.09377-7.69669-7.81464-8.65796-13.29286-.96082-5.47908,.32504-10.96503,3.617-15.44621h0c6.11551-8.32148,17.46536-10.69317,26.39993-5.51405l61.46976,35.62904c5.79968,3.36147,9.94608,9.04626,11.37524,15.59534,1.24344,5.69537,.34705,11.65218-2.45444,16.70706-.42001,.75813-.88266,1.49654-1.38757,2.21043v.00002Z" fill="#6c63ff"/></g></g></svg>