<svg id="bc24a579-60a9-4802-b7cd-d3f4cf6a0382" data-name="Layer 1" xmlns="http://www.w3.org/2000/svg" width="985" height="721.92634" viewBox="0 0 985 721.92634"><title>santa_visit</title><ellipse cx="492.5" cy="700.92634" rx="492.5" ry="21" fill="#d0cde1"/><path d="M449.5,591.96317a126,126,0,1,1-126-126A125.66753,125.66753,0,0,1,449.5,591.96317Z" transform="translate(-107.5 -89.03683)" fill="#ff6584"/><path d="M394.5,370.96317c0,23.74824-30.44464,43-68,43s-68-19.25176-68-43,30.44464-101,68-101S394.5,347.21493,394.5,370.96317Z" transform="translate(-107.5 -89.03683)" fill="#ff6584"/><circle cx="218.5" cy="356.42634" r="75" fill="#ffb8b8"/><ellipse cx="218.5" cy="443.42634" rx="84.5" ry="77.5" fill="#eae6fc"/><path d="M389,479.46317H345.03662A18.03662,18.03662,0,0,1,327,461.42655v0a18.03263,18.03263,0,0,1,23.55247-17.16782c32.49594,10.45744,63.48165,17.22714,81.44753-7.79552v0A43,43,0,0,1,389,479.46317Z" transform="translate(-107.5 -89.03683)" fill="#eae6fc"/><path d="M262,479.46317h43.96342A18.03662,18.03662,0,0,0,324,461.42655v0a18.03263,18.03263,0,0,0-23.55247-17.16782C267.95159,454.71613,236.96588,461.48583,219,436.46317v0A43,43,0,0,0,262,479.46317Z" transform="translate(-107.5 -89.03683)" fill="#eae6fc"/><circle cx="218" cy="368.92634" r="14" fill="#ffb8b8"/><path d="M390.50794,413.96317H262.25a13.31876,13.31876,0,0,1-13.01877-10.50788l-3.74872-17.3625a13.31875,13.31875,0,0,1,13.01877-16.12962H393.86206a13.31876,13.31876,0,0,1,13.077,15.845l-3.35412,17.36249A13.31875,13.31875,0,0,1,390.50794,413.96317Z" transform="translate(-107.5 -89.03683)" fill="#eae6fc"/><circle cx="241" cy="186.92634" r="18" fill="#eae6fc"/><ellipse cx="219" cy="394.92634" rx="28" ry="6.05405" fill="#ffb8b8"/><path d="M445.65,622.96317a124.88885,124.88885,0,0,1-15.42,36H216.77a124.88885,124.88885,0,0,1-15.42-36Z" transform="translate(-107.5 -89.03683)" fill="#3f3d56"/><path d="M355.5,672.96317h-64v-64h64Zm-54-10h44v-44h-44Z" transform="translate(-107.5 -89.03683)" fill="#eae6fc"/><rect x="171" y="617.92634" width="15" height="62" fill="#ff6584"/><rect x="245" y="617.92634" width="15" height="62" fill="#ff6584"/><rect x="430.6297" y="498.7343" width="15" height="62" transform="translate(240.12444 -240.76042) rotate(32.02803)" fill="#ff6584"/><path d="M378.5,776.25394V746.96317h-34l8.1795,29H352.5v16h39v-.00006A15.99767,15.99767,0,0,0,378.5,776.25394Z" transform="translate(-107.5 -89.03683)" fill="#3f3d56"/><path d="M268.5,776.25394V746.96317h34l-8.1795,29H294.5v16h-39v-.00006A15.99767,15.99767,0,0,1,268.5,776.25394Z" transform="translate(-107.5 -89.03683)" fill="#3f3d56"/><path d="M471.5076,479.30974c-5.75566-5.6657-11.95529.17165-16.50684,6.89824-1.12433-3.16385-2.723-5.29907-3.893-4.99676-1.39557.36059-1.65,4.04694-.56817,8.23371a22.11957,22.11957,0,0,0,.89173,2.723c-1.98647,3.70612-3.19186,6.6321-3.19186,6.6321l-6.27495,7.01262,17.81564,11.57051,4.35856-9.21309S482.353,489.98563,471.5076,479.30974Z" transform="translate(-107.5 -89.03683)" fill="#3f3d56"/><rect x="188.65558" y="548.28176" width="15" height="62" transform="translate(-52.25881 1085.38147) rotate(-147.97197)" fill="#ff6584"/><path d="M162.77768,629.70632c5.75566,5.6657,11.95529-.17165,16.50683-6.89824,1.12434,3.16385,2.723,5.29907,3.893,4.99676,1.39556-.36059,1.65-4.04694.56816-8.23371a22.11618,22.11618,0,0,0-.89173-2.723c1.98647-3.70611,3.19187-6.63209,3.19187-6.63209l6.27495-7.01263-17.81564-11.57051-4.35857,9.21309S151.93228,619.03043,162.77768,629.70632Z" transform="translate(-107.5 -89.03683)" fill="#3f3d56"/><polygon points="771.816 636.926 683.481 483.926 717.924 483.926 641.714 351.926 697 351.926 616.671 212.792 658 212.792 553 30.926 448 212.792 489.329 212.792 409 351.926 464.286 351.926 388.076 483.926 422.519 483.926 334.184 636.926 508 636.926 508 694.926 582 694.926 582 636.926 771.816 636.926" fill="#d0cde1"/><circle cx="663.48063" cy="371.76816" r="18.361" fill="#6c63ff"/><polygon points="651.351 371.185 646.596 363.819 647.561 363.197 651.65 369.532 660.045 363.294 667.551 370.694 674.931 364.275 681.698 372.055 680.832 372.808 674.818 365.894 667.503 372.256 659.94 364.801 651.351 371.185" fill="#575a89"/><polygon points="679.105 381.839 673.043 374.869 665.723 381.234 658.164 373.783 649.587 380.157 644.876 372.857 645.716 372.315 649.848 378.717 658.255 372.469 665.766 379.872 673.141 373.458 679.86 381.182 679.105 381.839" fill="#575a89"/><rect x="765.23735" y="435.57838" width="13.77075" height="1.14756" transform="translate(175.87019 1087.06341) rotate(-86.01531)" fill="#575a89"/><circle cx="418.48063" cy="379.76816" r="18.361" fill="#6c63ff"/><polygon points="406.351 379.185 401.596 371.819 402.561 371.197 406.65 377.532 415.045 371.294 422.551 378.694 429.931 372.275 436.698 380.055 435.832 380.808 429.818 373.894 422.503 380.256 414.94 372.801 406.351 379.185" fill="#575a89"/><polygon points="434.105 389.839 428.043 382.869 420.723 389.234 413.164 381.783 404.587 388.157 399.876 380.857 400.716 380.315 404.848 386.717 413.255 380.469 420.766 387.872 428.141 381.458 434.86 389.182 434.105 389.839" fill="#575a89"/><rect x="520.23735" y="443.57838" width="13.77075" height="1.14756" transform="translate(-60.08546 850.09975) rotate(-86.01531)" fill="#575a89"/><circle cx="534.48063" cy="180.76816" r="18.361" fill="#6c63ff"/><polygon points="522.351 180.185 517.596 172.819 518.561 172.197 522.65 178.532 531.045 172.294 538.551 179.694 545.931 173.275 552.698 181.055 551.832 181.808 545.818 174.894 538.503 181.256 530.94 173.801 522.351 180.185" fill="#575a89"/><polygon points="550.105 190.839 544.043 183.869 536.723 190.234 529.164 182.783 520.587 189.157 515.876 181.857 516.716 181.315 520.848 187.717 529.255 181.469 536.766 188.872 544.141 182.458 550.86 190.182 550.105 190.839" fill="#575a89"/><rect x="636.23735" y="244.57838" width="13.77075" height="1.14756" transform="translate(246.37267 780.64782) rotate(-86.01531)" fill="#575a89"/><circle cx="646.48063" cy="508.76816" r="18.361" fill="#6c63ff"/><polygon points="634.351 508.185 629.596 500.819 630.561 500.197 634.65 506.532 643.045 500.294 650.551 507.694 657.931 501.275 664.698 509.055 663.832 509.808 657.818 502.894 650.503 509.256 642.94 501.801 634.351 508.185" fill="#575a89"/><polygon points="662.105 518.839 656.043 511.869 648.723 518.234 641.164 510.783 632.587 517.157 627.876 509.857 628.716 509.315 632.848 515.717 641.255 509.469 648.766 516.872 656.141 510.458 662.86 518.182 662.105 518.839" fill="#575a89"/><rect x="748.23735" y="572.57838" width="13.77075" height="1.14756" transform="translate(23.38269 1197.5844) rotate(-86.01531)" fill="#575a89"/><circle cx="439.48063" cy="576.76816" r="18.361" fill="#6c63ff"/><polygon points="427.351 576.185 422.596 568.819 423.561 568.197 427.65 574.532 436.045 568.294 443.551 575.694 450.931 569.275 457.698 577.055 456.832 577.808 450.818 570.894 443.503 577.256 435.94 569.801 427.351 576.185" fill="#575a89"/><polygon points="455.105 586.839 449.043 579.869 441.723 586.234 434.164 578.783 425.587 585.157 420.876 577.857 421.716 577.315 425.848 583.717 434.255 577.469 441.766 584.872 449.141 578.458 455.86 586.182 455.105 586.839" fill="#575a89"/><rect x="541.23735" y="640.57838" width="13.77075" height="1.14756" transform="translate(-237.06853 1054.35947) rotate(-86.01531)" fill="#575a89"/><circle cx="585.48063" cy="287.76816" r="18.361" fill="#6c63ff"/><polygon points="573.351 287.185 568.596 279.819 569.561 279.197 573.65 285.532 582.045 279.294 589.551 286.694 596.931 280.275 603.698 288.055 602.832 288.808 596.818 281.894 589.503 288.256 581.94 280.801 573.351 287.185" fill="#575a89"/><polygon points="601.105 297.839 595.043 290.869 587.723 297.234 580.164 289.783 571.587 296.157 566.876 288.857 567.716 288.315 571.848 294.717 580.255 288.469 587.766 295.872 595.141 289.458 601.86 297.182 601.105 297.839" fill="#575a89"/><rect x="687.23735" y="351.57838" width="13.77075" height="1.14756" transform="translate(187.08734 931.08912) rotate(-86.01531)" fill="#575a89"/><circle cx="533.48063" cy="468.76816" r="18.361" fill="#6c63ff"/><polygon points="521.351 468.185 516.596 460.819 517.561 460.197 521.65 466.532 530.045 460.294 537.551 467.694 544.931 461.275 551.698 469.055 550.832 469.808 544.818 462.894 537.503 469.256 529.94 461.801 521.351 468.185" fill="#575a89"/><polygon points="549.105 478.839 543.043 471.869 535.723 478.234 528.164 470.783 519.587 477.157 514.876 469.857 515.716 469.315 519.848 475.717 528.255 469.469 535.766 476.872 543.141 470.458 549.86 478.182 549.105 478.839" fill="#575a89"/><rect x="635.23735" y="532.57838" width="13.77075" height="1.14756" transform="translate(-41.86165 1047.63715) rotate(-86.01531)" fill="#575a89"/><polygon points="567.446 48.917 551.809 37.183 535.817 48.429 542.145 29.931 526.507 18.196 546.056 18.498 552.384 0 558.137 18.685 577.685 18.987 561.693 30.233 567.446 48.917" fill="#6c63ff"/><path d="M660.55273,229.22538c-31.72851,0-55.38964-12.56446-55.74121-12.75586l.95508-1.75733c.51758.28077,52.38574,27.78467,105.27344.36329l.91992,1.77539A110.62283,110.62283,0,0,1,660.55273,229.22538Z" transform="translate(-107.5 -89.03683)" fill="#3f3d56"/><path d="M666.91016,333.44217a314.12853,314.12853,0,0,1-81.59961-11.21435l.58593-1.91211c.82422.25195,83.10059,24.915,149.127.02051l.70508,1.87109C713.38379,330.6326,689.20215,333.44217,666.91016,333.44217Z" transform="translate(-107.5 -89.03683)" fill="#3f3d56"/><path d="M653.22852,442.11161a355.069,355.069,0,0,1-51.46387-3.66406c-45.18067-6.62842-71.85742-20.00782-72.12158-20.14258l.90625-1.78272c.2622.1333,26.71435,13.38819,71.60205,19.96045,41.42578,6.06641,107.46777,7.51563,186.86426-20.01367l.65429,1.88965C737.37305,436.49149,690.8252,442.11161,653.22852,442.11161Z" transform="translate(-107.5 -89.03683)" fill="#3f3d56"/><path d="M664.48145,540.29325a431.77555,431.77555,0,0,1-53.89747-3.38574c-48.51757-6.12207-80.53369-18.46875-80.85156-18.59278l.727-1.86328c.31592.123,32.14991,12.39356,80.439,18.48047,44.54394,5.61231,112.60156,6.96191,183.8789-18.49023l.67188,1.88281C748.48438,535.097,702.916,540.29325,664.48145,540.29325Z" transform="translate(-107.5 -89.03683)" fill="#3f3d56"/><path d="M672.29,652.78055a509.57847,509.57847,0,0,1-66.34473-4.45117c-60.99511-8.04687-104.71045-24.2666-105.145-24.42969l.70215-1.873c.43262.16211,43.97363,16.31347,104.7544,24.32715,56.0498,7.38964,138.64746,9.16992,213.83691-24.30372l.8125,1.82618C771.34277,645.94266,718.60254,652.78055,672.29,652.78055Z" transform="translate(-107.5 -89.03683)" fill="#3f3d56"/><rect x="697.91873" y="588.6259" width="119.45718" height="111.69246" fill="#6c63ff"/><rect x="745.10431" y="585.63947" width="25.08601" height="118.26261" fill="#3f3d56"/><path d="M861.55115,652.30585c8.01033,6.87471,5.55714,22.87251,5.55714,22.87251s-15.44048,4.85167-23.45081-2.023-5.55715-22.87251-5.55715-22.87251S853.54082,645.43113,861.55115,652.30585Z" transform="translate(-107.5 -89.03683)" fill="#3f3d56"/><path d="M888.14294,671.64483c-6.84968,8.03175-22.85505,5.62852-22.85505,5.62852s-4.89986-15.42527,1.94982-23.457,22.85505-5.62852,22.85505-5.62852S894.99261,663.61308,888.14294,671.64483Z" transform="translate(-107.5 -89.03683)" fill="#3f3d56"/><rect x="831.29464" y="619.77276" width="82.70536" height="77.32951" fill="#6c63ff"/><rect x="863.96326" y="617.70512" width="17.36813" height="81.87831" fill="#3f3d56"/><path d="M977.65754,691.25392c5.54589,4.75966,3.84745,15.83563,3.84745,15.83563s-10.69012,3.359-16.236-1.40064-3.84745-15.83562-3.84745-15.83562S972.11164,686.49426,977.65754,691.25392Z" transform="translate(-107.5 -89.03683)" fill="#3f3d56"/><path d="M996.06818,704.64314c-4.74233,5.56072-15.82354,3.89686-15.82354,3.89686s-3.39238-10.67958,1.35-16.2403,15.82353-3.89687,15.82353-3.89687S1000.8105,699.08241,996.06818,704.64314Z" transform="translate(-107.5 -89.03683)" fill="#3f3d56"/><rect x="326.29464" y="614.77276" width="82.70536" height="77.32951" fill="#6c63ff"/><rect x="358.96326" y="612.70512" width="17.36813" height="81.87831" fill="#3f3d56"/><path d="M472.65754,686.25392c5.54589,4.75966,3.84745,15.83563,3.84745,15.83563s-10.69012,3.359-16.236-1.40064-3.84745-15.83562-3.84745-15.83562S467.11164,681.49426,472.65754,686.25392Z" transform="translate(-107.5 -89.03683)" fill="#3f3d56"/><path d="M491.06818,699.64314c-4.74233,5.56072-15.82354,3.89686-15.82354,3.89686s-3.39238-10.67958,1.34995-16.2403,15.82353-3.89687,15.82353-3.89687S495.8105,694.08241,491.06818,699.64314Z" transform="translate(-107.5 -89.03683)" fill="#3f3d56"/><rect x="445.29464" y="644.21172" width="64.70536" height="60.49951" fill="#6c63ff"/><rect x="470.85326" y="642.59408" width="13.58813" height="64.05831" fill="#3f3d56"/><path d="M583.19941,719.5137c4.33889,3.72376,3.01009,12.38915,3.01009,12.38915s-8.36352,2.628-12.7024-1.0958S570.497,718.4179,570.497,718.4179,578.86053,715.78993,583.19941,719.5137Z" transform="translate(-107.5 -89.03683)" fill="#3f3d56"/><path d="M597.60316,729.98888c-3.7102,4.35049-12.3797,3.04875-12.3797,3.04875s-2.65406-8.35527,1.05614-12.70576,12.3797-3.04875,12.3797-3.04875S601.31337,725.63839,597.60316,729.98888Z" transform="translate(-107.5 -89.03683)" fill="#3f3d56"/></svg>