<?xml version="1.0" encoding="UTF-8"?><svg id="uuid-d4fb56fc-b28f-499c-a3fc-b27be3b96e3e" xmlns="http://www.w3.org/2000/svg" width="735.79541" height="447.06565" viewBox="0 0 735.79541 447.06565"><g><path d="M582.00513,304.39777h-19.2392l-.07056-.07471c-3.42096-3.63327-4.95898-8.73611-4.11426-13.65005,.26868-1.58649,.77979-3.12656,1.51941-4.57709l5.85315-11.44644-2.32452-41.00772c-.04291-.76006,.22131-1.48302,.74384-2.03564,.52246-.55312,1.23035-.85751,1.99249-.85751h3.59711c1.47955,0,2.68365,1.15634,2.74146,2.63284l1.56561,40.53256,8.10431,12.65613c.69232,1.08163,1.2489,2.23193,1.65466,3.41983,1.58856,4.60864,1.00671,9.61588-1.59668,13.73636l-.00049,.00092-.42645,.6705,.00012,.00003Z" fill="#3f3d56"/><path d="M580.34998,301.56079h0c-.18256,.28723-.49933,.46121-.83966,.46121h-14.64478c-.28247,0-.55634-.11649-.74286-.32861-2.47205-2.81137-3.56128-6.49637-3.12946-10.08752,.0473-.39337,.3382-.71722,.72137-.81815,3.05743-.80545,6.74689-1.27377,10.72009-1.27377,3.10724,0,6.04175,.2879,8.63647,.79739,.35516,.06976,.64886,.32886,.75116,.67609,1.03613,3.51688,.54651,7.37808-1.47235,10.57336h0Z" fill="#6c63ff"/></g><path d="M734.79541,313.06565H1c-.55225,0-1-.44727-1-1s.44775-1,1-1H734.79541c.55225,0,1,.44727,1,1s-.44775,1-1,1Z" fill="#3f3d56"/><path id="uuid-d5c6de76-d630-4aef-9c06-60db11d8a9f0" d="M215.45114,127.32746c-10.75308-3.21881-17.80853-11.37624-15.75894-18.21924,2.04961-6.843,12.42686-9.77927,23.18336-6.55788,4.31444,1.22788,8.27206,3.47112,11.54179,6.54208l45.38907,14.21362-7.12405,21.15759-43.98923-16.25838c-4.42078,.76915-8.9615,.46815-13.24203-.87779,0,0,.00003,0,.00003,0Z" fill="#a0616a"/><path d="M416.79541,132.88729l.54565,37.37321s-46.97995-.62456-63.41617,.67479c-16.43622,1.29933-118.8896-36.20247-118.8896-36.20247l17.01537-24.12895,113.02289,27.28185,51.72186-4.99843Z" fill="#e6e6e6"/><rect x="211.79541" y="82.06565" width="7" height="94.99999" fill="#6c63ff"/><path d="M244.06982,312.06565h-40.49023l-.14844-.15723c-7.19971-7.64648-10.43652-18.38574-8.65869-28.72754,.56543-3.33887,1.64111-6.58008,3.19775-9.63281l12.31836-24.08984-4.89209-86.30371c-.09033-1.59961,.46582-3.12109,1.56543-4.28418,1.09961-1.16406,2.58936-1.80469,4.19336-1.80469h7.57031c3.11377,0,5.64795,2.43359,5.76953,5.54102l3.29492,85.30371,17.05615,26.63574c1.45703,2.27637,2.62842,4.69727,3.48242,7.19727,3.34326,9.69922,2.11865,20.2373-3.36035,28.90918l-.00098,.00195-.89746,1.41113Z" fill="#3f3d56"/><path d="M240.5864,306.095h0c-.38425,.60449-1.05083,.97064-1.76711,.97064h-30.82098c-.59445,0-1.17082-.24518-1.56335-.69159-5.20264-5.91672-7.49496-13.67209-6.58611-21.22992,.09956-.82788,.71181-1.50943,1.51813-1.72186,6.43454-1.69513,14.19933-2.68073,22.5612-2.68073,6.5394,0,12.71532,.60593,18.17604,1.67819,.74751,.14679,1.36557,.69214,1.58086,1.42288,2.18063,7.40155,1.15012,15.52768-3.09868,22.25241v-.00003Z" fill="#6c63ff"/><polygon points="386.79541 80.06565 392.79541 121.06565 344.79541 126.06565 347.79541 73.06565 386.79541 80.06565" fill="#a0616a"/><circle cx="341.16791" cy="59.90547" r="32.3725" fill="#a0616a"/><path id="uuid-15bcb69d-1c64-470c-95b4-093fc349fa2e" d="M240.312,206.78417c-9.15614-8.22011-20.94148-10.06802-26.32256-4.12811-5.38107,5.9399-2.31992,17.41656,6.84062,25.63835,3.61292,3.33542,7.99449,5.73997,12.77815,7.01245l39.24744,34.32953,16.19257-19.10507-40.41016-31.81448c-1.76447-4.60661-4.61948-8.69833-8.32607-11.93265v-.00002Z" fill="#a0616a"/><path d="M347.79541,116.06565l49-7,29,21.99999,3,121,28,193-186,2s14-125,21-132,12-39,12-39l14-138,30-21.99999Z" fill="#e6e6e6"/><path d="M329.29541,137.56565s-26-2-32,16-13,77-13,77l-16,2-14-15-15,36s53,58,73,32,17-148,17-148Z" fill="#e6e6e6"/><path d="M405.29541,230.56565s-26-14-23-35,22-26,9-50-6-52-6-52l-3.241-5s-26.29443,10-34.5267,0-4.23227-19-16.23227-21-28-22-20-35,7-21,20-23,44-16,49-6,22,21,19,31-3,42.05118-3,42.05118c0,0,42.5433,16.94882,36.27164,32.44882-6.27164,15.5-17.27164,15.5-7.27164,45.5s-20,76-20,76h-.00003Z" fill="#2f2e41"/><path d="M634.11127,303.38892h-17.82318v-29.88h17.82318c2.02661-.00598,3.66461-1.65369,3.65863-3.6803-.00592-2.01813-1.6405-3.65265-3.65863-3.65863h-124.23798c-2.02658,.00598-3.66461,1.65369-3.65863,3.6803,.00595,2.01813,1.6405,3.65265,3.65863,3.65863h15.20215v29.88h-15.20212c-2.02658,.00598-3.66461,1.65369-3.65863,3.6803,.00595,2.01813,1.6405,3.65265,3.65863,3.65863h124.23801c2.02661-.00598,3.66461-1.65369,3.65863-3.6803-.00592-2.01813-1.6405-3.65265-3.65863-3.65863h-.00006Zm-101.6969,0l8.38104-22.32327,68.15375-7.55676v29.88h-76.53479v.00003Z" fill="#f2f2f2"/></svg>