<?xml version="1.0" encoding="UTF-8"?><svg id="a" xmlns="http://www.w3.org/2000/svg" width="735.79541" height="447.06565" viewBox="0 0 735.79541 447.06565"><g><path d="M582.00512,304.39776h-19.23918l-.07053-.07471c-3.42098-3.63327-4.95898-8.7361-4.11423-13.65006,.26867-1.58648,.77978-3.12656,1.51943-4.57709l5.85314-11.44643-2.32451-41.00773c-.04292-.76006,.22134-1.48301,.74382-2.03565,.52249-.55311,1.23035-.85751,1.9925-.85751h3.59708c1.47953,0,2.68366,1.15634,2.74143,2.63285l1.5656,40.53257,8.10433,12.65613c.69232,1.08163,1.24891,2.23193,1.65469,3.41982,1.58857,4.60864,1.00669,9.61588-1.59669,13.73637l-.00046,.00093-.42643,.67051Z" fill="#3f3d56"/><path d="M580.34995,301.56078h0c-.18258,.28723-.49931,.46121-.83965,.46121h-14.64478c-.28246,0-.55632-.1165-.74284-.32861-2.47206-2.81136-3.56128-6.49638-3.12943-10.08752,.04731-.39337,.33822-.71721,.72135-.81815,3.05741-.80545,6.74689-1.27376,10.72009-1.27376,3.10723,0,6.04176,.28791,8.63645,.7974,.35519,.06975,.64886,.32887,.75115,.67609,1.03614,3.51689,.54648,7.37807-1.47236,10.57337h0Z" fill="#6c63ff"/></g><path d="M734.79541,313.06565H1c-.55225,0-1-.44727-1-1s.44775-1,1-1H734.79541c.55225,0,1,.44727,1,1s-.44775,1-1,1Z" fill="#3f3d56"/><path id="b" d="M215.45114,127.32746c-10.75308-3.21881-17.80853-11.37624-15.75894-18.21924,2.04961-6.843,12.42686-9.77927,23.18336-6.55788,4.31444,1.22788,8.27206,3.47112,11.54179,6.54208l45.38907,14.21362-7.12405,21.15759-43.98923-16.25838c-4.42078,.76915-8.9615,.46815-13.24203-.87779h.00003Z" fill="#a0616a"/><path d="M416.79541,132.88729l.54565,37.37321s-46.97995-.62456-63.41617,.67479c-16.43622,1.29933-118.8896-36.20247-118.8896-36.20247l17.01537-24.12895,113.02289,27.28185,51.72186-4.99843Z" fill="#e6e6e6"/><rect x="211.79541" y="82.06565" width="7" height="94.99999" fill="#6c63ff"/><path d="M244.06982,312.06565h-40.49023l-.14844-.15723c-7.19971-7.64648-10.43652-18.38574-8.65869-28.72754,.56543-3.33887,1.64111-6.58008,3.19775-9.63281l12.31836-24.08984-4.89209-86.30371c-.09033-1.59961,.46582-3.12109,1.56543-4.28418,1.09961-1.16406,2.58936-1.80469,4.19336-1.80469h7.57031c3.11377,0,5.64795,2.43359,5.76953,5.54102l3.29492,85.30371,17.05615,26.63574c1.45703,2.27637,2.62842,4.69727,3.48242,7.19727,3.34326,9.69922,2.11865,20.2373-3.36035,28.90918l-.00098,.00195-.89746,1.41113Z" fill="#3f3d56"/><path d="M240.5864,306.095h0c-.38425,.60449-1.05083,.97064-1.76711,.97064h-30.82098c-.59445,0-1.17082-.24518-1.56335-.69159-5.20264-5.91672-7.49496-13.67209-6.58611-21.22992,.09956-.82788,.71181-1.50943,1.51813-1.72186,6.43454-1.69513,14.19933-2.68073,22.5612-2.68073,6.5394,0,12.71532,.60593,18.17604,1.67819,.74751,.14679,1.36557,.69214,1.58086,1.42288,2.18063,7.40155,1.15012,15.52768-3.09868,22.25241v-.00003Z" fill="#6c63ff"/><polygon points="386.79541 80.06565 392.79541 121.06565 344.79541 126.06565 347.79541 73.06565 386.79541 80.06565" fill="#a0616a"/><circle cx="341.16791" cy="59.90547" r="32.3725" fill="#a0616a"/><path id="c" d="M240.312,206.78417c-9.15614-8.22011-20.94148-10.06802-26.32256-4.12811-5.38107,5.9399-2.31992,17.41656,6.84062,25.63835,3.61292,3.33542,7.99449,5.73997,12.77815,7.01245l39.24744,34.32953,16.19257-19.10507-40.41016-31.81448c-1.76447-4.60661-4.61948-8.69833-8.32607-11.93265v-.00002Z" fill="#a0616a"/><path d="M347.79541,116.06565l49-7,29,21.99999,3,121,28,193-186,2s14-125,21-132,12-39,12-39l14-138,30-21.99999Z" fill="#e6e6e6"/><path d="M329.29541,137.56565s-26-2-32,16-13,77-13,77l-16,2-14-15-15,36s53,58,73,32,17-148,17-148Z" fill="#e6e6e6"/><path d="M405.29541,230.56565s-26-14-23-35,22-26,9-50-6-52-6-52l-3.241-5s-26.29443,10-34.5267,0-4.23227-19-16.23227-21-28-22-20-35,7-21,20-23,44-16,49-6,22,21,19,31-3,42.05118-3,42.05118c0,0,42.5433,16.94882,36.27164,32.44882-6.27164,15.5-17.27164,15.5-7.27164,45.5s-20,76-20,76h-.00003Z" fill="#2f2e41"/><path d="M602.65049,307.15724c-2.03151,.03406-4.06143-.19794-6.07069-.69391-1.87085-.52252-2.81949-1.26459-2.81949-2.20563l.0007-.01703,3.49009-43.87183-1.75776-8.31927c-.2539-1.20197,.13042-2.51617,.85844-2.93542,.15242-.08771,.3129-.13123,.4743-.12842l11.55931,.19873c.77097,.01331,1.38941,1.05597,1.38135,2.3288-.00152,.23969-.02566,.47748-.07157,.70483l-1.64538,8.14972,3.49016,43.8728c.00074,2.30603-5.58751,2.91663-8.88947,2.91663Z" fill="#e6e6e6"/><path d="M538.03075,307.15724c-2.03151,.03406-4.06143-.19794-6.07069-.69391-1.87085-.52252-2.81949-1.26459-2.81949-2.20563l.0007-.01703,3.49009-43.87183-1.75776-8.31927c-.2539-1.20197,.13042-2.51617,.85844-2.93542,.15242-.08771,.3129-.13123,.4743-.12842l11.55931,.19873c.77097,.01331,1.38941,1.05597,1.38135,2.3288-.00152,.23969-.02566,.47748-.07157,.70483l-1.64538,8.14972,3.49016,43.8728c.00074,2.30603-5.58751,2.91663-8.88947,2.91663Z" fill="#e6e6e6"/><path d="M634.11127,303.38892h-17.82318v-29.88h17.82318c2.02661-.00598,3.66461-1.65369,3.65863-3.6803-.00592-2.01813-1.6405-3.65265-3.65863-3.65863h-124.23798c-2.02658,.00598-3.66461,1.65369-3.65863,3.6803,.00595,2.01813,1.6405,3.65265,3.65863,3.65863h15.20215v29.88h-15.20212c-2.02658,.00598-3.66461,1.65369-3.65863,3.6803,.00595,2.01813,1.6405,3.65265,3.65863,3.65863h124.23801c2.02661-.00598,3.66461-1.65369,3.65863-3.6803-.00592-2.01813-1.6405-3.65265-3.65863-3.65863h-.00006Zm-101.6969,0l8.38104-22.32327,68.15375-7.55676v29.88h-76.53479v.00003Z" fill="#f2f2f2"/></svg>