<svg id="a9141a92-34f5-4b82-ac20-efb1a8711cfd" data-name="Layer 1" xmlns="http://www.w3.org/2000/svg" width="793.58176" height="513.84798" viewBox="0 0 793.58176 513.84798"><path d="M779.55338,626.462l29.8501-47.377a180.67213,180.67213,0,0,1,83.784,23.17438c-51.5473,8.72024-78.72412,66.65012-124.59274,91.7346a108.67522,108.67522,0,0,1-94.10315,4.19331l-39.69481,1.25519A182.10493,182.10493,0,0,1,741.18713,590.2168,175.90538,175.90538,0,0,1,784.14467,580.117C780.60637,602.71811,779.55338,626.462,779.55338,626.462Z" transform="translate(-203.20912 -193.07601)" fill="#f2f2f2"/><path d="M448.08763,401.50726a3.79412,3.79412,0,0,1-3.78966-3.78966V371.94792a3.78966,3.78966,0,0,1,7.57932,0V397.7176A3.79412,3.79412,0,0,1,448.08763,401.50726Z" transform="translate(-203.20912 -193.07601)" fill="#3f3d56"/><path d="M699.191,314.51523h0V237.59516A44.51915,44.51915,0,0,0,654.6718,193.076H491.70624a44.51919,44.51919,0,0,0-44.51919,44.51919V659.58435A44.51915,44.51915,0,0,0,491.7062,704.1035H654.67185a44.51907,44.51907,0,0,0,44.51906-44.51907V369.26819h0a2.80784,2.80784,0,0,0,2.80784-2.80784V317.32307A2.80785,2.80785,0,0,0,699.191,314.51523Z" transform="translate(-203.20912 -193.07601)" fill="#3f3d56"/><path d="M689.71877,237.90275v421.38a33.231,33.231,0,0,1-32.87995,33.23c-.12005.01-.25.01-.36.01h-163.76a33.24591,33.24591,0,0,1-33.25-33.24v-421.38a33.248,33.248,0,0,1,33.25-33.25h19.87005a15.80252,15.80252,0,0,0,14.62995,21.77h93.36a15.59034,15.59034,0,0,0,5.95-1.18,15.7816,15.7816,0,0,0,8.66-20.59h21.29A33.25225,33.25225,0,0,1,689.71877,237.90275Z" transform="translate(-203.20912 -193.07601)" fill="#fff"/><path d="M448.08763,357.54722a3.79413,3.79413,0,0,1-3.78966-3.78966V327.98788a3.78966,3.78966,0,0,1,7.57932,0v25.76968A3.79413,3.79413,0,0,1,448.08763,357.54722Z" transform="translate(-203.20912 -193.07601)" fill="#3f3d56"/><path d="M447.3297,307.52372a3.79413,3.79413,0,0,1-3.78966-3.78966V277.96438a3.78966,3.78966,0,1,1,7.57932,0v25.76968A3.79413,3.79413,0,0,1,447.3297,307.52372Z" transform="translate(-203.20912 -193.07601)" fill="#3f3d56"/><path d="M548.13463,208.99258a3.79413,3.79413,0,0,1,3.78966-3.78966H577.694a3.78966,3.78966,0,0,1,0,7.57932H551.92429A3.79413,3.79413,0,0,1,548.13463,208.99258Z" transform="translate(-203.20912 -193.07601)" fill="#fff"/><circle cx="388.88556" cy="15.91657" r="3.78966" fill="#fff"/><path d="M574.20967,347.95507c-2.07223-3.42731-4.52774-7.08664-8.37328-8.20576-4.4534-1.296-9.02815,1.27855-12.90859,3.81911a376.15394,376.15394,0,0,0-33.47563,24.66443l.0117.133q12.49-.86134,24.98-1.72266c6.016-.41487,12.23873-.887,17.55523-3.73293,2.01744-1.07993,3.984-2.5225,6.27008-2.623,2.84024-.12487,5.31675,1.85875,7.26295,3.93118,11.51237,12.25911,14.84382,31.00623,27.75955,41.77677A409.88669,409.88669,0,0,0,574.20967,347.95507Z" transform="translate(-203.20912 -193.07601)" fill="#f2f2f2"/><path d="M644.97454,451.93457c-1.27308-1.60756-1.79327-1.98405-3.04906-3.60648q-15.33758-19.8369-28.83216-41.01386-9.166-14.3826-17.423-29.31756-3.931-7.10026-7.64648-14.312-2.88312-5.59177-5.63755-11.25044c-.52515-1.0775-1.03542-2.15994-1.54315-3.24486-1.1964-2.55129-2.37055-5.115-3.6313-7.63158-1.4366-2.86833-3.18536-5.87539-5.82344-7.80249a7.94516,7.94516,0,0,0-4.139-1.5927,11.54513,11.54513,0,0,0-5.99181,1.71655,192.88028,192.88028,0,0,0-37.92745,26.15445,197.454,197.454,0,0,0-30.81375,34.20464c-.27237.38889-.91641.01734-.6415-.374q1.6237-2.29619,3.31175-4.54279a198.54564,198.54564,0,0,1,50.68887-47.28063q4.93062-3.1953,10.04666-6.09091c1.719-.97345,3.44552-1.93452,5.20166-2.83613a12.67362,12.67362,0,0,1,5.51624-1.70913c6.69281-.104,10.15817,7.47553,12.53851,12.57565q1.12209,2.40762,2.27138,4.80039,4.34336,9.08431,9.02114,18.0027,2.88693,5.50633,5.90025,10.94826,9.37776,16.94626,19.93475,33.20642c9.32339,14.35906,18.5724,27.04369,29.19367,40.47139C645.792,451.781,645.26941,452.31108,644.97454,451.93457Z" transform="translate(-203.20912 -193.07601)" fill="#e4e4e4"/><path d="M522.66861,356.29089c-.38885-.43347-.77527-.86694-1.16665-1.30042-3.08631-3.41328-6.398-6.78693-10.63615-8.74375a15.431,15.431,0,0,0-6.46495-1.49858,18.44966,18.44966,0,0,0-6.71252,1.46391c-1.01063.40375-1.999.862-2.97238,1.34994-1.11222.5598-2.20461,1.15676-3.29192,1.75867q-3.06164,1.69425-6.04381,3.53712-5.93368,3.66717-11.49571,7.89414-2.8833,2.19215-5.64759,4.52793-2.57108,2.16983-5.03814,4.45609c-.35171.32448-.87686-.20064-.52515-.52512.43347-.40375.8719-.805,1.31033-1.20133q1.85774-1.6794,3.775-3.2944,3.49614-2.95008,7.17333-5.67228,5.71816-4.23564,11.83-7.89662,3.0542-1.828,6.19245-3.50245c.6317-.33687,1.27078-.66631,1.91724-.97841a30.562,30.562,0,0,1,4.55763-1.85526,16.21341,16.21341,0,0,1,6.88354-.67621,17.92142,17.92142,0,0,1,6.351,2.19708c4.16128,2.32589,7.38874,5.92246,10.52959,9.43235C523.51088,356.12,522.98815,356.64757,522.66861,356.29089Z" transform="translate(-203.20912 -193.07601)" fill="#e4e4e4"/><path d="M607.93212,391.66157l9.97152-3.64713,4.95089-1.81081a50.62834,50.62834,0,0,1,4.88784-1.68343,7.711,7.711,0,0,1,4.42408.05637,10.19644,10.19644,0,0,1,3.45068,2.13906,28.00144,28.00144,0,0,1,2.83028,3.02254c1.0779,1.29539,2.13988,2.60437,3.20663,3.90895q6.604,8.07645,13.12159,16.223,6.51747,8.14641,12.9478,16.36205,6.446,8.23571,12.80341,16.54031.7788,1.01735,1.55625,2.0357c.28635.37506.932.0053.64164-.375q-6.40428-8.3881-12.89783-16.70754-6.50954-8.33933-13.109-16.6079-6.59936-8.2684-13.2879-16.46511-1.66632-2.042-3.33813-4.07959c-.94016-1.14584-1.86972-2.304-2.90091-3.37051-1.89284-1.95763-4.25769-3.68764-7.08846-3.73458a13.68122,13.68122,0,0,0-4.8214,1.06c-1.667.60308-3.33006,1.21743-4.99495,1.82637l-10.04125,3.67264-2.51032.91816c-.44548.16294-.253.88135.19755.71655Z" transform="translate(-203.20912 -193.07601)" fill="#e4e4e4"/><path d="M509.55359,350.54167a16.09835,16.09835,0,0,0-16.2132,1.15947,231.24658,231.24658,0,0,1,26.30924,6.14045C516.06071,355.73839,513.25332,352.44316,509.55359,350.54167Z" transform="translate(-203.20912 -193.07601)" fill="#f2f2f2"/><path d="M493.29052,351.69217l-.97553.79293c.33-.27753.673-.53773,1.0254-.784Z" transform="translate(-203.20912 -193.07601)" fill="#f2f2f2"/><path d="M635.24167,391.698a8.30043,8.30043,0,0,0-3.511-2.9312l-1.37073.05407A155.48115,155.48115,0,0,0,671.77231,436.165Z" transform="translate(-203.20912 -193.07601)" fill="#f2f2f2"/><g opacity="0.8"><path d="M576.31925,280.44051a6.158,6.158,0,0,0,5.29085-1.13558,19.60769,19.60769,0,0,0,3.74307-3.44027l-.84952,1.00939c5.173,3.63371,8.42827,9.37034,10.61528,15.34252.13456.37848.27754.757.40373,1.144.05047.15982.10936.31122.15982.471,1.26173,3.75991,2.19539,7.6208,3.2384,11.448a84.409,84.409,0,0,0,2.6328,8.35259c2.46455,6.4348,6.44322,12.65089,12.53312,15.85566,8.15914,4.29825,18.152,2.34678,26.83257-.75706.10936-.042.21871-.07567.33648-.11777a55.191,55.191,0,0,1-6.32544-21.18851,50.25053,50.25053,0,0,0,15.0313,17.63047,114.62093,114.62093,0,0,0,16.30144-9.05917c3.35622-2.24585,6.88063-5.1394,7.27595-9.16006.39531-3.97866-2.58233-7.62079-6.0899-9.53863-3.516-1.91779-7.54512-2.56549-11.38075-3.71786-3.82721-1.144-7.73852-3.02816-9.74887-6.48527-4.63473-7.95727,3.17109-19.17815-1.80849-26.93356-2.44772-3.81879-7.20864-5.34127-11.61625-6.40112a154.34334,154.34334,0,0,0-20.45671-3.4571c-6.03943-.59724-12.28915-.82431-18.04263,1.11874-5.75342,1.95147-10.96854,6.46842-12.205,12.42371-3.24687,1.70756-6.67035,3.59172-8.52083,6.7376-.06731.10935-.13462.21871-.1935.32806a1.37081,1.37081,0,0,0-.07568.15982C571.70978,274.41786,572.736,279.37223,576.31925,280.44051Z" transform="translate(-203.20912 -193.07601)" fill="#2f2e41"/><path d="M531.59545,291.05578l6.72918.84115v-.84115l1.32061-3.89451v.16824a32.71493,32.71493,0,0,0,.68133,6.65345,34.49539,34.49539,0,0,0,1.17762,4.36556c1.97668,5.75347,4.71883,15.208,3.92815,21.567-.56356,4.66836-1.73276,26.81579-2.75057,31.5935,2.68326-1.57294,10.82556-28.456,10.82556-28.456l.70659-2.01036.52151,2.23748a26.05474,26.05474,0,0,0,6.37591.21029,25.42378,25.42378,0,0,0,6.98993-1.66551h.00837a25.21135,25.21135,0,0,0,2.98612-1.39628,53.30047,53.30047,0,0,0,8.57129-5.75347c7.75536-6.51047,12.02-14.92195,6.87216-24.326,0-2.62438-1.74118-6.9731-4.92911-11.04427-.05046-.06726-.10093-.143-.15982-.21029l-5.745-7.59554-.74021-.97576a2.3513,2.3513,0,0,1-1.29535.05889c-1.86738-.26917-4.73567-1.42154-5.34974-.47946-6.10669-1.64862-13.54245-.76542-21.97914,5.03847C530.729,274.40944,532.89927,283.59481,531.59545,291.05578Z" transform="translate(-203.20912 -193.07601)" fill="#2f2e41"/><circle cx="353.34929" cy="103.77206" r="18.45339" fill="#9e616a"/><path d="M531.31786,291.325l.6477.27759,19.237,2.82624,7.30957-5.89645s6.89742,11.29666,6.0899,17.89123c-.23549,1.95988-.572,6.87216-.96729,12.3733-.572,8.10867-1.26172,17.47059-1.89258,20.43145,1.84212-1.08506,6.174-13.71069,8.88252-22.097h.00837c1.37949-4.273,2.33841-7.44414,2.33841-7.44414l.74021-2.086.53835,2.31316a26.7171,26.7171,0,0,0,7.94044.06725c7.75535-6.51047,12.02-14.92194,6.87216-24.326,0-2.62437-1.74118-6.97309-4.92912-11.04427,1.37945-.9084-4.56742-8.9414-5.38336-7.67126-.16824-.042-.34485-.09251-.52151-.13456a20.27721,20.27721,0,0,0-2.30473-.429c-5.15624-.68974-11.10316.37011-17.67252,4.30668q-1.14813.6813-2.32158,1.48884C539.72933,271.415,532.67214,283.578,531.31786,291.325Z" transform="translate(-203.20912 -193.07601)" fill="#2f2e41"/><path d="M537.66186,485.15933a8.20975,8.20975,0,0,0-2.134-12.40653l7.87272-65.75847L529.37939,412.761l-5.44145,63.43173a8.25428,8.25428,0,0,0,13.72392,8.96661Z" transform="translate(-203.20912 -193.07601)" fill="#9e616a"/><path d="M545.98972,346.69535l-9.465-6.0278s-7.92028.06989-8.18333,14.38416-.92144,42.22206-.92144,42.22206l-8.61921,64.36348,19.242,2.6439,9.19092-69.45076,7.1621-20.97751Z" transform="translate(-203.20912 -193.07601)" fill="#6c63ff"/><polygon points="386.34 254.886 335.871 254.045 331.666 219.557 386.34 219.557 386.34 254.886" fill="#9e616a"/><polygon points="339.683 465.872 328.032 465.872 322.49 420.932 339.685 420.933 339.683 465.872" fill="#9e616a"/><polygon points="413.91 465.715 402.259 465.633 397.031 420.656 412.184 424.132 413.91 465.715" fill="#9e616a"/><polygon points="377.469 189.857 380.109 196.721 379.581 203.585 327.914 221.481 330.478 191.441 336.286 184.577 377.469 189.857" fill="#ffb6b6"/><path d="M548.10433,681.07068h-8.2674l-1.47569-7.8054-3.77947,7.8054H512.65466a4.929,4.929,0,0,1-2.80083-8.98514l17.51034-12.09327v-7.891l18.41782,1.09929Z" transform="translate(-203.20912 -193.07601)" fill="#2f2e41"/><path d="M623.23149,680.95733l-8.26719-.05787-1.421-7.81554-3.834,7.77875-21.92658-.15348a4.929,4.929,0,0,1-2.73786-9.00452l17.59456-11.97041.05523-7.8908,18.40968,1.22819Z" transform="translate(-203.20912 -193.07601)" fill="#2f2e41"/><path d="M620.74415,626.806l-8.48385-67.81289L602.16653,487.4956c7.39187-13.72779-11.41842-52.62775-11.41842-52.62775l-.18372-3.61641L537.3867,441.28365l.01147-.05117c-10.8766,29.6657-14.48014,44.32118-13.88408,75.91227L525.65684,630.708h-.67218a4.20574,4.20574,0,1,0,0,8.41147h21.02868a4.20574,4.20574,0,1,0,0-8.41147h-.54219l19.30178-135.22,16.36491,56.776,18.50524,74.021c-6.72918-1.68229-5.68433,2.21555-5.68433,4.423a4.20575,4.20575,0,0,0,4.20574,4.20573h21.02869a4.20136,4.20136,0,0,0,1.551-8.10769Z" transform="translate(-203.20912 -193.07601)" fill="#2f2e41"/><path d="M595.47177,418.83512l-.09959-2.31121a3.3534,3.3534,0,0,0-3.03242-2.51907c-.70094-8.01385-3.65-42.58623-3.82623-44.094l-.00688-.06377-1.341-28.64758a4.23649,4.23649,0,0,0-3.9555-4.02939l-7.08312-.463a.37482.37482,0,0,1-.3622-.37457,5.95648,5.95648,0,0,0-5.95647-5.95652H548.83753a5.57679,5.57679,0,0,0-5.53106,4.88188.37021.37021,0,0,1-.37684.33319l-.00251,0a9.96308,9.96308,0,0,0-10.02267,8.26372c-2.86695,16.68079-8.61257,54.53988-5.77185,75.58736.9889,7.327-1.14287,1.52381-1.51683,7.65426a4.51251,4.51251,0,0,0,1.12347,3.27172c-1.73107.503-2.40248,2.37314-1.95829,4.13521l-.36858-.09124a3.36456,3.36456,0,0,0,4.08494,2.44007l64.43481-16.24328C594.734,420.15465,595.926,420.63693,595.47177,418.83512Z" transform="translate(-203.20912 -193.07601)" fill="#6c63ff"/><path d="M486.55292,443.50809a8.20974,8.20974,0,0,1,9.9817-7.67082l38.80759-53.66682,6.394,13.74646L502.7197,446.225a8.25428,8.25428,0,0,1-16.16678-2.71691Z" transform="translate(-203.20912 -193.07601)" fill="#9e616a"/><path d="M574.33058,336.099l11.04382,1.98857s5.77347,5.42242-3.74029,16.12083-27.95531,31.65521-27.95531,31.65521l-37.313,53.14783-15.93452-11.10573L540.774,370.6314l8.962-20.274Z" transform="translate(-203.20912 -193.07601)" fill="#6c63ff"/></g><path d="M805.83882,699.32273c-.49005,1.16-1,2.3-1.54,3.44-.38.79-.77,1.59-1.18,2.37l-10.37.01h-11.47l-6.26.01c-.66-.77-1.31-1.56-1.93-2.37a51.53309,51.53309,0,0,1-10.58-34.14c.67-10.35,4.43-20.46,8.12-30.47,5.1-13.82,9.99-27.44,6.16-41.29a83.0952,83.0952,0,0,1,15.58,14.33,22.50663,22.50663,0,0,0-5.21,6.95c-.36.74-.65,1.73-.06995,2.33a2.26906,2.26906,0,0,0,2.03.29c1.68-.33,3.38-.65,5.07-.98,1.35-.25,2.7-.5,4.05-.76a87.46325,87.46325,0,0,1,8,14.97,83.785,83.785,0,0,1,6.21,25.56A85.09014,85.09014,0,0,1,805.83882,699.32273Z" transform="translate(-203.20912 -193.07601)" fill="#3f3d56"/><path d="M829.03877,648.34275c-.35.74-.65,1.73-.06,2.32a2.21528,2.21528,0,0,0,2.02.3c1.68-.33,3.39-.64,5.07-.97-.27,9.43-.28,19.02-2.19,28.09a57.74345,57.74345,0,0,1-1.62,6.07,50.31915,50.31915,0,0,1-11.07,18.6c-.12.14-.24.27-.37.4-.63.67-1.3,1.33-1.98,1.97l-15.72.01-10.37.01h-11.47c-.09-.79-.18005-1.58-.25-2.37a86.00931,86.00931,0,0,1,7.02-42.98c.39-.86.79-1.69995,1.19-2.56a84.46783,84.46783,0,0,1,17-23.22,85.56971,85.56971,0,0,1,39.33-21.79c-6.04,7.93-8.12,17.35-8.95,27.31A22.74262,22.74262,0,0,0,829.03877,648.34275Z" transform="translate(-203.20912 -193.07601)" fill="#6c63ff"/><path d="M793.57881,702.76273c-.16.49-.32.98-.49,1.46-.11.31-.22.62-.34.92h-11.47l-6.26.01-17.38.01c-.45-.54-.9-1.09-1.34-1.65-.19-.24-.38-.48-.56-.72a83.71848,83.71848,0,0,1-14.21-27.18994,86.09942,86.09942,0,0,1,10.29-71.35c.98,9.56,5.61,17.61,11.49,25.21-.3.25-.6.48-.88.75a22.24081,22.24081,0,0,0-5.2,6.94c-.36.75-.65,1.74-.08,2.32a2.19111,2.19111,0,0,0,2.02.3c1.7-.32,3.4-.65,5.08-.97,1.35-.25,2.69-.51,4.04-.76.64-.12,1.28-.24,1.91-.36.15.17.29.33.43.49,6.17,6.97,12.63,13.88,17.42,21.62a62.51378,62.51378,0,0,1,3.27,6.01A51.52094,51.52094,0,0,1,793.57881,702.76273Z" transform="translate(-203.20912 -193.07601)" fill="#6c63ff"/><rect x="664.04741" y="95.56134" width="63.4475" height="27.82604" rx="13.91301" fill="#e6e6e6"/><rect x="597.96057" y="151.21342" width="195.62119" height="27.82604" rx="13.91301" fill="#e6e6e6"/><rect x="525.96057" y="192.8655" width="195.62119" height="27.82604" rx="13.91301" fill="#6c63ff"/><path d="M300.03231,466.86236a9.76012,9.76012,0,0,0-1.3573-14.90445l15.5401-77.18655L297.054,380.28125,284.615,454.94a9.81312,9.81312,0,0,0,15.41736,11.92236Z" transform="translate(-203.20912 -193.07601)" fill="#9e616a"/><path d="M322.97805,303.55584l-10.64764-8.03738s-9.39289-.66516-11.05646,16.27377-5.07941,49.95014-5.07941,49.95014l-16.293,75.46286,22.554,4.95047,17.451-81.43778,10.46887-24.184Z" transform="translate(-203.20912 -193.07601)" fill="#6c63ff"/><polygon points="102.215 233.703 162.215 232.703 167.215 191.703 102.215 191.703 102.215 233.703" fill="#9e616a"/><polygon points="157.683 484.535 171.534 484.534 178.124 431.108 157.68 431.109 157.683 484.535" fill="#9e616a"/><polygon points="69.439 484.349 83.29 484.251 89.505 430.78 71.49 434.912 69.439 484.349" fill="#9e616a"/><polygon points="112.761 156.394 109.622 164.554 110.25 172.714 171.674 193.99 168.627 158.277 161.722 150.117 112.761 156.394" fill="#ffb6b6"/><circle cx="139.11241" cy="61.02291" r="21.93835" fill="#9e616a"/><path d="M357.45686,670.77805l21.89606-1.3069v9.38123l20.81721,14.37711a5.85987,5.85987,0,0,1-3.32977,10.682H370.77227L366.279,694.632l-1.75439,9.27947h-9.82871Z" transform="translate(-203.20912 -193.07601)" fill="#2f2e41"/><path d="M267.90977,670.62478l21.88639-1.46013.06566,9.381,20.91733,14.231a5.85987,5.85987,0,0,1-3.25492,10.705l-26.06745.18247-4.55807-9.24779-1.68939,9.29152-9.82847.0688Z" transform="translate(-203.20912 -193.07601)" fill="#2f2e41"/><path d="M268.33794,639.39884l10.086-80.61949,12-85c-8.78784-16.32031,11-67,11-67l2.79323.134,63.2204,11.92681-.01363-.06083c12.93067,35.26813,17.21474,52.69133,16.50612,90.24846l-2.54742,135.00988h.79913a5,5,0,0,1,0,10h-25a5,5,0,1,1,0-10h.64459l-22.947-160.75659L315.424,550.77935l-22,88c8-2,6.75783,2.634,6.75783,5.25834a5,5,0,0,1-5,5h-25a4.99479,4.99479,0,0,1-1.84387-9.63885Z" transform="translate(-203.20912 -193.07601)" fill="#2f2e41"/><path d="M296.50139,409.40452l2.00006-20a3.98675,3.98675,0,0,1,3.60511-2.99482c.83331-9.52728,4.33935-50.62872,4.54882-52.42126l.00818-.07581,1.5943-34.05774a5.03656,5.03656,0,0,1,4.70252-4.79034l8.42077-.55042a.44561.44561,0,0,0,.43061-.44531,7.08138,7.08138,0,0,1,7.08136-7.08142h24.93115a6.63,6.63,0,0,1,6.57562,5.80383.44013.44013,0,0,0,.448.39612l.003-.00006a11.84463,11.84463,0,0,1,11.91547,9.82434c3.40838,19.831,10.23907,64.83985,6.86187,89.86218-1.17566,8.7107,1.35871,1.81159,1.80329,9.0998a5.36474,5.36474,0,0,1-1.33564,3.88958c2.058.598,2.85619,2.82131,2.32811,4.91616l.43819-.10848a4,4,0,0,1-4.85638,2.90088L301.40233,394.2609C299.26018,393.72092,295.96141,411.54661,296.50139,409.40452Z" transform="translate(-203.20912 -193.07601)" fill="#6c63ff"/><path d="M446.36637,447.11469a9.76016,9.76016,0,0,1-4.963-14.11927l-46.22768-63.73587,17.89824-2.12471,42.35637,62.72638a9.81312,9.81312,0,0,1-9.064,17.25347Z" transform="translate(-203.20912 -193.07601)" fill="#9e616a"/><path d="M357.59436,308.13607l6.34153-11.737s8.26581-4.51056,16.82207,10.20288S406.147,349.91722,406.147,349.91722l46.19571,61.85518-18.45332,13.8803L384.1562,358.84511,364.5794,341.204Z" transform="translate(-203.20912 -193.07601)" fill="#6c63ff"/><path d="M318.82866,234.59145c-4.08707,1.21668-7.89991-2.20205-10.74458-5.44088l1.01105,1.19958c-6.69181,4.71254-10.69317,12.38967-13.28938,20.16109-2.59621,7.76285-4.0442,15.89417-6.97458,23.54562-2.93033,7.64288-7.66,15.03729-14.90022,18.85018-9.69923,5.10665-21.5834,2.78468-31.89962-.89971-.13707-.05141-.26562-.09424-.40268-.14565a65.73755,65.73755,0,0,0,7.5229-25.19066,59.771,59.771,0,0,1-17.87338,20.96652,137.21226,137.21226,0,0,1-19.3814-10.77889c-3.98427-2.66472-8.18268-6.10918-8.6454-10.88165-.47125-4.73828,3.06745-9.06524,7.24019-11.34443,4.17274-2.27913,8.971-3.05029,13.52927-4.4212,4.54979-1.36237,9.19378-3.59868,11.5843-7.71143,5.50939-9.45934-3.76148-22.80013,2.15064-32.01959,2.91323-4.53265,8.56827-6.34911,13.812-7.60862a182.60289,182.60289,0,0,1,24.31673-4.10418c7.18878-.71976,14.61745-.98537,21.45491,1.32807s13.04092,7.6857,14.50606,14.7631c3.99284,2.09923,8.217,4.42125,10.35905,8.40546C324.34663,227.23987,323.15562,233.30621,318.82866,234.59145Z" transform="translate(-203.20912 -193.07601)" fill="#2f2e41"/><path d="M312.72755,232.99748c-3.91362,4.90263-6.044,10.20454-6.044,13.3797-8.1301,14.85919,3.49608,27.62261,18.3556,35.75252a30.44312,30.44312,0,0,0,19.45034,3.39093l.62167-2.65375.84227,2.39048s9.67459,31.95357,12.86575,33.828c-1.211-5.68667-2.59809-32.01669-3.27221-37.56651-.93329-7.55362,2.32009-18.799,4.66693-25.63765a40.36625,40.36625,0,0,0,2.21-13.10022v-.195l2.28513,7.34,8.31934-3.54892c-1.54776-8.87757,0-18.95568-18.55563-18.08159-10.03575-6.90206-18.8734-7.95341-26.133-5.99583-.93688-1.44846-6.33923,1.26445-7.90036.50175" transform="translate(-203.20912 -193.07601)" fill="#2f2e41"/><path d="M883.05879,703.90275a1.18646,1.18646,0,0,1-1.19,1.19l-63.03.03-15.72.01-10.37.01h-11.47l-6.26.01-17.38.01-273.46.13995-2.08.01-122.31995.04h-2.02l-104.12.04h-2.02l-32.5.01a1.19,1.19,0,0,1,0-2.38l32.84-.01h2.02l104.09-.04h2.02l121.37-.04h2.07l103.42-.04h1.36l167.43-.1,17.35-.01,7.94-.01,12.55-.01h10.72l16.89-.01,60.68-.04A1.18642,1.18642,0,0,1,883.05879,703.90275Z" transform="translate(-203.20912 -193.07601)" fill="#cacaca"/><circle cx="310.89296" cy="67.18718" r="14.37957" fill="#fd6584"/><path d="M546.28459,253.45423a7.1277,7.1277,0,0,0-6.01555-5.00308.58205.58205,0,0,0-.09693,0,.76471.76471,0,0,0-.1185-.027,17.56628,17.56628,0,0,0-13.77062,4.20069,12.90263,12.90263,0,0,0-3.13969,4.32989,6.95638,6.95638,0,0,0-5.83246-2.84353,7.09992,7.09992,0,0,0-6.35484,5.12157.82208.82208,0,0,0,.3716.91015,3.59369,3.59369,0,0,0,1.50253.76472c1.1902.25314,2.39115.48471,3.59209.69475q3.52207.61395,7.08189.99629,2.35074.25043,4.71228.39852c3.2528.20465,6.52178.25314,9.78.15081a11.15805,11.15805,0,0,0,4.64227-.8186,6.892,6.892,0,0,0,2.6658-2.32113A7.8346,7.8346,0,0,0,546.28459,253.45423Z" transform="translate(-203.20912 -193.07601)" fill="#e6e6e6"/><path d="M516.70228,274.40367a7.3524,7.3524,0,0,0-.30159-1.77723,7.14127,7.14127,0,0,0-6.02094-5.00308.51957.51957,0,0,0-.09157,0,1.01607,1.01607,0,0,0-.12386-.02692,17.87656,17.87656,0,0,0-7.91124.81321,14.65321,14.65321,0,0,0-8.99372,7.71734,6.95924,6.95924,0,0,0-5.83781-2.8435,7.09988,7.09988,0,0,0-6.35484,5.12157.83761.83761,0,0,0,.3716.91015,3.62605,3.62605,0,0,0,1.50253.76472c1.19556.2531,2.39115.48467,3.59748.69471q3.52207.614,7.0765.99633a105.1034,105.1034,0,0,0,14.49764.5493,11.17348,11.17348,0,0,0,4.64227-.81857,6.87709,6.87709,0,0,0,2.66041-2.32113A7.68211,7.68211,0,0,0,516.70228,274.40367Z" transform="translate(-203.20912 -193.07601)" fill="#e6e6e6"/><path d="M485.73455,313.3127a5.48246,5.48246,0,0,0,.61106,3.99144,3.33081,3.33081,0,0,0,3.87173,1.2808c2.73356-.84868,5.43038-1.84262,8.14055-2.76358a1.50062,1.50062,0,0,0,1.02389-1.80332,1.48018,1.48018,0,0,0-1.80331-1.02389l-6.77258,2.30143c-.51087.1736-1.0199.371-1.54047.51354-.05444.01491-.25333.05867-.24262.05768.025-.00232.17942.01416.008.00229q-.14664-.0441.002.01924l-.12954-.07373c.11824.09843-.01424-.01317-.055-.05451-.03591-.03643-.14148-.18172-.05994-.06231a1.81283,1.81283,0,0,1-.15352-.26935c.07153.15839-.0628-.2334-.07227-.28763a6.27818,6.27818,0,0,1,.1039-1.8281,1.47314,1.47314,0,0,0-1.466-1.466,1.50368,1.50368,0,0,0-1.466,1.466Z" transform="translate(-203.20912 -193.07601)" fill="#3f3d56" opacity="0.8"/><path d="M612.119,355.59815l7.22545,9.11068c.91948,1.15939,2.89062-.09571,2.4502-1.4263-.90067-2.72111,2.2082-4.23733,4.3541-4.68538,2.84719-.59447,5.70409-.498,8.40568-1.72172,1.71618-.77733.22739-3.30491-1.4798-2.53164-3.16027,1.43143-6.84521.77523-10.04529,2.16759-2.86029,1.24451-5.12192,4.348-4.06189,7.55057l2.45019-1.42631-7.22544-9.11068a1.47617,1.47617,0,0,0-2.0732,0,1.50007,1.50007,0,0,0,0,2.07319Z" transform="translate(-203.20912 -193.07601)" fill="#3f3d56" opacity="0.8"/><path d="M689.71877,624.21275v35.07a33.231,33.231,0,0,1-32.87995,33.23c-.12005.01-.25.01-.36.01h-163.76a33.24591,33.24591,0,0,1-33.25-33.24v-35.07Z" transform="translate(-203.20912 -193.07601)" fill="#3f3d56" opacity="0.2"/></svg>