<?xml version="1.0" encoding="UTF-8"?><svg id="uuid-c3b8cd35-ab7e-4c25-9cba-ef08b018e803" xmlns="http://www.w3.org/2000/svg" width="731.66998" height="511.11554" viewBox="0 0 731.66998 511.11554"><path d="m0,509.69553c0,.66.53,1.19,1.19,1.19h729.28998c.65997,0,1.19-.53,1.19-1.19s-.53003-1.19-1.19-1.19H1.19c-.66,0-1.19.53-1.19,1.19Z" fill="#3f3d58"/><polygon points="440.60999 79.11552 466.22 87.53552 466.22 50.66552 442.98001 50.66552 440.60999 79.11552" fill="#f8a8ab"/><circle cx="463.04999" cy="35.34552" r="25.51999" fill="#f8a8ab"/><path d="m456.54999,37.34552l3.51999,4.27,6.35999-11.14s8.12.42,8.12-5.61,7.45001-6.2,7.45001-6.2c0,0,10.54999-18.42-11.29999-13.57,0,0-15.16-10.38-22.69-1.51,0,0-23.11002,11.64-16.5,31.9l10.98999,20.89,2.48999-4.73s-1.51001-19.85,11.56-14.32l.00003.02Z" fill="#2f2e43"/><rect x="432.92999" y="461.77554" width="20.94" height="29.70999" fill="#f8a8ab"/><path d="m451.54999,508.50552c-3.57999.32001-21.5,1.73999-22.39999-2.37-.82001-3.76999.39001-7.70999.56-8.25,1.72-17.14001,2.35999-17.32999,2.75-17.44.60999-.17999,2.39001.67001,5.28,2.53l.17999.12.04001.20999c.04999.26999,1.32999,6.56,7.39999,5.59,4.16-.66,5.51001-1.57999,5.94-2.03-.35001-.16-.79001-.44-1.10001-.92001-.45001-.70001-.53-1.60001-.23001-2.67999.78-2.85001,3.12-7.06,3.22-7.23001l.26999-.48001,23.79999,16.06,14.70001,4.20001c1.10999.32001,2,1.10999,2.45001,2.17001h0c.62,1.48001.23999,3.20001-.95999,4.28-2.67001,2.39999-7.97,6.51001-13.54001,7.01999-1.48001.14001-3.44.19-5.64001.19-9.19,0-22.60999-.95001-22.70999-.97l-.00998.00003Z" fill="#2f2e43"/><path d="m480.60999,205.63553l-54.92999-2.81s-8.42001,31.92,2.22,65.17999l1.28,200.28998h31.04001l29.26001-206.60999-8.87-56.05-.00003.00002Z" fill="#2f2e43"/><path d="m471.35001,72.02552l-30.14999-16s-32.48999,47.48-28,73.2c4.5,25.72,12.48001,73.60001,12.48001,73.60001l66.51001,2.81-11.60999-94.29-9.23001-39.32h-.00003Z" fill="#e2e3e4"/><rect x="447.83002" y="461.77554" width="20.94" height="29.70999" fill="#f8a8ab"/><path d="m466.45001,508.50552c-3.57999.32001-21.5,1.73999-22.39999-2.37-.82001-3.76999.39001-7.70999.56-8.25,1.72-17.14001,2.35999-17.32999,2.75-17.44.60999-.17999,2.39001.67001,5.28,2.53l.17999.12.04001.20999c.04999.26999,1.32999,6.56,7.39999,5.59,4.16-.66,5.51001-1.57999,5.94-2.03-.35001-.16-.79001-.44-1.10001-.92001-.45001-.70001-.53-1.60001-.23001-2.67999.78-2.85001,3.12-7.06,3.22-7.23001l.26999-.48001,23.79999,16.06,14.70001,4.20001c1.10999.32001,2,1.10999,2.45001,2.17001h0c.62,1.48001.23999,3.20001-.95999,4.28-2.67001,2.39999-7.97,6.51001-13.54001,7.01999-1.48001.14001-3.44.19-5.64001.19-9.19,0-22.60999-.95001-22.70999-.97l-.00998.00003Z" fill="#2f2e43"/><path d="m492.19,205.63553l-66.51001-2.81s-8.42001,31.92,2.22,65.17999l12.85999,200.28998h31.04001l29.26001-206.60999-8.87-56.05v.00002Z" fill="#2f2e43"/><path d="m485.25,336.45553c-4.64999,0-9.72-1.14001-14.73001-2.26001-3.70999-.82999-6.98001-1.04001-9.60001-1.20001-3.98001-.25-7.13-.45001-8.88-2.78-1.73001-2.29999-1.73001-6.20999,0-13.92001,2.29999-10.23999,7.42001-26.60001,13.67999-40.06,8.09-17.35999,15.85999-25.35001,23.10999-23.72,9.70999,2.17999,13.57999,18.38998,15.03,27.85001,2.01999,13.20999,1.84,28.91-.44,39.07001h0c-3.01999,13.45001-9.95001,17.01001-18.17999,17.01001l.01004.01001Zm1.76999-81.13c-5.32999,0-11.87,7.78-18.57001,22.17999-6.17001,13.25-11.20999,29.35999-13.48001,39.45001-1.45001,6.48001-1.60999,10.01001-.53,11.45999.92001,1.22,3.32999,1.38,6.66,1.57999,2.73001.17001,6.13.38,10.07001,1.26999,15.66,3.51001,25.45001,4.79001,29.32001-12.48001,4.14999-18.5.98999-60.35001-12.32001-63.34-.38-.09-.76999-.13-1.16-.13l.01001.01004Z" fill="#dfdfe0"/><polygon points="548.58002 460.80551 399.42999 461.78552 376.26001 451.12552 389.76001 313.41553 403.34 314.10553 543.07001 321.21551 548.58002 460.80551" fill="#6c63ff"/><polygon points="399.42999 461.78552 376.26001 451.12552 389.76001 313.41553 403.34 314.10553 399.42999 461.78552" fill="#272223" isolation="isolate" opacity=".2"/><path d="m487.5,311.05551c-2.76999,0-5.79999-.67999-8.78-1.35001-2.20999-.5-4.16-.62-5.73001-.72-2.37-.14999-4.25-.26999-5.29001-1.66-1.03-1.37-1.03-3.70001,0-8.29999,1.37-6.10999,4.42001-15.85999,8.16-23.88,4.82001-10.35001,9.45999-15.10999,13.78-14.14001,5.79001,1.29999,8.10001,10.95999,8.95999,16.61002,1.20001,7.88,1.10001,17.23999-.26001,23.29001h0c-1.79999,8.01999-5.92999,10.14001-10.84,10.14001l.00003.00998Zm1.06-48.37c-3.17999,0-7.07999,4.64001-11.07001,13.23001-3.67999,7.89999-6.69,17.5-8.03,23.51999-.87,3.85999-.95999,5.97-.31,6.82999.54999.73001,1.98001.82001,3.97.94,1.63.10001,3.64999.23001,6,.76001,9.32999,2.09,15.17001,2.85001,17.48001-7.44,2.47-11.03.59-35.98001-7.34-37.76001-.23001-.04999-.45999-.07999-.69-.07999h-.01001Z" fill="#dfdfe0"/><polygon points="525.25 385.20553 436.32999 385.78552 422.51001 379.43552 430.56 297.32553 438.66 297.73553 521.96997 301.97552 525.25 385.20553" fill="#e2e3e4"/><polygon points="436.32999 385.78552 422.51001 379.43552 430.56 297.32553 438.66 297.73553 436.32999 385.78552" fill="#272223" isolation="isolate" opacity=".2"/><path id="uuid-2d2c280e-4908-4ffb-baf5-3f13ad86c3e1" d="m492.70001,255.63553c1.48999,7.32001-1.23999,14.01001-6.07999,14.94s-9.97-4.26001-11.45001-11.57999c-.63-2.92001-.53-5.94.29001-8.82001l-5.89001-31.11,15.22-2.41,4.19,30.92c1.89001,2.36,3.16,5.12,3.72,8.06h0Z" fill="#f8a8ab"/><path d="m433,71.44553s22.26001-2.82,24.92001,3.83,33.92001,164.94,33.92001,164.94h-20.62l-38.22-168.77h-.00003Z" fill="#e2e3e4"/><polygon points="278.34 105.32552 255.98 112.67552 255.98 80.49552 276.26999 80.49552 278.34 105.32552" fill="#f8a8ab"/><circle cx="258.75" cy="67.12553" r="22.28" fill="#f8a8ab"/><path d="m264.87,64.91553c-3.73001-.11-6.17999-3.88-7.63-7.32s-2.94-7.39-6.39999-8.81c-2.83-1.16-7.82001,6.69-10.05,4.6-2.33-2.18-.06-13.37,2.41-15.38s5.85001-2.4,9.03-2.55c7.75999-.36,15.56999.27,23.18001,1.86,4.70999.98,9.54999,2.46,12.95001,5.86,4.29999,4.32,5.39999,10.83,5.70999,16.92.32001,6.23-.04001,12.75-3.07001,18.2-3.03,5.45-9.37,9.47-15.45001,8.08-.60999-3.3.01001-6.69.25-10.05.23001-3.35-.01001-6.97-2.06-9.64s-6.42001-3.73-8.79999-1.36" fill="#2f2e43"/><path d="m292.28,72.63552c2.23001-1.63,4.89999-3,7.64001-2.66,2.95999.36,5.47,2.8,6.23001,5.69s-.09,6.07-1.92999,8.43c-1.82999,2.36-4.56,3.92-7.44,4.7-1.67001.45-3.5.64-5.09-.04-2.34-1.01-3.60999-4-2.69-6.38" fill="#2f2e43"/><rect x="250.02" y="463.42554" width="20.93999" height="29.70999" fill="#f8a8ab"/><path d="m229.62,511.11551c-2.2,0-4.16-.04999-5.64-.19-5.56-.51001-10.87-4.62-13.53999-7.01999-1.2-1.07999-1.58-2.79999-.96001-4.28h0c.45-1.06,1.34-1.85999,2.45-2.17001l14.7-4.20001,23.8-16.06.27.48001c.10001.17999,2.44,4.39001,3.22,7.23001.3,1.07999.22,1.98001-.23,2.67999-.31.48001-.75.76001-1.10001.92001.42999.45001,1.78,1.37,5.94,2.03,6.07001.95999,7.35001-5.32999,7.39999-5.59l.04001-.20999.17999-.12c2.89001-1.85999,4.67001-2.70999,5.28-2.53.38.10999,1.01999.31,2.75,17.44.17001.54001,1.38,4.48001.56,8.25-.89001,4.10001-18.81,2.69-22.39999,2.37-.10001.01001-13.52.97-22.70999.97l-.01001-.00003Z" fill="#2f2e43"/><rect x="319.08808" y="443.36287" width="20.94" height="29.70999" transform="translate(-192.5546 243.81056) rotate(-31.95)" fill="#f8a8ab"/><path d="m306.98001,507.04553c-2.45999,0-4.72-.29999-6.32999-.57999-1.57999-.28-2.82001-1.54001-3.07999-3.12h0c-.17999-1.14001.14999-2.29001.92999-3.14001l10.25-11.34,11.70001-26.22.48001.26001c.17999.10001,4.39001,2.42999,6.56,4.42999.82999.76001,1.23999,1.57001,1.22,2.39999-.01001.57999-.23001,1.04001-.45001,1.37.60001.16,2.23001.22,6.10999-1.42001,5.66-2.39001,3.42001-8.41,3.32001-8.66l-.07999-.20001.09-.19c1.47-3.10999,2.51999-4.76999,3.14001-4.94.39001-.10999,1.03-.28,11.56,13.35001.42999.35999,3.54001,3.07001,4.84,6.70001,1.41,3.95001-14.54001,12.23999-17.75,13.85999-.10001.07999-16.79001,12.20999-23.64999,15.66-2.72,1.37-5.94,1.79001-8.87,1.79001l.00995-.00998Z" fill="#2f2e43"/><path d="m286.38,214.97552h-58.63l-5.32001,54.54001,23.28,201.52002h29.92999l-11.97-116.39001,48.54999,105.08002,26.60001-18.62-37.91-98.10001s13.54001-85.45999,2.89999-106.75-17.42999-21.28-17.42999-21.28l.00003-.00003Z" fill="#2f2e43"/><polygon points="315.54001 218.29552 222.42999 218.29552 250.36 97.91553 290.92999 97.91553 315.54001 218.29552" fill="#6c63ff"/><path id="uuid-cf48ccb0-01b2-4d13-8a95-29595d168237" d="m199.3,95.54552c-1.49001-7.32,1.24001-14.01,6.08-14.94s9.97,4.26,11.45,11.58c.63,2.92.53,5.94-.28999,8.82l5.89,31.11-15.22,2.41-4.19-30.92c-1.89-2.36-3.16-5.12-3.72-8.06h0Z" fill="#f8a8ab"/><path d="m289.94,97.91553h-35.78l-24.12,48.24001-9.10001-36.15-19.99001,2.12s4.73,70.62999,25.39999,68.24001c20.67-2.39,68.87999-66.02,63.58-82.46l.01001.00999Z" fill="#6c63ff"/><path d="m323.73001,326.72552c-2.76999,0-5.79999-.67999-8.78-1.35001-2.20999-.5-4.16-.62-5.73001-.72-2.37-.14999-4.25-.26999-5.29001-1.66-1.03-1.37-1.03-3.70001,0-8.29999,1.37-6.10999,4.42001-15.85999,8.16-23.88,4.82001-10.35001,9.45999-15.10999,13.78-14.14001,5.79001,1.29999,8.10001,10.95999,8.95999,16.60999,1.20001,7.88,1.10001,17.23999-.26001,23.29001h0c-1.79999,8.01999-5.92999,10.14001-10.84,10.14001l.00003.01001Zm1.06-48.37c-3.17999,0-7.07999,4.64001-11.07001,13.23001-3.67999,7.89999-6.69,17.5-8.03,23.51999-.87,3.85999-.95999,5.97-.31,6.82999.54999.73001,1.98001.82001,3.97.94,1.63.10001,3.64999.23001,6,.76001,9.32999,2.09,15.17001,2.85001,17.48001-7.44,2.47-11.03.59-35.98001-7.34-37.76001-.23001-.04999-.45999-.07999-.69-.07999h-.01001Z" fill="#dfdfe0"/><polygon points="361.48999 400.86551 272.57001 401.44553 258.75 395.09552 266.79999 312.98553 274.89999 313.39554 358.20999 317.63553 361.48999 400.86551" fill="#e2e3e4"/><polygon points="272.57001 401.44553 258.75 395.09552 266.79999 312.98553 274.89999 313.39554 272.57001 401.44553" fill="#272223" isolation="isolate" opacity=".2"/><path id="uuid-716933f9-4240-4e35-a02b-a709ca9af65f" d="m329.89001,281.36551c1.48999,7.32001-1.23999,14.01001-6.07999,14.94s-9.97-4.26001-11.45001-11.57999c-.63-2.92001-.53-5.94.29001-8.82001l-5.89001-31.11,15.22-2.41,4.19,30.92c1.89001,2.35999,3.16,5.12,3.72,8.06h0Z" fill="#f8a8ab"/><path d="m269.54001,97.91553s20.32999-.86,21.38998,0c5.54999,4.53,38.10001,168.04001,38.10001,168.04001h-20.62l-38.87-168.03999v-.00002Z" fill="#6c63ff"/></svg>