<svg id="a0054f8d-5006-462a-87d7-3b62f564b350" data-name="Layer 1" xmlns="http://www.w3.org/2000/svg" width="881.07561" height="550.67001" viewBox="0 0 881.07561 550.67001"><path d="M745.35533,695.19522H439.38683c-8.2226,0-53.51575-23.95982-53.51575-53.51575V471.711c-1.46329-128.56109,419.41235-136.97607,421,0V641.67947C806.87108,671.2354,774.91126,695.19522,745.35533,695.19522Z" transform="translate(-159.46219 -174.665)" fill="#e6e6e6"/><path d="M761.18791,356.50039c-14.40173-6.298-30.622-6.52093-46.34021-6.6419a31.43889,31.43889,0,0,0,11.34638-6.64875,45.98789,45.98789,0,0,1-8.5398-1.15069,19.96937,19.96937,0,0,1-8.49164-3.799c-2.38965-2.0224-4.01642-5.1601-3.56073-8.25739.5719-3.88763,4.20447-7.08813,3.83142-10.99982-.42749-4.48285-5.59991-6.66455-8.3681-10.21643-3.87927-4.97747-2.50293-12.56427,1.46051-17.475a30.10957,30.10957,0,0,1,9.46686-7.35883,35.35857,35.35857,0,0,0-18.58527.26935c6.30353-4.47577,9.45288-13.6449,7.34119-21.3905-2.70715-9.92981-11.88422-17.04126-21.70685-20.1145s-20.33685-2.78785-30.62427-2.47315c8.73322-2.6831,7.41663-16.36481.74121-22.60229-6.67541-6.23755-16.22314-8.842-22.51818-15.46326-6.29505-6.62116-5.78571-20.756,3.28393-21.85559l-1.115-3.22656c-18.57043-8.15674-43.10126,5.20861-46.31641,25.235-1.662,10.35272,1.43439,21.80438-3.76013,30.9126-6.62268,11.61255-22.69879,12.92627-36.005,11.63922-13.30615-1.287-28.33771-3.2865-38.60913,5.26965A22.775,22.775,0,0,0,519.323,290.41806c-8.71417.24359-17.60412,1.04-25.94067,3.424q4.07949,1.581,8.15893,3.16211a13.39578,13.39578,0,0,1,4.91382,2.759c1.32483,1.35321,2.01123,3.52643,1.09662,5.18463-1.30456,2.36536-4.67517,2.28375-7.34631,1.8819q-8.869-1.3343-17.738-2.66852a6.73437,6.73437,0,1,1-6.69958,11.33655,25.90211,25.90211,0,0,1,4.33722,7.13232c.90521,2.645.85614,5.77973-.82355,8.01447-2.8667,3.814-8.75562,3.32007-13.209,1.608-1.44391-.555-2.89673-1.20154-4.36047-1.79285.0293.51313.06836,1.02692.12842,1.54163a24.55138,24.55138,0,0,0,10.46515,16.78613A32.5557,32.5557,0,0,0,451.5374,359.724c-9.21326,10.91619-9.808,28.20245-1.36676,39.72607-9.20532-3.1872-18.90906-6.41992-28.50141-4.72217-9.5924,1.69782-18.72723,10.20966-17.46563,19.86908,1.61487,12.36487,16.9259,16.88593,29.30114,18.41876a1198.24837,1198.24837,0,0,0,293.03278-.03521c13.11987-1.61176,26.52484-3.53473,38.207-9.71973,11.68225-6.18494,21.48358-17.53339,22.21167-30.73175C787.82194,376.83432,775.58971,362.79837,761.18791,356.50039Z" transform="translate(-159.46219 -174.665)" fill="#6c63ff"/><path d="M833.4196,499.74072c-1.6864-8.4432-10.17523-16.65165-20.6817-16.37554-9.40564.24725-17.81171,6.96356-27.04718,5.49321-7.669-1.221-13.69312-7.91535-21.406-6.89335-7.06372.936-10.86157,7.83959-16.13586,11.5534H734.61925c-5.26728-4.14622-7.85559-12.54684-15.16065-14.90221-11.00433-3.54817-19.83288,8.86894-31.35766,11.06562-6.599,1.2578-13.39472-1.04612-19.3407-3.69314-5.946-2.647-11.88532-5.76434-18.62988-6.3082-6.108-.49257-13.07654,2.05276-15.01978,6.59523.35815-3.51358-4.20758-6.95877-8.84412-7.18044-5.28833-.25279-10.13244,2.191-14.60638,4.49937-4.47388,2.30836-9.42841,4.66233-14.6958,4.20358-11.51337-1.00272-17.15918-14.45538-28.73688-14.60181-14.57208-.18429-20.4024,20.57375-34.81311,18.80434-7.49359-.92013-11.53754-7.72417-18.21924-10.63409-6.55346-2.85408-14.54754-1.56883-21.79132-.21279l-34.08343,6.38045c-10.11646,1.89383-21.08332,3.73163-30.56885.3-7.31079-2.64486-14.41174-8.373-21.95056-6.19285-6.5658,1.89879-9.77112,9.25294-16.72339,9.63511-4.60462.25309-8.36133-2.7723-12.57526-4.30375-7.25079-2.6351-16.68817-.25461-20.83618,5.25572-3.26776,4.341-4.47266,33.37958-1.81628,47.49454a45.98042,45.98042,0,0,0,.79455,10.04094l34.28012,137.18018c4.03046,21.0387,14.43364,36.251,35.85493,36.251H758.959a44.65243,44.65243,0,0,0,43.85493-36.251L837.094,549.76406c.068-.3553.11181-.70845.17132-1.063C839.71324,538.82986,835.02934,507.7997,833.4196,499.74072Z" transform="translate(-159.46219 -174.665)" fill="#ccc"/><path d="M426.05548,489.41712l6.66145,86.58943c2.22048,28.86314-1.06633,57.32552,1.15415,86.18867,1.25061,16.25625,8.00853,32.91326,9.25915,49.16952.14714,1.91263,3.14836,1.92856,3,0l-6.66145-86.58943-6.66145-86.58943-3.75185-48.76876c-.14714-1.91263-3.14836-1.92856-3,0Z" transform="translate(-159.46219 -174.665)" opacity="0.2"/><path d="M483.9169,492.84534l2.59584,85.32661,2.59585,85.3266,1.45731,47.90266c.0586,1.926,3.05885,1.9343,3,0l-2.59584-85.32661-2.59585-85.3266-1.45731-47.90266c-.0586-1.92605-3.05885-1.9343-3,0Z" transform="translate(-159.46219 -174.665)" opacity="0.2"/><path d="M539.97323,497.96409l-.78947,82.462-.78468,81.9622-.445,46.47857a1.5009,1.5009,0,0,0,3,0l.78947-82.462.78468-81.9622.445-46.47857a1.5009,1.5009,0,0,0-3,0Z" transform="translate(-159.46219 -174.665)" opacity="0.2"/><path d="M582.321,495.4415l1.64179,83.4804,1.632,82.98051.92412,46.989c.03792,1.928,3.038,1.93445,3,0L587.8771,625.411l-1.632-82.98052-.92412-46.989c-.03791-1.928-3.038-1.93445-3,0Z" transform="translate(-159.46219 -174.665)" opacity="0.2"/><path d="M644.03667,492.01356l1.87707,85.70682,1.87708,85.70681,1.05072,47.97583c.04222,1.92761,3.04237,1.93446,3,0l-1.87707-85.70682-1.87708-85.70681-1.05072-47.97583c-.04222-1.92761-3.04237-1.93446-3,0Z" transform="translate(-159.46219 -174.665)" opacity="0.2"/><path d="M695.26892,494.612l6.54281,86.35671,6.524,86.10783,3.67679,48.529c.14494,1.91307,3.14613,1.92881,3,0l-6.54281-86.35671L701.94572,543.141l-3.6768-48.529c-.14494-1.91307-3.14613-1.92881-3,0Z" transform="translate(-159.46219 -174.665)" opacity="0.2"/><path d="M752.1975,504.6758l3.94509,79.01524c1.315,26.33842-5.36994,52.67683-4.05491,79.01524l2.21523,44.36818c.09593,1.92142,3.0965,1.9329,3,0-1.315-26.33841,5.36993-52.67683,4.0549-79.01524L757.41272,549.044,755.1975,504.6758c-.09594-1.92141-3.09651-1.9329-3,0Z" transform="translate(-159.46219 -174.665)" opacity="0.2"/><ellipse cx="418.90888" cy="105.53022" rx="11.5" ry="8" fill="#e6e6e6"/><ellipse cx="491.90888" cy="123.53022" rx="11.5" ry="8" fill="#3f3d56"/><ellipse cx="389.90888" cy="162.53022" rx="11.5" ry="8" fill="#ff6584"/><ellipse cx="485.00488" cy="176.01822" rx="7.268" ry="5.056" fill="#e6e6e6"/><ellipse cx="531.14088" cy="187.39422" rx="7.268" ry="5.056" fill="#3f3d56"/><ellipse cx="466.67688" cy="212.04222" rx="7.268" ry="5.056" fill="#ff6584"/><ellipse cx="553.00488" cy="204.01822" rx="7.268" ry="5.056" fill="#e6e6e6"/><ellipse cx="599.14088" cy="215.39422" rx="7.268" ry="5.056" fill="#3f3d56"/><ellipse cx="534.67688" cy="240.04222" rx="7.268" ry="5.056" fill="#ff6584"/><ellipse cx="520.11231" cy="356.37987" rx="7.268" ry="5.056" transform="translate(-63.38649 648.31577) rotate(-82.15499)" fill="#e6e6e6"/><ellipse cx="502.5455" cy="400.53133" rx="7.268" ry="5.056" transform="translate(-122.29377 669.03842) rotate(-82.15499)" fill="#3f3d56"/><ellipse cx="486.92712" cy="333.30635" rx="7.268" ry="5.056" transform="translate(-69.18453 595.51703) rotate(-82.15499)" fill="#ff6584"/><ellipse cx="599.11231" cy="332.37987" rx="7.268" ry="5.056" transform="translate(28.60589 705.85225) rotate(-82.15499)" fill="#e6e6e6"/><ellipse cx="581.5455" cy="376.53133" rx="7.268" ry="5.056" transform="translate(-30.3014 726.5749) rotate(-82.15499)" fill="#3f3d56"/><ellipse cx="565.92712" cy="309.30635" rx="7.268" ry="5.056" transform="translate(22.80784 653.05352) rotate(-82.15499)" fill="#ff6584"/><path d="M878.085,697.57775a3.61324,3.61324,0,0,0,2.61866-6.26263c-.09111-.36212-.15647-.62216-.24758-.98429a9.70742,9.70742,0,0,1,17.99686-.16974c4.28226,10.02341,9.82453,20.4,7.06825,31.44012,18.206-38.58538,12.01458-86.582-14.89138-119.57967-7.43714-4.09684-13.46509-11.37558-15.03439-19.82719,3.6807,1.24714,8.26984-1.74675,5.50237-5.62382-1.19956-1.48179-2.41076-2.95192-3.6102-4.4338,13.98172-14.89039,30.6407,8.512,15.25086,28.60947A115.84646,115.84646,0,0,1,905.74982,621.098a48.70929,48.70929,0,0,1,2.908-22.62447c2.78346-6.71479,8.00064-12.37,12.595-18.17495,5.58608-7.07309,17.08305-3.80994,17.8347,5.16592-5.15526,1.69443-5.825,9.14117.072,10.16037-1.54455,16.69795-12.45345,32.04321-27.47828,39.36634a116.29881,116.29881,0,0,1,6.35539,48.61141c2.65207-19.25,23.31569-23.92148,37.75859-31.57247a5.626,5.626,0,0,1,8.58011,5.69851,32.49472,32.49472,0,0,0-5.69583,3.00488,4.91123,4.91123,0,0,0,2.28162,8.96546c-7.28014,18.018-26.10228,30.11727-45.43372,30.04916a119.56213,119.56213,0,0,1-8.03167,23.447H878.804c-.10291-.3188-.19542-.64792-.288-.96672a32.59917,32.59917,0,0,0,7.93915-.473c-7.02636-8.31909-12.46031-12.56337-8.371-24.17721Z" transform="translate(-159.46219 -174.665)" fill="#f2f2f2"/><path d="M316.29252,697.14823a3.61323,3.61323,0,0,1-2.61866-6.26262c.09111-.36213.15647-.62217.24758-.9843a9.70742,9.70742,0,0,0-17.99686-.16973c-4.28226,10.0234-9.82453,20.4-7.06825,31.44011-18.206-38.58538-12.01459-86.582,14.89138-119.57967,7.43714-4.09684,13.46508-11.37558,15.03439-19.82719-3.6807,1.24714-8.26984-1.74675-5.50237-5.62382,1.19955-1.48179,2.41076-2.95192,3.6102-4.4338-13.98172-14.89038-30.6407,8.512-15.25087,28.60947a115.84735,115.84735,0,0,0-13.01133,20.35185,48.70929,48.70929,0,0,0-2.908-22.62447c-2.78346-6.71479-8.00064-12.37-12.595-18.17495-5.58607-7.07308-17.083-3.80993-17.83469,5.16593,5.15526,1.69443,5.825,9.14116-.072,10.16036,1.54456,16.698,12.45346,32.04321,27.47828,39.36635a116.29873,116.29873,0,0,0-6.35538,48.6114c-2.65207-19.25-23.31569-23.92147-37.7586-31.57247a5.626,5.626,0,0,0-8.5801,5.69851,32.49539,32.49539,0,0,1,5.69583,3.00488,4.91123,4.91123,0,0,1-2.28162,8.96546c7.28014,18.01805,26.10227,30.11728,45.43371,30.04916a119.56344,119.56344,0,0,0,8.03167,23.447h28.69167c.10292-.3188.19543-.64792.288-.96672a32.59878,32.59878,0,0,1-7.93916-.473c7.02637-8.31908,12.46032-12.56336,8.371-24.17721Z" transform="translate(-159.46219 -174.665)" fill="#f2f2f2"/><path d="M388.17729,361.25005l-3.05179-17.68893,46.39726-20.95121,10.01992-17.74013a8.6255,8.6255,0,1,1,12.73916,5.72524L437.799,336.07815Z" transform="translate(-159.46219 -174.665)" fill="#a0616a"/><polygon points="214.612 172.124 235.505 161.452 241.037 182.22 226.523 192.978 214.612 172.124" fill="#3f3d56"/><polygon points="167.726 525.135 180.359 525.134 186.369 476.405 167.724 476.406 167.726 525.135" fill="#a0616a"/><path d="M344.02537,700.9369v-8.56464l-3.32125.20291-13.51968.80093-3.129.19221-2.3921,28.684-.12814,1.53779h8.97038l.28836-1.5271,1.30281-6.9414,3.36394,6.9414.73686,1.5271h23.78232a5.37361,5.37361,0,0,0,5.33953-5.35023C366.32328,713.75179,346.54561,703.61736,344.02537,700.9369Z" transform="translate(-159.46219 -174.665)" fill="#2f2e41"/><polygon points="18.068 479.65 28.397 486.925 61.374 450.55 46.13 439.812 18.068 479.65" fill="#a0616a"/><path d="M191.00961,664.012l4.93249-7.00168-2.832-1.74687-11.51375-7.1314-2.66866-1.64488L160.45259,668.559l-.9904,1.18336,7.33339,5.16617,1.11521-1.08235,5.06271-4.92436-1.2476,7.612-.27708,1.67279,19.44229,13.69657a5.37362,5.37362,0,0,0,7.4464-1.29876C201.85811,687.32994,191.52622,667.65471,191.00961,664.012Z" transform="translate(-159.46219 -174.665)" fill="#2f2e41"/><path d="M346.722,384.4278l-16.26127-7.60151-32.4281,39.24382-19.75237,4.9955a8.6255,8.6255,0,1,0,2.16908,13.79709l28.92383-9.19172Z" transform="translate(-159.46219 -174.665)" fill="#a0616a"/><path d="M330.32784,447.64149s-26.68056,17.37339-19.62564,28.91789c.24334.39819-56.83112,79.63584-56.83112,79.63584l-64,69,22,20s60.80022-63.31252,71-74,54.75055-64.15481,54.75055-64.15481l1.63875,66.07682-17.055,91.56282,25.46506-1.61459,24.78545-91.86039,9.14869-104.05437Z" transform="translate(-159.46219 -174.665)" fill="#2f2e41"/><path d="M349.33252,343.37291l-11.21963,8.50264L325.32471,379.1692,337.62163,395.87s10.34382,17.92663-6.213,35.28742-29.27075,35.903-16.01861,35.241,66.925,26.63708,67.27817,4.27162,1.06791-39.51257,1.06791-39.51257l14.07182-35.691s8.38367-21.29157,2.49756-27.665S386.5383,353.2837,386.5383,353.2837l-14.332-14.332H359.26523Z" transform="translate(-159.46219 -174.665)" fill="#3f3d56"/><path d="M370.27686,290.93137c25.17045,14.323,4.50676,52.1142-21.13292,38.65708C323.97429,315.26592,344.638,277.47472,370.27686,290.93137Z" transform="translate(-159.46219 -174.665)" fill="#a0616a"/><path d="M383.73614,298.873c-1.76366,2.29385-5.44838,1.21829-12.66425,2.85509a30.0806,30.0806,0,0,0-.84145-7.262,20.44136,20.44136,0,0,1-3.44664,8.17266c-6.2657.69489,1.4152,19.72974-1.79293,33.72475-4.1335-29.525-12.82753-21.78969-8.43537-15.93348,2.81179,3.74905.93726,14.99621-7.49811,9.37263-13.918,6.61465-33.74148-26.24337-11.771-41.6533-.39257-8.32948,8.87553-9.64531,14.58276-7.08439C365.71982,270.74715,381.544,283.96782,383.73614,298.873Z" transform="translate(-159.46219 -174.665)" fill="#2f2e41"/><path d="M319.15434,277.329c-5.60384,34.45449-35.64018-6.33653-49.76307,27.57014-4.44043,12.279,3.1782,21.063,7.99731,31.25514,1.09987,8.37608-9.79671,12.62568-10.93808,20.33581-.31767,17.67633,28.19992,16.59466,36.17224,5.44248,8.19157-11.67441-1.59034-27.33755,3.3334-39.86846,6.92029-17.39742,35.06365-17.52667,37.51543-37.76706C338.72326,277.53532,325.95518,269.791,319.15434,277.329Z" transform="translate(-159.46219 -174.665)" fill="#2f2e41"/><path d="M341.85556,280.69582c-.18333.07721-.36666.15436-.53067.24122h-.00966c-.15435.07721-.30877.15436-.46312.24122-.01932.00966-.02892.01932-.04824.029-.20264-.193-.40523-.386-.61753-.579a2.23123,2.23123,0,0,0,.03857.94556l.029.11584c.193.20259.39558.39558.60788.59822.193-.14475.37632-.29911.56925-.44386.11584-.09647.23162-.193.35706-.28946.01926-.25088.04823-.54033.07715-.85876Zm5.80861-10.72948c-4.30339-.9842-5.69283,4.64108-6.10772,7.3524-1.5631-9.84181-8.0664-6.74452-5.81821-.029a15.03592,15.03592,0,0,0,3.30954,5.32617c.20265.23156.42455.46312.65611.69475-.26053,1.3508,1.05175,1.00345,2.8271-.24122a23.64753,23.64753,0,0,0,3.61831-3.1745C349.6904,276.18018,352.45,271.211,347.66417,269.96634Zm.1351,5.53841a33.71857,33.71857,0,0,1-4.44809,4.71829q-.76713.69469-1.56311,1.33154c-.00966.08681-.00966.164-.01931.23157a1.76777,1.76777,0,0,1-.1351.27013c-.54033.97454-1.14821.44387-1.37978-.3666-.01931-.029-.04823-.058-.06754-.08686a13.596,13.596,0,0,1-1.99732-2.64377c-3.985-6.90859,2.43152-11.60756,2.1131,1.29291a1.222,1.222,0,0,0-.11578.37632,2.23123,2.23123,0,0,0,.03857.94556l.029.11584c.193.20259.39558.39558.60788.59822.193-.14475.37632-.29911.56925-.44386.11584-.09647.23162-.193.35706-.28946.01926-.25088.04823-.54033.07715-.85876v-.00965c.25088-2.58588.936-7.23662,2.2-8.50061C346.84405,270.05314,350.443,272.35923,347.79927,275.50475Zm-5.94371,5.19107c-.18333.07721-.36666.15436-.53067.24122h-.00966c-.15435.07721-.30877.15436-.46312.24122-.01932.00966-.02892.01932-.04824.029-.20264-.193-.40523-.386-.61753-.579a2.23123,2.23123,0,0,0,.03857.94556l.029.11584c.193.20259.39558.39558.60788.59822.193-.14475.37632-.29911.56925-.44386.11584-.09647.23162-.193.35706-.28946.01926-.25088.04823-.54033.07715-.85876Z" transform="translate(-159.46219 -174.665)" fill="#2f2e41"/><path d="M456.28148,318.64456c1.67969-2.23474,1.72876-5.36951.82355-8.01447a25.90211,25.90211,0,0,0-4.33722-7.13232,6.73437,6.73437,0,1,0,6.69958-11.33655q8.869,1.33429,17.738,2.66852c2.67114.40185,6.04175.48346,7.34631-1.8819.91461-1.6582.22821-3.83142-1.09662-5.18463a13.39578,13.39578,0,0,0-4.91382-2.759q-4.07949-1.581-8.15893-3.16211a55.50377,55.50377,0,0,0-12.72955,5.31329c-11.09656,6.45807-19.66657,18.59052-18.9408,31.30438,1.46374.59131,2.91656,1.2378,4.36047,1.79285C447.52586,321.96463,453.41478,322.45852,456.28148,318.64456Z" transform="translate(-159.46219 -174.665)" fill="#6c63ff"/><polygon points="712.443 527.158 700.088 529.969 683.363 483.646 701.6 479.497 712.443 527.158" fill="#ffb6b6"/><path d="M875.27442,714.61349l-37.99712,8.64539-.10936-.48053a15.16836,15.16836,0,0,1,11.42388-18.15476l.00092-.00021,5.74234-6.845,14.14807,2.31939,3.3169-.75469Z" transform="translate(-159.46219 -174.665)" fill="#2f2e41"/><polygon points="873.571 502.808 862.899 509.64 831.466 471.727 847.217 461.642 873.571 502.808" fill="#ffb6b6"/><path d="M1040.53781,688.36475l-32.81838,21.01139-.26574-.415a15.16836,15.16836,0,0,1,4.59494-20.952l.0008-.00051,3.08267-8.386,14.09683-2.61281,2.86483-1.83417Z" transform="translate(-159.46219 -174.665)" fill="#2f2e41"/><polygon points="704.219 296.405 694.923 320.648 651.314 406.668 689.633 506.736 709.409 501.515 693.109 406.668 739.873 349.848 767.024 408.228 845.024 494.228 863.024 482.228 805.024 393.228 766.401 280.361 704.219 296.405" fill="#2f2e41"/><path d="M910.58761,356.71554,895.285,340.2746l-26.25-3.6113-32.16395,22.51681.324,24.92317L853.095,442.83237s-6.05633,42.19407,10.85986,41.77091,26.13666-8.8568,33.02642-7.14,36.17761,9.02321,38.03369,1.37,11.72222-2.1734,11.28915-9.41329S919.595,409.99329,919.595,409.99329l4.59823-36.73406a14.7478,14.7478,0,0,0-13.60563-16.54369Z" transform="translate(-159.46219 -174.665)" fill="#3f3d56"/><path d="M1016.18919,460.30225a9.37336,9.37336,0,0,1-11.31419-8.86395L934.51707,423.738l13.38966-10.96972,66.70257,28.88387a9.42414,9.42414,0,0,1,1.57989,18.65013Z" transform="translate(-159.46219 -174.665)" fill="#ffb6b6"/><path d="M916.5346,359.76338s-11.98591-.09228-13.45753,13.5509,23.65839,48.245,27.54187,53.94333c1.21606,1.78437,6.44167,3.81434,13.04651,5.76113,2.9652.874,6.20838,1.73124,9.49155,2.542,1.89993.46915,2.74915,3.61839,4.62973,4.05063,1.87025.42986,4.77223-1.85705,6.53237-1.47507,8.35461,1.81307,14.95768,3.02282,14.95768,3.02282l15.62007-10.64532c-7.88038-11.63484-22.95446-16.39489-40.03226-19.24Z" transform="translate(-159.46219 -174.665)" fill="#3f3d56"/><path d="M740.17454,296.40412a9.37337,9.37337,0,0,0,12.296,7.44229l50.81976,55.99017,5.51756-16.40653-50.63222-52.15257a9.42414,9.42414,0,0,0-18.00114,5.12664Z" transform="translate(-159.46219 -174.665)" fill="#ffb6b6"/><path d="M869.48741,354s4.3306,11.1766-7.90746,17.384-53.49655-5.04153-60.20084-6.65554c-2.09936-.50541-5.84823-4.6736-10.0077-10.1611-1.86737-2.46358-3.8175-5.19307-5.73828-7.97642-1.11153-1.61069-4.35744-1.28972-5.42759-2.89539-1.06428-1.59685.04684-5.1206-.93367-6.63143-4.654-7.17125-8.12358-12.9181-8.12358-12.9181l4.42436-18.37754c13.67147,3.24978,23.46093,15.66156,32.16912,30.62531Z" transform="translate(-159.46219 -174.665)" fill="#3f3d56"/><circle cx="723.22145" cy="132.83992" r="24.97608" fill="#ffb6b6"/><path d="M911.19409,293.20414c-2.62724-4.0645-7.55742-6.77337-12.33686-6.01218a16.84707,16.84707,0,0,0-28.228-9.82644,5.23872,5.23872,0,0,0-5.1231-.51271,10.802,10.802,0,0,0-4.16216,3.34089,24.24314,24.24314,0,0,0-3.3923,24.66312c-.58412-2.12346,1.54395-4.12116,3.69413-4.59767,2.15-.47651,4.40538-.0257,6.58578-.336,2.79455-.39765,5.30663-2.0188,8.1056-2.38365a18.45285,18.45285,0,0,1,7.0118.90106,19.01234,19.01234,0,0,0,7.009.94122c2.35582-.27972,5.39028,8.64788,5.34956,14.9359-.00774,1.19164.2377,2.72158,1.40225,2.97439,1.43413.31141,2.26516-1.668,3.63019-2.2073a2.52535,2.52535,0,0,1,3.09748,1.64714,4.11718,4.11718,0,0,1-.78607,3.68694,12.16639,12.16639,0,0,1-2.9497,2.55879l.56219.46757a3.34517,3.34517,0,0,0,4.22278.5246,9.11394,9.11394,0,0,0,3.03189-3.45219,40.62348,40.62348,0,0,0,5.56109-13.32571C914.35974,302.433,913.82114,297.26864,911.19409,293.20414Z" transform="translate(-159.46219 -174.665)" fill="#2f2e41"/><path d="M725.52574,273.31143c-3.96344,4.9107-5.33978,12.4975-1.46051,17.475,2.76819,3.55188,7.94061,5.73358,8.3681,10.21643.37305,3.91169-3.25952,7.11219-3.83142,10.99982-.45569,3.09729,1.17108,6.235,3.56073,8.25739a19.96937,19.96937,0,0,0,8.49164,3.799,45.98789,45.98789,0,0,0,8.5398,1.15069c10.80737-9.75018,15.58868-26.52008,9.69769-40.04956-4.2641-9.793-13.5802-16.64868-23.89917-19.20758A30.10957,30.10957,0,0,0,725.52574,273.31143Z" transform="translate(-159.46219 -174.665)" fill="#6c63ff"/><ellipse cx="740.11231" cy="285.37987" rx="7.268" ry="5.056" transform="translate(196.92038 804.94783) rotate(-82.15499)" fill="#e6e6e6"/><ellipse cx="620.5455" cy="283.53133" rx="7.268" ry="5.056" transform="translate(95.50494 684.90383) rotate(-82.15499)" fill="#3f3d56"/><ellipse cx="604.92712" cy="216.30635" rx="7.268" ry="5.056" transform="translate(148.61419 611.38244) rotate(-82.15499)" fill="#ff6584"/><path d="M1036.87108,724.19522c-.76735,2.27271-823.95153.81161-824.7794-1.45551C212.858,720.46149,1036.04215,721.92257,1036.87108,724.19522Z" transform="translate(-159.46219 -174.665)" fill="#ccc"/><path d="M368.9258,604.76058c37.28209-20.10182,81.50046-26.54219,123.05041-18.5156a181.79338,181.79338,0,0,1,33.94219,10.07248c1.3432.54574,2.18137-1.16509,1.694-2.20349-2.98258-6.35424-6.15014-13.14916-5.771-20.34406.3263-6.19286,3.75266-12.73121,10.3945-13.77678,10.79968-1.70009,13.70372,12.04317,9.82116,19.57079-3.26167,6.32383-9.30257,10.637-14.95934,14.6621a1.50125,1.50125,0,0,0,1.51416,2.59041,95.25175,95.25175,0,0,0,26.46845-16.86017q2.89746-2.60178,5.57279-5.43764c1.58276-1.67605,2.98591-3.50083,5.1221-4.50622a9.85714,9.85714,0,0,1,13.59333,10.058c-.53916,3.4324-3.0747,6.15831-5.80291,8.10536-6.05163,4.31888-13.59844,6.62-20.82883,7.98817-7.21934,1.366-16.60949,2.46523-23.32217-1.31847-1.22436-.69013-2.963.772-2.05229,2.05228,8.52838,11.9894,25.82815,14.28352,39.41513,14.72456,17.1541.55683,33.59056-2.57111,49.8763-7.74443,11.02285-3.50152,22.022-7.413,33.49572-9.17615a77.42993,77.42993,0,0,1,32.61773,2.29506c20.093,5.5209,39.08246,16.13945,60.28944,16.87687,13.58749.47247,26.78329-3.58068,40.30837-4.00084,10.94562-.34,22.72164,1.86115,30.5339,10.12808,1.3288,1.40614,3.4475-.718,2.12132-2.12132-15.242-16.129-39.25189-10.28961-58.49-7.84851a83.90611,83.90611,0,0,1-33.54744-2.33509c-10.03122-2.7677-19.66859-6.73772-29.48709-10.146-9.83054-3.41242-19.98635-6.29532-30.44595-6.69672-11.12186-.42681-22.09156,2.05892-32.68281,5.22052-10.67814,3.18754-21.16143,7.144-32.05237,9.58121a129.74383,129.74383,0,0,1-22.07538,2.87279c-9.15629.441-18.50612.119-27.46346-1.96455-7.379-1.71641-15.27087-4.78025-19.82294-11.17967l-2.05229,2.05229c6.71711,3.7862,15.53079,3.17987,22.865,2.08884,8.37248-1.2455,17.33937-3.78742,24.31434-8.75854,6.1175-4.36,10.01131-12.11364,5.091-18.9514a12.72122,12.72122,0,0,0-19.88217-1.32851c-9.53583,10.10694-20.332,18.29394-33.19091,23.73977l1.51416,2.59041c5.98916-4.26165,12.31227-8.80813,15.87051-15.43127a18.95035,18.95035,0,0,0,1.00251-16.25906c-2.00832-4.80856-6.27386-8.26388-11.6211-8.2631-6.98023.001-12.3136,5.281-14.16564,11.70213-2.70959,9.39425,1.38941,18.68082,5.32387,27.063l1.694-2.20349c-39.74121-16.14658-84.97177-17.76264-125.93856-5.20714a183.87922,183.87922,0,0,0-33.3657,13.95268c-1.7.91659-.18691,3.50759,1.51415,2.59041Z" transform="translate(-159.46219 -174.665)" fill="#e6e6e6"/><path d="M525.61367,595.99492c2.46233,6.65245-2.24664,13.12723-4.63922,19.05865-2.47676,6.14011-2.23674,12.91749,1.59768,18.46468,1.09057,1.5777,3.69192.07938,2.59041-1.51416a15.81171,15.81171,0,0,1-2.88915-8.84887,21.85856,21.85856,0,0,1,2.49528-9.34978c2.66681-5.75668,6.13163-12.14074,3.73784-18.608-.66443-1.79507-3.56509-1.0187-2.89284.79752Z" transform="translate(-159.46219 -174.665)" fill="#e6e6e6"/><path d="M528.11456,594.49569a25.77592,25.77592,0,0,0-22.2821,8.864c-2.764,3.23093-4.949,7.171-8.36039,9.7992-2.74711,2.11637-7.30481,3.68416-10.37132,1.30616-1.50739-1.16894-3.64567.93922-2.12132,2.12132,5.45959,4.23378,12.60727,1.15086,16.79809-3.37017,2.43822-2.63034,4.3313-5.70591,6.731-8.36822a22.54142,22.54142,0,0,1,8.21316-5.81054,23.16066,23.16066,0,0,1,11.39291-1.54172c1.91513.21733,1.89961-2.78443,0-3Z" transform="translate(-159.46219 -174.665)" fill="#e6e6e6"/></svg>