<svg id="b21b5cfe-3431-4bce-ab76-6761c43935b2" data-name="Layer 1" xmlns="http://www.w3.org/2000/svg" width="751.95058" height="555.86821" viewBox="0 0 751.95058 555.86821"><path d="M757.27694,579.437H352.34133a13.62479,13.62479,0,0,1-13.609-13.609V236.10512a13.62482,13.62482,0,0,1,13.609-13.609H757.27694a13.6248,13.6248,0,0,1,13.609,13.609V565.828A13.62481,13.62481,0,0,1,757.27694,579.437Z" transform="translate(-223.53652 -171.73987)" fill="#e6e6e6"/><path d="M361.52291,232.18273A13.12413,13.12413,0,0,0,348.414,245.2921V556.649a13.12393,13.12393,0,0,0,13.10888,13.1084h277.1626a122.66,122.66,0,0,0,122.521-122.521V245.29212a13.12412,13.12412,0,0,0-13.10889-13.10938Z" transform="translate(-223.53652 -171.73987)" fill="#fff"/><path d="M683.43649,372.21375H610.01211a5.78242,5.78242,0,0,1-5.776-5.776V329.893a5.78241,5.78241,0,0,1,5.776-5.776h73.42438a5.78242,5.78242,0,0,1,5.776,5.776c4.54336,12.93234,5.1886,25.22055,0,36.5448A5.78242,5.78242,0,0,1,683.43649,372.21375Z" transform="translate(-223.53652 -171.73987)" fill="#e6e6e6"/><path d="M674.738,368.68186H612.3565a4.91275,4.91275,0,0,1-4.9073-4.9073V332.726a4.91276,4.91276,0,0,1,4.9073-4.90731H674.738a4.91276,4.91276,0,0,1,4.90731,4.90729c4.21,11.05759,4.8873,21.521,0,31.04856A4.91276,4.91276,0,0,1,674.738,368.68186Z" transform="translate(-223.53652 -171.73987)" fill="#fff"/><path d="M671.37393,391.357h-49.4618a5.48765,5.48765,0,1,1-.02044-10.97528h49.48224a5.48765,5.48765,0,0,1,0,10.97528Z" transform="translate(-223.53652 -171.73987)" fill="#e6e6e6"/><path d="M638.11785,336.20237a2.15328,2.15328,0,0,0-2.14576,2.14884v23.26064a2.14511,2.14511,0,0,0,3.20784,1.86379l20.53095-11.70658a2.14445,2.14445,0,0,0-.01024-3.73323L639.1707,336.48075A2.14206,2.14206,0,0,0,638.11785,336.20237Z" transform="translate(-223.53652 -171.73987)" fill="#e6e6e6"/><path d="M937.65078,683.10416a9.16757,9.16757,0,0,0-9.78931-3.129l-.38439.11414-3.44727,13.4588c-.51648-2.00592-1.62152-6.53418-2.31818-10.96643l-.06005-.3664-.34229.15015a46.74977,46.74977,0,0,0-10.08362,6.07782A48.36118,48.36118,0,0,0,893.14242,724.862l-.006.25824-.006.16217.45642-.16217,9.79535-3.50128a29.24074,29.24074,0,0,0,23.57849-8.79242c3.95776-4.174,6.67236-9.54309,9.29681-14.738.76874-1.51343,1.55548-3.075,2.36023-4.57641A9.31906,9.31906,0,0,0,937.65078,683.10416Z" transform="translate(-223.53652 -171.73987)" fill="#f2f2f2"/><path d="M687.50668,339.88593a7.09753,7.09753,0,0,0,9.51666,5.28009l29.275,34.05587,3.7063-12.572-29.0235-31.15741a7.136,7.136,0,0,0-13.47448,4.39344Z" transform="translate(-223.53652 -171.73987)" fill="#ffb8b8"/><polygon points="581.955 545.239 572.267 545.239 567.658 507.87 581.957 507.87 581.955 545.239" fill="#ffb6b6"/><path d="M805.233,713.81461l-10.344-4.20746-.2962-.12152-5.71118,4.329a12.1612,12.1612,0,0,0-12.15918,12.15918v.39489h31.23712V713.81461Z" transform="translate(-223.53652 -171.73987)" fill="#2f2e41"/><polygon points="651.067 545.239 641.379 545.239 636.77 507.87 651.069 507.87 651.067 545.239" fill="#ffb6b6"/><path d="M874.34506,713.81461l-10.344-4.20746-.2962-.12152-5.71118,4.329a12.1612,12.1612,0,0,0-12.15918,12.15918v.39489h31.23712V713.81461Z" transform="translate(-223.53652 -171.73987)" fill="#2f2e41"/><path d="M851.73831,493.82919s12.15161,12.64194,12.15161,23.02936-3.03791,24.65,0,27.77161,6.83526,6.919,2.27844,11.47583-6.83527,6.83526-3.79736,9.87317,1.51892,56.201,1.51892,56.201l15.94891,71.39044H859.74569l-25.47522-71.3905-6.83526-59.2389-22.10547,56.96045,2.44067,74.28156-21.00592-.61273-8.69507-78.98517s12.911-75.134,10.63263-77.05957,0-5.81269,0-5.81269l6.07581-28.77026Z" transform="translate(-223.53652 -171.73987)" fill="#2f2e41"/><path d="M827.9468,404.19626s4.1319-16.28152-14.90375-20.94962-73.44934-10.66537-73.44934-10.66537l-27.499-29.17993-9.318,13.532,30.82721,38.30817,73.04272,15.00326Z" transform="translate(-223.53652 -171.73987)" fill="#3f3d56"/><path d="M707.30557,355.936a12.88964,12.88964,0,0,0,1.97851-3.66544l3.94361-9.69037-1.02375-.04266a10.23022,10.23022,0,0,0-12.09515,9.31561,6.66064,6.66064,0,0,0,.64429,3.621,3.94645,3.94645,0,0,0,2.89111,2.12015A4.36358,4.36358,0,0,0,707.30557,355.936Z" transform="translate(-223.53652 -171.73987)" fill="#e6e6e6"/><path d="M790.89981,506.823l-2.27845,16.5163s4.55683,4.89373,6.83527,4.282,10.63263-4.17267,10.63263-4.17267,9.87317,5.39612,15.18945,6.00781,33.41681-3.05859,34.17627-4.89374,9.58679-9.01886,9.58679-9.01886l-3.511-20.95523Z" transform="translate(-223.53652 -171.73987)" fill="#e6e6e6"/><path d="M864.89523,449.04309s-1.929,15.92615-.4101,17.39194c1.519,1.45816-1.51892,10.68579-4.55682,16.76157s2.27844,6.83526,2.27844,11.39209,2.27838,21.26522,2.27838,21.26522-23.54364,1.51892-27.341-2.27844-9.87317-.75946-18.22736,7.59473-26.498,1.51892-30.29541-2.27844,2.95435-17.46787,5.23279-20.11841-2.19488.41769-4.47333-7.98206,2.19489-7.59473,5.99225-11.39209,0-10.63263-3.0379-17.46786-.75946-57.71991-.75946-69.87149,16.70837-13.67051,16.70837-13.67051l6.615-8.31625,4.86066-6.11374,9.52374-.37973.25061-.0076,9.2124-.37213,4.47333,5.21L853.093,379.9083l11.39209,2.27841c9.11371,3.0379,6.83527,22.02472,6.83527,22.02472Z" transform="translate(-223.53652 -171.73987)" fill="#3f3d56"/><circle cx="605.27713" cy="169.02274" r="19.52246" fill="#ffb6b6"/><path d="M851.44937,334.19528c-5.36963-3.29306-4.68152-11.90341-9.85529-14.91012a18.42442,18.42442,0,0,0-17.03235-.71533c-3.644-1.559-8.00983-.31485-10.92505,2.50036s-4.49341,6.96829-4.95855,11.145a41.70513,41.70513,0,0,0,.89373,12.52579q.43423-2.47467.86866-4.94937,7.69509-1.68183,15.39032-3.36368-2.04373,1.83614-4.08741,3.67227a27.95549,27.95549,0,0,0,20.43665-3.196c6.69983,3.00354,5.48553,9.749-.39588,18.701C844.06289,359.40253,857.56759,337.94748,851.44937,334.19528Z" transform="translate(-223.53652 -171.73987)" fill="#2f2e41"/><path d="M843.21993,368.40988a1.54577,1.54577,0,0,1-.13671.09873,10.22722,10.22722,0,0,1-5.32392,1.443,9.4143,9.4143,0,0,1-6.7821-2.12656c-.99494-.94174-4.95178,1.04807-7.54914,2.14933a11.45958,11.45958,0,0,1-8.52893.09872l4.86066-6.11374,8.01074-1.77615h2l8.97608,1.01669Z" transform="translate(-223.53652 -171.73987)" fill="#e6e6e6"/><path d="M974.30264,727.30075l-271.75.30731a1.19069,1.19069,0,1,1-.01239-2.38134h.01239l271.75-.30732a1.19069,1.19069,0,0,1,0,2.38135Z" transform="translate(-223.53652 -171.73987)" fill="#cacaca"/><polygon points="425.383 155.694 423.383 155.694 423.383 12.651 502.04 12.651 502.04 14.651 425.383 14.651 425.383 155.694" fill="#3f3d56"/><path d="M786.74911,171.73987h-53a13,13,0,1,0,0,26h53a13,13,0,0,0,0-26Z" transform="translate(-223.53652 -171.73987)" fill="#6c63ff"/><circle cx="423.22266" cy="156.83443" r="11.9459" fill="#6c63ff"/><path d="M502.80834,373.46213,555.2145,361.335l15.04248-3.481c1.88166-.43543,1.1-3.33228-.78247-2.89667L517.06832,367.0845l-15.04251,3.481c-1.88162.43543-1.1,3.33228.78247,2.89667Z" transform="translate(-223.53652 -171.73987)" fill="#f2f2f2"/><path d="M556.92459,341.87979l28.05487,12.9054a9.28863,9.28863,0,0,1,2.65484,1.43722c.77436.75849.2107,1.488-.42138,2.14868a63.26483,63.26483,0,0,1-5.97144,4.92875l-11.95239,9.71731c-1.50043,1.21985.61682,3.34839,2.10315,2.14l10.41015-8.46347,5.20508-4.23172c1.47467-1.19892,3.26972-2.42237,3.86231-4.33228,1.245-4.01251-3.6684-5.60794-6.39893-6.864l-12.21747-5.62009L558.45223,339.297c-1.73962-.80023-3.28051,1.77649-1.52764,2.58279Z" transform="translate(-223.53652 -171.73987)" fill="#f2f2f2"/><path d="M676.01345,474.56076c-4.30047-4.23883-10.04327-6.57828-15.8023-8.075A182.41216,182.41216,0,0,0,640.291,462.836q-10.41091-1.49685-20.90466-2.309-10.47949-.808-20.997-.925a153.82891,153.82891,0,0,0-18.75489.621,49.19463,49.19463,0,0,0-16.97741,4.65274,28.07214,28.07214,0,0,0-11.39612,10.43091,22.891,22.891,0,0,0-3.50653,14.053,17.23373,17.23373,0,0,0,2.20276,6.84363,23.74384,23.74384,0,0,0,5.33148,6.09436c4.3623,3.68353,9.57788,6.37625,13.33057,10.75415a21.29034,21.29034,0,0,1,2.58209,3.727,5.83542,5.83542,0,0,0,2.17138,2.46649,5.27475,5.27475,0,0,0,5.83912-.407,19.18957,19.18957,0,0,0,2.91314-3.496l3.1543-4.0593a6.38221,6.38221,0,0,1,.78857-1.01483c.21265-.17572-.13812-.02094-.0686-.06473.03827-.02408.10553-.01071.14734-.02786a3.42694,3.42694,0,0,1,.64313-.11948q3.455-.63528,6.92462-1.18826c8.54083-1.37811,17.137-2.51489,25.769-3.12756a119.86986,119.86986,0,0,1,13.376-.31906c5.76855.23608,11.45752,1.38147,17.20489,1.87561,6.188.532,12.68775.45852,18.5185-1.92749a23.193,23.193,0,0,0,11.52728-9.56058,16.08057,16.08057,0,0,0,2.07825-6.8523C682.49661,483.48718,679.83718,478.32968,676.01345,474.56076Z" transform="translate(-223.53652 -171.73987)" fill="#e6e6e6"/><path d="M665.40013,475.70843c-3.88622-3.83052-9.07583-5.94462-14.28011-7.29718a164.83938,164.83938,0,0,0-18.00132-3.2982q-9.40806-1.35265-18.891-2.08658-9.47-.73013-18.97443-.83588a139.011,139.011,0,0,0-16.94828.56118,44.45562,44.45562,0,0,0-15.342,4.20456,25.368,25.368,0,0,0-10.29837,9.42613,20.68592,20.68592,0,0,0-3.16875,12.69932,15.57368,15.57368,0,0,0,1.99057,6.1844,21.45677,21.45677,0,0,0,4.81792,5.50731c3.94209,3.32871,8.65527,5.76205,12.04647,9.71824a19.2388,19.2388,0,0,1,2.33336,3.368,5.27346,5.27346,0,0,0,1.96223,2.2289,4.76665,4.76665,0,0,0,5.27665-.36778,17.34107,17.34107,0,0,0,2.63253-3.15922l2.85045-3.66827a5.76691,5.76691,0,0,1,.71261-.91708c.19217-.15879-.12481-.01892-.062-.05849.03458-.02176.09536-.00968.13314-.02518a3.097,3.097,0,0,1,.58118-.108q3.1222-.57408,6.2576-1.0738c7.71811-1.24536,15.48626-2.27264,23.28673-2.82629a108.32629,108.32629,0,0,1,12.08751-.28833c5.21288.21334,10.35385,1.2484,15.5476,1.69494,5.59191.48077,11.46557.41436,16.73466-1.74182a20.9588,20.9588,0,0,0,10.41689-8.63964,14.53138,14.53138,0,0,0,1.87806-6.19223C671.25878,483.775,668.85554,479.1143,665.40013,475.70843Z" transform="translate(-223.53652 -171.73987)" fill="#fff"/><path d="M655.09426,479.43051H580.25179a1.62841,1.62841,0,1,1-.00976-3.2568h74.85223a1.6284,1.6284,0,1,1,0,3.2568Z" transform="translate(-223.53652 -171.73987)" fill="#e6e6e6"/><path d="M655.09426,489.42584H580.25179a1.62841,1.62841,0,1,1-.00976-3.2568h74.85223a1.6284,1.6284,0,1,1,0,3.2568Z" transform="translate(-223.53652 -171.73987)" fill="#e6e6e6"/><path d="M588.9736,499.421h-8.72181a1.62841,1.62841,0,0,1,0-3.2568h8.72181a1.62841,1.62841,0,0,1,0,3.2568Z" transform="translate(-223.53652 -171.73987)" fill="#e6e6e6"/><circle cx="351.91452" cy="359.81934" r="6.92128" fill="#e6e6e6"/><polygon points="359.19 376.306 357.19 376.306 357.19 453.349 424.847 453.349 424.847 451.349 359.19 451.349 359.19 376.306" fill="#3f3d56"/><path d="M722.55673,624.7399a13.01247,13.01247,0,0,0-13-13h-53a13,13,0,0,0,0,26h53A13.01247,13.01247,0,0,0,722.55673,624.7399Z" transform="translate(-223.53652 -171.73987)" fill="#6c63ff"/><circle cx="356.79752" cy="370.16559" r="11.94589" fill="#6c63ff"/><path d="M475.87753,370.36237H413.01132a11.02079,11.02079,0,0,1-11.00782-11.00782V317.922a11.02078,11.02078,0,0,1,11.00782-11.00781h62.86621A11.02078,11.02078,0,0,1,486.88534,317.922v41.43261A11.02078,11.02078,0,0,1,475.87753,370.36237Z" transform="translate(-223.53652 -171.73987)" fill="#e6e6e6"/><path d="M468.96919,368.1302H414.25572a9.59156,9.59156,0,0,1-9.58028-9.58027V322.49048a9.59156,9.59156,0,0,1,9.58028-9.58027h54.71347a9.59156,9.59156,0,0,1,9.58027,9.58027V358.55A9.59155,9.59155,0,0,1,468.96919,368.1302Z" transform="translate(-223.53652 -171.73987)" fill="#fff"/><path d="M484.73232,407.69061H404.06664a1.8822,1.8822,0,0,1,0-3.7644h80.66568a1.8822,1.8822,0,1,1,0,3.7644Z" transform="translate(-223.53652 -171.73987)" fill="#e6e6e6"/><path d="M484.73232,396.93518H404.06664a1.8822,1.8822,0,0,1,0-3.7644h80.66568a1.8822,1.8822,0,1,1,0,3.7644Z" transform="translate(-223.53652 -171.73987)" fill="#e6e6e6"/><path d="M484.73232,418.44605H404.06664a1.88221,1.88221,0,0,1,0-3.76441h80.66568a1.88221,1.88221,0,1,1,0,3.76441Z" transform="translate(-223.53652 -171.73987)" fill="#e6e6e6"/><path d="M484.73232,429.20145H404.06664a1.88221,1.88221,0,0,1,0-3.76441h80.66568a1.88221,1.88221,0,1,1,0,3.76441Z" transform="translate(-223.53652 -171.73987)" fill="#e6e6e6"/><path d="M484.73232,439.95688H404.06664a1.8822,1.8822,0,0,1,0-3.7644h80.66568a1.8822,1.8822,0,1,1,0,3.7644Z" transform="translate(-223.53652 -171.73987)" fill="#e6e6e6"/><path d="M484.73232,450.71231H404.06664a1.8822,1.8822,0,0,1,0-3.7644h80.66568a1.8822,1.8822,0,1,1,0,3.7644Z" transform="translate(-223.53652 -171.73987)" fill="#e6e6e6"/><polygon points="216.83 254.306 218.83 254.306 218.83 331.349 74.173 331.349 74.173 329.349 216.83 329.349 216.83 254.306" fill="#3f3d56"/><path d="M236.53652,515.7399h53a13,13,0,0,0,0-26h-53a13,13,0,1,0,0,26Z" transform="translate(-223.53652 -171.73987)" fill="#6c63ff"/><circle cx="219.22267" cy="248.16557" r="11.94591" fill="#6c63ff"/><path d="M504.50427,423.225c17.5386,3.72754,13.07724,4.45507,30.61581,8.18258l15.10266,3.20984c1.88916.40152,2.4065-2.554.51648-2.95572-17.53863-3.72754-13.07721-4.45507-30.61584-8.18258l-15.10269-3.20981c-1.88917-.40152-2.40653,2.554-.51645,2.95569Z" transform="translate(-223.53652 -171.73987)" fill="#f2f2f2"/><path d="M544.90029,414.50269l19.96076,23.56253a9.28849,9.28849,0,0,1,1.79754,2.42541c.38074,1.01486-.43859,1.43741-1.29083,1.76865a63.25733,63.25733,0,0,1-7.49591,1.93967l-14.9411,3.74826c-1.87561.47052-.85767,3.295,1.00031,2.82882l13.01324-3.26458,6.50659-1.6323c1.84345-.46246,3.98749-.81164,5.33246-2.2915,2.82568-3.109-.95142-6.6333-2.89417-8.92661L557.19662,424.4l-9.8194-11.59125c-1.23773-1.46106-3.724.22183-2.47693,1.694Z" transform="translate(-223.53652 -171.73987)" fill="#f2f2f2"/><circle cx="658.07751" cy="362.4538" r="27.78001" fill="#6c63ff"/><path d="M877.8243,548.65189a3.08921,3.08921,0,0,1-2.47186-1.23633l-7.57879-10.10523a3.09006,3.09006,0,1,1,4.94232-3.71044l.00189.0025,4.95831,6.61059,12.7348-19.10193a3.0902,3.0902,0,0,1,5.1424,3.42829l-15.15759,22.73645a3.09138,3.09138,0,0,1-2.48548,1.37512C877.88162,548.65134,877.853,548.65189,877.8243,548.65189Z" transform="translate(-223.53652 -171.73987)" fill="#fff"/><path d="M867.58724,518.05258a7.09761,7.09761,0,0,0,1.79377-10.73446l22.30572-38.978-13.08758.71115L858.94094,506.823a7.13606,7.13606,0,0,0,8.64637,11.22961Z" transform="translate(-223.53652 -171.73987)" fill="#ffb8b8"/><path d="M842.46322,381.42725s23.62439-7.59473,29.70013,10.63263,26.5008,67.59311,26.5008,67.59311l-21.944,44.80889L866.847,493.82926l10.55194-31.13843L847.02,417.12247Z" transform="translate(-223.53652 -171.73987)" fill="#3f3d56"/><path d="M877.47274,499.8858a12.8905,12.8905,0,0,0-2.67084-3.19632l-7.538-7.25491-.41913.935a10.23032,10.23032,0,0,0,4.16815,14.68674,6.66112,6.66112,0,0,0,3.60187.74392,3.94634,3.94634,0,0,0,3.04083-1.8992A4.36362,4.36362,0,0,0,877.47274,499.8858Z" transform="translate(-223.53652 -171.73987)" fill="#e6e6e6"/></svg>