<svg id="be0f7dfa-bf6a-4f37-9639-2adbc7cb48aa" data-name="Layer 1" xmlns="http://www.w3.org/2000/svg" width="751.95679" height="555.86822" viewBox="0 0 751.95679 555.86822"><path d="M757.762,579.76309H352.82643a13.62481,13.62481,0,0,1-13.609-13.609V236.43114a13.62481,13.62481,0,0,1,13.609-13.609H757.762a13.62481,13.62481,0,0,1,13.609,13.609V566.15406A13.62481,13.62481,0,0,1,757.762,579.76309Z" transform="translate(-224.02161 -172.06589)" fill="#e6e6e6"/><path d="M362.008,232.50875a13.12414,13.12414,0,0,0-13.10888,13.10938V556.97506a13.12393,13.12393,0,0,0,13.10888,13.1084h277.1626a122.66,122.66,0,0,0,122.521-122.521V245.61813a13.12414,13.12414,0,0,0-13.10889-13.10938Z" transform="translate(-224.02161 -172.06589)" fill="#fff"/><path d="M683.9216,372.53977H610.49718a5.78244,5.78244,0,0,1-5.776-5.776V330.219a5.78243,5.78243,0,0,1,5.776-5.776H683.9216a5.78243,5.78243,0,0,1,5.776,5.776v36.54481A5.78244,5.78244,0,0,1,683.9216,372.53977Z" transform="translate(-224.02161 -172.06589)" fill="#e6e6e6"/><path d="M671.859,391.683H622.3972a5.48765,5.48765,0,1,1,0-10.97529H671.859a5.48765,5.48765,0,0,1,0,10.97529Z" transform="translate(-224.02161 -172.06589)" fill="#e6e6e6"/><path d="M636.949,332a2.5907,2.5907,0,0,0-2.58164,2.58535v27.98588a2.58087,2.58087,0,0,0,3.85948,2.2424l24.70167-14.0847a2.58009,2.58009,0,0,0-.01235-4.49161l-24.70044-13.90241A2.577,2.577,0,0,0,636.949,332Z" transform="translate(-224.02161 -172.06589)" fill="#fff"/><path d="M938.13589,683.43017a9.16753,9.16753,0,0,0-9.78933-3.129l-.38437.11411-3.44728,13.45881c-.51648-2.00589-1.62155-6.53419-2.3182-10.96642l-.06008-.36638-.34229.15014a46.75007,46.75007,0,0,0-10.08364,6.07779A48.36111,48.36111,0,0,0,893.62748,725.188l-.006.25824-.006.16217.45644-.16217,9.79534-3.50131a29.24085,29.24085,0,0,0,23.57848-8.79239c3.95778-4.174,6.67235-9.5431,9.29684-14.738.76875-1.51345,1.5555-3.075,2.36025-4.57639A9.31908,9.31908,0,0,0,938.13589,683.43017Z" transform="translate(-224.02161 -172.06589)" fill="#f2f2f2"/><path d="M687.99177,340.21193a7.09757,7.09757,0,0,0,9.51665,5.28009l29.275,34.05589,3.70628-12.572L701.46624,335.8185a7.136,7.136,0,0,0-13.47447,4.39343Z" transform="translate(-224.02161 -172.06589)" fill="#ffb8b8"/><polygon points="581.955 545.239 572.267 545.239 567.658 507.87 581.957 507.87 581.955 545.239" fill="#ffb6b6"/><path d="M805.7181,714.14064l-10.344-4.20746-.29621-.12154-5.7112,4.329a12.16117,12.16117,0,0,0-12.15916,12.15917v.39489h31.23711V714.14064Z" transform="translate(-224.02161 -172.06589)" fill="#2f2e41"/><polygon points="651.067 545.239 641.379 545.239 636.77 507.87 651.069 507.87 651.067 545.239" fill="#ffb6b6"/><path d="M874.83011,714.14064l-10.344-4.20746-.29621-.12154-5.7112,4.329a12.16119,12.16119,0,0,0-12.15916,12.15917v.39489h31.23711V714.14064Z" transform="translate(-224.02161 -172.06589)" fill="#2f2e41"/><path d="M852.22341,494.15522S864.375,506.79715,864.375,517.18458s-3.03789,24.65,0,27.77159,6.83526,6.919,2.27842,11.47581-6.83525,6.83525-3.79736,9.87314,1.51894,56.201,1.51894,56.201l15.94893,71.39043H860.23076L834.75554,622.5061l-6.83525-59.23887-22.10544,56.96045,2.4407,74.28156-21.00592-.61271-8.69506-78.98516s12.911-75.134,10.63261-77.05956,0-5.81266,0-5.81266l6.07578-28.77026Z" transform="translate(-224.02161 -172.06589)" fill="#2f2e41"/><path d="M828.43186,404.52229s4.13191-16.28153-14.90376-20.94962-73.44936-10.66538-73.44936-10.66538l-27.49905-29.17993-9.318,13.53205L734.089,395.56757l73.04274,15.00328Z" transform="translate(-224.02161 -172.06589)" fill="#3f3d56"/><path d="M707.79063,356.262a12.88961,12.88961,0,0,0,1.9785-3.66545l3.94362-9.69038-1.02373-.04267a10.23025,10.23025,0,0,0-12.09517,9.3156,6.6609,6.6609,0,0,0,.64429,3.621,3.94645,3.94645,0,0,0,2.89113,2.12016A4.36358,4.36358,0,0,0,707.79063,356.262Z" transform="translate(-224.02161 -172.06589)" fill="#e6e6e6"/><path d="M791.38487,507.149l-2.27842,16.51632s4.55684,4.89372,6.83525,4.282,10.63262-4.17268,10.63262-4.17268,9.87315,5.39611,15.18945,6.00782,33.4168-3.05857,34.17627-4.89372,9.5868-9.01884,9.5868-9.01884l-3.511-20.95522Z" transform="translate(-224.02161 -172.06589)" fill="#e6e6e6"/><path d="M865.38028,449.3691s-1.929,15.92616-.4101,17.39194c1.519,1.45817-1.51894,10.68578-4.55683,16.76156s2.27842,6.83526,2.27842,11.39209,2.27841,21.26524,2.27841,21.26524-23.54365,1.51894-27.341-2.27842-9.87315-.75947-18.22734,7.59473-26.498,1.51894-30.29538-2.27842,2.95436-17.46787,5.23278-20.11842-2.19489.4177-4.47331-7.98207,2.19489-7.59473,5.99225-11.39209,0-10.63262-3.03789-17.46787-.75947-57.71992-.75947-69.87148,16.7084-13.67051,16.7084-13.67051l6.615-8.31624,4.86064-6.11374,9.52377-.37974.25064-.0076,9.21241-.37213,4.4733,5.21,9.87314,11.49842,11.39209,2.27842c9.11368,3.03789,6.83526,22.02471,6.83526,22.02471Z" transform="translate(-224.02161 -172.06589)" fill="#3f3d56"/><circle cx="829.2987" cy="341.08859" r="19.52247" transform="translate(186.39749 961.87681) rotate(-84.50892)" fill="#ffb6b6"/><path d="M851.93446,334.52129c-5.36962-3.29307-4.68149-11.90342-9.8553-14.91012a18.42445,18.42445,0,0,0-17.03237-.71534c-3.64407-1.559-8.00983-.31484-10.92507,2.50036s-4.49338,6.96829-4.95854,11.145a41.70449,41.70449,0,0,0,.89376,12.52578q.43429-2.4747.86868-4.94937,7.69515-1.68183,15.39035-3.36367-2.04368,1.83614-4.0874,3.67226a27.9555,27.9555,0,0,0,20.43665-3.196c6.6998,3.00354,5.48555,9.749-.39587,18.701C844.548,359.72856,858.0527,338.27351,851.93446,334.52129Z" transform="translate(-224.02161 -172.06589)" fill="#2f2e41"/><path d="M843.705,368.7359a1.53894,1.53894,0,0,1-.1367.09873,10.2271,10.2271,0,0,1-5.32391,1.443,9.41422,9.41422,0,0,1-6.78208-2.12656c-.99491-.94174-4.95178,1.04807-7.54916,2.14932a11.45968,11.45968,0,0,1-8.52891.09873l4.86064-6.11374,8.01072-1.77616h2l8.9761,1.01669Z" transform="translate(-224.02161 -172.06589)" fill="#e6e6e6"/><path d="M974.78771,727.62678l-271.75.30733a1.19069,1.19069,0,1,1,0-2.38137l271.75-.30733a1.19069,1.19069,0,0,1,0,2.38137Z" transform="translate(-224.02161 -172.06589)" fill="#cacaca"/><polygon points="425.383 155.694 423.383 155.694 423.383 12.651 502.04 12.651 502.04 14.651 425.383 14.651 425.383 155.694" fill="#3f3d56"/><path d="M787.2342,172.06589h-53a13,13,0,0,0,0,26h53a13,13,0,0,0,0-26Z" transform="translate(-224.02161 -172.06589)" fill="#6c63ff"/><circle cx="423.22267" cy="156.83442" r="11.9459" fill="#6c63ff"/><path d="M503.29342,373.78815,555.69959,361.661l15.04251-3.481c1.88164-.43542,1.1-3.33229-.78248-2.89666l-52.40617,12.12718-15.04251,3.48095c-1.88163.43543-1.1,3.33229.78248,2.89666Z" transform="translate(-224.02161 -172.06589)" fill="#f2f2f2"/><path d="M557.40965,342.20582l28.05486,12.90538a9.28837,9.28837,0,0,1,2.65484,1.43722c.77434.75849.2107,1.488-.42136,2.14869a63.26448,63.26448,0,0,1-5.97144,4.92874l-11.95241,9.71731c-1.50043,1.21985.61683,3.3484,2.10315,2.14l10.41016-8.46346,5.20508-4.23173c1.47468-1.19891,3.26969-2.42237,3.86232-4.33228,1.24506-4.01252-3.6684-5.60793-6.39891-6.864l-12.21744-5.62008L558.93732,339.623c-1.73961-.80023-3.28049,1.77648-1.52767,2.58278Z" transform="translate(-224.02161 -172.06589)" fill="#f2f2f2"/><path d="M676.49856,474.88679c-4.30048-4.23883-10.04329-6.57829-15.8023-8.075a182.41486,182.41486,0,0,0-19.92015-3.64977q-10.41095-1.49682-20.90467-2.309-10.47949-.80793-20.997-.925a153.82879,153.82879,0,0,0-18.75486.621,49.19449,49.19449,0,0,0-16.97744,4.65273,28.07229,28.07229,0,0,0-11.3961,10.4309,22.89123,22.89123,0,0,0-3.50655,14.053,17.2341,17.2341,0,0,0,2.20278,6.84362,23.74381,23.74381,0,0,0,5.33146,6.09436c4.36229,3.68354,9.57786,6.37626,13.33057,10.75412a21.28666,21.28666,0,0,1,2.58211,3.727,5.8353,5.8353,0,0,0,2.17139,2.46652,5.27474,5.27474,0,0,0,5.83913-.407,19.18824,19.18824,0,0,0,2.91314-3.496l3.15432-4.05931a6.38125,6.38125,0,0,1,.78858-1.01484c.21264-.17573-.13813-.02093-.06861-.06472.03829-.02408.10554-.01071.14736-.02786a3.42465,3.42465,0,0,1,.6431-.11949q3.455-.63528,6.92464-1.18826c8.54082-1.37811,17.137-2.51489,25.769-3.12756a119.87432,119.87432,0,0,1,13.376-.31906c5.76857.23607,11.45749,1.38148,17.20489,1.87562,6.188.532,12.68773.45852,18.5185-1.92748A23.193,23.193,0,0,0,680.595,496.1348a16.08043,16.08043,0,0,0,2.07826-6.85229C682.98169,483.8132,680.32225,478.65569,676.49856,474.88679Z" transform="translate(-224.02161 -172.06589)" fill="#e6e6e6"/><path d="M655.57932,479.75652H580.73686a1.62841,1.62841,0,1,1,0-3.25681h74.84246a1.6284,1.6284,0,1,1,0,3.25681Z" transform="translate(-224.02161 -172.06589)" fill="#fff"/><path d="M655.57932,489.75187H580.73686a1.62841,1.62841,0,1,1,0-3.25681h74.84246a1.6284,1.6284,0,1,1,0,3.25681Z" transform="translate(-224.02161 -172.06589)" fill="#fff"/><path d="M589.45865,499.747h-8.72179a1.62841,1.62841,0,0,1,0-3.25682h8.72179a1.62841,1.62841,0,0,1,0,3.25682Z" transform="translate(-224.02161 -172.06589)" fill="#fff"/><circle cx="351.91452" cy="359.81934" r="6.92128" fill="#e6e6e6"/><polygon points="359.19 376.306 357.19 376.306 357.19 453.349 424.847 453.349 424.847 451.349 359.19 451.349 359.19 376.306" fill="#3f3d56"/><path d="M723.04178,625.06589a13.01247,13.01247,0,0,0-13-13h-53a13,13,0,0,0,0,26h53A13.01247,13.01247,0,0,0,723.04178,625.06589Z" transform="translate(-224.02161 -172.06589)" fill="#6c63ff"/><circle cx="356.79751" cy="370.16558" r="11.9459" fill="#6c63ff"/><path d="M476.36261,370.6884H413.4964a11.02079,11.02079,0,0,1-11.00781-11.00781V318.248a11.02078,11.02078,0,0,1,11.00781-11.00781h62.86621A11.02078,11.02078,0,0,1,487.37043,318.248v41.43262A11.02079,11.02079,0,0,1,476.36261,370.6884Z" transform="translate(-224.02161 -172.06589)" fill="#e6e6e6"/><path d="M485.21741,408.01663H404.55172a1.8822,1.8822,0,0,1,0-3.7644h80.66569a1.8822,1.8822,0,0,1,0,3.7644Z" transform="translate(-224.02161 -172.06589)" fill="#e6e6e6"/><path d="M485.21741,397.2612H404.55172a1.8822,1.8822,0,0,1,0-3.7644h80.66569a1.8822,1.8822,0,1,1,0,3.7644Z" transform="translate(-224.02161 -172.06589)" fill="#e6e6e6"/><path d="M485.21741,418.77205H404.55172a1.8822,1.8822,0,0,1,0-3.7644h80.66569a1.8822,1.8822,0,1,1,0,3.7644Z" transform="translate(-224.02161 -172.06589)" fill="#e6e6e6"/><path d="M485.21741,429.52748H404.55172a1.8822,1.8822,0,0,1,0-3.7644h80.66569a1.8822,1.8822,0,0,1,0,3.7644Z" transform="translate(-224.02161 -172.06589)" fill="#e6e6e6"/><path d="M485.21741,440.2829H404.55172a1.8822,1.8822,0,0,1,0-3.7644h80.66569a1.8822,1.8822,0,1,1,0,3.7644Z" transform="translate(-224.02161 -172.06589)" fill="#e6e6e6"/><path d="M485.21741,451.03833H404.55172a1.8822,1.8822,0,0,1,0-3.7644h80.66569a1.8822,1.8822,0,1,1,0,3.7644Z" transform="translate(-224.02161 -172.06589)" fill="#e6e6e6"/><polygon points="216.83 254.306 218.83 254.306 218.83 331.349 74.173 331.349 74.173 329.349 216.83 329.349 216.83 254.306" fill="#3f3d56"/><path d="M237.02161,516.06589h53a13,13,0,1,0,0-26h-53a13,13,0,0,0,0,26Z" transform="translate(-224.02161 -172.06589)" fill="#6c63ff"/><circle cx="219.22267" cy="248.16558" r="11.9459" fill="#6c63ff"/><path d="M504.98934,423.551c17.53861,3.72753,13.07721,4.45507,30.61582,8.1826l15.10269,3.20983c1.88916.40151,2.40652-2.554.51646-2.95571-17.53861-3.72753-13.07721-4.45507-30.61582-8.1826l-15.10269-3.20982c-1.88916-.40151-2.40652,2.554-.51646,2.9557Z" transform="translate(-224.02161 -172.06589)" fill="#f2f2f2"/><path d="M545.38538,414.8287l19.96076,23.56252a9.28875,9.28875,0,0,1,1.79752,2.42543c.38074,1.01486-.43861,1.43742-1.29083,1.76866a63.26315,63.26315,0,0,1-7.49589,1.93966l-14.9411,3.74825c-1.87562.47053-.85768,3.29494,1.00029,2.82883l13.01323-3.2646,6.50661-1.6323c1.84343-.46246,3.98748-.81164,5.33247-2.29149,2.8257-3.109-.95144-6.6333-2.89417-8.92659L557.68168,424.726l-9.8194-11.59124c-1.23772-1.46105-3.724.22182-2.4769,1.694Z" transform="translate(-224.02161 -172.06589)" fill="#f2f2f2"/><circle cx="658.07754" cy="362.45379" r="27.78" fill="#6c63ff"/><path d="M878.30938,548.97788a3.08923,3.08923,0,0,1-2.47186-1.23631l-7.57881-10.10524a3.09007,3.09007,0,1,1,4.94423-3.70793l4.95832,6.61059,12.73479-19.10194a3.0902,3.0902,0,1,1,5.14241,3.42827l-15.15762,22.73643a3.09148,3.09148,0,0,1-2.48545,1.37513C878.36672,548.97738,878.33805,548.97788,878.30938,548.97788Z" transform="translate(-224.02161 -172.06589)" fill="#fff"/><path d="M868.07235,518.37863a7.09759,7.09759,0,0,0,1.79375-10.73447l22.30574-38.978-13.08759.71116L859.426,507.149a7.13605,7.13605,0,0,0,8.64637,11.2296Z" transform="translate(-224.02161 -172.06589)" fill="#ffb8b8"/><path d="M842.94828,381.75327s23.62438-7.59473,29.70016,10.63262S899.14925,459.979,899.14925,459.979l-21.944,44.80889-9.87315-10.63262L877.884,463.01684l-30.37891-45.56836Z" transform="translate(-224.02161 -172.06589)" fill="#3f3d56"/><path d="M877.95784,500.21181a12.88968,12.88968,0,0,0-2.67085-3.19633l-7.538-7.2549-.41913.935a10.23026,10.23026,0,0,0,4.16815,14.68674,6.66092,6.66092,0,0,0,3.60188.74394,3.94644,3.94644,0,0,0,3.04086-1.89919A4.36358,4.36358,0,0,0,877.95784,500.21181Z" transform="translate(-224.02161 -172.06589)" fill="#e6e6e6"/></svg>