<?xml version="1.0" encoding="UTF-8"?><svg id="uuid-34ce895e-54ba-43d7-82e9-dc6bd4f8ed31" xmlns="http://www.w3.org/2000/svg" width="524.67004" height="531.39695" viewBox="0 0 524.67004 531.39695"><path d="M0,523.44459c0,.66003,.53003,1.19,1.19006,1.19H523.48004c.65997,0,1.19-.52997,1.19-1.19,0-.65997-.53003-1.19-1.19-1.19H1.19006c-.66003,0-1.19006,.53003-1.19006,1.19Z" fill="#3f3d56"/><g><path d="M356.03771,238.30865H150.36885c-23.32296,0-42.22995,18.90699-42.22995,42.22995v199.43289c0,23.32291,18.90695,42.22986,42.22986,42.22986h205.66894c23.32296,0,42.22995-18.90699,42.22995-42.22995v-199.43281c0-23.32296-18.90699-42.22995-42.22995-42.22995Z" fill="#fff"/><path d="M356.03782,523.20091H150.36888c-23.83691,0-43.22998-19.39258-43.22998-43.22949v-199.43262c0-23.83691,19.39307-43.22998,43.22998-43.22998h205.66895c23.83691,0,43.22998,19.39307,43.22998,43.22998v199.43262c0,23.83691-19.39307,43.22949-43.22998,43.22949ZM150.36888,239.30882c-22.73438,0-41.22998,18.49561-41.22998,41.22998v199.43262c0,22.73438,18.49561,41.22949,41.22998,41.22949h205.66895c22.73438,0,41.22998-18.49512,41.22998-41.22949v-199.43262c0-22.73438-18.49561-41.22998-41.22998-41.22998H150.36888Z" fill="#3f3d56"/><path d="M370.93558,324.77006h-82.66786c-3.50634,0-6.35907-2.85273-6.35907-6.35907s2.85273-6.35907,6.35907-6.35907h82.66786c3.50634,0,6.35907,2.85273,6.35907,6.35907s-2.85273,6.35907-6.35907,6.35907Z" fill="#6c63ff"/><path d="M293.38221,374.77736h-80.3571c-2.02587,0-3.67427-1.64841-3.67427-3.67428s1.64841-3.67351,3.67427-3.67351h80.3571c2.02587,0,3.67351,1.64765,3.67351,3.67351,0,2.02587-1.64764,3.67427-3.67351,3.67427Z" fill="#6c63ff"/><rect x="133.61763" y="251.96666" width="46.49807" height="5.96129" rx=".31021" ry=".31021" fill="#6c63ff"/><circle cx="334.33631" cy="253.15892" r="4.76903" fill="#3f3d56"/><circle cx="347.45115" cy="253.15892" r="4.76903" fill="#3f3d56"/><circle cx="360.56599" cy="253.15892" r="4.76903" fill="#3f3d56"/><path d="M149.86826,394.44459c0,.66003,.53003,1.19,1.19006,1.19h204.28998c.65997,0,1.19-.52997,1.19-1.19,0-.65997-.53003-1.19-1.19-1.19H151.05832c-.66003,0-1.19006,.53003-1.19006,1.19Z" fill="#3f3d56"/></g><g><path id="uuid-0567e06e-d151-4e0b-ad46-5d491afd4b2a" d="M212.17296,100.91704c4.34915-3.59367,9.72872-4.26258,12.0153-1.49438,2.28658,2.7682,.6142,7.92447-3.73698,11.51883-1.71842,1.45964-3.76141,2.48653-5.95805,2.99474l-18.6198,14.99379-6.8499-8.8877,19.08307-13.83763c.91372-2.06202,2.30808-3.87516,4.06637-5.28765Z" fill="#a0616a"/><path d="M104.55261,134.74705c-.00944-.66307-.00322-6.44713,4.27885-10.10294,4.91893-4.1995,11.85979-2.49972,14.29424-1.90355,5.62362,1.37718,6.08483,3.78959,11.36601,6.2683,9.8805,4.63743-2.4994,2.26379,3.3798,.77675,2.03505-.51473,31.31216-2.54515,38.59979-7.03056,14.17354-8.72353,23.83086-14.01349,23.83086-14.01349l6.31321,12.62642s-9.1289,12.69357-21.97706,22.09716c-13.17929,9.64592-19.76894,14.46893-29.78342,16.33239-.8624,.16048-22.07229,3.78187-39.15515-8.98085-3.89654-2.91112-11.03588-8.24498-11.14714-16.06965Z" fill="#e6e6e6"/><circle cx="124.1365" cy="80.64255" r="21.99265" fill="#a0616a"/><g><polygon points="296.37472 228.39777 273.72531 205.21346 262.03351 217.40936 278.90815 239.63901 295.64613 241.55336 296.37472 228.39777" fill="#a0616a"/><path d="M167.04568,184.92191c1.32477,.11007,5.53464,.95349,9.55849-1.26037,2.74614-1.51087,4.15455-3.75738,4.63022-4.4718,5.90139-8.86325,28.55224-22.68449,48.88084-23.53504,4.60357-.1926,7.63375,.34082,10.38795,1.77648,3.90537,2.03574,5.46449,4.95183,10.4203,11.78292,2.71086,3.73663,5.7104,7.25691,8.45393,10.96962,16.06194,21.7362,22.15102,23.44259,21.52868,30.41109-.6905,7.73164-9.02898,15.06697-14.5711,14.22018-2.26965-.34678-3.14862-1.92498-6.18099-5.1199-8.89113-9.36767-12.56963-7.63699-18.89978-14.81212-7.39056-8.37709-6.42307-15.32303-10.27892-15.59132-3.57571-.24879-5.09524,5.67668-12.72906,13.54826-3.49306,3.60187-5.98049,5.25419-13.55853,10.51141-29.51063,20.4729-29.98163,21.91164-35.9372,23.54443-2.60568,.71437-21.09954,5.78468-27.68759-2.28408-10.30952-12.6267,14.04589-50.68156,25.98276-49.68978Z" fill="#2f2e41"/><path d="M289.45026,233.63687c1.66577-.74799,3.61352-1.62258,4.24018-3.63382,.42403-1.3609,.17985-3.03892-.69661-4.19845-1.01127-1.33788-2.50808-1.51421-2.44753-1.75092,.09221-.36043,3.6317-.21954,7.51717,1.15395,.73321,.25919,4.0549,1.47292,8.28021,4.7716,3.38533,2.64291,2.92976,3.17274,5.0526,4.69665,6.51637,4.67782,12.62816,.99108,16.15421,5.37796,1.36082,1.69307,1.94121,4.09684,1.36853,6.04048-1.15007,3.90324-6.74285,5.24648-9.7995,5.93997-7.3615,1.67019-12.93347,.30673-18.75163-.67366-19.78659-3.33419-30.90389-.29752-32.39188-4.8815-.28162-.86758,.1759-.7937,1.70153-7.16035,1.50577-6.2838,1.45637-8.0095,2.7388-8.5127,1.9304-.75745,3.22657,2.68803,8.08945,3.86718,4.30931,1.04492,7.86513-.55173,8.94448-1.03639Z" fill="#2f2e41"/></g><g><polygon points="256.10777 304.24254 250.38534 272.34015 233.86249 275.86629 235.34266 303.73598 248.11754 314.71902 256.10777 304.24254" fill="#a0616a"/><path d="M173.50761,195.64528c1.03437,.83499,4.04422,3.89687,8.61693,4.32456,3.1207,.29189,5.5476-.77612,6.34237-1.10016,9.86016-4.02006,36.36378-2.73717,53.66232,7.97432,3.91739,2.42571,6.12517,4.56865,7.59796,7.30318,2.08836,3.87748,1.74096,7.16592,2.00574,15.60118,.14485,4.61413,.65006,9.21134,.83536,13.82403,1.08478,27.00503,5.165,31.83623,.73697,37.25285-4.91296,6.00981-15.93171,7.39707-20.04204,3.58429-1.6833-1.56144-1.52438-3.36089-2.23945-7.70732-2.09668-12.74399-6.1123-13.37756-7.3211-22.86924-1.41128-11.08171,3.28968-16.28586,.2498-18.67306-2.81902-2.21375-7.40373,1.83601-18.14054,4.06268-4.91292,1.01889-7.89899,.98932-17.12157,1.08406-35.91491,.369-37.11255,1.29501-42.95736-.69821-2.55722-.87208-20.70715-7.06164-21.62754-17.43758-1.44026-16.23716,40.08188-34.04923,49.40214-26.52558Z" fill="#2f2e41"/><path d="M247.43616,304.6893c1.79837,.31647,3.90115,.68652,5.54907-.62579,1.11506-.88797,1.85529-2.41356,1.78117-3.86518-.08551-1.6749-1.22503-2.66132-1.042-2.82318,.2787-.24646,3.12834,1.85768,5.57211,5.17601,.46116,.62619,2.52813,3.49574,4.17204,8.59791,1.3171,4.08786,.64262,4.27045,1.54344,6.72347,2.76521,7.52985,9.89266,7.91126,10.3469,13.52119,.17529,2.16508-.69427,4.48-2.25957,5.76669-3.14344,2.58393-8.52547,.55484-11.44413-.58775-7.02916-2.75176-10.87405-7.00882-15.13778-11.08716-14.50016-13.86979-25.4044-17.59987-24.06156-22.22846,.25415-.87602,.59124-.55798,5.42874-4.96936,4.77454-4.35399,5.70271-5.80966,7.04642-5.50591,2.02264,.45724,1.1604,4.03605,4.52206,7.74243,2.97899,3.28446,6.81783,3.96004,7.98309,4.16509Z" fill="#2f2e41"/></g><path d="M127.13487,84.84692c.85618-3.06269-.2192-4.1788,.87688-5.55356,.00002-.00004,.44108-.55322,4.38439-2.04605h0c-1.16344-6.75042-.29231-7.89186-.29229-7.8919,1.00399-1.31553,3.0152-1.63355,4.38439-1.46146,2.89579,.36397,3.40837,2.98166,5.26127,2.92293,2.55961-.08114,5.62956-5.20482,4.67668-9.64566-.77729-3.62247-4.12881-6.31266-4.96897-5.84585-.83301,.46284-3.83172-1.5781-4.96897-1.16917-.77665,.27927-4.43236-.09227-5.26127,.29229-.90523,.41999-3.49763,3.03482-3.74548,2.70535-1.72237-2.28946-1.6857-3.0888-2.68496-3.58223-1.77067-.87434-3.69571,.74172-7.01502,2.33834-6.82959,3.28508-8.8294,1.32549-11.984,4.0921-1.59355,1.39756-2.44808,4.06851-4.0921,9.35336-2.29915,7.39081-3.44871,11.08621-2.33834,14.61463,1.13238,3.59835,2.79995,2.81517,5.26127,7.8919,2.73983,5.65125,1.79552,8.93605,4.38439,10.23024,2.00086,1.00026,5.21638,.36365,6.43044-1.46146,2.07861-3.12477-3.29393-7.35177-1.46146-12.27629,1.12484-3.02287,4.59478-5.31493,6.72273-4.67668,2.40606,.72167,2.58325,5.03573,4.0921,4.96897,1.29207-.05716,2.18914-3.2661,2.33834-3.7998Z" fill="#2f2e41"/><path d="M110.47419,105.89199c4.50049-5.04615,22.83197,.17676,24.55258,8.18419,.7077,3.29357-1.9049,4.68425-1.16917,8.47649,1.0761,5.54667,7.16909,5.16857,11.6917,10.81483,6.42075,8.016-.19392,15.85188,7.01502,29.22926,1.54044,2.85856,2.83881,5.26787,5.55356,7.59961,6.22959,5.35068,12.02717,3.51565,15.19922,8.47649,2.37209,3.70978,1.39747,8.28224,1.16917,9.35336-.93616,4.39206-3.47342,5.46222-5.26127,9.06107-2.97456,5.98761,.39336,10.38356,.58459,17.53756,.23927,8.95093-4.51735,21.35848-14.03005,25.42946-10.68707,4.57357-23.57658-3.00132-29.81385-10.52253-3.72182-4.488-4.8022-8.62788-6.43044-13.73775-7.27695-22.83729-11.38807-20.77183-16.95297-38.87492-6.3617-20.69512-7.61233-44.94052,0-52.61267,1.00898-1.01692,3.78571-3.36736,5.55356-7.59961,2.37887-5.69507,.32374-8.55598,2.33834-10.81483Z" fill="#e6e6e6"/><g><path id="uuid-2529b43a-3ce8-4a07-9470-f6f5ef15f984" d="M176.97332,223.35873c3.48927,4.43334,4.03014,9.82729,1.20837,12.04743-2.82177,2.22013-7.93683,.42567-11.42675-4.00971-1.41838-1.75263-2.39643-3.81945-2.85228-6.02755l-14.54698-18.97093,7.51668-5.73344,14.91146,18.50331c2.03972,.96247,3.81921,2.39954,5.18951,4.1909Z" fill="#a0616a"/><path d="M123.69743,125.12312c.64719-.14454,6.31083-1.31867,10.76347,2.12736,5.11484,3.95855,4.86707,11.10022,4.78019,13.60509-.20073,5.78631-2.46827,6.73006-3.81723,12.40591-2.52378,10.61887,2.28253,20.4873,4.93792,25.93939,.91914,1.88721,3.87205,7.66186,9.7501,13.88094,11.43206,12.09534,21.6324,18.45987,21.6324,18.45987l-10.95803,9.74043s-17.45493-5.3202-29.2823-15.97929c-12.13217-10.9338-30.78935-49.61903-34.65703-59.04258-.33308-.81151,4.38498,12.38209,13.39349-6.94555,2.0548-4.40857,5.81969-12.48606,13.45703-14.19157Z" fill="#e6e6e6"/></g></g><g><path id="uuid-096523cb-f666-4360-b776-9933380b3596" d="M273.94509,421.68621c-6.96509,1.06757-12.06003,5.52672-11.37989,9.95923,.68013,4.43252,6.87712,7.15916,13.84455,6.09028,2.78906-.3888,5.44445-1.43986,7.74402-3.06528l29.45424-4.89601-1.96582-11.64267-29.38781,4.1585c-2.68178-.86207-5.53104-1.0692-8.30928-.60405Z" fill="#ffb6b6"/><polygon points="400.86991 385.39481 389.44897 409.62983 332.03436 428.95758 284.39166 431.49935 283.19855 420.05628 334.83202 409.26022 387.81459 384.22288 400.86991 385.39481" fill="#e6e6e6"/><polygon points="294.97583 477.41564 284.72216 503.35139 271.4527 494.30403 279.29374 467.16197 294.97583 477.41564" fill="#ffb6b6"/><polygon points="252.15168 467.76512 225.00961 493.70088 235.86644 505.16086 263.61166 483.44721 252.15168 467.76512" fill="#ffb6b6"/><polygon points="405.95673 383.32313 405.65515 381.21208 398.71885 367.64105 375.79888 373.67262 380.02098 392.37049 405.95673 383.32313" fill="#ffb6b6"/><path d="M396.30622,473.79669l.70487,9.05923s2.91407,37.98702-20.60906,41.00281c-23.52313,3.01579-33.7768,6.03157-47.64941-17.49156l-21.71365-38.60205-12.68292,15.0908-16.87178-13.28133s12.06314-47.04625,21.71365-48.85572c1.20631-.22618,2.41263-.33928,3.60009-.36401,7.98939-.16645,15.5206,3.74138,20.30083,10.14508l27.36743,36.66203,9.95209-4.52368,35.88785,11.15841Z" fill="#2f2e41"/><path d="M266.02429,502.14508l5.42841-10.25367,15.68208,10.85683s3.61894,13.26946-1.80947,15.07893-20.50734-.60316-20.50734-.60316c0,0-27.74523,6.03157-28.34838,.60316s12.6663-6.63473,12.6663-6.63473l16.8884-9.04736Z" fill="#2f2e41"/><path d="M325.13368,494.90719l-41.91942-26.41306-21.41208,19.17517-14.47577-16.8884s26.53891-39.20521,34.37995-41.01468,20.50734-3.01579,20.50734-3.01579l38.60205,35.58627-15.68208,32.57048Z" fill="#2f2e41"/><path d="M224.40645,491.28825l13.87261,15.07893-1.82943,1.56488s-3.59899,15.67496-12.04319,10.3724-9.04736-6.50887-9.04736-6.50887c0,0-24.12628,5.42841-26.53891-4.2221s4.2221-7.84104,4.2221-7.84104l6.02445,3.61894,25.33972-12.06314Z" fill="#2f2e41"/><circle cx="383.03676" cy="361.00632" r="19.30103" fill="#ffb6b6"/><path d="M378.51308,388.44997l27.74523-8.4442s10.85683,25.3326,9.04736,36.79258c-1.80947,11.45998-18.29458,66.05757-18.29458,66.05757l-36.59272-20.21764s-.60316-12.06314-2.41263-17.49156-7.53946-22.01523,5.12684-35.88785c12.6663-13.87261,15.38051-20.80892,15.38051-20.80892Z" fill="#e6e6e6"/><g><path id="uuid-01cdb452-6683-4c86-bf26-0de55beb1b45" d="M317.44769,515.10183c-4.51538,5.40957-5.38427,12.12429-1.94111,14.99735,3.44316,2.87305,9.89353,.81637,14.40979-4.59574,1.83372-2.13717,3.12896-4.6824,3.77735-7.42276l18.84239-23.1622-9.17843-7.42782-19.28065,22.56531c-2.58106,1.12838-4.85427,2.85861-6.62935,5.04587Z" fill="#ffb6b6"/><polygon points="399.79491 400.61869 406.3529 426.59497 374.25587 477.97376 341.48966 510.90476 330.86947 502.09407 363.91479 460.97744 388.96295 407.99998 399.79491 400.61869" fill="#e6e6e6"/></g><path d="M365.24363,357.68896c4.94998-.01185,5.23102,.02113,6.03157,0,6.13951-.16191,7.74496-2.57733,10.85683-2.41263,5.55417,.29399-1.77649,28.14083-4.82526,41.01468-2.99002,12.62588,7.11493,23.93971,7.84104,24.72944,10.25669,11.1548,28.27277,13.1945,31.36417,8.4442,2.50223-3.84491-6.36569-9.69108-4.2221-18.09471,2.09544-8.21485,11.77113-7.34008,14.47577-15.07893,2.83245-8.10456-6.68612-12.19214-12.6663-31.96733-3.43443-11.35698-2.82686-13.47312-6.03157-20.50734-8.56613-18.80208-50.55358-10.79666-45.83994,6.63473,.9118,3.37188-1.51474,7.24871,3.01579,7.23788Z" fill="#2f2e41"/></g><g><path d="M426.87641,128.56088H224.02585c-5.7366,0-10.4035-4.66732-10.4035-10.4035V10.4035c0-5.73617,4.6669-10.4035,10.4035-10.4035h202.85056c5.7366,0,10.4035,4.66732,10.4035,10.4035V118.15739c0,5.73617-4.6669,10.4035-10.4035,10.4035Z" fill="#fff"/><path d="M426.87641,128.56088H224.02585c-5.7366,0-10.4035-4.66732-10.4035-10.4035V10.4035c0-5.73617,4.6669-10.4035,10.4035-10.4035h202.85056c5.7366,0,10.4035,4.66732,10.4035,10.4035V118.15739c0,5.73617-4.6669,10.4035-10.4035,10.4035ZM224.02585,1.73731c-4.77845,0-8.66619,3.88774-8.66619,8.66619V118.15739c0,4.77845,3.88774,8.66619,8.66619,8.66619h202.85056c4.77845,0,8.66619-3.88774,8.66619-8.66619V10.4035c0-4.77845-3.88774-8.66619-8.66619-8.66619H224.02585Z" fill="#3f3d56"/><circle cx="411.22027" cy="10.42386" r="2.60596" fill="#3f3d56"/><circle cx="418.1695" cy="10.42386" r="2.60596" fill="#3f3d56"/><circle cx="425.11874" cy="10.42386" r="2.60596" fill="#3f3d56"/><path d="M228.38948,52.5536c-.71851,0-1.30298,.58448-1.30298,1.30298,0,.35035,.1353,.67439,.38088,.91361,.2477,.25364,.57218,.38937,.9221,.38937h194.99195c.71851,0,1.30298-.58448,1.30298-1.30298,0-.35035-.1353-.67439-.38088-.91361-.2477-.25364-.57218-.38937-.9221-.38937H228.38948Z" fill="#e6e6e6"/><path d="M399.0591,52.11928v3.47462H228.38948c-.47775,0-.91208-.19113-1.22478-.51253-.32145-.3127-.51253-.74703-.51253-1.22478,0-.95555,.78181-1.73731,1.73731-1.73731h170.66962Z" fill="#6c63ff"/><path d="M421.20979,45.60437h-17.37309c-1.91588,0-3.47462-1.55832-3.47462-3.47462s1.55874-3.47462,3.47462-3.47462h17.37309c1.91588,0,3.47462,1.55832,3.47462,3.47462s-1.55874,3.47462-3.47462,3.47462Z" fill="#e6e6e6"/><path d="M307.41604,27.36262h-77.72358c-1.91588,0-3.47462-1.55832-3.47462-3.47462s1.55874-3.47462,3.47462-3.47462h77.72358c1.91588,0,3.47462,1.55832,3.47462,3.47462s-1.55874,3.47462-3.47462,3.47462Z" fill="#e6e6e6"/><path d="M228.38948,91.64306c-.71851,0-1.30298,.58448-1.30298,1.30298,0,.35035,.1353,.67439,.38088,.91361,.2477,.25364,.57218,.38937,.9221,.38937h194.99195c.71851,0,1.30298-.58448,1.30298-1.30298,0-.35035-.1353-.67439-.38088-.91361-.2477-.25364-.57218-.38937-.9221-.38937H228.38948Z" fill="#e6e6e6"/><path d="M332.1727,91.20873v3.47462h-103.78322c-.47775,0-.91208-.19113-1.22478-.51253-.32145-.3127-.51253-.74703-.51253-1.22478,0-.95555,.78181-1.73731,1.73731-1.73731h103.78322Z" fill="#6c63ff"/><path d="M421.20979,84.69383h-17.37309c-1.91588,0-3.47462-1.55832-3.47462-3.47462s1.55874-3.47462,3.47462-3.47462h17.37309c1.91588,0,3.47462,1.55832,3.47462,3.47462s-1.55874,3.47462-3.47462,3.47462Z" fill="#e6e6e6"/></g></svg>