<svg id="e3549c94-1e73-4cd7-87bc-718044b892f5" data-name="Layer 1" xmlns="http://www.w3.org/2000/svg" width="648" height="648" viewBox="0 0 648 648"><path d="M924,450a325.02353,325.02353,0,0,1-6.16992,63.21q-1.89,9.61506-4.36011,19.02a319.21372,319.21372,0,0,1-11.84985,36.33q-.9452,2.43-1.9502,4.84-2.47485,6.015-5.18994,11.9-1.43994,3.15-2.97,6.27-5.71509,11.775-12.36987,23.01-7.54542,12.78-16.22022,24.79A324.21864,324.21864,0,0,1,307.03,588.53q-2.115-4.43994-4.08008-8.96c-.16992-.37-.32-.73-.48-1.1q-3.015-6.945-5.68994-14.06-2.40015-6.36-4.54-12.86-3.15-9.54-5.71-19.33-2.07-7.89-3.74-15.94a323.41674,323.41674,0,0,1-6.72-59.96Q275.995,453.17,276,450q0-14.205,1.2-28.1.42-4.83.97-9.62A321.81772,321.81772,0,0,1,306.51,312.56q5.595-11.925,12.11-23.3a325.09984,325.09984,0,0,1,59.59-75.44q4.905-4.62,10-9.01A322.67562,322.67562,0,0,1,600,126C778.93994,126,924,271.06,924,450Z" transform="translate(-276 -126)" fill="#f2f2f2"/><rect x="477.38951" y="233.04743" width="12.11047" height="85.98428" fill="#3f3d56"/><path d="M765.53,357.96l-.43994,1.09L760.97,369.18l-7.58-3.08-10.9-4.42c-67.65076-21.71457-153.15124-32.826-185.72-75.38l-2.12-.86c-13.62872,11.30832-23.09283,11.96948-23.83-9.68L528.69995,274.9C473.115,286.32867,425.0452,253.69379,378.21,213.82q4.905-4.62,10-9.01c65.84491,1.846,121.995,13.27041,143.99,58.44l2.13013.87,25.58984,10.38,2.14014.87c56.843-11.98691,120.70392,31.22052,184.62988,74.94Z" transform="translate(-276 -126)" fill="#3f3d56"/><path d="M862.91992,639.37a323.9294,323.9294,0,0,1-34.32983,40.23C684.54,682.41,510.95,682.06,370.6,678.8a324.34312,324.34312,0,0,1-33.27991-39.1c29.1499-.81,60.10986-1.45,92.22-1.95q19.06494-.315,38.6499-.54,19.42511-.20992,39.23-.38h.01C627.28,635.86,755.48,636.75,862.91992,639.37Z" transform="translate(-276 -126)" fill="#d0cde1"/><path d="M913.47,532.23a319.21372,319.21372,0,0,1-11.84985,36.33q-.9452,2.43-1.9502,4.84h-15.49V532.23Z" transform="translate(-276 -126)" fill="#3f3d56"/><path d="M901.62012,568.56q-.9452,2.43-1.9502,4.84-2.47485,6.015-5.18994,11.9-1.43994,3.15-2.97,6.27-5.71509,11.775-12.36987,23.01c-154.77961,18.03448-298.02216,22.35608-418.82007,0V568.56Z" transform="translate(-276 -126)" fill="#3f3d56"/><path d="M894.48,513.84V585.3q-1.43994,3.15-2.97,6.27c-43.96039-21.4632-84.14825-18.90271-121.77,0V434.74c30.45642-18.208,61.43658-21.20495,93.25,0l29.23,73.41Z" transform="translate(-276 -126)" fill="#d0cde1"/><path d="M789.11542,444.42618l53.286,0,0,53.286c-17.56922,9.38489-35.33527,9.18454-53.286,0Q775.23089,471.06919,789.11542,444.42618Z" transform="translate(-276 -126)" fill="#fff"/><path d="M882.3656,498.318c-7.0033,7.884-19.84515,5.06235-33.909,0l0-53.286h14.533Z" transform="translate(-276 -126)" fill="#fff"/><rect x="515.53746" y="401.98838" width="12.11047" height="23.00989" fill="#3f3d56"/><path d="M858.75053,478.94105h.60553A11.50492,11.50492,0,0,1,870.861,490.446v0h0a11.50495,11.50495,0,0,1-11.505,11.505h-.60553V478.94105Z" transform="translate(-276 -126)" fill="#3f3d56"/><path d="M408.24132,568.55845h.60553a11.50492,11.50492,0,0,1,11.50494,11.50491v0h0a11.50492,11.50492,0,0,1-11.50491,11.50494h-.60556V568.55845Z" transform="translate(-276 -126)" fill="#3f3d56"/><path d="M917.83008,513.21q-1.89,9.61506-4.36011,19.02a319.21372,319.21372,0,0,1-11.84985,36.33q-.9452,2.43-1.9502,4.84-2.47485,6.015-5.18994,11.9-1.43994,3.15-2.97,6.27H886L885.3501,573.4l-.17017-4.84-1-28.19-1.21-34.04,9.25,1.82Z" transform="translate(-276 -126)" fill="#d0cde1"/><circle cx="192.18812" cy="486.76164" r="46.01974" fill="#3f3d56"/><circle cx="192.18812" cy="486.76164" r="24.22092" fill="#d0cde1"/><path d="M773.37183,563.1087h-.00006V412.939H747.93982c-5.04586,9.51031-7.60763,23.97248-8.52,41.72261C736.3017,515.32543,686.63392,563.1087,625.89,563.1087H407.6358v10.89942H745.77631c.71679,7.45941,1.44592,14.94348,2.16351,22.40442l25.43195-.00006V574.00812h.00006Z" transform="translate(-276 -126)" fill="#3f3d56"/><path d="M613.63,505.11l-26.73,7.27-8.77,2.39c-52.69818,26.79565-109.31793,43.2923-170.99,46.52-23.68063,17.90576-58.38729,25.76819-100.11,27.24q-2.115-4.43994-4.08008-8.96c-.16992-.37-.32-.73-.48-1.1l3.7-1L448,538.87a.01878.01878,0,0,0,.03,0l16.21-4.41h.02L610.77,494.6Z" transform="translate(-276 -126)" fill="#3f3d56"/><path d="M576.71417,512.83661l6.8311-5.02,41.95916,57.09676-6.83109,5.02C587.16138,566.04431,573.32184,546.88513,576.71417,512.83661Z" transform="translate(-276 -126)" fill="#3f3d56"/><path d="M646.63379,319.78165l7.74572,3.445L579.58482,508.96827l-7.74571-3.445C582.22388,437.90949,605.13141,375.20258,646.63379,319.78165Z" transform="translate(-276 -126)" fill="#3f3d56"/><rect x="577.90636" y="374.73985" width="12.11047" height="4.84418" fill="#3f3d56"/><path d="M757.24679,429.62517a1.00666,1.00666,0,0,0-.0052-.25491,1.20088,1.20088,0,0,0-1.332-1.07158l-7.807.87757-274.19075,9.91254-2.42507.2667a1.211,1.211,0,0,0-.07315,2.3946l279.97237,34.89832a1.21259,1.21259,0,0,0,1.32352-1.09382Zm-277.207,11.21112,267.61864-9.17949,7.02818-.78339-4.26193,43.1443Z" transform="translate(-276 -126)" fill="#3f3d56"/><path d="M559.91992,274.5,554.65,285.44,483.23,433.5l47.59009-157.74,3.51-11.64-2.13013-.87-3.5,11.65L479.6,438.74l-.5199,2.38a1.18083,1.18083,0,0,0,.59985,1.31,1.19417,1.19417,0,0,0,1.64014-.47L556.77,286.3l5.29-10.93Z" transform="translate(-276 -126)" fill="#3f3d56"/><path d="M326.78,442.13,323.27,409l-.96-9.13L317.35,352.99l-3.00989-28.49a1.213,1.213,0,0,0-2.41016-.01l-3.27,28.5-6,52.4-1.10986,9.69-3.21,28L293.87,482.11a.5277.5277,0,0,0-.01.13,1.2141,1.2141,0,0,0,1.20007,1.22l14.55994.14,20.21008.19h.01c.03991,0,.07983-.01.11987-.01a1.21136,1.21136,0,0,0,1.08008-1.33Zm-11.98,39.09-5.79-.05-12.58008-.12,3.64014-31.78v-.01l4-34.88,1.10986-9.7L311.11,352.99l1.9801-17.3,1.82983,17.3,5.03,47.54.96,9.13,3.5,33.13L328.49,481.35Z" transform="translate(-276 -126)" fill="#3f3d56"/><path d="M506.04,489.97l-6.52,3.56-18.63,5.21-15.62,4.38-33.92,9.49-15.62,4.37c-48.54849-7.964-73.06326,8.79968-96.24,26.94l-15.62,4.37-11.63,3.26q-3.15-9.54-5.71-19.33-2.07-7.89-3.74-15.94a323.41674,323.41674,0,0,1-6.72-59.96Q275.995,453.17,276,450q0-14.205,1.2-28.1.42-4.83.97-9.62l24.49-6.89,2.52-.71,14.77-4.15,2.36011-.66,37.49-10.55c28.82269-2.03586,50.77923,10.48157,69.48,29.9,0,0,26.62-7.95,46.21,6.08,6.2,4.45,11.68994,11.1,15.41,20.91l3.21,9.25Z" transform="translate(-276 -126)" fill="#6c63ff"/><circle cx="171.48628" cy="378.91004" r="33.96661" fill="#3f3d56"/><circle cx="171.48628" cy="378.91004" r="17.87717" fill="#d0cde1"/><path d="M320.05005,550.09A34.075,34.075,0,0,1,302.95,579.57c-.16992-.37-.32-.73-.48-1.1q-3.015-6.945-5.68994-14.06-2.40015-6.36-4.54-12.86-3.15-9.54-5.71-19.33-2.07-7.89-3.74-15.94a32.50732,32.50732,0,0,1,3.29-.16,33.94039,33.94039,0,0,1,33.97,33.97Z" transform="translate(-276 -126)" fill="#3f3d56"/><path d="M303.96,550.09A17.83991,17.83991,0,0,1,296.78,564.41q-2.40015-6.36-4.54-12.86-3.15-9.54-5.71-19.33A17.866,17.866,0,0,1,303.96,550.09Z" transform="translate(-276 -126)" fill="#d0cde1"/><path d="M405.26256,420.164l-105.1,29.418-8.855-31.637c13.23324-10.33505,39.27-14.93408,67.028-18.762Z" transform="translate(-276 -126)" fill="#fff"/><path d="M287.29,453.18l-11.22,3.14Q275.995,453.17,276,450q0-14.205,1.2-28.1l1.24-.35C289.40088,428.742,292.17172,439.36032,287.29,453.18Z" transform="translate(-276 -126)" fill="#fff"/><rect x="308.08977" y="472.22915" width="5.5683" height="10.57977" transform="translate(-393.20606 -24.53223) rotate(-15.63709)" fill="#3f3d56"/><path d="M494.10538,455.46163a17.98812,17.98812,0,0,1-18.61853-30.159c6.19992,4.44595,11.698,11.09472,15.416,20.90744Z" transform="translate(-276 -126)" fill="#3f3d56"/><path d="M306.51,312.56q5.595-11.925,12.11-23.3v63.73H306.51Z" transform="translate(-276 -126)" fill="#3f3d56"/><circle cx="483.44475" cy="235.46952" r="16.95465" fill="#3f3d56"/></svg>