<?xml version="1.0" encoding="UTF-8"?><svg id="uuid-147e7cb9-bce3-4bf0-8c97-6bf950994db8" xmlns="http://www.w3.org/2000/svg" width="731.67004" height="431.18738" viewBox="0 0 731.67004 431.18738"><path d="M79.4806,302.94605c-3.16093,.34009-6.60921,.85056-10.27718,1.59744-15.55246,3.16687-15.87526,13.72736-15.73896,16.14847l-.10566-.06586c-1.56382,2.50858-2.54325,5.0473-3.13519,7.44336l-.71221-32.36652c.46052-.96021,.87954-2.04895,1.22889-3.16495,1.16419,3.58505,3.07256,6.97195,4.7176,6.74747,2.13909-.2919,3.07167-6.58597,2.67265-11.05881,2.72016,3.50314,7.2981,7.24973,9.02511,6.09445,1.38001-.92313,.56173-4.7236-.94492-8.17871,3.13929,1.89133,6.61613,3.1344,7.69503,1.93341,1.47227-1.63885-2.05557-7.23083-5.30905-10.35236,4.35496,.40613,9.89372-.28772,10.25684-2.26978,.2992-1.63309-2.99722-3.69385-6.5255-5.02014,3.5439-.93442,6.85789-2.56256,6.74798-4.17325-.13057-1.91339-5.05068-3.19543-9.29526-3.3905,3.20154-2.5047,6.14321-5.9671,5.24362-7.53304-.82704-1.43962-4.67439-.88197-8.22406,.38596,2.10064-3.00327,3.5775-6.38742,2.45277-7.54556-1.40106-1.44266-6.37359,1.04738-9.76711,3.79977,.66062-4.28796,.32665-9.70052-1.59659-10.19022-1.60895-.40967-3.88929,2.73886-5.4527,6.16866-.69097-3.5993-2.08979-7.01645-3.7042-7.01645-2.29982,0-4.16418,6.93399-4.16418,11.45149,0,.25536,.00677,.49574,.01843,.7254-.23083-.26761-.49538-.5472-.79707-.84018-3.24076-3.14728-9.51391-6.64064-11.11616-4.99081-1.12474,1.15814,.35212,4.5423,2.45277,7.54556-3.54967-1.26794-7.39702-1.82559-8.22406-.38596-1.11127,1.9344,3.63883,6.76323,7.4999,9.105-.2321-.02795-.47595-.05151-.73547-.06921-4.50701-.30753-11.55183,1.08047-11.7084,3.37497-.10991,1.61066,3.20409,3.23883,6.74798,4.17325-3.52829,1.32629-6.8247,3.38705-6.5255,5.02014,.36312,1.98206,5.90188,2.6759,10.25684,2.26978-3.25348,3.12155-6.78132,8.7135-5.30905,10.35236,1.0789,1.20096,4.55573-.04211,7.69503-1.93341-1.50665,3.45511-2.32492,7.25558-.94492,8.17871,1.82373,1.21997,6.82541-3.026,9.4625-6.6795-.2687,4.46964,.80077,10.61005,2.9228,10.85236,.88742,.10135,1.82777-.84506,2.67643-2.30231l-2.40356,34.79013c-.56184,4.05161,3.03199,6.69543,3.35318,8.36435l.51842,23.5593c-.58508-1.67795-1.37316-3.3952-2.43548-5.09933l-.10566,.06589c.13628-2.42136-.18675-12.98154-15.73896-16.14835-3.66797-.74689-7.11625-1.25735-10.27718-1.59744-3.73116-.40146-5.1866,4.70612-1.81595,6.3558,4.88144,2.38916,9.4733,5.39935,11.86668,8.96402,6.11901,9.11359,14.5737,3.84543,15.77578,3.0275,1.34266,2.23508,2.22306,4.48688,2.77913,6.62946l.27531,12.51144c-.06744,.2959-.11414,.46158-.11777,.47403l.12902,.03781,.66628,30.27884,6.18057-.04965-2.21068-30.94946c.37149-1.66956,1.51435-7.35721,0-13.26407l-2.21068-24.31744h0c-.0055-.01877,.12548,.63843,0,0l-2.8837-9.55505c.41933-2.95605,1.3925-6.28098,3.36894-9.57098,1.20206,.8179,9.65677,6.08612,15.77579-3.0275,2.39338-3.5647,6.98524-6.57486,11.86668-8.96402,3.37065-1.64972,1.91521-6.75726-1.81595-6.3558l.00002,.00006Zm-28.23342,71.63849l-.11651-5.2952c.23499,2.00214,.2231,3.80933,.11651,5.2952Z" fill="#f2f2f2"/><path d="M0,410.44467c0,.66003,.53003,1.19,1.19006,1.19H730.48004c.65997,0,1.19-.52997,1.19-1.19,0-.65997-.53003-1.19-1.19-1.19H1.19006c-.66003,0-1.19006,.53003-1.19006,1.19Z" fill="#3f3d56"/><g><circle cx="442.57913" cy="357.50003" r="54" fill="#3f3d56"/><circle cx="442.57913" cy="357.50003" r="36" fill="#fff"/><circle cx="442.57913" cy="357.50003" r="20.5" fill="#3f3d56"/><circle cx="130.57912" cy="357.50003" r="54" fill="#3f3d56"/><circle cx="130.57912" cy="357.50003" r="36" fill="#fff"/><path d="M516.45068,331.81766c-7.0343-17.72699-31.6145-71.89722-75.38574-89.8252-.33667-.13788-.69055-.2323-1.05078-.28394l-140.40552-20.11157c-2.31384-.33142-4.4668,1.2514-4.84045,3.55872l-2.46179,15.19843c-.16907,1.04352,.05078,2.11212,.62354,3.00067,7.13062,11.06281,52.8291,86.14526-20.35083,86.14526-72.0304,0-93.34912-52.37433-96.55017-61.61548-.30237-.87292-.31458-1.81287-.03638-2.69379l22.18445-70.25055c.39453-1.24982,.17627-2.52936-.46082-3.55219l9.75183-18.11243,17.86304,10.11218,9.24805,.11224,31.5708,16.5,6.4292-10.5-65.11108-32.47638s.11108-7.52362-20.88892-13.52362l-33-15-4,5,10,8,1,6,7,2,14,27-4,7.73621,4.85522,2.36725-1.39453-.31696c-2.00781-.4563-4.05664,.57898-4.88013,2.46619l-22.06299,50.56097c-.33752,.77362-.896,1.43042-1.60522,1.88806l-7.85925,5.07056c-.73438,.47382-1.3064,1.16071-1.63953,1.96863l-8.97632,21.77301c-.27979,.67841-.35962,1.38977-.28735,2.0777-11.18994,2.1203-44.08435,11.27728-62.1499,47.40839l21,17s32.91797-21.29877,87.32153,.88074c9.45569,14.71802,23.2511,26.9325,43.16772,28.0838,52.51074,3.03546,139.51074,6.03546,149.51074-5.96454,7.32092-8.78516,12.41357-14.27008,14.61694-16.57843,.77625-.81335,1.83582-1.28357,2.95959-1.31952l122.44885-3.91125c2.97253-.09491,4.94312-3.10883,3.84619-5.87317Z" fill="#6c63ff"/><circle cx="178.57912" cy="158.50002" r="16" fill="#3f3d56"/><path d="M434.81348,242.05373c-.18945,0-.37988-.00391-.57129-.01074l-133.77832-5.17871c-5.91992-.22949-10.99023-3.99805-12.91699-9.60059l-1.83105-5.32861c-1.49414-4.34473-.84473-8.99902,1.78125-12.76855,2.62598-3.77002,6.76562-5.99268,11.3584-6.09863l138.2168-3.17725c4.28027-.09814,8.40039,1.73438,11.19434,5.03271,2.79297,3.29736,3.93164,7.62402,3.12305,11.86963l-2.60645,13.68359c-1.29297,6.78809-7.11914,11.57715-13.96973,11.57715Z" fill="#3f3d56"/><circle cx="130.57912" cy="357.50003" r="20.5" fill="#3f3d56"/><path d="M488.55762,299.13675c-3.20215,0-6.25098-1.71484-7.87598-4.65527l-10.13477-18.33984c-1.60547-2.90527-1.51367-6.31934,.24512-9.13379,1.75879-2.81543,4.79688-4.4043,8.10254-4.22266l18.38574,.94238c3.42383,.17578,6.5,2.3291,7.83691,5.48828l5.37305,12.69727c.98242,2.3252,.95801,4.87402-.06836,7.17969-1.02734,2.30469-2.90723,4.02734-5.29297,4.85059l-13.62402,4.69727c-.97266,.33594-1.9668,.49609-2.94727,.49609Z" fill="#3f3d56"/><path d="M256.00879,421.0264c-.15234,0-.30566-.00879-.45996-.02539l-4.08301-.4541c-1.33398-.14844-2.48828-.89746-3.16797-2.05566-.67969-1.15723-.77051-2.53125-.25-3.76855l21.2373-50.43848,.46094,.19434-.46094-.19434c.58301-1.38477,1.87109-2.36035,3.36133-2.54688,1.4502-.18457,2.86426,.38574,3.78711,1.5166,.92285,1.12988,1.19531,2.62988,.72949,4.0127l-17.1543,50.89258c-.57812,1.71777-2.21582,2.86719-4,2.86719Z" fill="#3f3d56"/></g><path d="M366.27542,69.04004s-7.76959-15.53917-6.21567-29.52443l-25.85873,13.40338,.99603,25.44455,31.07834-9.3235h.00003Z" fill="#a0616a"/><circle cx="350.22806" cy="36.76944" r="23.32656" fill="#a0616a"/><g><polygon points="374.05594 403.08567 359.82169 403.08429 353.05038 348.18015 374.05878 348.18167 374.05594 403.08567" fill="#a0616a"/><path d="M325.28766,402.76273h0c-.44321,.74643-.67706,3.15561-.67706,4.02365h0c0,2.66815,2.16293,4.83115,4.83115,4.83115h44.08176c1.82019,0,3.29584-1.47556,3.29584-3.29584v-1.83527s2.18069-5.51593-2.30896-12.31461c0,0-5.58002,5.32346-13.918-3.0145l-2.4588-4.45432-17.79831,13.01678-9.86533,1.21432c-2.15833,.26566-4.0719-.04123-5.18213,1.82858h-.00018l.00003,.00003Z" fill="#2f2e41"/></g><path d="M332.08923,69.04004l34.18619-4.66175,26.4166,12.43134,1.55392,96.34288s-64.98312,7.76959-75.22427-2.33089c-10.24118-10.10046-2.47159-90.90417-2.47159-90.90417l15.53918-10.87742h-.00003Z" fill="#e6e6e6"/><path d="M344.39355,42.71195h-6.2709s-5.44092-6.69742-4.70895-2.61672c.73199,4.0807-2.19598,8.47264-2.19598,8.47264l-4.39194-1.46398s-8.78387-36.93378,17.56775-38.9626,32.20755,18.46689,32.20755,18.46689c0,0-1.46399,10.24786-4.39194,7.3199s-19.03174-4.39194-19.03174-4.39194l-8.78387,13.17582h.00003Z" fill="#2f2e41"/><g><polygon points="316.26263 294.38178 303.24435 300.13834 274.84277 252.66562 294.0563 244.16896 316.26263 294.38178" fill="#a0616a"/><path d="M271.53168,313.81354h0c-.10339,.86191,.65726,3.15979,1.00839,3.95364h0c1.07928,2.44012,3.93231,3.54333,6.3725,2.46405l40.31436-17.8313c1.66464-.73627,2.4173-2.68262,1.68097-4.34735l-.74237-1.67841s-.23691-5.92661-7.09293-10.32816c0,0-2.94977,7.12564-13.94791,2.87302l-4.05045-3.07901-11.01184,19.10382-8.53101,5.10114c-1.86642,1.116-3.74057,1.60941-3.99954,3.76852l-.00015,.00006-.00003-.00003Z" fill="#2f2e41"/></g><path d="M389.58417,163.82901l4.66174,14.09538v48.45287l-15.22717,43.89511,1.24191,102.34442h-27.32202l-3.08337-104.39389,2.43488-51.5607-18.647-7.76959-48.979,3.02293,22.905,56.30733-25.20529,16.81168s-37.69778-85.91206-32.05721-94.23532c5.64059-8.32324,71.68199-23.00594,71.68199-23.00594,0,0,67.59552-2.41042,67.59552-3.96432l.00003,.00006v-.00002Z" fill="#2f2e41"/><g><path d="M403.56943,107.88798l7.51263,12.30434s10.62048,41.74319,0,41.91298-32.06332-21.27306-32.06332-21.27306l2.79584-11.18944,7.76959,3.10783-1.55392-24.86268h15.53918v.00002Z" fill="#a0616a"/><path d="M380.26068,76.61386s24.86267-4.38033,27.19357,11.89297,3.62784,31.68549,3.62784,31.68549l-26.93661,2.23151-3.8848-45.80998v.00002Z" fill="#e6e6e6"/><ellipse cx="374.22909" cy="131.3244" rx="7.01523" ry="14.03044" transform="translate(50.16248 359.96023) rotate(-54.54076)" fill="#a0616a"/></g><path d="M590.48059,302.94605c-3.16095,.34009-6.60919,.85056-10.27716,1.59744-15.55243,3.16687-15.87524,13.72736-15.73895,16.14847l-.10565-.06586c-1.56384,2.50858-2.54327,5.0473-3.13519,7.44336l-.71222-32.36652c.46051-.96021,.87952-2.04895,1.22888-3.16495,1.16418,3.58505,3.07257,6.97195,4.71759,6.74747,2.1391-.2919,3.07166-6.58597,2.67267-11.05881,2.72015,3.50314,7.2981,7.24973,9.02509,6.09445,1.38-.92313,.56171-4.7236-.94495-8.17871,3.13928,1.89133,6.61615,3.1344,7.69501,1.93341,1.47229-1.63885-2.05554-7.23083-5.30902-10.35236,4.35498,.40613,9.89374-.28772,10.25684-2.26978,.29919-1.63309-2.99719-3.69385-6.52551-5.02014,3.54388-.93442,6.85791-2.56256,6.74799-4.17325-.13055-1.91339-5.05066-3.19543-9.29529-3.3905,3.20154-2.5047,6.14319-5.9671,5.24359-7.53304-.82703-1.43962-4.67438-.88197-8.22406,.38596,2.10065-3.00327,3.57751-6.38742,2.45276-7.54556-1.40106-1.44266-6.3736,1.04738-9.76709,3.79977,.66064-4.28796,.32666-9.70052-1.59662-10.19022-1.60895-.40967-3.88928,2.73886-5.4527,6.16866-.69098-3.5993-2.08978-7.01645-3.70422-7.01645-2.2998,0-4.16418,6.93399-4.16418,11.45149,0,.25536,.00677,.49574,.01843,.7254-.23083-.26761-.49536-.5472-.79706-.84018-3.24078-3.14728-9.51392-6.64064-11.11615-4.99081-1.12476,1.15814,.35211,4.5423,2.45276,7.54556-3.54968-1.26794-7.39703-1.82559-8.22406-.38596-1.11127,1.9344,3.63885,6.76323,7.49988,9.105-.23212-.02795-.47595-.05151-.73547-.06921-4.50702-.30753-11.55182,1.08047-11.70837,3.37497-.10992,1.61066,3.2041,3.23883,6.74799,4.17325-3.52832,1.32629-6.82471,3.38705-6.52551,5.02014,.3631,1.98206,5.90186,2.6759,10.25684,2.26978-3.25348,3.12155-6.78131,8.7135-5.30902,10.35236,1.07892,1.20096,4.55573-.04211,7.69501-1.93341-1.50665,3.45511-2.32489,7.25558-.94495,8.17871,1.82373,1.21997,6.82544-3.026,9.46252-6.6795-.26868,4.46964,.80078,10.61005,2.92279,10.85236,.88739,.10135,1.82776-.84506,2.67645-2.30231l-2.40356,34.79013c-.56183,4.05161,3.03198,6.69543,3.35321,8.36435l.51843,23.5593c-.58508-1.67795-1.37317-3.3952-2.43549-5.09933l-.10565,.06589c.13629-2.42136-.18677-12.98154-15.73895-16.14835-3.66797-.74689-7.11627-1.25735-10.27716-1.59744-3.73114-.40146-5.18658,4.70612-1.81598,6.3558,4.88147,2.38916,9.47333,5.39935,11.8667,8.96402,6.11902,9.11359,14.57367,3.84543,15.77576,3.0275,1.34265,2.23508,2.22308,4.48688,2.77911,6.62946l.27533,12.51144c-.06744,.2959-.11414,.46158-.1178,.47403l.12903,.03781,.66626,30.27884,6.18054-.04965-2.21069-30.94946c.37146-1.66956,1.51434-7.35721,0-13.26407l-2.21069-24.31744h0c-.00549-.01877,.12549,.63843,0,0l-2.88373-9.55505c.41931-2.95605,1.39252-6.28098,3.36896-9.57098,1.20209,.8179,9.6568,6.08612,15.77582-3.0275,2.39337-3.5647,6.98523-6.57486,11.8667-8.96402,3.37067-1.64972,1.91522-6.75726-1.81598-6.3558l.00018,.00006Zm-28.2334,71.63849l-.11652-5.2952c.23499,2.00214,.22308,3.80933,.11652,5.2952Z" fill="#f2f2f2"/><g><path d="M414.42581,23.71637c5.33865-2.01928,5.01892-5.0777,12.22473-9.00768,3.09003-1.68527,5.55646-3.03044,9.00769-3.21703,6.0892-.3292,10.73032,3.19225,14.15494,5.79065,4.98624,3.78327,7.62695,8.02801,9.00769,10.2945,2.31601,3.80161,3.38486,6.97377,4.50385,10.2945,1.6459,4.88459,2.27588,8.54155,3.21704,14.15493,1.40463,8.37777,2.10687,12.56664,1.2868,16.08515-1.52054,6.52391-4.86679,6.97668-4.50385,10.9379,.61301,6.69142,10.33667,7.31254,11.5813,14.15493,1.03235,5.67536-4.33694,12.50662-10.29449,14.79834-3.61563,1.39084-6.94482,.9161-16.08514-1.93022-24.24655-7.55042-28.13739-12.71648-36.03073-10.2945-4.48938,1.37751-6.94434,4.18811-13.51154,4.50384-4.19949,.20191-9.26678-.6555-9.65109-2.57362-.48883-2.43977,7.14471-3.87076,7.72086-8.36428,.60461-4.71531-7.35416-6.62509-7.72086-12.22472-.35925-5.48568,7.10919-6.24543,10.9379-14.79834,1.92575-4.30191,1.71274-10.15988,1.2868-21.87581-.3287-9.04114-1.20474-12.53874,1.2868-14.79834,2.8035-2.54248,5.64401,.3155,11.5813-1.93022v.00003Z" fill="#2f2e41"/><g><polygon points="518.51257 405.23148 529.25616 402.90918 525.41339 360.36411 509.55679 363.79126 518.51257 405.23148" fill="#a0616a"/><path d="M555.26953,397.03476h0c.45624,.49112,1.02563,2.27139,1.16724,2.92657h0c.43512,2.01389-.84467,3.99921-2.85864,4.43433l-33.27228,7.18878c-1.37384,.29684-2.72827-.57626-3.02515-1.95016l-.29932-1.38522s-2.54547-3.80771-.2655-9.67142c0,0,5.07983,3.10809,10.01349-4.54504l1.12946-3.763,15.55664,6.92236,7.64423-.69226c1.67242-.15146,3.06665-.69516,4.20959,.5351l.00012-.00003h.00012Z" fill="#2f2e41"/></g><g><polygon points="537.72968 401.97669 546.69281 395.61432 526.41949 358.01325 513.19049 367.40311 537.72968 401.97669" fill="#a0616a"/><path d="M568.29633,379.97809h0c.61267,.27197,1.83667,1.6846,2.22461,2.23123h0c1.19244,1.68021,.79706,4.00897-.88324,5.20145l-27.7597,19.70078c-1.14624,.81348-2.73492,.54376-3.54846-.60254l-.82019-1.15573s-3.83838-2.49899-4.04956-8.7868c0,0,5.89307,.85858,7.41736-8.1185l-.44232-3.9039,17.02557,.24277,6.75525-3.64426c1.47791-.7973,2.54578-1.84576,4.08057-1.16443l.00012-.00009v.00003Z" fill="#2f2e41"/></g><path d="M408.60498,191.63159s-16.71445,22.72462,16.71445,48.27336l68.25064-21.80884-24.37521-50.83975-21.58948-11.83939-39.00037,36.21461h-.00003Z" fill="#2f2e41"/><polyline points="493.57004 218.09613 520.03461 269.63233 536.74902 376.8833 515.85596 378.27619 494.96292 276.59668 458.05188 221.57831 483.81998 209.73891" fill="#2f2e41"/><path d="M425.31943,223.71695v16.188l47.35757,52.01329s0,39.00037,18.1073,57.10767l20.89304,32.03601,18.10733-9.75009-26.46454-93.3223-47.35757-61.28629-30.64313,7.0137v0Z" fill="#2f2e41"/><path d="M458.97238,63.22869l-8.9213,34.01246-34.01245-6.69098s13.38196-24.53358,10.03647-35.68521l32.89731,8.36372h-.00003Z" fill="#a0616a"/><circle cx="444.4202" cy="43.73452" r="25.91739" fill="#a0616a"/><path d="M432.98022,68.36261l20.89304,9.75009s10.74814,6.56952,10.94553,10.94554-1.19547,25.26907-1.19547,25.26907c0,0,8.35721,8.35722,2.78574,25.07166l2.78574,27.85741-62.67914,33.42888,5.57147-58.50053-2.78574-54.32193,23.6788-19.50018h.00003Z" fill="#3f3d56"/><g><path id="uuid-7b14ab42-c1a1-40ac-9892-55f573797ae2" d="M414.22601,226.87352c2.44626,5.61267,7.32513,8.89999,10.89682,7.34261,3.57169-1.5574,4.48318-7.36903,2.03531-12.98338-.94705-2.2561-2.42065-4.25262-4.29749-5.82246l-10.66519-23.65021-10.99167,5.24142,11.68094,22.75845c-.12744,2.44429,.33249,4.88356,1.34128,7.11359v-.00002Z" fill="#a0616a"/><path d="M425.31943,91.34497s-15.32156-9.75009-20.89304,1.39287-18.1073,68.25063-18.1073,68.25063l18.1073,54.32193,16.71445-6.96436-14.62512-58.46214,18.80374-58.53893h-.00003Z" fill="#3f3d56"/></g><g><path id="uuid-79383bd8-827d-46c7-ab74-7e3a51a2154c" d="M503.84573,218.10533c4.34192,4.3167,10.08871,5.57542,12.83542,2.81174s1.45306-8.50237-2.89099-12.82002c-1.71161-1.74854-3.81708-3.06174-6.14023-3.82974l-18.6279-18.05769-8.28763,8.92215,19.24368,16.85443c.78201,2.31934,2.10822,4.41759,3.86761,6.11913l.00003,.00002Z" fill="#a0616a"/><path d="M464.22958,88.02223s-26.71194-1.09243-27.78644,11.31936c-1.07449,12.41178,17.1861,67.79372,17.1861,67.79372l36.84619,43.83041,12.97314-12.63219-35.13419-48.9623-4.08481-61.34901Z" fill="#3f3d56"/></g><path d="M434.77213,66.59978c-1.25165-1.29389-6.61957-2.68541-4.99026-5.93878,.53503-1.06832,1.91711-1.7976,3.04315-1.65662,2.13449,.26728,2.703,3.58089,3.64917,3.45484,1.24911-.16642,1.60361-6.12099,1.7554-12.51845,.2467-10.39727-.2905-11.48565,1.04071-13.08163,1.22519-1.46892,2.11469-1.0677,15.82178-3.17163,4.62787-.71033,6.13565-1.00306,8.38187-.34583,4.27069,1.24961,5.87354,4.37174,7.5585,3.63926,1.62259-.70538,2.0119-4.41623,1.08353-7.2555-1.32617-4.05586-5.26395-6.09654-8.013-7.47285-7.01822-3.5137-12.10425-2.37113-12.89719-4.95005-.59412-1.93244,2.17838-2.84469,2.43716-6.76807,.2775-4.2069-2.64011-7.25193-2.82581-7.43992-1.8335-1.85603-3.93646-2.42791-4.85126-2.6644-1.28098-.33116-2.78293-.71946-4.54828-.10868-.35312,.12216-2.53006,.91169-3.53058,3.01023-.95486,2.00273-.09634,3.64179-.82336,3.98509-.82523,.38968-1.88046-1.74642-4.85126-2.6644-.62698-.19372-1.50723-.45617-2.63147-.33593-2.35941,.25234-3.84543,1.98169-4.24527,2.44705-1.03751,1.20742-1.36679,2.39677-2.02548,4.77552-.33905,1.22434-.72952,2.67314-.74762,4.62402-.01215,1.30976-.02322,2.50131,.4545,3.83359,0,.00006,.77695,2.16702,5.23001,5.85906h0c-.00009-.00009-1.8645-1.85006-2.78299-1.61379-1.57147,.40424-7.67123,2.46251-10.66751,8.39175-1.35504,2.68137-2.23715,2.267-3.30334,4.92702-.25098,.62622-2.08856,5.4149-.06586,10.3744,1.54712,3.79332,3.58548,3.35391,4.74258,7.21267,.55316,1.84444,.08234,1.92794,.83325,7.02824,.43167,2.93189,4.24103,.59887,4.90079,1.85014,.4458,.84556-6.25598,25.68755-2.6156,29.12815,3.5665,3.37075,19.18219-22.73137,15.48373-26.55452v.00002Z" fill="#2f2e41"/></g><g><path d="M437.94324,168.77686l-22.31262-67.72848c-18.03754-15.89486-37.6058,22.37534-90.1362,.68176l16.52231,76.61103c39.71683-21.4702,73.90308-29.87926,95.92651-9.56432Z" fill="#fff"/><path d="M342.01663,179.34133c-.14258,0-.28516-.03027-.41797-.0918-.28613-.13135-.49316-.38965-.55957-.69727l-16.52246-76.61133c-.07812-.36328,.05078-.74023,.33691-.97852,.28516-.23828,.67871-.29834,1.02246-.15674,29.8418,12.32422,49.10352,4.98682,63.16504-.37109,10.69141-4.07373,19.13379-7.28809,27.25098-.13672,.13379,.11768,.2334,.26855,.28906,.4375l22.3125,67.72852c.14258,.43262-.02539,.90723-.40918,1.15381-.38281,.24561-.88574,.20264-1.21875-.10596-19.36328-17.86084-49.47852-14.77734-94.77344,9.70947-.14844,.08008-.31152,.12012-.47559,.12012Zm-15.14746-75.979l15.84473,73.46824c43.46094-23.2749,73.22754-26.86182,93.16211-11.13428l-21.1084-64.07373c-7.15137-6.12402-14.6582-3.26367-25.01367,.68115-14.10059,5.37158-33.30762,12.68994-62.88477,1.0586v.00002Z" fill="#3f3d56"/></g><g><path d="M298.58881,108.88798l-7.51263,12.30434s-10.62048,41.74319,0,41.91298,32.06329-21.27306,32.06329-21.27306l-2.79584-11.18944-7.76959,3.10783,1.55392-24.86268h-15.53918l.00003,.00002Z" fill="#a0616a"/><path d="M321.89755,77.61386s-24.86267-4.38033-27.19357,11.89297c-2.33087,16.27331-3.62784,31.68549-3.62784,31.68549l26.93661,2.23151,3.8848-45.80998v.00002Z" fill="#e6e6e6"/><ellipse cx="327.9292" cy="132.32437" rx="14.03043" ry="7.01521" transform="translate(-15.94295 214.7819) rotate(-35.45924)" fill="#a0616a"/></g><circle cx="585.62738" cy="409.65421" r="8.43805" fill="#3f3d56"/><circle cx="596.87811" cy="422.74933" r="8.43805" fill="#3f3d56"/><circle cx="681.25854" cy="422.74933" r="8.43805" fill="#3f3d56"/><path d="M609.23816,296.44321v-91.64795c0-10.26025,8.58069-12.79527,18.84094-12.79527,5.02832,0,7.47363-.58447,11,3,3.52588,3.58447,7.45496,5.0731,7.37244,10.10094l-1.47656,89.93018-35.73682,1.41211Zm19.84094-98.44321c-9.15771,0-17.84094-2.36246-17.84094,6.79527v89.56789l31.76807-1.25586,1.44531-88.03955c.07373-4.48682-7.22546-3.86852-10.37244-7.06773-3.14746-3.19922-.51221,0-5,0v-.00002Z" fill="#3f3d56"/><path d="M584.1236,295.3404l-1.28369,100.13043c-.01654,1.28894,.29089,2.5614,.89398,3.70065l9.45953,17.86798c1.39142,2.6282,4.17212,4.22,7.14301,4.08893l83.0647-3.66461c4.25177-.18759,7.54468-3.78952,7.35107-8.04105l-5.20587-114.3338c-.18719-4.11127-3.57489-7.34821-7.69043-7.34821h-86.03461c-4.2132,0-7.64374,3.38684-7.69775,7.59967h.00006Z" fill="#e6e6e6"/><path d="M616.86218,340.5282l-1.99707-.09961,.74121-14.82031c.39893-7.98242,6.97021-14.37988,14.96045-14.56641l35.37402-.82227c7.14453-.125,13.05762,5.29492,13.4541,12.43359l.75244,13.55078-1.99707,.11133-.75244-13.55078c-.33594-6.05469-5.38623-10.69141-11.41016-10.54492l-35.37402,.82227c-6.94824,.16113-12.66309,5.72559-13.01025,12.66602l-.74121,14.82031Z" fill="#3f3d56"/><path d="M615.45203,412.30359l-1.98926-.20312,4.31396-42.06348c.79785-7.77832,7.28906-13.90723,15.09912-14.25684l34.50098-1.54688c4.34619-.19629,8.47656,1.34277,11.63525,4.33203,3.15918,2.98926,4.92432,7.0293,4.97021,11.37793l.38574,36.62207-2,.02148-.38574-36.62207c-.04004-3.80176-1.58301-7.33398-4.34473-9.94629s-6.38574-3.95996-10.1709-3.78711l-34.50098,1.54688c-6.82764,.30566-12.50195,5.66309-13.19971,12.46191l-4.31396,42.06348Z" fill="#3f3d56"/><path d="M599.98767,409.40222l-2-.02539,1.26465-96.12012c.08643-6.57324,5.30078-11.87305,11.87109-12.06641l67.99609-2.00293,.05859,2-67.99609,2.00293c-5.49561,.16113-9.85742,4.59473-9.92969,10.0918l-1.26465,96.12012Z" fill="#3f3d56"/><path d="M600.16675,395.70481h-1.39001v-87.54001c0-2.76999-2.25-5.03-5.03003-5.03h-7.77002v-2h7.77002c3.66998,0,6.69,2.82999,7,6.41,.02002,.20001,.03003,.41,.03003,.62v41.45001l-.60999,46.09Z" fill="#3f3d56"/></svg>