<?xml version="1.0" encoding="UTF-8"?><svg id="uuid-d59633bf-12a2-45de-998f-a22ac5fa8487" xmlns="http://www.w3.org/2000/svg" width="731.67004" height="431.18736" viewBox="0 0 731.67004 431.18736"><path d="M79.4806,302.94602c-3.16093,.3401-6.60921,.85055-10.27718,1.59744-15.55246,3.16687-15.87526,13.72736-15.73896,16.14847l-.10566-.06586c-1.56382,2.50859-2.54325,5.0473-3.13519,7.44337l-.71221-32.36652c.46052-.9602,.87954-2.04896,1.22889-3.16494,1.16419,3.58504,3.07256,6.97195,4.7176,6.74748,2.13909-.2919,3.07167-6.58596,2.67265-11.05881,2.72016,3.50314,7.2981,7.24972,9.02511,6.09446,1.38001-.92313,.56173-4.72359-.94492-8.17871,3.13929,1.89132,6.61613,3.13439,7.69503,1.93342,1.47227-1.63885-2.05557-7.23082-5.30905-10.35235,4.35496,.40613,9.89372-.28771,10.25684-2.26977,.2992-1.6331-2.99722-3.69384-6.5255-5.02014,3.5439-.93441,6.85789-2.56256,6.74798-4.17324-.13057-1.91338-5.05068-3.19543-9.29526-3.39051,3.20154-2.50471,6.14321-5.96711,5.24362-7.53303-.82704-1.43962-4.67439-.88198-8.22406,.38596,2.10064-3.00326,3.5775-6.38742,2.45277-7.54556-1.40106-1.44266-6.37359,1.04738-9.76711,3.79978,.66062-4.28797,.32665-9.70052-1.59659-10.19022-1.60895-.40967-3.88929,2.73886-5.4527,6.16866-.69097-3.59931-2.08979-7.01645-3.7042-7.01645-2.29982,0-4.16418,6.93399-4.16418,11.45149,0,.25536,.00677,.49574,.01843,.72541-.23083-.26761-.49538-.54719-.79707-.84018-3.24076-3.14728-9.51391-6.64064-11.11616-4.99082-1.12474,1.15814,.35212,4.5423,2.45277,7.54556-3.54967-1.26794-7.39702-1.82559-8.22406-.38596-1.11127,1.93439,3.63883,6.76323,7.4999,9.10499-.2321-.02796-.47595-.0515-.73547-.0692-4.50701-.30752-11.55183,1.08049-11.7084,3.37497-.10991,1.61067,3.20409,3.23883,6.74798,4.17324-3.52829,1.3263-6.8247,3.38704-6.5255,5.02014,.36312,1.98206,5.90188,2.6759,10.25684,2.26977-3.25348,3.12154-6.78132,8.7135-5.30905,10.35235,1.0789,1.20097,4.55573-.0421,7.69503-1.93342-1.50665,3.45512-2.32492,7.25558-.94492,8.17871,1.82373,1.21996,6.82541-3.02601,9.4625-6.67949-.2687,4.46965,.80077,10.61004,2.9228,10.85236,.88742,.10134,1.82777-.84507,2.67643-2.3023l-2.40356,34.79012c-.56184,4.05159,3.03199,6.69542,3.35318,8.36434l.51842,23.5593c-.58508-1.67794-1.37316-3.3952-2.43548-5.09933l-.10566,.0659c.13628-2.42136-.18675-12.98155-15.73896-16.14836-3.66797-.74689-7.11625-1.25734-10.27718-1.59744-3.73116-.40145-5.1866,4.70611-1.81595,6.35581,4.88144,2.38917,9.4733,5.39935,11.86668,8.96403,6.11901,9.11359,14.5737,3.84542,15.77578,3.0275,1.34266,2.23509,2.22306,4.48687,2.77913,6.62945l.27531,12.51144c-.06744,.2959-.11414,.46159-.11777,.47403l.12902,.03782,.66628,30.27884,6.18057-.04965-2.21068-30.94947c.37149-1.66957,1.51435-7.35722,0-13.26406l-2.21068-24.31744h0c-.0055-.01877,.12548,.63842,0,0l-2.8837-9.55504c.41933-2.95604,1.3925-6.28098,3.36894-9.57097,1.20206,.81791,9.65677,6.08611,15.77579-3.0275,2.39338-3.56469,6.98524-6.57486,11.86668-8.96403,3.37065-1.64971,1.91521-6.75726-1.81595-6.35581Zm-28.23342,71.6385l-.11651-5.2952c.23499,2.00214,.2231,3.80933,.11651,5.2952Z" fill="#f2f2f2"/><path d="M0,410.44465c0,.66003,.53003,1.19,1.19006,1.19H730.48004c.65997,0,1.19-.52997,1.19-1.19,0-.65997-.53003-1.19-1.19-1.19H1.19006c-.66003,0-1.19006,.53003-1.19006,1.19Z" fill="#3f3d56"/><g><circle cx="442.57912" cy="357.5" r="54" fill="#3f3d56"/><circle cx="442.57912" cy="357.5" r="36" fill="#fff"/><circle cx="442.57912" cy="357.5" r="20.5" fill="#3f3d56"/><circle cx="130.57912" cy="357.5" r="54" fill="#3f3d56"/><circle cx="130.57912" cy="357.5" r="36" fill="#fff"/><path d="M516.4507,331.81763c-7.0343-17.72699-31.6145-71.89722-75.38574-89.8252-.33667-.13788-.69055-.2323-1.05078-.28394l-140.40552-20.11157c-2.31384-.33142-4.4668,1.2514-4.84045,3.55872l-2.46179,15.19843c-.16907,1.04352,.05078,2.11212,.62354,3.00067,7.13062,11.06281,52.8291,86.14526-20.35083,86.14526-72.0304,0-93.34912-52.37433-96.55017-61.61548-.30237-.87292-.31458-1.81287-.03638-2.69379l22.18445-70.25055c.39453-1.24982,.17627-2.52936-.46082-3.55219l9.75183-18.11243,17.86304,10.11218,9.24805,.11224,31.5708,16.5,6.4292-10.5-65.11108-32.47638s.11108-7.52362-20.88892-13.52362l-33-15-4,5,10,8,1,6,7,2,14,27-4,7.73621,4.85522,2.36725-1.39453-.31696c-2.00781-.4563-4.05664,.57898-4.88013,2.46619l-22.06299,50.56097c-.33752,.77362-.896,1.43042-1.60522,1.88806l-7.85925,5.07056c-.73438,.47382-1.3064,1.16071-1.63953,1.96863l-8.97632,21.77301c-.27979,.67841-.35962,1.38977-.28735,2.0777-11.18994,2.1203-44.08435,11.27728-62.1499,47.40839l21,17s32.91797-21.29877,87.32153,.88074c9.45569,14.71802,23.2511,26.9325,43.16772,28.0838,52.51074,3.03546,139.51074,6.03546,149.51074-5.96454,7.32092-8.78516,12.41357-14.27008,14.61694-16.57843,.77625-.81335,1.83582-1.28357,2.95959-1.31952l122.44885-3.91125c2.97253-.09491,4.94312-3.10883,3.84619-5.87317Z" fill="#6c63ff"/><circle cx="178.57912" cy="158.5" r="16" fill="#3f3d56"/><path d="M434.81349,242.05371c-.18945,0-.37988-.00391-.57129-.01074l-133.77832-5.17871c-5.91992-.22949-10.99023-3.99805-12.91699-9.60059l-1.83105-5.32861c-1.49414-4.34473-.84473-8.99902,1.78125-12.76855,2.62598-3.77002,6.76562-5.99268,11.3584-6.09863l138.2168-3.17725c4.28027-.09814,8.40039,1.73438,11.19434,5.03271,2.79297,3.29736,3.93164,7.62402,3.12305,11.86963l-2.60645,13.68359c-1.29297,6.78809-7.11914,11.57715-13.96973,11.57715Z" fill="#3f3d56"/><circle cx="130.57912" cy="357.5" r="20.5" fill="#3f3d56"/><path d="M488.55763,299.13672c-3.20215,0-6.25098-1.71484-7.87598-4.65527l-10.13477-18.33984c-1.60547-2.90527-1.51367-6.31934,.24512-9.13379,1.75879-2.81543,4.79688-4.4043,8.10254-4.22266l18.38574,.94238c3.42383,.17578,6.5,2.3291,7.83691,5.48828l5.37305,12.69727c.98242,2.3252,.95801,4.87402-.06836,7.17969-1.02734,2.30469-2.90723,4.02734-5.29297,4.85059l-13.62402,4.69727c-.97266,.33594-1.9668,.49609-2.94727,.49609Z" fill="#3f3d56"/><path d="M256.0088,421.02637c-.15234,0-.30566-.00879-.45996-.02539l-4.08301-.4541c-1.33398-.14844-2.48828-.89746-3.16797-2.05566-.67969-1.15723-.77051-2.53125-.25-3.76855l21.2373-50.43848,.46094,.19434-.46094-.19434c.58301-1.38477,1.87109-2.36035,3.36133-2.54688,1.4502-.18457,2.86426,.38574,3.78711,1.5166,.92285,1.12988,1.19531,2.62988,.72949,4.0127l-17.1543,50.89258c-.57812,1.71777-2.21582,2.86719-4,2.86719Z" fill="#3f3d56"/></g><path d="M366.27542,69.04002s-7.76959-15.53917-6.21567-29.52443l-25.85872,13.40338,.99604,25.44455,31.07835-9.3235Z" fill="#a0616a"/><circle cx="350.22805" cy="36.76942" r="23.32656" fill="#a0616a"/><g><polygon points="374.05593 403.08564 359.8217 403.08426 353.05039 348.18016 374.05879 348.18163 374.05593 403.08564" fill="#a0616a"/><path d="M325.28766,402.76274h0c-.4432,.74644-.67706,3.15561-.67706,4.02365h0c0,2.66814,2.16292,4.83116,4.83116,4.83116h44.08176c1.82019,0,3.29584-1.47556,3.29584-3.29584v-1.83526s2.18068-5.51593-2.30896-12.31461c0,0-5.58002,5.32347-13.918-3.01451l-2.4588-4.4543-17.79831,13.01679-9.86533,1.21433c-2.15833,.26565-4.0719-.04123-5.18212,1.82859h-.00017Z" fill="#2f2e41"/></g><path d="M332.08923,69.04002l34.18618-4.66175,26.4166,12.43134,1.55392,96.34288s-64.98312,7.76959-75.22429-2.33088c-10.24117-10.10046-2.47159-90.90417-2.47159-90.90417l15.53917-10.87742Z" fill="#e6e6e6"/><path d="M344.39354,42.71193h-6.2709s-5.44093-6.69742-4.70894-2.61672c.73199,4.0807-2.19597,8.47264-2.19597,8.47264l-4.39194-1.46398s-8.78388-36.93378,17.56775-38.9626c26.35163-2.02882,32.20755,18.46689,32.20755,18.46689,0,0-1.46398,10.24786-4.39194,7.3199s-19.03173-4.39194-19.03173-4.39194l-8.78388,13.17582Z" fill="#2f2e41"/><g><polygon points="316.26263 294.38178 303.24435 300.13834 274.84276 252.66561 294.05629 244.16895 316.26263 294.38178" fill="#a0616a"/><path d="M271.53169,313.8135h0c-.10339,.86192,.65726,3.15979,1.00839,3.95365h0c1.07928,2.44011,3.9323,3.54335,6.37249,2.46404l40.31435-17.8313c1.66463-.73628,2.41729-2.68263,1.68098-4.34734l-.74237-1.67841s-.23691-5.92661-7.09294-10.32816c0,0-2.94976,7.12565-13.9479,2.87302l-4.05045-3.07902-11.01183,19.10382-8.531,5.10113c-1.86642,1.116-3.74057,1.6094-3.99955,3.76851l-.00016,.00007Z" fill="#2f2e41"/></g><path d="M389.58418,163.82899l4.66175,14.09538v48.45286l-15.22717,43.89511,1.24191,102.34443h-27.32203l-3.08336-104.39389,2.43488-51.5607-18.64701-7.76959-48.97899,3.02294,22.90499,56.30734-25.20528,16.81167s-37.69779-85.91206-32.0572-94.23531c5.6406-8.32325,71.68199-23.00593,71.68199-23.00593,0,0,67.59551-2.41041,67.59551-3.96432Z" fill="#2f2e41"/><g><path d="M403.56944,107.88796l7.51264,12.30434s10.62048,41.74319,0,41.91298c-10.62048,.16979-32.06331-21.27305-32.06331-21.27305l2.79583-11.18943,7.76959,3.10783-1.55392-24.86268h15.53917Z" fill="#a0616a"/><path d="M380.26067,76.61384s24.86268-4.38033,27.19356,11.89297,3.62785,31.68549,3.62785,31.68549l-26.93661,2.23151-3.88479-45.80998Z" fill="#e6e6e6"/><ellipse cx="374.22905" cy="131.32438" rx="7.01522" ry="14.03044" transform="translate(50.16251 359.96022) rotate(-54.54076)" fill="#a0616a"/></g><path d="M590.4806,302.94602c-3.16093,.3401-6.60921,.85055-10.27718,1.59744-15.55246,3.16687-15.87526,13.72736-15.73896,16.14847l-.10566-.06586c-1.56382,2.50859-2.54325,5.0473-3.13519,7.44337l-.71221-32.36652c.46052-.9602,.87954-2.04896,1.22889-3.16494,1.16419,3.58504,3.07256,6.97195,4.7176,6.74748,2.13909-.2919,3.07167-6.58596,2.67265-11.05881,2.72016,3.50314,7.2981,7.24972,9.02511,6.09446,1.38001-.92313,.56173-4.72359-.94492-8.17871,3.13929,1.89132,6.61613,3.13439,7.69503,1.93342,1.47227-1.63885-2.05557-7.23082-5.30905-10.35235,4.35496,.40613,9.89372-.28771,10.25684-2.26977,.2992-1.6331-2.99722-3.69384-6.5255-5.02014,3.5439-.93441,6.85789-2.56256,6.74798-4.17324-.13057-1.91338-5.05068-3.19543-9.29526-3.39051,3.20154-2.50471,6.14321-5.96711,5.24362-7.53303-.82704-1.43962-4.67439-.88198-8.22406,.38596,2.10064-3.00326,3.5775-6.38742,2.45277-7.54556-1.40106-1.44266-6.37359,1.04738-9.76711,3.79978,.66062-4.28797,.32665-9.70052-1.59659-10.19022-1.60895-.40967-3.88929,2.73886-5.4527,6.16866-.69097-3.59931-2.08979-7.01645-3.7042-7.01645-2.29982,0-4.16418,6.93399-4.16418,11.45149,0,.25536,.00677,.49574,.01843,.72541-.23083-.26761-.49538-.54719-.79707-.84018-3.24076-3.14728-9.51391-6.64064-11.11616-4.99082-1.12474,1.15814,.35212,4.5423,2.45277,7.54556-3.54967-1.26794-7.39702-1.82559-8.22406-.38596-1.11127,1.93439,3.63883,6.76323,7.4999,9.10499-.2321-.02796-.47595-.0515-.73547-.0692-4.50701-.30752-11.55183,1.08049-11.7084,3.37497-.10991,1.61067,3.20409,3.23883,6.74798,4.17324-3.52829,1.3263-6.8247,3.38704-6.5255,5.02014,.36312,1.98206,5.90188,2.6759,10.25684,2.26977-3.25348,3.12154-6.78132,8.7135-5.30905,10.35235,1.0789,1.20097,4.55573-.0421,7.69503-1.93342-1.50665,3.45512-2.32492,7.25558-.94492,8.17871,1.82373,1.21996,6.82541-3.02601,9.4625-6.67949-.2687,4.46965,.80077,10.61004,2.9228,10.85236,.88742,.10134,1.82777-.84507,2.67643-2.3023l-2.40356,34.79012c-.56184,4.05159,3.03199,6.69542,3.35318,8.36434l.51842,23.5593c-.58508-1.67794-1.37316-3.3952-2.43548-5.09933l-.10566,.0659c.13628-2.42136-.18675-12.98155-15.73896-16.14836-3.66797-.74689-7.11625-1.25734-10.27718-1.59744-3.73116-.40145-5.1866,4.70611-1.81595,6.35581,4.88144,2.38917,9.4733,5.39935,11.86668,8.96403,6.11901,9.11359,14.5737,3.84542,15.77578,3.0275,1.34266,2.23509,2.22306,4.48687,2.77913,6.62945l.27531,12.51144c-.06744,.2959-.11414,.46159-.11777,.47403l.12902,.03782,.66628,30.27884,6.18057-.04965-2.21068-30.94947c.37149-1.66957,1.51435-7.35722,0-13.26406l-2.21068-24.31744h0c-.0055-.01877,.12548,.63842,0,0l-2.8837-9.55504c.41933-2.95604,1.3925-6.28098,3.36894-9.57097,1.20206,.81791,9.65677,6.08611,15.77579-3.0275,2.39338-3.56469,6.98524-6.57486,11.86668-8.96403,3.37065-1.64971,1.91521-6.75726-1.81595-6.35581Zm-28.23342,71.6385l-.11651-5.2952c.23499,2.00214,.2231,3.80933,.11651,5.2952Z" fill="#f2f2f2"/><g><path d="M414.42581,23.71635c5.33865-2.01928,5.01891-5.0777,12.22472-9.00768,3.09003-1.68527,5.55645-3.03044,9.00768-3.21703,6.08919-.3292,10.73032,3.19225,14.15493,5.79065,4.98624,3.78327,7.62694,8.02801,9.00768,10.2945,2.31601,3.80161,3.38487,6.97377,4.50384,10.2945,1.6459,4.88459,2.27588,8.54155,3.21703,14.15493,1.40462,8.37777,2.10686,12.56664,1.28681,16.08515-1.52055,6.52391-4.86678,6.97668-4.50384,10.9379,.61301,6.69142,10.33667,7.31254,11.58131,14.15493,1.03234,5.67536-4.33694,12.50662-10.2945,14.79834-3.61562,1.39084-6.94481,.9161-16.08515-1.93022-24.24656-7.55042-28.13739-12.71648-36.03074-10.2945-4.48939,1.37751-6.94434,4.18811-13.51153,4.50384-4.1995,.20191-9.26679-.6555-9.65109-2.57362-.48884-2.43977,7.1447-3.87076,7.72087-8.36428,.60461-4.71531-7.35417-6.62509-7.72087-12.22472-.35925-5.48568,7.1092-6.24543,10.9379-14.79834,1.92574-4.30191,1.71274-10.15988,1.28681-21.87581-.32869-9.04114-1.20474-12.53874,1.28681-14.79834,2.80351-2.54248,5.64402,.3155,11.58131-1.93022Z" fill="#2f2e41"/><g><polygon points="518.5126 405.23149 529.25616 402.90915 525.41339 360.3641 509.5568 363.79122 518.5126 405.23149" fill="#a0616a"/><path d="M555.26952,397.03473h0c.45625,.49112,1.02565,2.27139,1.16721,2.92658h0c.43512,2.01388-.84469,3.99921-2.85863,4.43434l-33.27226,7.18877c-1.37386,.29683-2.72828-.57625-3.02513-1.95017l-.29929-1.38523s-2.54547-3.80772-.26548-9.67142c0,0,5.07986,3.1081,10.0135-4.54503l1.12947-3.76301,15.55666,6.92236,7.64424-.69226c1.6724-.15147,3.06668-.69516,4.20959,.53511l.00013-.00003Z" fill="#2f2e41"/></g><g><polygon points="537.72969 401.97665 546.69283 395.61429 526.4195 358.01322 513.19049 367.4031 537.72969 401.97665" fill="#a0616a"/><path d="M568.29634,379.97806h0c.61269,.27198,1.83665,1.6846,2.2246,2.23124h0c1.19243,1.68022,.79705,4.00898-.88322,5.20145l-27.7597,19.70078c-1.14623,.81347-2.73494,.54375-3.54845-.60254l-.82021-1.15572s-3.83839-2.49898-4.04955-8.78681c0,0,5.89305,.85857,7.41738-8.1185l-.44231-3.90389,17.02556,.24276,6.75522-3.64426c1.47789-.79731,2.54578-1.84575,4.08057-1.16444l.00011-.00008Z" fill="#2f2e41"/></g><path d="M408.60499,191.63158s-16.71444,22.72462,16.71444,48.27336l68.25063-21.80883-24.37522-50.83975-21.58948-11.83939-39.00036,36.21462Z" fill="#2f2e41"/><polyline points="493.57005 218.09611 520.03458 269.6323 536.74902 376.88328 515.85597 378.27615 494.96292 276.59665 458.05187 221.57829 483.81997 209.73889" fill="#2f2e41"/><path d="M425.31943,223.71694v16.188l47.35758,52.01327s0,39.00036,18.10731,57.10767l20.89305,32.03601,18.10731-9.75009-26.46453-93.32229-47.35758-61.28628-30.64314,7.0137Z" fill="#2f2e41"/><path d="M458.97238,63.22867l-8.9213,34.01246-34.01246-6.69098s13.38195-24.53358,10.03646-35.68521l32.8973,8.36372Z" fill="#a0616a"/><circle cx="444.4202" cy="43.7345" r="25.9174" fill="#a0616a"/><path d="M432.98021,68.36259l20.89305,9.75009s10.74813,6.56952,10.94554,10.94554-1.19546,25.26907-1.19546,25.26907c0,0,8.35722,8.35722,2.78574,25.07166l2.78574,27.8574-62.67915,33.42888,5.57148-58.50054-2.78574-54.32193,23.67879-19.50018Z" fill="#3f3d56"/><g><path id="uuid-2b59da8c-8513-438e-9dd8-4e92e54f54f8" d="M414.22601,226.8735c2.44625,5.61267,7.32512,8.9,10.89681,7.3426,3.57168-1.5574,4.48319-7.36904,2.03532-12.98338-.94706-2.25611-2.42065-4.25262-4.29748-5.82247l-10.66518-23.65021-10.99167,5.24142,11.68095,22.75845c-.12744,2.44429,.33248,4.88356,1.34127,7.11359Z" fill="#a0616a"/><path d="M425.31943,91.34495s-15.32157-9.75009-20.89305,1.39287c-5.57148,11.14296-18.10731,68.25063-18.10731,68.25063l18.10731,54.32193,16.71444-6.96435-14.62513-58.46215,18.80374-58.53892Z" fill="#3f3d56"/></g><g><path id="uuid-cab51343-2def-457d-9097-cc09917de548" d="M503.84573,218.10531c4.34193,4.3167,10.08872,5.57542,12.83544,2.81173,2.74672-2.76368,1.45308-8.50237-2.89097-12.82002-1.71161-1.74853-3.81708-3.06173-6.14024-3.82974l-18.6279-18.05769-8.28762,8.92215,19.24369,16.85443c.78201,2.31933,2.10822,4.41759,3.86761,6.11913Z" fill="#a0616a"/><path d="M464.22958,88.02221s-26.71193-1.09243-27.78643,11.31936c-1.0745,12.41178,17.18611,67.79371,17.18611,67.79371l36.84618,43.83042,12.97314-12.63219-35.1342-48.96229-4.0848-61.34901Z" fill="#3f3d56"/></g><path d="M434.77214,66.59976c-1.25166-1.29389-6.61957-2.68541-4.99028-5.93878,.53502-1.06832,1.91711-1.7976,3.04316-1.65662,2.13448,.26728,2.70299,3.58089,3.64916,3.45484,1.24912-.16642,1.60361-6.12099,1.7554-12.51845,.24671-10.39727-.29051-11.48565,1.04071-13.08163,1.2252-1.46892,2.11469-1.0677,15.82178-3.17163,4.62786-.71033,6.13566-1.00306,8.38186-.34583,4.27068,1.24961,5.87355,4.37174,7.5585,3.63926,1.6226-.70538,2.01191-4.41623,1.08354-7.2555-1.32618-4.05586-5.26395-6.09654-8.013-7.47285-7.01821-3.5137-12.10425-2.37113-12.8972-4.95005-.59411-1.93244,2.17838-2.84469,2.43715-6.76807,.27751-4.2069-2.64011-7.25193-2.8258-7.43992-1.8335-1.85603-3.93647-2.42791-4.85127-2.6644-1.28099-.33116-2.78293-.71946-4.54827-.10868-.35313,.12216-2.53007,.91169-3.53059,3.01023-.95485,2.00273-.09633,3.64179-.82336,3.98509-.82522,.38968-1.88046-1.74642-4.85127-2.6644-.62698-.19372-1.50722-.45617-2.63148-.33593-2.35942,.25234-3.84543,1.98169-4.24527,2.44705-1.03752,1.20742-1.36678,2.39677-2.02547,4.77552-.33904,1.22434-.72953,2.67314-.74761,4.62402-.01215,1.30976-.02321,2.50131,.4545,3.83359,0,.00006,.77694,2.16702,5.23002,5.85906h0c-.00009-.00009-1.86451-1.85006-2.78298-1.61379-1.57146,.40424-7.67123,2.46251-10.66751,8.39175-1.35503,2.68137-2.23714,2.267-3.30333,4.92702-.25098,.62622-2.08855,5.4149-.06585,10.3744,1.54711,3.79332,3.58547,3.35391,4.74259,7.21267,.55315,1.84444,.08233,1.92794,.83326,7.02824,.43167,2.93189,4.24104,.59887,4.90079,1.85014,.4458,.84556-6.25597,25.68755-2.61561,29.12815,3.56651,3.37075,19.18218-22.73137,15.48373-26.55452Z" fill="#2f2e41"/></g><g><path d="M437.94325,168.77684l-22.31262-67.72848c-18.03755-15.89486-37.60581,22.37534-90.1362,.68176l16.5223,76.61104c39.71683-21.4702,73.90306-29.87926,95.92652-9.56432Z" fill="#fff"/><path d="M342.01662,179.34131c-.14258,0-.28516-.03027-.41797-.0918-.28613-.13135-.49316-.38965-.55957-.69727l-16.52246-76.61133c-.07812-.36328,.05078-.74023,.33691-.97852,.28516-.23828,.67871-.29834,1.02246-.15674,29.8418,12.32422,49.10352,4.98682,63.16504-.37109,10.69141-4.07373,19.13379-7.28809,27.25098-.13672,.13379,.11768,.2334,.26855,.28906,.4375l22.3125,67.72852c.14258,.43262-.02539,.90723-.40918,1.15381-.38281,.24561-.88574,.20264-1.21875-.10596-19.36328-17.86084-49.47852-14.77734-94.77344,9.70947-.14844,.08008-.31152,.12012-.47559,.12012Zm-15.14746-75.979l15.84473,73.46826c43.46094-23.2749,73.22754-26.86182,93.16211-11.13428l-21.1084-64.07373c-7.15137-6.12402-14.6582-3.26367-25.01367,.68115-14.10059,5.37158-33.30762,12.68994-62.88477,1.05859Z" fill="#3f3d56"/></g><g><path d="M298.5888,108.88796l-7.51264,12.30434s-10.62048,41.74319,0,41.91298,32.06331-21.27305,32.06331-21.27305l-2.79583-11.18943-7.76959,3.10783,1.55392-24.86268h-15.53917Z" fill="#a0616a"/><path d="M321.89756,77.61384s-24.86268-4.38033-27.19356,11.89297c-2.33088,16.27331-3.62785,31.68549-3.62785,31.68549l26.93661,2.23151,3.88479-45.80998Z" fill="#e6e6e6"/><ellipse cx="327.92919" cy="132.32438" rx="14.03044" ry="7.01522" transform="translate(-15.94296 214.78186) rotate(-35.45924)" fill="#a0616a"/></g><circle cx="585.62739" cy="409.65421" r="8.43804" fill="#3f3d56"/><circle cx="596.87811" cy="422.74931" r="8.43804" fill="#3f3d56"/><circle cx="681.25852" cy="422.74931" r="8.43804" fill="#3f3d56"/><path d="M609.23818,296.44321v-91.64795c0-10.26025,8.58068-12.79527,18.84094-12.79527,5.02832,0,7.47363-.58447,11,3,3.52588,3.58447,7.45496,5.0731,7.37244,10.10093l-1.47656,89.93018-35.73682,1.41211Zm19.84094-98.44321c-9.15771,0-17.84094-2.36245-17.84094,6.79527v89.56787l31.76807-1.25586,1.44531-88.03955c.07373-4.48682-7.22547-3.86851-10.37244-7.06773-3.14746-3.19922-.51221,0-5,0Z" fill="#3f3d56"/><path d="M584.12362,295.34035l-1.28372,100.13044c-.01652,1.28895,.29088,2.56141,.89401,3.70066l9.45952,17.86799c1.3914,2.62821,4.17212,4.21999,7.14303,4.08892l83.06468-3.66462c4.2518-.18758,7.54468-3.78952,7.3511-8.04105l-5.20589-114.33381c-.1872-4.11128-3.57487-7.34821-7.6904-7.34821h-86.03459c-4.2132,0-7.64373,3.38683-7.69774,7.59968Z" fill="#e6e6e6"/><path d="M616.8622,340.52818l-1.99707-.09961,.74121-14.82031c.39893-7.98242,6.97021-14.37988,14.96045-14.56641l35.37402-.82227c7.14453-.125,13.05762,5.29492,13.4541,12.43359l.75244,13.55078-1.99707,.11133-.75244-13.55078c-.33594-6.05469-5.38623-10.69141-11.41016-10.54492l-35.37402,.82227c-6.94824,.16113-12.66309,5.72559-13.01025,12.66602l-.74121,14.82031Z" fill="#3f3d56"/><path d="M615.45205,412.30357l-1.98926-.20312,4.31396-42.06348c.79785-7.77832,7.28906-13.90723,15.09912-14.25684l34.50098-1.54688c4.34619-.19629,8.47656,1.34277,11.63525,4.33203,3.15918,2.98926,4.92432,7.0293,4.97021,11.37793l.38574,36.62207-2,.02148-.38574-36.62207c-.04004-3.80176-1.58301-7.33398-4.34473-9.94629s-6.38574-3.95996-10.1709-3.78711l-34.50098,1.54688c-6.82764,.30566-12.50195,5.66309-13.19971,12.46191l-4.31396,42.06348Z" fill="#3f3d56"/><path d="M599.98769,409.4022l-2-.02539,1.26465-96.12012c.08643-6.57324,5.30078-11.87305,11.87109-12.06641l67.99609-2.00293,.05859,2-67.99609,2.00293c-5.49561,.16113-9.85742,4.59473-9.92969,10.0918l-1.26465,96.12012Z" fill="#3f3d56"/><path d="M600.16675,395.70477h-1.39v-87.54c0-2.77-2.25-5.03-5.03-5.03h-7.77v-2h7.77c3.67,0,6.69,2.83,7,6.41,.02,.2,.03,.41,.03,.62v41.45l-.61,46.09Z" fill="#3f3d56"/></svg>