<svg id="b904b1fc-2438-4085-8361-d165edf61501" data-name="Layer 1" xmlns="http://www.w3.org/2000/svg" width="1016.04774" height="688.3355" viewBox="0 0 1016.04774 688.3355"><title>tutorial_video</title><path d="M611.42193,761.8529l-1.26718-.47505c-.27845-.10492-27.99251-10.72311-40.975-34.79938-12.983-24.07743-6.62585-53.06673-6.56012-53.35614l.29921-1.32021,1.26659.47505c.27846.10492,27.99194,10.72311,40.975,34.79938,12.983,24.07742,6.62584,53.06673,6.56012,53.35613Zm-40.16325-36.39517c10.9762,20.35662,32.87672,30.79147,38.42564,33.17362,1.055-5.94729,4.36362-29.997-6.60278-50.33406-10.96525-20.33471-32.87442-30.78571-38.42565-33.17362C563.6003,681.07442,560.29286,705.12186,571.25868,725.45773Z" transform="translate(-91.97613 -105.83225)" fill="#3f3d56"/><path d="M579.10139,718.13289c23.33121,14.03683,32.31679,41.91784,32.31679,41.91784s-28.84178,5.12282-52.173-8.914-32.31679-41.91784-32.31679-41.91784S555.77018,704.09607,579.10139,718.13289Z" transform="translate(-91.97613 -105.83225)" fill="#d0cde1"/><path d="M1023.2317,760.53268c-.06572-.2894-6.42291-29.27871,6.56013-53.35613,12.983-24.07627,40.69652-34.69446,40.975-34.79938l1.2666-.47505.29921,1.32021c.06572.28941,6.42291,29.27871-6.56013,53.35614-12.98246,24.07627-40.69652,34.69446-40.975,34.79938l-1.26717.47505Zm47.06467-85.409c-5.55123,2.38791-27.46039,12.83891-38.42564,33.17362-10.9664,20.337-7.6578,44.38677-6.60279,50.33406,5.54893-2.38215,27.44944-12.817,38.42564-33.17362C1074.65941,705.12186,1071.352,681.07442,1070.29637,675.12367Z" transform="translate(-91.97613 -105.83225)" fill="#3f3d56"/><path d="M1055.85088,718.13289c-23.33121,14.03683-32.3168,41.91784-32.3168,41.91784s28.84178,5.12282,52.173-8.914,32.3168-41.91784,32.3168-41.91784S1079.18209,704.09607,1055.85088,718.13289Z" transform="translate(-91.97613 -105.83225)" fill="#6c63ff"/><rect x="424.49316" y="653.51417" width="556.10756" height="2.36139" fill="#3f3d56"/><polygon points="661.672 576.991 644.89 642.658 649.998 647.766 680.642 617.121 689.398 587.206 661.672 576.991" fill="#a0616a"/><polygon points="788.629 576.991 771.847 642.658 776.955 647.766 807.6 617.121 816.355 587.206 788.629 576.991" fill="#a0616a"/><path d="M893.73855,346.45961l-100.69012,18.241-.72963,9.4853L746.35157,685.7415s53.26361,26.99663,87.55662,13.86314l13.86313-215.24336,18.9706,215.24336s43.04867,22.61879,72.23421-8.026C938.97613,691.57861,920.73517,363.97093,893.73855,346.45961Z" transform="translate(-91.97613 -105.83225)" fill="#2f2e41"/><path d="M777.726,710.54921l-32.83374-2.91855L730.29952,755.7868s-9.167,12.32809-14.39321,23.87635a10.29346,10.29346,0,0,0,10.554,14.43894c9.91519-1.096,21.86865-3.18147,23.53947-6.94084a159.69357,159.69357,0,0,0,5.83711-16.78168l8.026,5.10747,5.8371-2.91856,3.6482-28.4559s6.56674-7.29638.72963-20.42987Z" transform="translate(-91.97613 -105.83225)" fill="#2f2e41"/><path d="M904.68312,710.54921l-32.83373-2.91855L857.25662,755.7868s-9.167,12.32809-14.39321,23.87635a10.29345,10.29345,0,0,0,10.554,14.43894c9.91519-1.096,21.86864-3.18147,23.53947-6.94084a159.6961,159.6961,0,0,0,5.83711-16.78168l8.026,5.10747,5.83711-2.91856,3.64819-28.4559s6.56675-7.29638.72964-20.42987Z" transform="translate(-91.97613 -105.83225)" fill="#2f2e41"/><circle cx="739.37832" cy="57.85292" r="36.48192" fill="#a0616a"/><path d="M828.80072,192.50589s8.026,21.88915-2.18892,26.99662a99.33568,99.33568,0,0,1-19.70023,7.29639l1.45927,33.56337L844.85277,309.248l43.04867-82.44914s-23.34843,6.56674-26.99663-45.23759Z" transform="translate(-91.97613 -105.83225)" fill="#a0616a"/><path d="M765.32217,358.86346l-8.026,93.39373s-16.05205,55.45252,5.83711,48.88578,10.21494-51.80434,10.21494-51.80434l19.70023-90.47517Z" transform="translate(-91.97613 -105.83225)" fill="#a0616a"/><path d="M842.66385,291.73672l-15.32241-48.88578-4.37783,5.10747s-24.409-11.88526-3.44886-25.278c0,0-46.16655,3.3889-46.16655,17.98167s20.42987,59.83035,20.42987,59.83035-5.8371,67.12674-2.18891,67.12674,100.69011-19.70024,100.69011-19.70024l2.91855-34.293s28.4559-64.20819,20.42988-74.42313S879.49114,222.311,877.12954,224.555c0,0,15.14973,12.45888-24.25075,29.97021l2.91855,5.83711Z" transform="translate(-91.97613 -105.83225)" fill="#d0cde1"/><path d="M776.99639,237.74347s-8.75566,8.026-8.75566,30.64482-5.10747,68.586-5.10747,68.586l-8.026,26.267,29.91518,1.45928,8.75566,5.83711s11.67422-80.98987,13.1335-83.17879S776.99639,237.74347,776.99639,237.74347Z" transform="translate(-91.97613 -105.83225)" fill="#d0cde1"/><path d="M907.60168,237.01383s12.40385-2.18891,14.59277,18.97061,3.64819,94.853,3.64819,94.853,10.21494,5.10747,5.10747,13.86313-10.94458,10.94458-10.94458,10.94458l-21.88915-13.1335-4.37783-67.12674Z" transform="translate(-91.97613 -105.83225)" fill="#d0cde1"/><path d="M902.49421,361.05238s-31.37446,13.13349-26.99663,18.9706S890.82,378.5637,890.82,378.5637s11.67422,30.64482,18.241,24.07807,10.94458-32.10409,10.94458-32.10409Z" transform="translate(-91.97613 -105.83225)" fill="#a0616a"/><path d="M897.54208,346.45961s11.69906-15.68723,28.20824,0C925.75032,346.45961,908.27718,338.7984,897.54208,346.45961Z" transform="translate(-91.97613 -105.83225)" opacity="0.2"/><path d="M826.9116,170.46791c-2.30395-3.36495-1.294-8.04065-2.943-11.77055-2.58934-5.85711-10.225-7.059-16.61735-7.44428-4.249-.25611-8.562-.50757-12.72716.34234a12.21959,12.21959,0,0,0-8.67239,6.614c-.898,1.91571-.80345-4.0207-.3832-11.64847a36.81091,36.81091,0,0,1,27.42517-33.60608q.13443-.035.26644-.06888c7.72355-1.97987,15.70015-3.49242,23.63916-2.75412s15.91256,3.96452,21.00462,10.1c2.32729,2.80418,4.00562,6.13677,6.59,8.706,4.54069,4.51406,11.147,6.03665,17.22989,8.03486,6.87948,2.25986,13.59067,5.426,18.92914,10.31831s9.20285,11.67995,9.4874,18.9155c.33193,8.44016-4.828,17.28372-13.44211,19.158a9.71918,9.71918,0,0,0-4.10672,1.89149c-8.10847,6.60747,1.48064,13.08651,1.59,20.30129.09126,6.02023-6.51421,10.10531-12.52,10.53158-11.18554.79392-22.302-7.60644-24.5924-18.58372-1.026-4.91757-.449-10.00779.01991-15.00932.53674-5.72521-12.083-18.87-3.72318-9.21365a14.1348,14.1348,0,0,1,3.26323,6.46242c1.5423,7.83857-5.55653,10.6597-9.96792,15.13062a18.72208,18.72208,0,0,0-4.064,19.37519c-7.777-6.32613-9.85246-18.6265-4.58175-27.15419,1.401-2.26677,3.22871-4.25356,4.55335-6.5658,2.067-3.608,2.47342-11.35675-3.54792-10.9984C834.72294,171.78775,830.34135,175.47711,826.9116,170.46791Z" transform="translate(-91.97613 -105.83225)" fill="#2f2e41"/><rect x="736" width="20" height="60" rx="6.09449" fill="#d0cde1"/><circle cx="746" cy="69" r="18" fill="#6c63ff"/><circle cx="746" cy="69" r="9" fill="#d0cde1"/><circle cx="746" cy="69" r="4" fill="#6c63ff"/><rect y="104" width="598" height="321" fill="#3f3d56"/><rect x="30" y="390" width="545" height="13" fill="#d0cde1"/><rect x="30" y="390" width="314" height="13" fill="#6c63ff"/><polygon points="30 380.445 29.974 362.437 50.36 371.412 30 380.445" fill="#6c63ff"/><rect x="62" y="362" width="7" height="18" fill="#6c63ff"/><rect x="76" y="362" width="7" height="18" fill="#6c63ff"/><path d="M656.97613,459.83225h-532v-221h532Zm-530-2h528v-217h-528Z" transform="translate(-91.97613 -105.83225)" fill="#d0cde1"/><circle cx="300" cy="245" r="47" fill="#6c63ff"/><rect x="357.02387" y="210.16775" width="60" height="2" fill="#d0cde1"/><rect x="178.02387" y="289.16775" width="60" height="2" fill="#d0cde1"/><path d="M531,326a9,9,0,1,1,9-9A9.01016,9.01016,0,0,1,531,326Zm0-16a7,7,0,1,0,7,7A7.00818,7.00818,0,0,0,531,310Z" transform="translate(-91.97613 -105.83225)" fill="#d0cde1"/><path d="M531,415a9,9,0,1,1,9-9A9.00984,9.00984,0,0,1,531,415Zm0-16a7,7,0,1,0,7,7A7.0085,7.0085,0,0,0,531,399Z" transform="translate(-91.97613 -105.83225)" fill="#d0cde1"/><path d="M563,415a9,9,0,1,1,9-9A9.00984,9.00984,0,0,1,563,415Zm0-16a7,7,0,1,0,7,7A7.0085,7.0085,0,0,0,563,399Z" transform="translate(-91.97613 -105.83225)" fill="#d0cde1"/><path d="M499,415a9,9,0,1,1,9-9A9.01016,9.01016,0,0,1,499,415Zm0-16a7,7,0,1,0,7,7A7.00818,7.00818,0,0,0,499,399Z" transform="translate(-91.97613 -105.83225)" fill="#d0cde1"/><path d="M245,405a9,9,0,1,1,9-9A9.01016,9.01016,0,0,1,245,405Zm0-16a7,7,0,1,0,7,7A7.00818,7.00818,0,0,0,245,389Z" transform="translate(-91.97613 -105.83225)" fill="#d0cde1"/><path d="M213,405a9,9,0,1,1,9-9A9.01016,9.01016,0,0,1,213,405Zm0-16a7,7,0,1,0,7,7A7.00818,7.00818,0,0,0,213,389Z" transform="translate(-91.97613 -105.83225)" fill="#d0cde1"/><rect x="438.02387" y="228.16775" width="2" height="50" fill="#d0cde1"/></svg>