<svg id="af8c1fce-8fa6-4c7f-8be2-90aae8b19c8f" data-name="Layer 1" xmlns="http://www.w3.org/2000/svg" width="991.77597" height="552.06234" viewBox="0 0 991.77597 552.06234"><title>unDraw_1000</title><rect x="13.77597" y="547.80529" width="914.99951" height="2" fill="#3f3d56"/><path d="M706.749,595.37888s0,69.99584,16.06462,88.35541c0,0,3.44241,9.17978,4.58989,12.6222a48.24664,48.24664,0,0,0,2.29494,5.73737v4.58989s30.98177-3.44242,34.42419-11.47473l-5.73736-6.88484s-1.14748-1.14747,0-4.58989a2.3572,2.3572,0,0,0-2.29495-3.44242L748.058,661.9323l1.14747-75.73321-5.73736-104.42-49.34134-2.295Z" transform="translate(-104.11202 -173.96883)" fill="#2f2e41"/><path d="M731.99335,699.79891s-8.03231,24.09693,0,25.2444,78.02816,2.29495,76.88068-6.88483-24.09693-8.03231-24.09693-8.03231L760.68017,695.209Z" transform="translate(-104.11202 -173.96883)" fill="#2f2e41"/><path d="M660.85,481.77906s-2.29495,14.91715,6.88484,30.98177,3.44242,69.99584,3.44242,69.99584L589.70671,653.9s16.06462,27.53935,21.802,26.39188,96.38772-74.58574,96.38772-74.58574L743.46808,486.369Z" transform="translate(-104.11202 -173.96883)" fill="#2f2e41"/><path d="M590.8263,650.85956s-24.65311,6.11589-21.32222,13.51453,39.83379,67.13367,46.973,61.2501-6.11589-24.65311-6.11589-24.65311l-.30073-28.3389Z" transform="translate(-104.11202 -173.96883)" fill="#2f2e41"/><circle cx="601.48946" cy="94.38028" r="26.39188" fill="#ffb8b8"/><path d="M684.83589,277.66108l1.16731,33.96142,22.2068,8.7742s2.17776-34.77426,5.25189-36.70213S684.83589,277.66108,684.83589,277.66108Z" transform="translate(-104.11202 -173.96883)" fill="#ffb8b8"/><path d="M713.63378,324.57528S682.652,293.59351,674.6197,294.741s-8.03231,4.58989-8.03231,6.88484,2.29495,3.44242,0,4.58989-4.58989,0-4.58989,3.44242-20.65451,37.8666-13.76967,75.73321S663.145,441.61751,659.70256,462.272s-1.14748,25.24441-1.14748,25.24441,86.06047,6.88483,87.20794-1.14748-3.44241-3.44242,2.29495-9.17978,3.44242-5.73737,3.44242-9.17978S726.256,324.57528,713.63378,324.57528Z" transform="translate(-104.11202 -173.96883)" fill="#575a89"/><path d="M697.56916,480.63159s13.76968,33.27671,24.09693,25.2444-4.58989-35.57166-4.58989-35.57166Z" transform="translate(-104.11202 -173.96883)" fill="#ffb8b8"/><path d="M664.29245,326.87022s-26.95992,3.08654-16.92238,52.60581S696.42169,486.369,696.42169,486.369l26.39188-12.6222-34.42419-67.7009,8.03231-42.4565S701.01158,323.4278,664.29245,326.87022Z" transform="translate(-104.11202 -173.96883)" fill="#575a89"/><polygon points="583.704 232.651 621.57 295.762 618.128 299.204 583.704 232.651" opacity="0.2"/><polygon points="563.66 262.061 594.031 311.826 583.704 311.826 563.66 262.061" opacity="0.2"/><path d="M693.65616,284.20786c2.13659-1.12967,4.61849-1.36258,6.93109-2.06474,8.27383-2.51213,13.81645-11.86526,12.04691-20.32906a10.37269,10.37269,0,0,1-.43456-3.35047c.30933-2.50673,2.87431-4.12416,5.33388-4.69851s5.0765-.49093,7.42732-1.41451c3.62972-1.426,6.04078-5.15618,6.56345-9.02078a18.63374,18.63374,0,0,0-2.48916-11.231l-.88843,2.55651a9.48285,9.48285,0,0,1-2.90285-4.34161,5.9805,5.9805,0,0,0-4.55669,3.66433c-1.42606.84091-1.63149-2.61245-3.20668-3.1219a2.82936,2.82936,0,0,0-1.9661.48494c-3.174,1.48039-6.8618.21466-10.26662-.60593a38.64794,38.64794,0,0,0-17.941-.02112c-3.9192.9348-7.79852,2.56263-10.603,5.45555a25.44158,25.44158,0,0,0-4.96005,8.52306c-3.00791,7.57-4.995,15.761-4.002,23.8459a33.75341,33.75341,0,0,0,7.95445,17.8837c2.27111,2.61668,9.68079,11.74553,13.74364,10.18915C694.54479,294.65578,687.64115,287.38818,693.65616,284.20786Z" transform="translate(-104.11202 -173.96883)" fill="#2f2e41"/><rect x="679.67422" y="565.52734" width="84.73357" height="1.63275" transform="translate(-168.54043 865.19015) rotate(-69.12314)" opacity="0.2"/><circle cx="609.35909" cy="155.27434" r="1.63236" fill="#d0cde1"/><line x1="609.35909" y1="155.27434" x2="623.23417" y2="200.16429" fill="#d0cde1"/><path d="M727.34618,374.9493a.81577.81577,0,0,1-.77951-.57547l-13.87508-44.88955a.816.816,0,1,1,1.559-.48222l13.87507,44.89035a.81685.81685,0,0,1-.77952,1.05689Z" transform="translate(-104.11202 -173.96883)" fill="#d0cde1"/><polygon points="241.269 482.563 237.188 532.35 252.696 532.35 260.858 482.563 241.269 482.563" fill="#ffb8b8"/><polygon points="340.843 482.563 336.762 532.35 352.27 532.35 360.432 482.563 340.843 482.563" fill="#ffb8b8"/><path d="M452.09429,382.93181l-1.5705,23.74367-8.84157,71.74341s-11.12945,33.80072,4.876,30.2021,10.86969-31.99427,10.86969-31.99427l10.38587-67.0962,4.15149-23.74129Z" transform="translate(-104.11202 -173.96883)" fill="#ffb8b8"/><polygon points="361.656 175.271 369.002 220.977 343.7 218.528 351.046 173.638 361.656 175.271" fill="#575a89"/><circle cx="326.96825" cy="111.20058" r="22.85306" fill="#ffb8b8"/><path d="M446.17961,292.92312s7.34563,16.32362,11.42653,25.30161,3.26473,10.61035,3.26473,10.61035H427.40745s3.26472-22.85306,0-25.30161S446.17961,292.92312,446.17961,292.92312Z" transform="translate(-104.11202 -173.96883)" fill="#ffb8b8"/><path d="M440.46634,411.26935s45.70613-56.31648,22.85307-85.699c1.26367-.78761-7.906-11.37348-13.87508-8.978-1.07121.42988-23.66924,4.89708-26.934,8.16181s-17.54788,19.99643-17.54788,19.99643-8.16181,9.79417-11.42654,31.01487-10.20226,32.23915-10.20226,32.23915" transform="translate(-104.11202 -173.96883)" fill="#575a89"/><path d="M383.33368,408.00463l-1.63236,13.05889L347.82981,548.79583l-17.54788,113.041c8.3983,13.7465,26.56909,15.94113,53.86793,7.34563L389.455,557.77382l24.48542-61.21357,10.20227,172.62226c22.18356,7.37257,42.198,5.79735,60.39738-3.26473L453.93333,483.50136s15.09934-26.52588-11.83462-60.80548l-1.63237-11.42653" transform="translate(-104.11202 -173.96883)" fill="#2f2e41"/><path d="M407.81911,378.62212l-8.978,22.03688-31.01487,65.29447s-21.22071,28.56633-4.89709,30.19869,20.40452-26.934,20.40452-26.934l31.01488-60.39738,11.42653-21.22071Z" transform="translate(-104.11202 -173.96883)" fill="#ffb8b8"/><path d="M360.07253,687.54658V700.7219s9.411,21.64518,2.82328,23.52737-24.46846,0-27.29175,0-32.93832,2.82329-31.99722-5.64657,20.70408-14.11642,20.70408-14.11642l17.88081-16.9397Z" transform="translate(-104.11202 -173.96883)" fill="#2f2e41"/><path d="M460.46277,687.54658V700.7219s9.411,21.64518,2.82329,23.52737-24.46847,0-27.29175,0-32.93832,2.82329-31.99722-5.64657,20.70408-14.11642,20.70408-14.11642l17.8808-16.9397Z" transform="translate(-104.11202 -173.96883)" fill="#2f2e41"/><path d="M435.56926,322.30563s-16.32362,4.08091-23.66925,30.1987-8.978,30.19869-8.978,30.19869l24.48543,11.42653,17.956-35.912S455.97378,327.20272,435.56926,322.30563Z" transform="translate(-104.11202 -173.96883)" fill="#575a89"/><path d="M406.66557,278.17345s-4.46565-34.75367,31.971-23.35713c0,0,26.02333-4.7749,34.5574,27.7763l8.64131,34.12169L477.624,314.4221l-1.96335,4.29167L468.8363,320.442l-2.9203-5.79625-1.41271,7.03882-55.895,5.57227s25.03427-14.8051,25.43125-41.33938l-4.7685,5.03907Z" transform="translate(-104.11202 -173.96883)" fill="#2f2e41"/><polygon points="336.762 182.208 319.181 218.241 322.887 219.753 336.762 182.208" opacity="0.2"/><polygon points="316.358 177.311 299.218 209.142 295.953 209.142 316.358 177.311" opacity="0.2"/><polygon points="361.515 193.11 348.946 219.036 356.825 219.036 361.515 193.11" opacity="0.2"/><rect x="760.37432" y="41.1889" width="33.41756" height="2.7848" fill="#3f3d56"/><rect x="804.93106" y="41.1889" width="33.41756" height="2.7848" fill="#3f3d56"/><rect x="869.67757" y="66.94826" width="33.41756" height="2.7848" fill="#3f3d56"/><rect x="914.93051" y="66.94826" width="33.41756" height="2.7848" fill="#3f3d56"/><rect x="850.184" y="41.1889" width="98.16407" height="2.7848" fill="#3f3d56"/><rect x="760.37432" y="66.94826" width="98.16407" height="2.7848" fill="#3f3d56"/><rect x="760.37432" y="92.70763" width="98.16407" height="2.7848" fill="#3f3d56"/><rect x="880.12056" y="92.70763" width="68.22751" height="2.7848" fill="#3f3d56"/><polygon points="750.981 52.945 739.225 41.189 750.981 29.432 753.334 31.784 743.929 41.189 753.334 50.593 750.981 52.945" fill="#6c63ff"/><polygon points="980.019 107.25 977.667 104.897 987.072 95.492 977.667 86.087 980.019 83.735 991.776 95.492 980.019 107.25" fill="#6c63ff"/><rect x="1057.8619" y="267.4498" width="24.00589" height="3.32686" transform="translate(397.9094 1040.97025) rotate(-73.13998)" fill="#d0cde1"/><path d="M146.55863,687.827c5.845,21.60662,25.86543,34.98814,25.86543,34.98814s10.54382-21.64973,4.69882-43.25635-25.86543-34.98814-25.86543-34.98814S140.71363,666.22042,146.55863,687.827Z" transform="translate(-104.11202 -173.96883)" fill="#6c63ff"/><path d="M173.90525,723.537l-.79809-.04358c-.24311-.01294-24.49139-1.50767-40.5323-17.12229-16.04022-15.61461-18.18629-39.81421-18.206-40.05731l-.065-.79605.79809.04358c.24311.01294,24.49139,1.50766,40.53195,17.12228,16.04057,15.6153,18.18664,39.81421,18.20639,40.05732Zm-58.057-56.51634c.526,4.32007,3.6929,24.71645,17.69975,38.35081,14.00685,13.63572,34.47984,16.25269,38.81284,16.66263-.526-4.32075-3.69289-24.71577-17.70008-38.35081h0C140.64366,670.03737,120.17919,667.42857,115.84822,667.02067Z" transform="translate(-104.11202 -173.96883)" fill="#3f3d56"/><path d="M1002.21734,687.827c-5.845,21.60662-25.86543,34.98814-25.86543,34.98814s-10.54382-21.64973-4.69883-43.25635,25.86544-34.98814,25.86544-34.98814S1008.06234,666.22042,1002.21734,687.827Z" transform="translate(-104.11202 -173.96883)" fill="#6c63ff"/><path d="M974.93575,722.741c.01975-.24311,2.16582-24.442,18.20638-40.05732,16.04057-15.61462,40.28885-17.10934,40.532-17.12228l.79809-.04358-.065.79605c-.01975.2431-2.16582,24.4427-18.20605,40.05731-16.0409,15.61462-40.28918,17.10935-40.53229,17.12229l-.79809.04358Zm19.17949-39.05766h0c-14.00719,13.635-17.174,34.03006-17.70009,38.35081,4.333-.40994,24.806-3.02691,38.81285-16.66263,14.00685-13.63436,17.1737-34.03074,17.69974-38.35081C1028.59678,667.42857,1008.1323,670.03737,994.11524,683.6833Z" transform="translate(-104.11202 -173.96883)" fill="#3f3d56"/><path d="M204.06805,305.429,191.006,318.49106l-13.11435-13.11435a34.68957,34.68957,0,0,1,26.17644.05226Z" transform="translate(-104.11202 -173.96883)" fill="#6c63ff"/><path d="M191.006,319.54634l-20.30566-20.29727,20.30566-20.306,20.29764,20.30566Zm-18.194-20.298,18.194,18.18708,18.18671-18.18671-18.18671-18.194Z" transform="translate(-104.11202 -173.96883)" fill="#3f3d56"/><polygon points="91.892 66.647 87.136 72.266 82.381 66.647 82.381 43.856 91.892 43.856 91.892 66.647" fill="#6c63ff"/><path d="M206.38181,199.3315h-5.109a12.0945,12.0945,0,0,0,2.1283-6.86906c0-6.71189-5.44106-18.49361-12.153-18.49361s-12.15295,11.78172-12.15295,18.49361a12.09443,12.09443,0,0,0,2.12831,6.86906h-5.109a3.89981,3.89981,0,0,0-3.88838,3.88838v2.791a3.89981,3.89981,0,0,0,3.88838,3.88838h30.26728a3.89981,3.89981,0,0,0,3.88838-3.88838v-2.791A3.89981,3.89981,0,0,0,206.38181,199.3315Z" transform="translate(-104.11202 -173.96883)" fill="#3f3d56"/><path d="M195.91422,260.67959a4.666,4.666,0,0,1-9.3321,0c0-2.577,4.666-7.77675,4.666-7.77675S195.91422,258.1026,195.91422,260.67959Z" transform="translate(-104.11202 -173.96883)" fill="#6c63ff"/><path d="M191.24817,250.84278l-7.464-6.63456V205.05984h14.92811v39.14838Zm-5.97124-7.30516,5.97124,5.30794,5.97125-5.30794v-36.985H185.27693Z" transform="translate(-104.11202 -173.96883)" fill="#3f3d56"/><rect x="245.68591" y="288.04319" width="27.2204" height="27.2204" transform="translate(530.5678 259.276) rotate(150)" fill="#3f3d56"/><rect x="109.09369" y="285.80397" width="27.2204" height="27.2204" transform="translate(274.56365 323.39367) rotate(150)" fill="#d0cde1"/></svg>