<svg id="fc3b2612-f009-4d6a-acc0-cf254142085c" data-name="Layer 1" xmlns="http://www.w3.org/2000/svg" width="758.80556" height="847.99999" viewBox="0 0 758.80556 847.99999"><ellipse cx="503.12411" cy="812.8167" rx="205.08157" ry="35.18329" fill="#f2f2f2"/><path d="M708.439,855.48182c-142.15124,0-253.5036-19.51788-253.5036-44.43432s111.35236-44.43433,253.5036-44.43433,253.5036,19.51789,253.5036,44.43433S850.59022,855.48182,708.439,855.48182Zm0-86.59c-136.178,0-251.22488,19.30481-251.22488,42.15564S572.261,853.20308,708.439,853.20308,959.664,833.89827,959.664,811.04744,844.61713,768.89186,708.439,768.89186Z" transform="translate(-243.48285 -17.73588)" fill="#f2f2f2"/><path d="M1002.28834,472.74089a345.64,345.64,0,0,1-6.67652,67.83645q-1.02539,5.16129-2.22174,10.27686-.70074,3.07617-1.46972,6.1297-.49567,1.9823-1.02545,3.9649A345.97349,345.97349,0,0,1,809.147,782.733a339.57227,339.57227,0,0,1-45.07239,18.30927q-3.52056,1.14515-7.07525,2.22174H756.988A344.84006,344.84006,0,0,1,657.0677,817.9615q-7.28037.00009-14.35566-.33044a286.20013,286.20013,0,0,1-38.06543-4.22693C450.04932,785.46742,374.3173,633.22853,311.84718,472.74089q-2.32425-5.96444-4.56876-11.84918-.54684-1.45263-1.09372-2.90531C140.023,18.61059,320.22132-92.57775,657.06776,127.52031,816.67817,231.80423,1002.28834,282.08339,1002.28834,472.74089Z" transform="translate(-243.48285 -17.73588)" fill="#f2f2f2"/><path d="M763.67591,678.90272l-1.57941-1.64227c.24811-.2381,24.90088-24.38678,34.29041-69.50873,8.67187-41.67389,5.72675-110.29028-57.549-200.51636-48.52936-69.19949-68.168-129.65692-58.36951-179.69392,8.60736-43.95813,37.88257-63.26854,38.17743-63.45824l1.2345,1.91486c-.2865.18526-28.794,19.04059-37.18994,62.05243-9.641,49.39224,9.87744,109.23883,58.01355,177.87637,28.15033,40.14066,46.8905,79.4502,55.69922,116.83591,7.05859,29.96,7.79345,58.75952,2.18408,85.59863C789.02351,654.11983,763.92847,678.66017,763.67591,678.90272Z" transform="translate(-243.48285 -17.73588)" fill="#f2f2f2"/><path d="M337.17472,411.7975a422.34028,422.34028,0,0,0-29.89633,49.09421q-.54689-1.45263-1.09372-2.90531a432.14336,432.14336,0,0,1,29.12158-47.49917c48.13721-68.64536,67.654-128.48362,58.01526-177.874-8.397-43.02156-36.90329-61.87765-37.18814-62.06l1.2305-1.9141c.29623.19374,29.57727,19.50553,38.17935,63.46137C405.34159,282.14036,385.69932,342.59382,337.17472,411.7975Z" transform="translate(-243.48285 -17.73588)" fill="#f2f2f2"/><path d="M522.09791,784.8622l-1.57938-1.64228c.31265-.30041,31.39426-30.73553,43.23935-87.61139,10.93945-52.51989,7.24439-138.98968-72.47949-252.67019-33.31073-47.49854-56.02692-92.3757-67.5177-133.38367-9.389-33.50766-11.37674-64.6571-5.90811-92.58264,10.811-55.21192,47.557-79.45075,47.92691-79.68884L467.014,139.198c-.36218.23366-36.34045,24.01743-46.93945,78.28247-12.16,62.25824,12.42429,137.67343,73.06973,224.14939,35.41306,50.4971,58.98658,99.94384,70.06617,146.96844,8.87555,37.67059,9.80011,73.87921,2.74823,107.62109C553.93879,753.72944,522.415,784.55733,522.09791,784.8622Z" transform="translate(-243.48285 -17.73588)" fill="#fff"/><circle cx="214.04988" cy="148.616" r="88.20127" fill="#fff"/><circle cx="105.01666" cy="238.40157" r="88.20128" fill="#fff"/><circle cx="154.50874" cy="373.98351" r="88.20129" fill="#fff"/><circle cx="242.71003" cy="449.70434" r="88.20129" fill="#fff"/><circle cx="343.08858" cy="236.81728" r="88.20127" fill="#fff"/><circle cx="419.1126" cy="146.34731" r="88.20129" fill="#fff"/><circle cx="330.91131" cy="90.80967" r="88.20128" fill="#fff"/><circle cx="91.6872" cy="423.99999" r="88.20129" fill="#fff"/><circle cx="154.50874" cy="570.80596" r="88.20129" fill="#fff"/><circle cx="591.32537" cy="297.02954" r="88.20129" fill="#fff"/><path d="M466.39646,258.41612a120.175,120.175,0,1,1,.00006,0Zm0-238.07182a117.8966,117.8966,0,1,0,117.89621,117.897v-.00067A118.03008,118.03008,0,0,0,466.39646,20.34429Z" transform="translate(-243.48285 -17.73588)" fill="#fff"/><circle cx="290.31936" cy="358.57662" r="73.14255" fill="#fff"/><circle cx="253.03103" cy="612.42419" r="73.14253" fill="#fff"/><path d="M991.9203,556.98378q-1.145-5.91321-2.35846-11.66687a.01119.01119,0,0,1-.01142-.01093h0v-.00049c-10.23126-48.54736-24.01733-88.356-40.34411-120.82721l-43.26075-14.87973,32.608-4.65991c3.25714-37.48608,3.11212-69.03482-43.14685-55.55435L815.949,358.46486l59.975-25.70356c-168.77509-180.65545-286.96124-70.13092-294.09839,4.61432-5.40045,2.85974-8.81848,4.87641-9.91229,5.52582-.01142,0-.01142,0-.02277.01141-.23926.14811-.35321.21647-.35321.21647l22.35388,11.60989h.01142L990.89491,560.94868Z" transform="translate(-243.48285 -17.73588)" fill="#6c63ff"/><path d="M991.9203,556.98378q.76895-3.05915,1.46972-6.12964c-1.16211-1.69763-2.43817-3.55475-3.82818-5.53717a.01119.01119,0,0,1-.01142-.01093h0v-.00048c-98.88427-21.215-174.30511-277.71946-406.8703-206.73356h-.01141q-5.36628,2.01664-10.75537,4.3295c-.01142,0-.01142,0-.02277.01142q-4.90485,2.102-9.8211,4.46621c-1.66346.78614-3.31549,1.60648-4.979,2.4382-1.447.72919-2.88257,1.46976-4.32953,2.23313,0,0-8.226,2.06219-17.44336,9.83252-18.10412,15.29-40.04785,52.649-10.97186,139.877,0,0,25.81751,72.2685,12.90875,105.8335-12.90875,33.54223,67.13,72.25708,90.33838,0-18.016-84.87561,19.81476-145.386,30.99011-141.97339,45.72754-13.28589,58.94391,46.90564,24.07428,112.70367,32.81653,10.90107,52.69623,27.62555,7.212,68.5542.638,2.33564,1.333,4.67133,2.028,7.04114,29.63611,6.51367,66.16785,18.869,40.79981,99.55566,24.10071,2.53443,33.18664,19.78083,31.3775,47.56751,15.44257-5.01764,75.468-143.4174,90.03506-150.5902,89.80871-44.16156,111.13169,7.232,136.78532-89.50337Z" transform="translate(-243.48285 -17.73588)" fill="#3f3d56"/><polygon points="317.011 360.127 306.686 274.949 350.566 336.896 317.011 360.127" fill="#3f3d56"/><polygon points="294.512 366.263 284.187 281.085 328.067 343.032 294.512 366.263" fill="#3f3d56"/><path d="M515.51981,463.36989l-110.247-143.301c55.1568,16.32544,107.39216,35.43512,111.656,100.262Z" transform="translate(-243.48285 -17.73588)" fill="#6c63ff"/><circle cx="757.32986" cy="88.7827" r="17.09015" transform="translate(161.71948 747.38777) rotate(-69.18322)" fill="#f2f2f2"/></svg>