<?xml version="1.0" encoding="UTF-8"?><svg id="a" xmlns="http://www.w3.org/2000/svg" width="363.67004" height="477.96007" viewBox="0 0 363.67004 477.96007"><g><polygon points="267.15244 468.68793 255.29333 468.68678 249.65187 422.94394 267.15483 422.94517 267.15244 468.68793" fill="#a0616a"/><path d="M226.52161,468.41891h0c-.36925,.62189-.56409,2.62907-.56409,3.35227h0c0,2.22294,1.80202,4.02503,4.02503,4.02503h36.72631c1.51648,0,2.7459-1.22935,2.7459-2.7459v-1.52903s1.81681-4.59554-1.92369-10.2598c0,0-4.64894,4.4352-11.59566-2.51151l-2.04852-3.71106-14.8285,10.84481-8.21921,1.01171c-1.7982,.22132-3.39246-.03435-4.31743,1.52348h-.00014Z" fill="#2f2e41"/></g><g><polygon points="322.15244 468.68793 310.29333 468.68678 304.65187 422.94394 322.15483 422.94517 322.15244 468.68793" fill="#a0616a"/><path d="M281.52161,468.41891h0c-.36925,.62189-.56409,2.62907-.56409,3.35227h0c0,2.22294,1.80202,4.02503,4.02503,4.02503h36.72631c1.51648,0,2.7459-1.22935,2.7459-2.7459v-1.52903s1.81681-4.59554-1.92369-10.2598c0,0-4.64894,4.4352-11.59566-2.51151l-2.04852-3.71106-14.8285,10.84481-8.21921,1.01171c-1.7982,.22132-3.39246-.03435-4.31743,1.52348h-.00014Z" fill="#2f2e41"/></g><path d="M258.63561,80.15901c-2.54988-1.98422-5.19602-4.08831-6.51428-7.0381s-.79204-6.99497,2.00646-8.60973c3.76766-2.17398,8.70729,1.16635,12.81236-.27234,2.78739-.97688,4.35963-3.83628,5.87551-6.37123s3.64699-5.21103,6.59773-5.3411c3.80908-.1679,6.4664,3.94384,10.17296,4.83757,4.15525,1.00192,8.31003-2.26813,12.55894-1.80261,3.89982,.42727,6.93756,4.21149,7.13107,8.12988s-2.0756,7.69962-5.27079,9.976c-4.36184,3.10755-9.99802,3.61733-15.33814,4.02418l-30.05796,2.29006" fill="#e6e6e6"/><circle cx="271.99322" cy="34.78063" r="27.11315" fill="#a0616a"/><path d="M286.48588,41.74299l8.32699,10.65381s12.27947-20.22886,2.88811-33.66874c0,0-4.47236-4.46395-4.12177-8.00342,.35058-3.53947-7.57359-9.23887-13.05808-7.99501-5.48449,1.24386-4.64765-2.69422-4.64765-2.69422l-5.61596,2.57116-3.76278-2.60657-3.00518,3.27653s-18.09173,2.22898-14.36437,14.21429c0,0-16.23015,5.98756-10.56196,11.91028,5.66819,5.92272,12.87859,5.29659,14.82361,3.70215s18.49034-1.74272,18.49034-1.74272l.98092,8.13909,7.51716-3.72316s7.82812-2.35204,6.11062,5.96654Z" fill="#2f2e41"/><path d="M85.62463,173.01367c-.51172,0-1.02344-.19531-1.41406-.58594-.78125-.78076-.78125-2.04736,0-2.82812l26.56982-26.57031c1.99658-1.99658,2.94092-4.74854,2.59082-7.55029l-1.31055-10.4834c-.13721-1.09619,.64014-2.0957,1.73633-2.23242,1.1001-.14062,2.09521,.64062,2.23242,1.73633l1.31055,10.4834c.50488,4.03564-.85547,7.99951-3.73145,10.875l-26.56982,26.56982c-.39014,.39062-.90234,.58594-1.41406,.58594Z" fill="#3f3d56"/><rect x="95.53865" y="115.49425" width="23.13305" height="14.54077" transform="translate(-12.83826 12.50927) rotate(-6.30706)" fill="#3f3d56"/><rect x="76.37127" y="121.44275" width="23.13305" height="7.27039" fill="#3f3d56"/><path d="M84.87959,127.09493l-19.01399,6.79934c-3.91191,1.41041-8.23631-.59878-9.69991-4.49737l-25.26782,7.30488c-.98462,.30601-1.99587,.45235-2.96717,.47899-1.05113,.05319-2.02251,.1863-2.9273,.35928-4.40422,.81164-4.47486,.72909-5.28649-4.54004-.01332-.10647-3.97336-11.89353-4-12-.55882-3.8454-.53321-4.81578,2.40741-5.9867,1.33058-.51895,2.90066-1.01126,4.53725-1.68987,.15974-.07983,.31941-.14634,.49239-.21286l25.09476-9.221v-3.51267h-4.37767l-2.64785-6.17392,23.45817-10.57814c2.46163-1.11764,5.22918-1.35722,7.85047-.70517,2.02243,.50555,3.8454,1.5168,5.30901,2.90066,1.47693,1.38378,2.59465,3.12684,3.2333,5.10939l.63865,2.02251,6.49325,20.35789,1.37054,4.29775c1.25075,3.91191-.82495,8.10328-4.69699,9.48706Z" fill="#3f3d56"/><polygon points="237.88951 241.48308 247.71691 441 270.71691 440 286.26931 285.73353 303.71691 441 323.71691 439 337.55961 251.03715 237.88951 241.48308" fill="#2f2e41"/><path d="M300.09761,64.7327c-15.99962,1.61984-29.47552,5.47008-39.72483,5.53132l-25.64518,12.57113,4.8899,88.20575-2.4787,71.88239s41.83926,10.37667,68.99294,14.90228,33.26307,0,33.26307,0l-14.26205-63.23699-4.95741-122.6958-20.07774-7.16008Z" fill="#e6e6e6"/><path d="M344.33831,187.67684l.63027-49.07042-18.83627-5.18146,.56968,54.25922-4.33365,40.09518,.11256,.04198c-1.81674,1.82688-3.29082,4.74303-3.91844,8.1899-1.14525,6.29003,.95395,11.94026,4.68857,12.62022,3.7347,.67996,7.69065-3.86775,8.83583-10.15778,.47013-2.58203,.38616-5.04931-.12587-7.11613l.1677,.06256,12.20962-43.74327Z" fill="#a0616a"/><path d="M194.89849,190.23635l42.18082-25.0815-5.41495-18.77048-45.97983,28.81393-36.4594,17.23706,.02296,.11792c-2.50663-.59569-5.76339-.33043-9.03087,.93384-5.96263,2.30717-9.6857,7.04747-8.31584,10.5877,1.3699,3.54029,7.31397,4.53999,13.27656,2.23275,2.44764-.94708,4.50813-2.30683,6.00358-3.8226l.0342,.17569,43.68277-12.42432Z" fill="#a0616a"/><path d="M310.08071,72.32867s8.54838-6.537,14.58254,3.01708c6.03415,9.55407,22.62807,57.82729,22.62807,57.82729,0,0,4.79881,22.12523,3.65652,25.39372s-2.65083,32.03565-2.65083,32.03565l-23.57635-4.27617,.57016-27.75948-22.4664-35.86057,7.25629-50.37752Z" fill="#e6e6e6"/><path d="M241.51602,83.08657s-16.59392-1.12447-18.6053,9.74611-14.58254,61.65803-14.58254,61.65803l-26.14799,16.59392,10.96957,23.23584s6.63004-4.63054,12.16135-4.63054,17.59961-8.48305,17.59961-8.48305c0,0,21.66419-19.03957,21.66419-22.55949s-3.05888-75.56082-3.05888-75.56082Z" fill="#e6e6e6"/><rect x="132.03219" y="141.77105" width="9.55407" height="110.2143" transform="translate(-97.56539 146.41701) rotate(-43.05446)" fill="#3f3d56"/><ellipse cx="49.27341" cy="90.89384" rx="4.12265" ry="2.47359" transform="translate(-30.26654 24.84117) rotate(-21.83055)" fill="#6c63ff"/><path d="M261.26189,71.97894c-.84125,.21857-1.52411,.91321-1.73505,1.75641-.09882,.3952-.10242,.77832-.02924,1.13281,.58392,2.82959,1.18884,5.65485,1.18884,8.54407v49.44812c0,.55225,.44769,1,1,1h.4787c.55231,0,1-.44775,1-1v-47.7959c0-3.47174,.66882-6.8797,1.20947-10.30914,.01965-.12494,.02991-.25311,.02991-.38385,0-1.58496-1.48755-2.82245-3.14264-2.39252Z" fill="#6c63ff"/><path d="M291.00677,68.2608c-.84125,.21832-1.52417,.91278-1.73529,1.75586-.099,.39532-.1026,.77856-.02948,1.13312,.58386,2.83112,1.1889,5.65778,1.1889,8.54852v48.20465c0,.55225,.44769,1,1,1h.4787c.55231,0,1-.44775,1-1v-46.55695c0-3.47162,.66882-6.87946,1.20947-10.30872,.01965-.12494,.02991-.25311,.02991-.38385,0-1.58478-1.48724-2.82227-3.14221-2.39264Z" fill="#6c63ff"/><path d="M88.49775,458.99156c-2.06596,.12943-3.20775-2.43734-1.64474-3.93332l.1555-.61819c-.02037-.04925-.04083-.09845-.06146-.14762-2.09427-4.99272-5.84395-.27999-11.24767,.05533-7.94717,.49316-7.82846,6.50372-4.74985,13.53162,.83575,1.90784-6.25866-13.48616-6.25866-23.82032,0-2.59652,.14213-5.19301,.43275-7.78295,.239-2.11854,.56839-4.2241,.99471-6.31034,2.30575-11.2772,7.29852-22.01825,14.50012-30.98962,3.46197-1.89248,6.34906-4.85065,8.09295-8.39652,.62649-1.27891,6.00922-2.35919,6.24173-3.76075-.39398,.05168-6.37738-6.24409-6.08023-6.61223-.54906-.83317-1.53178-1.24733-2.13144-2.06034-2.98232-4.04341-7.0912-3.33741-9.23621,2.15727-4.58224,2.31266-4.62659,6.14806-1.81495,9.83683,1.78878,2.34682,2.03456,5.52233,3.60408,8.03478-.16151,.20671-.32944,.40695-.4909,.61366-.06206,.0796-.12395,.15933-.18566,.23918-2.53339,3.27809-7.59193,2.43844-9.00273-1.45689-.1029-.28411-.97613,15.10569-.31905-.82329s-5.07197-7.82005-7.97245-11.49344c-3.46441-4.3876-10.51175-2.39353-11.1222,3.16349-.00584,.05317-.01153,.10628-.01712,.15945,.42892,.24196,.84911,.49906,1.25955,.77052,2.33935,1.54727,1.53003,5.17388-1.24198,5.60114l-.06277,.00967c.15503,1.54366,.41984,3.07444,.80734,4.57937-3.70089,14.31228,4.2862,19.52734,15.69314,19.76387l.5944,.84585c-1.08016,3.10807-1.94912,6.29072-2.60119,9.5144-.61359,2.99043-1.03991,6.01317-1.27885,9.04888l-.00995,.12979c-.19788,2.58248-3.46534,3.68083-5.10761,1.67801-.41796-.50972-.84567-.95654-1.27676-1.31047-4.94561-4.06264-11.93282-5.55869-17.26826-8.82425-2.56833-1.57196-5.85945,.45945-5.41121,3.43708l.02182,.14261c.79443,.32289,1.56947,.69755,2.31871,1.11733,.42928,.24222,.84982,.49949,1.26059,.77121,2.3397,1.54767,1.52974,5.17477-1.24303,5.60051l-.06282,.00965c-.0452,.00646-.08397,.01295-.12911,.01944l.04105,.097c1.78382,4.19631,6.04734,6.91423,10.60025,6.66528,5.35922-.29304,12.01607,4.18781,17.88748,12.11045l.00647,.00002c1.16259,5.06378,2.86128,10.01127,5.0444,14.72621h18.02019c.06463-.20022,.12274-.40692,.18089-.60717-1.6664,.10341-3.34571,.00649-4.98629-.29702,1.33701-1.64059,2.67396-3.29409,4.01097-4.93462,.03229-.0323,.05816-.0646,.08397-.09689,.67817-.8396,1.36282-1.67283,2.04099-2.51245l.00036-.001c.04245-2.57756-.26652-5.14664-.87876-7.63987l-.00051-.00036Z" fill="#f2f2f2"/><path d="M0,476.77007c0,.66003,.53003,1.19,1.19006,1.19H362.48004c.65997,0,1.19-.52997,1.19-1.19,0-.65997-.53003-1.19-1.19-1.19H1.19006c-.66003,0-1.19006,.53003-1.19006,1.19Z" fill="#ccc"/><path d="M27.01112,129.64672c0,2.85284-.72559,5.54081-2.0118,7.89896-4.40306,.80802-7.07453,2.32523-7.88255-2.95178-.01651-.09894-3.28161-13.09353-3.29812-13.19247-.56072-3.84234,1.36875-5.21108,4.30402-6.38185,5.27701,2.73739,8.88845,8.2618,8.88845,14.62714Z" fill="#6c63ff"/><path d="M88.20605,113.31012l-4.68359,1.06445c-2.55478,.57214-5.10947-1.02449-5.68161-3.59251l-2.60797-11.48293c-.58546-2.56809,1.02457-5.10947,3.59259-5.69493l2.88734-.65197,6.49325,20.35789Z" fill="#6c63ff"/></svg>