<svg id="a117d19a-9e1c-4458-b111-c358e00dbb91" data-name="Layer 1" xmlns="http://www.w3.org/2000/svg" xmlns:xlink="http://www.w3.org/1999/xlink" width="882.39" height="796.86" viewBox="0 0 882.39 796.86"><defs><linearGradient id="a0b6a73d-ed82-4cd8-985c-04cf9e47b1da" x1="629.98" y1="312.89" x2="629.98" gradientUnits="userSpaceOnUse"><stop offset="0" stop-color="gray" stop-opacity="0.25"/><stop offset="0.54" stop-color="gray" stop-opacity="0.12"/><stop offset="1" stop-color="gray" stop-opacity="0.1"/></linearGradient></defs><title>Yacht</title><circle cx="629.98" cy="156.45" r="156.45" fill="url(#a0b6a73d-ed82-4cd8-985c-04cf9e47b1da)"/><circle cx="629.98" cy="156.45" r="146.79" fill="#ff5252"/><path d="M691.21,248.57h-200a16.06,16.06,0,0,1-16.06-16.06V135.63a16.06,16.06,0,0,1,16.06-16.06H619.12A16.07,16.07,0,0,1,632,126l72.09,96.88A16.06,16.06,0,0,1,691.21,248.57Z" transform="translate(-158.81 -51.57)" fill="#464353"/><rect x="248.39" y="164" width="367" height="136" rx="16.06" fill="#6c63ff"/><rect x="159.39" y="240" width="545" height="182" rx="16.06" fill="#464353"/><rect y="716.55" width="748.43" height="10.71" rx="5" fill="#6c63ff"/><rect y="736.9" width="277.32" height="10.71" rx="5" fill="#6c63ff"/><rect x="213.07" y="761.52" width="277.32" height="10.71" rx="5" fill="#6c63ff"/><rect x="444.35" y="786.15" width="277.32" height="10.71" rx="5" fill="#6c63ff"/><rect x="777.34" y="716.55" width="49.25" height="10.71" rx="5" fill="#6c63ff"/><rect x="495.74" y="736.9" width="49.25" height="10.71" rx="5" fill="#6c63ff"/><rect x="70.67" y="761.52" width="49.25" height="10.71" rx="5" fill="#6c63ff"/><rect x="546.07" y="761.52" width="49.25" height="10.71" rx="5" fill="#6c63ff"/><rect x="39.62" y="786.15" width="277.32" height="10.71" rx="5" fill="#6c63ff"/><path d="M1041.19,426.57H247.26a16.07,16.07,0,0,0-16.07,16.06v45.94h804.38A343.29,343.29,0,0,0,1041.19,426.57Z" transform="translate(-158.81 -51.57)" fill="#6c63ff"/><path d="M1035.57,488.57H231.19v228H880.52C960.3,666.58,1018,584.59,1035.57,488.57Z" transform="translate(-158.81 -51.57)" fill="#464353"/><path d="M231.19,716.57v35.94a16.07,16.07,0,0,0,16.07,16.06H699.19a340.32,340.32,0,0,0,181.33-52Z" transform="translate(-158.81 -51.57)" fill="#6c63ff"/><rect x="548.89" y="183.5" width="66.5" height="30" fill="#fff"/><g opacity="0.5"><rect x="250.89" y="279.5" width="84" height="67" fill="#6c63ff"/><rect x="389.89" y="279.5" width="84" height="67" fill="#6c63ff"/><rect x="528.89" y="279.5" width="84" height="67" fill="#6c63ff"/></g><g opacity="0.5"><circle cx="765.89" cy="451.5" r="9" fill="#6c63ff"/><circle cx="792.89" cy="451.5" r="9" fill="#6c63ff"/><circle cx="819.89" cy="451.5" r="9" fill="#6c63ff"/></g><rect x="316.39" y="88.5" width="68.5" height="9" fill="#fff"/><rect x="316.39" y="103.5" width="68.5" height="9" fill="#fff"/></svg>