<?xml version="1.0" encoding="UTF-8"?><svg id="a" xmlns="http://www.w3.org/2000/svg" width="280.25057" height="549.56158" viewBox="0 0 280.25057 549.56158"><g><polygon points="117.89518 528.64261 127.90595 528.64216 132.66838 490.02896 117.89342 490.02964 117.89518 528.64261" fill="#a0616a"/><path d="M131.23713,529.54373v-6.78663l-2.63176,.16078-10.71301,.63466-2.47939,.15231-1.8955,22.72927-.10154,1.21855h7.10814l.22849-1.21008,1.03235-5.50037,2.66559,5.50037,.58389,1.21008h18.84514c1.12542,0,2.14936-.44005,2.9025-1.16778,.8208-.77008,1.32856-1.86167,1.32856-3.07175,.79544-3.71488-14.87641-11.74542-16.87345-13.86941Z" fill="#2f2e41"/></g><g><polygon points="154.3311 370.13744 157.65916 379.57881 195.65974 371.23523 190.74784 357.30064 154.3311 370.13744" fill="#a0616a"/><path d="M157.91615,383.02026l6.40072-2.25591-1.02645-2.42866-4.15962-9.89287-.96781-2.28778-22.06689,5.76759-1.18301,.30928,2.36278,6.70395,1.21722-.18673,5.53076-.8547-4.30155,4.34236-.94718,.95292,6.26421,17.77355c.3741,1.06143,1.12948,1.88087,2.06618,2.34928,.99913,.51815,2.19743,.63418,3.3387,.23195,3.76805-.48463,6.13255-17.93472,7.47194-20.52423Z" fill="#2f2e41"/></g><path d="M102.41593,237.10775l5.55118-15.68085c18.84378-28.55093,12.62885-53.26825,11.44882-77.31915l68-2c.16302,30.96365-6.24164,60.69778,8.29919,79.31915l-67.29919,28.68085-26-13Z" fill="#a0616a"/><path d="M195.71512,221.4269c-29.86707,12.88196-59.18433,14.29868-87.74799,0l-21.8258,52.34736c-3.71319,8.90577-4.85269,18.71683-3.00663,28.18744,.57498,2.94976,1.31756,5.0989,2.26129,5.11012,3.01993,.03592-1.42803,7.26755,1.29595,7.15174,2.72398-.11582,1.21762,6.71948,1.21762,6.71948l20.50636,113.16471,7,58,20-1,12.17323-190.08169,59.82677-32.91831-11.70081-46.68085Z" fill="#2f2e41"/><path d="M191.80963,258.81436l15.6063,9.29339,60.55869,34.23609c7.58569,4.28847,12.27595,12.32795,12.27595,21.04195v.00003c0,9.81817-5.93883,18.66093-15.02729,22.37526l-71.80736,29.34668-3-19,43.85897-25.9155-15.25267-7.45735-34.59139-12.27696s-8.79559,.8683-4.90525-1.74094-7.95083,1.39355-4.53024-1.60784c3.42059-3.0014-2.80935-.04063-5.69438-2.02101s-28.51495-10.12035-28.51495-10.12035l51.02362-36.15342Z" fill="#2f2e41"/><path d="M189.41593,187.10775c-28.56219,19.00446-51.92725,17.12613-71-2,0,0-4.0748,.4663-.5374-3.76685,3.5374-4.23315-.39634-2.77811-.39634-2.77811,0,0-2.49989-.51331-.28307-1.98418,2.21682-1.47086-3.6085-25.29332-3.6085-25.29332l-2.88861-20.24734c-3.15439-9.43359-9.03064-24.24731-3.28607-29.93021l32-13,30-1,32,15c9.15295,4.65964-2.01355,23.65778-5.74347,33.23969,0,0-5.04319,47.72234-5.64986,46.74133s-.85993,1.8412-.2333,1.93009,3.05274,.56369-.16032,1.32629c-3.21305,.7626-.21305,1.7626-.21305,1.7626Z" fill="#6c63ff"/><g><path d="M112.41593,126.10775s-21.88623-23.25875-23-12c-.72478,7.32655-7.996,45.50598-3.82573,58.59111,2.07675,6.51626,9.28802,9.85232,15.60435,7.22961l52.41907-21.76585-6.89868-14.1383-41.51891,17.18153,7.2199-35.0981Z" fill="#a0616a"/><circle cx="154.41625" cy="147.10807" r="11" fill="#a0616a"/></g><g><path d="M191.41593,115.10775s22.65509-10.29473,22,1c-.4263,7.34996,9.15426,53.733,2.99501,66.00799-3.06725,6.11282-10.71044,8.28385-16.54065,4.70849l-48.38484-29.67186,9.01849-12.88992,38.33265,23.44425-7.42067-52.59896Z" fill="#a0616a"/><circle cx="152.41604" cy="146.10786" r="11" fill="#a0616a"/></g><path d="M190.30313,132.56917l-9.51855-27.76172,13.1167-4.82471c4.86182-1.79004,10.23779-.21924,13.37402,3.90625l7.84521,10.31934-24.81738,18.36084Z" fill="#6c63ff"/><path d="M112.52872,132.56917l-24.81738-18.36084,7.84521-10.31934c3.13525-4.12451,8.50879-5.69629,13.37402-3.90625l13.1167,4.82471-9.51855,27.76172Z" fill="#6c63ff"/><path d="M203.24046,531.4722c2.06592,.12937,3.20768-2.43737,1.64468-3.93333l-.1555-.61819c.02047-.04951,.04105-.09897,.06178-.14839,2.08924-4.9818,9.16992-4.94742,11.24139,.04177,1.83859,4.42817,4.17942,8.86389,4.75579,13.54594,.25838,2.0668,.14213,4.17236-.31648,6.20047,4.30807-9.41059,6.57515-19.68661,6.57515-30.02077,0-2.59652-.14213-5.19301-.43275-7.78295-.239-2.11854-.56839-4.2241-.99471-6.31034-2.30575-11.2772-7.29852-22.01825-14.50012-30.98962-3.46197-1.89248-6.34906-4.85065-8.09295-8.39652-.62649-1.27891-1.11739-2.65462-1.34991-4.05618,.39398,.05168,1.48556-5.94866,1.18841-6.3168,.54906-.83317,1.53178-1.24733,2.13144-2.06034,2.98232-4.04341,7.0912-3.33741,9.23621,2.15727,4.58224,2.31266,4.62659,6.14806,1.81495,9.83683-1.78878,2.34682-2.03456,5.52233-3.60408,8.03478,.16151,.20671,.32944,.40695,.4909,.61366,2.96106,3.79788,5.52208,7.88002,7.68104,12.16859-.61017-4.76621,.29067-10.50822,1.82641-14.20959,1.74819-4.21732,5.02491-7.76915,7.91045-11.41501,3.46601-4.37924,10.57337-2.46806,11.18401,3.08332,.00591,.05375,.01166,.10745,.01731,.1612-.4286,.24178-.84849,.49867-1.25864,.76992-2.33949,1.54723-1.53096,5.17386,1.24107,5.60174l.06277,.00967c-.15503,1.54366-.41984,3.07444-.80734,4.57937,3.70179,14.31579-4.29011,19.5299-15.70147,19.76412-.25191,.12916-.49738,.25832-.74929,.38109,1.15617,3.25525,2.07982,6.59447,2.76441,9.97891,.61359,2.99043,1.03991,6.01317,1.27885,9.04888,.29715,3.83006,.27129,7.67959-.05168,11.50323l.01939-.13562c.82024-4.21115,3.10671-8.14462,6.4266-10.87028,4.94561-4.06264,11.93282-5.55869,17.26826-8.82425,2.56833-1.57196,5.85945,.45945,5.41121,3.43708l-.02182,.14261c-.79443,.32289-1.56947,.69755-2.31871,1.11733-.4286,.24184-.84848,.49867-1.25864,.76992-2.33949,1.54729-1.53096,5.17392,1.24107,5.6018l.06282,.00965c.0452,.00646,.08397,.01295,.12911,.01944-1.36282,3.23581-3.26168,6.23922-5.63854,8.82922-2.31463,12.49713-12.25603,13.68282-22.89022,10.04354h-.00648c-1.16259,5.06378-2.86128,10.01127-5.0444,14.72621h-18.02019c-.06463-.20022-.12274-.40692-.18089-.60717,1.6664,.10341,3.34571,.00649,4.98629-.29702-1.33701-1.64059-2.67396-3.29409-4.01097-4.93462-.03229-.0323-.05816-.0646-.08397-.09689-.67817-.8396-1.36282-1.67283-2.04099-2.51246l-.00036-.00102c-.04245-2.57755,.26652-5.14662,.87876-7.63984l.00057-.00035Z" fill="#f2f2f2"/><path d="M61.59139,533.4722c-2.06592,.12937-3.20768-2.43737-1.64468-3.93333l.1555-.61819c-.02047-.04951-.04105-.09897-.06178-.14839-2.08924-4.9818-9.16992-4.94742-11.24139,.04177-1.83859,4.42817-4.17942,8.86389-4.75579,13.54594-.25838,2.0668-.14213,4.17236,.31648,6.20047-4.30807-9.41059-6.57515-19.68661-6.57515-30.02077,0-2.59652,.14213-5.19301,.43275-7.78295,.239-2.11854,.56839-4.2241,.99471-6.31034,2.30575-11.2772,7.29852-22.01825,14.50012-30.98962,3.46197-1.89248,6.34906-4.85065,8.09295-8.39652,.62649-1.27891,1.11739-2.65462,1.34991-4.05618-.39398,.05168-1.48556-5.94866-1.18841-6.3168-.54906-.83317-1.53178-1.24733-2.13144-2.06034-2.98232-4.04341-7.0912-3.33741-9.23621,2.15727-4.58224,2.31266-4.62659,6.14806-1.81495,9.83683,1.78878,2.34682,2.03456,5.52233,3.60408,8.03478-.16151,.20671-.32944,.40695-.4909,.61366-2.96106,3.79788-5.52208,7.88002-7.68104,12.16859,.61017-4.76621-.29067-10.50822-1.82641-14.20959-1.74819-4.21732-5.02491-7.76915-7.91045-11.41501-3.46601-4.37924-10.57337-2.46806-11.18401,3.08332-.00591,.05375-.01166,.10745-.01731,.1612,.4286,.24178,.84849,.49867,1.25864,.76992,2.33949,1.54723,1.53096,5.17386-1.24107,5.60174l-.06277,.00967c.15503,1.54366,.41984,3.07444,.80734,4.57937-3.70179,14.31579,4.29011,19.5299,15.70147,19.76412,.25191,.12916,.49738,.25832,.74929,.38109-1.15617,3.25525-2.07982,6.59447-2.76441,9.97891-.61359,2.99043-1.03991,6.01317-1.27885,9.04888-.29715,3.83006-.27129,7.67959,.05168,11.50323l-.01939-.13562c-.82024-4.21115-3.10671-8.14462-6.4266-10.87028-4.94561-4.06264-11.93282-5.55869-17.26826-8.82425-2.56833-1.57196-5.85945,.45945-5.41121,3.43708l.02182,.14261c.79443,.32289,1.56947,.69755,2.31871,1.11733,.4286,.24184,.84848,.49867,1.25864,.76992,2.33949,1.54729,1.53096,5.17392-1.24107,5.6018l-.06282,.00965c-.0452,.00646-.08397,.01295-.12911,.01944,1.36282,3.23581,3.26168,6.23922,5.63854,8.82922,2.31463,12.49713,12.25603,13.68282,22.89022,10.04354h.00648c1.16259,5.06378,2.86128,10.01127,5.0444,14.72621h18.02019c.06463-.20022,.12274-.40692,.18089-.60717-1.6664,.10341-3.34571,.00649-4.98629-.29702,1.33701-1.64059,2.67396-3.29409,4.01097-4.93462,.03229-.0323,.05816-.0646,.08397-.09689,.67817-.8396,1.36282-1.67283,2.04099-2.51246l.00036-.00102c.04245-2.57755-.26652-5.14662-.87876-7.63984l-.00057-.00035Z" fill="#f2f2f2"/><path d="M0,547.9695c0,.66003,.53003,1.19,1.19006,1.19H254.48004c.65997,0,1.19-.52997,1.19-1.19,0-.65997-.53003-1.19-1.19-1.19H1.19006c-.66003,0-1.19006,.53003-1.19006,1.19Z" fill="#ccc"/><g><path d="M150.25439,82.85121c-2.5228,.93256-5.10269,1.80847-7.78766,2.46282-3.48869,.85021-5.45839,1.24434-8.8256-.06248-.11828-.04591-.23116-.09128-.33764-.13591-12.57642-5.24598-21.49548-17.75697-21.77034-32.43344-.01684-.23787-.01684-.48799-.01684-.732,0-1.18335,.0505-2.36068,.16831-3.51964,.15143-1.61039,.40387-3.1903,.76288-4.73356l-.03366-.00611c-2.72619-2.78768-3.77516-6.60625-3.42738-10.44311,.44314-5.01414,3.26471-10.06491,7.79714-12.90747,3.3713-2.1106,7.21377-3.51968,11.33675-4.00156,1.07139-.12201,2.15402-.1891,3.2591-.1891h10.23166c2.17086-.5002,4.33053-.8479,6.42285-1.01261h.01681c20.59237-1.70798,36.83178,11.94371,35.31722,28.55385-.01123,.01832-.02804,.0366-.03927,.05492-.43752,.71368-.82458,1.39077-1.16678,2.03736-.33094,.60389-.61141,1.18339-.85262,1.7324-1.87919,4.24554,7.0511,70.11538,3.84809,71.11574-1.82308,.56729-9.17147-48.44832-7.85325-39.12762,1.66041,11.69359-17.56298-.15928-27.04977,3.34753Z" fill="#2f2e41"/><circle cx="150.52594" cy="54.06569" r="24.2206" fill="#a0616a"/><path d="M171.58811,43.82345c-.40387,.21313-.80215,.40948-1.20605,.6058-.42071,.20193-.84142,.4039-1.26771,.5946-8.10569,3.67419-14.70804,4.08371-18.71321-1.2004-.11216-2.7655-.72922-5.51412-1.8455-8.06642,.20755,2.82716-.56656,5.71043-2.13721,8.06642h-8.06642c-8.30762,5.51408-12.5708,10.57945-6.80429,28.68117,.37582,1.18924,2.95059,43.43971,3.68542,46.68762-12.57642-4.82416-23.42514-56.04421-23.7-69.54058-.01684-.21874-.01684-.44875-.01684-.67314,0-1.0882,.0505-2.17086,.16831-3.23664,.15143-1.48091,.40387-2.93377,.76288-4.35295l-.03366-.00561c-2.72619-2.56353-3.77516-6.07506-3.42738-9.60341,2.09794-2.74865,4.70632-5.09341,7.69617-6.89964,2.67573-1.3014,5.49727-2.35598,8.42543-3.16375,.07293-.01681,.13462-.03366,.20755-.05047,.88631-.24124,1.79504-.45998,2.70377-.65072,1.85673-.38705,3.7415-.67876,5.67116-.85823,.14024-.00561,.27486-.01684,.39828-.01684,.79092,0,1.52576,.21878,2.16525,.5946,.00561,0,.00561,.00561,.01681,.00561,.4656,.27486,.88069,.63949,1.20605,1.07701,.55533,.7068,.87508,1.5931,.87508,2.55792h8.98638c.33094,0,.66191,.01123,.99285,.02804,12.51472,.49925,22.57252,5.8507,23.21759,18.15226,.02804,.42632,.03927,.84142,.03927,1.26775Z" fill="#2f2e41"/><circle cx="118.45907" cy="28.84049" r="15.95668" fill="#2f2e41"/><path d="M140.36585,21.46004c-1.81281,8.62416-10.75664,13.78215-19.31296,11.67221s-13.78215-10.75664-11.67221-19.31296c2.10993-8.55632,12.4941-6.08961,19.31296-11.67221,9.64624-7.89739,14.11694,7.68259,11.67221,19.31296Z" fill="#2f2e41"/></g></svg>